# Blender 4.2.23 LTS
# www.blender.org
mtllib banner.mtl
o arm_a
v -0.390179 2.655000 -2.365901
v -0.390179 2.705000 -2.316092
v -0.390179 2.705000 -2.365901
v -0.390179 2.655000 -2.365901
v -0.390179 2.655000 -2.316092
v -0.390179 2.705000 -2.316092
v 0.650000 2.655000 -2.365901
v 0.650000 2.705000 -2.365901
v 0.650000 2.705000 -2.316092
v 0.650000 2.655000 -2.365901
v 0.650000 2.705000 -2.316092
v 0.650000 2.655000 -2.316092
v -0.370366 2.635000 -2.365901
v 0.630187 2.635000 -2.365901
v 0.630187 2.635000 -2.316092
v -0.370366 2.635000 -2.365901
v 0.630187 2.635000 -2.316092
v -0.370366 2.635000 -2.316092
v -0.370366 2.725000 -2.365901
v 0.630187 2.725000 -2.316092
v 0.630187 2.725000 -2.365901
v -0.370366 2.725000 -2.365901
v -0.370366 2.725000 -2.316092
v 0.630187 2.725000 -2.316092
v -0.370366 2.655000 -2.385824
v 0.630187 2.705000 -2.385824
v 0.630187 2.655000 -2.385824
v -0.370366 2.655000 -2.385824
v -0.370366 2.705000 -2.385824
v 0.630187 2.705000 -2.385824
v -0.370366 2.655000 -2.296169
v 0.630187 2.655000 -2.296169
v 0.630187 2.705000 -2.296169
v -0.370366 2.655000 -2.296169
v 0.630187 2.705000 -2.296169
v -0.370366 2.705000 -2.296169
v -0.390179 2.655000 -2.365901
v -0.370366 2.635000 -2.365901
v -0.370366 2.635000 -2.316092
v -0.390179 2.655000 -2.365901
v -0.370366 2.635000 -2.316092
v -0.390179 2.655000 -2.316092
v -0.390179 2.705000 -2.365901
v -0.370366 2.725000 -2.316092
v -0.370366 2.725000 -2.365901
v -0.390179 2.705000 -2.365901
v -0.390179 2.705000 -2.316092
v -0.370366 2.725000 -2.316092
v 0.650000 2.655000 -2.365901
v 0.630187 2.635000 -2.316092
v 0.630187 2.635000 -2.365901
v 0.650000 2.655000 -2.365901
v 0.650000 2.655000 -2.316092
v 0.630187 2.635000 -2.316092
v 0.650000 2.705000 -2.365901
v 0.630187 2.725000 -2.365901
v 0.630187 2.725000 -2.316092
v 0.650000 2.705000 -2.365901
v 0.630187 2.725000 -2.316092
v 0.650000 2.705000 -2.316092
v -0.390179 2.655000 -2.365901
v -0.370366 2.705000 -2.385824
v -0.370366 2.655000 -2.385824
v -0.390179 2.655000 -2.365901
v -0.390179 2.705000 -2.365901
v -0.370366 2.705000 -2.385824
v -0.390179 2.655000 -2.316092
v -0.370366 2.655000 -2.296169
v -0.370366 2.705000 -2.296169
v -0.390179 2.655000 -2.316092
v -0.370366 2.705000 -2.296169
v -0.390179 2.705000 -2.316092
v 0.650000 2.655000 -2.365901
v 0.630187 2.655000 -2.385824
v 0.630187 2.705000 -2.385824
v 0.650000 2.655000 -2.365901
v 0.630187 2.705000 -2.385824
v 0.650000 2.705000 -2.365901
v 0.650000 2.655000 -2.316092
v 0.630187 2.705000 -2.296169
v 0.630187 2.655000 -2.296169
v 0.650000 2.655000 -2.316092
v 0.650000 2.705000 -2.316092
v 0.630187 2.705000 -2.296169
v -0.370366 2.635000 -2.365901
v -0.370366 2.655000 -2.385824
v 0.630187 2.655000 -2.385824
v -0.370366 2.635000 -2.365901
v 0.630187 2.655000 -2.385824
v 0.630187 2.635000 -2.365901
v -0.370366 2.635000 -2.316092
v 0.630187 2.655000 -2.296169
v -0.370366 2.655000 -2.296169
v -0.370366 2.635000 -2.316092
v 0.630187 2.635000 -2.316092
v 0.630187 2.655000 -2.296169
v -0.370366 2.725000 -2.365901
v 0.630187 2.705000 -2.385824
v -0.370366 2.705000 -2.385824
v -0.370366 2.725000 -2.365901
v 0.630187 2.725000 -2.365901
v 0.630187 2.705000 -2.385824
v -0.370366 2.725000 -2.316092
v -0.370366 2.705000 -2.296169
v 0.630187 2.705000 -2.296169
v -0.370366 2.725000 -2.316092
v 0.630187 2.705000 -2.296169
v 0.630187 2.725000 -2.316092
v -0.390179 2.655000 -2.365901
v -0.370366 2.655000 -2.385824
v -0.370366 2.635000 -2.365901
v -0.390179 2.655000 -2.316092
v -0.370366 2.635000 -2.316092
v -0.370366 2.655000 -2.296169
v -0.390179 2.705000 -2.365901
v -0.370366 2.725000 -2.365901
v -0.370366 2.705000 -2.385824
v -0.390179 2.705000 -2.316092
v -0.370366 2.705000 -2.296169
v -0.370366 2.725000 -2.316092
v 0.650000 2.655000 -2.365901
v 0.630187 2.635000 -2.365901
v 0.630187 2.655000 -2.385824
v 0.650000 2.655000 -2.316092
v 0.630187 2.655000 -2.296169
v 0.630187 2.635000 -2.316092
v 0.650000 2.705000 -2.365901
v 0.630187 2.705000 -2.385824
v 0.630187 2.725000 -2.365901
v 0.650000 2.705000 -2.316092
v 0.630187 2.725000 -2.316092
v 0.630187 2.705000 -2.296169
vn -1.0000 -0.0000 -0.0000
vn 1.0000 -0.0000 -0.0000
vn -0.0000 -1.0000 -0.0000
vn -0.0000 1.0000 -0.0000
vn -0.0000 -0.0000 -1.0000
vn -0.0000 -0.0000 1.0000
vn -0.7104 -0.7038 -0.0000
vn -0.7104 0.7038 -0.0000
vn 0.7104 -0.7038 -0.0000
vn 0.7104 0.7038 -0.0000
vn -0.7091 -0.0000 -0.7051
vn -0.7091 -0.0000 0.7051
vn 0.7091 -0.0000 -0.7051
vn 0.7091 -0.0000 0.7051
vn -0.0000 -0.7057 -0.7085
vn -0.0000 -0.7057 0.7085
vn -0.0000 0.7057 -0.7085
vn -0.0000 0.7057 0.7085
vn -0.5802 -0.5748 -0.5770
vn -0.5802 -0.5748 0.5770
vn -0.5802 0.5748 -0.5770
vn -0.5802 0.5748 0.5770
vn 0.5802 -0.5748 -0.5770
vn 0.5802 -0.5748 0.5770
vn 0.5802 0.5748 -0.5770
vn 0.5802 0.5748 0.5770
vt 0.821919 0.529687
vt 0.824403 0.526203
vt 0.824403 0.529687
vt 0.822599 0.433738
vt 0.822599 0.430254
vt 0.825083 0.430254
vt 0.546117 0.924026
vt 0.543633 0.924026
vt 0.543633 0.920543
vt 0.308015 0.953431
vt 0.305531 0.949948
vt 0.308015 0.949948
vt 0.577174 0.760931
vt 0.573695 0.691048
vt 0.577174 0.690875
vt 0.603267 0.760931
vt 0.603267 0.690875
vt 0.606746 0.760758
vt 0.811714 0.088382
vt 0.815197 0.137625
vt 0.811714 0.137625
vt 0.815197 0.212961
vt 0.811714 0.212961
vt 0.811714 0.163718
vt 0.766256 0.613972
vt 0.769753 0.683941
vt 0.766256 0.683941
vt 0.016543 0.773314
vt 0.013047 0.773314
vt 0.013047 0.703344
vt 0.042636 0.773314
vt 0.042636 0.703344
vt 0.046133 0.703344
vt 0.075722 0.703344
vt 0.072226 0.773314
vt 0.072226 0.703344
vt 0.972549 0.046106
vt 0.971163 0.046106
vt 0.971163 0.042623
vt 0.972586 0.092401
vt 0.971200 0.088918
vt 0.972586 0.088918
vt 0.783542 0.208428
vt 0.785511 0.204944
vt 0.785511 0.208428
vt 0.686304 0.951483
vt 0.686304 0.948000
vt 0.688273 0.948000
vt 0.860568 0.964309
vt 0.861954 0.960826
vt 0.861954 0.964309
vt 0.897799 0.964653
vt 0.897799 0.961170
vt 0.899185 0.961170
vt 0.139682 0.958856
vt 0.137713 0.958856
vt 0.137713 0.955373
vt 0.107888 0.958875
vt 0.105920 0.955392
vt 0.107888 0.955392
vt 0.962458 0.557425
vt 0.961073 0.560922
vt 0.961073 0.557425
vt 0.931305 0.959609
vt 0.931305 0.963106
vt 0.929920 0.963106
vt 0.610926 0.960077
vt 0.612312 0.960077
vt 0.612312 0.963573
vt 0.573695 0.960104
vt 0.575081 0.963601
vt 0.573695 0.963601
vt 0.957506 0.432673
vt 0.958892 0.432673
vt 0.958892 0.436170
vt 0.511828 0.956370
vt 0.513214 0.959867
vt 0.511828 0.959867
vt 0.960261 0.255138
vt 0.958875 0.258635
vt 0.958875 0.255138
vt 0.960552 0.302150
vt 0.960552 0.305646
vt 0.959167 0.305646
vt 0.794427 0.469470
vt 0.795826 0.469498
vt 0.794427 0.539453
vt 0.797244 0.613972
vt 0.797244 0.683955
vt 0.795846 0.683927
vt 0.797244 0.710048
vt 0.797244 0.780031
vt 0.795846 0.710076
vt 0.235231 0.728213
vt 0.236630 0.798168
vt 0.235231 0.798196
vt 0.262723 0.798196
vt 0.262723 0.728213
vt 0.264121 0.798168
vt 0.292037 0.798196
vt 0.290639 0.728240
vt 0.292037 0.728213
vt 0.319528 0.798196
vt 0.318130 0.798168
vt 0.319528 0.728213
vt 0.346557 0.798196
vt 0.346557 0.728213
vt 0.347956 0.728240
vt 0.986370 0.434072
vt 0.984985 0.434072
vt 0.984985 0.432673
vt 0.960492 0.986431
vt 0.961877 0.985032
vt 0.961877 0.986431
vt 0.013047 0.980550
vt 0.014659 0.981679
vt 0.013047 0.982251
vt 0.655362 0.979556
vt 0.656964 0.978988
vt 0.656964 0.980699
vt 0.179387 0.986319
vt 0.180772 0.984921
vt 0.180772 0.986319
vt 0.208251 0.986319
vt 0.206865 0.986319
vt 0.206865 0.984921
vt 0.236834 0.980256
vt 0.235231 0.980824
vt 0.235231 0.979113
vt 0.267107 0.979681
vt 0.265504 0.980824
vt 0.265504 0.979113
s 0
usemtl banner
f 1/1/1 2/2/1 3/3/1
f 4/4/1 5/5/1 6/6/1
f 7/7/2 8/8/2 9/9/2
f 10/10/2 11/11/2 12/12/2
f 13/13/3 14/14/3 15/15/3
f 16/16/3 17/17/3 18/18/3
f 19/19/4 20/20/4 21/21/4
f 22/22/4 23/23/4 24/24/4
f 25/25/5 26/26/5 27/27/5
f 28/28/5 29/29/5 30/30/5
f 31/31/6 32/32/6 33/33/6
f 34/34/6 35/35/6 36/36/6
f 37/37/7 38/38/7 39/39/7
f 40/40/7 41/41/7 42/42/7
f 43/43/8 44/44/8 45/45/8
f 46/46/8 47/47/8 48/48/8
f 49/49/9 50/50/9 51/51/9
f 52/52/9 53/53/9 54/54/9
f 55/55/10 56/56/10 57/57/10
f 58/58/10 59/59/10 60/60/10
f 61/61/11 62/62/11 63/63/11
f 64/64/11 65/65/11 66/66/11
f 67/67/12 68/68/12 69/69/12
f 70/70/12 71/71/12 72/72/12
f 73/73/13 74/74/13 75/75/13
f 76/76/13 77/77/13 78/78/13
f 79/79/14 80/80/14 81/81/14
f 82/82/14 83/83/14 84/84/14
f 85/85/15 86/86/15 87/87/15
f 88/88/15 89/89/15 90/90/15
f 91/91/16 92/92/16 93/93/16
f 94/94/16 95/95/16 96/96/16
f 97/97/17 98/98/17 99/99/17
f 100/100/17 101/101/17 102/102/17
f 103/103/18 104/104/18 105/105/18
f 106/106/18 107/107/18 108/108/18
f 109/109/19 110/110/19 111/111/19
f 112/112/20 113/113/20 114/114/20
f 115/115/21 116/116/21 117/117/21
f 118/118/22 119/119/22 120/120/22
f 121/121/23 122/122/23 123/123/23
f 124/124/24 125/125/24 126/126/24
f 127/127/25 128/128/25 129/129/25
f 130/130/26 131/131/26 132/132/26
o arm_b
v -0.390179 2.655000 2.316092
v -0.390179 2.705000 2.365900
v -0.390179 2.705000 2.316092
v -0.390179 2.655000 2.316092
v -0.390179 2.655000 2.365900
v -0.390179 2.705000 2.365900
v 0.650000 2.655000 2.316092
v 0.650000 2.705000 2.316092
v 0.650000 2.705000 2.365900
v 0.650000 2.655000 2.316092
v 0.650000 2.705000 2.365900
v 0.650000 2.655000 2.365900
v -0.370366 2.635000 2.316092
v 0.630187 2.635000 2.316092
v 0.630187 2.635000 2.365900
v -0.370366 2.635000 2.316092
v 0.630187 2.635000 2.365900
v -0.370366 2.635000 2.365900
v -0.370366 2.725000 2.316092
v 0.630187 2.725000 2.365900
v 0.630187 2.725000 2.316092
v -0.370366 2.725000 2.316092
v -0.370366 2.725000 2.365900
v 0.630187 2.725000 2.365900
v -0.370366 2.655000 2.296169
v 0.630187 2.705000 2.296169
v 0.630187 2.655000 2.296169
v -0.370366 2.655000 2.296169
v -0.370366 2.705000 2.296169
v 0.630187 2.705000 2.296169
v -0.370366 2.655000 2.385823
v 0.630187 2.655000 2.385823
v 0.630187 2.705000 2.385823
v -0.370366 2.655000 2.385823
v 0.630187 2.705000 2.385823
v -0.370366 2.705000 2.385823
v -0.390179 2.655000 2.316092
v -0.370366 2.635000 2.316092
v -0.370366 2.635000 2.365900
v -0.390179 2.655000 2.316092
v -0.370366 2.635000 2.365900
v -0.390179 2.655000 2.365900
v -0.390179 2.705000 2.316092
v -0.370366 2.725000 2.365900
v -0.370366 2.725000 2.316092
v -0.390179 2.705000 2.316092
v -0.390179 2.705000 2.365900
v -0.370366 2.725000 2.365900
v 0.650000 2.655000 2.316092
v 0.630187 2.635000 2.365900
v 0.630187 2.635000 2.316092
v 0.650000 2.655000 2.316092
v 0.650000 2.655000 2.365900
v 0.630187 2.635000 2.365900
v 0.650000 2.705000 2.316092
v 0.630187 2.725000 2.316092
v 0.630187 2.725000 2.365900
v 0.650000 2.705000 2.316092
v 0.630187 2.725000 2.365900
v 0.650000 2.705000 2.365900
v -0.390179 2.655000 2.316092
v -0.370366 2.705000 2.296169
v -0.370366 2.655000 2.296169
v -0.390179 2.655000 2.316092
v -0.390179 2.705000 2.316092
v -0.370366 2.705000 2.296169
v -0.390179 2.655000 2.365900
v -0.370366 2.655000 2.385823
v -0.370366 2.705000 2.385823
v -0.390179 2.655000 2.365900
v -0.370366 2.705000 2.385823
v -0.390179 2.705000 2.365900
v 0.650000 2.655000 2.316092
v 0.630187 2.655000 2.296169
v 0.630187 2.705000 2.296169
v 0.650000 2.655000 2.316092
v 0.630187 2.705000 2.296169
v 0.650000 2.705000 2.316092
v 0.650000 2.655000 2.365900
v 0.630187 2.705000 2.385823
v 0.630187 2.655000 2.385823
v 0.650000 2.655000 2.365900
v 0.650000 2.705000 2.365900
v 0.630187 2.705000 2.385823
v -0.370366 2.635000 2.316092
v -0.370366 2.655000 2.296169
v 0.630187 2.655000 2.296169
v -0.370366 2.635000 2.316092
v 0.630187 2.655000 2.296169
v 0.630187 2.635000 2.316092
v -0.370366 2.635000 2.365900
v 0.630187 2.655000 2.385823
v -0.370366 2.655000 2.385823
v -0.370366 2.635000 2.365900
v 0.630187 2.635000 2.365900
v 0.630187 2.655000 2.385823
v -0.370366 2.725000 2.316092
v 0.630187 2.705000 2.296169
v -0.370366 2.705000 2.296169
v -0.370366 2.725000 2.316092
v 0.630187 2.725000 2.316092
v 0.630187 2.705000 2.296169
v -0.370366 2.725000 2.365900
v -0.370366 2.705000 2.385823
v 0.630187 2.705000 2.385823
v -0.370366 2.725000 2.365900
v 0.630187 2.705000 2.385823
v 0.630187 2.725000 2.365900
v -0.390179 2.655000 2.316092
v -0.370366 2.655000 2.296169
v -0.370366 2.635000 2.316092
v -0.390179 2.655000 2.365900
v -0.370366 2.635000 2.365900
v -0.370366 2.655000 2.385823
v -0.390179 2.705000 2.316092
v -0.370366 2.725000 2.316092
v -0.370366 2.705000 2.296169
v -0.390179 2.705000 2.365900
v -0.370366 2.705000 2.385823
v -0.370366 2.725000 2.365900
v 0.650000 2.655000 2.316092
v 0.630187 2.635000 2.316092
v 0.630187 2.655000 2.296169
v 0.650000 2.655000 2.365900
v 0.630187 2.655000 2.385823
v 0.630187 2.635000 2.365900
v 0.650000 2.705000 2.316092
v 0.630187 2.705000 2.296169
v 0.630187 2.725000 2.316092
v 0.650000 2.705000 2.365900
v 0.630187 2.725000 2.365900
v 0.630187 2.705000 2.385823
vn -1.0000 -0.0000 -0.0000
vn 1.0000 -0.0000 -0.0000
vn -0.0000 -1.0000 -0.0000
vn -0.0000 1.0000 -0.0000
vn -0.0000 -0.0000 -1.0000
vn -0.0000 -0.0000 1.0000
vn -0.7104 -0.7038 -0.0000
vn -0.7104 0.7038 -0.0000
vn 0.7104 -0.7038 -0.0000
vn 0.7104 0.7038 -0.0000
vn -0.7091 -0.0000 -0.7051
vn -0.7091 -0.0000 0.7051
vn 0.7091 -0.0000 -0.7051
vn 0.7091 -0.0000 0.7051
vn -0.0000 -0.7057 -0.7085
vn -0.0000 -0.7057 0.7085
vn -0.0000 0.7057 -0.7085
vn -0.0000 0.7057 0.7085
vn -0.5802 -0.5748 -0.5770
vn -0.5802 -0.5748 0.5770
vn -0.5802 0.5748 -0.5770
vn -0.5802 0.5748 0.5770
vn 0.5802 -0.5748 -0.5770
vn 0.5802 -0.5748 0.5770
vn 0.5802 0.5748 -0.5770
vn 0.5802 0.5748 0.5770
vt 0.543633 0.953602
vt 0.546117 0.950119
vt 0.546117 0.953602
vt 0.953561 0.617455
vt 0.953561 0.613972
vt 0.956045 0.613972
vt 0.956294 0.796012
vt 0.953809 0.796012
vt 0.953809 0.792529
vt 0.181871 0.958828
vt 0.179387 0.955344
vt 0.181871 0.955344
vt 0.460851 0.742748
vt 0.457372 0.672866
vt 0.460851 0.672692
vt 0.741322 0.325194
vt 0.741322 0.255138
vt 0.744801 0.325021
vt 0.811714 0.013047
vt 0.815197 0.062289
vt 0.811714 0.062289
vt 0.460856 0.818084
vt 0.457372 0.818084
vt 0.457372 0.768842
vt 0.770894 0.255138
vt 0.774390 0.325108
vt 0.770894 0.325108
vt 0.769753 0.780003
vt 0.766256 0.780003
vt 0.766256 0.710034
vt 0.655362 0.781743
vt 0.655362 0.711774
vt 0.658858 0.711774
vt 0.688448 0.711774
vt 0.684951 0.781743
vt 0.684951 0.711774
vt 0.972586 0.121977
vt 0.971200 0.121977
vt 0.971200 0.118494
vt 0.972609 0.168207
vt 0.971224 0.164724
vt 0.972609 0.164724
vt 0.956779 0.472953
vt 0.958748 0.469470
vt 0.958748 0.472953
vt 0.956809 0.513614
vt 0.956809 0.510131
vt 0.958777 0.510131
vt 0.795846 0.809873
vt 0.795846 0.806124
vt 0.797133 0.809361
vt 0.971163 0.016530
vt 0.971163 0.013047
vt 0.972549 0.013047
vt 0.959475 0.377004
vt 0.957506 0.377004
vt 0.957506 0.373521
vt 0.959475 0.406580
vt 0.957506 0.403097
vt 0.959475 0.403097
vt 0.824723 0.960133
vt 0.823337 0.963629
vt 0.823337 0.960133
vt 0.053290 0.960271
vt 0.053290 0.963767
vt 0.051904 0.963767
vt 0.457372 0.960342
vt 0.458758 0.960342
vt 0.458758 0.963839
vt 0.962792 0.887918
vt 0.964177 0.891414
vt 0.962792 0.891414
vt 0.959167 0.331739
vt 0.960552 0.331739
vt 0.960552 0.335236
vt 0.960354 0.840827
vt 0.961740 0.844324
vt 0.960354 0.844324
vt 0.961877 0.925853
vt 0.960492 0.929350
vt 0.960492 0.925853
vt 0.961877 0.955443
vt 0.961877 0.958939
vt 0.960492 0.958939
vt 0.374049 0.728213
vt 0.375447 0.728241
vt 0.374049 0.798196
vt 0.403363 0.728213
vt 0.403363 0.798196
vt 0.401965 0.798168
vt 0.430854 0.728213
vt 0.430854 0.798196
vt 0.429456 0.728241
vt 0.800483 0.255138
vt 0.801882 0.325094
vt 0.800483 0.325122
vt 0.105919 0.807949
vt 0.105919 0.737965
vt 0.107318 0.807921
vt 0.134809 0.807949
vt 0.133411 0.737993
vt 0.134809 0.737965
vt 0.162301 0.807949
vt 0.160902 0.807921
vt 0.162301 0.737965
vt 0.188394 0.807949
vt 0.188394 0.737965
vt 0.189792 0.737993
vt 0.986954 0.374920
vt 0.985568 0.374920
vt 0.985568 0.373521
vt 0.985568 0.404496
vt 0.986953 0.403097
vt 0.986953 0.404496
vt 0.340680 0.980286
vt 0.342283 0.979143
vt 0.342283 0.980855
vt 0.375794 0.982790
vt 0.375794 0.981089
vt 0.377407 0.981661
vt 0.137713 0.986348
vt 0.139099 0.984949
vt 0.139099 0.986348
vt 0.107305 0.986367
vt 0.105919 0.986367
vt 0.105919 0.984968
vt 0.307133 0.980667
vt 0.305531 0.981235
vt 0.305531 0.979524
vt 0.545236 0.980263
vt 0.543633 0.981407
vt 0.543633 0.979695
s 0
usemtl banner
f 133/133/27 134/134/27 135/135/27
f 136/136/27 137/137/27 138/138/27
f 139/139/28 140/140/28 141/141/28
f 142/142/28 143/143/28 144/144/28
f 145/145/29 146/146/29 147/147/29
f 148/148/29 149/149/29 150/150/29
f 151/151/30 152/152/30 153/153/30
f 154/154/30 155/155/30 156/156/30
f 157/157/31 158/158/31 159/159/31
f 160/160/31 161/161/31 162/162/31
f 163/163/32 164/164/32 165/165/32
f 166/166/32 167/167/32 168/168/32
f 169/169/33 170/170/33 171/171/33
f 172/172/33 173/173/33 174/174/33
f 175/175/34 176/176/34 177/177/34
f 178/178/34 179/179/34 180/180/34
f 181/181/35 182/182/35 183/183/35
f 184/184/35 185/185/35 186/186/35
f 187/187/36 188/188/36 189/189/36
f 190/190/36 191/191/36 192/192/36
f 193/193/37 194/194/37 195/195/37
f 196/196/37 197/197/37 198/198/37
f 199/199/38 200/200/38 201/201/38
f 202/202/38 203/203/38 204/204/38
f 205/205/39 206/206/39 207/207/39
f 208/208/39 209/209/39 210/210/39
f 211/211/40 212/212/40 213/213/40
f 214/214/40 215/215/40 216/216/40
f 217/217/41 218/218/41 219/219/41
f 220/220/41 221/221/41 222/222/41
f 223/223/42 224/224/42 225/225/42
f 226/226/42 227/227/42 228/228/42
f 229/229/43 230/230/43 231/231/43
f 232/232/43 233/233/43 234/234/43
f 235/235/44 236/236/44 237/237/44
f 238/238/44 239/239/44 240/240/44
f 241/241/45 242/242/45 243/243/45
f 244/244/46 245/245/46 246/246/46
f 247/247/47 248/248/47 249/249/47
f 250/250/48 251/251/48 252/252/48
f 253/253/49 254/254/49 255/255/49
f 256/256/50 257/257/50 258/258/50
f 259/259/51 260/260/51 261/261/51
f 262/262/52 263/263/52 264/264/52
o base_a
v -0.405038 0.160000 -2.121839
v -0.276935 0.160000 -2.163694
v -0.197763 0.160000 -2.273273
v -0.197763 0.160000 -2.408720
v -0.276935 0.160000 -2.518298
v -0.405038 0.160000 -2.560153
v -0.533141 0.160000 -2.518298
v -0.612314 0.160000 -2.408720
v -0.612314 0.160000 -2.273273
v -0.533141 0.160000 -2.163694
v -0.405038 0.160000 -2.121839
v -0.405038 -0.000000 -2.081992
v -0.253644 -0.000000 -2.131458
v -0.160076 -0.000000 -2.260960
v -0.160076 -0.000000 -2.421033
v -0.253644 -0.000000 -2.550535
v -0.405038 -0.000000 -2.600000
v -0.556433 -0.000000 -2.550535
v -0.650000 -0.000000 -2.421033
v -0.650000 -0.000000 -2.260960
v -0.556433 -0.000000 -2.131458
v -0.405038 -0.000000 -2.081992
v -0.405038 0.160000 -2.340996
v -0.405038 0.160000 -2.340996
v -0.405038 0.160000 -2.340996
v -0.405038 0.160000 -2.340996
v -0.405038 0.160000 -2.340996
v -0.405038 0.160000 -2.340996
v -0.405038 0.160000 -2.340996
v -0.405038 0.160000 -2.340996
v -0.405038 0.160000 -2.340996
v -0.405038 0.160000 -2.340996
v -0.405038 0.160000 -2.121839
v -0.276935 0.160000 -2.163694
v -0.197763 0.160000 -2.273273
v -0.197763 0.160000 -2.408720
v -0.276935 0.160000 -2.518298
v -0.405038 0.160000 -2.560153
v -0.533141 0.160000 -2.518298
v -0.612314 0.160000 -2.408720
v -0.612314 0.160000 -2.273273
v -0.533141 0.160000 -2.163694
v -0.405038 0.160000 -2.121839
v -0.405038 -0.000000 -2.340996
v -0.405038 -0.000000 -2.340996
v -0.405038 -0.000000 -2.340996
v -0.405038 -0.000000 -2.340996
v -0.405038 -0.000000 -2.340996
v -0.405038 -0.000000 -2.340996
v -0.405038 -0.000000 -2.340996
v -0.405038 -0.000000 -2.340996
v -0.405038 -0.000000 -2.340996
v -0.405038 -0.000000 -2.340996
v -0.405038 -0.000000 -2.081992
v -0.253644 -0.000000 -2.131458
v -0.160076 -0.000000 -2.260960
v -0.160076 -0.000000 -2.421033
v -0.253644 -0.000000 -2.550535
v -0.405038 -0.000000 -2.600000
v -0.556433 -0.000000 -2.550535
v -0.650000 -0.000000 -2.421033
v -0.650000 -0.000000 -2.260960
v -0.556433 -0.000000 -2.131458
v -0.405038 -0.000000 -2.081992
vn -0.0000 0.2417 0.9704
vn -0.0000 0.2416 0.9704
vn 0.5725 0.2412 0.7836
vn 0.5726 0.2412 0.7836
vn 0.9236 0.2405 0.2985
vn 0.9236 0.2405 0.2984
vn 0.9236 0.2405 -0.2984
vn 0.9236 0.2405 -0.2985
vn 0.5726 0.2412 -0.7836
vn 0.5725 0.2412 -0.7836
vn -0.0000 0.2417 -0.9704
vn -0.0000 0.2416 -0.9704
vn -0.5725 0.2412 -0.7836
vn -0.5726 0.2412 -0.7836
vn -0.9236 0.2405 -0.2985
vn -0.9236 0.2405 -0.2984
vn -0.9236 0.2405 0.2984
vn -0.9237 0.2405 0.2984
vn -0.9236 0.2405 0.2985
vn -0.5726 0.2412 0.7836
vn -0.5725 0.2412 0.7836
vn -0.0000 1.0000 -0.0000
vn -0.0000 -1.0000 -0.0000
vt 0.052961 0.900422
vt 0.051904 0.888940
vt 0.060675 0.900422
vt 0.061020 0.888940
vt 0.511828 0.781941
vt 0.523093 0.779687
vt 0.513098 0.789604
vt 0.524593 0.788743
vt 0.513098 0.799076
vt 0.524593 0.799937
vt 0.511828 0.806739
vt 0.523093 0.808993
vt 0.064142 0.818194
vt 0.052740 0.819591
vt 0.063435 0.810513
vt 0.051904 0.810513
vt 0.064142 0.801115
vt 0.052740 0.799406
vt 0.625317 0.814076
vt 0.614053 0.816330
vt 0.624048 0.806413
vt 0.612553 0.807274
vt 0.624048 0.796941
vt 0.612553 0.796080
vt 0.625317 0.789278
vt 0.614053 0.787024
vt 0.458220 0.898932
vt 0.457372 0.887434
vt 0.467645 0.898932
vt 0.468510 0.887434
vt 0.375794 0.868460
vt 0.384753 0.871387
vt 0.375794 0.883786
vt 0.179387 0.881039
vt 0.188390 0.878157
vt 0.188390 0.893405
vt 0.620398 0.900228
vt 0.610926 0.900228
vt 0.615662 0.885733
vt 0.314506 0.883903
vt 0.305531 0.886872
vt 0.305531 0.871576
vt 0.114895 0.893453
vt 0.105919 0.890579
vt 0.114895 0.878157
vt 0.832761 0.898705
vt 0.823337 0.898705
vt 0.828002 0.884137
vt 0.899591 0.428660
vt 0.890137 0.428660
vt 0.894787 0.414137
vt 0.520832 0.894450
vt 0.511828 0.891508
vt 0.520832 0.879201
vt 0.890137 0.373521
vt 0.899591 0.373521
vt 0.894787 0.388044
vt 0.412495 0.871387
vt 0.421453 0.868460
vt 0.421453 0.883786
vt 0.412495 0.824289
vt 0.423102 0.827686
vt 0.412495 0.842367
vt 0.841290 0.060726
vt 0.851897 0.057217
vt 0.851897 0.075295
vt 0.190027 0.852064
vt 0.179387 0.848587
vt 0.190027 0.834042
vt 0.863364 0.486633
vt 0.852191 0.486633
vt 0.857687 0.469470
vt 0.851897 0.160240
vt 0.841290 0.163636
vt 0.841290 0.145559
vt 0.622064 0.859640
vt 0.610926 0.859640
vt 0.616552 0.842423
vt 0.468545 0.861341
vt 0.457372 0.861341
vt 0.463049 0.844177
vt 0.116560 0.848587
vt 0.105919 0.852063
vt 0.105919 0.834042
vt 0.852871 0.416777
vt 0.864044 0.416777
vt 0.858548 0.433941
vt 0.573695 0.842423
vt 0.584833 0.842423
vt 0.579321 0.859640
s 0
usemtl banner
f 265/265/53 276/266/54 266/267/55
f 276/266/53 277/268/55 266/267/55
f 266/269/56 277/270/56 267/271/57
f 277/270/56 278/272/57 267/271/57
f 267/271/58 278/272/58 268/273/59
f 278/272/58 279/274/59 268/273/59
f 268/273/60 279/274/60 269/275/61
f 279/274/60 280/276/61 269/275/61
f 269/277/62 280/278/62 270/279/63
f 280/278/62 281/280/63 270/279/63
f 270/279/63 281/280/64 271/281/65
f 281/280/63 282/282/65 271/281/65
f 271/283/66 282/284/66 272/285/67
f 282/284/65 283/286/67 272/285/67
f 272/285/68 283/286/68 273/287/69
f 283/286/68 284/288/69 273/287/70
f 273/287/71 284/288/71 274/289/72
f 284/288/71 285/290/72 274/289/72
f 274/291/73 285/292/73 275/293/53
f 285/292/73 286/294/53 275/293/53
f 297/295/74 298/296/74 287/297/74
f 298/298/74 299/299/74 288/300/74
f 299/301/74 300/302/74 289/303/74
f 300/304/74 301/305/74 290/306/74
f 301/307/74 302/308/74 291/309/74
f 302/310/74 303/311/74 292/312/74
f 303/313/74 304/314/74 293/315/74
f 304/316/74 305/317/74 294/318/74
f 305/319/74 306/320/74 295/321/74
f 306/322/74 307/323/74 296/324/74
f 319/325/75 318/326/75 308/327/75
f 320/328/75 319/329/75 309/330/75
f 321/331/75 320/332/75 310/333/75
f 322/334/75 321/335/75 311/336/75
f 323/337/75 322/338/75 312/339/75
f 324/340/75 323/341/75 313/342/75
f 325/343/75 324/344/75 314/345/75
f 326/346/75 325/347/75 315/348/75
f 327/349/75 326/350/75 316/351/75
f 328/352/75 327/353/75 317/354/75
o base_b
v -0.405038 0.160000 2.560153
v -0.276935 0.160000 2.518298
v -0.197763 0.160000 2.408720
v -0.197763 0.160000 2.273273
v -0.276935 0.160000 2.163694
v -0.405038 0.160000 2.121839
v -0.533141 0.160000 2.163694
v -0.612314 0.160000 2.273273
v -0.612314 0.160000 2.408720
v -0.533141 0.160000 2.518298
v -0.405038 0.160000 2.560153
v -0.405038 0.000000 2.600000
v -0.253644 0.000000 2.550535
v -0.160076 0.000000 2.421033
v -0.160076 0.000000 2.260960
v -0.253644 0.000000 2.131458
v -0.405038 0.000000 2.081992
v -0.556433 0.000000 2.131458
v -0.650000 0.000000 2.260960
v -0.650000 0.000000 2.421033
v -0.556433 0.000000 2.550535
v -0.405038 0.000000 2.600000
v -0.405038 0.160000 2.340996
v -0.405038 0.160000 2.340996
v -0.405038 0.160000 2.340996
v -0.405038 0.160000 2.340996
v -0.405038 0.160000 2.340996
v -0.405038 0.160000 2.340996
v -0.405038 0.160000 2.340996
v -0.405038 0.160000 2.340996
v -0.405038 0.160000 2.340996
v -0.405038 0.160000 2.340996
v -0.405038 0.160000 2.560153
v -0.276935 0.160000 2.518298
v -0.197763 0.160000 2.408720
v -0.197763 0.160000 2.273273
v -0.276935 0.160000 2.163694
v -0.405038 0.160000 2.121839
v -0.533141 0.160000 2.163694
v -0.612314 0.160000 2.273273
v -0.612314 0.160000 2.408720
v -0.533141 0.160000 2.518298
v -0.405038 0.160000 2.560153
v -0.405038 0.000000 2.340996
v -0.405038 0.000000 2.340996
v -0.405038 0.000000 2.340996
v -0.405038 0.000000 2.340996
v -0.405038 0.000000 2.340996
v -0.405038 0.000000 2.340996
v -0.405038 0.000000 2.340996
v -0.405038 0.000000 2.340996
v -0.405038 0.000000 2.340996
v -0.405038 0.000000 2.340996
v -0.405038 0.000000 2.600000
v -0.253644 0.000000 2.550535
v -0.160076 0.000000 2.421033
v -0.160076 0.000000 2.260960
v -0.253644 0.000000 2.131458
v -0.405038 0.000000 2.081992
v -0.556433 0.000000 2.131458
v -0.650000 0.000000 2.260960
v -0.650000 0.000000 2.421033
v -0.556433 0.000000 2.550535
v -0.405038 0.000000 2.600000
vn -0.0000 0.2417 0.9704
vn -0.0000 0.2416 0.9704
vn 0.5725 0.2412 0.7836
vn 0.5726 0.2412 0.7836
vn 0.9236 0.2405 0.2985
vn 0.9236 0.2405 0.2984
vn 0.9236 0.2405 -0.2984
vn 0.9236 0.2405 -0.2985
vn 0.5726 0.2412 -0.7836
vn 0.5725 0.2412 -0.7836
vn -0.0000 0.2417 -0.9704
vn -0.0000 0.2416 -0.9704
vn -0.5725 0.2412 -0.7836
vn -0.5726 0.2412 -0.7836
vn -0.9236 0.2405 -0.2985
vn -0.9236 0.2405 -0.2984
vn -0.9236 0.2405 0.2984
vn -0.9237 0.2405 0.2984
vn -0.9236 0.2405 0.2985
vn -0.5726 0.2412 0.7836
vn -0.5725 0.2412 0.7836
vn -0.0000 1.0000 -0.0000
vn -0.0000 -1.0000 -0.0000
vt 0.892614 0.266620
vt 0.891557 0.255138
vt 0.900328 0.266620
vt 0.900673 0.255138
vt 0.573695 0.789278
vt 0.584960 0.787024
vt 0.574965 0.796941
vt 0.586460 0.796080
vt 0.574965 0.806413
vt 0.586460 0.807274
vt 0.573695 0.814076
vt 0.584960 0.816330
vt 0.794428 0.567255
vt 0.805830 0.565547
vt 0.795135 0.576653
vt 0.806666 0.576653
vt 0.794428 0.584334
vt 0.805830 0.585731
vt 0.025811 0.826459
vt 0.014547 0.828713
vt 0.024542 0.818796
vt 0.013047 0.819657
vt 0.024542 0.809324
vt 0.013047 0.808463
vt 0.025811 0.801661
vt 0.014547 0.799407
vt 0.861416 0.899416
vt 0.860568 0.887918
vt 0.870841 0.899416
vt 0.871706 0.887918
vt 0.142653 0.881030
vt 0.151629 0.878156
vt 0.151629 0.893453
vt 0.340680 0.871598
vt 0.349656 0.874567
vt 0.340680 0.886894
vt 0.900965 0.316645
vt 0.891493 0.316645
vt 0.896229 0.302150
vt 0.895674 0.629220
vt 0.886671 0.626338
vt 0.895674 0.613972
vt 0.279339 0.883974
vt 0.270381 0.886901
vt 0.270381 0.871576
vt 0.244190 0.886901
vt 0.235231 0.883974
vt 0.244190 0.871576
vt 0.898911 0.524654
vt 0.889457 0.524654
vt 0.894107 0.510131
vt 0.886919 0.795470
vt 0.895923 0.792529
vt 0.895923 0.807778
vt 0.573695 0.885733
vt 0.583149 0.885733
vt 0.578345 0.900256
vt 0.889457 0.469470
vt 0.898881 0.469470
vt 0.894122 0.484038
vt 0.841290 0.189729
vt 0.851897 0.193126
vt 0.841290 0.207807
vt 0.852191 0.512726
vt 0.863364 0.512726
vt 0.857687 0.529889
vt 0.511828 0.838563
vt 0.522469 0.835086
vt 0.522469 0.853108
vt 0.851897 0.119466
vt 0.841290 0.115957
vt 0.851897 0.101388
vt 0.851897 0.027728
vt 0.841290 0.031124
vt 0.841290 0.013047
vt 0.386402 0.842367
vt 0.375794 0.838970
vt 0.386402 0.824289
vt 0.864044 0.390684
vt 0.852871 0.390684
vt 0.858548 0.373521
vt 0.153293 0.848587
vt 0.142653 0.852063
vt 0.142653 0.834042
vt 0.051904 0.845684
vt 0.063077 0.845684
vt 0.057581 0.862847
vt 0.823337 0.840827
vt 0.834475 0.840827
vt 0.828962 0.858044
s 0
usemtl banner
f 329/355/76 340/356/77 330/357/78
f 340/356/76 341/358/78 330/357/78
f 330/359/79 341/360/79 331/361/80
f 341/360/78 342/362/80 331/361/80
f 331/361/81 342/362/81 332/363/82
f 342/362/81 343/364/82 332/363/82
f 332/363/83 343/364/83 333/365/84
f 343/364/83 344/366/84 333/365/84
f 333/367/85 344/368/85 334/369/86
f 344/368/85 345/370/86 334/369/86
f 334/369/86 345/370/87 335/371/88
f 345/370/86 346/372/88 335/371/88
f 335/373/89 346/374/89 336/375/90
f 346/374/89 347/376/90 336/375/90
f 336/375/91 347/376/91 337/377/92
f 347/376/91 348/378/92 337/377/93
f 337/377/94 348/378/94 338/379/95
f 348/378/94 349/380/95 338/379/95
f 338/381/96 349/382/96 339/383/76
f 349/382/96 350/384/76 339/383/76
f 361/385/97 362/386/97 351/387/97
f 362/388/97 363/389/97 352/390/97
f 363/391/97 364/392/97 353/393/97
f 364/394/97 365/395/97 354/396/97
f 365/397/97 366/398/97 355/399/97
f 366/400/97 367/401/97 356/402/97
f 367/403/97 368/404/97 357/405/97
f 368/406/97 369/407/97 358/408/97
f 369/409/97 370/410/97 359/411/97
f 370/412/97 371/413/97 360/414/97
f 383/415/98 382/416/98 372/417/98
f 384/418/98 383/419/98 373/420/98
f 385/421/98 384/422/98 374/423/98
f 386/424/98 385/425/98 375/426/98
f 387/427/98 386/428/98 376/429/98
f 388/430/98 387/431/98 377/432/98
f 389/433/98 388/434/98 378/435/98
f 390/436/98 389/437/98 379/438/98
f 391/439/98 390/440/98 380/441/98
f 392/442/98 391/443/98 381/444/98
o brace_a
v 0.018554 2.301217 -2.311111
v 0.018554 2.301217 -2.370882
v -0.019738 2.255327 -2.311111
v -0.019738 2.255327 -2.370882
v -0.314829 2.584673 -2.370882
v -0.314829 2.584673 -2.311111
v -0.353120 2.538782 -2.370882
v -0.353120 2.538782 -2.311111
v -0.314829 2.584673 -2.370882
v 0.018554 2.301217 -2.370882
v -0.314829 2.584673 -2.311111
v 0.018554 2.301217 -2.311111
v -0.353120 2.538782 -2.311111
v -0.019738 2.255327 -2.311111
v -0.353120 2.538782 -2.370882
v -0.019738 2.255327 -2.370882
v -0.314829 2.584673 -2.311111
v 0.018554 2.301217 -2.311111
v -0.353120 2.538782 -2.311111
v -0.019738 2.255327 -2.311111
v 0.018554 2.301217 -2.370882
v -0.314829 2.584673 -2.370882
v -0.019738 2.255327 -2.370882
v -0.353120 2.538782 -2.370882
vn 0.7678 -0.6407 -0.0000
vn -0.7678 0.6407 -0.0000
vn 0.6478 0.7618 -0.0000
vn -0.6478 -0.7618 -0.0000
vn -0.0000 -0.0000 1.0000
vn -0.0000 -0.0000 -1.0000
vt 0.891493 0.342738
vt 0.895672 0.342738
vt 0.891493 0.346918
vt 0.895672 0.346918
vt 0.239411 0.953020
vt 0.235231 0.953020
vt 0.239411 0.948840
vt 0.235231 0.948840
vt 0.827517 0.758040
vt 0.823337 0.758040
vt 0.827517 0.727438
vt 0.823337 0.727438
vt 0.827975 0.255138
vt 0.832155 0.255138
vt 0.827975 0.285740
vt 0.832155 0.285740
vt 0.826098 0.500110
vt 0.821919 0.500072
vt 0.826098 0.469509
vt 0.821919 0.469470
vt 0.822599 0.373560
vt 0.826778 0.373521
vt 0.822599 0.404161
vt 0.826778 0.404123
s 0
usemtl banner
f 393/445/99 395/446/99 394/447/99
f 395/446/99 396/448/99 394/447/99
f 397/449/100 399/450/100 398/451/100
f 399/450/100 400/452/100 398/451/100
f 401/453/101 403/454/101 402/455/101
f 403/454/101 404/456/101 402/455/101
f 405/457/102 407/458/102 406/459/102
f 407/458/102 408/460/102 406/459/102
f 409/461/103 411/462/103 410/463/103
f 411/462/103 412/464/103 410/463/103
f 413/465/104 415/466/104 414/467/104
f 415/466/104 416/468/104 414/467/104
o brace_b
v 0.018554 2.301218 2.370881
v 0.018554 2.301218 2.311111
v -0.019738 2.255327 2.370881
v -0.019738 2.255327 2.311111
v -0.314829 2.584673 2.311111
v -0.314829 2.584673 2.370881
v -0.353120 2.538783 2.311111
v -0.353120 2.538783 2.370881
v -0.314829 2.584673 2.311111
v 0.018554 2.301218 2.311111
v -0.314829 2.584673 2.370881
v 0.018554 2.301218 2.370881
v -0.353120 2.538783 2.370881
v -0.019738 2.255327 2.370881
v -0.353120 2.538783 2.311111
v -0.019738 2.255327 2.311111
v -0.314829 2.584673 2.370881
v 0.018554 2.301218 2.370881
v -0.353120 2.538783 2.370881
v -0.019738 2.255327 2.370881
v 0.018554 2.301218 2.311111
v -0.314829 2.584673 2.311111
v -0.019738 2.255327 2.311111
v -0.353120 2.538783 2.311111
vn 0.7678 -0.6407 -0.0000
vn -0.7678 0.6407 -0.0000
vn 0.6478 0.7618 -0.0000
vn -0.6478 -0.7618 -0.0000
vn -0.0000 -0.0000 1.0000
vn -0.0000 -0.0000 -1.0000
vt 0.267025 0.948840
vt 0.271205 0.948840
vt 0.267025 0.953020
vt 0.271205 0.953020
vt 0.344860 0.953050
vt 0.340680 0.953050
vt 0.344860 0.948871
vt 0.340680 0.948871
vt 0.827517 0.814734
vt 0.823337 0.814734
vt 0.827517 0.784133
vt 0.823337 0.784133
vt 0.827975 0.311833
vt 0.832155 0.311833
vt 0.827975 0.342434
vt 0.832155 0.342434
vt 0.827516 0.644612
vt 0.823337 0.644573
vt 0.827516 0.614010
vt 0.823337 0.613972
vt 0.823337 0.670744
vt 0.827517 0.670705
vt 0.823337 0.701345
vt 0.827517 0.701306
s 0
usemtl banner
f 417/469/105 419/470/105 418/471/105
f 419/470/105 420/472/105 418/471/105
f 421/473/106 423/474/106 422/475/106
f 423/474/106 424/476/106 422/475/106
f 425/477/107 427/478/107 426/479/107
f 427/478/107 428/480/107 426/479/107
f 429/481/108 431/482/108 430/483/108
f 431/482/108 432/484/108 430/483/108
f 433/485/109 435/486/109 434/487/109
f 435/486/109 436/488/109 434/487/109
f 437/489/110 439/490/110 438/491/110
f 439/490/110 440/492/110 438/491/110
o cable
v 0.620281 2.695000 2.390805
v 0.620281 2.695000 -2.390805
v 0.620281 2.625000 2.390805
v 0.620281 2.625000 -2.390805
v 0.550935 2.695000 -2.390805
v 0.550935 2.695000 2.390805
v 0.550935 2.625000 -2.390805
v 0.550935 2.625000 2.390805
v 0.550935 2.695000 -2.390805
v 0.620281 2.695000 -2.390805
v 0.550935 2.695000 2.390805
v 0.620281 2.695000 2.390805
v 0.550935 2.625000 2.390805
v 0.620281 2.625000 2.390805
v 0.550935 2.625000 -2.390805
v 0.620281 2.625000 -2.390805
v 0.550935 2.695000 2.390805
v 0.620281 2.695000 2.390805
v 0.550935 2.625000 2.390805
v 0.620281 2.625000 2.390805
v 0.620281 2.695000 -2.390805
v 0.550935 2.695000 -2.390805
v 0.620281 2.625000 -2.390805
v 0.550935 2.625000 -2.390805
vn 1.0000 -0.0000 -0.0000
vn -1.0000 -0.0000 -0.0000
vn -0.0000 1.0000 -0.0000
vn -0.0000 -1.0000 -0.0000
vn -0.0000 -0.0000 1.0000
vn -0.0000 -0.0000 -1.0000
vt 0.655362 0.013047
vt 0.660257 0.013047
vt 0.655362 0.347428
vt 0.660257 0.347428
vt 0.017942 0.677251
vt 0.013047 0.677251
vt 0.017942 0.342869
vt 0.013047 0.342869
vt 0.044035 0.677251
vt 0.044035 0.342869
vt 0.048884 0.677251
vt 0.048884 0.342869
vt 0.079826 0.342869
vt 0.079826 0.677251
vt 0.074977 0.342869
vt 0.074977 0.677251
vt 0.714541 0.952800
vt 0.714541 0.947904
vt 0.719390 0.952800
vt 0.719390 0.947904
vt 0.655362 0.952895
vt 0.655362 0.948000
vt 0.660211 0.952895
vt 0.660211 0.948000
s 0
usemtl banner
f 441/493/111 443/494/111 442/495/111
f 443/494/111 444/496/111 442/495/111
f 445/497/112 447/498/112 446/499/112
f 447/498/112 448/500/112 446/499/112
f 449/501/113 451/502/113 450/503/113
f 451/502/113 452/504/113 450/503/113
f 453/505/114 455/506/114 454/507/114
f 455/506/114 456/508/114 454/507/114
f 457/509/115 459/510/115 458/511/115
f 459/510/115 460/512/115 458/511/115
f 461/513/116 463/514/116 462/515/116
f 463/514/116 464/516/116 462/515/116
o cloth
v 0.550935 1.175000 -2.171648
v 0.550935 2.585000 2.171647
v 0.550935 2.585000 -2.171648
v 0.550935 1.175000 -2.171648
v 0.550935 1.175000 2.171648
v 0.550935 2.585000 2.171647
v 0.620281 1.175000 -2.171648
v 0.620281 2.585000 -2.171648
v 0.620281 2.585000 2.171647
v 0.620281 1.175000 -2.171648
v 0.620281 2.585000 2.171647
v 0.620281 1.175000 2.171648
v 0.570748 1.155000 -2.171648
v 0.600468 1.155000 -2.171648
v 0.600468 1.155000 2.171648
v 0.570748 1.155000 -2.171648
v 0.600468 1.155000 2.171648
v 0.570748 1.155000 2.171648
v 0.570748 2.605000 -2.171648
v 0.600468 2.605000 2.171647
v 0.600468 2.605000 -2.171648
v 0.570748 2.605000 -2.171648
v 0.570748 2.605000 2.171647
v 0.600468 2.605000 2.171647
v 0.570748 1.175000 -2.191571
v 0.600468 2.585000 -2.191571
v 0.600468 1.175000 -2.191571
v 0.570748 1.175000 -2.191571
v 0.570748 2.585000 -2.191571
v 0.600468 2.585000 -2.191571
v 0.570748 1.175000 2.191571
v 0.600468 1.175000 2.191571
v 0.600468 2.585000 2.191571
v 0.570748 1.175000 2.191571
v 0.600468 2.585000 2.191571
v 0.570748 2.585000 2.191571
v 0.550935 1.175000 -2.171648
v 0.570748 1.155000 -2.171648
v 0.570748 1.155000 2.171648
v 0.550935 1.175000 -2.171648
v 0.570748 1.155000 2.171648
v 0.550935 1.175000 2.171648
v 0.550935 2.585000 -2.171648
v 0.570748 2.605000 2.171647
v 0.570748 2.605000 -2.171648
v 0.550935 2.585000 -2.171648
v 0.550935 2.585000 2.171647
v 0.570748 2.605000 2.171647
v 0.620281 1.175000 -2.171648
v 0.600468 1.155000 2.171648
v 0.600468 1.155000 -2.171648
v 0.620281 1.175000 -2.171648
v 0.620281 1.175000 2.171648
v 0.600468 1.155000 2.171648
v 0.620281 2.585000 -2.171648
v 0.600468 2.605000 -2.171648
v 0.600468 2.605000 2.171647
v 0.620281 2.585000 -2.171648
v 0.600468 2.605000 2.171647
v 0.620281 2.585000 2.171647
v 0.550935 1.175000 -2.171648
v 0.570748 2.585000 -2.191571
v 0.570748 1.175000 -2.191571
v 0.550935 1.175000 -2.171648
v 0.550935 2.585000 -2.171648
v 0.570748 2.585000 -2.191571
v 0.550935 1.175000 2.171648
v 0.570748 1.175000 2.191571
v 0.570748 2.585000 2.191571
v 0.550935 1.175000 2.171648
v 0.570748 2.585000 2.191571
v 0.550935 2.585000 2.171647
v 0.620281 1.175000 -2.171648
v 0.600468 1.175000 -2.191571
v 0.600468 2.585000 -2.191571
v 0.620281 1.175000 -2.171648
v 0.600468 2.585000 -2.191571
v 0.620281 2.585000 -2.171648
v 0.620281 1.175000 2.171648
v 0.600468 2.585000 2.191571
v 0.600468 1.175000 2.191571
v 0.620281 1.175000 2.171648
v 0.620281 2.585000 2.171647
v 0.600468 2.585000 2.191571
v 0.570748 1.155000 -2.171648
v 0.570748 1.175000 -2.191571
v 0.600468 1.175000 -2.191571
v 0.570748 1.155000 -2.171648
v 0.600468 1.175000 -2.191571
v 0.600468 1.155000 -2.171648
v 0.570748 1.155000 2.171648
v 0.600468 1.175000 2.191571
v 0.570748 1.175000 2.191571
v 0.570748 1.155000 2.171648
v 0.600468 1.155000 2.171648
v 0.600468 1.175000 2.191571
v 0.570748 2.605000 -2.171648
v 0.600468 2.585000 -2.191571
v 0.570748 2.585000 -2.191571
v 0.570748 2.605000 -2.171648
v 0.600468 2.605000 -2.171648
v 0.600468 2.585000 -2.191571
v 0.570748 2.605000 2.171647
v 0.570748 2.585000 2.191571
v 0.600468 2.585000 2.191571
v 0.570748 2.605000 2.171647
v 0.600468 2.585000 2.191571
v 0.600468 2.605000 2.171647
v 0.550935 1.175000 -2.171648
v 0.570748 1.175000 -2.191571
v 0.570748 1.155000 -2.171648
v 0.550935 1.175000 2.171648
v 0.570748 1.155000 2.171648
v 0.570748 1.175000 2.191571
v 0.550935 2.585000 -2.171648
v 0.570748 2.605000 -2.171648
v 0.570748 2.585000 -2.191571
v 0.550935 2.585000 2.171647
v 0.570748 2.585000 2.191571
v 0.570748 2.605000 2.171647
v 0.620281 1.175000 -2.171648
v 0.600468 1.155000 -2.171648
v 0.600468 1.175000 -2.191571
v 0.620281 1.175000 2.171648
v 0.600468 1.175000 2.191571
v 0.600468 1.155000 2.171648
v 0.620281 2.585000 -2.171648
v 0.600468 2.585000 -2.191571
v 0.600468 2.605000 -2.171648
v 0.620281 2.585000 2.171647
v 0.600468 2.605000 2.171647
v 0.600468 2.585000 2.191571
vn -1.0000 -0.0000 -0.0000
vn 1.0000 -0.0000 -0.0000
vn -0.0000 -1.0000 -0.0000
vn -0.0000 1.0000 -0.0000
vn -0.0000 -0.0000 -1.0000
vn -0.0000 -0.0000 1.0000
vn -0.7104 -0.7038 -0.0000
vn -0.7104 0.7038 -0.0000
vn 0.7104 -0.7038 -0.0000
vn 0.7104 0.7038 -0.0000
vn -0.7091 -0.0000 -0.7051
vn -0.7091 -0.0000 0.7051
vn 0.7091 -0.0000 -0.7051
vn 0.7091 -0.0000 0.7051
vn -0.0000 -0.7057 -0.7085
vn -0.0000 -0.7058 -0.7085
vn -0.0000 -0.7057 0.7085
vn -0.0000 -0.7058 0.7085
vn -0.0000 0.7058 -0.7085
vn -0.0000 0.7057 -0.7085
vn -0.0000 0.7058 0.7085
vn -0.0000 0.7057 0.7085
vn -0.5802 -0.5748 -0.5770
vn -0.5802 -0.5748 0.5770
vn -0.5802 0.5748 -0.5770
vn -0.5802 0.5748 0.5770
vn 0.5802 -0.5748 -0.5770
vn 0.5802 -0.5748 0.5770
vn 0.5802 0.5748 -0.5770
vn 0.5802 0.5748 0.5770
vt 0.137742 0.316776
vt 0.236344 0.013047
vt 0.236344 0.316776
vt 0.262437 0.316776
vt 0.262437 0.013047
vt 0.361040 0.013047
vt 0.111649 0.316776
vt 0.013047 0.316776
vt 0.013047 0.013047
vt 0.485735 0.316776
vt 0.387133 0.013047
vt 0.485735 0.013047
vt 0.237310 0.646599
vt 0.235231 0.646599
vt 0.235231 0.342869
vt 0.265481 0.646599
vt 0.263403 0.342869
vt 0.265481 0.342869
vt 0.755371 0.227404
vt 0.757449 0.013047
vt 0.757449 0.227404
vt 0.766256 0.587879
vt 0.766256 0.373521
vt 0.768334 0.373521
vt 0.783542 0.082902
vt 0.785621 0.013047
vt 0.785621 0.082902
vt 0.783542 0.178851
vt 0.783542 0.108995
vt 0.785621 0.108995
vt 0.794427 0.373521
vt 0.796506 0.373521
vt 0.796506 0.443377
vt 0.714541 0.711774
vt 0.716619 0.781630
vt 0.714541 0.781630
vt 0.292973 0.646599
vt 0.291574 0.646599
vt 0.291574 0.342869
vt 0.347956 0.646599
vt 0.346557 0.342869
vt 0.347956 0.342869
vt 0.429032 0.646599
vt 0.430431 0.342869
vt 0.430431 0.646599
vt 0.456524 0.646599
vt 0.456524 0.342869
vt 0.457923 0.342869
vt 0.374049 0.646599
vt 0.375448 0.342869
vt 0.375448 0.646599
vt 0.401541 0.646599
vt 0.401541 0.342869
vt 0.402939 0.342869
vt 0.320464 0.646599
vt 0.319066 0.646599
vt 0.319066 0.342869
vt 0.485414 0.646599
vt 0.484016 0.342869
vt 0.485414 0.342869
vt 0.575088 0.566169
vt 0.575088 0.664782
vt 0.573695 0.566189
vt 0.601181 0.566169
vt 0.602574 0.664762
vt 0.601181 0.664782
vt 0.656755 0.685680
vt 0.655361 0.685661
vt 0.656755 0.587068
vt 0.682848 0.685680
vt 0.682848 0.587068
vt 0.684241 0.587088
vt 0.686350 0.226582
vt 0.687743 0.226602
vt 0.686350 0.325194
vt 0.711727 0.587068
vt 0.711727 0.685680
vt 0.710334 0.685661
vt 0.713836 0.325194
vt 0.713836 0.226582
vt 0.715229 0.325174
vt 0.739213 0.685680
vt 0.737820 0.587088
vt 0.739213 0.587068
vt 0.789237 0.974312
vt 0.787844 0.974312
vt 0.787844 0.972234
vt 0.977948 0.661728
vt 0.979342 0.663806
vt 0.977948 0.663806
vt 0.979342 0.689899
vt 0.977948 0.691977
vt 0.977948 0.689899
vt 0.978238 0.739199
vt 0.978238 0.737121
vt 0.979632 0.737121
vt 0.795628 0.909296
vt 0.795628 0.912162
vt 0.794197 0.910656
vt 0.971224 0.225338
vt 0.971224 0.223259
vt 0.973198 0.223259
vt 0.972655 0.197166
vt 0.971224 0.195807
vt 0.972655 0.194300
vt 0.759777 0.972234
vt 0.761751 0.974312
vt 0.759777 0.974312
vt 0.853610 0.709629
vt 0.855003 0.709629
vt 0.853610 0.711028
vt 0.982387 0.793927
vt 0.982387 0.792529
vt 0.983780 0.793927
vt 0.686304 0.978567
vt 0.687689 0.977576
vt 0.687689 0.979550
vt 0.714541 0.979876
vt 0.715926 0.978893
vt 0.715926 0.980867
vt 0.984841 0.470869
vt 0.984841 0.469470
vt 0.986234 0.470869
vt 0.984870 0.510131
vt 0.986264 0.510131
vt 0.984870 0.511530
vt 0.405110 0.981089
vt 0.405110 0.982788
vt 0.403500 0.981646
vt 0.983748 0.615671
vt 0.982138 0.615114
vt 0.983748 0.613972
s 0
usemtl banner
f 465/517/117 466/518/117 467/519/117
f 468/520/117 469/521/117 470/522/117
f 471/523/118 472/524/118 473/525/118
f 474/526/118 475/527/118 476/528/118
f 477/529/119 478/530/119 479/531/119
f 480/532/119 481/533/119 482/534/119
f 483/535/120 484/536/120 485/537/120
f 486/538/120 487/539/120 488/540/120
f 489/541/121 490/542/121 491/543/121
f 492/544/121 493/545/121 494/546/121
f 495/547/122 496/548/122 497/549/122
f 498/550/122 499/551/122 500/552/122
f 501/553/123 502/554/123 503/555/123
f 504/556/123 505/557/123 506/558/123
f 507/559/124 508/560/124 509/561/124
f 510/562/124 511/563/124 512/564/124
f 513/565/125 514/566/125 515/567/125
f 516/568/125 517/569/125 518/570/125
f 519/571/126 520/572/126 521/573/126
f 522/574/126 523/575/126 524/576/126
f 525/577/127 526/578/127 527/579/127
f 528/580/127 529/581/127 530/582/127
f 531/583/128 532/584/128 533/585/128
f 534/586/128 535/587/128 536/588/128
f 537/589/129 538/590/129 539/591/129
f 540/592/129 541/593/129 542/594/129
f 543/595/130 544/596/130 545/597/130
f 546/598/130 547/599/130 548/600/130
f 549/601/131 550/602/131 551/603/131
f 552/604/132 553/605/132 554/606/132
f 555/607/133 556/608/133 557/609/133
f 558/610/134 559/611/134 560/612/134
f 561/613/135 562/614/135 563/615/135
f 564/616/136 565/617/136 566/618/136
f 567/619/137 568/620/137 569/621/137
f 570/622/138 571/623/138 572/624/138
f 573/625/139 574/626/139 575/627/139
f 576/628/140 577/629/140 578/630/140
f 579/631/141 580/632/141 581/633/141
f 582/634/142 583/635/142 584/636/142
f 585/637/143 586/638/143 587/639/143
f 588/640/144 589/641/144 590/642/144
f 591/643/145 592/644/145 593/645/145
f 594/646/146 595/647/146 596/648/146
o cloth_bottom
v 0.630187 1.270000 2.241379
v 0.630187 1.270000 -2.241379
v 0.630187 1.130000 2.241379
v 0.630187 1.130000 -2.241379
v 0.541029 1.270000 -2.241379
v 0.541029 1.270000 2.241379
v 0.541029 1.130000 -2.241379
v 0.541029 1.130000 2.241379
v 0.541029 1.270000 -2.241379
v 0.630187 1.270000 -2.241379
v 0.541029 1.270000 2.241379
v 0.630187 1.270000 2.241379
v 0.541029 1.130000 2.241379
v 0.630187 1.130000 2.241379
v 0.541029 1.130000 -2.241379
v 0.630187 1.130000 -2.241379
v 0.541029 1.270000 2.241379
v 0.630187 1.270000 2.241379
v 0.541029 1.130000 2.241379
v 0.630187 1.130000 2.241379
v 0.630187 1.270000 -2.241379
v 0.541029 1.270000 -2.241379
v 0.630187 1.130000 -2.241379
v 0.541029 1.130000 -2.241379
vn 1.0000 -0.0000 -0.0000
vn -1.0000 -0.0000 -0.0000
vn -0.0000 1.0000 -0.0000
vn -0.0000 -1.0000 -0.0000
vn -0.0000 -0.0000 1.0000
vn -0.0000 -0.0000 -1.0000
vt 0.511828 0.013047
vt 0.521618 0.013047
vt 0.511828 0.326529
vt 0.521618 0.326529
vt 0.557502 0.326529
vt 0.547711 0.326529
vt 0.557502 0.013047
vt 0.547711 0.013047
vt 0.105919 0.656352
vt 0.105919 0.342869
vt 0.112154 0.656352
vt 0.112154 0.342869
vt 0.144482 0.342869
vt 0.144482 0.656352
vt 0.138247 0.342869
vt 0.138247 0.656352
vt 0.914800 0.671518
vt 0.914800 0.661728
vt 0.921035 0.671518
vt 0.921035 0.661728
vt 0.914800 0.707401
vt 0.914800 0.697611
vt 0.921035 0.707401
vt 0.921035 0.697611
s 0
usemtl banner
f 597/649/147 599/650/147 598/651/147
f 599/650/147 600/652/147 598/651/147
f 601/653/148 603/654/148 602/655/148
f 603/654/148 604/656/148 602/655/148
f 605/657/149 607/658/149 606/659/149
f 607/658/149 608/660/149 606/659/149
f 609/661/150 611/662/150 610/663/150
f 611/662/150 612/664/150 610/663/150
f 613/665/151 615/666/151 614/667/151
f 615/666/151 616/668/151 614/667/151
f 617/669/152 619/670/152 618/671/152
f 619/670/152 620/672/152 618/671/152
o cloth_top
v 0.630187 2.620000 2.241379
v 0.630187 2.620000 -2.241380
v 0.630187 2.480000 2.241379
v 0.630187 2.480000 -2.241380
v 0.541029 2.620000 -2.241380
v 0.541029 2.620000 2.241379
v 0.541029 2.480000 -2.241380
v 0.541029 2.480000 2.241379
v 0.541029 2.620000 -2.241380
v 0.630187 2.620000 -2.241380
v 0.541029 2.620000 2.241379
v 0.630187 2.620000 2.241379
v 0.541029 2.480000 2.241379
v 0.630187 2.480000 2.241379
v 0.541029 2.480000 -2.241380
v 0.630187 2.480000 -2.241380
v 0.541029 2.620000 2.241379
v 0.630187 2.620000 2.241379
v 0.541029 2.480000 2.241379
v 0.630187 2.480000 2.241379
v 0.630187 2.620000 -2.241380
v 0.541029 2.620000 -2.241380
v 0.630187 2.480000 -2.241380
v 0.541029 2.480000 -2.241380
vn 1.0000 -0.0000 -0.0000
vn -1.0000 -0.0000 -0.0000
vn -0.0000 1.0000 -0.0000
vn -0.0000 -1.0000 -0.0000
vn -0.0000 -0.0000 1.0000
vn -0.0000 -0.0000 -1.0000
vt 0.583595 0.013047
vt 0.593385 0.013047
vt 0.583595 0.326529
vt 0.593385 0.326529
vt 0.629268 0.326529
vt 0.619478 0.326529
vt 0.629268 0.013047
vt 0.619478 0.013047
vt 0.170575 0.656352
vt 0.170575 0.342869
vt 0.176810 0.656352
vt 0.176810 0.342869
vt 0.209138 0.342869
vt 0.209138 0.656352
vt 0.202903 0.342869
vt 0.202903 0.656352
vt 0.915091 0.746911
vt 0.915091 0.737121
vt 0.921325 0.746911
vt 0.921325 0.737121
vt 0.340680 0.922778
vt 0.340680 0.912987
vt 0.346915 0.922778
vt 0.346915 0.912987
s 0
usemtl banner
f 621/673/153 623/674/153 622/675/153
f 623/674/153 624/676/153 622/675/153
f 625/677/154 627/678/154 626/679/154
f 627/678/154 628/680/154 626/679/154
f 629/681/155 631/682/155 630/683/155
f 631/682/155 632/684/155 630/683/155
f 633/685/156 635/686/156 634/687/156
f 635/686/156 636/688/156 634/687/156
f 637/689/157 639/690/157 638/691/157
f 639/690/157 640/692/157 638/691/157
f 641/693/158 643/694/158 642/695/158
f 643/694/158 644/696/158 642/695/158
o emblem_0
v 0.650000 1.880000 -1.098789
v 0.650000 2.176985 -1.394636
v 0.650000 1.583015 -1.394636
v 0.650000 1.880000 -1.690483
v 0.620281 2.176985 -1.394636
v 0.620281 1.880000 -1.098789
v 0.620281 1.880000 -1.690483
v 0.620281 1.583015 -1.394636
v 0.620281 2.176985 -1.394636
v 0.650000 2.176985 -1.394636
v 0.620281 1.880000 -1.098789
v 0.650000 1.880000 -1.098789
v 0.620281 1.583015 -1.394636
v 0.650000 1.583015 -1.394636
v 0.620281 1.880000 -1.690483
v 0.650000 1.880000 -1.690483
v 0.620281 1.880000 -1.098789
v 0.650000 1.880000 -1.098789
v 0.620281 1.583015 -1.394636
v 0.650000 1.583015 -1.394636
v 0.650000 2.176985 -1.394636
v 0.620281 2.176985 -1.394636
v 0.650000 1.880000 -1.690483
v 0.620281 1.880000 -1.690483
vn 1.0000 -0.0000 -0.0000
vn -1.0000 -0.0000 -0.0000
vn -0.0000 0.7057 0.7085
vn -0.0000 -0.7057 -0.7085
vn -0.0000 -0.7057 0.7085
vn -0.0000 0.7057 -0.7085
vt 0.375872 0.672805
vt 0.375872 0.702120
vt 0.346557 0.672692
vt 0.346557 0.702007
vt 0.431279 0.672692
vt 0.431279 0.702007
vt 0.401965 0.672805
vt 0.401965 0.702120
vt 0.867908 0.586740
vt 0.867908 0.557425
vt 0.869986 0.586740
vt 0.869986 0.557425
vt 0.880069 0.013047
vt 0.880069 0.042361
vt 0.877990 0.013047
vt 0.877990 0.042361
vt 0.880069 0.068454
vt 0.880069 0.097769
vt 0.877990 0.068454
vt 0.877990 0.097769
vt 0.880069 0.123862
vt 0.880069 0.153177
vt 0.877990 0.123862
vt 0.877990 0.153177
s 0
usemtl banner
f 645/697/159 647/698/159 646/699/159
f 647/698/159 648/700/159 646/699/159
f 649/701/160 651/702/160 650/703/160
f 651/702/160 652/704/160 650/703/160
f 653/705/161 655/706/161 654/707/161
f 655/706/161 656/708/161 654/707/161
f 657/709/162 659/710/162 658/711/162
f 659/710/162 660/712/162 658/711/162
f 661/713/163 663/714/163 662/715/163
f 663/714/163 664/716/163 662/715/163
f 665/717/164 667/718/164 666/719/164
f 667/718/164 668/720/164 666/719/164
o emblem_1
v 0.650000 1.880000 0.295847
v 0.650000 2.176985 -0.000000
v 0.650000 1.583015 -0.000000
v 0.650000 1.880000 -0.295847
v 0.620281 2.176985 -0.000000
v 0.620281 1.880000 0.295847
v 0.620281 1.880000 -0.295847
v 0.620281 1.583015 -0.000000
v 0.620281 2.176985 -0.000000
v 0.650000 2.176985 -0.000000
v 0.620281 1.880000 0.295847
v 0.650000 1.880000 0.295847
v 0.620281 1.583015 -0.000000
v 0.650000 1.583015 -0.000000
v 0.620281 1.880000 -0.295847
v 0.650000 1.880000 -0.295847
v 0.620281 1.880000 0.295847
v 0.650000 1.880000 0.295847
v 0.620281 1.583015 -0.000000
v 0.650000 1.583015 -0.000000
v 0.650000 2.176985 -0.000000
v 0.620281 2.176985 -0.000000
v 0.650000 1.880000 -0.295847
v 0.620281 1.880000 -0.295847
vn 1.0000 -0.0000 -0.0000
vn -1.0000 -0.0000 -0.0000
vn -0.0000 0.7057 0.7085
vn -0.0000 -0.7057 -0.7085
vn -0.0000 -0.7057 0.7085
vn -0.0000 0.7057 -0.7085
vt 0.264546 0.672805
vt 0.264546 0.702120
vt 0.235231 0.672692
vt 0.235231 0.702007
vt 0.319953 0.702120
vt 0.290639 0.702007
vt 0.319953 0.672805
vt 0.290639 0.672692
vt 0.877990 0.208584
vt 0.877990 0.179270
vt 0.880069 0.208584
vt 0.880069 0.179270
vt 0.796275 0.853888
vt 0.796275 0.883203
vt 0.794197 0.853888
vt 0.794197 0.883203
vt 0.015125 0.854806
vt 0.015125 0.884121
vt 0.013047 0.854806
vt 0.013047 0.884121
vt 0.716619 0.855514
vt 0.716619 0.884829
vt 0.714541 0.855514
vt 0.714541 0.884829
s 0
usemtl banner
f 669/721/165 671/722/165 670/723/165
f 671/722/165 672/724/165 670/723/165
f 673/725/166 675/726/166 674/727/166
f 675/726/166 676/728/166 674/727/166
f 677/729/167 679/730/167 678/731/167
f 679/730/167 680/732/167 678/731/167
f 681/733/168 683/734/168 682/735/168
f 683/734/168 684/736/168 682/735/168
f 685/737/169 687/738/169 686/739/169
f 687/738/169 688/740/169 686/739/169
f 689/741/170 691/742/170 690/743/170
f 691/742/170 692/744/170 690/743/170
o emblem_2
v 0.650000 1.880000 1.690483
v 0.650000 2.176985 1.394636
v 0.650000 1.583015 1.394636
v 0.650000 1.880000 1.098789
v 0.620281 2.176985 1.394636
v 0.620281 1.880000 1.690483
v 0.620281 1.880000 1.098789
v 0.620281 1.583015 1.394636
v 0.620281 2.176985 1.394636
v 0.650000 2.176985 1.394636
v 0.620281 1.880000 1.690483
v 0.650000 1.880000 1.690483
v 0.620281 1.583015 1.394636
v 0.650000 1.583015 1.394636
v 0.620281 1.880000 1.098789
v 0.650000 1.880000 1.098789
v 0.620281 1.880000 1.690483
v 0.650000 1.880000 1.690483
v 0.620281 1.583015 1.394636
v 0.650000 1.583015 1.394636
v 0.650000 2.176985 1.394636
v 0.620281 2.176985 1.394636
v 0.650000 1.880000 1.098789
v 0.620281 1.880000 1.098789
vn 1.0000 -0.0000 -0.0000
vn -1.0000 -0.0000 -0.0000
vn -0.0000 0.7057 0.7085
vn -0.0000 -0.7057 -0.7085
vn -0.0000 -0.7057 0.7085
vn -0.0000 0.7057 -0.7085
vt 0.105919 0.682558
vt 0.135234 0.682445
vt 0.105919 0.711873
vt 0.135234 0.711760
vt 0.190642 0.711873
vt 0.161327 0.711760
vt 0.190642 0.682558
vt 0.161327 0.682445
vt 0.655361 0.884925
vt 0.655361 0.855610
vt 0.657440 0.884925
vt 0.657440 0.855610
vt 0.685611 0.855610
vt 0.685611 0.884924
vt 0.683533 0.855610
vt 0.683533 0.884924
vt 0.888707 0.661728
vt 0.888707 0.691042
vt 0.886629 0.661728
vt 0.886629 0.691042
vt 0.888997 0.737121
vt 0.888997 0.766436
vt 0.886919 0.737121
vt 0.886919 0.766436
s 0
usemtl banner
f 693/745/171 695/746/171 694/747/171
f 695/746/171 696/748/171 694/747/171
f 697/749/172 699/750/172 698/751/172
f 699/750/172 700/752/172 698/751/172
f 701/753/173 703/754/173 702/755/173
f 703/754/173 704/756/173 702/755/173
f 705/757/174 707/758/174 706/759/174
f 707/758/174 708/760/174 706/759/174
f 709/761/175 711/762/175 710/763/175
f 711/762/175 712/764/175 710/763/175
f 713/765/176 715/766/176 714/767/176
f 715/766/176 716/768/176 714/767/176
o mast_a
v -0.405038 2.760000 -2.231418
v -0.340987 2.760000 -2.252346
v -0.301401 2.760000 -2.307135
v -0.301401 2.760000 -2.374858
v -0.340987 2.760000 -2.429647
v -0.405038 2.760000 -2.450575
v -0.469090 2.760000 -2.429647
v -0.508676 2.760000 -2.374858
v -0.508676 2.760000 -2.307135
v -0.469090 2.760000 -2.252346
v -0.405038 2.760000 -2.231418
v -0.405038 0.080000 -2.201533
v -0.323518 0.080000 -2.228168
v -0.273136 0.080000 -2.297900
v -0.273136 0.080000 -2.384093
v -0.323518 0.080000 -2.453825
v -0.405038 0.080000 -2.480460
v -0.486558 0.080000 -2.453825
v -0.536941 0.080000 -2.384093
v -0.536941 0.080000 -2.297900
v -0.486558 0.080000 -2.228168
v -0.405038 0.080000 -2.201533
v -0.405038 2.760000 -2.340997
v -0.405038 2.760000 -2.340997
v -0.405038 2.760000 -2.340997
v -0.405038 2.760000 -2.340997
v -0.405038 2.760000 -2.340997
v -0.405038 2.760000 -2.340997
v -0.405038 2.760000 -2.340997
v -0.405038 2.760000 -2.340997
v -0.405038 2.760000 -2.340997
v -0.405038 2.760000 -2.340997
v -0.405038 2.760000 -2.231418
v -0.340987 2.760000 -2.252346
v -0.301401 2.760000 -2.307135
v -0.301401 2.760000 -2.374858
v -0.340987 2.760000 -2.429647
v -0.405038 2.760000 -2.450575
v -0.469090 2.760000 -2.429647
v -0.508676 2.760000 -2.374858
v -0.508676 2.760000 -2.307135
v -0.469090 2.760000 -2.252346
v -0.405038 2.760000 -2.231418
v -0.405038 0.080000 -2.340996
v -0.405038 0.080000 -2.340996
v -0.405038 0.080000 -2.340996
v -0.405038 0.080000 -2.340996
v -0.405038 0.080000 -2.340996
v -0.405038 0.080000 -2.340996
v -0.405038 0.080000 -2.340996
v -0.405038 0.080000 -2.340996
v -0.405038 0.080000 -2.340996
v -0.405038 0.080000 -2.340996
v -0.405038 0.080000 -2.201533
v -0.323518 0.080000 -2.228168
v -0.273136 0.080000 -2.297900
v -0.273136 0.080000 -2.384093
v -0.323518 0.080000 -2.453825
v -0.405038 0.080000 -2.480460
v -0.486558 0.080000 -2.453825
v -0.536941 0.080000 -2.384093
v -0.536941 0.080000 -2.297900
v -0.486558 0.080000 -2.228168
v -0.405038 0.080000 -2.201533
vn 0.0001 0.0111 0.9999
vn 0.5898 0.0111 0.8074
vn 0.0001 0.0112 0.9999
vn 0.5899 0.0112 0.8074
vn 0.5899 0.0111 0.8074
vn 0.9515 0.0111 0.3075
vn 0.9515 0.0111 0.3074
vn 0.9515 0.0111 -0.3074
vn 0.9515 0.0111 -0.3075
vn 0.5899 0.0111 -0.8074
vn 0.5898 0.0111 -0.8074
vn 0.0001 0.0112 -0.9999
vn -0.0000 0.0111 -0.9999
vn -0.5899 0.0111 -0.8074
vn -0.0001 0.0112 -0.9999
vn -0.5898 0.0112 -0.8074
vn -0.5898 0.0111 -0.8074
vn -0.9515 0.0111 -0.3075
vn -0.9515 0.0111 -0.3074
vn -0.9515 0.0111 0.3074
vn -0.9515 0.0111 0.3075
vn -0.5899 0.0111 0.8074
vn -0.5898 0.0111 0.8074
vn -0.0001 0.0112 0.9999
vn -0.0000 1.0000 -0.0000
vn -0.0000 -1.0000 -0.0000
vt 0.512632 0.753594
vt 0.511828 0.566169
vt 0.516436 0.753594
vt 0.516669 0.566169
vt 0.525918 0.352622
vt 0.527609 0.540039
vt 0.522086 0.352652
vt 0.522732 0.540076
vt 0.517350 0.352652
vt 0.516705 0.540076
vt 0.513519 0.352622
vt 0.511828 0.540039
vt 0.707035 0.373521
vt 0.708073 0.560943
vt 0.703232 0.373537
vt 0.703232 0.560964
vt 0.698520 0.373521
vt 0.697235 0.560943
vt 0.555392 0.540076
vt 0.553702 0.352659
vt 0.559224 0.540047
vt 0.558578 0.352622
vt 0.563960 0.540047
vt 0.564605 0.352622
vt 0.567791 0.540076
vt 0.569482 0.352659
vt 0.734802 0.560946
vt 0.734166 0.373521
vt 0.739514 0.560946
vt 0.740163 0.373521
vt 0.051904 0.926515
vt 0.056383 0.927979
vt 0.051904 0.934178
vt 0.940582 0.013047
vt 0.945070 0.014531
vt 0.940582 0.020695
vt 0.380530 0.954996
vt 0.375794 0.954996
vt 0.378162 0.947749
vt 0.951855 0.704872
vt 0.947128 0.704872
vt 0.949530 0.697611
vt 0.934399 0.932053
vt 0.929920 0.933516
vt 0.929920 0.925853
vt 0.615405 0.933984
vt 0.610926 0.932520
vt 0.615405 0.926321
vt 0.951855 0.668989
vt 0.947128 0.668989
vt 0.949453 0.661728
vt 0.945107 0.096542
vt 0.940605 0.095072
vt 0.945107 0.088918
vt 0.940629 0.164724
vt 0.945130 0.166165
vt 0.940629 0.172348
vt 0.759776 0.938857
vt 0.764489 0.938857
vt 0.762109 0.946141
vt 0.921767 0.615834
vt 0.927468 0.613972
vt 0.927468 0.623724
vt 0.927058 0.337485
vt 0.933074 0.337485
vt 0.930017 0.346726
vt 0.866596 0.934733
vt 0.860568 0.934733
vt 0.863582 0.925509
vt 0.931413 0.381390
vt 0.925684 0.383225
vt 0.925684 0.373521
vt 0.927716 0.802281
vt 0.922016 0.800419
vt 0.927716 0.792529
vt 0.240932 0.920885
vt 0.235231 0.922747
vt 0.235231 0.912994
vt 0.932782 0.264380
vt 0.926766 0.264380
vt 0.929823 0.255138
vt 0.463400 0.934249
vt 0.457372 0.934249
vt 0.460386 0.925025
vt 0.924975 0.469470
vt 0.930686 0.471359
vt 0.924975 0.479204
vt 0.137713 0.921375
vt 0.143425 0.919546
vt 0.143425 0.929280
s 0
usemtl banner
f 717/769/177 728/770/177 718/771/178
f 728/770/179 729/772/180 718/771/181
f 718/773/181 729/774/181 719/775/182
f 729/774/181 730/776/182 719/775/182
f 719/775/183 730/776/183 720/777/184
f 730/776/183 731/778/184 720/777/184
f 720/777/185 731/778/185 721/779/186
f 731/778/185 732/780/186 721/779/186
f 721/781/187 732/782/187 722/783/188
f 732/782/186 733/784/188 722/783/188
f 722/783/189 733/784/189 723/785/190
f 733/784/191 734/786/192 723/785/193
f 723/787/190 734/788/190 724/789/194
f 734/788/190 735/790/194 724/789/194
f 724/789/195 735/790/195 725/791/196
f 735/790/195 736/792/196 725/791/196
f 725/791/197 736/792/197 726/793/198
f 736/792/197 737/794/198 726/793/198
f 726/795/199 737/796/199 727/797/200
f 737/796/198 738/798/200 727/797/200
f 749/799/201 750/800/201 739/801/201
f 750/802/201 751/803/201 740/804/201
f 751/805/201 752/806/201 741/807/201
f 752/808/201 753/809/201 742/810/201
f 753/811/201 754/812/201 743/813/201
f 754/814/201 755/815/201 744/816/201
f 755/817/201 756/818/201 745/819/201
f 756/820/201 757/821/201 746/822/201
f 757/823/201 758/824/201 747/825/201
f 758/826/201 759/827/201 748/828/201
f 771/829/202 770/830/202 760/831/202
f 772/832/202 771/833/202 761/834/202
f 773/835/202 772/836/202 762/837/202
f 774/838/202 773/839/202 763/840/202
f 775/841/202 774/842/202 764/843/202
f 776/844/202 775/845/202 765/846/202
f 777/847/202 776/848/202 766/849/202
f 778/850/202 777/851/202 767/852/202
f 779/853/202 778/854/202 768/855/202
f 780/856/202 779/857/202 769/858/202
o mast_b
v -0.405038 2.760000 2.450575
v -0.340987 2.760000 2.429647
v -0.301401 2.760000 2.374858
v -0.301401 2.760000 2.307134
v -0.340987 2.760000 2.252345
v -0.405038 2.760000 2.231417
v -0.469090 2.760000 2.252345
v -0.508676 2.760000 2.307134
v -0.508676 2.760000 2.374858
v -0.469090 2.760000 2.429647
v -0.405038 2.760000 2.450575
v -0.405038 0.080000 2.480460
v -0.323518 0.080000 2.453825
v -0.273136 0.080000 2.384093
v -0.273136 0.080000 2.297900
v -0.323518 0.080000 2.228168
v -0.405038 0.080000 2.201533
v -0.486558 0.080000 2.228168
v -0.536941 0.080000 2.297900
v -0.536941 0.080000 2.384093
v -0.486558 0.080000 2.453825
v -0.405038 0.080000 2.480460
v -0.405038 2.760000 2.340996
v -0.405038 2.760000 2.340996
v -0.405038 2.760000 2.340996
v -0.405038 2.760000 2.340996
v -0.405038 2.760000 2.340996
v -0.405038 2.760000 2.340996
v -0.405038 2.760000 2.340996
v -0.405038 2.760000 2.340996
v -0.405038 2.760000 2.340996
v -0.405038 2.760000 2.340996
v -0.405038 2.760000 2.450575
v -0.340987 2.760000 2.429647
v -0.301401 2.760000 2.374858
v -0.301401 2.760000 2.307134
v -0.340987 2.760000 2.252345
v -0.405038 2.760000 2.231417
v -0.469090 2.760000 2.252345
v -0.508676 2.760000 2.307134
v -0.508676 2.760000 2.374858
v -0.469090 2.760000 2.429647
v -0.405038 2.760000 2.450575
v -0.405038 0.080000 2.340996
v -0.405038 0.080000 2.340996
v -0.405038 0.080000 2.340996
v -0.405038 0.080000 2.340996
v -0.405038 0.080000 2.340996
v -0.405038 0.080000 2.340996
v -0.405038 0.080000 2.340996
v -0.405038 0.080000 2.340996
v -0.405038 0.080000 2.340996
v -0.405038 0.080000 2.340996
v -0.405038 0.080000 2.480460
v -0.323518 0.080000 2.453825
v -0.273136 0.080000 2.384093
v -0.273136 0.080000 2.297900
v -0.323518 0.080000 2.228168
v -0.405038 0.080000 2.201533
v -0.486558 0.080000 2.228168
v -0.536941 0.080000 2.297900
v -0.536941 0.080000 2.384093
v -0.486558 0.080000 2.453825
v -0.405038 0.080000 2.480460
vn -0.0000 0.0111 0.9999
vn 0.5899 0.0111 0.8074
vn 0.0001 0.0112 0.9999
vn 0.5898 0.0112 0.8074
vn 0.5898 0.0111 0.8074
vn 0.9515 0.0111 0.3075
vn 0.9515 0.0111 0.3074
vn 0.9515 0.0111 -0.3074
vn 0.9515 0.0111 -0.3075
vn 0.5899 0.0111 -0.8074
vn 0.5898 0.0111 -0.8074
vn 0.0001 0.0112 -0.9999
vn -0.0001 0.0111 -0.9999
vn -0.5898 0.0111 -0.8074
vn -0.0001 0.0112 -0.9999
vn -0.5899 0.0112 -0.8074
vn -0.5899 0.0111 -0.8074
vn -0.9515 0.0111 -0.3075
vn -0.9515 0.0111 -0.3074
vn -0.9515 0.0111 0.3074
vn -0.9515 0.0111 0.3075
vn -0.5899 0.0111 0.8074
vn -0.5898 0.0111 0.8074
vn -0.0001 0.0111 0.9999
vn -0.0001 0.0112 0.9999
vn -0.0000 1.0000 -0.0000
vn -0.0000 -1.0000 -0.0000
vt 0.543566 0.753594
vt 0.542762 0.566169
vt 0.547370 0.753594
vt 0.547602 0.566169
vt 0.609664 0.352622
vt 0.611355 0.540039
vt 0.605833 0.352652
vt 0.606479 0.540076
vt 0.601097 0.352652
vt 0.600451 0.540076
vt 0.597266 0.352622
vt 0.595575 0.540039
vt 0.696150 0.013047
vt 0.697187 0.200468
vt 0.692347 0.013063
vt 0.692347 0.200489
vt 0.687635 0.013047
vt 0.686350 0.200468
vt 0.657052 0.560975
vt 0.655362 0.373558
vt 0.660884 0.560946
vt 0.660238 0.373521
vt 0.665620 0.560946
vt 0.666265 0.373521
vt 0.669451 0.560975
vt 0.671142 0.373558
vt 0.723917 0.200471
vt 0.723280 0.013047
vt 0.728629 0.200471
vt 0.729278 0.013047
vt 0.930500 0.557425
vt 0.934979 0.558889
vt 0.930500 0.565088
vt 0.947419 0.737121
vt 0.952145 0.737121
vt 0.949820 0.744382
vt 0.411359 0.954996
vt 0.406623 0.954996
vt 0.408991 0.947749
vt 0.945070 0.052952
vt 0.940582 0.054436
vt 0.940582 0.046788
vt 0.936699 0.894117
vt 0.932220 0.895580
vt 0.932220 0.887918
vt 0.795294 0.946141
vt 0.790582 0.946141
vt 0.792914 0.938857
vt 0.945130 0.204624
vt 0.940629 0.206066
vt 0.940629 0.198441
vt 0.940605 0.124106
vt 0.945107 0.122635
vt 0.945107 0.130260
vt 0.013046 0.947196
vt 0.017773 0.947196
vt 0.015372 0.954457
vt 0.573695 0.927812
vt 0.578174 0.926349
vt 0.578174 0.934012
vt 0.179387 0.921361
vt 0.185087 0.919499
vt 0.185087 0.929251
vt 0.925684 0.414137
vt 0.931413 0.415971
vt 0.925684 0.423841
vt 0.903826 0.935077
vt 0.897799 0.935077
vt 0.900813 0.925853
vt 0.829353 0.934040
vt 0.823337 0.934040
vt 0.826296 0.924798
vt 0.111620 0.929299
vt 0.105919 0.927436
vt 0.111620 0.919546
vt 0.517540 0.930277
vt 0.511828 0.928448
vt 0.517540 0.920543
vt 0.930716 0.517976
vt 0.925004 0.519865
vt 0.925004 0.510131
vt 0.934261 0.850051
vt 0.928234 0.850051
vt 0.931248 0.840827
vt 0.927058 0.302150
vt 0.933074 0.302150
vt 0.930115 0.311392
vt 0.267025 0.912995
vt 0.272726 0.914857
vt 0.267025 0.922747
s 0
usemtl banner
f 781/859/203 792/860/203 782/861/204
f 792/860/205 793/862/206 782/861/207
f 782/863/204 793/864/204 783/865/208
f 793/864/204 794/866/208 783/865/208
f 783/865/209 794/866/209 784/867/210
f 794/866/209 795/868/210 784/867/210
f 784/867/211 795/868/211 785/869/212
f 795/868/211 796/870/212 785/869/212
f 785/871/213 796/872/213 786/873/214
f 796/872/212 797/874/214 786/873/214
f 786/873/215 797/874/215 787/875/216
f 797/874/217 798/876/218 787/875/219
f 787/877/219 798/878/219 788/879/220
f 798/878/219 799/880/220 788/879/220
f 788/879/221 799/880/221 789/881/222
f 799/880/221 800/882/222 789/881/222
f 789/881/223 800/882/223 790/883/224
f 800/882/223 801/884/224 790/883/224
f 790/885/225 801/886/225 791/887/226
f 801/886/224 802/888/227 791/887/227
f 813/889/228 814/890/228 803/891/228
f 814/892/228 815/893/228 804/894/228
f 815/895/228 816/896/228 805/897/228
f 816/898/228 817/899/228 806/900/228
f 817/901/228 818/902/228 807/903/228
f 818/904/228 819/905/228 808/906/228
f 819/907/228 820/908/228 809/909/228
f 820/910/228 821/911/228 810/912/228
f 821/913/228 822/914/228 811/915/228
f 822/916/228 823/917/228 812/918/228
f 835/919/229 834/920/229 824/921/229
f 836/922/229 835/923/229 825/924/229
f 837/925/229 836/926/229 826/927/229
f 838/928/229 837/929/229 827/930/229
f 839/931/229 838/932/229 828/933/229
f 840/934/229 839/935/229 829/936/229
f 841/937/229 840/938/229 830/939/229
f 842/940/229 841/941/229 831/942/229
f 843/943/229 842/944/229 832/945/229
f 844/946/229 843/947/229 833/948/229
o mast_cap_a
v -0.405038 3.000000 -2.340997
v -0.405038 3.000000 -2.340997
v -0.405038 3.000000 -2.340997
v -0.405038 3.000000 -2.340997
v -0.405038 3.000000 -2.340997
v -0.405038 3.000000 -2.340997
v -0.405038 3.000000 -2.340997
v -0.405038 3.000000 -2.340997
v -0.405038 2.740000 -2.171648
v -0.285954 2.740000 -2.221249
v -0.236628 2.740000 -2.340997
v -0.285954 2.740000 -2.460744
v -0.405038 2.740000 -2.510345
v -0.524122 2.740000 -2.460744
v -0.573448 2.740000 -2.340997
v -0.524122 2.740000 -2.221249
v -0.405038 2.740000 -2.171648
v -0.405038 2.740000 -2.340997
v -0.405038 2.740000 -2.340997
v -0.405038 2.740000 -2.340997
v -0.405038 2.740000 -2.340997
v -0.405038 2.740000 -2.340997
v -0.405038 2.740000 -2.340997
v -0.405038 2.740000 -2.340997
v -0.405038 2.740000 -2.340997
v -0.405038 2.740000 -2.171648
v -0.285954 2.740000 -2.221249
v -0.236628 2.740000 -2.340997
v -0.285954 2.740000 -2.460744
v -0.405038 2.740000 -2.510345
v -0.524122 2.740000 -2.460744
v -0.573448 2.740000 -2.340997
v -0.524122 2.740000 -2.221249
v -0.405038 2.740000 -2.171648
vn -0.0000 0.5458 0.8379
vn 0.5946 0.5447 0.5914
vn 0.5947 0.5447 0.5913
vn 0.8393 0.5437 -0.0000
vn 0.8393 0.5436 -0.0000
vn 0.5947 0.5447 -0.5913
vn 0.5946 0.5447 -0.5914
vn -0.0000 0.5458 -0.8379
vn -0.5946 0.5447 -0.5914
vn -0.5947 0.5447 -0.5913
vn -0.8393 0.5437 -0.0000
vn -0.8393 0.5436 -0.0000
vn -0.5947 0.5447 0.5913
vn -0.5946 0.5447 0.5914
vn -0.0000 -1.0000 -0.0000
vt 0.655362 0.809695
vt 0.664189 0.807836
vt 0.664189 0.829517
vt 0.853610 0.784133
vt 0.860826 0.784133
vt 0.855197 0.805051
vt 0.314587 0.845483
vt 0.305531 0.845483
vt 0.310102 0.824289
vt 0.768104 0.874828
vt 0.760932 0.874828
vt 0.762484 0.853888
vt 0.349701 0.845505
vt 0.340680 0.845505
vt 0.345148 0.824289
vt 0.860826 0.758040
vt 0.853610 0.758040
vt 0.859239 0.737121
vt 0.235231 0.824289
vt 0.244288 0.824289
vt 0.239717 0.845483
vt 0.860568 0.841357
vt 0.867720 0.840827
vt 0.867720 0.861825
vt 0.906162 0.088918
vt 0.914512 0.092331
vt 0.906162 0.100728
vt 0.906162 0.164724
vt 0.914536 0.168173
vt 0.906162 0.176501
vt 0.914536 0.210921
vt 0.906162 0.214371
vt 0.906162 0.202594
vt 0.914489 0.024889
vt 0.906162 0.021421
vt 0.914489 0.013047
vt 0.768104 0.909295
vt 0.759777 0.912764
vt 0.759777 0.900921
vt 0.723597 0.921811
vt 0.714541 0.921811
vt 0.719112 0.910922
vt 0.655362 0.911018
vt 0.664418 0.911018
vt 0.659933 0.921907
vt 0.893813 0.840827
vt 0.902141 0.844296
vt 0.893813 0.852670
s 0
usemtl banner
f 853/949/230 854/950/231 845/951/231
f 854/952/232 855/953/233 846/954/234
f 855/955/234 856/956/235 847/957/235
f 856/958/236 857/959/237 848/960/237
f 857/961/237 858/962/238 849/963/238
f 858/964/239 859/965/240 850/966/241
f 859/967/241 860/968/242 851/969/242
f 860/970/243 861/971/230 852/972/230
f 871/973/244 870/974/244 862/975/244
f 872/976/244 871/977/244 863/978/244
f 873/979/244 872/980/244 864/981/244
f 874/982/244 873/983/244 865/984/244
f 875/985/244 874/986/244 866/987/244
f 876/988/244 875/989/244 867/990/244
f 877/991/244 876/992/244 868/993/244
f 878/994/244 877/995/244 869/996/244
o mast_cap_b
v -0.405038 3.000000 2.340996
v -0.405038 3.000000 2.340996
v -0.405038 3.000000 2.340996
v -0.405038 3.000000 2.340996
v -0.405038 3.000000 2.340996
v -0.405038 3.000000 2.340996
v -0.405038 3.000000 2.340996
v -0.405038 3.000000 2.340996
v -0.405038 2.740000 2.510345
v -0.285954 2.740000 2.460744
v -0.236628 2.740000 2.340996
v -0.285954 2.740000 2.221248
v -0.405038 2.740000 2.171647
v -0.524122 2.740000 2.221248
v -0.573448 2.740000 2.340996
v -0.524122 2.740000 2.460744
v -0.405038 2.740000 2.510345
v -0.405038 2.740000 2.340996
v -0.405038 2.740000 2.340996
v -0.405038 2.740000 2.340996
v -0.405038 2.740000 2.340996
v -0.405038 2.740000 2.340996
v -0.405038 2.740000 2.340996
v -0.405038 2.740000 2.340996
v -0.405038 2.740000 2.340996
v -0.405038 2.740000 2.510345
v -0.285954 2.740000 2.460744
v -0.236628 2.740000 2.340996
v -0.285954 2.740000 2.221248
v -0.405038 2.740000 2.171647
v -0.524122 2.740000 2.221248
v -0.573448 2.740000 2.340996
v -0.524122 2.740000 2.460744
v -0.405038 2.740000 2.510345
vn -0.0000 0.5458 0.8379
vn 0.5946 0.5447 0.5914
vn 0.5947 0.5447 0.5913
vn 0.8393 0.5437 -0.0000
vn 0.8393 0.5436 -0.0000
vn 0.5947 0.5447 -0.5913
vn 0.5946 0.5447 -0.5914
vn -0.0000 0.5458 -0.8379
vn -0.5946 0.5447 -0.5914
vn -0.5947 0.5447 -0.5913
vn -0.8393 0.5437 -0.0000
vn -0.8393 0.5436 -0.0000
vn -0.5947 0.5447 0.5913
vn -0.5946 0.5447 0.5914
vn -0.0000 -1.0000 -0.0000
vt 0.714541 0.807723
vt 0.723361 0.809616
vt 0.714541 0.829421
vt 0.860578 0.633759
vt 0.853610 0.635635
vt 0.853610 0.613972
vt 0.279438 0.845483
vt 0.270381 0.845483
vt 0.274952 0.824289
vt 0.865400 0.322617
vt 0.858248 0.323147
vt 0.858248 0.302150
vt 0.769753 0.827795
vt 0.760932 0.825902
vt 0.769753 0.806096
vt 0.865464 0.276057
vt 0.858248 0.276057
vt 0.863877 0.255138
vt 0.832759 0.565547
vt 0.841815 0.565547
vt 0.837244 0.586740
vt 0.853610 0.661728
vt 0.860536 0.663587
vt 0.853610 0.683408
vt 0.906162 0.054451
vt 0.914489 0.050982
vt 0.914489 0.062825
vt 0.375794 0.909879
vt 0.384168 0.913328
vt 0.375794 0.921656
vt 0.419220 0.918206
vt 0.410846 0.921656
vt 0.410846 0.909879
vt 0.914512 0.135218
vt 0.906162 0.138631
vt 0.906162 0.126821
vt 0.904407 0.565799
vt 0.896080 0.569268
vt 0.896080 0.557425
vt 0.022103 0.921103
vt 0.013046 0.921103
vt 0.017618 0.910214
vt 0.305531 0.912965
vt 0.314587 0.912965
vt 0.310102 0.923855
vt 0.897799 0.887918
vt 0.906126 0.891386
vt 0.897799 0.899760
s 0
usemtl banner
f 887/997/245 888/998/246 879/999/246
f 888/1000/247 889/1001/248 880/1002/249
f 889/1003/249 890/1004/250 881/1005/250
f 890/1006/251 891/1007/252 882/1008/252
f 891/1009/252 892/1010/253 883/1011/253
f 892/1012/254 893/1013/255 884/1014/256
f 893/1015/256 894/1016/257 885/1017/257
f 894/1018/258 895/1019/245 886/1020/245
f 905/1021/259 904/1022/259 896/1023/259
f 906/1024/259 905/1025/259 897/1026/259
f 907/1027/259 906/1028/259 898/1029/259
f 908/1030/259 907/1031/259 899/1032/259
f 909/1033/259 908/1034/259 900/1035/259
f 910/1036/259 909/1037/259 901/1038/259
f 911/1039/259 910/1040/259 902/1041/259
f 912/1042/259 911/1043/259 903/1044/259
