# Blender 4.2.23 LTS
# www.blender.org
mtllib barrier.mtl
o board
v -1.000000 1.070000 -0.064286
v -1.000000 1.470000 0.064286
v -1.000000 1.470000 -0.064286
v -1.000000 1.070000 -0.064286
v -1.000000 1.070000 0.064286
v -1.000000 1.470000 0.064286
v 1.000000 1.070000 -0.064286
v 1.000000 1.470000 -0.064286
v 1.000000 1.470000 0.064286
v 1.000000 1.070000 -0.064286
v 1.000000 1.470000 0.064286
v 1.000000 1.070000 0.064286
v -0.970000 1.040000 -0.064286
v 0.970000 1.040000 -0.064286
v 0.970000 1.040000 0.064286
v -0.970000 1.040000 -0.064286
v 0.970000 1.040000 0.064286
v -0.970000 1.040000 0.064286
v -0.970000 1.500000 -0.064286
v 0.970000 1.500000 0.064286
v 0.970000 1.500000 -0.064286
v -0.970000 1.500000 -0.064286
v -0.970000 1.500000 0.064286
v 0.970000 1.500000 0.064286
v -0.970000 1.070000 -0.096429
v 0.970000 1.470000 -0.096429
v 0.970000 1.070000 -0.096429
v -0.970000 1.070000 -0.096429
v -0.970000 1.470000 -0.096429
v 0.970000 1.470000 -0.096429
v -0.970000 1.070000 0.096428
v 0.970000 1.070000 0.096428
v 0.970000 1.470000 0.096428
v -0.970000 1.070000 0.096428
v 0.970000 1.470000 0.096428
v -0.970000 1.470000 0.096428
v -1.000000 1.070000 -0.064286
v -0.970000 1.040000 -0.064286
v -0.970000 1.040000 0.064286
v -1.000000 1.070000 -0.064286
v -0.970000 1.040000 0.064286
v -1.000000 1.070000 0.064286
v -1.000000 1.470000 -0.064286
v -0.970000 1.500000 0.064286
v -0.970000 1.500000 -0.064286
v -1.000000 1.470000 -0.064286
v -1.000000 1.470000 0.064286
v -0.970000 1.500000 0.064286
v 1.000000 1.070000 -0.064286
v 0.970000 1.040000 0.064286
v 0.970000 1.040000 -0.064286
v 1.000000 1.070000 -0.064286
v 1.000000 1.070000 0.064286
v 0.970000 1.040000 0.064286
v 1.000000 1.470000 -0.064286
v 0.970000 1.500000 -0.064286
v 0.970000 1.500000 0.064286
v 1.000000 1.470000 -0.064286
v 0.970000 1.500000 0.064286
v 1.000000 1.470000 0.064286
v -1.000000 1.070000 -0.064286
v -0.970000 1.470000 -0.096429
v -0.970000 1.070000 -0.096429
v -1.000000 1.070000 -0.064286
v -1.000000 1.470000 -0.064286
v -0.970000 1.470000 -0.096429
v -1.000000 1.070000 0.064286
v -0.970000 1.070000 0.096428
v -0.970000 1.470000 0.096428
v -1.000000 1.070000 0.064286
v -0.970000 1.470000 0.096428
v -1.000000 1.470000 0.064286
v 1.000000 1.070000 -0.064286
v 0.970000 1.070000 -0.096429
v 0.970000 1.470000 -0.096429
v 1.000000 1.070000 -0.064286
v 0.970000 1.470000 -0.096429
v 1.000000 1.470000 -0.064286
v 1.000000 1.070000 0.064286
v 0.970000 1.470000 0.096428
v 0.970000 1.070000 0.096428
v 1.000000 1.070000 0.064286
v 1.000000 1.470000 0.064286
v 0.970000 1.470000 0.096428
v -0.970000 1.040000 -0.064286
v -0.970000 1.070000 -0.096429
v 0.970000 1.070000 -0.096429
v -0.970000 1.040000 -0.064286
v 0.970000 1.070000 -0.096429
v 0.970000 1.040000 -0.064286
v -0.970000 1.040000 0.064286
v 0.970000 1.070000 0.096428
v -0.970000 1.070000 0.096428
v -0.970000 1.040000 0.064286
v 0.970000 1.040000 0.064286
v 0.970000 1.070000 0.096428
v -0.970000 1.500000 -0.064286
v 0.970000 1.470000 -0.096429
v -0.970000 1.470000 -0.096429
v -0.970000 1.500000 -0.064286
v 0.970000 1.500000 -0.064286
v 0.970000 1.470000 -0.096429
v -0.970000 1.500000 0.064286
v -0.970000 1.470000 0.096428
v 0.970000 1.470000 0.096428
v -0.970000 1.500000 0.064286
v 0.970000 1.470000 0.096428
v 0.970000 1.500000 0.064286
v -1.000000 1.070000 -0.064286
v -0.970000 1.070000 -0.096429
v -0.970000 1.040000 -0.064286
v -1.000000 1.070000 0.064286
v -0.970000 1.040000 0.064286
v -0.970000 1.070000 0.096428
v -1.000000 1.470000 -0.064286
v -0.970000 1.500000 -0.064286
v -0.970000 1.470000 -0.096429
v -1.000000 1.470000 0.064286
v -0.970000 1.470000 0.096428
v -0.970000 1.500000 0.064286
v 1.000000 1.070000 -0.064286
v 0.970000 1.040000 -0.064286
v 0.970000 1.070000 -0.096429
v 1.000000 1.070000 0.064286
v 0.970000 1.070000 0.096428
v 0.970000 1.040000 0.064286
v 1.000000 1.470000 -0.064286
v 0.970000 1.470000 -0.096429
v 0.970000 1.500000 -0.064286
v 1.000000 1.470000 0.064286
v 0.970000 1.500000 0.064286
v 0.970000 1.470000 0.096428
vn -1.0000 -0.0000 -0.0000
vn 1.0000 -0.0000 -0.0000
vn -0.0000 -1.0000 -0.0000
vn -0.0000 1.0000 -0.0000
vn -0.0000 -0.0000 -1.0000
vn -0.0000 -0.0000 1.0000
vn -0.7071 -0.7071 -0.0000
vn -0.7071 0.7071 -0.0000
vn 0.7071 -0.7071 -0.0000
vn 0.7071 0.7071 -0.0000
vn -0.7311 -0.0000 -0.6823
vn -0.7311 -0.0000 0.6823
vn 0.7311 -0.0000 -0.6823
vn 0.7311 -0.0000 0.6823
vn -0.0000 -0.7311 -0.6823
vn -0.0000 -0.7311 0.6823
vn -0.0000 0.7311 -0.6823
vn -0.0000 0.7311 0.6823
vn -0.5902 -0.5902 -0.5508
vn -0.5902 -0.5902 0.5508
vn -0.5902 0.5902 -0.5508
vn -0.5902 0.5902 0.5508
vn 0.5902 -0.5902 -0.5508
vn 0.5902 -0.5902 0.5508
vn 0.5902 0.5902 -0.5508
vn 0.5902 0.5902 0.5508
vt 0.708990 0.084727
vt 0.720714 0.110518
vt 0.708990 0.110518
vt 0.544781 0.799486
vt 0.533058 0.799486
vt 0.533058 0.773695
vt 0.789480 0.110518
vt 0.789480 0.084727
vt 0.801204 0.084727
vt 0.760959 0.084727
vt 0.749235 0.110518
vt 0.749235 0.084727
vt 0.285939 0.191547
vt 0.274241 0.015036
vt 0.285939 0.014261
vt 0.314461 0.191547
vt 0.314461 0.014261
vt 0.326159 0.190772
vt 0.305498 0.345702
vt 0.305498 0.220068
vt 0.317171 0.221162
vt 0.435249 0.345314
vt 0.423576 0.344220
vt 0.435249 0.219680
vt 0.144251 0.014261
vt 0.180725 0.191159
vt 0.144251 0.191159
vt 0.050735 0.191159
vt 0.014261 0.191159
vt 0.014261 0.014261
vt 0.079256 0.191159
vt 0.079256 0.014261
vt 0.115730 0.014261
vt 0.245720 0.014261
vt 0.209246 0.191159
vt 0.209246 0.014261
vt 0.912121 0.461735
vt 0.909386 0.461735
vt 0.909386 0.450011
vt 0.912245 0.501980
vt 0.909509 0.490256
vt 0.912245 0.490256
vt 0.596594 0.365668
vt 0.600462 0.353944
vt 0.600462 0.365668
vt 0.628983 0.365668
vt 0.628983 0.353944
vt 0.632852 0.353944
vt 0.909509 0.542225
vt 0.912245 0.530501
vt 0.912245 0.542225
vt 0.909509 0.582470
vt 0.909509 0.570746
vt 0.912245 0.570746
vt 0.665242 0.365668
vt 0.661373 0.365668
vt 0.661373 0.353944
vt 0.858319 0.865461
vt 0.854451 0.853737
vt 0.858319 0.853737
vt 0.818338 0.662688
vt 0.818338 0.699264
vt 0.815611 0.662892
vt 0.812803 0.397744
vt 0.815531 0.434116
vt 0.812803 0.434321
vt 0.812803 0.462842
vt 0.815531 0.463046
vt 0.812803 0.499418
vt 0.818534 0.740058
vt 0.818534 0.776634
vt 0.815806 0.776430
vt 0.812803 0.527939
vt 0.815531 0.528144
vt 0.812803 0.564516
vt 0.092268 0.782778
vt 0.092268 0.819354
vt 0.089540 0.819150
vt 0.123525 0.782778
vt 0.123525 0.819354
vt 0.120797 0.782983
vt 0.812803 0.593037
vt 0.815531 0.629409
vt 0.812803 0.629613
vt 0.395251 0.191159
vt 0.392320 0.191159
vt 0.392320 0.014261
vt 0.120992 0.219680
vt 0.123923 0.396578
vt 0.120992 0.396578
vt 0.092471 0.219680
vt 0.089540 0.396578
vt 0.089540 0.219680
vt 0.152445 0.396578
vt 0.152445 0.219680
vt 0.155375 0.219680
vt 0.186632 0.219680
vt 0.183897 0.396578
vt 0.183897 0.219680
vt 0.392320 0.396578
vt 0.392320 0.219680
vt 0.395055 0.219680
vt 0.276977 0.396966
vt 0.274241 0.396966
vt 0.274241 0.220068
vt 0.215154 0.219680
vt 0.217889 0.396578
vt 0.215154 0.396578
vt 0.240210 0.490161
vt 0.240210 0.494170
vt 0.238210 0.492027
vt 0.240210 0.526700
vt 0.238210 0.524834
vt 0.240210 0.522691
vt 0.331884 0.963278
vt 0.335113 0.961147
vt 0.335113 0.964659
vt 0.384077 0.962597
vt 0.387306 0.961217
vt 0.387306 0.964728
vt 0.238210 0.425100
vt 0.240210 0.426966
vt 0.238210 0.429109
vt 0.238210 0.461639
vt 0.238210 0.457630
vt 0.240210 0.459773
vt 0.155283 0.961632
vt 0.155283 0.965144
vt 0.152054 0.963763
vt 0.187033 0.965144
vt 0.183804 0.963013
vt 0.187033 0.961632
s 0
usemtl barrier
f 1/1/1 2/2/1 3/3/1
f 4/4/1 5/5/1 6/6/1
f 7/7/2 8/8/2 9/9/2
f 10/10/2 11/11/2 12/12/2
f 13/13/3 14/14/3 15/15/3
f 16/16/3 17/17/3 18/18/3
f 19/19/4 20/20/4 21/21/4
f 22/22/4 23/23/4 24/24/4
f 25/25/5 26/26/5 27/27/5
f 28/28/5 29/29/5 30/30/5
f 31/31/6 32/32/6 33/33/6
f 34/34/6 35/35/6 36/36/6
f 37/37/7 38/38/7 39/39/7
f 40/40/7 41/41/7 42/42/7
f 43/43/8 44/44/8 45/45/8
f 46/46/8 47/47/8 48/48/8
f 49/49/9 50/50/9 51/51/9
f 52/52/9 53/53/9 54/54/9
f 55/55/10 56/56/10 57/57/10
f 58/58/10 59/59/10 60/60/10
f 61/61/11 62/62/11 63/63/11
f 64/64/11 65/65/11 66/66/11
f 67/67/12 68/68/12 69/69/12
f 70/70/12 71/71/12 72/72/12
f 73/73/13 74/74/13 75/75/13
f 76/76/13 77/77/13 78/78/13
f 79/79/14 80/80/14 81/81/14
f 82/82/14 83/83/14 84/84/14
f 85/85/15 86/86/15 87/87/15
f 88/88/15 89/89/15 90/90/15
f 91/91/16 92/92/16 93/93/16
f 94/94/16 95/95/16 96/96/16
f 97/97/17 98/98/17 99/99/17
f 100/100/17 101/101/17 102/102/17
f 103/103/18 104/104/18 105/105/18
f 106/106/18 107/107/18 108/108/18
f 109/109/19 110/110/19 111/111/19
f 112/112/20 113/113/20 114/114/20
f 115/115/21 116/116/21 117/117/21
f 118/118/22 119/119/22 120/120/22
f 121/121/23 122/122/23 123/123/23
f 124/124/24 125/125/24 126/126/24
f 127/127/25 128/128/25 129/129/25
f 130/130/26 131/131/26 132/132/26
o foot_l
v -0.970000 0.030000 -0.267857
v -0.970000 0.100000 0.267857
v -0.970000 0.100000 -0.267857
v -0.970000 0.030000 -0.267857
v -0.970000 0.030000 0.267857
v -0.970000 0.100000 0.267857
v -0.630000 0.030000 -0.267857
v -0.630000 0.100000 -0.267857
v -0.630000 0.100000 0.267857
v -0.630000 0.030000 -0.267857
v -0.630000 0.100000 0.267857
v -0.630000 0.030000 0.267857
v -0.940000 -0.000000 -0.267857
v -0.660000 -0.000000 -0.267857
v -0.660000 0.000000 0.267857
v -0.940000 -0.000000 -0.267857
v -0.660000 0.000000 0.267857
v -0.940000 0.000000 0.267857
v -0.940000 0.130000 -0.267857
v -0.660000 0.130000 0.267857
v -0.660000 0.130000 -0.267857
v -0.940000 0.130000 -0.267857
v -0.940000 0.130000 0.267857
v -0.660000 0.130000 0.267857
v -0.940000 0.030000 -0.300000
v -0.660000 0.100000 -0.300000
v -0.660000 0.030000 -0.300000
v -0.940000 0.030000 -0.300000
v -0.940000 0.100000 -0.300000
v -0.660000 0.100000 -0.300000
v -0.940000 0.030000 0.300000
v -0.660000 0.030000 0.300000
v -0.660000 0.100000 0.300000
v -0.940000 0.030000 0.300000
v -0.660000 0.100000 0.300000
v -0.940000 0.100000 0.300000
v -0.970000 0.030000 -0.267857
v -0.940000 -0.000000 -0.267857
v -0.940000 0.000000 0.267857
v -0.970000 0.030000 -0.267857
v -0.940000 0.000000 0.267857
v -0.970000 0.030000 0.267857
v -0.970000 0.100000 -0.267857
v -0.940000 0.130000 0.267857
v -0.940000 0.130000 -0.267857
v -0.970000 0.100000 -0.267857
v -0.970000 0.100000 0.267857
v -0.940000 0.130000 0.267857
v -0.630000 0.030000 -0.267857
v -0.660000 0.000000 0.267857
v -0.660000 -0.000000 -0.267857
v -0.630000 0.030000 -0.267857
v -0.630000 0.030000 0.267857
v -0.660000 0.000000 0.267857
v -0.630000 0.100000 -0.267857
v -0.660000 0.130000 -0.267857
v -0.660000 0.130000 0.267857
v -0.630000 0.100000 -0.267857
v -0.660000 0.130000 0.267857
v -0.630000 0.100000 0.267857
v -0.970000 0.030000 -0.267857
v -0.940000 0.100000 -0.300000
v -0.940000 0.030000 -0.300000
v -0.970000 0.030000 -0.267857
v -0.970000 0.100000 -0.267857
v -0.940000 0.100000 -0.300000
v -0.970000 0.030000 0.267857
v -0.940000 0.030000 0.300000
v -0.940000 0.100000 0.300000
v -0.970000 0.030000 0.267857
v -0.940000 0.100000 0.300000
v -0.970000 0.100000 0.267857
v -0.630000 0.030000 -0.267857
v -0.660000 0.030000 -0.300000
v -0.660000 0.100000 -0.300000
v -0.630000 0.030000 -0.267857
v -0.660000 0.100000 -0.300000
v -0.630000 0.100000 -0.267857
v -0.630000 0.030000 0.267857
v -0.660000 0.100000 0.300000
v -0.660000 0.030000 0.300000
v -0.630000 0.030000 0.267857
v -0.630000 0.100000 0.267857
v -0.660000 0.100000 0.300000
v -0.940000 -0.000000 -0.267857
v -0.940000 0.030000 -0.300000
v -0.660000 0.030000 -0.300000
v -0.940000 -0.000000 -0.267857
v -0.660000 0.030000 -0.300000
v -0.660000 -0.000000 -0.267857
v -0.940000 0.000000 0.267857
v -0.660000 0.030000 0.300000
v -0.940000 0.030000 0.300000
v -0.940000 0.000000 0.267857
v -0.660000 0.000000 0.267857
v -0.660000 0.030000 0.300000
v -0.940000 0.130000 -0.267857
v -0.660000 0.100000 -0.300000
v -0.940000 0.100000 -0.300000
v -0.940000 0.130000 -0.267857
v -0.660000 0.130000 -0.267857
v -0.660000 0.100000 -0.300000
v -0.940000 0.130000 0.267857
v -0.940000 0.100000 0.300000
v -0.660000 0.100000 0.300000
v -0.940000 0.130000 0.267857
v -0.660000 0.100000 0.300000
v -0.660000 0.130000 0.267857
v -0.970000 0.030000 -0.267857
v -0.940000 0.030000 -0.300000
v -0.940000 -0.000000 -0.267857
v -0.970000 0.030000 0.267857
v -0.940000 0.000000 0.267857
v -0.940000 0.030000 0.300000
v -0.970000 0.100000 -0.267857
v -0.940000 0.130000 -0.267857
v -0.940000 0.100000 -0.300000
v -0.970000 0.100000 0.267857
v -0.940000 0.100000 0.300000
v -0.940000 0.130000 0.267857
v -0.630000 0.030000 -0.267857
v -0.660000 -0.000000 -0.267857
v -0.660000 0.030000 -0.300000
v -0.630000 0.030000 0.267857
v -0.660000 0.030000 0.300000
v -0.660000 0.000000 0.267857
v -0.630000 0.100000 -0.267857
v -0.660000 0.100000 -0.300000
v -0.660000 0.130000 -0.267857
v -0.630000 0.100000 0.267857
v -0.660000 0.130000 0.267857
v -0.660000 0.100000 0.300000
vn -1.0000 -0.0000 -0.0000
vn 1.0000 -0.0000 -0.0000
vn -0.0000 -1.0000 -0.0000
vn -0.0000 1.0000 -0.0000
vn -0.0000 -0.0000 -1.0000
vn -0.0000 -0.0000 1.0000
vn -0.7071 -0.7071 -0.0000
vn -0.7071 0.7071 -0.0000
vn 0.7071 -0.7071 -0.0000
vn 0.7071 0.7071 -0.0000
vn -0.7311 -0.0000 -0.6823
vn -0.7311 -0.0000 0.6823
vn 0.7311 -0.0000 -0.6823
vn 0.7311 -0.0000 0.6823
vn -0.0000 -0.7311 -0.6823
vn -0.0000 -0.7311 0.6823
vn -0.0000 0.7311 -0.6823
vn -0.0000 0.7311 0.6823
vn -0.5902 -0.5902 -0.5508
vn -0.5902 -0.5902 0.5508
vn -0.5902 0.5902 -0.5508
vn -0.5902 0.5902 0.5508
vn 0.5902 -0.5902 -0.5508
vn 0.5902 -0.5902 0.5508
vn 0.5902 0.5902 -0.5508
vn 0.5902 0.5902 0.5508
vt 0.014261 0.749489
vt 0.020644 0.713778
vt 0.020644 0.749489
vt 0.050934 0.749489
vt 0.050934 0.713778
vt 0.057317 0.713778
vt 0.544781 0.745174
vt 0.538398 0.745174
vt 0.538398 0.709463
vt 0.470153 0.749489
vt 0.463770 0.713778
vt 0.470153 0.713778
vt 0.036888 0.585335
vt 0.014261 0.573508
vt 0.036888 0.530216
vt 0.563930 0.581020
vt 0.538398 0.532171
vt 0.563930 0.532171
vt 0.331884 0.597302
vt 0.357415 0.548453
vt 0.357415 0.597302
vt 0.089540 0.606420
vt 0.089540 0.557571
vt 0.115072 0.557571
vt 0.158246 0.782778
vt 0.158246 0.809095
vt 0.152054 0.807547
vt 0.613539 0.822918
vt 0.607156 0.822918
vt 0.607156 0.797386
vt 0.539441 0.828007
vt 0.539441 0.845428
vt 0.533058 0.845428
vt 0.020254 0.824769
vt 0.020254 0.843322
vt 0.014261 0.826964
vt 0.577808 0.658390
vt 0.575072 0.658390
vt 0.575072 0.609541
vt 0.503179 0.662705
vt 0.500444 0.613856
vt 0.503179 0.613856
vt 0.235286 0.683791
vt 0.238021 0.634942
vt 0.238021 0.683791
vt 0.575072 0.735760
vt 0.575072 0.686911
vt 0.577807 0.686911
vt 0.500444 0.740075
vt 0.503179 0.691226
vt 0.503179 0.740075
vt 0.743127 0.190470
vt 0.743127 0.141621
vt 0.745862 0.141621
vt 0.752830 0.446593
vt 0.750094 0.446593
vt 0.750094 0.397744
vt 0.752830 0.523963
vt 0.750094 0.475114
vt 0.752830 0.475114
vt 0.955084 0.049726
vt 0.952349 0.056109
vt 0.952349 0.049726
vt 0.224949 0.951831
vt 0.224949 0.958214
vt 0.222213 0.958214
vt 0.756911 0.946147
vt 0.752902 0.946147
vt 0.752902 0.939764
vt 0.944316 0.397744
vt 0.948325 0.404127
vt 0.944316 0.404127
vt 0.120992 0.847876
vt 0.123507 0.848953
vt 0.120992 0.854820
vt 0.954720 0.888121
vt 0.954720 0.895065
vt 0.952206 0.893987
vt 0.949313 0.614124
vt 0.945304 0.620507
vt 0.945304 0.614124
vt 0.946556 0.669071
vt 0.946556 0.662688
vt 0.950565 0.662688
vt 0.421562 0.782778
vt 0.424474 0.783112
vt 0.421562 0.808477
vt 0.844052 0.451965
vt 0.846983 0.477497
vt 0.844052 0.477497
vt 0.642060 0.823086
vt 0.642060 0.797387
vt 0.644972 0.822752
vt 0.844052 0.531550
vt 0.844052 0.506018
vt 0.846983 0.506018
vt 0.826840 0.014261
vt 0.826840 0.039960
vt 0.823928 0.014595
vt 0.844052 0.585603
vt 0.844052 0.560071
vt 0.846983 0.560071
vt 0.718521 0.829320
vt 0.715609 0.828985
vt 0.718521 0.803620
vt 0.222213 0.823303
vt 0.225144 0.848834
vt 0.222213 0.848834
vt 0.868858 0.365426
vt 0.866122 0.368357
vt 0.866122 0.365426
vt 0.718921 0.974151
vt 0.715609 0.974151
vt 0.716661 0.970839
vt 0.607156 0.973943
vt 0.609891 0.973943
vt 0.609891 0.976874
vt 0.963254 0.358455
vt 0.966411 0.355983
vt 0.966411 0.359458
vt 0.815806 0.973952
vt 0.818542 0.973952
vt 0.818542 0.976882
vt 0.089540 0.974476
vt 0.091800 0.971165
vt 0.092852 0.974476
vt 0.644796 0.974110
vt 0.642060 0.977041
vt 0.642060 0.974110
vt 0.969165 0.144933
vt 0.965853 0.144933
vt 0.966905 0.141621
s 0
usemtl barrier
f 133/133/27 134/134/27 135/135/27
f 136/136/27 137/137/27 138/138/27
f 139/139/28 140/140/28 141/141/28
f 142/142/28 143/143/28 144/144/28
f 145/145/29 146/146/29 147/147/29
f 148/148/29 149/149/29 150/150/29
f 151/151/30 152/152/30 153/153/30
f 154/154/30 155/155/30 156/156/30
f 157/157/31 158/158/31 159/159/31
f 160/160/31 161/161/31 162/162/31
f 163/163/32 164/164/32 165/165/32
f 166/166/32 167/167/32 168/168/32
f 169/169/33 170/170/33 171/171/33
f 172/172/33 173/173/33 174/174/33
f 175/175/34 176/176/34 177/177/34
f 178/178/34 179/179/34 180/180/34
f 181/181/35 182/182/35 183/183/35
f 184/184/35 185/185/35 186/186/35
f 187/187/36 188/188/36 189/189/36
f 190/190/36 191/191/36 192/192/36
f 193/193/37 194/194/37 195/195/37
f 196/196/37 197/197/37 198/198/37
f 199/199/38 200/200/38 201/201/38
f 202/202/38 203/203/38 204/204/38
f 205/205/39 206/206/39 207/207/39
f 208/208/39 209/209/39 210/210/39
f 211/211/40 212/212/40 213/213/40
f 214/214/40 215/215/40 216/216/40
f 217/217/41 218/218/41 219/219/41
f 220/220/41 221/221/41 222/222/41
f 223/223/42 224/224/42 225/225/42
f 226/226/42 227/227/42 228/228/42
f 229/229/43 230/230/43 231/231/43
f 232/232/43 233/233/43 234/234/43
f 235/235/44 236/236/44 237/237/44
f 238/238/44 239/239/44 240/240/44
f 241/241/45 242/242/45 243/243/45
f 244/244/46 245/245/46 246/246/46
f 247/247/47 248/248/47 249/249/47
f 250/250/48 251/251/48 252/252/48
f 253/253/49 254/254/49 255/255/49
f 256/256/50 257/257/50 258/258/50
f 259/259/51 260/260/51 261/261/51
f 262/262/52 263/263/52 264/264/52
o foot_r
v 0.630000 0.030000 -0.267857
v 0.630000 0.100000 0.267857
v 0.630000 0.100000 -0.267857
v 0.630000 0.030000 -0.267857
v 0.630000 0.030000 0.267857
v 0.630000 0.100000 0.267857
v 0.970000 0.030000 -0.267857
v 0.970000 0.100000 -0.267857
v 0.970000 0.100000 0.267857
v 0.970000 0.030000 -0.267857
v 0.970000 0.100000 0.267857
v 0.970000 0.030000 0.267857
v 0.660000 -0.000000 -0.267857
v 0.940000 -0.000000 -0.267857
v 0.940000 0.000000 0.267857
v 0.660000 -0.000000 -0.267857
v 0.940000 0.000000 0.267857
v 0.660000 0.000000 0.267857
v 0.660000 0.130000 -0.267857
v 0.940000 0.130000 0.267857
v 0.940000 0.130000 -0.267857
v 0.660000 0.130000 -0.267857
v 0.660000 0.130000 0.267857
v 0.940000 0.130000 0.267857
v 0.660000 0.030000 -0.300000
v 0.940000 0.100000 -0.300000
v 0.940000 0.030000 -0.300000
v 0.660000 0.030000 -0.300000
v 0.660000 0.100000 -0.300000
v 0.940000 0.100000 -0.300000
v 0.660000 0.030000 0.300000
v 0.940000 0.030000 0.300000
v 0.940000 0.100000 0.300000
v 0.660000 0.030000 0.300000
v 0.940000 0.100000 0.300000
v 0.660000 0.100000 0.300000
v 0.630000 0.030000 -0.267857
v 0.660000 -0.000000 -0.267857
v 0.660000 0.000000 0.267857
v 0.630000 0.030000 -0.267857
v 0.660000 0.000000 0.267857
v 0.630000 0.030000 0.267857
v 0.630000 0.100000 -0.267857
v 0.660000 0.130000 0.267857
v 0.660000 0.130000 -0.267857
v 0.630000 0.100000 -0.267857
v 0.630000 0.100000 0.267857
v 0.660000 0.130000 0.267857
v 0.970000 0.030000 -0.267857
v 0.940000 0.000000 0.267857
v 0.940000 -0.000000 -0.267857
v 0.970000 0.030000 -0.267857
v 0.970000 0.030000 0.267857
v 0.940000 0.000000 0.267857
v 0.970000 0.100000 -0.267857
v 0.940000 0.130000 -0.267857
v 0.940000 0.130000 0.267857
v 0.970000 0.100000 -0.267857
v 0.940000 0.130000 0.267857
v 0.970000 0.100000 0.267857
v 0.630000 0.030000 -0.267857
v 0.660000 0.100000 -0.300000
v 0.660000 0.030000 -0.300000
v 0.630000 0.030000 -0.267857
v 0.630000 0.100000 -0.267857
v 0.660000 0.100000 -0.300000
v 0.630000 0.030000 0.267857
v 0.660000 0.030000 0.300000
v 0.660000 0.100000 0.300000
v 0.630000 0.030000 0.267857
v 0.660000 0.100000 0.300000
v 0.630000 0.100000 0.267857
v 0.970000 0.030000 -0.267857
v 0.940000 0.030000 -0.300000
v 0.940000 0.100000 -0.300000
v 0.970000 0.030000 -0.267857
v 0.940000 0.100000 -0.300000
v 0.970000 0.100000 -0.267857
v 0.970000 0.030000 0.267857
v 0.940000 0.100000 0.300000
v 0.940000 0.030000 0.300000
v 0.970000 0.030000 0.267857
v 0.970000 0.100000 0.267857
v 0.940000 0.100000 0.300000
v 0.660000 -0.000000 -0.267857
v 0.660000 0.030000 -0.300000
v 0.940000 0.030000 -0.300000
v 0.660000 -0.000000 -0.267857
v 0.940000 0.030000 -0.300000
v 0.940000 -0.000000 -0.267857
v 0.660000 0.000000 0.267857
v 0.940000 0.030000 0.300000
v 0.660000 0.030000 0.300000
v 0.660000 0.000000 0.267857
v 0.940000 0.000000 0.267857
v 0.940000 0.030000 0.300000
v 0.660000 0.130000 -0.267857
v 0.940000 0.100000 -0.300000
v 0.660000 0.100000 -0.300000
v 0.660000 0.130000 -0.267857
v 0.940000 0.130000 -0.267857
v 0.940000 0.100000 -0.300000
v 0.660000 0.130000 0.267857
v 0.660000 0.100000 0.300000
v 0.940000 0.100000 0.300000
v 0.660000 0.130000 0.267857
v 0.940000 0.100000 0.300000
v 0.940000 0.130000 0.267857
v 0.630000 0.030000 -0.267857
v 0.660000 0.030000 -0.300000
v 0.660000 -0.000000 -0.267857
v 0.630000 0.030000 0.267857
v 0.660000 0.000000 0.267857
v 0.660000 0.030000 0.300000
v 0.630000 0.100000 -0.267857
v 0.660000 0.130000 -0.267857
v 0.660000 0.100000 -0.300000
v 0.630000 0.100000 0.267857
v 0.660000 0.100000 0.300000
v 0.660000 0.130000 0.267857
v 0.970000 0.030000 -0.267857
v 0.940000 -0.000000 -0.267857
v 0.940000 0.030000 -0.300000
v 0.970000 0.030000 0.267857
v 0.940000 0.030000 0.300000
v 0.940000 0.000000 0.267857
v 0.970000 0.100000 -0.267857
v 0.940000 0.100000 -0.300000
v 0.940000 0.130000 -0.267857
v 0.970000 0.100000 0.267857
v 0.940000 0.130000 0.267857
v 0.940000 0.100000 0.300000
vn -1.0000 -0.0000 -0.0000
vn 1.0000 -0.0000 -0.0000
vn -0.0000 -1.0000 -0.0000
vn -0.0000 1.0000 -0.0000
vn -0.0000 -0.0000 -1.0000
vn -0.0000 -0.0000 1.0000
vn -0.7071 -0.7071 -0.0000
vn -0.7071 0.7071 -0.0000
vn 0.7071 -0.7071 -0.0000
vn 0.7071 0.7071 -0.0000
vn -0.7311 -0.0000 -0.6823
vn -0.7311 -0.0000 0.6823
vn 0.7311 -0.0000 -0.6823
vn 0.7311 -0.0000 0.6823
vn -0.0000 -0.7311 -0.6823
vn -0.0000 -0.7311 0.6823
vn -0.0000 0.7311 -0.6823
vn -0.0000 0.7311 0.6823
vn -0.5902 -0.5902 -0.5508
vn -0.5902 -0.5902 0.5508
vn -0.5902 0.5902 -0.5508
vn -0.5902 0.5902 0.5508
vn 0.5902 -0.5902 -0.5508
vn 0.5902 -0.5902 0.5508
vn 0.5902 0.5902 -0.5508
vn 0.5902 0.5902 0.5508
vt 0.757572 0.049972
vt 0.763955 0.014261
vt 0.763955 0.049972
vt 0.607156 0.768865
vt 0.607156 0.733154
vt 0.613539 0.733154
vt 0.238021 0.748023
vt 0.231638 0.748023
vt 0.231638 0.712312
vt 0.648443 0.768865
vt 0.642060 0.733154
vt 0.648443 0.733154
vt 0.486398 0.585335
vt 0.463770 0.573508
vt 0.486398 0.530216
vt 0.169125 0.606420
vt 0.143593 0.557571
vt 0.169125 0.557571
vt 0.197646 0.606420
vt 0.223178 0.557571
vt 0.223178 0.606420
vt 0.386849 0.606420
vt 0.386849 0.557571
vt 0.412380 0.557571
vt 0.192960 0.782778
vt 0.192960 0.809095
vt 0.186767 0.807547
vt 0.386849 0.782778
vt 0.393041 0.784326
vt 0.386849 0.809096
vt 0.048775 0.824769
vt 0.054768 0.841126
vt 0.048775 0.843322
vt 0.460339 0.824769
vt 0.460339 0.843322
vt 0.454345 0.826964
vt 0.752830 0.601333
vt 0.750094 0.601333
vt 0.750094 0.552485
vt 0.092276 0.754257
vt 0.089540 0.705408
vt 0.092276 0.705408
vt 0.120797 0.754257
vt 0.123532 0.705408
vt 0.123532 0.754257
vt 0.152054 0.754257
vt 0.152054 0.705408
vt 0.154789 0.705408
vt 0.186704 0.754257
vt 0.189439 0.705408
vt 0.189439 0.754257
vt 0.386849 0.754257
vt 0.386849 0.705408
vt 0.389584 0.705408
vt 0.420841 0.754257
vt 0.418105 0.754257
vt 0.418105 0.705408
vt 0.755637 0.711537
vt 0.752902 0.662688
vt 0.755637 0.662688
vt 0.954835 0.929820
vt 0.954835 0.936764
vt 0.952321 0.930897
vt 0.952349 0.014261
vt 0.954863 0.020127
vt 0.952349 0.021205
vt 0.950565 0.703975
vt 0.946556 0.703975
vt 0.946556 0.697592
vt 0.946752 0.740058
vt 0.950761 0.746441
vt 0.946752 0.746441
vt 0.268770 0.952598
vt 0.271506 0.952598
vt 0.271506 0.958981
vt 0.300027 0.952598
vt 0.302762 0.958981
vt 0.300027 0.958981
vt 0.052784 0.944452
vt 0.048775 0.950835
vt 0.048775 0.944452
vt 0.454345 0.952702
vt 0.454345 0.946319
vt 0.458355 0.946319
vt 0.829725 0.084727
vt 0.832637 0.085061
vt 0.829725 0.110426
vt 0.755813 0.810524
vt 0.755813 0.836224
vt 0.752902 0.835889
vt 0.784354 0.836224
vt 0.784354 0.810524
vt 0.787266 0.835889
vt 0.837601 0.245380
vt 0.834689 0.220014
vt 0.837601 0.219680
vt 0.837601 0.273901
vt 0.837601 0.299600
vt 0.834689 0.274235
vt 0.834689 0.328121
vt 0.837601 0.353487
vt 0.834689 0.353821
vt 0.840200 0.167320
vt 0.837288 0.166986
vt 0.840200 0.141621
vt 0.844052 0.423444
vt 0.844052 0.397744
vt 0.846964 0.398078
vt 0.755637 0.974668
vt 0.752901 0.977599
vt 0.752901 0.974668
vt 0.969301 0.182326
vt 0.965989 0.182326
vt 0.967041 0.179014
vt 0.784158 0.974668
vt 0.786894 0.974668
vt 0.786894 0.977599
vt 0.972023 0.493568
vt 0.974282 0.490256
vt 0.975334 0.493568
vt 0.976846 0.397744
vt 0.979582 0.397744
vt 0.979582 0.400675
vt 0.971899 0.453323
vt 0.974159 0.450011
vt 0.975211 0.453323
vt 0.980570 0.614124
vt 0.977835 0.617055
vt 0.977835 0.614124
vt 0.500829 0.965135
vt 0.497672 0.966137
vt 0.497672 0.962662
s 0
usemtl barrier
f 265/265/53 266/266/53 267/267/53
f 268/268/53 269/269/53 270/270/53
f 271/271/54 272/272/54 273/273/54
f 274/274/54 275/275/54 276/276/54
f 277/277/55 278/278/55 279/279/55
f 280/280/55 281/281/55 282/282/55
f 283/283/56 284/284/56 285/285/56
f 286/286/56 287/287/56 288/288/56
f 289/289/57 290/290/57 291/291/57
f 292/292/57 293/293/57 294/294/57
f 295/295/58 296/296/58 297/297/58
f 298/298/58 299/299/58 300/300/58
f 301/301/59 302/302/59 303/303/59
f 304/304/59 305/305/59 306/306/59
f 307/307/60 308/308/60 309/309/60
f 310/310/60 311/311/60 312/312/60
f 313/313/61 314/314/61 315/315/61
f 316/316/61 317/317/61 318/318/61
f 319/319/62 320/320/62 321/321/62
f 322/322/62 323/323/62 324/324/62
f 325/325/63 326/326/63 327/327/63
f 328/328/63 329/329/63 330/330/63
f 331/331/64 332/332/64 333/333/64
f 334/334/64 335/335/64 336/336/64
f 337/337/65 338/338/65 339/339/65
f 340/340/65 341/341/65 342/342/65
f 343/343/66 344/344/66 345/345/66
f 346/346/66 347/347/66 348/348/66
f 349/349/67 350/350/67 351/351/67
f 352/352/67 353/353/67 354/354/67
f 355/355/68 356/356/68 357/357/68
f 358/358/68 359/359/68 360/360/68
f 361/361/69 362/362/69 363/363/69
f 364/364/69 365/365/69 366/366/69
f 367/367/70 368/368/70 369/369/70
f 370/370/70 371/371/70 372/372/70
f 373/373/71 374/374/71 375/375/71
f 376/376/72 377/377/72 378/378/72
f 379/379/73 380/380/73 381/381/73
f 382/382/74 383/383/74 384/384/74
f 385/385/75 386/386/75 387/387/75
f 388/388/76 389/389/76 390/390/76
f 391/391/77 392/392/77 393/393/77
f 394/394/78 395/395/78 396/396/78
o lamp_l
v -0.800000 1.700000 0.107143
v -0.741221 1.700000 0.086680
v -0.704894 1.700000 0.033109
v -0.704894 1.700000 -0.033109
v -0.741221 1.700000 -0.086681
v -0.800000 1.700000 -0.107143
v -0.858779 1.700000 -0.086681
v -0.895106 1.700000 -0.033109
v -0.895106 1.700000 0.033109
v -0.858779 1.700000 0.086680
v -0.800000 1.700000 0.107143
v -0.800000 1.500000 0.107143
v -0.741221 1.500000 0.086680
v -0.704894 1.500000 0.033109
v -0.704894 1.500000 -0.033109
v -0.741221 1.500000 -0.086681
v -0.800000 1.500000 -0.107143
v -0.858779 1.500000 -0.086681
v -0.895106 1.500000 -0.033109
v -0.895106 1.500000 0.033109
v -0.858779 1.500000 0.086680
v -0.800000 1.500000 0.107143
v -0.800000 1.700000 -0.000000
v -0.800000 1.700000 -0.000000
v -0.800000 1.700000 -0.000000
v -0.800000 1.700000 -0.000000
v -0.800000 1.700000 -0.000000
v -0.800000 1.700000 -0.000000
v -0.800000 1.700000 -0.000000
v -0.800000 1.700000 -0.000000
v -0.800000 1.700000 -0.000000
v -0.800000 1.700000 -0.000000
v -0.800000 1.700000 0.107143
v -0.741221 1.700000 0.086680
v -0.704894 1.700000 0.033109
v -0.704894 1.700000 -0.033109
v -0.741221 1.700000 -0.086681
v -0.800000 1.700000 -0.107143
v -0.858779 1.700000 -0.086681
v -0.895106 1.700000 -0.033109
v -0.895106 1.700000 0.033109
v -0.858779 1.700000 0.086680
v -0.800000 1.700000 0.107143
v -0.800000 1.500000 -0.000000
v -0.800000 1.500000 -0.000000
v -0.800000 1.500000 -0.000000
v -0.800000 1.500000 -0.000000
v -0.800000 1.500000 -0.000000
v -0.800000 1.500000 -0.000000
v -0.800000 1.500000 -0.000000
v -0.800000 1.500000 -0.000000
v -0.800000 1.500000 -0.000000
v -0.800000 1.500000 -0.000000
v -0.800000 1.500000 0.107143
v -0.741221 1.500000 0.086680
v -0.704894 1.500000 0.033109
v -0.704894 1.500000 -0.033109
v -0.741221 1.500000 -0.086681
v -0.800000 1.500000 -0.107143
v -0.858779 1.500000 -0.086681
v -0.895106 1.500000 -0.033109
v -0.895106 1.500000 0.033109
v -0.858779 1.500000 0.086680
v -0.800000 1.500000 0.107143
vn 0.0001 -0.0000 1.0000
vn 0.6142 -0.0000 0.7891
vn 0.6143 -0.0000 0.7891
vn 0.9569 -0.0000 0.2903
vn 0.9570 -0.0000 0.2902
vn 0.9570 -0.0000 -0.2902
vn 0.9569 -0.0000 -0.2903
vn 0.6143 -0.0000 -0.7891
vn 0.6142 -0.0000 -0.7891
vn 0.0001 -0.0000 -1.0000
vn -0.0001 -0.0000 -1.0000
vn -0.6142 -0.0000 -0.7891
vn -0.6143 -0.0000 -0.7891
vn -0.9569 -0.0000 -0.2903
vn -0.9570 -0.0000 -0.2902
vn -0.9570 -0.0000 0.2902
vn -0.9569 -0.0000 0.2903
vn -0.6143 -0.0000 0.7891
vn -0.6142 -0.0000 0.7891
vn -0.0001 -0.0000 1.0000
vn -0.0000 1.0000 -0.0000
vn -0.0000 -1.0000 -0.0000
vt 0.851308 0.662688
vt 0.851308 0.680925
vt 0.846860 0.662688
vt 0.846860 0.680925
vt 0.701512 0.627380
vt 0.701512 0.609143
vt 0.706397 0.627380
vt 0.706397 0.609143
vt 0.712435 0.627380
vt 0.712435 0.609143
vt 0.717320 0.627380
vt 0.717320 0.609143
vt 0.825929 0.805156
vt 0.825929 0.823393
vt 0.821481 0.805156
vt 0.821481 0.823393
vt 0.815806 0.805156
vt 0.815806 0.823393
vt 0.238021 0.776544
vt 0.238021 0.794781
vt 0.233136 0.776544
vt 0.233136 0.794781
vt 0.227098 0.776544
vt 0.227098 0.794781
vt 0.222213 0.776544
vt 0.222213 0.794781
vt 0.849728 0.614124
vt 0.849728 0.632361
vt 0.844052 0.614124
vt 0.844052 0.632361
vt 0.879829 0.700436
vt 0.885504 0.700436
vt 0.883041 0.709662
vt 0.852417 0.893982
vt 0.858319 0.893982
vt 0.855951 0.902854
vt 0.891605 0.812353
vt 0.885903 0.814338
vt 0.885903 0.805156
vt 0.903476 0.228552
vt 0.897574 0.228552
vt 0.901108 0.219680
vt 0.460021 0.881070
vt 0.454345 0.881070
vt 0.457558 0.871843
vt 0.720969 0.867611
vt 0.715609 0.865745
vt 0.720969 0.857841
vt 0.892516 0.021921
vt 0.886813 0.023443
vt 0.886813 0.014261
vt 0.906211 0.187686
vt 0.900173 0.187686
vt 0.903192 0.179014
vt 0.572300 0.883329
vt 0.578003 0.884852
vt 0.572300 0.892512
vt 0.752902 0.866611
vt 0.758261 0.864745
vt 0.758261 0.874515
vt 0.533058 0.873949
vt 0.538733 0.873949
vt 0.535521 0.883176
vt 0.897574 0.257073
vt 0.903476 0.257073
vt 0.899943 0.265945
vt 0.886841 0.855723
vt 0.892543 0.853737
vt 0.892543 0.862920
vt 0.903476 0.303339
vt 0.897574 0.303339
vt 0.899943 0.294467
vt 0.885700 0.749285
vt 0.880025 0.749285
vt 0.882488 0.740058
vt 0.880988 0.499806
vt 0.875505 0.498342
vt 0.880988 0.490256
vt 0.424493 0.894763
vt 0.418791 0.893241
vt 0.424493 0.885581
vt 0.683002 0.907633
vt 0.676964 0.907633
vt 0.679983 0.898960
vt 0.331884 0.887326
vt 0.337586 0.885804
vt 0.337586 0.894986
vt 0.875505 0.529791
vt 0.880988 0.528327
vt 0.880988 0.537877
s 0
usemtl barrier
f 397/397/79 408/398/79 398/399/80
f 408/398/79 409/400/80 398/399/80
f 398/401/81 409/402/81 399/403/82
f 409/402/81 410/404/82 399/403/82
f 399/403/83 410/404/83 400/405/84
f 410/404/83 411/406/84 400/405/84
f 400/405/85 411/406/85 401/407/86
f 411/406/85 412/408/86 401/407/86
f 401/409/87 412/410/87 402/411/88
f 412/410/87 413/412/88 402/411/88
f 402/411/89 413/412/89 403/413/90
f 413/412/89 414/414/90 403/413/90
f 403/415/91 414/416/91 404/417/92
f 414/416/91 415/418/92 404/417/92
f 404/417/93 415/418/93 405/419/94
f 415/418/93 416/420/94 405/419/94
f 405/419/95 416/420/95 406/421/96
f 416/420/95 417/422/96 406/421/96
f 406/423/97 417/424/97 407/425/98
f 417/424/97 418/426/98 407/425/98
f 429/427/99 430/428/99 419/429/99
f 430/430/99 431/431/99 420/432/99
f 431/433/99 432/434/99 421/435/99
f 432/436/99 433/437/99 422/438/99
f 433/439/99 434/440/99 423/441/99
f 434/442/99 435/443/99 424/444/99
f 435/445/99 436/446/99 425/447/99
f 436/448/99 437/449/99 426/450/99
f 437/451/99 438/452/99 427/453/99
f 438/454/99 439/455/99 428/456/99
f 451/457/100 450/458/100 440/459/100
f 452/460/100 451/461/100 441/462/100
f 453/463/100 452/464/100 442/465/100
f 454/466/100 453/467/100 443/468/100
f 455/469/100 454/470/100 444/471/100
f 456/472/100 455/473/100 445/474/100
f 457/475/100 456/476/100 446/477/100
f 458/478/100 457/479/100 447/480/100
f 459/481/100 458/482/100 448/483/100
f 460/484/100 459/485/100 449/486/100
o lamp_r
v 0.800000 1.700000 0.107143
v 0.858779 1.700000 0.086680
v 0.895106 1.700000 0.033109
v 0.895106 1.700000 -0.033109
v 0.858779 1.700000 -0.086681
v 0.800000 1.700000 -0.107143
v 0.741221 1.700000 -0.086681
v 0.704894 1.700000 -0.033109
v 0.704894 1.700000 0.033109
v 0.741221 1.700000 0.086680
v 0.800000 1.700000 0.107143
v 0.800000 1.500000 0.107143
v 0.858779 1.500000 0.086680
v 0.895106 1.500000 0.033109
v 0.895106 1.500000 -0.033109
v 0.858779 1.500000 -0.086681
v 0.800000 1.500000 -0.107143
v 0.741221 1.500000 -0.086681
v 0.704894 1.500000 -0.033109
v 0.704894 1.500000 0.033109
v 0.741221 1.500000 0.086680
v 0.800000 1.500000 0.107143
v 0.800000 1.700000 -0.000000
v 0.800000 1.700000 -0.000000
v 0.800000 1.700000 -0.000000
v 0.800000 1.700000 -0.000000
v 0.800000 1.700000 -0.000000
v 0.800000 1.700000 -0.000000
v 0.800000 1.700000 -0.000000
v 0.800000 1.700000 -0.000000
v 0.800000 1.700000 -0.000000
v 0.800000 1.700000 -0.000000
v 0.800000 1.700000 0.107143
v 0.858779 1.700000 0.086680
v 0.895106 1.700000 0.033109
v 0.895106 1.700000 -0.033109
v 0.858779 1.700000 -0.086681
v 0.800000 1.700000 -0.107143
v 0.741221 1.700000 -0.086681
v 0.704894 1.700000 -0.033109
v 0.704894 1.700000 0.033109
v 0.741221 1.700000 0.086680
v 0.800000 1.700000 0.107143
v 0.800000 1.500000 -0.000000
v 0.800000 1.500000 -0.000000
v 0.800000 1.500000 -0.000000
v 0.800000 1.500000 -0.000000
v 0.800000 1.500000 -0.000000
v 0.800000 1.500000 -0.000000
v 0.800000 1.500000 -0.000000
v 0.800000 1.500000 -0.000000
v 0.800000 1.500000 -0.000000
v 0.800000 1.500000 -0.000000
v 0.800000 1.500000 0.107143
v 0.858779 1.500000 0.086680
v 0.895106 1.500000 0.033109
v 0.895106 1.500000 -0.033109
v 0.858779 1.500000 -0.086681
v 0.800000 1.500000 -0.107143
v 0.741221 1.500000 -0.086681
v 0.704894 1.500000 -0.033109
v 0.704894 1.500000 0.033109
v 0.741221 1.500000 0.086680
v 0.800000 1.500000 0.107143
vn 0.0001 -0.0000 1.0000
vn 0.6142 -0.0000 0.7891
vn 0.6143 -0.0000 0.7891
vn 0.9569 -0.0000 0.2903
vn 0.9570 -0.0000 0.2902
vn 0.9570 -0.0000 -0.2902
vn 0.9569 -0.0000 -0.2903
vn 0.6143 -0.0000 -0.7891
vn 0.6142 -0.0000 -0.7891
vn 0.0001 -0.0000 -1.0000
vn -0.0001 -0.0000 -1.0000
vn -0.6142 -0.0000 -0.7891
vn -0.6143 -0.0000 -0.7891
vn -0.9569 -0.0000 -0.2903
vn -0.9570 -0.0000 -0.2902
vn -0.9570 -0.0000 0.2902
vn -0.9569 -0.0000 0.2903
vn -0.6143 -0.0000 0.7891
vn -0.6142 -0.0000 0.7891
vn -0.0001 -0.0000 1.0000
vn -0.0000 1.0000 -0.0000
vn -0.0000 -1.0000 -0.0000
vt 0.851503 0.740058
vt 0.851503 0.758295
vt 0.847055 0.740058
vt 0.847055 0.758295
vt 0.014261 0.796247
vt 0.014261 0.778010
vt 0.019146 0.796247
vt 0.019146 0.778010
vt 0.025184 0.796247
vt 0.025184 0.778010
vt 0.030068 0.796247
vt 0.030068 0.778010
vt 0.687088 0.803620
vt 0.687088 0.821857
vt 0.682639 0.803620
vt 0.682639 0.821857
vt 0.676964 0.803620
vt 0.676964 0.821857
vt 0.470153 0.778010
vt 0.470153 0.796247
vt 0.465268 0.778010
vt 0.465268 0.796247
vt 0.459230 0.778010
vt 0.459230 0.796247
vt 0.454345 0.778010
vt 0.454345 0.796247
vt 0.274445 0.831364
vt 0.274445 0.849601
vt 0.268770 0.831364
vt 0.268770 0.849601
vt 0.875505 0.567862
vt 0.880988 0.566398
vt 0.880988 0.575948
vt 0.152054 0.887721
vt 0.157756 0.886199
vt 0.157756 0.895381
vt 0.613194 0.908694
vt 0.607156 0.908694
vt 0.610175 0.900021
vt 0.192470 0.895381
vt 0.186767 0.893859
vt 0.192470 0.886199
vt 0.019744 0.881393
vt 0.014261 0.879929
vt 0.019744 0.871843
vt 0.227889 0.886582
vt 0.222213 0.886582
vt 0.224677 0.877356
vt 0.903476 0.340732
vt 0.897574 0.340732
vt 0.899943 0.331860
vt 0.384077 0.888184
vt 0.389779 0.886199
vt 0.389779 0.895381
vt 0.715609 0.896132
vt 0.721511 0.896132
vt 0.717977 0.905004
vt 0.878249 0.614124
vt 0.883924 0.614124
vt 0.880712 0.623351
vt 0.875486 0.399610
vt 0.880845 0.397744
vt 0.880845 0.407514
vt 0.497672 0.887645
vt 0.503375 0.889167
vt 0.497672 0.896827
vt 0.648098 0.908861
vt 0.642060 0.908861
vt 0.645079 0.900189
vt 0.898313 0.092387
vt 0.892610 0.093910
vt 0.892610 0.084727
vt 0.880864 0.461735
vt 0.875505 0.459869
vt 0.880864 0.451965
vt 0.885505 0.671914
vt 0.879829 0.671914
vt 0.883041 0.662688
vt 0.095442 0.905329
vt 0.089540 0.905329
vt 0.093074 0.896457
vt 0.892543 0.898639
vt 0.886841 0.900624
vt 0.886841 0.891441
vt 0.900173 0.141621
vt 0.906075 0.141621
vt 0.903707 0.150493
vt 0.268770 0.878122
vt 0.274445 0.878122
vt 0.271982 0.887349
s 0
usemtl barrier
f 461/487/101 472/488/101 462/489/102
f 472/488/101 473/490/102 462/489/102
f 462/491/103 473/492/103 463/493/104
f 473/492/103 474/494/104 463/493/104
f 463/493/105 474/494/105 464/495/106
f 474/494/105 475/496/106 464/495/106
f 464/495/107 475/496/107 465/497/108
f 475/496/107 476/498/108 465/497/108
f 465/499/109 476/500/109 466/501/110
f 476/500/109 477/502/110 466/501/110
f 466/501/111 477/502/111 467/503/112
f 477/502/111 478/504/112 467/503/112
f 467/505/113 478/506/113 468/507/114
f 478/506/113 479/508/114 468/507/114
f 468/507/115 479/508/115 469/509/116
f 479/508/115 480/510/116 469/509/116
f 469/509/117 480/510/117 470/511/118
f 480/510/117 481/512/118 470/511/118
f 470/513/119 481/514/119 471/515/120
f 481/514/119 482/516/120 471/515/120
f 493/517/121 494/518/121 483/519/121
f 494/520/121 495/521/121 484/522/121
f 495/523/121 496/524/121 485/525/121
f 496/526/121 497/527/121 486/528/121
f 497/529/121 498/530/121 487/531/121
f 498/532/121 499/533/121 488/534/121
f 499/535/121 500/536/121 489/537/121
f 500/538/121 501/539/121 490/540/121
f 501/541/121 502/542/121 491/543/121
f 502/544/121 503/545/121 492/546/121
f 515/547/122 514/548/122 504/549/122
f 516/550/122 515/551/122 505/552/122
f 517/553/122 516/554/122 506/555/122
f 518/556/122 517/557/122 507/558/122
f 519/559/122 518/560/122 508/561/122
f 520/562/122 519/563/122 509/564/122
f 521/565/122 520/566/122 510/567/122
f 522/568/122 521/569/122 511/570/122
f 523/571/122 522/572/122 512/573/122
f 524/574/122 523/575/122 513/576/122
o leg_l
v -0.875000 0.110000 -0.048214
v -0.875000 1.250000 0.048214
v -0.875000 1.250000 -0.048214
v -0.875000 0.110000 -0.048214
v -0.875000 0.110000 0.048214
v -0.875000 1.250000 0.048214
v -0.725000 0.110000 -0.048214
v -0.725000 1.250000 -0.048214
v -0.725000 1.250000 0.048214
v -0.725000 0.110000 -0.048214
v -0.725000 1.250000 0.048214
v -0.725000 0.110000 0.048214
v -0.845000 0.080000 -0.048214
v -0.755000 0.080000 -0.048214
v -0.755000 0.080000 0.048214
v -0.845000 0.080000 -0.048214
v -0.755000 0.080000 0.048214
v -0.845000 0.080000 0.048214
v -0.845000 1.280000 -0.048214
v -0.755000 1.280000 0.048214
v -0.755000 1.280000 -0.048214
v -0.845000 1.280000 -0.048214
v -0.845000 1.280000 0.048214
v -0.755000 1.280000 0.048214
v -0.845000 0.110000 -0.080357
v -0.755000 1.250000 -0.080357
v -0.755000 0.110000 -0.080357
v -0.845000 0.110000 -0.080357
v -0.845000 1.250000 -0.080357
v -0.755000 1.250000 -0.080357
v -0.845000 0.110000 0.080357
v -0.755000 0.110000 0.080357
v -0.755000 1.250000 0.080357
v -0.845000 0.110000 0.080357
v -0.755000 1.250000 0.080357
v -0.845000 1.250000 0.080357
v -0.875000 0.110000 -0.048214
v -0.845000 0.080000 -0.048214
v -0.845000 0.080000 0.048214
v -0.875000 0.110000 -0.048214
v -0.845000 0.080000 0.048214
v -0.875000 0.110000 0.048214
v -0.875000 1.250000 -0.048214
v -0.845000 1.280000 0.048214
v -0.845000 1.280000 -0.048214
v -0.875000 1.250000 -0.048214
v -0.875000 1.250000 0.048214
v -0.845000 1.280000 0.048214
v -0.725000 0.110000 -0.048214
v -0.755000 0.080000 0.048214
v -0.755000 0.080000 -0.048214
v -0.725000 0.110000 -0.048214
v -0.725000 0.110000 0.048214
v -0.755000 0.080000 0.048214
v -0.725000 1.250000 -0.048214
v -0.755000 1.280000 -0.048214
v -0.755000 1.280000 0.048214
v -0.725000 1.250000 -0.048214
v -0.755000 1.280000 0.048214
v -0.725000 1.250000 0.048214
v -0.875000 0.110000 -0.048214
v -0.845000 1.250000 -0.080357
v -0.845000 0.110000 -0.080357
v -0.875000 0.110000 -0.048214
v -0.875000 1.250000 -0.048214
v -0.845000 1.250000 -0.080357
v -0.875000 0.110000 0.048214
v -0.845000 0.110000 0.080357
v -0.845000 1.250000 0.080357
v -0.875000 0.110000 0.048214
v -0.845000 1.250000 0.080357
v -0.875000 1.250000 0.048214
v -0.725000 0.110000 -0.048214
v -0.755000 0.110000 -0.080357
v -0.755000 1.250000 -0.080357
v -0.725000 0.110000 -0.048214
v -0.755000 1.250000 -0.080357
v -0.725000 1.250000 -0.048214
v -0.725000 0.110000 0.048214
v -0.755000 1.250000 0.080357
v -0.755000 0.110000 0.080357
v -0.725000 0.110000 0.048214
v -0.725000 1.250000 0.048214
v -0.755000 1.250000 0.080357
v -0.845000 0.080000 -0.048214
v -0.845000 0.110000 -0.080357
v -0.755000 0.110000 -0.080357
v -0.845000 0.080000 -0.048214
v -0.755000 0.110000 -0.080357
v -0.755000 0.080000 -0.048214
v -0.845000 0.080000 0.048214
v -0.755000 0.110000 0.080357
v -0.845000 0.110000 0.080357
v -0.845000 0.080000 0.048214
v -0.755000 0.080000 0.048214
v -0.755000 0.110000 0.080357
v -0.845000 1.280000 -0.048214
v -0.755000 1.250000 -0.080357
v -0.845000 1.250000 -0.080357
v -0.845000 1.280000 -0.048214
v -0.755000 1.280000 -0.048214
v -0.755000 1.250000 -0.080357
v -0.845000 1.280000 0.048214
v -0.845000 1.250000 0.080357
v -0.755000 1.250000 0.080357
v -0.845000 1.280000 0.048214
v -0.755000 1.250000 0.080357
v -0.755000 1.280000 0.048214
v -0.875000 0.110000 -0.048214
v -0.845000 0.110000 -0.080357
v -0.845000 0.080000 -0.048214
v -0.875000 0.110000 0.048214
v -0.845000 0.080000 0.048214
v -0.845000 0.110000 0.080357
v -0.875000 1.250000 -0.048214
v -0.845000 1.280000 -0.048214
v -0.845000 1.250000 -0.080357
v -0.875000 1.250000 0.048214
v -0.845000 1.250000 0.080357
v -0.845000 1.280000 0.048214
v -0.725000 0.110000 -0.048214
v -0.755000 0.080000 -0.048214
v -0.755000 0.110000 -0.080357
v -0.725000 0.110000 0.048214
v -0.755000 0.110000 0.080357
v -0.755000 0.080000 0.048214
v -0.725000 1.250000 -0.048214
v -0.755000 1.250000 -0.080357
v -0.755000 1.280000 -0.048214
v -0.725000 1.250000 0.048214
v -0.755000 1.280000 0.048214
v -0.755000 1.250000 0.080357
vn -1.0000 -0.0000 -0.0000
vn 1.0000 -0.0000 -0.0000
vn -0.0000 -1.0000 -0.0000
vn -0.0000 1.0000 -0.0000
vn -0.0000 -0.0000 -1.0000
vn -0.0000 -0.0000 1.0000
vn -0.7071 -0.7071 -0.0000
vn -0.7071 0.7071 -0.0000
vn 0.7071 -0.7071 -0.0000
vn 0.7071 0.7071 -0.0000
vn -0.7311 -0.0000 -0.6823
vn -0.7311 -0.0000 0.6823
vn 0.7311 -0.0000 -0.6823
vn 0.7311 -0.0000 0.6823
vn -0.0000 -0.7311 -0.6823
vn -0.0000 -0.7311 0.6823
vn -0.0000 0.7311 -0.6823
vn -0.0000 0.7311 0.6823
vn -0.5902 -0.5902 -0.5508
vn -0.5902 -0.5902 0.5508
vn -0.5902 0.5902 -0.5508
vn -0.5902 0.5902 0.5508
vn 0.5902 -0.5902 -0.5508
vn 0.5902 -0.5902 0.5508
vn 0.5902 0.5902 -0.5508
vn 0.5902 0.5902 0.5508
vt 0.305498 0.374224
vt 0.314291 0.478174
vt 0.305498 0.478174
vt 0.509877 0.501695
vt 0.501084 0.501695
vt 0.501084 0.397744
vt 0.089540 0.529050
vt 0.089540 0.425100
vt 0.098333 0.425100
vt 0.023053 0.397744
vt 0.014261 0.501695
vt 0.014261 0.397744
vt 0.815806 0.908702
vt 0.815806 0.900496
vt 0.822234 0.900496
vt 0.759330 0.903036
vt 0.752901 0.911242
vt 0.752901 0.903036
vt 0.701512 0.361016
vt 0.707940 0.369223
vt 0.701512 0.369223
vt 0.742890 0.369223
vt 0.736462 0.369223
vt 0.736462 0.361016
vt 0.209689 0.425100
vt 0.201482 0.529050
vt 0.201482 0.425100
vt 0.395055 0.425100
vt 0.395055 0.529050
vt 0.386849 0.529050
vt 0.471923 0.685257
vt 0.463770 0.684313
vt 0.471923 0.613856
vt 0.538399 0.680941
vt 0.538399 0.609541
vt 0.546551 0.610484
vt 0.154666 0.933111
vt 0.152054 0.932298
vt 0.154666 0.923903
vt 0.386813 0.932695
vt 0.384077 0.923903
vt 0.386813 0.923903
vt 0.934597 0.150414
vt 0.937332 0.141621
vt 0.937332 0.150414
vt 0.934732 0.187807
vt 0.934732 0.179014
vt 0.937468 0.179014
vt 0.497672 0.934141
vt 0.500408 0.925348
vt 0.500408 0.934141
vt 0.931998 0.228473
vt 0.931998 0.219680
vt 0.934733 0.219680
vt 0.889576 0.937938
vt 0.886841 0.937938
vt 0.886841 0.929145
vt 0.923800 0.938613
vt 0.921064 0.929820
vt 0.923800 0.929820
vt 0.303153 0.557959
vt 0.300222 0.661910
vt 0.300222 0.557959
vt 0.607156 0.501695
vt 0.607156 0.397744
vt 0.610087 0.397744
vt 0.663229 0.323631
vt 0.660298 0.323631
vt 0.660298 0.219680
vt 0.614633 0.014261
vt 0.617564 0.118211
vt 0.614633 0.118211
vt 0.631777 0.323631
vt 0.628846 0.323631
vt 0.628846 0.219680
vt 0.670060 0.397744
vt 0.672991 0.501695
vt 0.670060 0.501695
vt 0.610087 0.530216
vt 0.607156 0.634166
vt 0.607156 0.530216
vt 0.586112 0.118252
vt 0.583182 0.014343
vt 0.586112 0.014261
vt 0.943501 0.538708
vt 0.940766 0.538708
vt 0.940766 0.530501
vt 0.940766 0.570746
vt 0.943501 0.578953
vt 0.940766 0.578953
vt 0.458355 0.909591
vt 0.454345 0.917798
vt 0.454345 0.909591
vt 0.914026 0.670894
vt 0.914026 0.662688
vt 0.918035 0.662688
vt 0.943378 0.450011
vt 0.940642 0.458218
vt 0.940642 0.450011
vt 0.815806 0.945430
vt 0.815806 0.937224
vt 0.818542 0.937224
vt 0.918035 0.708642
vt 0.914026 0.708642
vt 0.914026 0.700436
vt 0.014261 0.909914
vt 0.018270 0.918121
vt 0.014261 0.918121
vt 0.981822 0.662688
vt 0.981822 0.665619
vt 0.979087 0.662688
vt 0.975334 0.525401
vt 0.972023 0.525401
vt 0.974282 0.522089
vt 0.048775 0.979356
vt 0.051511 0.979356
vt 0.048775 0.982287
vt 0.963254 0.327462
vt 0.963254 0.323987
vt 0.966411 0.326459
vt 0.979087 0.697592
vt 0.981822 0.697592
vt 0.979087 0.700523
vt 0.972023 0.557234
vt 0.973075 0.553922
vt 0.975334 0.557234
vt 0.016996 0.981025
vt 0.016996 0.983956
vt 0.014261 0.981025
vt 0.890152 0.969771
vt 0.886841 0.969771
vt 0.889100 0.966459
s 0
usemtl barrier
f 525/577/123 526/578/123 527/579/123
f 528/580/123 529/581/123 530/582/123
f 531/583/124 532/584/124 533/585/124
f 534/586/124 535/587/124 536/588/124
f 537/589/125 538/590/125 539/591/125
f 540/592/125 541/593/125 542/594/125
f 543/595/126 544/596/126 545/597/126
f 546/598/126 547/599/126 548/600/126
f 549/601/127 550/602/127 551/603/127
f 552/604/127 553/605/127 554/606/127
f 555/607/128 556/608/128 557/609/128
f 558/610/128 559/611/128 560/612/128
f 561/613/129 562/614/129 563/615/129
f 564/616/129 565/617/129 566/618/129
f 567/619/130 568/620/130 569/621/130
f 570/622/130 571/623/130 572/624/130
f 573/625/131 574/626/131 575/627/131
f 576/628/131 577/629/131 578/630/131
f 579/631/132 580/632/132 581/633/132
f 582/634/132 583/635/132 584/636/132
f 585/637/133 586/638/133 587/639/133
f 588/640/133 589/641/133 590/642/133
f 591/643/134 592/644/134 593/645/134
f 594/646/134 595/647/134 596/648/134
f 597/649/135 598/650/135 599/651/135
f 600/652/135 601/653/135 602/654/135
f 603/655/136 604/656/136 605/657/136
f 606/658/136 607/659/136 608/660/136
f 609/661/137 610/662/137 611/663/137
f 612/664/137 613/665/137 614/666/137
f 615/667/138 616/668/138 617/669/138
f 618/670/138 619/671/138 620/672/138
f 621/673/139 622/674/139 623/675/139
f 624/676/139 625/677/139 626/678/139
f 627/679/140 628/680/140 629/681/140
f 630/682/140 631/683/140 632/684/140
f 633/685/141 634/686/141 635/687/141
f 636/688/142 637/689/142 638/690/142
f 639/691/143 640/692/143 641/693/143
f 642/694/144 643/695/144 644/696/144
f 645/697/145 646/698/145 647/699/145
f 648/700/146 649/701/146 650/702/146
f 651/703/147 652/704/147 653/705/147
f 654/706/148 655/707/148 656/708/148
o leg_r
v 0.725000 0.110000 -0.048214
v 0.725000 1.250000 0.048214
v 0.725000 1.250000 -0.048214
v 0.725000 0.110000 -0.048214
v 0.725000 0.110000 0.048214
v 0.725000 1.250000 0.048214
v 0.875000 0.110000 -0.048214
v 0.875000 1.250000 -0.048214
v 0.875000 1.250000 0.048214
v 0.875000 0.110000 -0.048214
v 0.875000 1.250000 0.048214
v 0.875000 0.110000 0.048214
v 0.755000 0.080000 -0.048214
v 0.845000 0.080000 -0.048214
v 0.845000 0.080000 0.048214
v 0.755000 0.080000 -0.048214
v 0.845000 0.080000 0.048214
v 0.755000 0.080000 0.048214
v 0.755000 1.280000 -0.048214
v 0.845000 1.280000 0.048214
v 0.845000 1.280000 -0.048214
v 0.755000 1.280000 -0.048214
v 0.755000 1.280000 0.048214
v 0.845000 1.280000 0.048214
v 0.755000 0.110000 -0.080357
v 0.845000 1.250000 -0.080357
v 0.845000 0.110000 -0.080357
v 0.755000 0.110000 -0.080357
v 0.755000 1.250000 -0.080357
v 0.845000 1.250000 -0.080357
v 0.755000 0.110000 0.080357
v 0.845000 0.110000 0.080357
v 0.845000 1.250000 0.080357
v 0.755000 0.110000 0.080357
v 0.845000 1.250000 0.080357
v 0.755000 1.250000 0.080357
v 0.725000 0.110000 -0.048214
v 0.755000 0.080000 -0.048214
v 0.755000 0.080000 0.048214
v 0.725000 0.110000 -0.048214
v 0.755000 0.080000 0.048214
v 0.725000 0.110000 0.048214
v 0.725000 1.250000 -0.048214
v 0.755000 1.280000 0.048214
v 0.755000 1.280000 -0.048214
v 0.725000 1.250000 -0.048214
v 0.725000 1.250000 0.048214
v 0.755000 1.280000 0.048214
v 0.875000 0.110000 -0.048214
v 0.845000 0.080000 0.048214
v 0.845000 0.080000 -0.048214
v 0.875000 0.110000 -0.048214
v 0.875000 0.110000 0.048214
v 0.845000 0.080000 0.048214
v 0.875000 1.250000 -0.048214
v 0.845000 1.280000 -0.048214
v 0.845000 1.280000 0.048214
v 0.875000 1.250000 -0.048214
v 0.845000 1.280000 0.048214
v 0.875000 1.250000 0.048214
v 0.725000 0.110000 -0.048214
v 0.755000 1.250000 -0.080357
v 0.755000 0.110000 -0.080357
v 0.725000 0.110000 -0.048214
v 0.725000 1.250000 -0.048214
v 0.755000 1.250000 -0.080357
v 0.725000 0.110000 0.048214
v 0.755000 0.110000 0.080357
v 0.755000 1.250000 0.080357
v 0.725000 0.110000 0.048214
v 0.755000 1.250000 0.080357
v 0.725000 1.250000 0.048214
v 0.875000 0.110000 -0.048214
v 0.845000 0.110000 -0.080357
v 0.845000 1.250000 -0.080357
v 0.875000 0.110000 -0.048214
v 0.845000 1.250000 -0.080357
v 0.875000 1.250000 -0.048214
v 0.875000 0.110000 0.048214
v 0.845000 1.250000 0.080357
v 0.845000 0.110000 0.080357
v 0.875000 0.110000 0.048214
v 0.875000 1.250000 0.048214
v 0.845000 1.250000 0.080357
v 0.755000 0.080000 -0.048214
v 0.755000 0.110000 -0.080357
v 0.845000 0.110000 -0.080357
v 0.755000 0.080000 -0.048214
v 0.845000 0.110000 -0.080357
v 0.845000 0.080000 -0.048214
v 0.755000 0.080000 0.048214
v 0.845000 0.110000 0.080357
v 0.755000 0.110000 0.080357
v 0.755000 0.080000 0.048214
v 0.845000 0.080000 0.048214
v 0.845000 0.110000 0.080357
v 0.755000 1.280000 -0.048214
v 0.845000 1.250000 -0.080357
v 0.755000 1.250000 -0.080357
v 0.755000 1.280000 -0.048214
v 0.845000 1.280000 -0.048214
v 0.845000 1.250000 -0.080357
v 0.755000 1.280000 0.048214
v 0.755000 1.250000 0.080357
v 0.845000 1.250000 0.080357
v 0.755000 1.280000 0.048214
v 0.845000 1.250000 0.080357
v 0.845000 1.280000 0.048214
v 0.725000 0.110000 -0.048214
v 0.755000 0.110000 -0.080357
v 0.755000 0.080000 -0.048214
v 0.725000 0.110000 0.048214
v 0.755000 0.080000 0.048214
v 0.755000 0.110000 0.080357
v 0.725000 1.250000 -0.048214
v 0.755000 1.280000 -0.048214
v 0.755000 1.250000 -0.080357
v 0.725000 1.250000 0.048214
v 0.755000 1.250000 0.080357
v 0.755000 1.280000 0.048214
v 0.875000 0.110000 -0.048214
v 0.845000 0.080000 -0.048214
v 0.845000 0.110000 -0.080357
v 0.875000 0.110000 0.048214
v 0.845000 0.110000 0.080357
v 0.845000 0.080000 0.048214
v 0.875000 1.250000 -0.048214
v 0.845000 1.250000 -0.080357
v 0.845000 1.280000 -0.048214
v 0.875000 1.250000 0.048214
v 0.845000 1.280000 0.048214
v 0.845000 1.250000 0.080357
vn -1.0000 -0.0000 -0.0000
vn 1.0000 -0.0000 -0.0000
vn -0.0000 -1.0000 -0.0000
vn -0.0000 1.0000 -0.0000
vn -0.0000 -0.0000 -1.0000
vn -0.0000 -0.0000 1.0000
vn -0.7071 -0.7071 -0.0000
vn -0.7071 0.7071 -0.0000
vn 0.7071 -0.7071 -0.0000
vn 0.7071 0.7071 -0.0000
vn -0.7311 -0.0000 -0.6823
vn -0.7311 -0.0000 0.6823
vn 0.7311 -0.0000 -0.6823
vn 0.7311 -0.0000 0.6823
vn -0.0000 -0.7311 -0.6823
vn -0.0000 -0.7311 0.6823
vn -0.0000 0.7311 -0.6823
vn -0.0000 0.7311 0.6823
vn -0.5902 -0.5902 -0.5508
vn -0.5902 -0.5902 0.5508
vn -0.5902 0.5902 -0.5508
vn -0.5902 0.5902 0.5508
vn 0.5902 -0.5902 -0.5508
vn 0.5902 -0.5902 0.5508
vn 0.5902 0.5902 -0.5508
vn 0.5902 0.5902 0.5508
vt 0.051900 0.397744
vt 0.060693 0.501695
vt 0.051900 0.501695
vt 0.135647 0.529050
vt 0.126854 0.529050
vt 0.126854 0.425100
vt 0.164168 0.529050
vt 0.164168 0.425100
vt 0.172961 0.425100
vt 0.472563 0.397744
vt 0.463770 0.501695
vt 0.463770 0.397744
vt 0.909366 0.405951
vt 0.909366 0.397744
vt 0.915795 0.397744
vt 0.563012 0.364369
vt 0.563012 0.353944
vt 0.568072 0.360405
vt 0.771411 0.361016
vt 0.777839 0.369223
vt 0.771411 0.369223
vt 0.531344 0.362576
vt 0.526284 0.358613
vt 0.531344 0.352152
vt 0.276977 0.425488
vt 0.268770 0.529438
vt 0.268770 0.425488
vt 0.534491 0.219680
vt 0.534491 0.323631
vt 0.526284 0.323631
vt 0.022413 0.685257
vt 0.014261 0.684313
vt 0.022413 0.613856
vt 0.050934 0.685257
vt 0.050934 0.613856
vt 0.059086 0.614799
vt 0.185799 0.933111
vt 0.183187 0.932298
vt 0.185799 0.923903
vt 0.934733 0.265866
vt 0.931998 0.257073
vt 0.934733 0.257073
vt 0.852417 0.940168
vt 0.855153 0.931376
vt 0.855153 0.940168
vt 0.715609 0.942318
vt 0.715609 0.933525
vt 0.718344 0.933525
vt 0.931998 0.303259
vt 0.934733 0.294467
vt 0.934733 0.303259
vt 0.931998 0.340653
vt 0.931998 0.331860
vt 0.934733 0.331860
vt 0.092276 0.942643
vt 0.089540 0.942643
vt 0.089540 0.933851
vt 0.123532 0.942643
vt 0.120797 0.933851
vt 0.123532 0.933851
vt 0.672991 0.530216
vt 0.670060 0.634166
vt 0.670060 0.530216
vt 0.638608 0.501695
vt 0.638608 0.397744
vt 0.641539 0.397744
vt 0.680469 0.118211
vt 0.677538 0.118211
vt 0.677538 0.014261
vt 0.638608 0.530216
vt 0.641539 0.634166
vt 0.638608 0.634166
vt 0.649016 0.118211
vt 0.646086 0.118211
vt 0.646086 0.014261
vt 0.691750 0.219680
vt 0.694681 0.323631
vt 0.691750 0.323631
vt 0.271701 0.557959
vt 0.268770 0.661910
vt 0.268770 0.557959
vt 0.600325 0.323672
vt 0.597395 0.219763
vt 0.600325 0.219680
vt 0.679700 0.944360
vt 0.676964 0.944360
vt 0.676964 0.936154
vt 0.607156 0.937215
vt 0.609891 0.945421
vt 0.607156 0.945421
vt 0.918230 0.740058
vt 0.914221 0.748264
vt 0.914221 0.740058
vt 0.533058 0.919904
vt 0.533058 0.911697
vt 0.537067 0.911697
vt 0.943501 0.490256
vt 0.940766 0.498463
vt 0.940766 0.490256
vt 0.642060 0.945589
vt 0.642060 0.937383
vt 0.644795 0.937383
vt 0.226223 0.923310
vt 0.222213 0.923310
vt 0.222213 0.915103
vt 0.268770 0.915870
vt 0.272779 0.924076
vt 0.268770 0.924076
vt 0.982018 0.740058
vt 0.982018 0.742989
vt 0.979282 0.740058
vt 0.923800 0.970446
vt 0.920488 0.970446
vt 0.922748 0.967134
vt 0.454345 0.981223
vt 0.457081 0.981223
vt 0.454345 0.984154
vt 0.852417 0.972001
vt 0.853469 0.968690
vt 0.855729 0.972001
vt 0.979282 0.771510
vt 0.982018 0.771510
vt 0.979282 0.774441
vt 0.963254 0.293599
vt 0.965990 0.291456
vt 0.965990 0.295466
vt 0.535793 0.982808
vt 0.535793 0.985739
vt 0.533058 0.982808
vt 0.955477 0.968760
vt 0.952321 0.967758
vt 0.955477 0.965286
s 0
usemtl barrier
f 657/709/149 658/710/149 659/711/149
f 660/712/149 661/713/149 662/714/149
f 663/715/150 664/716/150 665/717/150
f 666/718/150 667/719/150 668/720/150
f 669/721/151 670/722/151 671/723/151
f 672/724/151 673/725/151 674/726/151
f 675/727/152 676/728/152 677/729/152
f 678/730/152 679/731/152 680/732/152
f 681/733/153 682/734/153 683/735/153
f 684/736/153 685/737/153 686/738/153
f 687/739/154 688/740/154 689/741/154
f 690/742/154 691/743/154 692/744/154
f 693/745/155 694/746/155 695/747/155
f 696/748/155 697/749/155 698/750/155
f 699/751/156 700/752/156 701/753/156
f 702/754/156 703/755/156 704/756/156
f 705/757/157 706/758/157 707/759/157
f 708/760/157 709/761/157 710/762/157
f 711/763/158 712/764/158 713/765/158
f 714/766/158 715/767/158 716/768/158
f 717/769/159 718/770/159 719/771/159
f 720/772/159 721/773/159 722/774/159
f 723/775/160 724/776/160 725/777/160
f 726/778/160 727/779/160 728/780/160
f 729/781/161 730/782/161 731/783/161
f 732/784/161 733/785/161 734/786/161
f 735/787/162 736/788/162 737/789/162
f 738/790/162 739/791/162 740/792/162
f 741/793/163 742/794/163 743/795/163
f 744/796/163 745/797/163 746/798/163
f 747/799/164 748/800/164 749/801/164
f 750/802/164 751/803/164 752/804/164
f 753/805/165 754/806/165 755/807/165
f 756/808/165 757/809/165 758/810/165
f 759/811/166 760/812/166 761/813/166
f 762/814/166 763/815/166 764/816/166
f 765/817/167 766/818/167 767/819/167
f 768/820/168 769/821/168 770/822/168
f 771/823/169 772/824/169 773/825/169
f 774/826/170 775/827/170 776/828/170
f 777/829/171 778/830/171 779/831/171
f 780/832/172 781/833/172 782/834/172
f 783/835/173 784/836/173 785/837/173
f 786/838/174 787/839/174 788/840/174
o rail_low
v -0.850000 0.810000 -0.032143
v -0.850000 0.910000 0.032143
v -0.850000 0.910000 -0.032143
v -0.850000 0.810000 -0.032143
v -0.850000 0.810000 0.032143
v -0.850000 0.910000 0.032143
v 0.850000 0.810000 -0.032143
v 0.850000 0.910000 -0.032143
v 0.850000 0.910000 0.032143
v 0.850000 0.810000 -0.032143
v 0.850000 0.910000 0.032143
v 0.850000 0.810000 0.032143
v -0.820000 0.780000 -0.032143
v 0.820000 0.780000 -0.032143
v 0.820000 0.780000 0.032143
v -0.820000 0.780000 -0.032143
v 0.820000 0.780000 0.032143
v -0.820000 0.780000 0.032143
v -0.820000 0.940000 -0.032143
v 0.820000 0.940000 0.032143
v 0.820000 0.940000 -0.032143
v -0.820000 0.940000 -0.032143
v -0.820000 0.940000 0.032143
v 0.820000 0.940000 0.032143
v -0.820000 0.810000 -0.064286
v 0.820000 0.910000 -0.064286
v 0.820000 0.810000 -0.064286
v -0.820000 0.810000 -0.064286
v -0.820000 0.910000 -0.064286
v 0.820000 0.910000 -0.064286
v -0.820000 0.810000 0.064286
v 0.820000 0.810000 0.064286
v 0.820000 0.910000 0.064286
v -0.820000 0.810000 0.064286
v 0.820000 0.910000 0.064286
v -0.820000 0.910000 0.064286
v -0.850000 0.810000 -0.032143
v -0.820000 0.780000 -0.032143
v -0.820000 0.780000 0.032143
v -0.850000 0.810000 -0.032143
v -0.820000 0.780000 0.032143
v -0.850000 0.810000 0.032143
v -0.850000 0.910000 -0.032143
v -0.820000 0.940000 0.032143
v -0.820000 0.940000 -0.032143
v -0.850000 0.910000 -0.032143
v -0.850000 0.910000 0.032143
v -0.820000 0.940000 0.032143
v 0.850000 0.810000 -0.032143
v 0.820000 0.780000 0.032143
v 0.820000 0.780000 -0.032143
v 0.850000 0.810000 -0.032143
v 0.850000 0.810000 0.032143
v 0.820000 0.780000 0.032143
v 0.850000 0.910000 -0.032143
v 0.820000 0.940000 -0.032143
v 0.820000 0.940000 0.032143
v 0.850000 0.910000 -0.032143
v 0.820000 0.940000 0.032143
v 0.850000 0.910000 0.032143
v -0.850000 0.810000 -0.032143
v -0.820000 0.910000 -0.064286
v -0.820000 0.810000 -0.064286
v -0.850000 0.810000 -0.032143
v -0.850000 0.910000 -0.032143
v -0.820000 0.910000 -0.064286
v -0.850000 0.810000 0.032143
v -0.820000 0.810000 0.064286
v -0.820000 0.910000 0.064286
v -0.850000 0.810000 0.032143
v -0.820000 0.910000 0.064286
v -0.850000 0.910000 0.032143
v 0.850000 0.810000 -0.032143
v 0.820000 0.810000 -0.064286
v 0.820000 0.910000 -0.064286
v 0.850000 0.810000 -0.032143
v 0.820000 0.910000 -0.064286
v 0.850000 0.910000 -0.032143
v 0.850000 0.810000 0.032143
v 0.820000 0.910000 0.064286
v 0.820000 0.810000 0.064286
v 0.850000 0.810000 0.032143
v 0.850000 0.910000 0.032143
v 0.820000 0.910000 0.064286
v -0.820000 0.780000 -0.032143
v -0.820000 0.810000 -0.064286
v 0.820000 0.810000 -0.064286
v -0.820000 0.780000 -0.032143
v 0.820000 0.810000 -0.064286
v 0.820000 0.780000 -0.032143
v -0.820000 0.780000 0.032143
v 0.820000 0.810000 0.064286
v -0.820000 0.810000 0.064286
v -0.820000 0.780000 0.032143
v 0.820000 0.780000 0.032143
v 0.820000 0.810000 0.064286
v -0.820000 0.940000 -0.032143
v 0.820000 0.910000 -0.064286
v -0.820000 0.910000 -0.064286
v -0.820000 0.940000 -0.032143
v 0.820000 0.940000 -0.032143
v 0.820000 0.910000 -0.064286
v -0.820000 0.940000 0.032143
v -0.820000 0.910000 0.064286
v 0.820000 0.910000 0.064286
v -0.820000 0.940000 0.032143
v 0.820000 0.910000 0.064286
v 0.820000 0.940000 0.032143
v -0.850000 0.810000 -0.032143
v -0.820000 0.810000 -0.064286
v -0.820000 0.780000 -0.032143
v -0.850000 0.810000 0.032143
v -0.820000 0.780000 0.032143
v -0.820000 0.810000 0.064286
v -0.850000 0.910000 -0.032143
v -0.820000 0.940000 -0.032143
v -0.820000 0.910000 -0.064286
v -0.850000 0.910000 0.032143
v -0.820000 0.910000 0.064286
v -0.820000 0.940000 0.032143
v 0.850000 0.810000 -0.032143
v 0.820000 0.780000 -0.032143
v 0.820000 0.810000 -0.064286
v 0.850000 0.810000 0.032143
v 0.820000 0.810000 0.064286
v 0.820000 0.780000 0.032143
v 0.850000 0.910000 -0.032143
v 0.820000 0.910000 -0.064286
v 0.820000 0.940000 -0.032143
v 0.850000 0.910000 0.032143
v 0.820000 0.940000 0.032143
v 0.820000 0.910000 0.064286
vn -1.0000 -0.0000 -0.0000
vn 1.0000 -0.0000 -0.0000
vn -0.0000 -1.0000 -0.0000
vn -0.0000 1.0000 -0.0000
vn -0.0000 -0.0000 -1.0000
vn -0.0000 -0.0000 1.0000
vn -0.7071 -0.7071 -0.0000
vn -0.7071 0.7071 -0.0000
vn 0.7071 -0.7071 -0.0000
vn 0.7071 0.7071 -0.0000
vn -0.7311 -0.0000 -0.6823
vn -0.7311 -0.0000 0.6823
vn 0.7311 -0.0000 -0.6823
vn 0.7311 -0.0000 0.6823
vn -0.0000 -0.7311 -0.6823
vn -0.0000 -0.7311 0.6823
vn -0.0000 0.7311 -0.6823
vn -0.0000 0.7311 0.6823
vn -0.5902 -0.5902 -0.5508
vn -0.5902 -0.5902 0.5508
vn -0.5902 0.5902 -0.5508
vn -0.5902 0.5902 0.5508
vn 0.5902 -0.5902 -0.5508
vn 0.5902 -0.5902 0.5508
vn 0.5902 0.5902 -0.5508
vn 0.5902 0.5902 0.5508
vt 0.305498 0.517535
vt 0.305498 0.506695
vt 0.310429 0.509865
vt 0.054637 0.880962
vt 0.048775 0.880962
vt 0.048775 0.871843
vt 0.916783 0.622838
vt 0.912445 0.618067
vt 0.916783 0.614124
vt 0.054637 0.909483
vt 0.048775 0.915931
vt 0.048775 0.909483
vt 0.544251 0.503649
vt 0.538398 0.398069
vt 0.544251 0.397744
vt 0.554661 0.014261
vt 0.548799 0.120003
vt 0.548799 0.014261
vt 0.563012 0.219680
vt 0.568874 0.325423
vt 0.563012 0.325423
vt 0.578635 0.503487
vt 0.572773 0.503487
vt 0.572773 0.397744
vt 0.014261 0.219680
vt 0.023379 0.369223
vt 0.014261 0.369223
vt 0.363798 0.163803
vt 0.354680 0.163803
vt 0.354680 0.014261
vt 0.354680 0.341868
vt 0.354680 0.192325
vt 0.363798 0.192325
vt 0.061019 0.219680
vt 0.051900 0.369223
vt 0.051900 0.219680
vt 0.965990 0.225542
vt 0.963254 0.225542
vt 0.963254 0.219680
vt 0.965990 0.262935
vt 0.963254 0.257073
vt 0.965990 0.257073
vt 0.958286 0.091196
vt 0.958286 0.084727
vt 0.960765 0.090039
vt 0.574779 0.965142
vt 0.572300 0.959830
vt 0.574779 0.958673
vt 0.014261 0.952504
vt 0.018129 0.946642
vt 0.018129 0.952504
vt 0.533058 0.954287
vt 0.533058 0.948425
vt 0.536926 0.948425
vt 0.955307 0.811017
vt 0.951438 0.811017
vt 0.951438 0.805156
vt 0.956074 0.859599
vt 0.952206 0.853737
vt 0.956074 0.853737
vt 0.922917 0.805155
vt 0.922917 0.814733
vt 0.920127 0.806052
vt 0.926834 0.093845
vt 0.926834 0.084727
vt 0.929765 0.084727
vt 0.923827 0.023839
vt 0.921037 0.022942
vt 0.923827 0.014261
vt 0.572300 0.921033
vt 0.575231 0.930152
vt 0.572300 0.930152
vt 0.418791 0.923285
vt 0.421526 0.923285
vt 0.421526 0.932403
vt 0.923684 0.853737
vt 0.923684 0.863257
vt 0.921064 0.862471
vt 0.334619 0.923508
vt 0.331884 0.932626
vt 0.331884 0.923508
vt 0.921064 0.891779
vt 0.923684 0.900512
vt 0.921064 0.901299
vt 0.426507 0.163803
vt 0.423772 0.163803
vt 0.423772 0.014261
vt 0.495027 0.219680
vt 0.497763 0.369223
vt 0.495027 0.369223
vt 0.357415 0.370389
vt 0.354680 0.519932
vt 0.354680 0.370389
vt 0.455029 0.163803
vt 0.455029 0.014261
vt 0.457764 0.014261
vt 0.466506 0.219680
vt 0.463770 0.369223
vt 0.463770 0.219680
vt 0.517542 0.163803
vt 0.517542 0.014261
vt 0.520278 0.014261
vt 0.426312 0.523378
vt 0.423576 0.523378
vt 0.423576 0.373836
vt 0.486285 0.014261
vt 0.489021 0.163803
vt 0.486285 0.163803
vt 0.060590 0.779877
vt 0.058590 0.782020
vt 0.058590 0.778010
vt 0.303300 0.918013
vt 0.301301 0.919879
vt 0.301301 0.915870
vt 0.121373 0.973031
vt 0.123373 0.971165
vt 0.123373 0.975174
vt 0.676964 0.975024
vt 0.678964 0.972882
vt 0.678964 0.976891
vt 0.749601 0.629855
vt 0.752830 0.631986
vt 0.749601 0.633366
vt 0.886813 0.055476
vt 0.886813 0.051965
vt 0.890042 0.053345
vt 0.923827 0.052360
vt 0.923827 0.055872
vt 0.920599 0.054491
vt 0.422020 0.964436
vt 0.418791 0.962305
vt 0.422020 0.960924
s 0
usemtl barrier
f 789/841/175 790/842/175 791/843/175
f 792/844/175 793/845/175 794/846/175
f 795/847/176 796/848/176 797/849/176
f 798/850/176 799/851/176 800/852/176
f 801/853/177 802/854/177 803/855/177
f 804/856/177 805/857/177 806/858/177
f 807/859/178 808/860/178 809/861/178
f 810/862/178 811/863/178 812/864/178
f 813/865/179 814/866/179 815/867/179
f 816/868/179 817/869/179 818/870/179
f 819/871/180 820/872/180 821/873/180
f 822/874/180 823/875/180 824/876/180
f 825/877/181 826/878/181 827/879/181
f 828/880/181 829/881/181 830/882/181
f 831/883/182 832/884/182 833/885/182
f 834/886/182 835/887/182 836/888/182
f 837/889/183 838/890/183 839/891/183
f 840/892/183 841/893/183 842/894/183
f 843/895/184 844/896/184 845/897/184
f 846/898/184 847/899/184 848/900/184
f 849/901/185 850/902/185 851/903/185
f 852/904/185 853/905/185 854/906/185
f 855/907/186 856/908/186 857/909/186
f 858/910/186 859/911/186 860/912/186
f 861/913/187 862/914/187 863/915/187
f 864/916/187 865/917/187 866/918/187
f 867/919/188 868/920/188 869/921/188
f 870/922/188 871/923/188 872/924/188
f 873/925/189 874/926/189 875/927/189
f 876/928/189 877/929/189 878/930/189
f 879/931/190 880/932/190 881/933/190
f 882/934/190 883/935/190 884/936/190
f 885/937/191 886/938/191 887/939/191
f 888/940/191 889/941/191 890/942/191
f 891/943/192 892/944/192 893/945/192
f 894/946/192 895/947/192 896/948/192
f 897/949/193 898/950/193 899/951/193
f 900/952/194 901/953/194 902/954/194
f 903/955/195 904/956/195 905/957/195
f 906/958/196 907/959/196 908/960/196
f 909/961/197 910/962/197 911/963/197
f 912/964/198 913/965/198 914/966/198
f 915/967/199 916/968/199 917/969/199
f 918/970/200 919/971/200 920/972/200
o stripe_0_b
v -0.610000 1.500000 -0.085714
v -0.610000 1.500000 -0.117857
v -0.610000 1.040000 -0.085714
v -0.610000 1.040000 -0.117857
v -0.830000 1.500000 -0.117857
v -0.830000 1.500000 -0.085714
v -0.830000 1.040000 -0.117857
v -0.830000 1.040000 -0.085714
v -0.830000 1.500000 -0.117857
v -0.610000 1.500000 -0.117857
v -0.830000 1.500000 -0.085714
v -0.610000 1.500000 -0.085714
v -0.830000 1.040000 -0.085714
v -0.610000 1.040000 -0.085714
v -0.830000 1.040000 -0.117857
v -0.610000 1.040000 -0.117857
v -0.830000 1.500000 -0.085714
v -0.610000 1.500000 -0.085714
v -0.830000 1.040000 -0.085714
v -0.610000 1.040000 -0.085714
v -0.610000 1.500000 -0.117857
v -0.830000 1.500000 -0.117857
v -0.610000 1.040000 -0.117857
v -0.830000 1.040000 -0.117857
vn 1.0000 -0.0000 -0.0000
vn -1.0000 -0.0000 -0.0000
vn -0.0000 1.0000 -0.0000
vn -0.0000 -1.0000 -0.0000
vn -0.0000 -0.0000 1.0000
vn -0.0000 -0.0000 -1.0000
vt 0.771784 0.261625
vt 0.771784 0.219680
vt 0.774715 0.261625
vt 0.774715 0.219680
vt 0.774715 0.290146
vt 0.774715 0.332091
vt 0.771784 0.290146
vt 0.771784 0.332091
vt 0.784282 0.629203
vt 0.781351 0.629203
vt 0.784282 0.609143
vt 0.781351 0.609143
vt 0.575072 0.834748
vt 0.578003 0.834748
vt 0.575072 0.854808
vt 0.578003 0.854808
vt 0.548799 0.190470
vt 0.548799 0.148525
vt 0.568860 0.190470
vt 0.568860 0.148525
vt 0.597381 0.190470
vt 0.597381 0.148525
vt 0.617442 0.190470
vt 0.617442 0.148525
s 0
usemtl barrier
f 921/973/201 923/974/201 922/975/201
f 923/974/201 924/976/201 922/975/201
f 925/977/202 927/978/202 926/979/202
f 927/978/202 928/980/202 926/979/202
f 929/981/203 931/982/203 930/983/203
f 931/982/203 932/984/203 930/983/203
f 933/985/204 935/986/204 934/987/204
f 935/986/204 936/988/204 934/987/204
f 937/989/205 939/990/205 938/991/205
f 939/990/205 940/992/205 938/991/205
f 941/993/206 943/994/206 942/995/206
f 943/994/206 944/996/206 942/995/206
o stripe_0_f
v -0.610000 1.500000 0.117857
v -0.610000 1.500000 0.085714
v -0.610000 1.040000 0.117857
v -0.610000 1.040000 0.085714
v -0.830000 1.500000 0.085714
v -0.830000 1.500000 0.117857
v -0.830000 1.040000 0.085714
v -0.830000 1.040000 0.117857
v -0.830000 1.500000 0.085714
v -0.610000 1.500000 0.085714
v -0.830000 1.500000 0.117857
v -0.610000 1.500000 0.117857
v -0.830000 1.040000 0.117857
v -0.610000 1.040000 0.117857
v -0.830000 1.040000 0.085714
v -0.610000 1.040000 0.085714
v -0.830000 1.500000 0.117857
v -0.610000 1.500000 0.117857
v -0.830000 1.040000 0.117857
v -0.610000 1.040000 0.117857
v -0.610000 1.500000 0.085714
v -0.830000 1.500000 0.085714
v -0.610000 1.040000 0.085714
v -0.830000 1.040000 0.085714
vn 1.0000 -0.0000 -0.0000
vn -1.0000 -0.0000 -0.0000
vn -0.0000 1.0000 -0.0000
vn -0.0000 -1.0000 -0.0000
vn -0.0000 -0.0000 1.0000
vn -0.0000 -0.0000 -1.0000
vt 0.676964 0.775099
vt 0.676964 0.733154
vt 0.679895 0.775099
vt 0.679895 0.733154
vt 0.711347 0.733154
vt 0.711347 0.775099
vt 0.708416 0.733154
vt 0.708416 0.775099
vt 0.424493 0.857059
vt 0.421562 0.857059
vt 0.424493 0.836999
vt 0.421562 0.836999
vt 0.331884 0.837222
vt 0.334815 0.837222
vt 0.331884 0.857282
vt 0.334815 0.857282
vt 0.645963 0.190470
vt 0.645963 0.148525
vt 0.666023 0.190470
vt 0.666023 0.148525
vt 0.331884 0.667768
vt 0.331884 0.625823
vt 0.351944 0.667768
vt 0.351944 0.625823
s 0
usemtl barrier
f 945/997/207 947/998/207 946/999/207
f 947/998/207 948/1000/207 946/999/207
f 949/1001/208 951/1002/208 950/1003/208
f 951/1002/208 952/1004/208 950/1003/208
f 953/1005/209 955/1006/209 954/1007/209
f 955/1006/209 956/1008/209 954/1007/209
f 957/1009/210 959/1010/210 958/1011/210
f 959/1010/210 960/1012/210 958/1011/210
f 961/1013/211 963/1014/211 962/1015/211
f 963/1014/211 964/1016/211 962/1015/211
f 965/1017/212 967/1018/212 966/1019/212
f 967/1018/212 968/1020/212 966/1019/212
o stripe_1_b
v -0.250000 1.500000 -0.085714
v -0.250000 1.500000 -0.117857
v -0.250000 1.040000 -0.085714
v -0.250000 1.040000 -0.117857
v -0.470000 1.500000 -0.117857
v -0.470000 1.500000 -0.085714
v -0.470000 1.040000 -0.117857
v -0.470000 1.040000 -0.085714
v -0.470000 1.500000 -0.117857
v -0.250000 1.500000 -0.117857
v -0.470000 1.500000 -0.085714
v -0.250000 1.500000 -0.085714
v -0.470000 1.040000 -0.085714
v -0.250000 1.040000 -0.085714
v -0.470000 1.040000 -0.117857
v -0.250000 1.040000 -0.117857
v -0.470000 1.500000 -0.085714
v -0.250000 1.500000 -0.085714
v -0.470000 1.040000 -0.085714
v -0.250000 1.040000 -0.085714
v -0.250000 1.500000 -0.117857
v -0.470000 1.500000 -0.117857
v -0.250000 1.040000 -0.117857
v -0.470000 1.040000 -0.117857
vn 1.0000 -0.0000 -0.0000
vn -1.0000 -0.0000 -0.0000
vn -0.0000 1.0000 -0.0000
vn -0.0000 -1.0000 -0.0000
vn -0.0000 -0.0000 1.0000
vn -0.0000 -0.0000 -1.0000
vt 0.774383 0.183566
vt 0.774383 0.141621
vt 0.777314 0.183566
vt 0.777314 0.141621
vt 0.755832 0.740058
vt 0.755832 0.782003
vt 0.752902 0.740058
vt 0.752902 0.782003
vt 0.857382 0.825216
vt 0.854451 0.825216
vt 0.857382 0.805156
vt 0.854451 0.805156
vt 0.152054 0.837617
vt 0.154985 0.837617
vt 0.152054 0.857677
vt 0.154985 0.857677
vt 0.089540 0.676886
vt 0.089540 0.634942
vt 0.109601 0.676886
vt 0.109601 0.634942
vt 0.138122 0.676886
vt 0.138122 0.634942
vt 0.158183 0.676886
vt 0.158183 0.634942
s 0
usemtl barrier
f 969/1021/213 971/1022/213 970/1023/213
f 971/1022/213 972/1024/213 970/1023/213
f 973/1025/214 975/1026/214 974/1027/214
f 975/1026/214 976/1028/214 974/1027/214
f 977/1029/215 979/1030/215 978/1031/215
f 979/1030/215 980/1032/215 978/1031/215
f 981/1033/216 983/1034/216 982/1035/216
f 983/1034/216 984/1036/216 982/1035/216
f 985/1037/217 987/1038/217 986/1039/217
f 987/1038/217 988/1040/217 986/1039/217
f 989/1041/218 991/1042/218 990/1043/218
f 991/1042/218 992/1044/218 990/1043/218
o stripe_1_f
v -0.250000 1.500000 0.117857
v -0.250000 1.500000 0.085714
v -0.250000 1.040000 0.117857
v -0.250000 1.040000 0.085714
v -0.470000 1.500000 0.085714
v -0.470000 1.500000 0.117857
v -0.470000 1.040000 0.085714
v -0.470000 1.040000 0.117857
v -0.470000 1.500000 0.085714
v -0.250000 1.500000 0.085714
v -0.470000 1.500000 0.117857
v -0.250000 1.500000 0.117857
v -0.470000 1.040000 0.117857
v -0.250000 1.040000 0.117857
v -0.470000 1.040000 0.085714
v -0.250000 1.040000 0.085714
v -0.470000 1.500000 0.117857
v -0.250000 1.500000 0.117857
v -0.470000 1.040000 0.117857
v -0.250000 1.040000 0.117857
v -0.250000 1.500000 0.085714
v -0.470000 1.500000 0.085714
v -0.250000 1.040000 0.085714
v -0.470000 1.040000 0.085714
vn 1.0000 -0.0000 -0.0000
vn -1.0000 -0.0000 -0.0000
vn -0.0000 1.0000 -0.0000
vn -0.0000 -1.0000 -0.0000
vn -0.0000 -0.0000 1.0000
vn -0.0000 -0.0000 -1.0000
vt 0.781351 0.439689
vt 0.781351 0.397744
vt 0.784282 0.439689
vt 0.784282 0.397744
vt 0.784282 0.468210
vt 0.784282 0.510155
vt 0.781351 0.468210
vt 0.781351 0.510155
vt 0.189698 0.857677
vt 0.186767 0.857677
vt 0.189698 0.837617
vt 0.186767 0.837617
vt 0.386849 0.837617
vt 0.389780 0.837617
vt 0.386849 0.857677
vt 0.389780 0.857677
vt 0.186704 0.676886
vt 0.186704 0.634942
vt 0.206765 0.676886
vt 0.206765 0.634942
vt 0.386849 0.676886
vt 0.386849 0.634942
vt 0.406909 0.676886
vt 0.406909 0.634942
s 0
usemtl barrier
f 993/1045/219 995/1046/219 994/1047/219
f 995/1046/219 996/1048/219 994/1047/219
f 997/1049/220 999/1050/220 998/1051/220
f 999/1050/220 1000/1052/220 998/1051/220
f 1001/1053/221 1003/1054/221 1002/1055/221
f 1003/1054/221 1004/1056/221 1002/1055/221
f 1005/1057/222 1007/1058/222 1006/1059/222
f 1007/1058/222 1008/1060/222 1006/1059/222
f 1009/1061/223 1011/1062/223 1010/1063/223
f 1011/1062/223 1012/1064/223 1010/1063/223
f 1013/1065/224 1015/1066/224 1014/1067/224
f 1015/1066/224 1016/1068/224 1014/1067/224
o stripe_2_b
v 0.110000 1.500000 -0.085714
v 0.110000 1.500000 -0.117857
v 0.110000 1.040000 -0.085714
v 0.110000 1.040000 -0.117857
v -0.110000 1.500000 -0.117857
v -0.110000 1.500000 -0.085714
v -0.110000 1.040000 -0.117857
v -0.110000 1.040000 -0.085714
v -0.110000 1.500000 -0.117857
v 0.110000 1.500000 -0.117857
v -0.110000 1.500000 -0.085714
v 0.110000 1.500000 -0.085714
v -0.110000 1.040000 -0.085714
v 0.110000 1.040000 -0.085714
v -0.110000 1.040000 -0.117857
v 0.110000 1.040000 -0.117857
v -0.110000 1.500000 -0.085714
v 0.110000 1.500000 -0.085714
v -0.110000 1.040000 -0.085714
v 0.110000 1.040000 -0.085714
v 0.110000 1.500000 -0.117857
v -0.110000 1.500000 -0.117857
v 0.110000 1.040000 -0.117857
v -0.110000 1.040000 -0.117857
vn 1.0000 -0.0000 -0.0000
vn -1.0000 -0.0000 -0.0000
vn -0.0000 1.0000 -0.0000
vn -0.0000 -1.0000 -0.0000
vn -0.0000 -0.0000 1.0000
vn -0.0000 -0.0000 -1.0000
vt 0.781351 0.580622
vt 0.781351 0.538677
vt 0.784282 0.580622
vt 0.784282 0.538677
vt 0.787089 0.662688
vt 0.787089 0.704633
vt 0.784158 0.662688
vt 0.784158 0.704633
vt 0.858292 0.034321
vt 0.855361 0.034321
vt 0.858292 0.014261
vt 0.855361 0.014261
vt 0.500444 0.839063
vt 0.503375 0.839063
vt 0.500444 0.859123
vt 0.503375 0.859123
vt 0.607156 0.704633
vt 0.607156 0.662688
vt 0.627216 0.704633
vt 0.627216 0.662688
vt 0.655738 0.704633
vt 0.655738 0.662688
vt 0.675798 0.704633
vt 0.675798 0.662688
s 0
usemtl barrier
f 1017/1069/225 1019/1070/225 1018/1071/225
f 1019/1070/225 1020/1072/225 1018/1071/225
f 1021/1073/226 1023/1074/226 1022/1075/226
f 1023/1074/226 1024/1076/226 1022/1075/226
f 1025/1077/227 1027/1078/227 1026/1079/227
f 1027/1078/227 1028/1080/227 1026/1079/227
f 1029/1081/228 1031/1082/228 1030/1083/228
f 1031/1082/228 1032/1084/228 1030/1083/228
f 1033/1085/229 1035/1086/229 1034/1087/229
f 1035/1086/229 1036/1088/229 1034/1087/229
f 1037/1089/230 1039/1090/230 1038/1091/230
f 1039/1090/230 1040/1092/230 1038/1091/230
o stripe_2_f
v 0.110000 1.500000 0.117857
v 0.110000 1.500000 0.085714
v 0.110000 1.040000 0.117857
v 0.110000 1.040000 0.085714
v -0.110000 1.500000 0.085714
v -0.110000 1.500000 0.117857
v -0.110000 1.040000 0.085714
v -0.110000 1.040000 0.117857
v -0.110000 1.500000 0.085714
v 0.110000 1.500000 0.085714
v -0.110000 1.500000 0.117857
v 0.110000 1.500000 0.117857
v -0.110000 1.040000 0.117857
v 0.110000 1.040000 0.117857
v -0.110000 1.040000 0.085714
v 0.110000 1.040000 0.085714
v -0.110000 1.500000 0.117857
v 0.110000 1.500000 0.117857
v -0.110000 1.040000 0.117857
v 0.110000 1.040000 0.117857
v 0.110000 1.500000 0.085714
v -0.110000 1.500000 0.085714
v 0.110000 1.040000 0.085714
v -0.110000 1.040000 0.085714
vn 1.0000 -0.0000 -0.0000
vn -1.0000 -0.0000 -0.0000
vn -0.0000 1.0000 -0.0000
vn -0.0000 -1.0000 -0.0000
vn -0.0000 -0.0000 1.0000
vn -0.0000 -0.0000 -1.0000
vt 0.784354 0.782003
vt 0.784354 0.740058
vt 0.787285 0.782003
vt 0.787285 0.740058
vt 0.795407 0.014261
vt 0.795407 0.056206
vt 0.792476 0.014261
vt 0.792476 0.056206
vt 0.864089 0.104787
vt 0.861158 0.104787
vt 0.864089 0.084727
vt 0.861158 0.084727
vt 0.089540 0.847876
vt 0.092471 0.847876
vt 0.089540 0.867936
vt 0.092471 0.867936
vt 0.694545 0.190470
vt 0.694545 0.148525
vt 0.714605 0.190470
vt 0.714605 0.148525
vt 0.701512 0.439689
vt 0.701512 0.397744
vt 0.721573 0.439689
vt 0.721573 0.397744
s 0
usemtl barrier
f 1041/1093/231 1043/1094/231 1042/1095/231
f 1043/1094/231 1044/1096/231 1042/1095/231
f 1045/1097/232 1047/1098/232 1046/1099/232
f 1047/1098/232 1048/1100/232 1046/1099/232
f 1049/1101/233 1051/1102/233 1050/1103/233
f 1051/1102/233 1052/1104/233 1050/1103/233
f 1053/1105/234 1055/1106/234 1054/1107/234
f 1055/1106/234 1056/1108/234 1054/1107/234
f 1057/1109/235 1059/1110/235 1058/1111/235
f 1059/1110/235 1060/1112/235 1058/1111/235
f 1061/1113/236 1063/1114/236 1062/1115/236
f 1063/1114/236 1064/1116/236 1062/1115/236
o stripe_3_b
v 0.470000 1.500000 -0.085714
v 0.470000 1.500000 -0.117857
v 0.470000 1.040000 -0.085714
v 0.470000 1.040000 -0.117857
v 0.250000 1.500000 -0.117857
v 0.250000 1.500000 -0.085714
v 0.250000 1.040000 -0.117857
v 0.250000 1.040000 -0.085714
v 0.250000 1.500000 -0.117857
v 0.470000 1.500000 -0.117857
v 0.250000 1.500000 -0.085714
v 0.470000 1.500000 -0.085714
v 0.250000 1.040000 -0.085714
v 0.470000 1.040000 -0.085714
v 0.250000 1.040000 -0.117857
v 0.470000 1.040000 -0.117857
v 0.250000 1.500000 -0.085714
v 0.470000 1.500000 -0.085714
v 0.250000 1.040000 -0.085714
v 0.470000 1.040000 -0.085714
v 0.470000 1.500000 -0.117857
v 0.250000 1.500000 -0.117857
v 0.470000 1.040000 -0.117857
v 0.250000 1.040000 -0.117857
vn 1.0000 -0.0000 -0.0000
vn -1.0000 -0.0000 -0.0000
vn -0.0000 1.0000 -0.0000
vn -0.0000 -1.0000 -0.0000
vn -0.0000 -0.0000 1.0000
vn -0.0000 -0.0000 -1.0000
vt 0.268770 0.802842
vt 0.268770 0.760897
vt 0.271701 0.802842
vt 0.271701 0.760897
vt 0.303153 0.760897
vt 0.303153 0.802842
vt 0.300222 0.760897
vt 0.300222 0.802842
vt 0.869053 0.239741
vt 0.866122 0.239741
vt 0.869053 0.219680
vt 0.866122 0.219680
vt 0.866122 0.268262
vt 0.869053 0.268262
vt 0.866122 0.288323
vt 0.869053 0.288323
vt 0.701512 0.510155
vt 0.701512 0.468210
vt 0.721573 0.510155
vt 0.721573 0.468210
vt 0.701512 0.580622
vt 0.701512 0.538677
vt 0.721573 0.580622
vt 0.721573 0.538677
s 0
usemtl barrier
f 1065/1117/237 1067/1118/237 1066/1119/237
f 1067/1118/237 1068/1120/237 1066/1119/237
f 1069/1121/238 1071/1122/238 1070/1123/238
f 1071/1122/238 1072/1124/238 1070/1123/238
f 1073/1125/239 1075/1126/239 1074/1127/239
f 1075/1126/239 1076/1128/239 1074/1127/239
f 1077/1129/240 1079/1130/240 1078/1131/240
f 1079/1130/240 1080/1132/240 1078/1131/240
f 1081/1133/241 1083/1134/241 1082/1135/241
f 1083/1134/241 1084/1136/241 1082/1135/241
f 1085/1137/242 1087/1138/242 1086/1139/242
f 1087/1138/242 1088/1140/242 1086/1139/242
o stripe_3_f
v 0.470000 1.500000 0.117857
v 0.470000 1.500000 0.085714
v 0.470000 1.040000 0.117857
v 0.470000 1.040000 0.085714
v 0.250000 1.500000 0.085714
v 0.250000 1.500000 0.117857
v 0.250000 1.040000 0.085714
v 0.250000 1.040000 0.117857
v 0.250000 1.500000 0.085714
v 0.470000 1.500000 0.085714
v 0.250000 1.500000 0.117857
v 0.470000 1.500000 0.117857
v 0.250000 1.040000 0.117857
v 0.470000 1.040000 0.117857
v 0.250000 1.040000 0.085714
v 0.470000 1.040000 0.085714
v 0.250000 1.500000 0.117857
v 0.470000 1.500000 0.117857
v 0.250000 1.040000 0.117857
v 0.470000 1.040000 0.117857
v 0.470000 1.500000 0.085714
v 0.250000 1.500000 0.085714
v 0.470000 1.040000 0.085714
v 0.250000 1.040000 0.085714
vn 1.0000 -0.0000 -0.0000
vn -1.0000 -0.0000 -0.0000
vn -0.0000 1.0000 -0.0000
vn -0.0000 -1.0000 -0.0000
vn -0.0000 -0.0000 1.0000
vn -0.0000 -0.0000 -1.0000
vt 0.803237 0.261625
vt 0.803237 0.219680
vt 0.806168 0.261625
vt 0.806168 0.219680
vt 0.806168 0.290146
vt 0.806168 0.332091
vt 0.803237 0.290146
vt 0.803237 0.332091
vt 0.869053 0.336905
vt 0.866122 0.336905
vt 0.869053 0.316844
vt 0.866122 0.316844
vt 0.676964 0.850378
vt 0.679895 0.850378
vt 0.676964 0.870439
vt 0.679895 0.870439
vt 0.704320 0.704633
vt 0.704320 0.662688
vt 0.724380 0.704633
vt 0.724380 0.662688
vt 0.708990 0.056206
vt 0.708990 0.014261
vt 0.729050 0.056206
vt 0.729050 0.014261
s 0
usemtl barrier
f 1089/1141/243 1091/1142/243 1090/1143/243
f 1091/1142/243 1092/1144/243 1090/1143/243
f 1093/1145/244 1095/1146/244 1094/1147/244
f 1095/1146/244 1096/1148/244 1094/1147/244
f 1097/1149/245 1099/1150/245 1098/1151/245
f 1099/1150/245 1100/1152/245 1098/1151/245
f 1101/1153/246 1103/1154/246 1102/1155/246
f 1103/1154/246 1104/1156/246 1102/1155/246
f 1105/1157/247 1107/1158/247 1106/1159/247
f 1107/1158/247 1108/1160/247 1106/1159/247
f 1109/1161/248 1111/1162/248 1110/1163/248
f 1111/1162/248 1112/1164/248 1110/1163/248
o stripe_4_b
v 0.830000 1.500000 -0.085714
v 0.830000 1.500000 -0.117857
v 0.830000 1.040000 -0.085714
v 0.830000 1.040000 -0.117857
v 0.610000 1.500000 -0.117857
v 0.610000 1.500000 -0.085714
v 0.610000 1.040000 -0.117857
v 0.610000 1.040000 -0.085714
v 0.610000 1.500000 -0.117857
v 0.830000 1.500000 -0.117857
v 0.610000 1.500000 -0.085714
v 0.830000 1.500000 -0.085714
v 0.610000 1.040000 -0.085714
v 0.830000 1.040000 -0.085714
v 0.610000 1.040000 -0.117857
v 0.830000 1.040000 -0.117857
v 0.610000 1.500000 -0.085714
v 0.830000 1.500000 -0.085714
v 0.610000 1.040000 -0.085714
v 0.830000 1.040000 -0.085714
v 0.830000 1.500000 -0.117857
v 0.610000 1.500000 -0.117857
v 0.830000 1.040000 -0.117857
v 0.610000 1.040000 -0.117857
vn 1.0000 -0.0000 -0.0000
vn -1.0000 -0.0000 -0.0000
vn -0.0000 1.0000 -0.0000
vn -0.0000 -1.0000 -0.0000
vn -0.0000 -0.0000 1.0000
vn -0.0000 -0.0000 -1.0000
vt 0.575072 0.806226
vt 0.575072 0.764281
vt 0.578003 0.806226
vt 0.578003 0.764281
vt 0.334815 0.766756
vt 0.334815 0.808701
vt 0.331884 0.766756
vt 0.331884 0.808701
vt 0.610087 0.871500
vt 0.607156 0.871500
vt 0.610087 0.851439
vt 0.607156 0.851439
vt 0.868721 0.141621
vt 0.871652 0.141621
vt 0.868721 0.161681
vt 0.871652 0.161681
vt 0.268770 0.732376
vt 0.268770 0.690431
vt 0.288831 0.732376
vt 0.288831 0.690431
vt 0.331884 0.738234
vt 0.331884 0.696289
vt 0.351944 0.738234
vt 0.351944 0.696289
s 0
usemtl barrier
f 1113/1165/249 1115/1166/249 1114/1167/249
f 1115/1166/249 1116/1168/249 1114/1167/249
f 1117/1169/250 1119/1170/250 1118/1171/250
f 1119/1170/250 1120/1172/250 1118/1171/250
f 1121/1173/251 1123/1174/251 1122/1175/251
f 1123/1174/251 1124/1176/251 1122/1175/251
f 1125/1177/252 1127/1178/252 1126/1179/252
f 1127/1178/252 1128/1180/252 1126/1179/252
f 1129/1181/253 1131/1182/253 1130/1183/253
f 1131/1182/253 1132/1184/253 1130/1183/253
f 1133/1185/254 1135/1186/254 1134/1187/254
f 1135/1186/254 1136/1188/254 1134/1187/254
o stripe_4_f
v 0.830000 1.500000 0.117857
v 0.830000 1.500000 0.085714
v 0.830000 1.040000 0.117857
v 0.830000 1.040000 0.085714
v 0.610000 1.500000 0.085714
v 0.610000 1.500000 0.117857
v 0.610000 1.040000 0.085714
v 0.610000 1.040000 0.117857
v 0.610000 1.500000 0.085714
v 0.830000 1.500000 0.085714
v 0.610000 1.500000 0.117857
v 0.830000 1.500000 0.117857
v 0.610000 1.040000 0.117857
v 0.830000 1.040000 0.117857
v 0.610000 1.040000 0.085714
v 0.830000 1.040000 0.085714
v 0.610000 1.500000 0.117857
v 0.830000 1.500000 0.117857
v 0.610000 1.040000 0.117857
v 0.830000 1.040000 0.117857
v 0.830000 1.500000 0.085714
v 0.610000 1.500000 0.085714
v 0.830000 1.040000 0.085714
v 0.610000 1.040000 0.085714
vn 1.0000 -0.0000 -0.0000
vn -1.0000 -0.0000 -0.0000
vn -0.0000 1.0000 -0.0000
vn -0.0000 -1.0000 -0.0000
vn -0.0000 -0.0000 1.0000
vn -0.0000 -0.0000 -1.0000
vt 0.805836 0.183566
vt 0.805836 0.141621
vt 0.808767 0.183566
vt 0.808767 0.141621
vt 0.503375 0.768596
vt 0.503375 0.810541
vt 0.500444 0.768596
vt 0.500444 0.810541
vt 0.644991 0.871668
vt 0.642060 0.871668
vt 0.644991 0.851607
vt 0.642060 0.851607
vt 0.815806 0.851914
vt 0.818737 0.851914
vt 0.815806 0.871974
vt 0.818737 0.871974
vt 0.723203 0.261625
vt 0.723203 0.219680
vt 0.743263 0.261625
vt 0.743263 0.219680
vt 0.723203 0.332091
vt 0.723203 0.290146
vt 0.743263 0.332091
vt 0.743263 0.290146
s 0
usemtl barrier
f 1137/1189/255 1139/1190/255 1138/1191/255
f 1139/1190/255 1140/1192/255 1138/1191/255
f 1141/1193/256 1143/1194/256 1142/1195/256
f 1143/1194/256 1144/1196/256 1142/1195/256
f 1145/1197/257 1147/1198/257 1146/1199/257
f 1147/1198/257 1148/1200/257 1146/1199/257
f 1149/1201/258 1151/1202/258 1150/1203/258
f 1151/1202/258 1152/1204/258 1150/1203/258
f 1153/1205/259 1155/1206/259 1154/1207/259
f 1155/1206/259 1156/1208/259 1154/1207/259
f 1157/1209/260 1159/1210/260 1158/1211/260
f 1159/1210/260 1160/1212/260 1158/1211/260
