# Blender 4.2.23 LTS
# www.blender.org
mtllib planter.mtl
o bush_main
v -0.526670 1.984536 0.176263
v -0.201170 2.171835 0.285200
v -0.342251 2.197070 -0.000000
v -0.526670 1.984536 0.176263
v -0.325500 1.868778 0.461463
v -0.201170 2.171835 0.285200
v -0.553774 1.681478 0.299877
v -0.325500 1.868778 0.461463
v -0.526670 1.984536 0.176263
v -0.325500 1.868778 0.461463
v 0.000000 2.000132 0.485211
v -0.201170 2.171835 0.285200
v -0.201170 2.171835 0.285200
v 0.000000 2.287593 -0.000000
v -0.342251 2.197070 -0.000000
v -0.201170 2.171835 0.285200
v 0.201170 2.171835 0.285200
v 0.000000 2.287593 -0.000000
v 0.000000 2.000132 0.485211
v 0.201170 2.171835 0.285200
v -0.201170 2.171835 0.285200
v 0.201170 2.171835 0.285200
v 0.342251 2.197070 -0.000000
v 0.000000 2.287593 -0.000000
v 0.000000 2.287593 -0.000000
v -0.201170 2.171835 -0.285200
v -0.342251 2.197070 -0.000000
v 0.000000 2.287593 -0.000000
v 0.201170 2.171835 -0.285200
v -0.201170 2.171835 -0.285200
v 0.342251 2.197070 -0.000000
v 0.201170 2.171835 -0.285200
v 0.000000 2.287593 -0.000000
v 0.201170 2.171835 -0.285200
v 0.000000 2.000132 -0.485211
v -0.201170 2.171835 -0.285200
v -0.201170 2.171835 -0.285200
v -0.526670 1.984536 -0.176263
v -0.342251 2.197070 -0.000000
v -0.201170 2.171835 -0.285200
v -0.325500 1.868778 -0.461463
v -0.526670 1.984536 -0.176263
v 0.000000 2.000132 -0.485211
v -0.325500 1.868778 -0.461463
v -0.201170 2.171835 -0.285200
v -0.325500 1.868778 -0.461463
v -0.553774 1.681478 -0.299877
v -0.526670 1.984536 -0.176263
v -0.526670 1.984536 -0.176263
v -0.526670 1.984536 0.176263
v -0.342251 2.197070 -0.000000
v -0.526670 1.984536 -0.176263
v -0.651000 1.681478 -0.000000
v -0.526670 1.984536 0.176263
v -0.553774 1.681478 -0.299877
v -0.651000 1.681478 -0.000000
v -0.526670 1.984536 -0.176263
v -0.651000 1.681478 -0.000000
v -0.553774 1.681478 0.299877
v -0.526670 1.984536 0.176263
v 0.201170 2.171835 0.285200
v 0.526670 1.984536 0.176263
v 0.342251 2.197070 -0.000000
v 0.201170 2.171835 0.285200
v 0.325500 1.868778 0.461463
v 0.526670 1.984536 0.176263
v 0.000000 2.000132 0.485211
v 0.325500 1.868778 0.461463
v 0.201170 2.171835 0.285200
v 0.325500 1.868778 0.461463
v 0.553774 1.681478 0.299877
v 0.526670 1.984536 0.176263
v -0.325500 1.868778 0.461463
v 0.000000 1.681478 0.570400
v 0.000000 2.000132 0.485211
v -0.325500 1.868778 0.461463
v -0.325500 1.494179 0.461463
v 0.000000 1.681478 0.570400
v -0.553774 1.681478 0.299877
v -0.325500 1.494179 0.461463
v -0.325500 1.868778 0.461463
v -0.325500 1.494179 0.461463
v 0.000000 1.362825 0.485211
v 0.000000 1.681478 0.570400
v -0.651000 1.681478 -0.000000
v -0.526670 1.378421 0.176263
v -0.553774 1.681478 0.299877
v -0.651000 1.681478 -0.000000
v -0.526670 1.378421 -0.176263
v -0.526670 1.378421 0.176263
v -0.553774 1.681478 -0.299877
v -0.526670 1.378421 -0.176263
v -0.651000 1.681478 -0.000000
v -0.526670 1.378421 -0.176263
v -0.342251 1.165887 -0.000000
v -0.526670 1.378421 0.176263
v -0.325500 1.868778 -0.461463
v -0.325500 1.494179 -0.461463
v -0.553774 1.681478 -0.299877
v -0.325500 1.868778 -0.461463
v 0.000000 1.681478 -0.570400
v -0.325500 1.494179 -0.461463
v 0.000000 2.000132 -0.485211
v 0.000000 1.681478 -0.570400
v -0.325500 1.868778 -0.461463
v 0.000000 1.681478 -0.570400
v 0.000000 1.362825 -0.485211
v -0.325500 1.494179 -0.461463
v 0.201170 2.171835 -0.285200
v 0.325500 1.868778 -0.461463
v 0.000000 2.000132 -0.485211
v 0.201170 2.171835 -0.285200
v 0.526670 1.984536 -0.176263
v 0.325500 1.868778 -0.461463
v 0.342251 2.197070 -0.000000
v 0.526670 1.984536 -0.176263
v 0.201170 2.171835 -0.285200
v 0.526670 1.984536 -0.176263
v 0.553774 1.681478 -0.299877
v 0.325500 1.868778 -0.461463
v 0.526670 1.378421 0.176263
v 0.201170 1.191122 0.285200
v 0.342251 1.165887 -0.000000
v 0.526670 1.378421 0.176263
v 0.325500 1.494179 0.461463
v 0.201170 1.191122 0.285200
v 0.553774 1.681478 0.299877
v 0.325500 1.494179 0.461463
v 0.526670 1.378421 0.176263
v 0.325500 1.494179 0.461463
v 0.000000 1.362825 0.485211
v 0.201170 1.191122 0.285200
v 0.201170 1.191122 0.285200
v 0.000000 1.075364 -0.000000
v 0.342251 1.165887 -0.000000
v 0.201170 1.191122 0.285200
v -0.201170 1.191122 0.285200
v 0.000000 1.075364 -0.000000
v 0.000000 1.362825 0.485211
v -0.201170 1.191122 0.285200
v 0.201170 1.191122 0.285200
v -0.201170 1.191122 0.285200
v -0.342251 1.165887 -0.000000
v 0.000000 1.075364 -0.000000
v 0.000000 1.075364 -0.000000
v 0.201170 1.191122 -0.285200
v 0.342251 1.165887 -0.000000
v 0.000000 1.075364 -0.000000
v -0.201170 1.191122 -0.285200
v 0.201170 1.191122 -0.285200
v -0.342251 1.165887 -0.000000
v -0.201170 1.191122 -0.285200
v 0.000000 1.075364 -0.000000
v -0.201170 1.191122 -0.285200
v 0.000000 1.362825 -0.485211
v 0.201170 1.191122 -0.285200
v 0.201170 1.191122 -0.285200
v 0.526670 1.378421 -0.176263
v 0.342251 1.165887 -0.000000
v 0.201170 1.191122 -0.285200
v 0.325500 1.494179 -0.461463
v 0.526670 1.378421 -0.176263
v 0.000000 1.362825 -0.485211
v 0.325500 1.494179 -0.461463
v 0.201170 1.191122 -0.285200
v 0.325500 1.494179 -0.461463
v 0.553774 1.681478 -0.299877
v 0.526670 1.378421 -0.176263
v 0.526670 1.378421 -0.176263
v 0.526670 1.378421 0.176263
v 0.342251 1.165887 -0.000000
v 0.526670 1.378421 -0.176263
v 0.651000 1.681478 -0.000000
v 0.526670 1.378421 0.176263
v 0.553774 1.681478 -0.299877
v 0.651000 1.681478 -0.000000
v 0.526670 1.378421 -0.176263
v 0.651000 1.681478 -0.000000
v 0.553774 1.681478 0.299877
v 0.526670 1.378421 0.176263
v 0.325500 1.494179 0.461463
v 0.000000 1.681478 0.570400
v 0.000000 1.362825 0.485211
v 0.325500 1.494179 0.461463
v 0.325500 1.868778 0.461463
v 0.000000 1.681478 0.570400
v 0.553774 1.681478 0.299877
v 0.325500 1.868778 0.461463
v 0.325500 1.494179 0.461463
v 0.325500 1.868778 0.461463
v 0.000000 2.000132 0.485211
v 0.000000 1.681478 0.570400
v -0.201170 1.191122 0.285200
v -0.526670 1.378421 0.176263
v -0.342251 1.165887 -0.000000
v -0.201170 1.191122 0.285200
v -0.325500 1.494179 0.461463
v -0.526670 1.378421 0.176263
v 0.000000 1.362825 0.485211
v -0.325500 1.494179 0.461463
v -0.201170 1.191122 0.285200
v -0.325500 1.494179 0.461463
v -0.553774 1.681478 0.299877
v -0.526670 1.378421 0.176263
v -0.201170 1.191122 -0.285200
v -0.325500 1.494179 -0.461463
v 0.000000 1.362825 -0.485211
v -0.201170 1.191122 -0.285200
v -0.526670 1.378421 -0.176263
v -0.325500 1.494179 -0.461463
v -0.342251 1.165887 -0.000000
v -0.526670 1.378421 -0.176263
v -0.201170 1.191122 -0.285200
v -0.526670 1.378421 -0.176263
v -0.553774 1.681478 -0.299877
v -0.325500 1.494179 -0.461463
v 0.325500 1.494179 -0.461463
v 0.325500 1.868778 -0.461463
v 0.553774 1.681478 -0.299877
v 0.325500 1.494179 -0.461463
v 0.000000 1.681478 -0.570400
v 0.325500 1.868778 -0.461463
v 0.000000 1.362825 -0.485211
v 0.000000 1.681478 -0.570400
v 0.325500 1.494179 -0.461463
v 0.000000 1.681478 -0.570400
v 0.000000 2.000132 -0.485211
v 0.325500 1.868778 -0.461463
v 0.651000 1.681478 -0.000000
v 0.526670 1.984536 0.176263
v 0.553774 1.681478 0.299877
v 0.651000 1.681478 -0.000000
v 0.526670 1.984536 -0.176263
v 0.526670 1.984536 0.176263
v 0.553774 1.681478 -0.299877
v 0.526670 1.984536 -0.176263
v 0.651000 1.681478 -0.000000
v 0.526670 1.984536 -0.176263
v 0.342251 2.197070 -0.000000
v 0.526670 1.984536 0.176263
vn -0.7831 0.5199 0.3414
vn -0.2850 0.8012 0.5262
vn -0.4987 0.8667 -0.0000
vn -0.7831 0.5198 0.3414
vn -0.4540 0.3015 0.8384
vn -0.2849 0.8012 0.5262
vn -0.8171 -0.0000 0.5764
vn -0.4541 0.3014 0.8385
vn -0.4540 0.3014 0.8385
vn -0.0000 0.5028 0.8644
vn -0.0000 1.0000 -0.0000
vn -0.4987 0.8668 -0.0000
vn 0.2849 0.8012 0.5262
vn 0.4987 0.8668 -0.0000
vn -0.2849 0.8012 -0.5262
vn 0.2849 0.8012 -0.5262
vn 0.2850 0.8012 -0.5262
vn -0.0000 0.5028 -0.8644
vn -0.2850 0.8012 -0.5262
vn -0.7831 0.5199 -0.3414
vn -0.4988 0.8667 -0.0000
vn -0.4541 0.3014 -0.8384
vn -0.7831 0.5198 -0.3414
vn -0.4540 0.3014 -0.8385
vn -0.4541 0.3014 -0.8385
vn -0.8172 -0.0000 -0.5764
vn -0.7831 0.5198 -0.3413
vn -0.7831 0.5198 0.3413
vn -1.0000 0.0001 -0.0000
vn -1.0000 -0.0000 -0.0000
vn -0.8172 -0.0000 0.5764
vn 0.2850 0.8012 0.5262
vn 0.7831 0.5199 0.3414
vn 0.4988 0.8667 -0.0000
vn 0.4541 0.3014 0.8384
vn 0.7831 0.5198 0.3414
vn 0.4540 0.3014 0.8385
vn 0.4541 0.3014 0.8385
vn 0.8172 -0.0000 0.5764
vn -0.0000 -0.0000 1.0000
vn -0.0000 0.5027 0.8644
vn -0.4540 -0.3014 0.8385
vn -0.4541 -0.3014 0.8385
vn -0.0000 -0.5027 0.8644
vn -0.7831 -0.5198 0.3414
vn -1.0000 -0.0001 -0.0000
vn -0.7831 -0.5198 -0.3414
vn -0.7831 -0.5198 -0.3413
vn -0.4988 -0.8667 -0.0000
vn -0.7831 -0.5198 0.3413
vn -0.4541 -0.3014 -0.8385
vn -0.8171 -0.0000 -0.5764
vn -0.0000 -0.0000 -1.0000
vn -0.4540 -0.3014 -0.8385
vn -0.0000 0.5027 -0.8644
vn -0.0000 -0.5027 -0.8644
vn 0.4540 0.3014 -0.8385
vn 0.7831 0.5198 -0.3414
vn 0.4540 0.3015 -0.8384
vn 0.4987 0.8667 -0.0000
vn 0.7831 0.5199 -0.3414
vn 0.8171 -0.0000 -0.5764
vn 0.4541 0.3014 -0.8385
vn 0.7831 -0.5199 0.3414
vn 0.2850 -0.8012 0.5262
vn 0.4987 -0.8667 -0.0000
vn 0.7831 -0.5198 0.3414
vn 0.4540 -0.3015 0.8384
vn 0.2849 -0.8012 0.5262
vn 0.8171 -0.0000 0.5764
vn 0.4541 -0.3014 0.8385
vn 0.4540 -0.3014 0.8385
vn -0.0000 -0.5028 0.8644
vn -0.0000 -1.0000 -0.0000
vn 0.4987 -0.8668 -0.0000
vn -0.2849 -0.8012 0.5262
vn -0.4987 -0.8668 -0.0000
vn 0.2849 -0.8012 -0.5262
vn -0.2849 -0.8012 -0.5262
vn -0.2850 -0.8012 -0.5262
vn -0.0000 -0.5028 -0.8644
vn 0.2850 -0.8012 -0.5262
vn 0.7831 -0.5199 -0.3414
vn 0.4988 -0.8667 -0.0000
vn 0.4541 -0.3014 -0.8384
vn 0.7831 -0.5198 -0.3414
vn 0.4540 -0.3014 -0.8385
vn 0.4541 -0.3014 -0.8385
vn 0.8172 -0.0000 -0.5764
vn 0.7831 -0.5198 -0.3413
vn 0.7831 -0.5198 0.3413
vn 1.0000 -0.0001 -0.0000
vn 1.0000 -0.0000 -0.0000
vn -0.2850 -0.8012 0.5262
vn -0.7831 -0.5199 0.3414
vn -0.4541 -0.3014 0.8384
vn -0.4540 -0.3015 -0.8384
vn -0.4987 -0.8667 -0.0000
vn -0.7831 -0.5199 -0.3414
vn 1.0000 0.0001 -0.0000
vn 0.7831 0.5198 -0.3413
vn 0.7831 0.5198 0.3413
vt 0.774977 0.329419
vt 0.774977 0.303919
vt 0.792041 0.314582
vt 0.390555 0.769479
vt 0.372976 0.760512
vt 0.390555 0.743979
vt 0.868162 0.720037
vt 0.880876 0.701165
vt 0.886645 0.720037
vt 0.391444 0.822361
vt 0.372976 0.807209
vt 0.391444 0.800730
vt 0.499211 0.258005
vt 0.479783 0.273082
vt 0.479783 0.252770
vt 0.762052 0.072395
vt 0.780592 0.072395
vt 0.765514 0.091824
vt 0.873686 0.893050
vt 0.885382 0.881681
vt 0.885382 0.908741
vt 0.730736 0.085969
vt 0.711307 0.091205
vt 0.711307 0.070892
vt 0.724891 0.809185
vt 0.744319 0.824263
vt 0.724891 0.829498
vt 0.677276 0.862296
vt 0.692353 0.881724
vt 0.673813 0.881724
vt 0.049602 0.809505
vt 0.069030 0.814740
vt 0.049602 0.829818
vt 0.826943 0.883058
vt 0.838640 0.898750
vt 0.826943 0.910119
vt 0.795692 0.753801
vt 0.782179 0.775426
vt 0.775571 0.753801
vt 0.637290 0.755161
vt 0.637290 0.779294
vt 0.618715 0.772631
vt 0.740279 0.866160
vt 0.724891 0.883806
vt 0.724891 0.860750
vt 0.873686 0.850429
vt 0.873686 0.827674
vt 0.889015 0.838001
vt 0.106907 0.762417
vt 0.106907 0.738402
vt 0.126068 0.750410
vt 0.254379 0.728683
vt 0.233445 0.716676
vt 0.254379 0.704669
vt 0.233445 0.827952
vt 0.248936 0.813902
vt 0.248936 0.838035
vt 0.378294 0.873839
vt 0.372976 0.853613
vt 0.391459 0.853613
vt 0.438949 0.797443
vt 0.452462 0.775818
vt 0.459070 0.797443
vt 0.725744 0.777934
vt 0.725744 0.753801
vt 0.744319 0.760464
vt 0.049602 0.878716
vt 0.064990 0.861070
vt 0.064990 0.884126
vt 0.634044 0.865795
vt 0.634044 0.888550
vt 0.618715 0.878223
vt 0.304230 0.754441
vt 0.290505 0.731932
vt 0.312232 0.731932
vt 0.312836 0.645035
vt 0.290505 0.632685
vt 0.312836 0.618672
vt 0.780592 0.028385
vt 0.763493 0.041144
vt 0.763493 0.015626
vt 0.733745 0.722549
vt 0.725743 0.700041
vt 0.747470 0.700041
vt 0.835243 0.456799
vt 0.835243 0.432666
vt 0.850734 0.442749
vt 0.732241 0.027633
vt 0.711307 0.039640
vt 0.711307 0.015626
vt 0.842434 0.841724
vt 0.826943 0.851806
vt 0.826943 0.827674
vt 0.563984 0.763976
vt 0.563984 0.741364
vt 0.584333 0.751225
vt 0.862048 0.779319
vt 0.862048 0.753801
vt 0.875655 0.766560
vt 0.163371 0.711324
vt 0.163371 0.686994
vt 0.185099 0.697941
vt 0.701153 0.490120
vt 0.701153 0.511847
vt 0.679915 0.499977
vt 0.736295 0.179160
vt 0.755261 0.189760
vt 0.736295 0.203489
vt 0.775571 0.828309
vt 0.775571 0.806678
vt 0.794039 0.821830
vt 0.049602 0.754121
vt 0.068178 0.771591
vt 0.049602 0.778254
vt 0.798843 0.700041
vt 0.792234 0.721666
vt 0.778722 0.700041
vt 0.873588 0.388293
vt 0.888917 0.377966
vt 0.888917 0.400721
vt 0.792999 0.123424
vt 0.806512 0.145049
vt 0.786391 0.145049
vt 0.673813 0.762309
vt 0.692389 0.755646
vt 0.692389 0.779779
vt 0.506275 0.890862
vt 0.506275 0.868106
vt 0.521604 0.880535
vt 0.877576 0.067780
vt 0.877576 0.091193
vt 0.862423 0.085157
vt 0.803991 0.432666
vt 0.803991 0.457259
vt 0.787944 0.444805
vt 0.858382 0.303919
vt 0.873029 0.315286
vt 0.858382 0.328512
vt 0.896324 0.190529
vt 0.884627 0.206221
vt 0.884627 0.179160
vt 0.793994 0.543660
vt 0.810041 0.555799
vt 0.793994 0.568252
vt 0.306552 0.785692
vt 0.306552 0.810285
vt 0.290505 0.798146
vt 0.858517 0.243921
vt 0.873164 0.257147
vt 0.858517 0.268514
vt 0.122954 0.806122
vt 0.106907 0.818261
vt 0.106907 0.793668
vt 0.899732 0.570721
vt 0.888035 0.559352
vt 0.899732 0.543660
vt 0.801805 0.644395
vt 0.788292 0.666020
vt 0.781684 0.644395
vt 0.780410 0.243921
vt 0.780410 0.268054
vt 0.761834 0.261391
vt 0.563984 0.810380
vt 0.582452 0.795228
vt 0.582452 0.816859
vt 0.233445 0.892042
vt 0.233445 0.869286
vt 0.248774 0.879613
vt 0.163371 0.755327
vt 0.183720 0.742575
vt 0.183720 0.765188
vt 0.743726 0.329419
vt 0.722792 0.317412
vt 0.743726 0.305404
vt 0.438949 0.842745
vt 0.454440 0.828695
vt 0.454440 0.852828
vt 0.853254 0.147556
vt 0.837764 0.133506
vt 0.853254 0.123424
vt 0.755139 0.123424
vt 0.755139 0.147753
vt 0.736174 0.137153
vt 0.690602 0.557042
vt 0.712330 0.543660
vt 0.712330 0.567989
vt 0.868162 0.657154
vt 0.881769 0.644395
vt 0.881769 0.669913
vt 0.753642 0.501990
vt 0.732404 0.511847
vt 0.732404 0.490120
vt 0.784893 0.511745
vt 0.798406 0.490120
vt 0.805014 0.511745
vt 0.514423 0.781385
vt 0.506275 0.758670
vt 0.526009 0.758670
vt 0.181839 0.802918
vt 0.163371 0.818070
vt 0.163371 0.796439
vt 0.897314 0.432666
vt 0.897314 0.455422
vt 0.881985 0.445095
vt 0.790724 0.865596
vt 0.775571 0.882974
vt 0.775571 0.859560
vt 0.241593 0.759935
vt 0.253179 0.782651
vt 0.233445 0.782651
vt 0.806633 0.179160
vt 0.800025 0.200785
vt 0.786512 0.179160
vt 0.884506 0.133751
vt 0.899835 0.123424
vt 0.899835 0.146179
vt 0.774777 0.386189
vt 0.774777 0.360670
vt 0.791876 0.373430
vt 0.587463 0.640788
vt 0.565133 0.654801
vt 0.565133 0.628438
vt 0.750432 0.666903
vt 0.728706 0.666903
vt 0.742431 0.644395
vt 0.756692 0.457259
vt 0.734966 0.457259
vt 0.742967 0.434750
vt 0.837885 0.203293
vt 0.837885 0.179160
vt 0.853376 0.189243
vt 0.730583 0.255929
vt 0.709649 0.267936
vt 0.709649 0.243921
vt 0.856784 0.557710
vt 0.841293 0.567793
vt 0.841293 0.543660
vt 0.762743 0.567674
vt 0.743581 0.555667
vt 0.762743 0.543660
s 0
usemtl planter
f 1/1/1 2/2/2 3/3/3
f 4/4/4 5/5/5 6/6/6
f 7/7/7 8/8/8 9/9/4
f 10/10/9 11/11/10 12/12/6
f 13/13/2 14/14/11 15/15/12
f 16/16/6 17/17/13 18/18/11
f 19/19/10 20/20/13 21/21/6
f 22/22/13 23/23/14 24/24/11
f 25/25/11 26/26/15 27/27/12
f 28/28/11 29/29/16 30/30/15
f 31/31/14 32/32/17 33/33/11
f 34/34/16 35/35/18 36/36/15
f 37/37/19 38/38/20 39/39/21
f 40/40/15 41/41/22 42/42/23
f 43/43/18 44/44/24 45/45/15
f 46/46/25 47/47/26 48/48/23
f 49/49/27 50/50/28 51/51/21
f 52/52/23 53/53/29 54/54/4
f 55/55/26 56/56/30 57/57/23
f 58/58/30 59/59/31 60/60/4
f 61/61/32 62/62/33 63/63/34
f 64/64/13 65/65/35 66/66/36
f 67/67/10 68/68/37 69/69/13
f 70/70/38 71/71/39 72/72/36
f 73/73/9 74/74/40 75/75/41
f 76/76/9 77/77/42 78/78/40
f 79/79/7 80/80/43 81/81/8
f 82/82/42 83/83/44 84/84/40
f 85/85/30 86/86/45 87/87/31
f 88/88/46 89/89/47 90/90/45
f 91/91/26 92/92/47 93/93/30
f 94/94/48 95/95/49 96/96/50
f 97/97/25 98/98/51 99/99/52
f 100/100/24 101/101/53 102/102/54
f 103/103/55 104/104/53 105/105/24
f 106/106/53 107/107/56 108/108/54
f 109/109/16 110/110/57 111/111/18
f 112/112/16 113/113/58 114/114/59
f 115/115/60 116/116/61 117/117/17
f 118/118/58 119/119/62 120/120/63
f 121/121/64 122/122/65 123/123/66
f 124/124/67 125/125/68 126/126/69
f 127/127/70 128/128/71 129/129/67
f 130/130/72 131/131/73 132/132/69
f 133/133/65 134/134/74 135/135/75
f 136/136/69 137/137/76 138/138/74
f 139/139/73 140/140/76 141/141/69
f 142/142/76 143/143/77 144/144/74
f 145/145/74 146/146/78 147/147/75
f 148/148/74 149/149/79 150/150/78
f 151/151/77 152/152/80 153/153/74
f 154/154/79 155/155/81 156/156/78
f 157/157/82 158/158/83 159/159/84
f 160/160/78 161/161/85 162/162/86
f 163/163/81 164/164/87 165/165/78
f 166/166/88 167/167/89 168/168/86
f 169/169/90 170/170/91 171/171/84
f 172/172/86 173/173/92 174/174/67
f 175/175/89 176/176/93 177/177/86
f 178/178/93 179/179/39 180/180/67
f 181/181/72 182/182/40 183/183/44
f 184/184/72 185/185/37 186/186/40
f 187/187/70 188/188/38 189/189/71
f 190/190/37 191/191/41 192/192/40
f 193/193/94 194/194/95 195/195/49
f 196/196/76 197/197/96 198/198/45
f 199/199/73 200/200/42 201/201/76
f 202/202/43 203/203/31 204/204/45
f 205/205/79 206/206/54 207/207/81
f 208/208/79 209/209/47 210/210/97
f 211/211/98 212/212/99 213/213/80
f 214/214/47 215/215/52 216/216/51
f 217/217/88 218/218/63 219/219/62
f 220/220/87 221/221/53 222/222/57
f 223/223/56 224/224/53 225/225/87
f 226/226/53 227/227/55 228/228/57
f 229/229/93 230/230/36 231/231/39
f 232/232/100 233/233/58 234/234/36
f 235/235/89 236/236/58 237/237/93
f 238/238/101 239/239/34 240/240/102
o bush_side
v -0.729221 1.270885 0.338748
v -0.440000 1.445630 0.449221
v -0.618749 1.553629 0.160000
v -0.440000 1.445630 0.449221
v -0.261251 1.553629 0.160000
v -0.618749 1.553629 0.160000
v -0.261251 1.553629 0.160000
v -0.440000 1.445630 -0.129221
v -0.618749 1.553629 0.160000
v -0.440000 1.445630 -0.129221
v -0.729221 1.270885 -0.018749
v -0.618749 1.553629 0.160000
v -0.729221 1.270885 -0.018749
v -0.729221 1.270885 0.338748
v -0.618749 1.553629 0.160000
v -0.440000 1.445630 0.449221
v -0.150779 1.270885 0.338748
v -0.261251 1.553629 0.160000
v -0.729221 1.270885 0.338748
v -0.440000 1.096140 0.449221
v -0.440000 1.445630 0.449221
v -0.729221 1.270885 -0.018749
v -0.618749 0.988141 0.160000
v -0.729221 1.270885 0.338748
v -0.440000 1.445630 -0.129221
v -0.440000 1.096140 -0.129221
v -0.729221 1.270885 -0.018749
v -0.261251 1.553629 0.160000
v -0.150779 1.270885 -0.018749
v -0.440000 1.445630 -0.129221
v -0.150779 1.270885 0.338748
v -0.440000 1.096140 0.449221
v -0.261251 0.988141 0.160000
v -0.440000 1.096140 0.449221
v -0.618749 0.988141 0.160000
v -0.261251 0.988141 0.160000
v -0.618749 0.988141 0.160000
v -0.440000 1.096140 -0.129221
v -0.261251 0.988141 0.160000
v -0.440000 1.096140 -0.129221
v -0.150779 1.270885 -0.018749
v -0.261251 0.988141 0.160000
v -0.150779 1.270885 -0.018749
v -0.150779 1.270885 0.338748
v -0.261251 0.988141 0.160000
v -0.150779 1.270885 0.338748
v -0.440000 1.445630 0.449221
v -0.440000 1.096140 0.449221
v -0.440000 1.096140 0.449221
v -0.729221 1.270885 0.338748
v -0.618749 0.988141 0.160000
v -0.618749 0.988141 0.160000
v -0.729221 1.270885 -0.018749
v -0.440000 1.096140 -0.129221
v -0.440000 1.096140 -0.129221
v -0.440000 1.445630 -0.129221
v -0.150779 1.270885 -0.018749
v -0.150779 1.270885 -0.018749
v -0.261251 1.553629 0.160000
v -0.150779 1.270885 0.338748
vn -0.5729 0.5861 0.5729
vn -0.0000 0.9368 0.3498
vn -0.0000 0.9368 -0.3498
vn -0.5729 0.5861 -0.5729
vn -0.9314 0.3639 -0.0000
vn 0.5729 0.5861 0.5729
vn -0.3568 -0.0000 0.9342
vn -0.9314 -0.3639 -0.0000
vn -0.3568 -0.0000 -0.9342
vn 0.5729 0.5861 -0.5729
vn 0.5729 -0.5861 0.5729
vn -0.0000 -0.9368 0.3498
vn -0.0000 -0.9368 -0.3498
vn 0.5729 -0.5861 -0.5729
vn 0.9314 -0.3639 -0.0000
vn 0.3568 -0.0000 0.9342
vn -0.5729 -0.5861 0.5729
vn -0.5729 -0.5861 -0.5729
vn 0.3568 -0.0000 -0.9342
vn 0.9314 0.3639 -0.0000
vt 0.811844 0.027995
vt 0.827448 0.015626
vt 0.827448 0.039927
vt 0.070678 0.698568
vt 0.070678 0.722869
vt 0.049602 0.710667
vt 0.693141 0.825847
vt 0.673813 0.831044
vt 0.673813 0.811030
vt 0.182410 0.869172
vt 0.163371 0.863930
vt 0.182410 0.849322
vt 0.673813 0.724394
vt 0.673813 0.700041
vt 0.694492 0.712217
vt 0.842336 0.377966
vt 0.842336 0.397878
vt 0.823292 0.393062
vt 0.857013 0.500504
vt 0.841293 0.512408
vt 0.841293 0.488601
vt 0.106907 0.869037
vt 0.106907 0.849512
vt 0.126172 0.863820
vt 0.290505 0.865344
vt 0.290505 0.841536
vt 0.306225 0.853440
vt 0.506275 0.824443
vt 0.521728 0.812637
vt 0.521728 0.836855
vt 0.618715 0.810546
vt 0.634464 0.822460
vt 0.618715 0.834543
vt 0.831171 0.071179
vt 0.831171 0.091193
vt 0.811844 0.076376
vt 0.394051 0.700628
vt 0.372976 0.712727
vt 0.372976 0.688426
vt 0.827266 0.268223
vt 0.811661 0.255854
vt 0.827266 0.243921
vt 0.506275 0.715778
vt 0.527260 0.703421
vt 0.527260 0.727418
vt 0.722792 0.384888
vt 0.722792 0.360671
vt 0.743525 0.372373
vt 0.618715 0.711826
vt 0.639799 0.699912
vt 0.639799 0.723910
vt 0.583288 0.848110
vt 0.583288 0.867754
vt 0.563984 0.862872
vt 0.459682 0.744567
vt 0.438949 0.732864
vt 0.459682 0.720349
vt 0.858700 0.035103
vt 0.858700 0.015626
vt 0.877707 0.019878
s 0
usemtl planter
f 241/241/103 242/242/103 243/243/103
f 244/244/104 245/245/104 246/246/104
f 247/247/105 248/248/105 249/249/105
f 250/250/106 251/251/106 252/252/106
f 253/253/107 254/254/107 255/255/107
f 256/256/108 257/257/108 258/258/108
f 259/259/109 260/260/109 261/261/109
f 262/262/110 263/263/110 264/264/110
f 265/265/111 266/266/111 267/267/111
f 268/268/112 269/269/112 270/270/112
f 271/271/113 272/272/113 273/273/113
f 274/274/114 275/275/114 276/276/114
f 277/277/115 278/278/115 279/279/115
f 280/280/116 281/281/116 282/282/116
f 283/283/117 284/284/117 285/285/117
f 286/286/118 287/287/118 288/288/118
f 289/289/119 290/290/119 291/291/119
f 292/292/120 293/293/120 294/294/120
f 295/295/121 296/296/121 297/297/121
f 298/298/122 299/299/122 300/300/122
o bush_top
v -0.237273 2.150728 0.170807
v 0.120000 2.366590 0.307273
v -0.100807 2.500000 -0.050000
v 0.120000 2.366590 0.307273
v 0.340807 2.500000 -0.050000
v -0.100807 2.500000 -0.050000
v 0.340807 2.500000 -0.050000
v 0.120000 2.366590 -0.407274
v -0.100807 2.500000 -0.050000
v 0.120000 2.366590 -0.407274
v -0.237273 2.150728 -0.270807
v -0.100807 2.500000 -0.050000
v -0.237273 2.150728 -0.270807
v -0.237273 2.150728 0.170807
v -0.100807 2.500000 -0.050000
v 0.120000 2.366590 0.307273
v 0.477273 2.150728 0.170807
v 0.340807 2.500000 -0.050000
v -0.237273 2.150728 0.170807
v 0.120000 1.934866 0.307273
v 0.120000 2.366590 0.307273
v -0.237273 2.150728 -0.270807
v -0.100807 1.801456 -0.050000
v -0.237273 2.150728 0.170807
v 0.120000 2.366590 -0.407274
v 0.120000 1.934866 -0.407273
v -0.237273 2.150728 -0.270807
v 0.340807 2.500000 -0.050000
v 0.477273 2.150728 -0.270807
v 0.120000 2.366590 -0.407274
v 0.477273 2.150728 0.170807
v 0.120000 1.934866 0.307273
v 0.340807 1.801456 -0.050000
v 0.120000 1.934866 0.307273
v -0.100807 1.801456 -0.050000
v 0.340807 1.801456 -0.050000
v -0.100807 1.801456 -0.050000
v 0.120000 1.934866 -0.407273
v 0.340807 1.801456 -0.050000
v 0.120000 1.934866 -0.407273
v 0.477273 2.150728 -0.270807
v 0.340807 1.801456 -0.050000
v 0.477273 2.150728 -0.270807
v 0.477273 2.150728 0.170807
v 0.340807 1.801456 -0.050000
v 0.477273 2.150728 0.170807
v 0.120000 2.366590 0.307273
v 0.120000 1.934866 0.307273
v 0.120000 1.934866 0.307273
v -0.237273 2.150728 0.170807
v -0.100807 1.801456 -0.050000
v -0.100807 1.801456 -0.050000
v -0.237273 2.150728 -0.270807
v 0.120000 1.934866 -0.407273
v 0.120000 1.934866 -0.407273
v 0.120000 2.366590 -0.407274
v 0.477273 2.150728 -0.270807
v 0.477273 2.150728 -0.270807
v 0.340807 2.500000 -0.050000
v 0.477273 2.150728 0.170807
vn -0.5729 0.5861 0.5729
vn -0.0000 0.9368 0.3498
vn -0.0000 0.9368 -0.3498
vn -0.5729 0.5861 -0.5729
vn -0.9314 0.3639 -0.0000
vn 0.5729 0.5861 0.5729
vn -0.3568 -0.0000 0.9342
vn -0.9314 -0.3639 -0.0000
vn -0.3568 -0.0000 -0.9342
vn 0.5729 0.5861 -0.5729
vn 0.5729 -0.5861 0.5729
vn -0.0000 -0.9368 0.3498
vn -0.0000 -0.9368 -0.3498
vn 0.5729 -0.5861 -0.5729
vn 0.9314 -0.3639 -0.0000
vn 0.3568 -0.0000 0.9342
vn -0.5729 -0.5861 0.5729
vn -0.5729 -0.5861 -0.5729
vn 0.3568 -0.0000 -0.9342
vn 0.9314 0.3639 -0.0000
vt 0.233445 0.587253
vt 0.233445 0.557337
vt 0.259254 0.572669
vt 0.187246 0.631020
vt 0.187246 0.655743
vt 0.163371 0.637440
vt 0.372976 0.542548
vt 0.398955 0.557590
vt 0.372976 0.572631
vt 0.678397 0.262156
vt 0.654551 0.268187
vt 0.654551 0.243921
vt 0.703714 0.458869
vt 0.679915 0.452424
vt 0.703714 0.434750
vt 0.697454 0.644395
vt 0.697454 0.668789
vt 0.673813 0.650905
vt 0.705044 0.179160
vt 0.705044 0.203518
vt 0.681598 0.185764
vt 0.546145 0.586005
vt 0.520600 0.570963
vt 0.546145 0.555922
vt 0.106907 0.700547
vt 0.130352 0.682793
vt 0.130352 0.707151
vt 0.642562 0.644395
vt 0.642562 0.668661
vt 0.618715 0.662630
vt 0.438949 0.664831
vt 0.462796 0.670862
vt 0.438949 0.689097
vt 0.574367 0.030667
vt 0.548387 0.045709
vt 0.548387 0.015626
vt 0.603678 0.243921
vt 0.623299 0.258963
vt 0.603678 0.274005
vt 0.704922 0.147908
vt 0.681598 0.129175
vt 0.704922 0.123424
vt 0.563984 0.704860
vt 0.587463 0.686053
vt 0.587463 0.710112
vt 0.572427 0.259300
vt 0.546374 0.274005
vt 0.546374 0.244595
vt 0.073127 0.642719
vt 0.073127 0.667316
vt 0.049602 0.661367
vt 0.290505 0.694171
vt 0.314146 0.676286
vt 0.314146 0.700681
vt 0.049602 0.611467
vt 0.049602 0.582058
vt 0.075655 0.596762
vt 0.316050 0.587420
vt 0.290505 0.572378
vt 0.316050 0.557337
s 0
usemtl planter
f 301/301/123 302/302/123 303/303/123
f 304/304/124 305/305/124 306/306/124
f 307/307/125 308/308/125 309/309/125
f 310/310/126 311/311/126 312/312/126
f 313/313/127 314/314/127 315/315/127
f 316/316/128 317/317/128 318/318/128
f 319/319/129 320/320/129 321/321/129
f 322/322/130 323/323/130 324/324/130
f 325/325/131 326/326/131 327/327/131
f 328/328/132 329/329/132 330/330/132
f 331/331/133 332/332/133 333/333/133
f 334/334/134 335/335/134 336/336/134
f 337/337/135 338/338/135 339/339/135
f 340/340/136 341/341/136 342/342/136
f 343/343/137 344/344/137 345/345/137
f 346/346/138 347/347/138 348/348/138
f 349/349/139 350/350/139 351/351/139
f 352/352/140 353/353/140 354/354/140
f 355/355/141 356/356/141 357/357/141
f 358/358/142 359/359/142 360/360/142
o flower_0
v 0.406428 1.857447 0.057830
v 0.500000 1.913982 0.093571
v 0.442170 1.948923 -0.000000
v 0.500000 1.913982 0.093571
v 0.557830 1.948923 -0.000000
v 0.442170 1.948923 -0.000000
v 0.557830 1.948923 -0.000000
v 0.500000 1.913982 -0.093572
v 0.442170 1.948923 -0.000000
v 0.500000 1.913982 -0.093572
v 0.406428 1.857447 -0.057831
v 0.442170 1.948923 -0.000000
v 0.406428 1.857447 -0.057831
v 0.406428 1.857447 0.057830
v 0.442170 1.948923 -0.000000
v 0.500000 1.913982 0.093571
v 0.593572 1.857447 0.057830
v 0.557830 1.948923 -0.000000
v 0.406428 1.857447 0.057830
v 0.500000 1.800912 0.093571
v 0.500000 1.913982 0.093571
v 0.406428 1.857447 -0.057831
v 0.442170 1.765971 -0.000000
v 0.406428 1.857447 0.057830
v 0.500000 1.913982 -0.093572
v 0.500000 1.800912 -0.093572
v 0.406428 1.857447 -0.057831
v 0.557830 1.948923 -0.000000
v 0.593572 1.857447 -0.057831
v 0.500000 1.913982 -0.093572
v 0.593572 1.857447 0.057830
v 0.500000 1.800912 0.093571
v 0.557830 1.765971 -0.000000
v 0.500000 1.800912 0.093571
v 0.442170 1.765971 -0.000000
v 0.557830 1.765971 -0.000000
v 0.442170 1.765971 -0.000000
v 0.500000 1.800912 -0.093572
v 0.557830 1.765971 -0.000000
v 0.500000 1.800912 -0.093572
v 0.593572 1.857447 -0.057831
v 0.557830 1.765971 -0.000000
v 0.593572 1.857447 -0.057831
v 0.593572 1.857447 0.057830
v 0.557830 1.765971 -0.000000
v 0.593572 1.857447 0.057830
v 0.500000 1.913982 0.093571
v 0.500000 1.800912 0.093571
v 0.500000 1.800912 0.093571
v 0.406428 1.857447 0.057830
v 0.442170 1.765971 -0.000000
v 0.442170 1.765971 -0.000000
v 0.406428 1.857447 -0.057831
v 0.500000 1.800912 -0.093572
v 0.500000 1.800912 -0.093572
v 0.500000 1.913982 -0.093572
v 0.593572 1.857447 -0.057831
v 0.593572 1.857447 -0.057831
v 0.557830 1.948923 -0.000000
v 0.593572 1.857447 0.057830
vn -0.5729 0.5861 0.5729
vn -0.0000 0.9368 0.3498
vn -0.0000 0.9368 -0.3498
vn -0.5729 0.5861 -0.5729
vn -0.9314 0.3639 -0.0000
vn 0.5729 0.5861 0.5729
vn -0.3568 -0.0000 0.9342
vn -0.9314 -0.3639 -0.0000
vn -0.3568 -0.0000 -0.9342
vn 0.5729 0.5861 -0.5729
vn 0.5729 -0.5861 0.5729
vn -0.0000 -0.9368 0.3498
vn -0.0000 -0.9368 -0.3498
vn 0.5729 -0.5861 -0.5729
vn 0.9314 -0.3639 -0.0000
vn 0.3568 -0.0000 0.9342
vn -0.5729 -0.5861 0.5729
vn -0.5729 -0.5861 -0.5729
vn 0.3568 -0.0000 -0.9342
vn 0.9314 0.3639 -0.0000
vt 0.233445 0.929736
vt 0.233445 0.923293
vt 0.239606 0.928177
vt 0.649996 0.391971
vt 0.656814 0.395885
vt 0.649996 0.399833
vt 0.445202 0.923166
vt 0.445202 0.929641
vt 0.438949 0.927960
vt 0.780666 0.918135
vt 0.775571 0.921989
vt 0.775571 0.914225
vt 0.895812 0.613144
vt 0.895812 0.605265
vt 0.902502 0.609204
vt 0.932437 0.488601
vt 0.932437 0.495043
vt 0.926275 0.493485
vt 0.953174 0.015626
vt 0.953174 0.022005
vt 0.947033 0.017355
vt 0.379073 0.950635
vt 0.372976 0.948984
vt 0.379073 0.944177
vt 0.949411 0.649045
vt 0.955551 0.644395
vt 0.955551 0.650774
vt 0.729986 0.915058
vt 0.729986 0.922822
vt 0.724891 0.918967
vt 0.781797 0.959532
vt 0.775571 0.954776
vt 0.781797 0.953241
vt 0.916634 0.920794
vt 0.922887 0.922476
vt 0.916634 0.927270
vt 0.697421 0.603189
vt 0.690603 0.607103
vt 0.690602 0.599241
vt 0.934811 0.437442
vt 0.928566 0.439022
vt 0.928566 0.432666
vt 0.920169 0.385845
vt 0.920169 0.377966
vt 0.925087 0.381905
vt 0.913730 0.757652
vt 0.906907 0.761504
vt 0.906907 0.753801
vt 0.857824 0.605281
vt 0.864560 0.609283
vt 0.857824 0.613144
vt 0.296751 0.935611
vt 0.296751 0.941966
vt 0.290505 0.940387
vt 0.908828 0.075482
vt 0.908828 0.067780
vt 0.915651 0.071631
vt 0.290505 0.904359
vt 0.290505 0.896595
vt 0.297294 0.900361
s 0
usemtl planter
f 361/361/143 362/362/143 363/363/143
f 364/364/144 365/365/144 366/366/144
f 367/367/145 368/368/145 369/369/145
f 370/370/146 371/371/146 372/372/146
f 373/373/147 374/374/147 375/375/147
f 376/376/148 377/377/148 378/378/148
f 379/379/149 380/380/149 381/381/149
f 382/382/150 383/383/150 384/384/150
f 385/385/151 386/386/151 387/387/151
f 388/388/152 389/389/152 390/390/152
f 391/391/153 392/392/153 393/393/153
f 394/394/154 395/395/154 396/396/154
f 397/397/155 398/398/155 399/399/155
f 400/400/156 401/401/156 402/402/156
f 403/403/157 404/404/157 405/405/157
f 406/406/158 407/407/158 408/408/158
f 409/409/159 410/410/159 411/411/159
f 412/412/160 413/413/160 414/414/160
f 415/415/161 416/416/161 417/417/161
f 418/418/162 419/419/162 420/420/162
o flower_1
v -0.345995 2.068416 0.385850
v -0.252423 2.124952 0.421591
v -0.310253 2.159892 0.328019
v -0.252423 2.124952 0.421591
v -0.194593 2.159892 0.328019
v -0.310253 2.159892 0.328019
v -0.194593 2.159892 0.328019
v -0.252423 2.124952 0.234448
v -0.310253 2.159892 0.328019
v -0.252423 2.124952 0.234448
v -0.345995 2.068416 0.270189
v -0.310253 2.159892 0.328019
v -0.345995 2.068416 0.270189
v -0.345995 2.068416 0.385850
v -0.310253 2.159892 0.328019
v -0.252423 2.124952 0.421591
v -0.158851 2.068416 0.385850
v -0.194593 2.159892 0.328019
v -0.345995 2.068416 0.385850
v -0.252423 2.011881 0.421591
v -0.252423 2.124952 0.421591
v -0.345995 2.068416 0.270189
v -0.310253 1.976940 0.328019
v -0.345995 2.068416 0.385850
v -0.252423 2.124952 0.234448
v -0.252423 2.011881 0.234448
v -0.345995 2.068416 0.270189
v -0.194593 2.159892 0.328019
v -0.158851 2.068416 0.270189
v -0.252423 2.124952 0.234448
v -0.158851 2.068416 0.385850
v -0.252423 2.011881 0.421591
v -0.194593 1.976940 0.328019
v -0.252423 2.011881 0.421591
v -0.310253 1.976940 0.328019
v -0.194593 1.976940 0.328019
v -0.310253 1.976940 0.328019
v -0.252423 2.011881 0.234448
v -0.194593 1.976940 0.328019
v -0.252423 2.011881 0.234448
v -0.158851 2.068416 0.270189
v -0.194593 1.976940 0.328019
v -0.158851 2.068416 0.270189
v -0.158851 2.068416 0.385850
v -0.194593 1.976940 0.328019
v -0.158851 2.068416 0.385850
v -0.252423 2.124952 0.421591
v -0.252423 2.011881 0.421591
v -0.252423 2.011881 0.421591
v -0.345995 2.068416 0.385850
v -0.310253 1.976940 0.328019
v -0.310253 1.976940 0.328019
v -0.345995 2.068416 0.270189
v -0.252423 2.011881 0.234448
v -0.252423 2.011881 0.234448
v -0.252423 2.124952 0.234448
v -0.158851 2.068416 0.270189
v -0.158851 2.068416 0.270189
v -0.194593 2.159892 0.328019
v -0.158851 2.068416 0.385850
vn -0.5729 0.5861 0.5729
vn -0.0000 0.9368 0.3498
vn -0.0000 0.9368 -0.3498
vn -0.5729 0.5861 -0.5729
vn -0.9314 0.3639 -0.0000
vn 0.5729 0.5861 0.5729
vn -0.3568 -0.0000 0.9342
vn -0.9314 -0.3639 -0.0000
vn -0.3568 -0.0000 -0.9342
vn 0.5729 0.5861 -0.5729
vn 0.5729 -0.5861 0.5729
vn -0.0000 -0.9368 0.3498
vn -0.0000 -0.9368 -0.3498
vn 0.5729 -0.5861 -0.5729
vn 0.9314 -0.3639 -0.0000
vn 0.3568 -0.0000 0.9342
vn -0.5729 -0.5861 0.5729
vn -0.5729 -0.5861 -0.5729
vn 0.3568 -0.0000 -0.9342
vn 0.9314 0.3639 -0.0000
vt 0.916634 0.885683
vt 0.921682 0.881681
vt 0.921682 0.889543
vt 0.819754 0.605281
vt 0.826573 0.609196
vt 0.819754 0.613144
vt 0.624968 0.919802
vt 0.624968 0.926277
vt 0.618715 0.924595
vt 0.873686 0.946382
vt 0.873686 0.939993
vt 0.879877 0.944677
vt 0.328546 0.900593
vt 0.335335 0.896595
vt 0.335335 0.904359
vt 0.106907 0.940883
vt 0.113152 0.939304
vt 0.113152 0.945659
vt 0.922982 0.705016
vt 0.917896 0.708867
vt 0.917896 0.701165
vt 0.951079 0.760259
vt 0.944982 0.758608
vt 0.951079 0.753801
vt 0.673813 0.952106
vt 0.679954 0.956756
vt 0.673813 0.958485
vt 0.163371 0.939439
vt 0.169531 0.944165
vt 0.163371 0.945861
vt 0.946903 0.072686
vt 0.953012 0.067780
vt 0.953012 0.074192
vt 0.506275 0.922113
vt 0.512528 0.923795
vt 0.506275 0.928588
vt 0.735491 0.599241
vt 0.735491 0.607103
vt 0.728672 0.603189
vt 0.939999 0.610040
vt 0.933754 0.611620
vt 0.933754 0.605265
vt 0.920266 0.835553
vt 0.920266 0.827674
vt 0.925184 0.831613
vt 0.904280 0.311754
vt 0.904280 0.303919
vt 0.910988 0.307705
vt 0.895024 0.488601
vt 0.895024 0.496436
vt 0.888264 0.492616
vt 0.334792 0.935611
vt 0.334792 0.941966
vt 0.328546 0.940387
vt 0.911123 0.251757
vt 0.904416 0.247971
vt 0.911123 0.243921
vt 0.563984 0.906770
vt 0.563984 0.899006
vt 0.570773 0.902772
s 0
usemtl planter
f 421/421/163 422/422/163 423/423/163
f 424/424/164 425/425/164 426/426/164
f 427/427/165 428/428/165 429/429/165
f 430/430/166 431/431/166 432/432/166
f 433/433/167 434/434/167 435/435/167
f 436/436/168 437/437/168 438/438/168
f 439/439/169 440/440/169 441/441/169
f 442/442/170 443/443/170 444/444/170
f 445/445/171 446/446/171 447/447/171
f 448/448/172 449/449/172 450/450/172
f 451/451/173 452/452/173 453/453/173
f 454/454/174 455/455/174 456/456/174
f 457/457/175 458/458/175 459/459/175
f 460/460/176 461/461/176 462/462/176
f 463/463/177 464/464/177 465/465/177
f 466/466/178 467/467/178 468/468/178
f 469/469/179 470/470/179 471/471/179
f 472/472/180 473/473/180 474/474/180
f 475/475/181 476/476/181 477/477/181
f 478/478/182 479/479/182 480/480/182
o flower_2
v -0.338702 1.644433 -0.273368
v -0.245130 1.700968 -0.237627
v -0.302961 1.735909 -0.331199
v -0.245130 1.700968 -0.237627
v -0.187300 1.735909 -0.331199
v -0.302961 1.735909 -0.331199
v -0.187300 1.735909 -0.331199
v -0.245130 1.700968 -0.424770
v -0.302961 1.735909 -0.331199
v -0.245130 1.700968 -0.424770
v -0.338702 1.644433 -0.389029
v -0.302961 1.735909 -0.331199
v -0.338702 1.644433 -0.389029
v -0.338702 1.644433 -0.273368
v -0.302961 1.735909 -0.331199
v -0.245130 1.700968 -0.237627
v -0.151559 1.644433 -0.273368
v -0.187300 1.735909 -0.331199
v -0.338702 1.644433 -0.273368
v -0.245130 1.587898 -0.237627
v -0.245130 1.700968 -0.237627
v -0.338702 1.644433 -0.389029
v -0.302961 1.552957 -0.331199
v -0.338702 1.644433 -0.273368
v -0.245130 1.700968 -0.424770
v -0.245130 1.587898 -0.424770
v -0.338702 1.644433 -0.389029
v -0.187300 1.735909 -0.331199
v -0.151559 1.644433 -0.389029
v -0.245130 1.700968 -0.424770
v -0.151559 1.644433 -0.273368
v -0.245130 1.587898 -0.237627
v -0.187300 1.552957 -0.331199
v -0.245130 1.587898 -0.237627
v -0.302961 1.552957 -0.331199
v -0.187300 1.552957 -0.331199
v -0.302961 1.552957 -0.331199
v -0.245130 1.587898 -0.424770
v -0.187300 1.552957 -0.331199
v -0.245130 1.587898 -0.424770
v -0.151559 1.644433 -0.389029
v -0.187300 1.552957 -0.331199
v -0.151559 1.644433 -0.389029
v -0.151559 1.644433 -0.273368
v -0.187300 1.552957 -0.331199
v -0.151559 1.644433 -0.273368
v -0.245130 1.700968 -0.237627
v -0.245130 1.587898 -0.237627
v -0.245130 1.587898 -0.237627
v -0.338702 1.644433 -0.273368
v -0.302961 1.552957 -0.331199
v -0.302961 1.552957 -0.331199
v -0.338702 1.644433 -0.389029
v -0.245130 1.587898 -0.424770
v -0.245130 1.587898 -0.424770
v -0.245130 1.700968 -0.424770
v -0.151559 1.644433 -0.389029
v -0.151559 1.644433 -0.389029
v -0.187300 1.735909 -0.331199
v -0.151559 1.644433 -0.273368
vn -0.5729 0.5861 0.5729
vn -0.0000 0.9368 0.3498
vn -0.0000 0.9368 -0.3498
vn -0.5729 0.5861 -0.5729
vn -0.9314 0.3639 -0.0000
vn 0.5729 0.5861 0.5729
vn -0.3568 -0.0000 0.9342
vn -0.9314 -0.3639 -0.0000
vn -0.3568 -0.0000 -0.9342
vn 0.5729 0.5861 -0.5729
vn 0.5729 -0.5861 0.5729
vn -0.0000 -0.9368 0.3498
vn -0.0000 -0.9368 -0.3498
vn 0.5729 -0.5861 -0.5729
vn 0.9314 -0.3639 -0.0000
vn 0.3568 -0.0000 0.9342
vn -0.5729 -0.5861 0.5729
vn -0.5729 -0.5861 -0.5729
vn 0.3568 -0.0000 -0.9342
vn 0.9314 0.3639 -0.0000
vt 0.930983 0.543660
vt 0.937229 0.545239
vt 0.930983 0.550015
vt 0.555192 0.080900
vt 0.548387 0.084840
vt 0.548387 0.076961
vt 0.913020 0.644395
vt 0.918159 0.648335
vt 0.913020 0.652274
vt 0.438949 0.891914
vt 0.438949 0.884079
vt 0.445708 0.887899
vt 0.942375 0.250379
vt 0.942375 0.243921
vt 0.948472 0.245572
vt 0.931086 0.125003
vt 0.937332 0.123424
vt 0.937332 0.129779
vt 0.952934 0.881681
vt 0.959074 0.883410
vt 0.952934 0.888060
vt 0.113696 0.904286
vt 0.106907 0.908052
vt 0.106907 0.900288
vt 0.049602 0.923080
vt 0.049602 0.915378
vt 0.054688 0.919229
vt 0.724891 0.960365
vt 0.724891 0.954073
vt 0.731117 0.958830
vt 0.942240 0.310308
vt 0.942240 0.303919
vt 0.948431 0.305624
vt 0.678952 0.916915
vt 0.673813 0.920854
vt 0.673813 0.912975
vt 0.788503 0.605281
vt 0.788503 0.613144
vt 0.781684 0.609229
vt 0.927576 0.185602
vt 0.927576 0.179160
vt 0.933737 0.180718
vt 0.163371 0.904422
vt 0.170160 0.900424
vt 0.170160 0.908188
vt 0.915782 0.019477
vt 0.908958 0.023328
vt 0.908958 0.015626
vt 0.833135 0.941370
vt 0.833135 0.947759
vt 0.826943 0.943075
vt 0.570230 0.938021
vt 0.570230 0.944376
vt 0.563984 0.942797
vt 0.379683 0.912925
vt 0.372976 0.909139
vt 0.379683 0.905090
vt 0.954138 0.927096
vt 0.954138 0.920794
vt 0.960288 0.922170
s 0
usemtl planter
f 481/481/183 482/482/183 483/483/183
f 484/484/184 485/485/184 486/486/184
f 487/487/185 488/488/185 489/489/185
f 490/490/186 491/491/186 492/492/186
f 493/493/187 494/494/187 495/495/187
f 496/496/188 497/497/188 498/498/188
f 499/499/189 500/500/189 501/501/189
f 502/502/190 503/503/190 504/504/190
f 505/505/191 506/506/191 507/507/191
f 508/508/192 509/509/192 510/510/192
f 511/511/193 512/512/193 513/513/193
f 514/514/194 515/515/194 516/516/194
f 517/517/195 518/518/195 519/519/195
f 520/520/196 521/521/196 522/522/196
f 523/523/197 524/524/197 525/525/197
f 526/526/198 527/527/198 528/528/198
f 529/529/199 530/530/199 531/531/199
f 532/532/200 533/533/200 534/534/200
f 535/535/201 536/536/201 537/537/201
f 538/538/202 539/539/202 540/540/202
o pot
v -0.700000 0.039104 -0.510000
v -0.700000 0.664771 0.510000
v -0.700000 0.664770 -0.510000
v -0.700000 0.039104 -0.510000
v -0.700000 0.039104 0.510000
v -0.700000 0.664771 0.510000
v 0.700000 0.039104 -0.510000
v 0.700000 0.664770 -0.510000
v 0.700000 0.664771 0.510000
v 0.700000 0.039104 -0.510000
v 0.700000 0.664771 0.510000
v 0.700000 0.039104 0.510000
v -0.660000 -0.000000 -0.510000
v 0.660000 -0.000000 -0.510000
v 0.660000 0.000000 0.510000
v -0.660000 -0.000000 -0.510000
v 0.660000 0.000000 0.510000
v -0.660000 0.000000 0.510000
v -0.660000 0.703875 -0.510000
v 0.660000 0.703875 0.510000
v 0.660000 0.703875 -0.510000
v -0.660000 0.703875 -0.510000
v -0.660000 0.703875 0.510000
v 0.660000 0.703875 0.510000
v -0.660000 0.039104 -0.550000
v 0.660000 0.664770 -0.550000
v 0.660000 0.039104 -0.550000
v -0.660000 0.039104 -0.550000
v -0.660000 0.664770 -0.550000
v 0.660000 0.664770 -0.550000
v -0.660000 0.039104 0.550000
v 0.660000 0.039104 0.550000
v 0.660000 0.664771 0.550000
v -0.660000 0.039104 0.550000
v 0.660000 0.664771 0.550000
v -0.660000 0.664771 0.550000
v -0.700000 0.039104 -0.510000
v -0.660000 -0.000000 -0.510000
v -0.660000 0.000000 0.510000
v -0.700000 0.039104 -0.510000
v -0.660000 0.000000 0.510000
v -0.700000 0.039104 0.510000
v -0.700000 0.664770 -0.510000
v -0.660000 0.703875 0.510000
v -0.660000 0.703875 -0.510000
v -0.700000 0.664770 -0.510000
v -0.700000 0.664771 0.510000
v -0.660000 0.703875 0.510000
v 0.700000 0.039104 -0.510000
v 0.660000 0.000000 0.510000
v 0.660000 -0.000000 -0.510000
v 0.700000 0.039104 -0.510000
v 0.700000 0.039104 0.510000
v 0.660000 0.000000 0.510000
v 0.700000 0.664770 -0.510000
v 0.660000 0.703875 -0.510000
v 0.660000 0.703875 0.510000
v 0.700000 0.664770 -0.510000
v 0.660000 0.703875 0.510000
v 0.700000 0.664771 0.510000
v -0.700000 0.039104 -0.510000
v -0.660000 0.664770 -0.550000
v -0.660000 0.039104 -0.550000
v -0.700000 0.039104 -0.510000
v -0.700000 0.664770 -0.510000
v -0.660000 0.664770 -0.550000
v -0.700000 0.039104 0.510000
v -0.660000 0.039104 0.550000
v -0.660000 0.664771 0.550000
v -0.700000 0.039104 0.510000
v -0.660000 0.664771 0.550000
v -0.700000 0.664771 0.510000
v 0.700000 0.039104 -0.510000
v 0.660000 0.039104 -0.550000
v 0.660000 0.664770 -0.550000
v 0.700000 0.039104 -0.510000
v 0.660000 0.664770 -0.550000
v 0.700000 0.664770 -0.510000
v 0.700000 0.039104 0.510000
v 0.660000 0.664771 0.550000
v 0.660000 0.039104 0.550000
v 0.700000 0.039104 0.510000
v 0.700000 0.664771 0.510000
v 0.660000 0.664771 0.550000
v -0.660000 -0.000000 -0.510000
v -0.660000 0.039104 -0.550000
v 0.660000 0.039104 -0.550000
v -0.660000 -0.000000 -0.510000
v 0.660000 0.039104 -0.550000
v 0.660000 -0.000000 -0.510000
v -0.660000 0.000000 0.510000
v 0.660000 0.039104 0.550000
v -0.660000 0.039104 0.550000
v -0.660000 0.000000 0.510000
v 0.660000 0.000000 0.510000
v 0.660000 0.039104 0.550000
v -0.660000 0.703875 -0.510000
v 0.660000 0.664770 -0.550000
v -0.660000 0.664770 -0.550000
v -0.660000 0.703875 -0.510000
v 0.660000 0.703875 -0.510000
v 0.660000 0.664770 -0.550000
v -0.660000 0.703875 0.510000
v -0.660000 0.664771 0.550000
v 0.660000 0.664771 0.550000
v -0.660000 0.703875 0.510000
v 0.660000 0.664771 0.550000
v 0.660000 0.703875 0.510000
v -0.700000 0.039104 -0.510000
v -0.660000 0.039104 -0.550000
v -0.660000 -0.000000 -0.510000
v -0.700000 0.039104 0.510000
v -0.660000 0.000000 0.510000
v -0.660000 0.039104 0.550000
v -0.700000 0.664770 -0.510000
v -0.660000 0.703875 -0.510000
v -0.660000 0.664770 -0.550000
v -0.700000 0.664771 0.510000
v -0.660000 0.664771 0.550000
v -0.660000 0.703875 0.510000
v 0.700000 0.039104 -0.510000
v 0.660000 -0.000000 -0.510000
v 0.660000 0.039104 -0.550000
v 0.700000 0.039104 0.510000
v 0.660000 0.039104 0.550000
v 0.660000 0.000000 0.510000
v 0.700000 0.664770 -0.510000
v 0.660000 0.664770 -0.550000
v 0.660000 0.703875 -0.510000
v 0.700000 0.664771 0.510000
v 0.660000 0.703875 0.510000
v 0.660000 0.664771 0.550000
vn -1.0000 -0.0000 -0.0000
vn 1.0000 -0.0000 -0.0000
vn -0.0000 -1.0000 -0.0000
vn -0.0000 1.0000 -0.0000
vn -0.0000 -0.0000 -1.0000
vn -0.0000 -0.0000 1.0000
vn -0.6991 -0.7151 -0.0000
vn -0.6991 0.7151 -0.0000
vn 0.6991 -0.7151 -0.0000
vn 0.6991 0.7151 -0.0000
vn -0.7071 -0.0000 -0.7071
vn -0.7071 -0.0000 0.7071
vn 0.7071 -0.0000 -0.7071
vn 0.7071 -0.0000 0.7071
vn -0.0000 -0.7151 -0.6991
vn -0.0000 -0.7151 0.6991
vn -0.0000 0.7151 -0.6991
vn -0.0000 0.7151 0.6991
vn -0.5729 -0.5861 -0.5729
vn -0.5729 -0.5861 0.5729
vn -0.5729 0.5861 -0.5729
vn -0.5729 0.5861 0.5729
vn 0.5729 -0.5861 -0.5729
vn 0.5729 -0.5861 0.5729
vn 0.5729 0.5861 -0.5729
vn 0.5729 0.5861 0.5729
vt 0.015626 0.441897
vt 0.058247 0.392764
vt 0.058247 0.441897
vt 0.089498 0.441897
vt 0.089498 0.392764
vt 0.132119 0.392764
vt 0.448532 0.172556
vt 0.405911 0.172556
vt 0.405911 0.123424
vt 0.448532 0.252940
vt 0.405911 0.203808
vt 0.448532 0.203808
vt 0.374659 0.129264
vt 0.319678 0.058111
vt 0.374659 0.015626
vt 0.233445 0.129264
vt 0.233445 0.015626
vt 0.288426 0.086778
vt 0.233445 0.274153
vt 0.233445 0.160515
vt 0.288426 0.203001
vt 0.374659 0.274153
vt 0.319678 0.231667
vt 0.374659 0.160515
vt 0.341724 0.305404
vt 0.341724 0.404914
vt 0.303210 0.386659
vt 0.233445 0.305404
vt 0.271959 0.323660
vt 0.233445 0.404914
vt 0.372976 0.305404
vt 0.408379 0.358219
vt 0.372976 0.381951
vt 0.441314 0.015626
vt 0.441314 0.092172
vt 0.405911 0.039357
vt 0.616370 0.192907
vt 0.613645 0.192907
vt 0.613645 0.123424
vt 0.621440 0.613143
vt 0.618715 0.543660
vt 0.621440 0.543660
vt 0.438949 0.633580
vt 0.441674 0.564096
vt 0.441674 0.633580
vt 0.640866 0.085109
vt 0.640866 0.015626
vt 0.643590 0.015626
vt 0.645939 0.504234
vt 0.648664 0.434750
vt 0.648664 0.504234
vt 0.647622 0.192907
vt 0.647622 0.123424
vt 0.650347 0.123424
vt 0.618744 0.374888
vt 0.616019 0.374888
vt 0.616019 0.305404
vt 0.109631 0.651541
vt 0.106907 0.582058
vt 0.109631 0.582058
vt 0.018351 0.668192
vt 0.015626 0.710813
vt 0.015626 0.668192
vt 0.018351 0.742065
vt 0.018351 0.784686
vt 0.015626 0.784686
vt 0.836910 0.687016
vt 0.833057 0.687016
vt 0.833057 0.644395
vt 0.337804 0.785692
vt 0.341657 0.828313
vt 0.337804 0.828313
vt 0.015626 0.815937
vt 0.018351 0.815937
vt 0.018351 0.858558
vt 0.015626 0.594319
vt 0.018351 0.636940
vt 0.015626 0.636940
vt 0.830797 0.753801
vt 0.826943 0.796422
vt 0.826943 0.753801
vt 0.827130 0.346714
vt 0.823292 0.304266
vt 0.827130 0.303919
vt 0.236170 0.526085
vt 0.233445 0.526085
vt 0.233445 0.436165
vt 0.543420 0.434750
vt 0.546145 0.524670
vt 0.543420 0.524670
vt 0.270146 0.436165
vt 0.267421 0.526085
vt 0.267421 0.436165
vt 0.546374 0.213343
vt 0.546374 0.123424
vt 0.549099 0.123424
vt 0.551472 0.305404
vt 0.548748 0.395324
vt 0.548748 0.305404
vt 0.301398 0.526085
vt 0.301398 0.436165
vt 0.304123 0.436165
vt 0.018351 0.563068
vt 0.015626 0.563068
vt 0.015626 0.473148
vt 0.335374 0.436165
vt 0.338099 0.526085
vt 0.335374 0.526085
vt 0.566709 0.975628
vt 0.563984 0.978353
vt 0.563984 0.975628
vt 0.835720 0.722121
vt 0.833057 0.720194
vt 0.835720 0.718268
vt 0.106907 0.976911
vt 0.109631 0.976911
vt 0.109631 0.979635
vt 0.907402 0.346293
vt 0.904280 0.344035
vt 0.907402 0.343006
vt 0.163371 0.977113
vt 0.166096 0.977113
vt 0.166096 0.979838
vt 0.944982 0.795364
vt 0.944982 0.791510
vt 0.947646 0.793437
vt 0.200072 0.977113
vt 0.197347 0.979838
vt 0.197347 0.977113
vt 0.906907 0.796043
vt 0.906907 0.792755
vt 0.910029 0.793784
s 0
usemtl planter
f 541/541/203 542/542/203 543/543/203
f 544/544/203 545/545/203 546/546/203
f 547/547/204 548/548/204 549/549/204
f 550/550/204 551/551/204 552/552/204
f 553/553/205 554/554/205 555/555/205
f 556/556/205 557/557/205 558/558/205
f 559/559/206 560/560/206 561/561/206
f 562/562/206 563/563/206 564/564/206
f 565/565/207 566/566/207 567/567/207
f 568/568/207 569/569/207 570/570/207
f 571/571/208 572/572/208 573/573/208
f 574/574/208 575/575/208 576/576/208
f 577/577/209 578/578/209 579/579/209
f 580/580/209 581/581/209 582/582/209
f 583/583/210 584/584/210 585/585/210
f 586/586/210 587/587/210 588/588/210
f 589/589/211 590/590/211 591/591/211
f 592/592/211 593/593/211 594/594/211
f 595/595/212 596/596/212 597/597/212
f 598/598/212 599/599/212 600/600/212
f 601/601/213 602/602/213 603/603/213
f 604/604/213 605/605/213 606/606/213
f 607/607/214 608/608/214 609/609/214
f 610/610/214 611/611/214 612/612/214
f 613/613/215 614/614/215 615/615/215
f 616/616/215 617/617/215 618/618/215
f 619/619/216 620/620/216 621/621/216
f 622/622/216 623/623/216 624/624/216
f 625/625/217 626/626/217 627/627/217
f 628/628/217 629/629/217 630/630/217
f 631/631/218 632/632/218 633/633/218
f 634/634/218 635/635/218 636/636/218
f 637/637/219 638/638/219 639/639/219
f 640/640/219 641/641/219 642/642/219
f 643/643/220 644/644/220 645/645/220
f 646/646/220 647/647/220 648/648/220
f 649/649/221 650/650/221 651/651/221
f 652/652/222 653/653/222 654/654/222
f 655/655/223 656/656/223 657/657/223
f 658/658/224 659/659/224 660/660/224
f 661/661/225 662/662/225 663/663/225
f 664/664/226 665/665/226 666/666/226
f 667/667/227 668/668/227 669/669/227
f 670/670/228 671/671/228 672/672/228
o pot_rim
v -0.750000 0.713651 -0.570000
v -0.750000 0.811411 0.570000
v -0.750000 0.811411 -0.570000
v -0.750000 0.713651 -0.570000
v -0.750000 0.713651 0.570000
v -0.750000 0.811411 0.570000
v 0.750000 0.713651 -0.570000
v 0.750000 0.811411 -0.570000
v 0.750000 0.811411 0.570000
v 0.750000 0.713651 -0.570000
v 0.750000 0.811411 0.570000
v 0.750000 0.713651 0.570000
v -0.720000 0.684323 -0.570000
v 0.720000 0.684323 -0.570000
v 0.720000 0.684323 0.570000
v -0.720000 0.684323 -0.570000
v 0.720000 0.684323 0.570000
v -0.720000 0.684323 0.570000
v -0.720000 0.840739 -0.570000
v 0.720000 0.840739 0.570000
v 0.720000 0.840739 -0.570000
v -0.720000 0.840739 -0.570000
v -0.720000 0.840739 0.570000
v 0.720000 0.840739 0.570000
v -0.720000 0.713651 -0.600000
v 0.720000 0.811411 -0.600000
v 0.720000 0.713651 -0.600000
v -0.720000 0.713651 -0.600000
v -0.720000 0.811411 -0.600000
v 0.720000 0.811411 -0.600000
v -0.720000 0.713651 0.600000
v 0.720000 0.713651 0.600000
v 0.720000 0.811411 0.600000
v -0.720000 0.713651 0.600000
v 0.720000 0.811411 0.600000
v -0.720000 0.811411 0.600000
v -0.750000 0.713651 -0.570000
v -0.720000 0.684323 -0.570000
v -0.720000 0.684323 0.570000
v -0.750000 0.713651 -0.570000
v -0.720000 0.684323 0.570000
v -0.750000 0.713651 0.570000
v -0.750000 0.811411 -0.570000
v -0.720000 0.840739 0.570000
v -0.720000 0.840739 -0.570000
v -0.750000 0.811411 -0.570000
v -0.750000 0.811411 0.570000
v -0.720000 0.840739 0.570000
v 0.750000 0.713651 -0.570000
v 0.720000 0.684323 0.570000
v 0.720000 0.684323 -0.570000
v 0.750000 0.713651 -0.570000
v 0.750000 0.713651 0.570000
v 0.720000 0.684323 0.570000
v 0.750000 0.811411 -0.570000
v 0.720000 0.840739 -0.570000
v 0.720000 0.840739 0.570000
v 0.750000 0.811411 -0.570000
v 0.720000 0.840739 0.570000
v 0.750000 0.811411 0.570000
v -0.750000 0.713651 -0.570000
v -0.720000 0.811411 -0.600000
v -0.720000 0.713651 -0.600000
v -0.750000 0.713651 -0.570000
v -0.750000 0.811411 -0.570000
v -0.720000 0.811411 -0.600000
v -0.750000 0.713651 0.570000
v -0.720000 0.713651 0.600000
v -0.720000 0.811411 0.600000
v -0.750000 0.713651 0.570000
v -0.720000 0.811411 0.600000
v -0.750000 0.811411 0.570000
v 0.750000 0.713651 -0.570000
v 0.720000 0.713651 -0.600000
v 0.720000 0.811411 -0.600000
v 0.750000 0.713651 -0.570000
v 0.720000 0.811411 -0.600000
v 0.750000 0.811411 -0.570000
v 0.750000 0.713651 0.570000
v 0.720000 0.811411 0.600000
v 0.720000 0.713651 0.600000
v 0.750000 0.713651 0.570000
v 0.750000 0.811411 0.570000
v 0.720000 0.811411 0.600000
v -0.720000 0.684323 -0.570000
v -0.720000 0.713651 -0.600000
v 0.720000 0.713651 -0.600000
v -0.720000 0.684323 -0.570000
v 0.720000 0.713651 -0.600000
v 0.720000 0.684323 -0.570000
v -0.720000 0.684323 0.570000
v 0.720000 0.713651 0.600000
v -0.720000 0.713651 0.600000
v -0.720000 0.684323 0.570000
v 0.720000 0.684323 0.570000
v 0.720000 0.713651 0.600000
v -0.720000 0.840739 -0.570000
v 0.720000 0.811411 -0.600000
v -0.720000 0.811411 -0.600000
v -0.720000 0.840739 -0.570000
v 0.720000 0.840739 -0.570000
v 0.720000 0.811411 -0.600000
v -0.720000 0.840739 0.570000
v -0.720000 0.811411 0.600000
v 0.720000 0.811411 0.600000
v -0.720000 0.840739 0.570000
v 0.720000 0.811411 0.600000
v 0.720000 0.840739 0.570000
v -0.750000 0.713651 -0.570000
v -0.720000 0.713651 -0.600000
v -0.720000 0.684323 -0.570000
v -0.750000 0.713651 0.570000
v -0.720000 0.684323 0.570000
v -0.720000 0.713651 0.600000
v -0.750000 0.811411 -0.570000
v -0.720000 0.840739 -0.570000
v -0.720000 0.811411 -0.600000
v -0.750000 0.811411 0.570000
v -0.720000 0.811411 0.600000
v -0.720000 0.840739 0.570000
v 0.750000 0.713651 -0.570000
v 0.720000 0.684323 -0.570000
v 0.720000 0.713651 -0.600000
v 0.750000 0.713651 0.570000
v 0.720000 0.713651 0.600000
v 0.720000 0.684323 0.570000
v 0.750000 0.811411 -0.570000
v 0.720000 0.811411 -0.600000
v 0.720000 0.840739 -0.570000
v 0.750000 0.811411 0.570000
v 0.720000 0.840739 0.570000
v 0.720000 0.811411 0.600000
vn -1.0000 -0.0000 -0.0000
vn 1.0000 -0.0000 -0.0000
vn -0.0000 -1.0000 -0.0000
vn -0.0000 1.0000 -0.0000
vn -0.0000 -0.0000 -1.0000
vn -0.0000 -0.0000 1.0000
vn -0.6991 -0.7151 -0.0000
vn -0.6991 0.7151 -0.0000
vn 0.6991 -0.7151 -0.0000
vn 0.6991 0.7151 -0.0000
vn -0.7071 -0.0000 -0.7071
vn -0.7071 -0.0000 0.7071
vn 0.7071 -0.0000 -0.7071
vn 0.7071 -0.0000 0.7071
vn -0.0000 -0.7151 -0.6991
vn -0.0000 -0.7151 0.6991
vn -0.0000 0.7151 -0.6991
vn -0.0000 0.7151 0.6991
vn -0.5729 -0.5861 -0.5729
vn -0.5729 -0.5861 0.5729
vn -0.5729 0.5861 -0.5729
vn -0.5729 0.5861 0.5729
vn 0.5729 -0.5861 -0.5729
vn 0.5729 -0.5861 0.5729
vn 0.5729 0.5861 -0.5729
vn 0.5729 0.5861 0.5729
vt 0.652691 0.598572
vt 0.659351 0.543660
vt 0.659351 0.598572
vt 0.520600 0.672169
vt 0.520600 0.617257
vt 0.527260 0.617257
vt 0.656607 0.360719
vt 0.649996 0.359918
vt 0.656607 0.305404
vt 0.240105 0.673417
vt 0.233445 0.618505
vt 0.240105 0.618505
vt 0.015626 0.113720
vt 0.015626 0.015626
vt 0.093284 0.015626
vt 0.202193 0.015626
vt 0.124535 0.113720
vt 0.124535 0.015626
vt 0.015626 0.144972
vt 0.093284 0.243066
vt 0.015626 0.243066
vt 0.202193 0.243066
vt 0.124535 0.243066
vt 0.124535 0.144972
vt 0.477541 0.305404
vt 0.484201 0.403499
vt 0.477541 0.403499
vt 0.446290 0.403499
vt 0.439630 0.403499
vt 0.439630 0.305404
vt 0.479225 0.015626
vt 0.479225 0.084989
vt 0.472565 0.084989
vt 0.517136 0.015626
vt 0.510476 0.084989
vt 0.510476 0.015626
vt 0.051646 0.550806
vt 0.049602 0.550806
vt 0.049602 0.473148
vt 0.118236 0.550806
vt 0.116193 0.473148
vt 0.118236 0.473148
vt 0.577396 0.512408
vt 0.579440 0.434750
vt 0.579440 0.512408
vt 0.580350 0.201082
vt 0.580350 0.123424
vt 0.582394 0.123424
vt 0.582724 0.383062
vt 0.584768 0.305404
vt 0.584768 0.383062
vt 0.163371 0.599768
vt 0.163371 0.522110
vt 0.165415 0.522110
vt 0.084941 0.550806
vt 0.082897 0.550806
vt 0.082897 0.473148
vt 0.198710 0.599768
vt 0.196666 0.522110
vt 0.198710 0.522110
vt 0.017669 0.928321
vt 0.015626 0.934981
vt 0.015626 0.928321
vt 0.017669 0.966232
vt 0.017669 0.972892
vt 0.015626 0.972892
vt 0.690717 0.399231
vt 0.688066 0.398080
vt 0.690717 0.391971
vt 0.963688 0.488601
vt 0.966578 0.495260
vt 0.963688 0.495260
vt 0.290505 0.973218
vt 0.292549 0.973218
vt 0.292549 0.979877
vt 0.323800 0.973218
vt 0.325844 0.979877
vt 0.323800 0.979877
vt 0.015626 0.897070
vt 0.015626 0.889810
vt 0.018277 0.895919
vt 0.438949 0.967552
vt 0.438949 0.960893
vt 0.441839 0.960893
vt 0.481827 0.221518
vt 0.479783 0.221518
vt 0.479783 0.123424
vt 0.406271 0.413202
vt 0.408314 0.511297
vt 0.406271 0.511297
vt 0.165415 0.392764
vt 0.163371 0.490859
vt 0.163371 0.392764
vt 0.513079 0.221518
vt 0.513079 0.123424
vt 0.515122 0.123424
vt 0.517496 0.305404
vt 0.515452 0.403499
vt 0.515452 0.305404
vt 0.196666 0.490859
vt 0.196666 0.392764
vt 0.198710 0.392764
vt 0.441674 0.532845
vt 0.439630 0.532845
vt 0.439630 0.434750
vt 0.372976 0.413202
vt 0.375019 0.511297
vt 0.372976 0.511297
vt 0.981727 0.303919
vt 0.979683 0.305963
vt 0.979683 0.303919
vt 0.981239 0.793204
vt 0.978897 0.793976
vt 0.978897 0.791510
vt 0.979724 0.243921
vt 0.981767 0.243921
vt 0.981767 0.245965
vt 0.977662 0.344450
vt 0.977662 0.341560
vt 0.979660 0.343005
vt 0.372976 0.981886
vt 0.375019 0.981886
vt 0.375019 0.983930
vt 0.826943 0.980705
vt 0.829285 0.979011
vt 0.829285 0.981477
vt 0.984374 0.753801
vt 0.982331 0.755845
vt 0.982331 0.753801
vt 0.875683 0.980524
vt 0.873685 0.979079
vt 0.875683 0.977634
s 0
usemtl planter
f 673/673/229 674/674/229 675/675/229
f 676/676/229 677/677/229 678/678/229
f 679/679/230 680/680/230 681/681/230
f 682/682/230 683/683/230 684/684/230
f 685/685/231 686/686/231 687/687/231
f 688/688/231 689/689/231 690/690/231
f 691/691/232 692/692/232 693/693/232
f 694/694/232 695/695/232 696/696/232
f 697/697/233 698/698/233 699/699/233
f 700/700/233 701/701/233 702/702/233
f 703/703/234 704/704/234 705/705/234
f 706/706/234 707/707/234 708/708/234
f 709/709/235 710/710/235 711/711/235
f 712/712/235 713/713/235 714/714/235
f 715/715/236 716/716/236 717/717/236
f 718/718/236 719/719/236 720/720/236
f 721/721/237 722/722/237 723/723/237
f 724/724/237 725/725/237 726/726/237
f 727/727/238 728/728/238 729/729/238
f 730/730/238 731/731/238 732/732/238
f 733/733/239 734/734/239 735/735/239
f 736/736/239 737/737/239 738/738/239
f 739/739/240 740/740/240 741/741/240
f 742/742/240 743/743/240 744/744/240
f 745/745/241 746/746/241 747/747/241
f 748/748/241 749/749/241 750/750/241
f 751/751/242 752/752/242 753/753/242
f 754/754/242 755/755/242 756/756/242
f 757/757/243 758/758/243 759/759/243
f 760/760/243 761/761/243 762/762/243
f 763/763/244 764/764/244 765/765/244
f 766/766/244 767/767/244 768/768/244
f 769/769/245 770/770/245 771/771/245
f 772/772/245 773/773/245 774/774/245
f 775/775/246 776/776/246 777/777/246
f 778/778/246 779/779/246 780/780/246
f 781/781/247 782/782/247 783/783/247
f 784/784/248 785/785/248 786/786/248
f 787/787/249 788/788/249 789/789/249
f 790/790/250 791/791/250 792/792/250
f 793/793/251 794/794/251 795/795/251
f 796/796/252 797/797/252 798/798/252
f 799/799/253 800/800/253 801/801/253
f 802/802/254 803/803/254 804/804/254
o soil
v 0.640000 0.850515 0.490000
v 0.640000 0.850515 -0.490000
v 0.640000 0.791859 0.490000
v 0.640000 0.791859 -0.490000
v -0.640000 0.850515 -0.490000
v -0.640000 0.850515 0.490000
v -0.640000 0.791859 -0.490000
v -0.640000 0.791859 0.490000
v -0.640000 0.850515 -0.490000
v 0.640000 0.850515 -0.490000
v -0.640000 0.850515 0.490000
v 0.640000 0.850515 0.490000
v -0.640000 0.791859 0.490000
v 0.640000 0.791859 0.490000
v -0.640000 0.791859 -0.490000
v 0.640000 0.791859 -0.490000
v -0.640000 0.850515 0.490000
v 0.640000 0.850515 0.490000
v -0.640000 0.791859 0.490000
v 0.640000 0.791859 0.490000
v 0.640000 0.850515 -0.490000
v -0.640000 0.850515 -0.490000
v 0.640000 0.791859 -0.490000
v -0.640000 0.791859 -0.490000
vn 1.0000 -0.0000 -0.0000
vn -1.0000 -0.0000 -0.0000
vn -0.0000 1.0000 -0.0000
vn -0.0000 -1.0000 -0.0000
vn -0.0000 -0.0000 1.0000
vn -0.0000 -0.0000 -1.0000
vt 0.605618 0.015626
vt 0.609614 0.015626
vt 0.605618 0.082384
vt 0.609614 0.082384
vt 0.614687 0.501509
vt 0.610692 0.501509
vt 0.614687 0.434750
vt 0.610692 0.434750
vt 0.082384 0.361513
vt 0.015626 0.361513
vt 0.082384 0.274318
vt 0.015626 0.274318
vt 0.124535 0.274318
vt 0.191294 0.274318
vt 0.124535 0.361513
vt 0.191294 0.361513
vt 0.476921 0.521945
vt 0.472925 0.521945
vt 0.476921 0.434750
vt 0.472925 0.434750
vt 0.512168 0.521945
vt 0.508173 0.521945
vt 0.512168 0.434750
vt 0.508173 0.434750
s 0
usemtl planter
f 805/805/255 807/806/255 806/807/255
f 807/806/255 808/808/255 806/807/255
f 809/809/256 811/810/256 810/811/256
f 811/810/256 812/812/256 810/811/256
f 813/813/257 815/814/257 814/815/257
f 815/814/257 816/816/257 814/815/257
f 817/817/258 819/818/258 818/819/258
f 819/818/258 820/820/258 818/819/258
f 821/821/259 823/822/259 822/823/259
f 823/822/259 824/824/259 822/823/259
f 825/825/260 827/826/260 826/827/260
f 827/826/260 828/828/260 826/827/260
o stem
v 0.000000 1.564166 0.080000
v 0.056569 1.564166 0.056568
v 0.080000 1.564166 -0.000000
v 0.056569 1.564166 -0.056569
v 0.000000 1.564166 -0.080000
v -0.056569 1.564166 -0.056569
v -0.080000 1.564166 -0.000000
v -0.056569 1.564166 0.056568
v -0.000000 1.564166 0.080000
v 0.000000 0.782083 0.100000
v 0.070711 0.782083 0.070711
v 0.100000 0.782083 -0.000000
v 0.070711 0.782083 -0.070711
v 0.000000 0.782083 -0.100000
v -0.070711 0.782083 -0.070711
v -0.100000 0.782083 -0.000000
v -0.070711 0.782083 0.070711
v -0.000000 0.782083 0.100000
v 0.000000 1.564166 -0.000000
v 0.000000 1.564166 -0.000000
v 0.000000 1.564166 -0.000000
v 0.000000 1.564166 -0.000000
v 0.000000 1.564166 -0.000000
v 0.000000 1.564166 -0.000000
v 0.000000 1.564166 -0.000000
v 0.000000 1.564166 -0.000000
v 0.000000 1.564166 0.080000
v 0.056569 1.564166 0.056568
v 0.080000 1.564166 -0.000000
v 0.056569 1.564166 -0.056569
v 0.000000 1.564166 -0.080000
v -0.056569 1.564166 -0.056569
v -0.080000 1.564166 -0.000000
v -0.056569 1.564166 0.056568
v -0.000000 1.564166 0.080000
v 0.000000 0.782083 -0.000000
v 0.000000 0.782083 -0.000000
v 0.000000 0.782083 -0.000000
v 0.000000 0.782083 -0.000000
v 0.000000 0.782083 -0.000000
v 0.000000 0.782083 -0.000000
v 0.000000 0.782083 -0.000000
v 0.000000 0.782083 -0.000000
v 0.000000 0.782083 0.100000
v 0.070711 0.782083 0.070711
v 0.100000 0.782083 -0.000000
v 0.070711 0.782083 -0.070711
v 0.000000 0.782083 -0.100000
v -0.070711 0.782083 -0.070711
v -0.100000 0.782083 -0.000000
v -0.070711 0.782083 0.070711
v -0.000000 0.782083 0.100000
vn -0.0000 0.0256 0.9997
vn 0.7069 0.0256 0.7069
vn 0.7069 0.0255 0.7069
vn 0.9997 0.0256 -0.0000
vn 0.9997 0.0255 -0.0000
vn 0.7069 0.0256 -0.7069
vn 0.7069 0.0255 -0.7069
vn -0.0000 0.0256 -0.9997
vn -0.0000 0.0255 -0.9997
vn -0.7069 0.0256 -0.7069
vn -0.7069 0.0255 -0.7069
vn -0.9997 0.0256 -0.0000
vn -0.9997 0.0255 -0.0000
vn -0.7069 0.0256 0.7069
vn -0.7069 0.0255 0.7069
vn -0.0000 0.0255 0.9997
vn -0.0000 1.0000 -0.0000
vn -0.0000 -1.0000 -0.0000
vt 0.675363 0.068917
vt 0.674842 0.015626
vt 0.679534 0.068917
vt 0.680056 0.015626
vt 0.577396 0.596949
vt 0.577396 0.543660
vt 0.580347 0.596949
vt 0.581084 0.543660
vt 0.584516 0.597047
vt 0.586296 0.543783
vt 0.587463 0.597186
vt 0.381876 0.657087
vt 0.378189 0.657174
vt 0.377668 0.603883
vt 0.373497 0.603883
vt 0.372976 0.657174
vt 0.482992 0.553435
vt 0.482992 0.606723
vt 0.480042 0.553435
vt 0.479305 0.606723
vt 0.475872 0.553336
vt 0.474092 0.606600
vt 0.472925 0.553197
vt 0.687858 0.305404
vt 0.691540 0.305608
vt 0.687858 0.358775
vt 0.337804 0.861161
vt 0.341657 0.859565
vt 0.341657 0.865015
vt 0.942240 0.341560
vt 0.946411 0.341560
vt 0.944325 0.346595
vt 0.972652 0.548695
vt 0.968481 0.548695
vt 0.970566 0.543660
vt 0.237299 0.966437
vt 0.233445 0.964841
vt 0.237299 0.960987
vt 0.968842 0.183014
vt 0.964988 0.184610
vt 0.964988 0.179160
vt 0.972755 0.128459
vt 0.968584 0.128459
vt 0.970669 0.123424
vt 0.971251 0.605264
vt 0.975422 0.605264
vt 0.973336 0.610299
vt 0.966063 0.432666
vt 0.969916 0.434263
vt 0.966063 0.438116
vt 0.954234 0.703160
vt 0.959051 0.701165
vt 0.959051 0.707977
vt 0.049602 0.954332
vt 0.054419 0.956327
vt 0.049602 0.961144
vt 0.961155 0.382783
vt 0.956338 0.384778
vt 0.956338 0.377966
vt 0.961253 0.834486
vt 0.956436 0.832491
vt 0.961253 0.827674
vt 0.959352 0.964641
vt 0.954138 0.964641
vt 0.956745 0.958347
vt 0.618715 0.957529
vt 0.623532 0.959524
vt 0.618715 0.964341
vt 0.916634 0.958521
vt 0.921847 0.958521
vt 0.919241 0.964815
vt 0.506275 0.959840
vt 0.511489 0.959840
vt 0.508882 0.966134
s 0
usemtl planter
f 829/829/261 838/830/261 830/831/262
f 838/830/261 839/832/263 830/831/262
f 830/833/262 839/834/262 831/835/264
f 839/834/262 840/836/265 831/835/264
f 831/835/264 840/836/264 832/837/266
f 840/836/264 841/838/267 832/837/266
f 832/837/266 841/838/266 833/839/268
f 841/840/266 842/841/269 833/842/268
f 833/842/268 842/841/268 834/843/270
f 842/841/268 843/844/271 834/843/270
f 834/845/270 843/846/270 835/847/272
f 843/846/270 844/848/273 835/847/272
f 835/847/272 844/848/272 836/849/274
f 844/848/272 845/850/275 836/849/274
f 836/849/274 845/850/274 837/851/261
f 845/852/274 846/853/276 837/854/261
f 855/855/277 856/856/277 847/857/277
f 856/858/277 857/859/277 848/860/277
f 857/861/277 858/862/277 849/863/277
f 858/864/277 859/865/277 850/866/277
f 859/867/277 860/868/277 851/869/277
f 860/870/277 861/871/277 852/872/277
f 861/873/277 862/874/277 853/875/277
f 862/876/277 863/877/277 854/878/277
f 873/879/278 872/880/278 864/881/278
f 874/882/278 873/883/278 865/884/278
f 875/885/278 874/886/278 866/887/278
f 876/888/278 875/889/278 867/890/278
f 877/891/278 876/892/278 868/893/278
f 878/894/278 877/895/278 869/896/278
f 879/897/278 878/898/278 870/899/278
f 880/900/278 879/901/278 871/902/278
