# Blender 4.2.23 LTS
# www.blender.org
mtllib train_car.mtl
o body_shell
v -0.868167 0.370000 -4.970192
v -0.868167 2.410000 3.266798
v -0.868167 2.410000 -4.970192
v -0.868167 0.370000 -4.970192
v -0.868167 0.370000 3.266799
v -0.868167 2.410000 3.266798
v 0.868167 0.370000 -4.970192
v 0.868167 2.410000 -4.970192
v 0.868167 2.410000 3.266798
v 0.868167 0.370000 -4.970192
v 0.868167 2.410000 3.266798
v 0.868167 0.370000 3.266799
v -0.839228 0.340000 -4.970192
v 0.839228 0.340000 -4.970192
v 0.839228 0.340000 3.266799
v -0.839228 0.340000 -4.970192
v 0.839228 0.340000 3.266799
v -0.839228 0.340000 3.266799
v -0.839228 2.440000 -4.970192
v 0.839228 2.440000 3.266798
v 0.839228 2.440000 -4.970192
v -0.839228 2.440000 -4.970192
v -0.839228 2.440000 3.266798
v 0.839228 2.440000 3.266798
v -0.839228 0.370000 -5.000000
v 0.839228 2.410000 -5.000000
v 0.839228 0.370000 -5.000000
v -0.839228 0.370000 -5.000000
v -0.839228 2.410000 -5.000000
v 0.839228 2.410000 -5.000000
v -0.839228 0.370000 3.296607
v 0.839228 0.370000 3.296607
v 0.839228 2.410000 3.296607
v -0.839228 0.370000 3.296607
v 0.839228 2.410000 3.296607
v -0.839228 2.410000 3.296607
v -0.868167 0.370000 -4.970192
v -0.839228 0.340000 -4.970192
v -0.839228 0.340000 3.266799
v -0.868167 0.370000 -4.970192
v -0.839228 0.340000 3.266799
v -0.868167 0.370000 3.266799
v -0.868167 2.410000 -4.970192
v -0.839228 2.440000 3.266798
v -0.839228 2.440000 -4.970192
v -0.868167 2.410000 -4.970192
v -0.868167 2.410000 3.266798
v -0.839228 2.440000 3.266798
v 0.868167 0.370000 -4.970192
v 0.839228 0.340000 3.266799
v 0.839228 0.340000 -4.970192
v 0.868167 0.370000 -4.970192
v 0.868167 0.370000 3.266799
v 0.839228 0.340000 3.266799
v 0.868167 2.410000 -4.970192
v 0.839228 2.440000 -4.970192
v 0.839228 2.440000 3.266798
v 0.868167 2.410000 -4.970192
v 0.839228 2.440000 3.266798
v 0.868167 2.410000 3.266798
v -0.868167 0.370000 -4.970192
v -0.839228 2.410000 -5.000000
v -0.839228 0.370000 -5.000000
v -0.868167 0.370000 -4.970192
v -0.868167 2.410000 -4.970192
v -0.839228 2.410000 -5.000000
v -0.868167 0.370000 3.266799
v -0.839228 0.370000 3.296607
v -0.839228 2.410000 3.296607
v -0.868167 0.370000 3.266799
v -0.839228 2.410000 3.296607
v -0.868167 2.410000 3.266798
v 0.868167 0.370000 -4.970192
v 0.839228 0.370000 -5.000000
v 0.839228 2.410000 -5.000000
v 0.868167 0.370000 -4.970192
v 0.839228 2.410000 -5.000000
v 0.868167 2.410000 -4.970192
v 0.868167 0.370000 3.266799
v 0.839228 2.410000 3.296607
v 0.839228 0.370000 3.296607
v 0.868167 0.370000 3.266799
v 0.868167 2.410000 3.266798
v 0.839228 2.410000 3.296607
v -0.839228 0.340000 -4.970192
v -0.839228 0.370000 -5.000000
v 0.839228 0.370000 -5.000000
v -0.839228 0.340000 -4.970192
v 0.839228 0.370000 -5.000000
v 0.839228 0.340000 -4.970192
v -0.839228 0.340000 3.266799
v 0.839228 0.370000 3.296607
v -0.839228 0.370000 3.296607
v -0.839228 0.340000 3.266799
v 0.839228 0.340000 3.266799
v 0.839228 0.370000 3.296607
v -0.839228 2.440000 -4.970192
v 0.839228 2.410000 -5.000000
v -0.839228 2.410000 -5.000000
v -0.839228 2.440000 -4.970192
v 0.839228 2.440000 -4.970192
v 0.839228 2.410000 -5.000000
v -0.839228 2.440000 3.266798
v -0.839228 2.410000 3.296607
v 0.839228 2.410000 3.296607
v -0.839228 2.440000 3.266798
v 0.839228 2.410000 3.296607
v 0.839228 2.440000 3.266798
v -0.868167 0.370000 -4.970192
v -0.839228 0.370000 -5.000000
v -0.839228 0.340000 -4.970192
v -0.868167 0.370000 3.266799
v -0.839228 0.340000 3.266799
v -0.839228 0.370000 3.296607
v -0.868167 2.410000 -4.970192
v -0.839228 2.440000 -4.970192
v -0.839228 2.410000 -5.000000
v -0.868167 2.410000 3.266798
v -0.839228 2.410000 3.296607
v -0.839228 2.440000 3.266798
v 0.868167 0.370000 -4.970192
v 0.839228 0.340000 -4.970192
v 0.839228 0.370000 -5.000000
v 0.868167 0.370000 3.266799
v 0.839228 0.370000 3.296607
v 0.839228 0.340000 3.266799
v 0.868167 2.410000 -4.970192
v 0.839228 2.410000 -5.000000
v 0.839228 2.440000 -4.970192
v 0.868167 2.410000 3.266798
v 0.839228 2.440000 3.266798
v 0.839228 2.410000 3.296607
vn -1.0000 -0.0000 -0.0000
vn 1.0000 -0.0000 -0.0000
vn -0.0000 -1.0000 -0.0000
vn -0.0000 1.0000 -0.0000
vn -0.0000 -0.0000 -1.0000
vn -0.0000 -0.0000 1.0000
vn -0.7197 -0.6943 -0.0000
vn -0.7197 0.6943 -0.0000
vn 0.7197 -0.6943 -0.0000
vn 0.7197 0.6943 -0.0000
vn -0.7175 -0.0000 -0.6966
vn -0.7175 -0.0000 0.6966
vn 0.7175 -0.0000 -0.6966
vn 0.7175 -0.0000 0.6966
vn -0.0000 -0.7048 -0.7094
vn -0.0000 -0.7048 0.7094
vn -0.0000 0.7048 -0.7094
vn -0.0000 0.7048 0.7094
vn -0.5900 -0.5691 -0.5728
vn -0.5900 -0.5691 0.5728
vn -0.5900 0.5691 -0.5728
vn -0.5900 0.5691 0.5728
vn 0.5900 -0.5691 -0.5728
vn 0.5900 -0.5691 0.5728
vn 0.5900 0.5691 -0.5728
vn 0.5900 0.5691 0.5728
vt 0.012440 0.202000
vt 0.012440 0.012440
vt 0.056674 0.191045
vt 0.150669 0.196441
vt 0.150669 0.012440
vt 0.196239 0.012440
vt 0.125788 0.202000
vt 0.081555 0.191045
vt 0.125788 0.012440
vt 0.266690 0.196441
vt 0.221120 0.012440
vt 0.266690 0.012440
vt 0.329064 0.431547
vt 0.291570 0.431547
vt 0.291570 0.247546
vt 0.504875 0.196441
vt 0.467381 0.012440
vt 0.504875 0.012440
vt 0.467381 0.351013
vt 0.504875 0.221322
vt 0.504875 0.351013
vt 0.467381 0.505585
vt 0.467381 0.375893
vt 0.504875 0.375893
vt 0.601408 0.685917
vt 0.633735 0.723412
vt 0.601408 0.723412
vt 0.710315 0.677245
vt 0.677989 0.677245
vt 0.677989 0.639751
vt 0.150669 0.723889
vt 0.150669 0.686395
vt 0.182995 0.686395
vt 0.434661 0.644404
vt 0.434661 0.693910
vt 0.410179 0.665513
vt 0.704833 0.405545
vt 0.704163 0.405545
vt 0.704163 0.221544
vt 0.530426 0.710554
vt 0.529756 0.526553
vt 0.530426 0.526553
vt 0.467381 0.714466
vt 0.468052 0.530465
vt 0.468052 0.714466
vt 0.492932 0.714466
vt 0.492932 0.530465
vt 0.493602 0.530465
vt 0.716472 0.196441
vt 0.717142 0.012440
vt 0.717142 0.196441
vt 0.729713 0.405545
vt 0.729713 0.221544
vt 0.730383 0.221544
vt 0.704833 0.614648
vt 0.704162 0.614648
vt 0.704162 0.430647
vt 0.730383 0.614426
vt 0.729713 0.430425
vt 0.730383 0.430425
vt 0.797531 0.084906
vt 0.797531 0.130481
vt 0.796865 0.084916
vt 0.797058 0.742535
vt 0.797724 0.788100
vt 0.797058 0.788110
vt 0.810772 0.408016
vt 0.810106 0.408016
vt 0.810106 0.362445
vt 0.810106 0.221544
vt 0.810772 0.267114
vt 0.810106 0.267114
vt 0.809235 0.626074
vt 0.809901 0.626084
vt 0.809235 0.671649
vt 0.724527 0.765077
vt 0.724527 0.810652
vt 0.723861 0.810643
vt 0.810772 0.291995
vt 0.810106 0.337565
vt 0.810106 0.291995
vt 0.810106 0.478466
vt 0.810106 0.432896
vt 0.810772 0.432896
vt 0.835653 0.346304
vt 0.836318 0.346316
vt 0.835653 0.383804
vt 0.836318 0.408685
vt 0.836318 0.446185
vt 0.835653 0.446173
vt 0.835653 0.259044
vt 0.835653 0.221544
vt 0.836318 0.259032
vt 0.836318 0.321424
vt 0.835652 0.283936
vt 0.836318 0.283924
vt 0.494284 0.795688
vt 0.494284 0.833193
vt 0.493339 0.795711
vt 0.383740 0.797366
vt 0.384684 0.834848
vt 0.383740 0.834872
vt 0.525605 0.835755
vt 0.524661 0.835755
vt 0.524661 0.798261
vt 0.834781 0.626074
vt 0.835726 0.663568
vt 0.834781 0.663568
vt 0.979903 0.037991
vt 0.980569 0.037991
vt 0.979903 0.038661
vt 0.353945 0.979909
vt 0.353945 0.979239
vt 0.354611 0.979909
vt 0.466844 0.978840
vt 0.466844 0.978038
vt 0.467605 0.978598
vt 0.974562 0.563688
vt 0.975208 0.563218
vt 0.975208 0.564163
vt 0.980221 0.743205
vt 0.980221 0.742535
vt 0.980887 0.743205
vt 0.979903 0.012440
vt 0.980569 0.012440
vt 0.979903 0.013110
vt 0.525422 0.978923
vt 0.524661 0.978680
vt 0.525422 0.978120
vt 0.975208 0.589513
vt 0.974562 0.589988
vt 0.974562 0.589043
s 0
usemtl train_car
f 1/1/1 2/2/1 3/3/1
f 4/4/1 5/5/1 6/6/1
f 7/7/2 8/8/2 9/9/2
f 10/10/2 11/11/2 12/12/2
f 13/13/3 14/14/3 15/15/3
f 16/16/3 17/17/3 18/18/3
f 19/19/4 20/20/4 21/21/4
f 22/22/4 23/23/4 24/24/4
f 25/25/5 26/26/5 27/27/5
f 28/28/5 29/29/5 30/30/5
f 31/31/6 32/32/6 33/33/6
f 34/34/6 35/35/6 36/36/6
f 37/37/7 38/38/7 39/39/7
f 40/40/7 41/41/7 42/42/7
f 43/43/8 44/44/8 45/45/8
f 46/46/8 47/47/8 48/48/8
f 49/49/9 50/50/9 51/51/9
f 52/52/9 53/53/9 54/54/9
f 55/55/10 56/56/10 57/57/10
f 58/58/10 59/59/10 60/60/10
f 61/61/11 62/62/11 63/63/11
f 64/64/11 65/65/11 66/66/11
f 67/67/12 68/68/12 69/69/12
f 70/70/12 71/71/12 72/72/12
f 73/73/13 74/74/13 75/75/13
f 76/76/13 77/77/13 78/78/13
f 79/79/14 80/80/14 81/81/14
f 82/82/14 83/83/14 84/84/14
f 85/85/15 86/86/15 87/87/15
f 88/88/15 89/89/15 90/90/15
f 91/91/16 92/92/16 93/93/16
f 94/94/16 95/95/16 96/96/16
f 97/97/17 98/98/17 99/99/17
f 100/100/17 101/101/17 102/102/17
f 103/103/18 104/104/18 105/105/18
f 106/106/18 107/107/18 108/108/18
f 109/109/19 110/110/19 111/111/19
f 112/112/20 113/113/20 114/114/20
f 115/115/21 116/116/21 117/117/21
f 118/118/22 119/119/22 120/120/22
f 121/121/23 122/122/23 123/123/23
f 124/124/24 125/125/24 126/126/24
f 127/127/25 128/128/25 129/129/25
f 130/130/26 131/131/26 132/132/26
o chassis
v -0.752412 0.030000 -4.920512
v -0.752412 0.390000 4.260404
v -0.752412 0.390000 -4.920512
v -0.752412 0.030000 -4.920512
v -0.752412 0.030000 4.260404
v -0.752412 0.390000 4.260404
v 0.752412 0.030000 -4.920512
v 0.752412 0.390000 -4.920512
v 0.752412 0.390000 4.260404
v 0.752412 0.030000 -4.920512
v 0.752412 0.390000 4.260404
v 0.752412 0.030000 4.260404
v -0.723473 -0.000000 -4.920512
v 0.723473 -0.000000 -4.920512
v 0.723473 0.000000 4.260404
v -0.723473 -0.000000 -4.920512
v 0.723473 0.000000 4.260404
v -0.723473 0.000000 4.260404
v -0.723473 0.420000 -4.920512
v 0.723473 0.420000 4.260404
v 0.723473 0.420000 -4.920512
v -0.723473 0.420000 -4.920512
v -0.723473 0.420000 4.260404
v 0.723473 0.420000 4.260404
v -0.723473 0.030000 -4.950320
v 0.723473 0.390000 -4.950320
v 0.723473 0.030000 -4.950320
v -0.723473 0.030000 -4.950320
v -0.723473 0.390000 -4.950320
v 0.723473 0.390000 -4.950320
v -0.723473 0.030000 4.290213
v 0.723473 0.030000 4.290213
v 0.723473 0.390000 4.290213
v -0.723473 0.030000 4.290213
v 0.723473 0.390000 4.290213
v -0.723473 0.390000 4.290213
v -0.752412 0.030000 -4.920512
v -0.723473 -0.000000 -4.920512
v -0.723473 0.000000 4.260404
v -0.752412 0.030000 -4.920512
v -0.723473 0.000000 4.260404
v -0.752412 0.030000 4.260404
v -0.752412 0.390000 -4.920512
v -0.723473 0.420000 4.260404
v -0.723473 0.420000 -4.920512
v -0.752412 0.390000 -4.920512
v -0.752412 0.390000 4.260404
v -0.723473 0.420000 4.260404
v 0.752412 0.030000 -4.920512
v 0.723473 0.000000 4.260404
v 0.723473 -0.000000 -4.920512
v 0.752412 0.030000 -4.920512
v 0.752412 0.030000 4.260404
v 0.723473 0.000000 4.260404
v 0.752412 0.390000 -4.920512
v 0.723473 0.420000 -4.920512
v 0.723473 0.420000 4.260404
v 0.752412 0.390000 -4.920512
v 0.723473 0.420000 4.260404
v 0.752412 0.390000 4.260404
v -0.752412 0.030000 -4.920512
v -0.723473 0.390000 -4.950320
v -0.723473 0.030000 -4.950320
v -0.752412 0.030000 -4.920512
v -0.752412 0.390000 -4.920512
v -0.723473 0.390000 -4.950320
v -0.752412 0.030000 4.260404
v -0.723473 0.030000 4.290213
v -0.723473 0.390000 4.290213
v -0.752412 0.030000 4.260404
v -0.723473 0.390000 4.290213
v -0.752412 0.390000 4.260404
v 0.752412 0.030000 -4.920512
v 0.723473 0.030000 -4.950320
v 0.723473 0.390000 -4.950320
v 0.752412 0.030000 -4.920512
v 0.723473 0.390000 -4.950320
v 0.752412 0.390000 -4.920512
v 0.752412 0.030000 4.260404
v 0.723473 0.390000 4.290213
v 0.723473 0.030000 4.290213
v 0.752412 0.030000 4.260404
v 0.752412 0.390000 4.260404
v 0.723473 0.390000 4.290213
v -0.723473 -0.000000 -4.920512
v -0.723473 0.030000 -4.950320
v 0.723473 0.030000 -4.950320
v -0.723473 -0.000000 -4.920512
v 0.723473 0.030000 -4.950320
v 0.723473 -0.000000 -4.920512
v -0.723473 0.000000 4.260404
v 0.723473 0.030000 4.290213
v -0.723473 0.030000 4.290213
v -0.723473 0.000000 4.260404
v 0.723473 0.000000 4.260404
v 0.723473 0.030000 4.290213
v -0.723473 0.420000 -4.920512
v 0.723473 0.390000 -4.950320
v -0.723473 0.390000 -4.950320
v -0.723473 0.420000 -4.920512
v 0.723473 0.420000 -4.920512
v 0.723473 0.390000 -4.950320
v -0.723473 0.420000 4.260404
v -0.723473 0.390000 4.290213
v 0.723473 0.390000 4.290213
v -0.723473 0.420000 4.260404
v 0.723473 0.390000 4.290213
v 0.723473 0.420000 4.260404
v -0.752412 0.030000 -4.920512
v -0.723473 0.030000 -4.950320
v -0.723473 -0.000000 -4.920512
v -0.752412 0.030000 4.260404
v -0.723473 0.000000 4.260404
v -0.723473 0.030000 4.290213
v -0.752412 0.390000 -4.920512
v -0.723473 0.420000 -4.920512
v -0.723473 0.390000 -4.950320
v -0.752412 0.390000 4.260404
v -0.723473 0.390000 4.290213
v -0.723473 0.420000 4.260404
v 0.752412 0.030000 -4.920512
v 0.723473 -0.000000 -4.920512
v 0.723473 0.030000 -4.950320
v 0.752412 0.030000 4.260404
v 0.723473 0.030000 4.290213
v 0.723473 0.000000 4.260404
v 0.752412 0.390000 -4.920512
v 0.723473 0.390000 -4.950320
v 0.723473 0.420000 -4.920512
v 0.752412 0.390000 4.260404
v 0.723473 0.420000 4.260404
v 0.723473 0.390000 4.290213
vn -1.0000 -0.0000 -0.0000
vn 1.0000 -0.0000 -0.0000
vn -0.0000 -1.0000 -0.0000
vn -0.0000 1.0000 -0.0000
vn -0.0000 -0.0000 -1.0000
vn -0.0000 -0.0000 1.0000
vn -0.7197 -0.6943 -0.0000
vn -0.7197 0.6943 -0.0000
vn 0.7197 -0.6943 -0.0000
vn 0.7197 0.6943 -0.0000
vn -0.7175 -0.0000 -0.6966
vn -0.7175 -0.0000 0.6966
vn 0.7175 -0.0000 -0.6966
vn 0.7175 -0.0000 0.6966
vn -0.0000 -0.7048 -0.7094
vn -0.0000 -0.7048 0.7094
vn -0.0000 0.7048 -0.7094
vn -0.0000 0.7048 0.7094
vn -0.5900 -0.5691 -0.5728
vn -0.5900 -0.5691 0.5728
vn -0.5900 0.5691 -0.5728
vn -0.5900 0.5691 0.5728
vn 0.5900 -0.5691 -0.5728
vn 0.5900 -0.5691 0.5728
vn 0.5900 0.5691 -0.5728
vn 0.5900 0.5691 0.5728
vt 0.012440 0.606528
vt 0.020482 0.459380
vt 0.020482 0.606528
vt 0.410179 0.619524
vt 0.410179 0.472375
vt 0.418220 0.472375
vt 0.102818 0.603997
vt 0.094776 0.603997
vt 0.094776 0.456848
vt 0.639245 0.159589
vt 0.631203 0.012440
vt 0.639245 0.012440
vt 0.044369 0.434499
vt 0.012440 0.429467
vt 0.044369 0.226881
vt 0.101571 0.431968
vt 0.069249 0.226881
vt 0.101571 0.226881
vt 0.410179 0.217527
vt 0.442501 0.012440
vt 0.442501 0.217527
vt 0.410179 0.447494
vt 0.410179 0.242408
vt 0.442501 0.242408
vt 0.555536 0.828433
vt 0.555536 0.804525
vt 0.563110 0.807230
vt 0.830177 0.829298
vt 0.822604 0.826593
vt 0.830177 0.805390
vt 0.783717 0.601193
vt 0.783717 0.568871
vt 0.791759 0.568871
vt 0.327422 0.686395
vt 0.327422 0.719702
vt 0.319618 0.688336
vt 0.151315 0.661514
vt 0.150669 0.661514
vt 0.150669 0.456427
vt 0.202369 0.661514
vt 0.201723 0.456427
vt 0.202369 0.456427
vt 0.227250 0.661514
vt 0.227896 0.456427
vt 0.227896 0.661514
vt 0.252777 0.661514
vt 0.252777 0.456427
vt 0.253423 0.456427
vt 0.278304 0.661514
vt 0.278950 0.456427
vt 0.278950 0.661514
vt 0.303830 0.661514
vt 0.303830 0.456427
vt 0.304477 0.456427
vt 0.176842 0.661514
vt 0.176196 0.661514
vt 0.176196 0.456427
vt 0.069895 0.661935
vt 0.069249 0.456848
vt 0.069895 0.456848
vt 0.632131 0.184470
vt 0.631203 0.192511
vt 0.631203 0.184470
vt 0.742023 0.194146
vt 0.742023 0.186104
vt 0.742951 0.186104
vt 0.261119 0.912467
vt 0.261765 0.912467
vt 0.261765 0.920509
vt 0.288441 0.912531
vt 0.289087 0.920573
vt 0.288441 0.920573
vt 0.768759 0.194146
vt 0.767831 0.194146
vt 0.767831 0.186104
vt 0.912075 0.417087
vt 0.913004 0.425129
vt 0.912075 0.425129
vt 0.316409 0.912531
vt 0.315763 0.920573
vt 0.315763 0.912531
vt 0.151315 0.912768
vt 0.151315 0.920809
vt 0.150669 0.920809
vt 0.864260 0.715132
vt 0.863594 0.715132
vt 0.863594 0.682810
vt 0.864372 0.502757
vt 0.865038 0.535080
vt 0.864372 0.535080
vt 0.861869 0.221544
vt 0.861869 0.253873
vt 0.861199 0.221558
vt 0.861199 0.311076
vt 0.861199 0.278754
vt 0.861869 0.278754
vt 0.013106 0.834668
vt 0.012440 0.866991
vt 0.012440 0.834668
vt 0.410179 0.867782
vt 0.410179 0.835460
vt 0.410844 0.835460
vt 0.861869 0.425482
vt 0.861199 0.425482
vt 0.861199 0.393159
vt 0.861199 0.335956
vt 0.861869 0.368279
vt 0.861199 0.368279
vt 0.289111 0.973379
vt 0.289111 0.974307
vt 0.288441 0.973829
vt 0.980315 0.114194
vt 0.980961 0.113523
vt 0.980961 0.114194
vt 0.494110 0.977661
vt 0.494110 0.978469
vt 0.493339 0.978179
vt 0.234513 0.978797
vt 0.234978 0.979246
vt 0.234513 0.979728
vt 0.313992 0.973379
vt 0.314662 0.973829
vt 0.313992 0.974307
vt 0.980981 0.772899
vt 0.980335 0.772899
vt 0.980335 0.772229
vt 0.880599 0.977741
vt 0.881370 0.978259
vt 0.880599 0.978548
vt 0.383221 0.978817
vt 0.383221 0.979748
vt 0.382756 0.979265
s 0
usemtl train_car
f 133/133/27 134/134/27 135/135/27
f 136/136/27 137/137/27 138/138/27
f 139/139/28 140/140/28 141/141/28
f 142/142/28 143/143/28 144/144/28
f 145/145/29 146/146/29 147/147/29
f 148/148/29 149/149/29 150/150/29
f 151/151/30 152/152/30 153/153/30
f 154/154/30 155/155/30 156/156/30
f 157/157/31 158/158/31 159/159/31
f 160/160/31 161/161/31 162/162/31
f 163/163/32 164/164/32 165/165/32
f 166/166/32 167/167/32 168/168/32
f 169/169/33 170/170/33 171/171/33
f 172/172/33 173/173/33 174/174/33
f 175/175/34 176/176/34 177/177/34
f 178/178/34 179/179/34 180/180/34
f 181/181/35 182/182/35 183/183/35
f 184/184/35 185/185/35 186/186/35
f 187/187/36 188/188/36 189/189/36
f 190/190/36 191/191/36 192/192/36
f 193/193/37 194/194/37 195/195/37
f 196/196/37 197/197/37 198/198/37
f 199/199/38 200/200/38 201/201/38
f 202/202/38 203/203/38 204/204/38
f 205/205/39 206/206/39 207/207/39
f 208/208/39 209/209/39 210/210/39
f 211/211/40 212/212/40 213/213/40
f 214/214/40 215/215/40 216/216/40
f 217/217/41 218/218/41 219/219/41
f 220/220/41 221/221/41 222/222/41
f 223/223/42 224/224/42 225/225/42
f 226/226/42 227/227/42 228/228/42
f 229/229/43 230/230/43 231/231/43
f 232/232/43 233/233/43 234/234/43
f 235/235/44 236/236/44 237/237/44
f 238/238/44 239/239/44 240/240/44
f 241/241/45 242/242/45 243/243/45
f 244/244/46 245/245/46 246/246/46
f 247/247/47 248/248/47 249/249/47
f 250/250/48 251/251/48 252/252/48
f 253/253/49 254/254/49 255/255/49
f 256/256/50 257/257/50 258/258/50
f 259/259/51 260/260/51 261/261/51
f 262/262/52 263/263/52 264/264/52
o doorline_l
v -0.829582 2.150000 -4.523069
v -0.829582 2.150000 -4.582686
v -0.829582 0.450000 -4.523069
v -0.829582 0.450000 -4.582686
v -0.877814 2.150000 -4.582686
v -0.877814 2.150000 -4.523069
v -0.877814 0.450000 -4.582686
v -0.877814 0.450000 -4.523069
v -0.877814 2.150000 -4.582686
v -0.829582 2.150000 -4.582686
v -0.877814 2.150000 -4.523069
v -0.829582 2.150000 -4.523069
v -0.877814 0.450000 -4.523069
v -0.829582 0.450000 -4.523069
v -0.877814 0.450000 -4.582686
v -0.829582 0.450000 -4.582686
v -0.877814 2.150000 -4.523069
v -0.829582 2.150000 -4.523069
v -0.877814 0.450000 -4.523069
v -0.829582 0.450000 -4.523069
v -0.829582 2.150000 -4.582686
v -0.877814 2.150000 -4.582686
v -0.829582 0.450000 -4.582686
v -0.877814 0.450000 -4.582686
vn 1.0000 -0.0000 -0.0000
vn -1.0000 -0.0000 -0.0000
vn -0.0000 1.0000 -0.0000
vn -0.0000 -1.0000 -0.0000
vn -0.0000 -0.0000 1.0000
vn -0.0000 -0.0000 -1.0000
vt 0.123231 0.817856
vt 0.123231 0.779881
vt 0.124562 0.817856
vt 0.124562 0.779881
vt 0.817971 0.563218
vt 0.817971 0.601193
vt 0.816640 0.563218
vt 0.816640 0.601193
vt 0.900793 0.129882
vt 0.900793 0.128551
vt 0.901870 0.129882
vt 0.901870 0.128551
vt 0.124308 0.970648
vt 0.124308 0.971979
vt 0.123231 0.970648
vt 0.123231 0.971979
vt 0.822412 0.122881
vt 0.822412 0.084906
vt 0.823489 0.122881
vt 0.823489 0.084906
vt 0.822604 0.780510
vt 0.822604 0.742535
vt 0.823682 0.780510
vt 0.823682 0.742535
s 0
usemtl train_car
f 265/265/53 267/266/53 266/267/53
f 267/266/53 268/268/53 266/267/53
f 269/269/54 271/270/54 270/271/54
f 271/270/54 272/272/54 270/271/54
f 273/273/55 275/274/55 274/275/55
f 275/274/55 276/276/55 274/275/55
f 277/277/56 279/278/56 278/279/56
f 279/278/56 280/280/56 278/279/56
f 281/281/57 283/282/57 282/283/57
f 283/282/57 284/284/57 282/283/57
f 285/285/58 287/286/58 286/287/58
f 287/286/58 288/288/58 286/287/58
o doorline_r
v 0.877814 2.150000 -4.523069
v 0.877814 2.150000 -4.582686
v 0.877814 0.450000 -4.523069
v 0.877814 0.450000 -4.582686
v 0.829582 2.150000 -4.582686
v 0.829582 2.150000 -4.523069
v 0.829582 0.450000 -4.582686
v 0.829582 0.450000 -4.523069
v 0.829582 2.150000 -4.582686
v 0.877814 2.150000 -4.582686
v 0.829582 2.150000 -4.523069
v 0.877814 2.150000 -4.523069
v 0.829582 0.450000 -4.523069
v 0.877814 0.450000 -4.523069
v 0.829582 0.450000 -4.582686
v 0.877814 0.450000 -4.582686
v 0.829582 2.150000 -4.523069
v 0.877814 2.150000 -4.523069
v 0.829582 0.450000 -4.523069
v 0.877814 0.450000 -4.523069
v 0.877814 2.150000 -4.582686
v 0.829582 2.150000 -4.582686
v 0.877814 0.450000 -4.582686
v 0.829582 0.450000 -4.582686
vn 1.0000 -0.0000 -0.0000
vn -1.0000 -0.0000 -0.0000
vn -0.0000 1.0000 -0.0000
vn -0.0000 -1.0000 -0.0000
vn -0.0000 -0.0000 1.0000
vn -0.0000 -0.0000 -1.0000
vt 0.062244 0.818323
vt 0.062244 0.780347
vt 0.063576 0.818323
vt 0.063576 0.780347
vt 0.823715 0.012440
vt 0.823715 0.050415
vt 0.822383 0.012440
vt 0.822383 0.050415
vt 0.755264 0.972085
vt 0.755264 0.970753
vt 0.756341 0.972085
vt 0.756341 0.970753
vt 0.177273 0.970814
vt 0.177273 0.972146
vt 0.176196 0.970814
vt 0.176196 0.972146
vt 0.825585 0.193337
vt 0.825585 0.155361
vt 0.826662 0.193337
vt 0.826662 0.155361
vt 0.467381 0.833663
vt 0.467381 0.795688
vt 0.468459 0.833663
vt 0.468459 0.795688
s 0
usemtl train_car
f 289/289/59 291/290/59 290/291/59
f 291/290/59 292/292/59 290/291/59
f 293/293/60 295/294/60 294/295/60
f 295/294/60 296/296/60 294/295/60
f 297/297/61 299/298/61 298/299/61
f 299/298/61 300/300/61 298/299/61
f 301/301/62 303/302/62 302/303/62
f 303/302/62 304/304/62 302/303/62
f 305/305/63 307/306/63 306/307/63
f 307/306/63 308/308/63 306/307/63
f 309/309/64 311/310/64 310/311/64
f 311/310/64 312/312/64 310/311/64
o headlight_l
v -0.501608 0.720000 4.960896
v -0.434084 0.738757 4.960896
v -0.384652 0.790000 4.960896
v -0.366559 0.860000 4.960896
v -0.384652 0.930000 4.960896
v -0.434084 0.981244 4.960896
v -0.501608 1.000000 4.960896
v -0.569132 0.981244 4.960896
v -0.618563 0.930000 4.960896
v -0.636656 0.860000 4.960896
v -0.618563 0.790000 4.960896
v -0.569132 0.738757 4.960896
v -0.501608 0.720000 4.960896
v -0.501608 0.720000 4.871472
v -0.434084 0.738757 4.871472
v -0.384652 0.790000 4.871472
v -0.366559 0.860000 4.871472
v -0.384652 0.930000 4.871472
v -0.434084 0.981244 4.871472
v -0.501608 1.000000 4.871472
v -0.569132 0.981244 4.871472
v -0.618563 0.930000 4.871472
v -0.636656 0.860000 4.871472
v -0.618563 0.790000 4.871472
v -0.569132 0.738757 4.871472
v -0.501608 0.720000 4.871472
v -0.501608 0.860000 4.960896
v -0.501608 0.860000 4.960896
v -0.501608 0.860000 4.960896
v -0.501608 0.860000 4.960896
v -0.501608 0.860000 4.960896
v -0.501608 0.860000 4.960896
v -0.501608 0.860000 4.960896
v -0.501608 0.860000 4.960896
v -0.501608 0.860000 4.960896
v -0.501608 0.860000 4.960896
v -0.501608 0.860000 4.960896
v -0.501608 0.860000 4.960896
v -0.501608 0.720000 4.960896
v -0.434084 0.738757 4.960896
v -0.384652 0.790000 4.960896
v -0.366559 0.860000 4.960896
v -0.384652 0.930000 4.960896
v -0.434084 0.981244 4.960896
v -0.501608 1.000000 4.960896
v -0.569132 0.981244 4.960896
v -0.618563 0.930000 4.960896
v -0.636656 0.860000 4.960896
v -0.618563 0.790000 4.960896
v -0.569132 0.738757 4.960896
v -0.501608 0.720000 4.960896
v -0.501608 0.860000 4.871472
v -0.501608 0.860000 4.871472
v -0.501608 0.860000 4.871472
v -0.501608 0.860000 4.871472
v -0.501608 0.860000 4.871472
v -0.501608 0.860000 4.871472
v -0.501608 0.860000 4.871472
v -0.501608 0.860000 4.871472
v -0.501608 0.860000 4.871472
v -0.501608 0.860000 4.871472
v -0.501608 0.860000 4.871472
v -0.501608 0.860000 4.871472
v -0.501608 0.720000 4.871472
v -0.434084 0.738757 4.871472
v -0.384652 0.790000 4.871472
v -0.366559 0.860000 4.871472
v -0.384652 0.930000 4.871472
v -0.434084 0.981244 4.871472
v -0.501608 1.000000 4.871472
v -0.569132 0.981244 4.871472
v -0.618563 0.930000 4.871472
v -0.636656 0.860000 4.871472
v -0.618563 0.790000 4.871472
v -0.569132 0.738757 4.871472
v -0.501608 0.720000 4.871472
vn -0.0000 -1.0000 -0.0000
vn 0.5135 -0.8581 -0.0000
vn 0.5136 -0.8580 -0.0000
vn 0.8736 -0.4866 -0.0000
vn 0.8737 -0.4865 -0.0000
vn 1.0000 -0.0001 -0.0000
vn 1.0000 0.0001 -0.0000
vn 0.8737 0.4865 -0.0000
vn 0.8736 0.4866 -0.0000
vn 0.5136 0.8580 -0.0000
vn 0.5135 0.8581 -0.0000
vn -0.0000 1.0000 -0.0000
vn 0.5135 0.8581 -0.0001
vn -0.5135 0.8581 -0.0001
vn -0.5135 0.8581 -0.0000
vn -0.5136 0.8580 -0.0000
vn -0.8736 0.4866 -0.0000
vn -0.8737 0.4865 -0.0000
vn -1.0000 0.0001 -0.0000
vn -1.0000 -0.0001 -0.0000
vn -0.8737 -0.4865 -0.0000
vn -0.8736 -0.4866 -0.0000
vn -0.5136 -0.8580 -0.0000
vn -0.5135 -0.8581 -0.0000
vn -0.0000 -0.0000 1.0000
vn -0.0000 -0.0000 -1.0000
vt 0.971834 0.502757
vt 0.971834 0.504755
vt 0.970490 0.502757
vt 0.970490 0.504755
vt 0.067898 0.686815
vt 0.069895 0.686815
vt 0.067898 0.688202
vt 0.069895 0.688202
vt 0.067898 0.689817
vt 0.069895 0.689817
vt 0.067898 0.691228
vt 0.069895 0.691228
vt 0.067898 0.692056
vt 0.069895 0.692056
vt 0.755264 0.912866
vt 0.757261 0.912866
vt 0.755264 0.914210
vt 0.757261 0.914210
vt 0.755264 0.915775
vt 0.757261 0.915775
vt 0.755264 0.917143
vt 0.757261 0.917143
vt 0.755264 0.917947
vt 0.757261 0.917947
vt 0.899912 0.056085
vt 0.901910 0.056085
vt 0.899912 0.056889
vt 0.901910 0.056889
vt 0.899912 0.058257
vt 0.901910 0.058257
vt 0.899912 0.059822
vt 0.901910 0.059822
vt 0.409317 0.934078
vt 0.410825 0.934497
vt 0.409317 0.937206
vt 0.938895 0.342474
vt 0.940445 0.342114
vt 0.940445 0.345159
vt 0.466844 0.950237
vt 0.468459 0.950237
vt 0.467704 0.953158
vt 0.796658 0.953862
vt 0.795043 0.953862
vt 0.795903 0.950942
vt 0.289990 0.948498
vt 0.288441 0.948139
vt 0.289990 0.945453
vt 0.013949 0.938224
vt 0.012440 0.938643
vt 0.012440 0.935516
vt 0.949681 0.566231
vt 0.948116 0.566231
vt 0.948844 0.563218
vt 0.177745 0.945574
vt 0.176196 0.945934
vt 0.176196 0.942889
vt 0.940445 0.373084
vt 0.938895 0.372628
vt 0.940445 0.370039
vt 0.382756 0.951015
vt 0.384371 0.951015
vt 0.383511 0.953936
vt 0.062244 0.943189
vt 0.063793 0.943548
vt 0.062244 0.946234
vt 0.938895 0.286153
vt 0.940417 0.286521
vt 0.938895 0.289253
vt 0.723861 0.935937
vt 0.725370 0.935518
vt 0.725370 0.938646
vt 0.094776 0.939655
vt 0.096325 0.940015
vt 0.094776 0.942700
vt 0.524661 0.950319
vt 0.526276 0.950319
vt 0.525416 0.953240
vt 0.855503 0.954160
vt 0.853888 0.954160
vt 0.854643 0.951239
vt 0.316420 0.948138
vt 0.314871 0.948498
vt 0.314871 0.945453
vt 0.939392 0.420214
vt 0.937884 0.419795
vt 0.939392 0.417087
vt 0.949681 0.594125
vt 0.948116 0.594125
vt 0.948953 0.591112
vt 0.944832 0.685854
vt 0.943282 0.685495
vt 0.944832 0.682810
vt 0.209425 0.945901
vt 0.207875 0.946357
vt 0.207875 0.943313
vt 0.353945 0.951438
vt 0.355560 0.951438
vt 0.354805 0.954359
vt 0.943282 0.711094
vt 0.944832 0.710735
vt 0.944832 0.713780
vt 0.677989 0.945736
vt 0.679555 0.945736
vt 0.678826 0.948750
s 0
usemtl train_car
f 313/313/65 326/314/65 314/315/66
f 326/314/65 327/316/66 314/315/66
f 314/317/67 327/318/67 315/319/68
f 327/318/67 328/320/68 315/319/68
f 315/319/69 328/320/69 316/321/70
f 328/320/69 329/322/70 316/321/70
f 316/321/71 329/322/71 317/323/72
f 329/322/71 330/324/72 317/323/72
f 317/323/73 330/324/73 318/325/74
f 330/324/73 331/326/74 318/325/74
f 318/327/75 331/328/75 319/329/76
f 331/328/77 332/330/76 319/329/76
f 319/329/76 332/330/76 320/331/78
f 332/330/76 333/332/79 320/331/79
f 320/331/80 333/332/80 321/333/81
f 333/332/80 334/334/81 321/333/81
f 321/333/82 334/334/82 322/335/83
f 334/334/82 335/336/83 322/335/83
f 322/337/84 335/338/84 323/339/85
f 335/338/84 336/340/85 323/339/85
f 323/339/86 336/340/86 324/341/87
f 336/340/86 337/342/87 324/341/87
f 324/341/88 337/342/88 325/343/65
f 337/342/88 338/344/65 325/343/65
f 351/345/89 352/346/89 339/347/89
f 352/348/89 353/349/89 340/350/89
f 353/351/89 354/352/89 341/353/89
f 354/354/89 355/355/89 342/356/89
f 355/357/89 356/358/89 343/359/89
f 356/360/89 357/361/89 344/362/89
f 357/363/89 358/364/89 345/365/89
f 358/366/89 359/367/89 346/368/89
f 359/369/89 360/370/89 347/371/89
f 360/372/89 361/373/89 348/374/89
f 361/375/89 362/376/89 349/377/89
f 362/378/89 363/379/89 350/380/89
f 377/381/90 376/382/90 364/383/90
f 378/384/90 377/385/90 365/386/90
f 379/387/90 378/388/90 366/389/90
f 380/390/90 379/391/90 367/392/90
f 381/393/90 380/394/90 368/395/90
f 382/396/90 381/397/90 369/398/90
f 383/399/90 382/400/90 370/401/90
f 384/402/90 383/403/90 371/404/90
f 385/405/90 384/406/90 372/407/90
f 386/408/90 385/409/90 373/410/90
f 387/411/90 386/412/90 374/413/90
f 388/414/90 387/415/90 375/416/90
o headlight_r
v 0.501608 0.720000 4.960896
v 0.569132 0.738757 4.960896
v 0.618563 0.790000 4.960896
v 0.636656 0.860000 4.960896
v 0.618563 0.930000 4.960896
v 0.569132 0.981244 4.960896
v 0.501608 1.000000 4.960896
v 0.434084 0.981244 4.960896
v 0.384652 0.930000 4.960896
v 0.366559 0.860000 4.960896
v 0.384652 0.790000 4.960896
v 0.434084 0.738757 4.960896
v 0.501608 0.720000 4.960896
v 0.501608 0.720000 4.871472
v 0.569132 0.738757 4.871472
v 0.618563 0.790000 4.871472
v 0.636656 0.860000 4.871472
v 0.618563 0.930000 4.871472
v 0.569132 0.981244 4.871472
v 0.501608 1.000000 4.871472
v 0.434084 0.981244 4.871472
v 0.384652 0.930000 4.871472
v 0.366559 0.860000 4.871472
v 0.384652 0.790000 4.871472
v 0.434084 0.738757 4.871472
v 0.501608 0.720000 4.871472
v 0.501608 0.860000 4.960896
v 0.501608 0.860000 4.960896
v 0.501608 0.860000 4.960896
v 0.501608 0.860000 4.960896
v 0.501608 0.860000 4.960896
v 0.501608 0.860000 4.960896
v 0.501608 0.860000 4.960896
v 0.501608 0.860000 4.960896
v 0.501608 0.860000 4.960896
v 0.501608 0.860000 4.960896
v 0.501608 0.860000 4.960896
v 0.501608 0.860000 4.960896
v 0.501608 0.720000 4.960896
v 0.569132 0.738757 4.960896
v 0.618563 0.790000 4.960896
v 0.636656 0.860000 4.960896
v 0.618563 0.930000 4.960896
v 0.569132 0.981244 4.960896
v 0.501608 1.000000 4.960896
v 0.434084 0.981244 4.960896
v 0.384652 0.930000 4.960896
v 0.366559 0.860000 4.960896
v 0.384652 0.790000 4.960896
v 0.434084 0.738757 4.960896
v 0.501608 0.720000 4.960896
v 0.501608 0.860000 4.871472
v 0.501608 0.860000 4.871472
v 0.501608 0.860000 4.871472
v 0.501608 0.860000 4.871472
v 0.501608 0.860000 4.871472
v 0.501608 0.860000 4.871472
v 0.501608 0.860000 4.871472
v 0.501608 0.860000 4.871472
v 0.501608 0.860000 4.871472
v 0.501608 0.860000 4.871472
v 0.501608 0.860000 4.871472
v 0.501608 0.860000 4.871472
v 0.501608 0.720000 4.871472
v 0.569132 0.738757 4.871472
v 0.618563 0.790000 4.871472
v 0.636656 0.860000 4.871472
v 0.618563 0.930000 4.871472
v 0.569132 0.981244 4.871472
v 0.501608 1.000000 4.871472
v 0.434084 0.981244 4.871472
v 0.384652 0.930000 4.871472
v 0.366559 0.860000 4.871472
v 0.384652 0.790000 4.871472
v 0.434084 0.738757 4.871472
v 0.501608 0.720000 4.871472
vn -0.0000 -1.0000 -0.0000
vn 0.5135 -0.8581 0.0001
vn 0.5135 -0.8581 -0.0000
vn 0.5136 -0.8580 -0.0000
vn 0.8736 -0.4866 -0.0000
vn 0.8737 -0.4865 -0.0000
vn 1.0000 -0.0001 -0.0000
vn 1.0000 0.0001 -0.0000
vn 0.8737 0.4865 -0.0000
vn 0.8736 0.4866 -0.0000
vn 0.5136 0.8580 -0.0000
vn 0.8736 0.4866 -0.0001
vn 0.5135 0.8581 -0.0000
vn -0.0000 1.0000 -0.0000
vn -0.5135 0.8581 -0.0000
vn -0.5136 0.8580 -0.0000
vn -0.8736 0.4866 -0.0000
vn -0.8737 0.4865 -0.0000
vn -1.0000 0.0001 -0.0000
vn -1.0000 -0.0001 -0.0000
vn -0.8737 -0.4865 -0.0000
vn -0.8736 -0.4866 -0.0000
vn -0.5136 -0.8580 -0.0000
vn -0.5135 -0.8581 -0.0000
vn -0.5135 -0.8581 0.0001
vn -0.0000 -0.0000 1.0000
vn -0.0000 -0.0000 -1.0000
vt 0.971834 0.529635
vt 0.971834 0.531633
vt 0.970490 0.529635
vt 0.970490 0.531633
vt 0.176196 0.912768
vt 0.178193 0.912768
vt 0.176196 0.913596
vt 0.178193 0.913596
vt 0.176196 0.915007
vt 0.178193 0.915007
vt 0.176196 0.916622
vt 0.178193 0.916622
vt 0.176196 0.918008
vt 0.178193 0.918008
vt 0.207875 0.913351
vt 0.209873 0.913351
vt 0.207875 0.914695
vt 0.209873 0.914695
vt 0.207875 0.916261
vt 0.209873 0.916261
vt 0.207875 0.917628
vt 0.209873 0.917628
vt 0.207875 0.918432
vt 0.209873 0.918432
vt 0.928115 0.084906
vt 0.930112 0.084906
vt 0.928115 0.085710
vt 0.930112 0.085710
vt 0.928115 0.087077
vt 0.930112 0.087077
vt 0.928115 0.088643
vt 0.930112 0.088643
vt 0.555536 0.946154
vt 0.557102 0.946154
vt 0.556373 0.949167
vt 0.943795 0.450722
vt 0.945345 0.450362
vt 0.945345 0.453407
vt 0.953408 0.012440
vt 0.955023 0.012440
vt 0.954268 0.015361
vt 0.935414 0.946337
vt 0.933865 0.946794
vt 0.933865 0.943749
vt 0.945610 0.505802
vt 0.944061 0.505443
vt 0.945610 0.502757
vt 0.494905 0.952781
vt 0.493339 0.952781
vt 0.494176 0.949767
vt 0.940255 0.629201
vt 0.938747 0.628782
vt 0.940255 0.626074
vt 0.908595 0.948128
vt 0.907045 0.948488
vt 0.907045 0.945443
vt 0.955023 0.043162
vt 0.953408 0.043162
vt 0.954163 0.040241
vt 0.822604 0.950548
vt 0.824219 0.950548
vt 0.823359 0.953469
vt 0.944061 0.530683
vt 0.945610 0.531042
vt 0.944061 0.533727
vt 0.938747 0.654501
vt 0.940255 0.654082
vt 0.940255 0.657209
vt 0.938895 0.314134
vt 0.940417 0.314501
vt 0.938895 0.317234
vt 0.601408 0.943901
vt 0.602958 0.944261
vt 0.601408 0.946946
vt 0.953819 0.113523
vt 0.955434 0.113523
vt 0.954574 0.116444
vt 0.124780 0.945767
vt 0.123231 0.945311
vt 0.124780 0.942722
vt 0.262668 0.948075
vt 0.261119 0.948434
vt 0.261119 0.945389
vt 0.882165 0.952860
vt 0.880599 0.952860
vt 0.881328 0.949847
vt 0.940403 0.224252
vt 0.938895 0.224671
vt 0.938895 0.221544
vt 0.151315 0.948735
vt 0.149766 0.948375
vt 0.151315 0.945690
vt 0.236128 0.953917
vt 0.234513 0.953917
vt 0.235373 0.950996
vt 0.642824 0.950866
vt 0.644439 0.950866
vt 0.643685 0.953786
vt 0.755264 0.943187
vt 0.756813 0.942828
vt 0.756813 0.945872
vt 0.938895 0.249552
vt 0.940403 0.249971
vt 0.938895 0.252679
s 0
usemtl train_car
f 389/417/91 402/418/91 390/419/92
f 402/418/91 403/420/93 390/419/93
f 390/421/94 403/422/94 391/423/95
f 403/422/94 404/424/95 391/423/95
f 391/423/96 404/424/96 392/425/97
f 404/424/96 405/426/97 392/425/97
f 392/425/98 405/426/98 393/427/99
f 405/426/98 406/428/99 393/427/99
f 393/427/100 406/428/100 394/429/101
f 406/428/102 407/430/101 394/429/101
f 394/431/103 407/432/103 395/433/104
f 407/432/103 408/434/104 395/433/104
f 395/433/104 408/434/104 396/435/105
f 408/434/104 409/436/105 396/435/105
f 396/435/106 409/436/106 397/437/107
f 409/436/106 410/438/107 397/437/107
f 397/437/108 410/438/108 398/439/109
f 410/438/108 411/440/109 398/439/109
f 398/441/110 411/442/110 399/443/111
f 411/442/110 412/444/111 399/443/111
f 399/443/112 412/444/112 400/445/113
f 412/444/112 413/446/113 400/445/113
f 400/445/114 413/446/114 401/447/91
f 413/446/115 414/448/91 401/447/91
f 427/449/116 428/450/116 415/451/116
f 428/452/116 429/453/116 416/454/116
f 429/455/116 430/456/116 417/457/116
f 430/458/116 431/459/116 418/460/116
f 431/461/116 432/462/116 419/463/116
f 432/464/116 433/465/116 420/466/116
f 433/467/116 434/468/116 421/469/116
f 434/470/116 435/471/116 422/472/116
f 435/473/116 436/474/116 423/475/116
f 436/476/116 437/477/116 424/478/116
f 437/479/116 438/480/116 425/481/116
f 438/482/116 439/483/116 426/484/116
f 453/485/117 452/486/117 440/487/117
f 454/488/117 453/489/117 441/490/117
f 455/491/117 454/492/117 442/493/117
f 456/494/117 455/495/117 443/496/117
f 457/497/117 456/498/117 444/499/117
f 458/500/117 457/501/117 445/502/117
f 459/503/117 458/504/117 446/505/117
f 460/506/117 459/507/117 447/508/117
f 461/509/117 460/510/117 448/511/117
f 462/512/117 461/513/117 449/514/117
f 463/515/117 462/516/117 450/517/117
f 464/518/117 463/519/117 451/520/117
o mullion_l_0
v -0.813183 2.080000 -4.100787
v -0.813183 2.080000 -4.210083
v -0.813183 1.240000 -4.100787
v -0.813183 1.240000 -4.210083
v -0.900000 2.080000 -4.210083
v -0.900000 2.080000 -4.100787
v -0.900000 1.240000 -4.210083
v -0.900000 1.240000 -4.100787
v -0.900000 2.080000 -4.210083
v -0.813183 2.080000 -4.210083
v -0.900000 2.080000 -4.100787
v -0.813183 2.080000 -4.100787
v -0.900000 1.240000 -4.100787
v -0.813183 1.240000 -4.100787
v -0.900000 1.240000 -4.210083
v -0.813183 1.240000 -4.210083
v -0.900000 2.080000 -4.100787
v -0.813183 2.080000 -4.100787
v -0.900000 1.240000 -4.100787
v -0.813183 1.240000 -4.100787
v -0.813183 2.080000 -4.210083
v -0.900000 2.080000 -4.210083
v -0.813183 1.240000 -4.210083
v -0.900000 1.240000 -4.210083
vn 1.0000 -0.0000 -0.0000
vn -1.0000 -0.0000 -0.0000
vn -0.0000 1.0000 -0.0000
vn -0.0000 -1.0000 -0.0000
vn -0.0000 -0.0000 1.0000
vn -0.0000 -0.0000 -1.0000
vt 0.795043 0.886802
vt 0.795043 0.868038
vt 0.797485 0.886802
vt 0.797485 0.868038
vt 0.786159 0.698540
vt 0.786159 0.717304
vt 0.783717 0.698540
vt 0.783717 0.717304
vt 0.956472 0.157803
vt 0.956472 0.155361
vt 0.958411 0.157803
vt 0.958411 0.155361
vt 0.961442 0.805390
vt 0.961442 0.807832
vt 0.959503 0.805390
vt 0.959503 0.807832
vt 0.906850 0.824155
vt 0.906850 0.805390
vt 0.908789 0.824155
vt 0.908789 0.805390
vt 0.907045 0.876918
vt 0.907045 0.858154
vt 0.908985 0.876918
vt 0.908985 0.858154
s 0
usemtl train_car
f 465/521/118 467/522/118 466/523/118
f 467/522/118 468/524/118 466/523/118
f 469/525/119 471/526/119 470/527/119
f 471/526/119 472/528/119 470/527/119
f 473/529/120 475/530/120 474/531/120
f 475/530/120 476/532/120 474/531/120
f 477/533/121 479/534/121 478/535/121
f 479/534/121 480/536/121 478/535/121
f 481/537/122 483/538/122 482/539/122
f 483/538/122 484/540/122 482/539/122
f 485/541/123 487/542/123 486/543/123
f 487/542/123 488/544/123 486/543/123
o mullion_l_1
v -0.813183 2.080000 -2.560699
v -0.813183 2.080000 -2.669995
v -0.813183 1.240000 -2.560699
v -0.813183 1.240000 -2.669995
v -0.900000 2.080000 -2.669995
v -0.900000 2.080000 -2.560699
v -0.900000 1.240000 -2.669995
v -0.900000 1.240000 -2.560699
v -0.900000 2.080000 -2.669995
v -0.813183 2.080000 -2.669995
v -0.900000 2.080000 -2.560699
v -0.813183 2.080000 -2.560699
v -0.900000 1.240000 -2.560699
v -0.813183 1.240000 -2.560699
v -0.900000 1.240000 -2.669995
v -0.813183 1.240000 -2.669995
v -0.900000 2.080000 -2.560699
v -0.813183 2.080000 -2.560699
v -0.900000 1.240000 -2.560699
v -0.813183 1.240000 -2.560699
v -0.813183 2.080000 -2.669995
v -0.900000 2.080000 -2.669995
v -0.813183 1.240000 -2.669995
v -0.900000 1.240000 -2.669995
vn 1.0000 -0.0000 -0.0000
vn -1.0000 -0.0000 -0.0000
vn -0.0000 1.0000 -0.0000
vn -0.0000 -1.0000 -0.0000
vn -0.0000 -0.0000 1.0000
vn -0.0000 -0.0000 -1.0000
vt 0.889919 0.521522
vt 0.889919 0.502757
vt 0.892360 0.521522
vt 0.892360 0.502757
vt 0.896416 0.563218
vt 0.896416 0.581982
vt 0.893974 0.563218
vt 0.893974 0.581982
vt 0.965325 0.344556
vt 0.965325 0.342114
vt 0.967264 0.344556
vt 0.967264 0.342114
vt 0.967264 0.370039
vt 0.967264 0.372481
vt 0.965325 0.370039
vt 0.965325 0.372481
vt 0.435725 0.910565
vt 0.435725 0.891801
vt 0.437664 0.910565
vt 0.437664 0.891801
vt 0.012440 0.910636
vt 0.012440 0.891871
vt 0.014380 0.910636
vt 0.014380 0.891871
s 0
usemtl train_car
f 489/545/124 491/546/124 490/547/124
f 491/546/124 492/548/124 490/547/124
f 493/549/125 495/550/125 494/551/125
f 495/550/125 496/552/125 494/551/125
f 497/553/126 499/554/126 498/555/126
f 499/554/126 500/556/126 498/555/126
f 501/557/127 503/558/127 502/559/127
f 503/558/127 504/560/127 502/559/127
f 505/561/128 507/562/128 506/563/128
f 507/562/128 508/564/128 506/563/128
f 509/565/129 511/566/129 510/567/129
f 511/566/129 512/568/129 510/567/129
o mullion_l_2
v -0.813183 2.080000 -1.020610
v -0.813183 2.080000 -1.129906
v -0.813183 1.240000 -1.020610
v -0.813183 1.240000 -1.129906
v -0.900000 2.080000 -1.129906
v -0.900000 2.080000 -1.020610
v -0.900000 1.240000 -1.129906
v -0.900000 1.240000 -1.020610
v -0.900000 2.080000 -1.129906
v -0.813183 2.080000 -1.129906
v -0.900000 2.080000 -1.020610
v -0.813183 2.080000 -1.020610
v -0.900000 1.240000 -1.020610
v -0.813183 1.240000 -1.020610
v -0.900000 1.240000 -1.129906
v -0.813183 1.240000 -1.129906
v -0.900000 2.080000 -1.020610
v -0.813183 2.080000 -1.020610
v -0.900000 1.240000 -1.020610
v -0.813183 1.240000 -1.020610
v -0.813183 2.080000 -1.129906
v -0.900000 2.080000 -1.129906
v -0.813183 1.240000 -1.129906
v -0.900000 1.240000 -1.129906
vn 1.0000 -0.0000 -0.0000
vn -1.0000 -0.0000 -0.0000
vn -0.0000 1.0000 -0.0000
vn -0.0000 -1.0000 -0.0000
vn -0.0000 -0.0000 1.0000
vn -0.0000 -0.0000 -1.0000
vt 0.899912 0.031204
vt 0.899912 0.012440
vt 0.902354 0.031204
vt 0.902354 0.012440
vt 0.153110 0.869123
vt 0.153110 0.887887
vt 0.150669 0.869123
vt 0.150669 0.887887
vt 0.723861 0.965968
vt 0.723861 0.963526
vt 0.725800 0.965968
vt 0.725800 0.963526
vt 0.966212 0.417087
vt 0.966212 0.419529
vt 0.964273 0.417087
vt 0.964273 0.419529
vt 0.723861 0.910638
vt 0.723861 0.891874
vt 0.725800 0.910638
vt 0.725800 0.891874
vt 0.911927 0.644838
vt 0.911927 0.626074
vt 0.913866 0.644838
vt 0.913866 0.626074
s 0
usemtl train_car
f 513/569/130 515/570/130 514/571/130
f 515/570/130 516/572/130 514/571/130
f 517/573/131 519/574/131 518/575/131
f 519/574/131 520/576/131 518/575/131
f 521/577/132 523/578/132 522/579/132
f 523/578/132 524/580/132 522/579/132
f 525/581/133 527/582/133 526/583/133
f 527/582/133 528/584/133 526/583/133
f 529/585/134 531/586/134 530/587/134
f 531/586/134 532/588/134 530/587/134
f 533/589/135 535/590/135 534/591/135
f 535/590/135 536/592/135 534/591/135
o mullion_l_3
v -0.813183 2.080000 0.519479
v -0.813183 2.080000 0.410182
v -0.813183 1.240000 0.519479
v -0.813183 1.240000 0.410183
v -0.900000 2.080000 0.410182
v -0.900000 2.080000 0.519479
v -0.900000 1.240000 0.410183
v -0.900000 1.240000 0.519479
v -0.900000 2.080000 0.410182
v -0.813183 2.080000 0.410182
v -0.900000 2.080000 0.519479
v -0.813183 2.080000 0.519479
v -0.900000 1.240000 0.519479
v -0.813183 1.240000 0.519479
v -0.900000 1.240000 0.410183
v -0.813183 1.240000 0.410183
v -0.900000 2.080000 0.519479
v -0.813183 2.080000 0.519479
v -0.900000 1.240000 0.519479
v -0.813183 1.240000 0.519479
v -0.813183 2.080000 0.410182
v -0.900000 2.080000 0.410182
v -0.813183 1.240000 0.410183
v -0.900000 1.240000 0.410183
vn 1.0000 -0.0000 -0.0000
vn -1.0000 -0.0000 -0.0000
vn -0.0000 1.0000 -0.0000
vn -0.0000 -1.0000 -0.0000
vn -0.0000 -0.0000 1.0000
vn -0.0000 -0.0000 -1.0000
vt 0.177991 0.887887
vt 0.177991 0.869123
vt 0.180432 0.887887
vt 0.180432 0.869123
vt 0.757705 0.869222
vt 0.757705 0.887986
vt 0.755264 0.869222
vt 0.755264 0.887986
vt 0.960295 0.946190
vt 0.960295 0.943749
vt 0.962234 0.946190
vt 0.962234 0.943749
vt 0.962905 0.916188
vt 0.962905 0.918629
vt 0.960965 0.916188
vt 0.960965 0.918629
vt 0.912075 0.240308
vt 0.912075 0.221544
vt 0.914015 0.240308
vt 0.914015 0.221544
vt 0.912076 0.304917
vt 0.912076 0.286153
vt 0.914015 0.304917
vt 0.914015 0.286153
s 0
usemtl train_car
f 537/593/136 539/594/136 538/595/136
f 539/594/136 540/596/136 538/595/136
f 541/597/137 543/598/137 542/599/137
f 543/598/137 544/600/137 542/599/137
f 545/601/138 547/602/138 546/603/138
f 547/602/138 548/604/138 546/603/138
f 549/605/139 551/606/139 550/607/139
f 551/606/139 552/608/139 550/607/139
f 553/609/140 555/610/140 554/611/140
f 555/610/140 556/612/140 554/611/140
f 557/613/141 559/614/141 558/615/141
f 559/614/141 560/616/141 558/615/141
o mullion_l_4
v -0.813183 2.080000 2.059568
v -0.813183 2.080000 1.950271
v -0.813183 1.240000 2.059568
v -0.813183 1.240000 1.950271
v -0.900000 2.080000 1.950271
v -0.900000 2.080000 2.059568
v -0.900000 1.240000 1.950271
v -0.900000 1.240000 2.059568
v -0.900000 2.080000 1.950271
v -0.813183 2.080000 1.950271
v -0.900000 2.080000 2.059568
v -0.813183 2.080000 2.059568
v -0.900000 1.240000 2.059568
v -0.813183 1.240000 2.059568
v -0.900000 1.240000 1.950271
v -0.813183 1.240000 1.950271
v -0.900000 2.080000 2.059568
v -0.813183 2.080000 2.059568
v -0.900000 1.240000 2.059568
v -0.813183 1.240000 2.059568
v -0.813183 2.080000 1.950271
v -0.900000 2.080000 1.950271
v -0.813183 1.240000 1.950271
v -0.900000 1.240000 1.950271
vn 1.0000 -0.0000 -0.0000
vn -1.0000 -0.0000 -0.0000
vn -0.0000 1.0000 -0.0000
vn -0.0000 -1.0000 -0.0000
vn -0.0000 -0.0000 1.0000
vn -0.0000 -0.0000 -1.0000
vt 0.207875 0.888471
vt 0.207875 0.869707
vt 0.210317 0.888471
vt 0.210317 0.869707
vt 0.263560 0.868822
vt 0.263560 0.887587
vt 0.261119 0.868822
vt 0.261119 0.887587
vt 0.965136 0.628515
vt 0.965136 0.626074
vt 0.967075 0.628515
vt 0.967075 0.626074
vt 0.967075 0.654082
vt 0.967075 0.656523
vt 0.965136 0.654082
vt 0.965136 0.656523
vt 0.912075 0.348562
vt 0.912075 0.329798
vt 0.914015 0.348562
vt 0.914015 0.329798
vt 0.912076 0.392207
vt 0.912076 0.373442
vt 0.914015 0.392207
vt 0.914015 0.373442
s 0
usemtl train_car
f 561/617/142 563/618/142 562/619/142
f 563/618/142 564/620/142 562/619/142
f 565/621/143 567/622/143 566/623/143
f 567/622/143 568/624/143 566/623/143
f 569/625/144 571/626/144 570/627/144
f 571/626/144 572/628/144 570/627/144
f 573/629/145 575/630/145 574/631/145
f 575/630/145 576/632/145 574/631/145
f 577/633/146 579/634/146 578/635/146
f 579/634/146 580/636/146 578/635/146
f 581/637/147 583/638/147 582/639/147
f 583/638/147 584/640/147 582/639/147
o mullion_r_0
v 0.900000 2.080000 -4.100787
v 0.900000 2.080000 -4.210083
v 0.900000 1.240000 -4.100787
v 0.900000 1.240000 -4.210083
v 0.813183 2.080000 -4.210083
v 0.813183 2.080000 -4.100787
v 0.813183 1.240000 -4.210083
v 0.813183 1.240000 -4.100787
v 0.813183 2.080000 -4.210083
v 0.900000 2.080000 -4.210083
v 0.813183 2.080000 -4.100787
v 0.900000 2.080000 -4.100787
v 0.813183 1.240000 -4.100787
v 0.900000 1.240000 -4.100787
v 0.813183 1.240000 -4.210083
v 0.900000 1.240000 -4.210083
v 0.813183 2.080000 -4.100787
v 0.900000 2.080000 -4.100787
v 0.813183 1.240000 -4.100787
v 0.900000 1.240000 -4.100787
v 0.900000 2.080000 -4.210083
v 0.813183 2.080000 -4.210083
v 0.900000 1.240000 -4.210083
v 0.813183 1.240000 -4.210083
vn 1.0000 -0.0000 -0.0000
vn -1.0000 -0.0000 -0.0000
vn -0.0000 1.0000 -0.0000
vn -0.0000 -1.0000 -0.0000
vn -0.0000 -0.0000 1.0000
vn -0.0000 -0.0000 -1.0000
vt 0.288441 0.887651
vt 0.288441 0.868886
vt 0.290882 0.887651
vt 0.290882 0.868886
vt 0.645266 0.866166
vt 0.645266 0.884930
vt 0.642824 0.866166
vt 0.642824 0.884930
vt 0.959609 0.860595
vt 0.959609 0.858154
vt 0.961548 0.860595
vt 0.961548 0.858154
vt 0.961571 0.887185
vt 0.961571 0.889627
vt 0.959632 0.887185
vt 0.959632 0.889627
vt 0.094776 0.914775
vt 0.094776 0.896011
vt 0.096715 0.914775
vt 0.096715 0.896011
vt 0.123231 0.917842
vt 0.123231 0.899078
vt 0.125170 0.917842
vt 0.125170 0.899078
s 0
usemtl train_car
f 585/641/148 587/642/148 586/643/148
f 587/642/148 588/644/148 586/643/148
f 589/645/149 591/646/149 590/647/149
f 591/646/149 592/648/149 590/647/149
f 593/649/150 595/650/150 594/651/150
f 595/650/150 596/652/150 594/651/150
f 597/653/151 599/654/151 598/655/151
f 599/654/151 600/656/151 598/655/151
f 601/657/152 603/658/152 602/659/152
f 603/658/152 604/660/152 602/659/152
f 605/661/153 607/662/153 606/663/153
f 607/662/153 608/664/153 606/663/153
o mullion_r_1
v 0.900000 2.080000 -2.560699
v 0.900000 2.080000 -2.669995
v 0.900000 1.240000 -2.560699
v 0.900000 1.240000 -2.669995
v 0.813183 2.080000 -2.669995
v 0.813183 2.080000 -2.560699
v 0.813183 1.240000 -2.669995
v 0.813183 1.240000 -2.560699
v 0.813183 2.080000 -2.669995
v 0.900000 2.080000 -2.669995
v 0.813183 2.080000 -2.560699
v 0.900000 2.080000 -2.560699
v 0.813183 1.240000 -2.560699
v 0.900000 1.240000 -2.560699
v 0.813183 1.240000 -2.669995
v 0.900000 1.240000 -2.669995
v 0.813183 2.080000 -2.560699
v 0.900000 2.080000 -2.560699
v 0.813183 1.240000 -2.560699
v 0.900000 1.240000 -2.560699
v 0.900000 2.080000 -2.669995
v 0.813183 2.080000 -2.669995
v 0.900000 1.240000 -2.669995
v 0.813183 1.240000 -2.669995
vn 1.0000 -0.0000 -0.0000
vn -1.0000 -0.0000 -0.0000
vn -0.0000 1.0000 -0.0000
vn -0.0000 -1.0000 -0.0000
vn -0.0000 -0.0000 1.0000
vn -0.0000 -0.0000 -1.0000
vt 0.900793 0.103670
vt 0.900793 0.084906
vt 0.903234 0.103670
vt 0.903234 0.084906
vt 0.903907 0.742535
vt 0.903907 0.761299
vt 0.901465 0.742535
vt 0.901465 0.761299
vt 0.094776 0.970022
vt 0.094776 0.967580
vt 0.096715 0.970022
vt 0.096715 0.967580
vt 0.971652 0.682810
vt 0.971652 0.685251
vt 0.969712 0.682810
vt 0.969712 0.685251
vt 0.062244 0.918308
vt 0.062244 0.899544
vt 0.064183 0.918308
vt 0.064183 0.899544
vt 0.916463 0.701574
vt 0.916463 0.682810
vt 0.918402 0.701574
vt 0.918402 0.682810
s 0
usemtl train_car
f 609/665/154 611/666/154 610/667/154
f 611/666/154 612/668/154 610/667/154
f 613/669/155 615/670/155 614/671/155
f 615/670/155 616/672/155 614/671/155
f 617/673/156 619/674/156 618/675/156
f 619/674/156 620/676/156 618/675/156
f 621/677/157 623/678/157 622/679/157
f 623/678/157 624/680/157 622/679/157
f 625/681/158 627/682/158 626/683/158
f 627/682/158 628/684/158 626/683/158
f 629/685/159 631/686/159 630/687/159
f 631/686/159 632/688/159 630/687/159
o mullion_r_2
v 0.900000 2.080000 -1.020610
v 0.900000 2.080000 -1.129906
v 0.900000 1.240000 -1.020610
v 0.900000 1.240000 -1.129906
v 0.813183 2.080000 -1.129906
v 0.813183 2.080000 -1.020610
v 0.813183 1.240000 -1.129906
v 0.813183 1.240000 -1.020610
v 0.813183 2.080000 -1.129906
v 0.900000 2.080000 -1.129906
v 0.813183 2.080000 -1.020610
v 0.900000 2.080000 -1.020610
v 0.813183 1.240000 -1.020610
v 0.900000 1.240000 -1.020610
v 0.813183 1.240000 -1.129906
v 0.900000 1.240000 -1.129906
v 0.813183 2.080000 -1.020610
v 0.900000 2.080000 -1.020610
v 0.813183 1.240000 -1.020610
v 0.900000 1.240000 -1.020610
v 0.900000 2.080000 -1.129906
v 0.813183 2.080000 -1.129906
v 0.900000 1.240000 -1.129906
v 0.813183 1.240000 -1.129906
vn 1.0000 -0.0000 -0.0000
vn -1.0000 -0.0000 -0.0000
vn -0.0000 1.0000 -0.0000
vn -0.0000 -1.0000 -0.0000
vn -0.0000 -0.0000 1.0000
vn -0.0000 -0.0000 -1.0000
vt 0.903340 0.174126
vt 0.903340 0.155361
vt 0.905781 0.174126
vt 0.905781 0.155361
vt 0.603850 0.870461
vt 0.603850 0.889226
vt 0.601408 0.870461
vt 0.601408 0.889226
vt 0.965284 0.223985
vt 0.965284 0.221544
vt 0.967223 0.223985
vt 0.967223 0.221544
vt 0.967223 0.248866
vt 0.967223 0.251307
vt 0.965284 0.248866
vt 0.965284 0.251307
vt 0.916975 0.469126
vt 0.916975 0.450362
vt 0.918915 0.469126
vt 0.918915 0.450362
vt 0.917241 0.521522
vt 0.917241 0.502757
vt 0.919180 0.521522
vt 0.919180 0.502757
s 0
usemtl train_car
f 633/689/160 635/690/160 634/691/160
f 635/690/160 636/692/160 634/691/160
f 637/693/161 639/694/161 638/695/161
f 639/694/161 640/696/161 638/695/161
f 641/697/162 643/698/162 642/699/162
f 643/698/162 644/700/162 642/699/162
f 645/701/163 647/702/163 646/703/163
f 647/702/163 648/704/163 646/703/163
f 649/705/164 651/706/164 650/707/164
f 651/706/164 652/708/164 650/707/164
f 653/709/165 655/710/165 654/711/165
f 655/710/165 656/712/165 654/711/165
o mullion_r_3
v 0.900000 2.080000 0.519479
v 0.900000 2.080000 0.410182
v 0.900000 1.240000 0.519479
v 0.900000 1.240000 0.410183
v 0.813183 2.080000 0.410182
v 0.813183 2.080000 0.519479
v 0.813183 1.240000 0.410183
v 0.813183 1.240000 0.519479
v 0.813183 2.080000 0.410182
v 0.900000 2.080000 0.410182
v 0.813183 2.080000 0.519479
v 0.900000 2.080000 0.519479
v 0.813183 1.240000 0.519479
v 0.900000 1.240000 0.519479
v 0.813183 1.240000 0.410183
v 0.900000 1.240000 0.410183
v 0.813183 2.080000 0.519479
v 0.900000 2.080000 0.519479
v 0.813183 1.240000 0.519479
v 0.900000 1.240000 0.519479
v 0.900000 2.080000 0.410182
v 0.813183 2.080000 0.410182
v 0.900000 1.240000 0.410183
v 0.813183 1.240000 0.410183
vn 1.0000 -0.0000 -0.0000
vn -1.0000 -0.0000 -0.0000
vn -0.0000 1.0000 -0.0000
vn -0.0000 -1.0000 -0.0000
vn -0.0000 -0.0000 1.0000
vn -0.0000 -0.0000 -1.0000
vt 0.677989 0.891061
vt 0.677989 0.872297
vt 0.680431 0.891061
vt 0.680431 0.872297
vt 0.891582 0.682810
vt 0.891582 0.701574
vt 0.889141 0.682810
vt 0.889141 0.701574
vt 0.435725 0.965448
vt 0.435725 0.963006
vt 0.437664 0.965448
vt 0.437664 0.963006
vt 0.014380 0.963524
vt 0.014380 0.965966
vt 0.012440 0.963524
vt 0.012440 0.965966
vt 0.907045 0.920563
vt 0.907045 0.901798
vt 0.908985 0.920563
vt 0.908985 0.901798
vt 0.555536 0.921274
vt 0.555536 0.902510
vt 0.557476 0.921274
vt 0.557476 0.902510
s 0
usemtl train_car
f 657/713/166 659/714/166 658/715/166
f 659/714/166 660/716/166 658/715/166
f 661/717/167 663/718/167 662/719/167
f 663/718/167 664/720/167 662/719/167
f 665/721/168 667/722/168 666/723/168
f 667/722/168 668/724/168 666/723/168
f 669/725/169 671/726/169 670/727/169
f 671/726/169 672/728/169 670/727/169
f 673/729/170 675/730/170 674/731/170
f 675/730/170 676/732/170 674/731/170
f 677/733/171 679/734/171 678/735/171
f 679/734/171 680/736/171 678/735/171
o mullion_r_4
v 0.900000 2.080000 2.059568
v 0.900000 2.080000 1.950271
v 0.900000 1.240000 2.059568
v 0.900000 1.240000 1.950271
v 0.813183 2.080000 1.950271
v 0.813183 2.080000 2.059568
v 0.813183 1.240000 1.950271
v 0.813183 1.240000 2.059568
v 0.813183 2.080000 1.950271
v 0.900000 2.080000 1.950271
v 0.813183 2.080000 2.059568
v 0.900000 2.080000 2.059568
v 0.813183 1.240000 2.059568
v 0.900000 1.240000 2.059568
v 0.813183 1.240000 1.950271
v 0.900000 1.240000 1.950271
v 0.813183 2.080000 2.059568
v 0.900000 2.080000 2.059568
v 0.813183 1.240000 2.059568
v 0.900000 1.240000 2.059568
v 0.900000 2.080000 1.950271
v 0.813183 2.080000 1.950271
v 0.900000 1.240000 1.950271
v 0.813183 1.240000 1.950271
vn 1.0000 -0.0000 -0.0000
vn -1.0000 -0.0000 -0.0000
vn -0.0000 1.0000 -0.0000
vn -0.0000 -1.0000 -0.0000
vn -0.0000 -0.0000 1.0000
vn -0.0000 -0.0000 -1.0000
vt 0.889653 0.469126
vt 0.889653 0.450362
vt 0.892095 0.469126
vt 0.892095 0.450362
vt 0.318204 0.868886
vt 0.318204 0.887651
vt 0.315763 0.868886
vt 0.315763 0.887651
vt 0.965297 0.288594
vt 0.965297 0.286153
vt 0.967237 0.288594
vt 0.967237 0.286153
vt 0.967237 0.314134
vt 0.967237 0.316575
vt 0.965297 0.314134
vt 0.965297 0.316575
vt 0.921296 0.581982
vt 0.921296 0.563218
vt 0.923236 0.581982
vt 0.923236 0.563218
vt 0.822604 0.925667
vt 0.822604 0.906903
vt 0.824543 0.925667
vt 0.824543 0.906903
s 0
usemtl train_car
f 681/737/172 683/738/172 682/739/172
f 683/738/172 684/740/172 682/739/172
f 685/741/173 687/742/173 686/743/173
f 687/742/173 688/744/173 686/743/173
f 689/745/174 691/746/174 690/747/174
f 691/746/174 692/748/174 690/747/174
f 693/749/175 695/750/175 694/751/175
f 695/750/175 696/752/175 694/751/175
f 697/753/176 699/754/176 698/755/176
f 699/754/176 700/756/176 698/755/176
f 701/757/177 703/758/177 702/759/177
f 703/758/177 704/760/177 702/759/177
o nose_lip
v 0.675241 0.580000 4.985737
v 0.675241 0.580000 4.886376
v 0.675241 0.460000 4.985737
v 0.675241 0.460000 4.886376
v -0.675241 0.580000 4.886376
v -0.675241 0.580000 4.985737
v -0.675241 0.460000 4.886376
v -0.675241 0.460000 4.985737
v -0.675241 0.580000 4.886376
v 0.675241 0.580000 4.886376
v -0.675241 0.580000 4.985737
v 0.675241 0.580000 4.985737
v -0.675241 0.460000 4.985737
v 0.675241 0.460000 4.985737
v -0.675241 0.460000 4.886376
v 0.675241 0.460000 4.886376
v -0.675241 0.580000 4.985737
v 0.675241 0.580000 4.985737
v -0.675241 0.460000 4.985737
v 0.675241 0.460000 4.985737
v 0.675241 0.580000 4.886376
v -0.675241 0.580000 4.886376
v 0.675241 0.460000 4.886376
v -0.675241 0.460000 4.886376
vn 1.0000 -0.0000 -0.0000
vn -1.0000 -0.0000 -0.0000
vn -0.0000 1.0000 -0.0000
vn -0.0000 -1.0000 -0.0000
vn -0.0000 -0.0000 1.0000
vn -0.0000 -0.0000 -1.0000
vt 0.933865 0.918868
vt 0.933865 0.916188
vt 0.936085 0.918868
vt 0.936085 0.916188
vt 0.437944 0.935445
vt 0.437944 0.938126
vt 0.435725 0.935445
vt 0.435725 0.938126
vt 0.850589 0.115073
vt 0.848369 0.115073
vt 0.850589 0.084906
vt 0.848369 0.084906
vt 0.848562 0.742535
vt 0.850782 0.742535
vt 0.848562 0.772702
vt 0.850782 0.772702
vt 0.645505 0.841285
vt 0.642824 0.841285
vt 0.645505 0.811118
vt 0.642824 0.811118
vt 0.797724 0.843158
vt 0.795043 0.843158
vt 0.797724 0.812990
vt 0.795043 0.812990
s 0
usemtl train_car
f 705/761/178 707/762/178 706/763/178
f 707/762/178 708/764/178 706/763/178
f 709/765/179 711/766/179 710/767/179
f 711/766/179 712/768/179 710/767/179
f 713/769/180 715/770/180 714/771/180
f 715/770/180 716/772/180 714/771/180
f 717/773/181 719/774/181 718/775/181
f 719/774/181 720/776/181 718/775/181
f 721/777/182 723/778/182 722/779/182
f 723/778/182 724/780/182 722/779/182
f 725/781/183 727/782/183 726/783/183
f 727/782/183 728/784/183 726/783/183
o nose_shell
v 0.868167 0.340000 3.296607
v 0.868167 2.440000 3.296607
v 0.868167 2.440000 3.942451
v 0.868167 0.560000 4.936056
v 0.868167 0.340000 4.836696
v 0.868167 0.340000 3.296607
v 0.868167 2.340000 4.091492
v 0.868167 1.300000 4.936056
v 0.868167 0.560000 4.936056
v 0.868167 0.340000 3.296607
v 0.868167 2.440000 3.942451
v 0.868167 2.340000 4.091492
v 0.868167 2.340000 4.091492
v 0.868167 0.560000 4.936056
v 0.868167 0.340000 3.296607
v -0.868167 2.440000 3.942451
v -0.868167 2.440000 3.296607
v -0.868167 0.340000 3.296607
v -0.868167 0.340000 3.296607
v -0.868167 0.340000 4.836696
v -0.868167 0.560000 4.936056
v -0.868167 0.560000 4.936056
v -0.868167 1.300000 4.936056
v -0.868167 2.340000 4.091492
v -0.868167 2.340000 4.091492
v -0.868167 2.440000 3.942451
v -0.868167 0.340000 3.296607
v -0.868167 0.340000 3.296607
v -0.868167 0.560000 4.936056
v -0.868167 2.340000 4.091492
v 0.868167 0.340000 3.296607
v 0.868167 0.340000 4.836696
v 0.839228 0.310000 3.266799
v 0.868167 0.340000 4.836696
v 0.839228 0.310000 4.855889
v 0.839228 0.310000 3.266799
v 0.839228 0.310000 3.266799
v 0.839228 0.310000 4.855889
v -0.839228 0.310000 3.266799
v 0.839228 0.310000 4.855889
v -0.839228 0.310000 4.855889
v -0.839228 0.310000 3.266799
v -0.839228 0.310000 3.266799
v -0.839228 0.310000 4.855889
v -0.868167 0.340000 3.296607
v -0.839228 0.310000 4.855889
v -0.868167 0.340000 4.836696
v -0.868167 0.340000 3.296607
v 0.868167 0.340000 4.836696
v 0.868167 0.560000 4.936056
v 0.839228 0.310000 4.855889
v 0.868167 0.560000 4.936056
v 0.839228 0.553502 4.965865
v 0.839228 0.310000 4.855889
v 0.839228 0.310000 4.855889
v 0.839228 0.553502 4.965865
v -0.839228 0.310000 4.855889
v 0.839228 0.553502 4.965865
v -0.839228 0.553502 4.965865
v -0.839228 0.310000 4.855889
v -0.839228 0.310000 4.855889
v -0.839228 0.553502 4.965865
v -0.868167 0.340000 4.836696
v -0.839228 0.553502 4.965865
v -0.868167 0.560000 4.936056
v -0.868167 0.340000 4.836696
v 0.868167 0.560000 4.936056
v 0.868167 1.300000 4.936056
v 0.839228 0.553502 4.965865
v 0.868167 1.300000 4.936056
v 0.839228 1.310700 4.965865
v 0.839228 0.553502 4.965865
v 0.839228 0.553502 4.965865
v 0.839228 1.310700 4.965865
v -0.839228 0.553502 4.965865
v 0.839228 1.310700 4.965865
v -0.839228 1.310700 4.965865
v -0.839228 0.553502 4.965865
v -0.839228 0.553502 4.965865
v -0.839228 1.310700 4.965865
v -0.868167 0.560000 4.936056
v -0.839228 1.310700 4.965865
v -0.868167 1.300000 4.936056
v -0.868167 0.560000 4.936056
v 0.868167 1.300000 4.936056
v 0.868167 2.340000 4.091492
v 0.839228 1.310700 4.965865
v 0.868167 2.340000 4.091492
v 0.839228 2.362467 4.111744
v 0.839228 1.310700 4.965865
v 0.839228 1.310700 4.965865
v 0.839228 2.362467 4.111744
v -0.839228 1.310700 4.965865
v 0.839228 2.362467 4.111744
v -0.839228 2.362467 4.111744
v -0.839228 1.310700 4.965865
v -0.839228 1.310700 4.965865
v -0.839228 2.362467 4.111744
v -0.868167 1.300000 4.936056
v -0.839228 2.362467 4.111744
v -0.868167 2.340000 4.091492
v -0.868167 1.300000 4.936056
v 0.868167 2.340000 4.091492
v 0.868167 2.440000 3.942451
v 0.839228 2.362467 4.111744
v 0.868167 2.440000 3.942451
v 0.839228 2.470000 3.951476
v 0.839228 2.362467 4.111744
v 0.839228 2.362467 4.111744
v 0.839228 2.470000 3.951476
v -0.839228 2.362467 4.111744
v 0.839228 2.470000 3.951476
v -0.839228 2.470000 3.951476
v -0.839228 2.362467 4.111744
v -0.839228 2.362467 4.111744
v -0.839228 2.470000 3.951476
v -0.868167 2.340000 4.091492
v -0.839228 2.470000 3.951476
v -0.868167 2.440000 3.942451
v -0.868167 2.340000 4.091492
v 0.868167 2.440000 3.942451
v 0.868167 2.440000 3.296607
v 0.839228 2.470000 3.951476
v 0.868167 2.440000 3.296607
v 0.839228 2.470000 3.266798
v 0.839228 2.470000 3.951476
v 0.839228 2.470000 3.951476
v 0.839228 2.470000 3.266798
v -0.839228 2.470000 3.951476
v 0.839228 2.470000 3.266798
v -0.839228 2.470000 3.266798
v -0.839228 2.470000 3.951476
v -0.839228 2.470000 3.951476
v -0.839228 2.470000 3.266798
v -0.868167 2.440000 3.942451
v -0.839228 2.470000 3.266798
v -0.868167 2.440000 3.296607
v -0.868167 2.440000 3.942451
v 0.868167 2.440000 3.296607
v 0.868167 0.340000 3.296607
v 0.839228 2.470000 3.266798
v 0.868167 0.340000 3.296607
v 0.839228 0.310000 3.266799
v 0.839228 2.470000 3.266798
v 0.839228 2.470000 3.266798
v 0.839228 0.310000 3.266799
v -0.839228 2.470000 3.266798
v 0.839228 0.310000 3.266799
v -0.839228 0.310000 3.266799
v -0.839228 2.470000 3.266798
v -0.839228 2.470000 3.266798
v -0.839228 0.310000 3.266799
v -0.868167 2.440000 3.296607
v -0.839228 0.310000 3.266799
v -0.868167 0.340000 3.296607
v -0.868167 2.440000 3.296607
vn 1.0000 -0.0000 -0.0000
vn -1.0000 -0.0000 -0.0000
vn 0.7197 -0.6943 -0.0000
vn -0.0000 -1.0000 -0.0000
vn -0.7197 -0.6943 -0.0000
vn 0.7179 -0.2866 0.6345
vn 0.7179 -0.2865 0.6345
vn -0.0000 -0.4116 0.9114
vn -0.7179 -0.2865 0.6345
vn 0.7175 -0.0000 0.6966
vn -0.0000 -0.0000 1.0000
vn -0.7175 -0.0000 0.6966
vn 0.7184 0.4385 0.5400
vn -0.0000 0.6304 0.7763
vn -0.7184 0.4385 0.5400
vn 0.7190 0.5771 0.3872
vn -0.0000 0.8304 0.5572
vn -0.7190 0.5771 0.3872
vn 0.7197 0.6943 -0.0000
vn -0.0000 1.0000 -0.0000
vn -0.7197 0.6943 -0.0000
vn 0.7175 -0.0000 -0.6966
vn -0.0000 -0.0000 -1.0000
vn -0.7175 -0.0000 -0.6966
vt 0.164600 0.748769
vt 0.164600 0.784454
vt 0.150669 0.782020
vt 0.410179 0.775131
vt 0.413682 0.777037
vt 0.410179 0.810579
vt 0.729878 0.740197
vt 0.723861 0.713167
vt 0.729878 0.702125
vt 0.796865 0.191413
vt 0.796865 0.155361
vt 0.800704 0.156204
vt 0.262641 0.706870
vt 0.294738 0.686395
vt 0.294738 0.721843
vt 0.221807 0.782597
vt 0.207875 0.785031
vt 0.207875 0.749346
vt 0.442066 0.810579
vt 0.438563 0.777038
vt 0.442066 0.775131
vt 0.062244 0.717395
vt 0.068261 0.728437
vt 0.062244 0.755467
vt 0.012440 0.774579
vt 0.016279 0.773736
vt 0.016279 0.809788
vt 0.207875 0.705459
vt 0.237761 0.686394
vt 0.237761 0.724466
vt 0.842852 0.597609
vt 0.843765 0.563218
vt 0.843765 0.598299
vt 0.353945 0.799820
vt 0.354876 0.799391
vt 0.354876 0.834889
vt 0.555536 0.714543
vt 0.576528 0.685917
vt 0.576528 0.729937
vt 0.677989 0.702125
vt 0.698981 0.717518
vt 0.677989 0.746144
vt 0.838561 0.538255
vt 0.838561 0.502757
vt 0.839492 0.537589
vt 0.262641 0.809098
vt 0.263560 0.809551
vt 0.262641 0.843942
vt 0.928788 0.746644
vt 0.929532 0.742535
vt 0.929532 0.747348
vt 0.928115 0.113523
vt 0.928939 0.113789
vt 0.928115 0.118337
vt 0.524661 0.736332
vt 0.530426 0.735435
vt 0.530426 0.773380
vt 0.642824 0.748292
vt 0.648590 0.785340
vt 0.642824 0.786237
vt 0.928787 0.776851
vt 0.928787 0.772229
vt 0.929646 0.776290
vt 0.933865 0.858154
vt 0.934729 0.858219
vt 0.933865 0.862304
vt 0.642824 0.925958
vt 0.643470 0.909811
vt 0.643470 0.925985
vt 0.235197 0.870081
vt 0.235844 0.869707
vt 0.235844 0.886242
vt 0.306473 0.746723
vt 0.323009 0.746723
vt 0.306473 0.784217
vt 0.601408 0.785786
vt 0.601408 0.748292
vt 0.617944 0.748292
vt 0.410179 0.909198
vt 0.410223 0.892662
vt 0.410825 0.909198
vt 0.383740 0.909588
vt 0.384371 0.909987
vt 0.383740 0.926135
vt 0.881969 0.805597
vt 0.881052 0.833273
vt 0.881052 0.805390
vt 0.878459 0.183229
vt 0.877536 0.183366
vt 0.877536 0.155361
vt 0.755264 0.751084
vt 0.772177 0.742535
vt 0.772177 0.784546
vt 0.262641 0.784217
vt 0.262641 0.746723
vt 0.281593 0.746723
vt 0.876585 0.742535
vt 0.876585 0.770540
vt 0.875662 0.742711
vt 0.823522 0.882023
vt 0.822604 0.881855
vt 0.823522 0.854179
vt 0.934751 0.887478
vt 0.933865 0.891307
vt 0.933865 0.887185
vt 0.934622 0.809513
vt 0.933669 0.809508
vt 0.934622 0.805390
vt 0.834781 0.689997
vt 0.838714 0.688448
vt 0.838714 0.715132
vt 0.677989 0.820733
vt 0.681922 0.845868
vt 0.677989 0.847416
vt 0.931591 0.155361
vt 0.931591 0.159588
vt 0.930662 0.155447
vt 0.931523 0.188712
vt 0.930662 0.188303
vt 0.931523 0.184468
vt 0.795958 0.911948
vt 0.795043 0.926061
vt 0.795043 0.911683
vt 0.525591 0.924794
vt 0.524661 0.925439
vt 0.524661 0.910446
vt 0.570529 0.779645
vt 0.555536 0.779645
vt 0.564975 0.754817
vt 0.687427 0.771025
vt 0.692982 0.795852
vt 0.677989 0.795852
vt 0.236128 0.911123
vt 0.236128 0.926116
vt 0.235197 0.911328
vt 0.855503 0.926358
vt 0.854615 0.925656
vt 0.855503 0.911542
vt 0.796865 0.059347
vt 0.797503 0.012440
vt 0.797503 0.060025
vt 0.383740 0.651774
vt 0.384386 0.651104
vt 0.384386 0.699355
vt 0.094776 0.666978
vt 0.124382 0.628877
vt 0.124382 0.689983
vt 0.012440 0.631409
vt 0.042046 0.654415
vt 0.012440 0.692515
vt 0.383740 0.772486
vt 0.383740 0.724235
vt 0.384386 0.771816
vt 0.783717 0.626074
vt 0.784355 0.626753
vt 0.783717 0.673659
s 0
usemtl train_car
f 729/785/184 730/786/184 731/787/184
f 732/788/184 733/789/184 734/790/184
f 735/791/184 736/792/184 737/793/184
f 738/794/184 739/795/184 740/796/184
f 741/797/184 742/798/184 743/799/184
f 744/800/185 745/801/185 746/802/185
f 747/803/185 748/804/185 749/805/185
f 750/806/185 751/807/185 752/808/185
f 753/809/185 754/810/185 755/811/185
f 756/812/185 757/813/185 758/814/185
f 759/815/186 760/816/186 761/817/186
f 762/818/186 763/819/186 764/820/186
f 765/821/187 766/822/187 767/823/187
f 768/824/187 769/825/187 770/826/187
f 771/827/188 772/828/188 773/829/188
f 774/830/188 775/831/188 776/832/188
f 777/833/189 778/834/189 779/835/189
f 780/836/190 781/837/190 782/838/190
f 783/839/191 784/840/191 785/841/191
f 786/842/191 787/843/191 788/844/191
f 789/845/192 790/846/192 791/847/192
f 792/848/192 793/849/192 794/850/192
f 795/851/193 796/852/193 797/853/193
f 798/854/193 799/855/193 800/856/193
f 801/857/194 802/858/194 803/859/194
f 804/860/194 805/861/194 806/862/194
f 807/863/195 808/864/195 809/865/195
f 810/866/195 811/867/195 812/868/195
f 813/869/196 814/870/196 815/871/196
f 816/872/196 817/873/196 818/874/196
f 819/875/197 820/876/197 821/877/197
f 822/878/197 823/879/197 824/880/197
f 825/881/198 826/882/198 827/883/198
f 828/884/198 829/885/198 830/886/198
f 831/887/199 832/888/199 833/889/199
f 834/890/199 835/891/199 836/892/199
f 837/893/200 838/894/200 839/895/200
f 840/896/200 841/897/200 842/898/200
f 843/899/201 844/900/201 845/901/201
f 846/902/201 847/903/201 848/904/201
f 849/905/202 850/906/202 851/907/202
f 852/908/202 853/909/202 854/910/202
f 855/911/203 856/912/203 857/913/203
f 858/914/203 859/915/203 860/916/203
f 861/917/204 862/918/204 863/919/204
f 864/920/204 865/921/204 866/922/204
f 867/923/205 868/924/205 869/925/205
f 870/926/205 871/927/205 872/928/205
f 873/929/206 874/930/206 875/931/206
f 876/932/206 877/933/206 878/934/206
f 879/935/207 880/936/207 881/937/207
f 882/938/207 883/939/207 884/940/207
o roof_panel
v -0.810289 2.410000 -4.920512
v -0.810289 2.570000 4.359765
v -0.810289 2.569999 -4.920512
v -0.810289 2.410000 -4.920512
v -0.810289 2.410000 4.359765
v -0.810289 2.570000 4.359765
v 0.810289 2.410000 -4.920512
v 0.810289 2.569999 -4.920512
v 0.810289 2.570000 4.359765
v 0.810289 2.410000 -4.920512
v 0.810289 2.570000 4.359765
v 0.810289 2.410000 4.359765
v -0.781350 2.380000 -4.920512
v 0.781350 2.380000 -4.920512
v 0.781350 2.380000 4.359765
v -0.781350 2.380000 -4.920512
v 0.781350 2.380000 4.359765
v -0.781350 2.380000 4.359765
v -0.781350 2.599999 -4.920512
v 0.781350 2.600000 4.359765
v 0.781350 2.599999 -4.920512
v -0.781350 2.599999 -4.920512
v -0.781350 2.600000 4.359765
v 0.781350 2.600000 4.359765
v -0.781350 2.410000 -4.950320
v 0.781350 2.569999 -4.950320
v 0.781350 2.410000 -4.950320
v -0.781350 2.410000 -4.950320
v -0.781350 2.569999 -4.950320
v 0.781350 2.569999 -4.950320
v -0.781350 2.410000 4.389573
v 0.781350 2.410000 4.389573
v 0.781350 2.570000 4.389573
v -0.781350 2.410000 4.389573
v 0.781350 2.570000 4.389573
v -0.781350 2.570000 4.389573
v -0.810289 2.410000 -4.920512
v -0.781350 2.380000 -4.920512
v -0.781350 2.380000 4.359765
v -0.810289 2.410000 -4.920512
v -0.781350 2.380000 4.359765
v -0.810289 2.410000 4.359765
v -0.810289 2.569999 -4.920512
v -0.781350 2.600000 4.359765
v -0.781350 2.599999 -4.920512
v -0.810289 2.569999 -4.920512
v -0.810289 2.570000 4.359765
v -0.781350 2.600000 4.359765
v 0.810289 2.410000 -4.920512
v 0.781350 2.380000 4.359765
v 0.781350 2.380000 -4.920512
v 0.810289 2.410000 -4.920512
v 0.810289 2.410000 4.359765
v 0.781350 2.380000 4.359765
v 0.810289 2.569999 -4.920512
v 0.781350 2.599999 -4.920512
v 0.781350 2.600000 4.359765
v 0.810289 2.569999 -4.920512
v 0.781350 2.600000 4.359765
v 0.810289 2.570000 4.359765
v -0.810289 2.410000 -4.920512
v -0.781350 2.569999 -4.950320
v -0.781350 2.410000 -4.950320
v -0.810289 2.410000 -4.920512
v -0.810289 2.569999 -4.920512
v -0.781350 2.569999 -4.950320
v -0.810289 2.410000 4.359765
v -0.781350 2.410000 4.389573
v -0.781350 2.570000 4.389573
v -0.810289 2.410000 4.359765
v -0.781350 2.570000 4.389573
v -0.810289 2.570000 4.359765
v 0.810289 2.410000 -4.920512
v 0.781350 2.410000 -4.950320
v 0.781350 2.569999 -4.950320
v 0.810289 2.410000 -4.920512
v 0.781350 2.569999 -4.950320
v 0.810289 2.569999 -4.920512
v 0.810289 2.410000 4.359765
v 0.781350 2.570000 4.389573
v 0.781350 2.410000 4.389573
v 0.810289 2.410000 4.359765
v 0.810289 2.570000 4.359765
v 0.781350 2.570000 4.389573
v -0.781350 2.380000 -4.920512
v -0.781350 2.410000 -4.950320
v 0.781350 2.410000 -4.950320
v -0.781350 2.380000 -4.920512
v 0.781350 2.410000 -4.950320
v 0.781350 2.380000 -4.920512
v -0.781350 2.380000 4.359765
v 0.781350 2.410000 4.389573
v -0.781350 2.410000 4.389573
v -0.781350 2.380000 4.359765
v 0.781350 2.380000 4.359765
v 0.781350 2.410000 4.389573
v -0.781350 2.599999 -4.920512
v 0.781350 2.569999 -4.950320
v -0.781350 2.569999 -4.950320
v -0.781350 2.599999 -4.920512
v 0.781350 2.599999 -4.920512
v 0.781350 2.569999 -4.950320
v -0.781350 2.600000 4.359765
v -0.781350 2.570000 4.389573
v 0.781350 2.570000 4.389573
v -0.781350 2.600000 4.359765
v 0.781350 2.570000 4.389573
v 0.781350 2.600000 4.359765
v -0.810289 2.410000 -4.920512
v -0.781350 2.410000 -4.950320
v -0.781350 2.380000 -4.920512
v -0.810289 2.410000 4.359765
v -0.781350 2.380000 4.359765
v -0.781350 2.410000 4.389573
v -0.810289 2.569999 -4.920512
v -0.781350 2.599999 -4.920512
v -0.781350 2.569999 -4.950320
v -0.810289 2.570000 4.359765
v -0.781350 2.570000 4.389573
v -0.781350 2.600000 4.359765
v 0.810289 2.410000 -4.920512
v 0.781350 2.380000 -4.920512
v 0.781350 2.410000 -4.950320
v 0.810289 2.410000 4.359765
v 0.781350 2.410000 4.389573
v 0.781350 2.380000 4.359765
v 0.810289 2.569999 -4.920512
v 0.781350 2.569999 -4.950320
v 0.781350 2.599999 -4.920512
v 0.810289 2.570000 4.359765
v 0.781350 2.600000 4.359765
v 0.781350 2.570000 4.389573
vn -1.0000 -0.0000 -0.0000
vn 1.0000 -0.0000 -0.0000
vn -0.0000 -1.0000 -0.0000
vn -0.0000 1.0000 -0.0000
vn -0.0000 -0.0000 -1.0000
vn -0.0000 -0.0000 1.0000
vn -0.7197 -0.6943 -0.0000
vn -0.7197 0.6943 -0.0000
vn 0.7197 -0.6943 -0.0000
vn 0.7197 0.6943 -0.0000
vn -0.7175 -0.0000 -0.6966
vn -0.7175 -0.0000 0.6966
vn 0.7175 -0.0000 -0.6966
vn 0.7175 -0.0000 0.6966
vn -0.0000 -0.7048 -0.7094
vn -0.0000 -0.7048 0.7094
vn -0.0000 0.7048 -0.7094
vn -0.0000 0.7048 0.7094
vn -0.5900 -0.5691 -0.5728
vn -0.5900 -0.5691 0.5728
vn -0.5900 0.5691 -0.5728
vn -0.5900 0.5691 0.5728
vn 0.5900 -0.5691 -0.5728
vn 0.5900 -0.5691 0.5728
vn 0.5900 0.5691 -0.5728
vn 0.5900 0.5691 0.5728
vt 0.742023 0.161223
vt 0.742023 0.012440
vt 0.745596 0.161138
vt 0.758837 0.543990
vt 0.755264 0.395293
vt 0.758837 0.395207
vt 0.758837 0.717654
vt 0.755264 0.717568
vt 0.758837 0.568871
vt 0.755264 0.370327
vt 0.755264 0.221544
vt 0.758837 0.221630
vt 0.185093 0.431547
vt 0.150669 0.425750
vt 0.185093 0.221322
vt 0.291570 0.222665
vt 0.291570 0.012440
vt 0.325994 0.018237
vt 0.350875 0.222665
vt 0.350875 0.012440
vt 0.385298 0.216869
vt 0.244397 0.431547
vt 0.209973 0.227118
vt 0.244397 0.221322
vt 0.810106 0.503347
vt 0.813680 0.538255
vt 0.810106 0.538255
vt 0.098350 0.814789
vt 0.094776 0.814789
vt 0.094776 0.779881
vt 0.864773 0.450362
vt 0.864773 0.474678
vt 0.861199 0.474678
vt 0.559111 0.853313
vt 0.555536 0.877629
vt 0.555536 0.853313
vt 0.602055 0.428850
vt 0.601408 0.428850
vt 0.601408 0.221544
vt 0.627582 0.428850
vt 0.626935 0.221544
vt 0.627582 0.221544
vt 0.571614 0.637954
vt 0.572260 0.430647
vt 0.572260 0.637954
vt 0.652462 0.428850
vt 0.652462 0.221544
vt 0.653109 0.221544
vt 0.601408 0.661037
vt 0.602055 0.453731
vt 0.602055 0.661037
vt 0.626935 0.661037
vt 0.626935 0.453731
vt 0.627582 0.453731
vt 0.384386 0.626223
vt 0.383740 0.626223
vt 0.383740 0.418917
vt 0.653109 0.661037
vt 0.652462 0.453731
vt 0.653109 0.453731
vt 0.836299 0.471065
vt 0.835653 0.474639
vt 0.835653 0.471065
vt 0.409963 0.962086
vt 0.409963 0.965660
vt 0.409317 0.965660
vt 0.955340 0.746109
vt 0.954412 0.746109
vt 0.954412 0.742535
vt 0.954526 0.772229
vt 0.955454 0.775803
vt 0.954526 0.775803
vt 0.969712 0.710132
vt 0.970359 0.710132
vt 0.970359 0.713706
vt 0.970225 0.450362
vt 0.970871 0.453936
vt 0.970225 0.453936
vt 0.955921 0.084906
vt 0.954993 0.088480
vt 0.954993 0.084906
vt 0.956403 0.188042
vt 0.956403 0.184468
vt 0.957331 0.184468
vt 0.289111 0.844006
vt 0.288441 0.844006
vt 0.288441 0.809098
vt 0.313991 0.809098
vt 0.314662 0.844006
vt 0.313991 0.844006
vt 0.755264 0.844341
vt 0.755264 0.809427
vt 0.755929 0.844328
vt 0.208541 0.844826
vt 0.207875 0.809924
vt 0.208541 0.809912
vt 0.151339 0.809334
vt 0.150669 0.844242
vt 0.150669 0.809334
vt 0.176220 0.844242
vt 0.176220 0.809334
vt 0.176890 0.809334
vt 0.234087 0.844826
vt 0.233422 0.844814
vt 0.234087 0.809912
vt 0.601408 0.845581
vt 0.601408 0.810667
vt 0.602074 0.810679
vt 0.981448 0.085576
vt 0.980801 0.085576
vt 0.980801 0.084906
vt 0.907716 0.974296
vt 0.907045 0.973846
vt 0.907716 0.973368
vt 0.854354 0.979040
vt 0.854354 0.979971
vt 0.853888 0.979489
vt 0.149766 0.974543
vt 0.149766 0.973615
vt 0.150436 0.974093
vt 0.982212 0.185138
vt 0.982858 0.184468
vt 0.982858 0.185138
vt 0.677989 0.974558
vt 0.677989 0.973630
vt 0.678659 0.974108
vt 0.795043 0.978743
vt 0.795508 0.979191
vt 0.795043 0.979674
vt 0.556207 0.974976
vt 0.555536 0.974526
vt 0.556207 0.974048
s 0
usemtl train_car
f 885/941/208 886/942/208 887/943/208
f 888/944/208 889/945/208 890/946/208
f 891/947/209 892/948/209 893/949/209
f 894/950/209 895/951/209 896/952/209
f 897/953/210 898/954/210 899/955/210
f 900/956/210 901/957/210 902/958/210
f 903/959/211 904/960/211 905/961/211
f 906/962/211 907/963/211 908/964/211
f 909/965/212 910/966/212 911/967/212
f 912/968/212 913/969/212 914/970/212
f 915/971/213 916/972/213 917/973/213
f 918/974/213 919/975/213 920/976/213
f 921/977/214 922/978/214 923/979/214
f 924/980/214 925/981/214 926/982/214
f 927/983/215 928/984/215 929/985/215
f 930/986/215 931/987/215 932/988/215
f 933/989/216 934/990/216 935/991/216
f 936/992/216 937/993/216 938/994/216
f 939/995/217 940/996/217 941/997/217
f 942/998/217 943/999/217 944/1000/217
f 945/1001/218 946/1002/218 947/1003/218
f 948/1004/218 949/1005/218 950/1006/218
f 951/1007/219 952/1008/219 953/1009/219
f 954/1010/219 955/1011/219 956/1012/219
f 957/1013/220 958/1014/220 959/1015/220
f 960/1016/220 961/1017/220 962/1018/220
f 963/1019/221 964/1020/221 965/1021/221
f 966/1022/221 967/1023/221 968/1024/221
f 969/1025/222 970/1026/222 971/1027/222
f 972/1028/222 973/1029/222 974/1030/222
f 975/1031/223 976/1032/223 977/1033/223
f 978/1034/223 979/1035/223 980/1036/223
f 981/1037/224 982/1038/224 983/1039/224
f 984/1040/224 985/1041/224 986/1042/224
f 987/1043/225 988/1044/225 989/1045/225
f 990/1046/225 991/1047/225 992/1048/225
f 993/1049/226 994/1050/226 995/1051/226
f 996/1052/227 997/1053/227 998/1054/227
f 999/1055/228 1000/1056/228 1001/1057/228
f 1002/1058/229 1003/1059/229 1004/1060/229
f 1005/1061/230 1006/1062/230 1007/1063/230
f 1008/1064/231 1009/1065/231 1010/1066/231
f 1011/1067/232 1012/1068/232 1013/1069/232
f 1014/1070/233 1015/1071/233 1016/1072/233
o stripe_l
v -0.824759 0.970000 3.395968
v -0.824759 0.970000 -4.850959
v -0.824759 0.750000 3.395968
v -0.824759 0.750000 -4.850959
v -0.882637 0.970000 -4.850959
v -0.882637 0.970000 3.395968
v -0.882637 0.750000 -4.850959
v -0.882637 0.750000 3.395968
v -0.882637 0.970000 -4.850959
v -0.824759 0.970000 -4.850959
v -0.882637 0.970000 3.395968
v -0.824759 0.970000 3.395968
v -0.882637 0.750000 3.395968
v -0.824759 0.750000 3.395968
v -0.882637 0.750000 -4.850959
v -0.824759 0.750000 -4.850959
v -0.882637 0.970000 3.395968
v -0.824759 0.970000 3.395968
v -0.882637 0.750000 3.395968
v -0.824759 0.750000 3.395968
v -0.824759 0.970000 -4.850959
v -0.882637 0.970000 -4.850959
v -0.824759 0.750000 -4.850959
v -0.882637 0.750000 -4.850959
vn 1.0000 -0.0000 -0.0000
vn -1.0000 -0.0000 -0.0000
vn -0.0000 1.0000 -0.0000
vn -0.0000 -1.0000 -0.0000
vn -0.0000 -0.0000 1.0000
vn -0.0000 -0.0000 -1.0000
vt 0.571614 0.012440
vt 0.576528 0.012440
vt 0.571614 0.196663
vt 0.576528 0.196663
vt 0.576528 0.405767
vt 0.571614 0.405767
vt 0.576528 0.221544
vt 0.571614 0.221544
vt 0.664126 0.196663
vt 0.664126 0.012440
vt 0.665419 0.196663
vt 0.665419 0.012440
vt 0.679282 0.221544
vt 0.679282 0.405767
vt 0.677989 0.221544
vt 0.677989 0.405767
vt 0.601408 0.919021
vt 0.601408 0.914106
vt 0.602701 0.919021
vt 0.602701 0.914106
vt 0.677989 0.920856
vt 0.677989 0.915942
vt 0.679282 0.920856
vt 0.679282 0.915942
s 0
usemtl train_car
f 1017/1073/234 1019/1074/234 1018/1075/234
f 1019/1074/234 1020/1076/234 1018/1075/234
f 1021/1077/235 1023/1078/235 1022/1079/235
f 1023/1078/235 1024/1080/235 1022/1079/235
f 1025/1081/236 1027/1082/236 1026/1083/236
f 1027/1082/236 1028/1084/236 1026/1083/236
f 1029/1085/237 1031/1086/237 1030/1087/237
f 1031/1086/237 1032/1088/237 1030/1087/237
f 1033/1089/238 1035/1090/238 1034/1091/238
f 1035/1090/238 1036/1092/238 1034/1091/238
f 1037/1093/239 1039/1094/239 1038/1095/239
f 1039/1094/239 1040/1096/239 1038/1095/239
o stripe_r
v 0.882637 0.970000 3.395968
v 0.882637 0.970000 -4.850959
v 0.882637 0.750000 3.395968
v 0.882637 0.750000 -4.850959
v 0.824759 0.970000 -4.850959
v 0.824759 0.970000 3.395968
v 0.824759 0.750000 -4.850959
v 0.824759 0.750000 3.395968
v 0.824759 0.970000 -4.850959
v 0.882637 0.970000 -4.850959
v 0.824759 0.970000 3.395968
v 0.882637 0.970000 3.395968
v 0.824759 0.750000 3.395968
v 0.882637 0.750000 3.395968
v 0.824759 0.750000 -4.850959
v 0.882637 0.750000 -4.850959
v 0.824759 0.970000 3.395968
v 0.882637 0.970000 3.395968
v 0.824759 0.750000 3.395968
v 0.882637 0.750000 3.395968
v 0.882637 0.970000 -4.850959
v 0.824759 0.970000 -4.850959
v 0.882637 0.750000 -4.850959
v 0.824759 0.750000 -4.850959
vn 1.0000 -0.0000 -0.0000
vn -1.0000 -0.0000 -0.0000
vn -0.0000 1.0000 -0.0000
vn -0.0000 -1.0000 -0.0000
vn -0.0000 -0.0000 1.0000
vn -0.0000 -0.0000 -1.0000
vt 0.353945 0.418917
vt 0.358859 0.418917
vt 0.353945 0.603140
vt 0.358859 0.603140
vt 0.606323 0.196663
vt 0.601408 0.196663
vt 0.606323 0.012440
vt 0.601408 0.012440
vt 0.677989 0.614870
vt 0.677989 0.430647
vt 0.679282 0.614870
vt 0.679282 0.430647
vt 0.691592 0.012440
vt 0.691592 0.196663
vt 0.690299 0.012440
vt 0.690299 0.196663
vt 0.927234 0.017355
vt 0.927234 0.012440
vt 0.928527 0.017355
vt 0.928527 0.012440
vt 0.927234 0.047150
vt 0.927234 0.042235
vt 0.928527 0.047150
vt 0.928527 0.042235
s 0
usemtl train_car
f 1041/1097/240 1043/1098/240 1042/1099/240
f 1043/1098/240 1044/1100/240 1042/1099/240
f 1045/1101/241 1047/1102/241 1046/1103/241
f 1047/1102/241 1048/1104/241 1046/1103/241
f 1049/1105/242 1051/1106/242 1050/1107/242
f 1051/1106/242 1052/1108/242 1050/1107/242
f 1053/1109/243 1055/1110/243 1054/1111/243
f 1055/1110/243 1056/1112/243 1054/1111/243
f 1057/1113/244 1059/1114/244 1058/1115/244
f 1059/1114/244 1060/1116/244 1058/1115/244
f 1061/1117/245 1063/1118/245 1062/1119/245
f 1063/1118/245 1064/1120/245 1062/1119/245
o window_band_l
v -0.819936 2.040000 2.203640
v -0.819936 2.040000 -4.354156
v -0.819936 1.280000 2.203641
v -0.819936 1.280000 -4.354156
v -0.887460 2.040000 -4.354156
v -0.887460 2.040000 2.203640
v -0.887460 1.280000 -4.354156
v -0.887460 1.280000 2.203641
v -0.887460 2.040000 -4.354156
v -0.819936 2.040000 -4.354156
v -0.887460 2.040000 2.203640
v -0.819936 2.040000 2.203640
v -0.887460 1.280000 2.203641
v -0.819936 1.280000 2.203641
v -0.887460 1.280000 -4.354156
v -0.819936 1.280000 -4.354156
v -0.887460 2.040000 2.203640
v -0.819936 2.040000 2.203640
v -0.887460 1.280000 2.203641
v -0.819936 1.280000 2.203641
v -0.819936 2.040000 -4.354156
v -0.887460 2.040000 -4.354156
v -0.819936 1.280000 -4.354156
v -0.887460 1.280000 -4.354156
vn 1.0000 -0.0000 -0.0000
vn -1.0000 -0.0000 -0.0000
vn -0.0000 1.0000 -0.0000
vn -0.0000 -1.0000 -0.0000
vn -0.0000 -0.0000 1.0000
vn -0.0000 -0.0000 -1.0000
vt 0.353945 0.247546
vt 0.370922 0.247546
vt 0.353945 0.394036
vt 0.370922 0.394036
vt 0.546733 0.158931
vt 0.529756 0.158931
vt 0.546733 0.012440
vt 0.529756 0.012440
vt 0.770477 0.158931
vt 0.770477 0.012440
vt 0.771985 0.158931
vt 0.771985 0.012440
vt 0.355453 0.628020
vt 0.355453 0.774511
vt 0.353945 0.628020
vt 0.353945 0.774511
vt 0.493339 0.924887
vt 0.493339 0.907910
vt 0.494848 0.924887
vt 0.494848 0.907910
vt 0.880656 0.924967
vt 0.880656 0.907990
vt 0.882165 0.924967
vt 0.882165 0.907990
s 0
usemtl train_car
f 1065/1121/246 1067/1122/246 1066/1123/246
f 1067/1122/246 1068/1124/246 1066/1123/246
f 1069/1125/247 1071/1126/247 1070/1127/247
f 1071/1126/247 1072/1128/247 1070/1127/247
f 1073/1129/248 1075/1130/248 1074/1131/248
f 1075/1130/248 1076/1132/248 1074/1131/248
f 1077/1133/249 1079/1134/249 1078/1135/249
f 1079/1134/249 1080/1136/249 1078/1135/249
f 1081/1137/250 1083/1138/250 1082/1139/250
f 1083/1138/250 1084/1140/250 1082/1139/250
f 1085/1141/251 1087/1142/251 1086/1143/251
f 1087/1142/251 1088/1144/251 1086/1143/251
o window_band_r
v 0.887460 2.040000 2.203640
v 0.887460 2.040000 -4.354156
v 0.887460 1.280000 2.203641
v 0.887460 1.280000 -4.354156
v 0.819936 2.040000 -4.354156
v 0.819936 2.040000 2.203640
v 0.819936 1.280000 -4.354156
v 0.819936 1.280000 2.203641
v 0.819936 2.040000 -4.354156
v 0.887460 2.040000 -4.354156
v 0.819936 2.040000 2.203640
v 0.887460 2.040000 2.203640
v 0.819936 1.280000 2.203641
v 0.887460 1.280000 2.203641
v 0.819936 1.280000 -4.354156
v 0.887460 1.280000 -4.354156
v 0.819936 2.040000 2.203640
v 0.887460 2.040000 2.203640
v 0.819936 1.280000 2.203641
v 0.887460 1.280000 2.203641
v 0.887460 2.040000 -4.354156
v 0.819936 2.040000 -4.354156
v 0.887460 1.280000 -4.354156
v 0.819936 1.280000 -4.354156
vn 1.0000 -0.0000 -0.0000
vn -1.0000 -0.0000 -0.0000
vn -0.0000 1.0000 -0.0000
vn -0.0000 -1.0000 -0.0000
vn -0.0000 -0.0000 1.0000
vn -0.0000 -0.0000 -1.0000
vt 0.529756 0.183811
vt 0.546733 0.183811
vt 0.529756 0.330302
vt 0.546733 0.330302
vt 0.546733 0.501673
vt 0.529756 0.501673
vt 0.546733 0.355182
vt 0.529756 0.355182
vt 0.783717 0.368034
vt 0.783717 0.221544
vt 0.785226 0.368034
vt 0.785226 0.221544
vt 0.785226 0.392915
vt 0.785226 0.539405
vt 0.783717 0.392915
vt 0.783717 0.539405
vt 0.466950 0.925356
vt 0.466950 0.908379
vt 0.468459 0.925356
vt 0.468459 0.908379
vt 0.353945 0.926557
vt 0.353945 0.909580
vt 0.355453 0.926557
vt 0.355453 0.909580
s 0
usemtl train_car
f 1089/1145/252 1091/1146/252 1090/1147/252
f 1091/1146/252 1092/1148/252 1090/1147/252
f 1093/1149/253 1095/1150/253 1094/1151/253
f 1095/1150/253 1096/1152/253 1094/1151/253
f 1097/1153/254 1099/1154/254 1098/1155/254
f 1099/1154/254 1100/1156/254 1098/1155/254
f 1101/1157/255 1103/1158/255 1102/1159/255
f 1103/1158/255 1104/1160/255 1102/1159/255
f 1105/1161/256 1107/1162/256 1106/1163/256
f 1107/1162/256 1108/1164/256 1106/1163/256
f 1109/1165/257 1111/1166/257 1110/1167/257
f 1111/1166/257 1112/1168/257 1110/1167/257
o windshield
v -0.723473 1.470593 4.953133
v -0.723473 2.219408 4.124096
v -0.723473 2.180743 4.092595
v -0.723473 1.470593 4.953133
v -0.723473 1.509257 4.984633
v -0.723473 2.219408 4.124096
v 0.723473 1.470593 4.953133
v 0.723473 2.180743 4.092595
v 0.723473 2.219408 4.124096
v 0.723473 1.470593 4.953133
v 0.723473 2.219408 4.124096
v 0.723473 1.509257 4.984633
v -0.704180 1.457912 4.968499
v 0.704180 1.457912 4.968499
v 0.704180 1.496576 5.000000
v -0.704180 1.457912 4.968499
v 0.704180 1.496576 5.000000
v -0.704180 1.496576 5.000000
v -0.704180 2.193425 4.077229
v 0.704180 2.232089 4.108729
v 0.704180 2.193425 4.077229
v -0.704180 2.193425 4.077229
v -0.704180 2.232089 4.108729
v 0.704180 2.232089 4.108729
v -0.704180 1.455127 4.940532
v 0.704180 2.165278 4.079995
v 0.704180 1.455127 4.940532
v -0.704180 1.455127 4.940532
v -0.704180 2.165278 4.079995
v 0.704180 2.165278 4.079995
v -0.704180 1.524723 4.997233
v 0.704180 1.524723 4.997233
v 0.704180 2.234873 4.136696
v -0.704180 1.524723 4.997233
v 0.704180 2.234873 4.136696
v -0.704180 2.234873 4.136696
v -0.723473 1.470593 4.953133
v -0.704180 1.457912 4.968499
v -0.704180 1.496576 5.000000
v -0.723473 1.470593 4.953133
v -0.704180 1.496576 5.000000
v -0.723473 1.509257 4.984633
v -0.723473 2.180743 4.092595
v -0.704180 2.232089 4.108729
v -0.704180 2.193425 4.077229
v -0.723473 2.180743 4.092595
v -0.723473 2.219408 4.124096
v -0.704180 2.232089 4.108729
v 0.723473 1.470593 4.953133
v 0.704180 1.496576 5.000000
v 0.704180 1.457912 4.968499
v 0.723473 1.470593 4.953133
v 0.723473 1.509257 4.984633
v 0.704180 1.496576 5.000000
v 0.723473 2.180743 4.092595
v 0.704180 2.193425 4.077229
v 0.704180 2.232089 4.108729
v 0.723473 2.180743 4.092595
v 0.704180 2.232089 4.108729
v 0.723473 2.219408 4.124096
v -0.723473 1.470593 4.953133
v -0.704180 2.165278 4.079995
v -0.704180 1.455127 4.940532
v -0.723473 1.470593 4.953133
v -0.723473 2.180743 4.092595
v -0.704180 2.165278 4.079995
v -0.723473 1.509257 4.984633
v -0.704180 1.524723 4.997233
v -0.704180 2.234873 4.136696
v -0.723473 1.509257 4.984633
v -0.704180 2.234873 4.136696
v -0.723473 2.219408 4.124096
v 0.723473 1.470593 4.953133
v 0.704180 1.455127 4.940532
v 0.704180 2.165278 4.079995
v 0.723473 1.470593 4.953133
v 0.704180 2.165278 4.079995
v 0.723473 2.180743 4.092595
v 0.723473 1.509257 4.984633
v 0.704180 2.234873 4.136696
v 0.704180 1.524723 4.997233
v 0.723473 1.509257 4.984633
v 0.723473 2.219408 4.124096
v 0.704180 2.234873 4.136696
v -0.704180 1.457912 4.968499
v -0.704180 1.455127 4.940532
v 0.704180 1.455127 4.940532
v -0.704180 1.457912 4.968499
v 0.704180 1.455127 4.940532
v 0.704180 1.457912 4.968499
v -0.704180 1.496576 5.000000
v 0.704180 1.524723 4.997233
v -0.704180 1.524723 4.997233
v -0.704180 1.496576 5.000000
v 0.704180 1.496576 5.000000
v 0.704180 1.524723 4.997233
v -0.704180 2.193425 4.077229
v 0.704180 2.165278 4.079995
v -0.704180 2.165278 4.079995
v -0.704180 2.193425 4.077229
v 0.704180 2.193425 4.077229
v 0.704180 2.165278 4.079995
v -0.704180 2.232089 4.108729
v -0.704180 2.234873 4.136696
v 0.704180 2.234873 4.136696
v -0.704180 2.232089 4.108729
v 0.704180 2.234873 4.136696
v 0.704180 2.232089 4.108729
v -0.723473 1.470593 4.953133
v -0.704180 1.455127 4.940532
v -0.704180 1.457912 4.968499
v -0.723473 1.509257 4.984633
v -0.704180 1.496576 5.000000
v -0.704180 1.524723 4.997233
v -0.723473 2.180743 4.092595
v -0.704180 2.193425 4.077229
v -0.704180 2.165278 4.079995
v -0.723473 2.219408 4.124096
v -0.704180 2.234873 4.136696
v -0.704180 2.232089 4.108729
v 0.723473 1.470593 4.953133
v 0.704180 1.457912 4.968499
v 0.704180 1.455127 4.940532
v 0.723473 1.509257 4.984633
v 0.704180 1.524723 4.997233
v 0.704180 1.496576 5.000000
v 0.723473 2.180743 4.092595
v 0.704180 2.165278 4.079995
v 0.704180 2.193425 4.077229
v 0.723473 2.219408 4.124096
v 0.704180 2.232089 4.108729
v 0.704180 2.234873 4.136696
vn -1.0000 -0.0000 -0.0000
vn 1.0000 -0.0000 -0.0000
vn -0.0000 -0.6316 0.7753
vn -0.0000 0.6316 -0.7753
vn -0.0000 -0.7713 -0.6365
vn -0.0000 0.7713 0.6365
vn -0.7184 -0.4394 0.5393
vn -0.7184 0.4394 -0.5393
vn 0.7184 -0.4394 0.5393
vn 0.7184 0.4394 -0.5393
vn -0.7188 -0.5362 -0.4425
vn -0.7188 0.5362 0.4425
vn 0.7188 -0.5362 -0.4425
vn 0.7188 0.5362 0.4425
vn -0.0000 -0.9951 0.0991
vn -0.0000 0.0978 0.9952
vn -0.0000 -0.0978 -0.9952
vn -0.0000 0.9951 -0.0991
vn -0.5912 -0.8026 0.0799
vn -0.5888 0.0791 0.8044
vn -0.5888 -0.0791 -0.8044
vn -0.5912 0.8026 -0.0799
vn 0.5912 -0.8026 0.0799
vn 0.5888 0.0791 0.8044
vn 0.5888 -0.0791 -0.8044
vn 0.5912 0.8026 -0.0799
vt 0.882165 0.858154
vt 0.882165 0.883109
vt 0.881052 0.883052
vt 0.383740 0.859753
vt 0.384852 0.859809
vt 0.383740 0.884708
vt 0.493339 0.858074
vt 0.494452 0.882973
vt 0.493339 0.883030
vt 0.468459 0.858543
vt 0.468459 0.883499
vt 0.467346 0.858600
vt 0.849709 0.043920
vt 0.848595 0.012480
vt 0.849709 0.012440
vt 0.851543 0.186842
vt 0.851543 0.155361
vt 0.852656 0.186802
vt 0.855058 0.805390
vt 0.856172 0.836851
vt 0.855058 0.836851
vt 0.861721 0.657534
vt 0.860607 0.657534
vt 0.860607 0.626074
vt 0.114312 0.714864
vt 0.114312 0.755000
vt 0.094776 0.739524
vt 0.492305 0.770807
vt 0.467381 0.770807
vt 0.467381 0.739347
vt 0.410179 0.750250
vt 0.410179 0.718790
vt 0.435102 0.718790
vt 0.037364 0.717395
vt 0.012440 0.748856
vt 0.012440 0.717395
vt 0.823049 0.979460
vt 0.822604 0.979463
vt 0.822604 0.978349
vt 0.261119 0.974512
vt 0.261119 0.973315
vt 0.261533 0.973478
vt 0.207875 0.972440
vt 0.207875 0.971238
vt 0.208288 0.972273
vt 0.960707 0.972273
vt 0.960295 0.971238
vt 0.960707 0.971071
vt 0.642824 0.979778
vt 0.643269 0.978667
vt 0.643269 0.979781
vt 0.601823 0.973023
vt 0.601408 0.971989
vt 0.601823 0.971826
vt 0.934278 0.972876
vt 0.933865 0.972709
vt 0.934278 0.971674
vt 0.062244 0.972316
vt 0.062244 0.971114
vt 0.062657 0.971281
vt 0.887195 0.286153
vt 0.886906 0.311076
vt 0.886749 0.286153
vt 0.886749 0.221544
vt 0.887195 0.246463
vt 0.886749 0.246468
vt 0.855058 0.861731
vt 0.855503 0.861742
vt 0.855058 0.886662
vt 0.525106 0.860635
vt 0.525106 0.885566
vt 0.524661 0.885555
vt 0.886749 0.385762
vt 0.887195 0.385762
vt 0.887038 0.410685
vt 0.887195 0.335956
vt 0.887195 0.360881
vt 0.886750 0.360876
vt 0.354390 0.859769
vt 0.354390 0.884700
vt 0.353945 0.859780
vt 0.886601 0.626074
vt 0.887046 0.650993
vt 0.886601 0.651004
vt 0.875032 0.043901
vt 0.874589 0.043901
vt 0.874589 0.012440
vt 0.875470 0.084906
vt 0.875912 0.116366
vt 0.875470 0.116366
vt 0.436173 0.835460
vt 0.435725 0.866920
vt 0.435725 0.835460
vt 0.723861 0.866993
vt 0.723861 0.835533
vt 0.724310 0.835533
vt 0.869094 0.563218
vt 0.868645 0.594679
vt 0.868645 0.563218
vt 0.094776 0.871130
vt 0.094776 0.839670
vt 0.095224 0.839670
vt 0.123673 0.874197
vt 0.123231 0.874197
vt 0.123231 0.842737
vt 0.062244 0.843203
vt 0.062687 0.874664
vt 0.062244 0.874664
vt 0.987560 0.943749
vt 0.987560 0.944194
vt 0.987115 0.943752
vt 0.983291 0.155677
vt 0.983605 0.155361
vt 0.983605 0.155993
vt 0.986636 0.805707
vt 0.986322 0.806022
vt 0.986322 0.805390
vt 0.986451 0.887631
vt 0.986451 0.887185
vt 0.986896 0.887628
vt 0.959502 0.832712
vt 0.959948 0.832715
vt 0.959502 0.833158
vt 0.985902 0.971386
vt 0.985588 0.971703
vt 0.985588 0.971071
vt 0.986322 0.831219
vt 0.986636 0.830903
vt 0.986636 0.831534
vt 0.986874 0.858599
vt 0.986429 0.858597
vt 0.986874 0.858154
s 0
usemtl train_car
f 1113/1169/258 1114/1170/258 1115/1171/258
f 1116/1172/258 1117/1173/258 1118/1174/258
f 1119/1175/259 1120/1176/259 1121/1177/259
f 1122/1178/259 1123/1179/259 1124/1180/259
f 1125/1181/260 1126/1182/260 1127/1183/260
f 1128/1184/260 1129/1185/260 1130/1186/260
f 1131/1187/261 1132/1188/261 1133/1189/261
f 1134/1190/261 1135/1191/261 1136/1192/261
f 1137/1193/262 1138/1194/262 1139/1195/262
f 1140/1196/262 1141/1197/262 1142/1198/262
f 1143/1199/263 1144/1200/263 1145/1201/263
f 1146/1202/263 1147/1203/263 1148/1204/263
f 1149/1205/264 1150/1206/264 1151/1207/264
f 1152/1208/264 1153/1209/264 1154/1210/264
f 1155/1211/265 1156/1212/265 1157/1213/265
f 1158/1214/265 1159/1215/265 1160/1216/265
f 1161/1217/266 1162/1218/266 1163/1219/266
f 1164/1220/266 1165/1221/266 1166/1222/266
f 1167/1223/267 1168/1224/267 1169/1225/267
f 1170/1226/267 1171/1227/267 1172/1228/267
f 1173/1229/268 1174/1230/268 1175/1231/268
f 1176/1232/268 1177/1233/268 1178/1234/268
f 1179/1235/269 1180/1236/269 1181/1237/269
f 1182/1238/269 1183/1239/269 1184/1240/269
f 1185/1241/270 1186/1242/270 1187/1243/270
f 1188/1244/270 1189/1245/270 1190/1246/270
f 1191/1247/271 1192/1248/271 1193/1249/271
f 1194/1250/271 1195/1251/271 1196/1252/271
f 1197/1253/272 1198/1254/272 1199/1255/272
f 1200/1256/272 1201/1257/272 1202/1258/272
f 1203/1259/273 1204/1260/273 1205/1261/273
f 1206/1262/273 1207/1263/273 1208/1264/273
f 1209/1265/274 1210/1266/274 1211/1267/274
f 1212/1268/274 1213/1269/274 1214/1270/274
f 1215/1271/275 1216/1272/275 1217/1273/275
f 1218/1274/275 1219/1275/275 1220/1276/275
f 1221/1277/276 1222/1278/276 1223/1279/276
f 1224/1280/277 1225/1281/277 1226/1282/277
f 1227/1283/278 1228/1284/278 1229/1285/278
f 1230/1286/279 1231/1287/279 1232/1288/279
f 1233/1289/280 1234/1290/280 1235/1291/280
f 1236/1292/281 1237/1293/281 1238/1294/281
f 1239/1295/282 1240/1296/282 1241/1297/282
f 1242/1298/283 1243/1299/283 1244/1300/283
