# Blender 4.2.23 LTS
# www.blender.org
mtllib coin.mtl
o coin_body
v 0.000000 0.000000 0.078049
v 0.191342 0.038060 0.078049
v 0.353553 0.146447 0.078049
v 0.461940 0.308658 0.078049
v 0.500000 0.500000 0.078049
v 0.461940 0.691342 0.078049
v 0.353553 0.853553 0.078049
v 0.191342 0.961940 0.078049
v 0.000000 1.000000 0.078049
v -0.191342 0.961940 0.078049
v -0.353553 0.853553 0.078049
v -0.461940 0.691342 0.078049
v -0.500000 0.500000 0.078049
v -0.461940 0.308658 0.078049
v -0.353553 0.146447 0.078049
v -0.191342 0.038060 0.078049
v -0.000000 0.000000 0.078049
v 0.000000 -0.000000 -0.078049
v 0.191342 0.038060 -0.078049
v 0.353553 0.146447 -0.078049
v 0.461940 0.308658 -0.078049
v 0.500000 0.500000 -0.078049
v 0.461940 0.691342 -0.078049
v 0.353553 0.853553 -0.078049
v 0.191342 0.961940 -0.078049
v 0.000000 1.000000 -0.078049
v -0.191342 0.961940 -0.078049
v -0.353553 0.853553 -0.078049
v -0.461940 0.691342 -0.078049
v -0.500000 0.500000 -0.078049
v -0.461940 0.308658 -0.078049
v -0.353553 0.146447 -0.078049
v -0.191342 0.038060 -0.078049
v -0.000000 -0.000000 -0.078049
v 0.000000 0.500000 0.078049
v 0.000000 0.500000 0.078049
v 0.000000 0.500000 0.078049
v 0.000000 0.500000 0.078049
v 0.000000 0.500000 0.078049
v 0.000000 0.500000 0.078049
v 0.000000 0.500000 0.078049
v 0.000000 0.500000 0.078049
v 0.000000 0.500000 0.078049
v 0.000000 0.500000 0.078049
v 0.000000 0.500000 0.078049
v 0.000000 0.500000 0.078049
v 0.000000 0.500000 0.078049
v 0.000000 0.500000 0.078049
v 0.000000 0.500000 0.078049
v 0.000000 0.500000 0.078049
v 0.000000 0.000000 0.078049
v 0.191342 0.038060 0.078049
v 0.353553 0.146447 0.078049
v 0.461940 0.308658 0.078049
v 0.500000 0.500000 0.078049
v 0.461940 0.691342 0.078049
v 0.353553 0.853553 0.078049
v 0.191342 0.961940 0.078049
v 0.000000 1.000000 0.078049
v -0.191342 0.961940 0.078049
v -0.353553 0.853553 0.078049
v -0.461940 0.691342 0.078049
v -0.500000 0.500000 0.078049
v -0.461940 0.308658 0.078049
v -0.353553 0.146447 0.078049
v -0.191342 0.038060 0.078049
v -0.000000 0.000000 0.078049
v 0.000000 0.500000 -0.078049
v 0.000000 0.500000 -0.078049
v 0.000000 0.500000 -0.078049
v 0.000000 0.500000 -0.078049
v 0.000000 0.500000 -0.078049
v 0.000000 0.500000 -0.078049
v 0.000000 0.500000 -0.078049
v 0.000000 0.500000 -0.078049
v 0.000000 0.500000 -0.078049
v 0.000000 0.500000 -0.078049
v 0.000000 0.500000 -0.078049
v 0.000000 0.500000 -0.078049
v 0.000000 0.500000 -0.078049
v 0.000000 0.500000 -0.078049
v 0.000000 0.500000 -0.078049
v 0.000000 0.500000 -0.078049
v 0.000000 -0.000000 -0.078049
v 0.191342 0.038060 -0.078049
v 0.353553 0.146447 -0.078049
v 0.461940 0.308658 -0.078049
v 0.500000 0.500000 -0.078049
v 0.461940 0.691342 -0.078049
v 0.353553 0.853553 -0.078049
v 0.191342 0.961940 -0.078049
v 0.000000 1.000000 -0.078049
v -0.191342 0.961940 -0.078049
v -0.353553 0.853553 -0.078049
v -0.461940 0.691342 -0.078049
v -0.500000 0.500000 -0.078049
v -0.461940 0.308658 -0.078049
v -0.353553 0.146447 -0.078049
v -0.191342 0.038060 -0.078049
v -0.000000 -0.000000 -0.078049
vn -0.0000 -1.0000 -0.0000
vn 0.3826 -0.9239 -0.0000
vn 0.3827 -0.9239 -0.0000
vn 0.7071 -0.7071 -0.0000
vn 0.9239 -0.3827 -0.0000
vn 0.9239 -0.3826 -0.0000
vn 1.0000 -0.0000 0.0001
vn 1.0000 -0.0000 -0.0000
vn 0.9239 0.3826 -0.0000
vn 0.9239 0.3827 -0.0000
vn 0.7071 0.7071 -0.0000
vn 0.3827 0.9239 -0.0000
vn 0.3826 0.9239 -0.0000
vn -0.0000 1.0000 -0.0000
vn -0.3826 0.9239 -0.0000
vn -0.3827 0.9239 -0.0000
vn -0.7071 0.7071 -0.0000
vn -0.9239 0.3827 -0.0000
vn -0.9239 0.3826 -0.0000
vn -1.0000 -0.0000 -0.0001
vn -1.0000 -0.0000 -0.0000
vn -0.9239 -0.3826 -0.0000
vn -0.9239 -0.3827 -0.0000
vn -0.7071 -0.7071 -0.0000
vn -0.3827 -0.9239 -0.0000
vn -0.3826 -0.9239 -0.0000
vn -0.0000 -0.0000 1.0000
vn -0.0000 -0.0000 -1.0000
vt 0.016758 0.016758
vt 0.048033 0.016758
vt 0.016758 0.044397
vt 0.048033 0.044397
vt 0.016758 0.080508
vt 0.048033 0.080508
vt 0.016758 0.119595
vt 0.048033 0.119595
vt 0.016758 0.155707
vt 0.048033 0.155707
vt 0.081550 0.016758
vt 0.112824 0.016758
vt 0.081550 0.052870
vt 0.112824 0.052870
vt 0.081550 0.091957
vt 0.112824 0.091957
vt 0.081550 0.128068
vt 0.112824 0.128068
vt 0.081550 0.155707
vt 0.112824 0.155707
vt 0.146341 0.016758
vt 0.177615 0.016758
vt 0.146341 0.052870
vt 0.177615 0.052870
vt 0.146341 0.091957
vt 0.177615 0.091957
vt 0.146341 0.128068
vt 0.177615 0.128068
vt 0.146341 0.155707
vt 0.177615 0.155707
vt 0.211132 0.016758
vt 0.242407 0.016758
vt 0.211132 0.044397
vt 0.242407 0.044397
vt 0.211132 0.080508
vt 0.242407 0.080508
vt 0.211132 0.119595
vt 0.242407 0.119595
vt 0.211132 0.155707
vt 0.242407 0.155707
vt 0.413153 0.016758
vt 0.452240 0.016758
vt 0.432697 0.115010
vt 0.413154 0.148526
vt 0.452240 0.148526
vt 0.432697 0.246778
vt 0.413154 0.280294
vt 0.452240 0.280294
vt 0.432697 0.378546
vt 0.413154 0.412062
vt 0.452240 0.412062
vt 0.432697 0.510314
vt 0.524844 0.115010
vt 0.485757 0.115010
vt 0.505300 0.016758
vt 0.524844 0.246778
vt 0.485757 0.246778
vt 0.505300 0.148526
vt 0.524844 0.378546
vt 0.485757 0.378546
vt 0.505300 0.280294
vt 0.379637 0.250627
vt 0.341301 0.243002
vt 0.379637 0.150451
vt 0.055094 0.289399
vt 0.016758 0.281774
vt 0.055094 0.189223
vt 0.055094 0.423092
vt 0.016758 0.415467
vt 0.055094 0.322916
vt 0.199550 0.421167
vt 0.160463 0.421167
vt 0.180007 0.322916
vt 0.670051 0.378546
vt 0.630964 0.378546
vt 0.650507 0.280294
vt 0.485757 0.412062
vt 0.524844 0.412062
vt 0.505300 0.510314
vt 0.160463 0.454684
vt 0.199550 0.454684
vt 0.180007 0.552935
vt 0.016758 0.456609
vt 0.055845 0.456609
vt 0.036302 0.554860
vt 0.088611 0.196849
vt 0.126947 0.189223
vt 0.126947 0.289399
vt 0.160463 0.196849
vt 0.198799 0.189223
vt 0.198799 0.289399
vt 0.268698 0.459903
vt 0.307784 0.459903
vt 0.288241 0.558154
vt 0.558361 0.016758
vt 0.597447 0.016758
vt 0.577904 0.115010
vt 0.558361 0.148526
vt 0.597447 0.148526
vt 0.577904 0.246778
vt 0.670051 0.510314
vt 0.630964 0.510314
vt 0.650507 0.412062
vt 0.307784 0.426386
vt 0.268698 0.426386
vt 0.288241 0.328135
vt 0.126947 0.423092
vt 0.088611 0.415467
vt 0.126947 0.322916
vt 0.379637 0.116934
vt 0.341301 0.109309
vt 0.379637 0.016758
vt 0.379637 0.384320
vt 0.341301 0.376695
vt 0.379637 0.284144
vt 0.597447 0.378546
vt 0.558361 0.378546
vt 0.577904 0.280294
vt 0.597447 0.510314
vt 0.558361 0.510314
vt 0.577904 0.412062
vt 0.452240 0.642081
vt 0.413154 0.642081
vt 0.432697 0.543830
vt 0.485757 0.543830
vt 0.524844 0.543830
vt 0.505300 0.642081
vt 0.558361 0.543830
vt 0.597447 0.543830
vt 0.577904 0.642081
vt 0.630964 0.016758
vt 0.670051 0.016758
vt 0.650507 0.115010
vt 0.630964 0.148526
vt 0.670051 0.148526
vt 0.650507 0.246778
s 0
usemtl coin
f 1/1/1 18/2/1 2/3/2
f 18/2/1 19/4/2 2/3/2
f 2/3/3 19/4/3 3/5/4
f 19/4/3 20/6/4 3/5/4
f 3/5/4 20/6/4 4/7/5
f 20/6/4 21/8/5 4/7/5
f 4/7/6 21/8/6 5/9/7
f 21/8/6 22/10/8 5/9/8
f 5/11/8 22/12/8 6/13/9
f 22/12/7 23/14/9 6/13/9
f 6/13/10 23/14/10 7/15/11
f 23/14/10 24/16/11 7/15/11
f 7/15/11 24/16/11 8/17/12
f 24/16/11 25/18/12 8/17/12
f 8/17/13 25/18/13 9/19/14
f 25/18/13 26/20/14 9/19/14
f 9/21/14 26/22/14 10/23/15
f 26/22/14 27/24/15 10/23/15
f 10/23/16 27/24/16 11/25/17
f 27/24/16 28/26/17 11/25/17
f 11/25/17 28/26/17 12/27/18
f 28/26/17 29/28/18 12/27/18
f 12/27/19 29/28/19 13/29/20
f 29/28/19 30/30/21 13/29/21
f 13/31/21 30/32/21 14/33/22
f 30/32/20 31/34/22 14/33/22
f 14/33/23 31/34/23 15/35/24
f 31/34/23 32/36/24 15/35/24
f 15/35/24 32/36/24 16/37/25
f 32/36/24 33/38/25 16/37/25
f 16/37/26 33/38/26 17/39/1
f 33/38/26 34/40/1 17/39/1
f 51/41/27 52/42/27 35/43/27
f 52/44/27 53/45/27 36/46/27
f 53/47/27 54/48/27 37/49/27
f 54/50/27 55/51/27 38/52/27
f 55/53/27 56/54/27 39/55/27
f 56/56/27 57/57/27 40/58/27
f 57/59/27 58/60/27 41/61/27
f 58/62/27 59/63/27 42/64/27
f 59/65/27 60/66/27 43/67/27
f 60/68/27 61/69/27 44/70/27
f 61/71/27 62/72/27 45/73/27
f 62/74/27 63/75/27 46/76/27
f 63/77/27 64/78/27 47/79/27
f 64/80/27 65/81/27 48/82/27
f 65/83/27 66/84/27 49/85/27
f 66/86/27 67/87/27 50/88/27
f 85/89/28 84/90/28 68/91/28
f 86/92/28 85/93/28 69/94/28
f 87/95/28 86/96/28 70/97/28
f 88/98/28 87/99/28 71/100/28
f 89/101/28 88/102/28 72/103/28
f 90/104/28 89/105/28 73/106/28
f 91/107/28 90/108/28 74/109/28
f 92/110/28 91/111/28 75/112/28
f 93/113/28 92/114/28 76/115/28
f 94/116/28 93/117/28 77/118/28
f 95/119/28 94/120/28 78/121/28
f 96/122/28 95/123/28 79/124/28
f 97/125/28 96/126/28 80/127/28
f 98/128/28 97/129/28 81/130/28
f 99/131/28 98/132/28 82/133/28
f 100/134/28 99/135/28 83/136/28
o coin_face
v 0.000000 0.100000 0.079512
v 0.173553 0.139612 0.079512
v 0.312733 0.250604 0.079512
v 0.389971 0.410992 0.079512
v 0.389971 0.589008 0.079512
v 0.312733 0.749396 0.079512
v 0.173553 0.860388 0.079512
v 0.000000 0.900000 0.079512
v -0.173553 0.860388 0.079512
v -0.312733 0.749396 0.079512
v -0.389971 0.589008 0.079512
v -0.389971 0.410992 0.079512
v -0.312733 0.250604 0.079512
v -0.173553 0.139612 0.079512
v -0.000000 0.100000 0.079512
v 0.000000 0.100000 -0.079512
v 0.173553 0.139612 -0.079512
v 0.312733 0.250604 -0.079512
v 0.389971 0.410992 -0.079512
v 0.389971 0.589008 -0.079512
v 0.312733 0.749396 -0.079512
v 0.173553 0.860388 -0.079512
v 0.000000 0.900000 -0.079512
v -0.173553 0.860388 -0.079512
v -0.312733 0.749396 -0.079512
v -0.389971 0.589008 -0.079512
v -0.389971 0.410992 -0.079512
v -0.312733 0.250604 -0.079512
v -0.173553 0.139612 -0.079512
v -0.000000 0.100000 -0.079512
v 0.000000 0.500000 0.079512
v 0.000000 0.500000 0.079512
v 0.000000 0.500000 0.079512
v 0.000000 0.500000 0.079512
v 0.000000 0.500000 0.079512
v 0.000000 0.500000 0.079512
v 0.000000 0.500000 0.079512
v 0.000000 0.500000 0.079512
v 0.000000 0.500000 0.079512
v 0.000000 0.500000 0.079512
v 0.000000 0.500000 0.079512
v 0.000000 0.500000 0.079512
v 0.000000 0.500000 0.079512
v 0.000000 0.500000 0.079512
v 0.000000 0.100000 0.079512
v 0.173553 0.139612 0.079512
v 0.312733 0.250604 0.079512
v 0.389971 0.410992 0.079512
v 0.389971 0.589008 0.079512
v 0.312733 0.749396 0.079512
v 0.173553 0.860388 0.079512
v 0.000000 0.900000 0.079512
v -0.173553 0.860388 0.079512
v -0.312733 0.749396 0.079512
v -0.389971 0.589008 0.079512
v -0.389971 0.410992 0.079512
v -0.312733 0.250604 0.079512
v -0.173553 0.139612 0.079512
v -0.000000 0.100000 0.079512
v 0.000000 0.500000 -0.079512
v 0.000000 0.500000 -0.079512
v 0.000000 0.500000 -0.079512
v 0.000000 0.500000 -0.079512
v 0.000000 0.500000 -0.079512
v 0.000000 0.500000 -0.079512
v 0.000000 0.500000 -0.079512
v 0.000000 0.500000 -0.079512
v 0.000000 0.500000 -0.079512
v 0.000000 0.500000 -0.079512
v 0.000000 0.500000 -0.079512
v 0.000000 0.500000 -0.079512
v 0.000000 0.500000 -0.079512
v 0.000000 0.500000 -0.079512
v 0.000000 0.100000 -0.079512
v 0.173553 0.139612 -0.079512
v 0.312733 0.250604 -0.079512
v 0.389971 0.410992 -0.079512
v 0.389971 0.589008 -0.079512
v 0.312733 0.749396 -0.079512
v 0.173553 0.860388 -0.079512
v 0.000000 0.900000 -0.079512
v -0.173553 0.860388 -0.079512
v -0.312733 0.749396 -0.079512
v -0.389971 0.589008 -0.079512
v -0.389971 0.410992 -0.079512
v -0.312733 0.250604 -0.079512
v -0.173553 0.139612 -0.079512
v -0.000000 0.100000 -0.079512
vn -0.0000 -1.0000 -0.0000
vn 0.4338 -0.9010 -0.0000
vn -0.0000 -1.0000 0.0001
vn 0.4339 -0.9009 -0.0000
vn 0.7818 -0.6235 -0.0000
vn 0.7819 -0.6235 -0.0000
vn 0.9749 -0.2226 -0.0000
vn 0.9749 -0.2225 -0.0000
vn 0.9749 0.2225 -0.0000
vn 0.9749 0.2226 -0.0000
vn 0.7819 0.6235 -0.0000
vn 0.7818 0.6235 -0.0000
vn 0.4339 0.9009 -0.0000
vn 0.4338 0.9010 -0.0000
vn -0.0000 1.0000 -0.0000
vn 0.4338 0.9010 -0.0001
vn -0.4338 0.9010 -0.0001
vn -0.4338 0.9010 -0.0000
vn -0.4339 0.9009 -0.0000
vn -0.7818 0.6235 -0.0000
vn -0.7819 0.6235 -0.0000
vn -0.9749 0.2226 -0.0000
vn -0.9749 0.2225 -0.0000
vn -0.9749 -0.2225 -0.0000
vn -0.9749 -0.2226 -0.0000
vn -0.7819 -0.6235 -0.0000
vn -0.7818 -0.6235 -0.0000
vn -0.4339 -0.9009 -0.0000
vn -0.4338 -0.9010 -0.0000
vn -0.0000 -0.0000 1.0000
vn -0.0000 -0.0000 -1.0000
vt 0.341301 0.417837
vt 0.373162 0.417837
vt 0.341301 0.449971
vt 0.373162 0.449971
vt 0.341301 0.485637
vt 0.373162 0.485637
vt 0.341301 0.517771
vt 0.373162 0.517771
vt 0.089362 0.456609
vt 0.121223 0.456609
vt 0.089362 0.488743
vt 0.121223 0.488743
vt 0.089362 0.524409
vt 0.121223 0.524409
vt 0.089362 0.556543
vt 0.121223 0.556543
vt 0.275923 0.016758
vt 0.307784 0.016758
vt 0.275923 0.038996
vt 0.307784 0.038996
vt 0.275923 0.071130
vt 0.307784 0.071130
vt 0.275923 0.106796
vt 0.307784 0.106796
vt 0.275923 0.138930
vt 0.307784 0.138930
vt 0.275923 0.172447
vt 0.307784 0.172447
vt 0.275923 0.204581
vt 0.307784 0.204581
vt 0.275923 0.240247
vt 0.307784 0.240247
vt 0.275923 0.272381
vt 0.307784 0.272381
vt 0.275923 0.294618
vt 0.307784 0.294618
vt 0.699253 0.551767
vt 0.734024 0.543830
vt 0.734024 0.623971
vt 0.630964 0.665424
vt 0.665736 0.657488
vt 0.665736 0.737629
vt 0.699253 0.665424
vt 0.734025 0.657488
vt 0.734025 0.737629
vt 0.304364 0.783460
vt 0.268698 0.783460
vt 0.286531 0.705328
vt 0.803207 0.621962
vt 0.767541 0.621962
vt 0.785374 0.543830
vt 0.376073 0.631428
vt 0.341301 0.623492
vt 0.376073 0.551288
vt 0.051530 0.782175
vt 0.016758 0.774239
vt 0.051530 0.702035
vt 0.738339 0.096899
vt 0.703568 0.088963
vt 0.738339 0.016758
vt 0.665736 0.616035
vt 0.630964 0.623971
vt 0.630964 0.543830
vt 0.803207 0.735619
vt 0.767541 0.735619
vt 0.785374 0.657488
vt 0.807522 0.094890
vt 0.771856 0.094890
vt 0.789689 0.016758
vt 0.703568 0.138352
vt 0.738339 0.130416
vt 0.738339 0.210557
vt 0.703568 0.252010
vt 0.738339 0.244074
vt 0.738339 0.324214
vt 0.160463 0.586452
vt 0.195235 0.594389
vt 0.160463 0.666593
vt 0.016758 0.588377
vt 0.051530 0.596313
vt 0.016758 0.668518
vt 0.703568 0.365668
vt 0.738339 0.357731
vt 0.738339 0.437872
vt 0.341301 0.672882
vt 0.376073 0.664945
vt 0.376073 0.745086
vt 0.807522 0.208548
vt 0.771856 0.208548
vt 0.789689 0.130416
vt 0.807522 0.320196
vt 0.771856 0.320196
vt 0.789689 0.242064
vt 0.124134 0.662264
vt 0.089362 0.670201
vt 0.089362 0.590060
vt 0.447925 0.755739
vt 0.413154 0.747803
vt 0.447925 0.675598
vt 0.124134 0.783858
vt 0.089362 0.775922
vt 0.124134 0.703717
vt 0.303469 0.671812
vt 0.268698 0.663875
vt 0.303469 0.591671
vt 0.807522 0.431844
vt 0.771856 0.431844
vt 0.789689 0.353713
vt 0.803207 0.847268
vt 0.767541 0.847268
vt 0.785374 0.769136
vt 0.485757 0.683535
vt 0.520529 0.675598
vt 0.520529 0.755739
vt 0.558361 0.683535
vt 0.593132 0.675598
vt 0.593132 0.755739
vt 0.160463 0.708046
vt 0.195235 0.700110
vt 0.195235 0.780250
s 0
usemtl coin
f 101/137/29 116/138/29 102/139/30
f 116/138/31 117/140/30 102/139/30
f 102/139/32 117/140/32 103/141/33
f 117/140/32 118/142/33 103/141/33
f 103/141/34 118/142/34 104/143/35
f 118/142/34 119/144/35 104/143/35
f 104/145/36 119/146/36 105/147/37
f 119/146/36 120/148/37 105/147/37
f 105/147/38 120/148/38 106/149/39
f 120/148/38 121/150/39 106/149/39
f 106/149/40 121/150/40 107/151/41
f 121/150/40 122/152/41 107/151/41
f 107/153/42 122/154/42 108/155/43
f 122/154/44 123/156/43 108/155/43
f 108/155/43 123/156/43 109/157/45
f 123/156/43 124/158/46 109/157/46
f 109/157/47 124/158/47 110/159/48
f 124/158/47 125/160/48 110/159/48
f 110/159/49 125/160/49 111/161/50
f 125/160/49 126/162/50 111/161/50
f 111/163/51 126/164/51 112/165/52
f 126/164/51 127/166/52 112/165/52
f 112/165/53 127/166/53 113/167/54
f 127/166/53 128/168/54 113/167/54
f 113/167/55 128/168/55 114/169/56
f 128/168/55 129/170/56 114/169/56
f 114/169/57 129/170/57 115/171/31
f 129/170/57 130/172/29 115/171/29
f 145/173/58 146/174/58 131/175/58
f 146/176/58 147/177/58 132/178/58
f 147/179/58 148/180/58 133/181/58
f 148/182/58 149/183/58 134/184/58
f 149/185/58 150/186/58 135/187/58
f 150/188/58 151/189/58 136/190/58
f 151/191/58 152/192/58 137/193/58
f 152/194/58 153/195/58 138/196/58
f 153/197/58 154/198/58 139/199/58
f 154/200/58 155/201/58 140/202/58
f 155/203/58 156/204/58 141/205/58
f 156/206/58 157/207/58 142/208/58
f 157/209/58 158/210/58 143/211/58
f 158/212/58 159/213/58 144/214/58
f 175/215/59 174/216/59 160/217/59
f 176/218/59 175/219/59 161/220/59
f 177/221/59 176/222/59 162/223/59
f 178/224/59 177/225/59 163/226/59
f 179/227/59 178/228/59 164/229/59
f 180/230/59 179/231/59 165/232/59
f 181/233/59 180/234/59 166/235/59
f 182/236/59 181/237/59 167/238/59
f 183/239/59 182/240/59 168/241/59
f 184/242/59 183/243/59 169/244/59
f 185/245/59 184/246/59 170/247/59
f 186/248/59 185/249/59 171/250/59
f 187/251/59 186/252/59 172/253/59
f 188/254/59 187/255/59 173/256/59
o star_back
v -0.079351 0.609217 -0.100000
v 0.000000 0.800000 -0.100000
v 0.079351 0.609217 -0.100000
v -0.128393 0.458283 -0.100000
v -0.285317 0.592705 -0.100000
v -0.079351 0.609217 -0.100000
v -0.000000 0.365000 -0.100000
v -0.176336 0.257295 -0.100000
v -0.128393 0.458283 -0.100000
v 0.128393 0.458283 -0.100000
v 0.176336 0.257295 -0.100000
v -0.000000 0.365000 -0.100000
v 0.079351 0.609217 -0.100000
v 0.285317 0.592705 -0.100000
v 0.128393 0.458283 -0.100000
v -0.128393 0.458283 -0.100000
v -0.079351 0.609217 -0.100000
v 0.079351 0.609217 -0.100000
v 0.128393 0.458283 -0.100000
v -0.000000 0.365000 -0.100000
v -0.128393 0.458283 -0.100000
v -0.128393 0.458283 -0.100000
v 0.079351 0.609217 -0.100000
v 0.128393 0.458283 -0.100000
v 0.079351 0.609217 -0.079512
v 0.000000 0.800000 -0.079512
v -0.079351 0.609217 -0.079512
v -0.079351 0.609217 -0.079512
v -0.285317 0.592705 -0.079512
v -0.128393 0.458283 -0.079512
v -0.128393 0.458283 -0.079512
v -0.176336 0.257295 -0.079512
v -0.000000 0.365000 -0.079512
v -0.000000 0.365000 -0.079512
v 0.176336 0.257295 -0.079512
v 0.128393 0.458283 -0.079512
v 0.128393 0.458283 -0.079512
v 0.285317 0.592705 -0.079512
v 0.079351 0.609217 -0.079512
v 0.079351 0.609217 -0.079512
v -0.079351 0.609217 -0.079512
v -0.128393 0.458283 -0.079512
v -0.128393 0.458283 -0.079512
v -0.000000 0.365000 -0.079512
v 0.128393 0.458283 -0.079512
v 0.128393 0.458283 -0.079512
v 0.079351 0.609217 -0.079512
v -0.128393 0.458283 -0.079512
v 0.000000 0.800000 -0.100000
v -0.079351 0.609217 -0.100000
v 0.000000 0.800000 -0.079512
v -0.079351 0.609217 -0.100000
v -0.079351 0.609217 -0.079512
v 0.000000 0.800000 -0.079512
v -0.079351 0.609217 -0.100000
v -0.285317 0.592705 -0.100000
v -0.079351 0.609217 -0.079512
v -0.285317 0.592705 -0.100000
v -0.285317 0.592705 -0.079512
v -0.079351 0.609217 -0.079512
v -0.285317 0.592705 -0.100000
v -0.128393 0.458283 -0.100000
v -0.285317 0.592705 -0.079512
v -0.128393 0.458283 -0.100000
v -0.128393 0.458283 -0.079512
v -0.285317 0.592705 -0.079512
v -0.128393 0.458283 -0.100000
v -0.176336 0.257295 -0.100000
v -0.128393 0.458283 -0.079512
v -0.176336 0.257295 -0.100000
v -0.176336 0.257295 -0.079512
v -0.128393 0.458283 -0.079512
v -0.176336 0.257295 -0.100000
v -0.000000 0.365000 -0.100000
v -0.176336 0.257295 -0.079512
v -0.000000 0.365000 -0.100000
v -0.000000 0.365000 -0.079512
v -0.176336 0.257295 -0.079512
v -0.000000 0.365000 -0.100000
v 0.176336 0.257295 -0.100000
v -0.000000 0.365000 -0.079512
v 0.176336 0.257295 -0.100000
v 0.176336 0.257295 -0.079512
v -0.000000 0.365000 -0.079512
v 0.176336 0.257295 -0.100000
v 0.128393 0.458283 -0.100000
v 0.176336 0.257295 -0.079512
v 0.128393 0.458283 -0.100000
v 0.128393 0.458283 -0.079512
v 0.176336 0.257295 -0.079512
v 0.128393 0.458283 -0.100000
v 0.285317 0.592705 -0.100000
v 0.128393 0.458283 -0.079512
v 0.285317 0.592705 -0.100000
v 0.285317 0.592705 -0.079512
v 0.128393 0.458283 -0.079512
v 0.285317 0.592705 -0.100000
v 0.079351 0.609217 -0.100000
v 0.285317 0.592705 -0.079512
v 0.079351 0.609217 -0.100000
v 0.079351 0.609217 -0.079512
v 0.285317 0.592705 -0.079512
v 0.079351 0.609217 -0.100000
v 0.000000 0.800000 -0.100000
v 0.079351 0.609217 -0.079512
v 0.000000 0.800000 -0.100000
v 0.000000 0.800000 -0.079512
v 0.079351 0.609217 -0.079512
vn -0.0000 -0.0000 -1.0000
vn -0.0000 -0.0000 1.0000
vn -0.9233 0.3840 -0.0000
vn -0.0799 0.9968 -0.0000
vn -0.6506 -0.7595 -0.0000
vn -0.9727 0.2320 -0.0000
vn 0.5213 -0.8534 -0.0000
vn -0.5213 -0.8534 -0.0000
vn 0.9727 0.2320 -0.0000
vn 0.6506 -0.7595 -0.0000
vn 0.0799 0.9968 -0.0000
vn 0.9233 0.3840 -0.0000
vt 0.735364 0.471389
vt 0.719466 0.509613
vt 0.703568 0.471389
vt 0.046117 0.815692
vt 0.046117 0.857090
vt 0.016758 0.827903
vt 0.268698 0.846164
vt 0.298056 0.816977
vt 0.298056 0.858375
vt 0.771856 0.494548
vt 0.801214 0.465361
vt 0.801214 0.506759
vt 0.870397 0.028969
vt 0.841039 0.058156
vt 0.841039 0.016758
vt 0.630964 0.856110
vt 0.649653 0.881833
vt 0.630964 0.907557
vt 0.683170 0.856110
vt 0.701860 0.881833
vt 0.683170 0.907557
vt 0.630964 0.771146
vt 0.661204 0.812767
vt 0.630964 0.822593
vt 0.872835 0.316979
vt 0.856937 0.355203
vt 0.841039 0.316979
vt 0.870397 0.103884
vt 0.841039 0.133071
vt 0.841039 0.091673
vt 0.481442 0.818443
vt 0.510800 0.789256
vt 0.510800 0.830654
vt 0.089362 0.846562
vt 0.118720 0.817375
vt 0.118720 0.858773
vt 0.864089 0.465361
vt 0.864089 0.506759
vt 0.834731 0.477572
vt 0.359990 0.915015
vt 0.341301 0.889291
vt 0.359990 0.863567
vt 0.481442 0.864171
vt 0.500131 0.889894
vt 0.481442 0.915618
vt 0.699253 0.771146
vt 0.729493 0.780971
vt 0.699253 0.822593
vt 0.236400 0.189630
vt 0.232316 0.230693
vt 0.232316 0.189223
vt 0.232837 0.627922
vt 0.228752 0.627515
vt 0.232837 0.586452
vt 0.903914 0.133010
vt 0.903914 0.091745
vt 0.908019 0.133010
vt 0.635069 0.982340
vt 0.630964 0.982340
vt 0.630964 0.941074
vt 0.903914 0.207854
vt 0.903914 0.166588
vt 0.908019 0.207854
vt 0.955910 0.734661
vt 0.951805 0.734661
vt 0.951805 0.693395
vt 0.903914 0.282769
vt 0.903914 0.241503
vt 0.908019 0.282769
vt 0.910457 0.358245
vt 0.906352 0.358245
vt 0.906352 0.316979
vt 0.413154 0.915486
vt 0.413154 0.874220
vt 0.417258 0.915486
vt 0.771646 0.922050
vt 0.767541 0.922050
vt 0.767541 0.880785
vt 0.228752 0.927662
vt 0.228752 0.886397
vt 0.232857 0.927662
vt 0.955910 0.809443
vt 0.951805 0.809443
vt 0.951805 0.768178
vt 0.160463 0.929948
vt 0.160463 0.888682
vt 0.164568 0.929948
vt 0.840829 0.957057
vt 0.836724 0.957057
vt 0.836724 0.915791
vt 0.016758 0.931873
vt 0.016758 0.890607
vt 0.020863 0.931873
vt 0.943743 0.960099
vt 0.939638 0.960099
vt 0.939638 0.918833
vt 0.268698 0.933157
vt 0.268698 0.891891
vt 0.272802 0.933157
vt 0.672690 0.982340
vt 0.668586 0.982340
vt 0.668586 0.941074
vt 0.232837 0.661845
vt 0.228752 0.702908
vt 0.228752 0.661438
vt 0.232837 0.777894
vt 0.228752 0.777488
vt 0.232837 0.736424
s 0
usemtl coin
f 189/257/60 190/258/60 191/259/60
f 192/260/60 193/261/60 194/262/60
f 195/263/60 196/264/60 197/265/60
f 198/266/60 199/267/60 200/268/60
f 201/269/60 202/270/60 203/271/60
f 204/272/60 205/273/60 206/274/60
f 207/275/60 208/276/60 209/277/60
f 210/278/60 211/279/60 212/280/60
f 213/281/61 214/282/61 215/283/61
f 216/284/61 217/285/61 218/286/61
f 219/287/61 220/288/61 221/289/61
f 222/290/61 223/291/61 224/292/61
f 225/293/61 226/294/61 227/295/61
f 228/296/61 229/297/61 230/298/61
f 231/299/61 232/300/61 233/301/61
f 234/302/61 235/303/61 236/304/61
f 237/305/62 238/306/62 239/307/62
f 240/308/62 241/309/62 242/310/62
f 243/311/63 244/312/63 245/313/63
f 246/314/63 247/315/63 248/316/63
f 249/317/64 250/318/64 251/319/64
f 252/320/64 253/321/64 254/322/64
f 255/323/65 256/324/65 257/325/65
f 258/326/65 259/327/65 260/328/65
f 261/329/66 262/330/66 263/331/66
f 264/332/66 265/333/66 266/334/66
f 267/335/67 268/336/67 269/337/67
f 270/338/67 271/339/67 272/340/67
f 273/341/68 274/342/68 275/343/68
f 276/344/68 277/345/68 278/346/68
f 279/347/69 280/348/69 281/349/69
f 282/350/69 283/351/69 284/352/69
f 285/353/70 286/354/70 287/355/70
f 288/356/70 289/357/70 290/358/70
f 291/359/71 292/360/71 293/361/71
f 294/362/71 295/363/71 296/364/71
o star_front
v -0.079351 0.609217 0.079512
v 0.000000 0.800000 0.079512
v 0.079351 0.609217 0.079512
v -0.128393 0.458283 0.079512
v -0.285317 0.592705 0.079512
v -0.079351 0.609217 0.079512
v -0.000000 0.365000 0.079512
v -0.176336 0.257295 0.079512
v -0.128393 0.458283 0.079512
v 0.128393 0.458283 0.079512
v 0.176336 0.257295 0.079512
v -0.000000 0.365000 0.079512
v 0.079351 0.609217 0.079512
v 0.285317 0.592705 0.079512
v 0.128393 0.458283 0.079512
v -0.128393 0.458283 0.079512
v -0.079351 0.609217 0.079512
v 0.079351 0.609217 0.079512
v 0.128393 0.458283 0.079512
v -0.000000 0.365000 0.079512
v -0.128393 0.458283 0.079512
v -0.128393 0.458283 0.079512
v 0.079351 0.609217 0.079512
v 0.128393 0.458283 0.079512
v 0.079351 0.609217 0.100000
v 0.000000 0.800000 0.100000
v -0.079351 0.609217 0.100000
v -0.079351 0.609217 0.100000
v -0.285317 0.592705 0.100000
v -0.128393 0.458283 0.100000
v -0.128393 0.458283 0.100000
v -0.176336 0.257295 0.100000
v -0.000000 0.365000 0.100000
v -0.000000 0.365000 0.100000
v 0.176336 0.257295 0.100000
v 0.128393 0.458283 0.100000
v 0.128393 0.458283 0.100000
v 0.285317 0.592705 0.100000
v 0.079351 0.609217 0.100000
v 0.079351 0.609217 0.100000
v -0.079351 0.609217 0.100000
v -0.128393 0.458283 0.100000
v -0.128393 0.458283 0.100000
v -0.000000 0.365000 0.100000
v 0.128393 0.458283 0.100000
v 0.128393 0.458283 0.100000
v 0.079351 0.609217 0.100000
v -0.128393 0.458283 0.100000
v 0.000000 0.800000 0.079512
v -0.079351 0.609217 0.079512
v 0.000000 0.800000 0.100000
v -0.079351 0.609217 0.079512
v -0.079351 0.609217 0.100000
v 0.000000 0.800000 0.100000
v -0.079351 0.609217 0.079512
v -0.285317 0.592705 0.079512
v -0.079351 0.609217 0.100000
v -0.285317 0.592705 0.079512
v -0.285317 0.592705 0.100000
v -0.079351 0.609217 0.100000
v -0.285317 0.592705 0.079512
v -0.128393 0.458283 0.079512
v -0.285317 0.592705 0.100000
v -0.128393 0.458283 0.079512
v -0.128393 0.458283 0.100000
v -0.285317 0.592705 0.100000
v -0.128393 0.458283 0.079512
v -0.176336 0.257295 0.079512
v -0.128393 0.458283 0.100000
v -0.176336 0.257295 0.079512
v -0.176336 0.257295 0.100000
v -0.128393 0.458283 0.100000
v -0.176336 0.257295 0.079512
v -0.000000 0.365000 0.079512
v -0.176336 0.257295 0.100000
v -0.000000 0.365000 0.079512
v -0.000000 0.365000 0.100000
v -0.176336 0.257295 0.100000
v -0.000000 0.365000 0.079512
v 0.176336 0.257295 0.079512
v -0.000000 0.365000 0.100000
v 0.176336 0.257295 0.079512
v 0.176336 0.257295 0.100000
v -0.000000 0.365000 0.100000
v 0.176336 0.257295 0.079512
v 0.128393 0.458283 0.079512
v 0.176336 0.257295 0.100000
v 0.128393 0.458283 0.079512
v 0.128393 0.458283 0.100000
v 0.176336 0.257295 0.100000
v 0.128393 0.458283 0.079512
v 0.285317 0.592705 0.079512
v 0.128393 0.458283 0.100000
v 0.285317 0.592705 0.079512
v 0.285317 0.592705 0.100000
v 0.128393 0.458283 0.100000
v 0.285317 0.592705 0.079512
v 0.079351 0.609217 0.079512
v 0.285317 0.592705 0.100000
v 0.079351 0.609217 0.079512
v 0.079351 0.609217 0.100000
v 0.285317 0.592705 0.100000
v 0.079351 0.609217 0.079512
v 0.000000 0.800000 0.079512
v 0.079351 0.609217 0.100000
v 0.000000 0.800000 0.079512
v 0.000000 0.800000 0.100000
v 0.079351 0.609217 0.100000
vn -0.0000 -0.0000 -1.0000
vn -0.0000 -0.0000 1.0000
vn -0.9233 0.3840 -0.0000
vn -0.0799 0.9968 -0.0000
vn -0.6506 -0.7595 -0.0000
vn -0.9727 0.2320 -0.0000
vn 0.5213 -0.8534 -0.0000
vn -0.5213 -0.8534 -0.0000
vn 0.9727 0.2320 -0.0000
vn 0.6506 -0.7595 -0.0000
vn 0.0799 0.9968 -0.0000
vn 0.9233 0.3840 -0.0000
vt 0.872835 0.388720
vt 0.856937 0.426943
vt 0.841039 0.388720
vt 0.866082 0.543830
vt 0.866082 0.585228
vt 0.836724 0.556041
vt 0.836724 0.647933
vt 0.866082 0.618745
vt 0.866082 0.660143
vt 0.544317 0.818443
vt 0.573675 0.789256
vt 0.573675 0.830654
vt 0.870397 0.178799
vt 0.841039 0.207986
vt 0.841039 0.166588
vt 0.544317 0.864171
vt 0.563006 0.889894
vt 0.544317 0.915618
vt 0.899599 0.543830
vt 0.918288 0.569554
vt 0.899599 0.595278
vt 0.341301 0.778603
vt 0.371541 0.820225
vt 0.341301 0.830050
vt 0.868520 0.844051
vt 0.852622 0.882275
vt 0.836724 0.844051
vt 0.870397 0.254275
vt 0.841039 0.283462
vt 0.841039 0.242064
vt 0.160463 0.842955
vt 0.189822 0.813767
vt 0.189822 0.855165
vt 0.836724 0.722847
vt 0.866082 0.693660
vt 0.866082 0.735058
vt 0.866082 0.769136
vt 0.866082 0.810534
vt 0.836724 0.781347
vt 0.918288 0.680242
vt 0.899599 0.654518
vt 0.918288 0.628794
vt 0.899599 0.713759
vt 0.918288 0.739483
vt 0.899599 0.765206
vt 0.413153 0.789256
vt 0.443394 0.799081
vt 0.413153 0.840703
vt 0.232837 0.811817
vt 0.228752 0.852880
vt 0.228752 0.811411
vt 0.901691 0.506830
vt 0.897606 0.506424
vt 0.901691 0.465361
vt 0.089362 0.933555
vt 0.089362 0.892290
vt 0.093467 0.933555
vt 0.710312 0.982340
vt 0.706207 0.982340
vt 0.706207 0.941074
vt 0.935207 0.506627
vt 0.935207 0.465361
vt 0.939312 0.506627
vt 0.906122 0.960303
vt 0.902017 0.960303
vt 0.902017 0.919037
vt 0.939638 0.885317
vt 0.939638 0.844051
vt 0.943743 0.885317
vt 0.976934 0.506627
vt 0.972829 0.506627
vt 0.972829 0.465361
vt 0.941515 0.058024
vt 0.941515 0.016758
vt 0.945620 0.058024
vt 0.981365 0.885317
vt 0.977260 0.885317
vt 0.977260 0.844051
vt 0.941536 0.133010
vt 0.941536 0.091745
vt 0.945640 0.133010
vt 0.945640 0.207854
vt 0.941535 0.207854
vt 0.941535 0.166588
vt 0.941536 0.282636
vt 0.941536 0.241371
vt 0.945640 0.282636
vt 0.948078 0.358245
vt 0.943973 0.358245
vt 0.943973 0.316979
vt 0.951805 0.585096
vt 0.951805 0.543830
vt 0.955910 0.585096
vt 0.981365 0.960099
vt 0.977260 0.960099
vt 0.977260 0.918833
vt 0.951805 0.659878
vt 0.951805 0.618613
vt 0.955910 0.659878
vt 0.983242 0.058024
vt 0.979137 0.058024
vt 0.979137 0.016758
vt 0.906122 0.844457
vt 0.902037 0.885520
vt 0.902037 0.844051
vt 0.907999 0.058228
vt 0.903914 0.057821
vt 0.907999 0.016758
s 0
usemtl coin
f 297/365/72 298/366/72 299/367/72
f 300/368/72 301/369/72 302/370/72
f 303/371/72 304/372/72 305/373/72
f 306/374/72 307/375/72 308/376/72
f 309/377/72 310/378/72 311/379/72
f 312/380/72 313/381/72 314/382/72
f 315/383/72 316/384/72 317/385/72
f 318/386/72 319/387/72 320/388/72
f 321/389/73 322/390/73 323/391/73
f 324/392/73 325/393/73 326/394/73
f 327/395/73 328/396/73 329/397/73
f 330/398/73 331/399/73 332/400/73
f 333/401/73 334/402/73 335/403/73
f 336/404/73 337/405/73 338/406/73
f 339/407/73 340/408/73 341/409/73
f 342/410/73 343/411/73 344/412/73
f 345/413/74 346/414/74 347/415/74
f 348/416/74 349/417/74 350/418/74
f 351/419/75 352/420/75 353/421/75
f 354/422/75 355/423/75 356/424/75
f 357/425/76 358/426/76 359/427/76
f 360/428/76 361/429/76 362/430/76
f 363/431/77 364/432/77 365/433/77
f 366/434/77 367/435/77 368/436/77
f 369/437/78 370/438/78 371/439/78
f 372/440/78 373/441/78 374/442/78
f 375/443/79 376/444/79 377/445/79
f 378/446/79 379/447/79 380/448/79
f 381/449/80 382/450/80 383/451/80
f 384/452/80 385/453/80 386/454/80
f 387/455/81 388/456/81 389/457/81
f 390/458/81 391/459/81 392/460/81
f 393/461/82 394/462/82 395/463/82
f 396/464/82 397/465/82 398/466/82
f 399/467/83 400/468/83 401/469/83
f 402/470/83 403/471/83 404/472/83
