# Blender 4.2.23 LTS
# www.blender.org
mtllib lamp_post.mtl
o arm
v -0.266693 2.992793 -0.032143
v -0.266693 3.052252 0.032143
v -0.266693 3.052252 -0.032143
v -0.266693 2.992793 -0.032143
v -0.266693 2.992793 0.032143
v -0.266693 3.052252 0.032143
v 0.400465 2.992793 -0.032143
v 0.400465 3.052252 -0.032143
v 0.400465 3.052252 0.032143
v 0.400465 2.992793 -0.032143
v 0.400465 3.052252 0.032143
v 0.400465 2.992793 0.032143
v -0.243687 2.972973 -0.032143
v 0.377459 2.972973 -0.032143
v 0.377459 2.972973 0.032143
v -0.243687 2.972973 -0.032143
v 0.377459 2.972973 0.032143
v -0.243687 2.972973 0.032143
v -0.243687 3.072072 -0.032143
v 0.377459 3.072072 0.032143
v 0.377459 3.072072 -0.032143
v -0.243687 3.072072 -0.032143
v -0.243687 3.072072 0.032143
v 0.377459 3.072072 0.032143
v -0.243687 2.992793 -0.053572
v 0.377459 3.052252 -0.053572
v 0.377459 2.992793 -0.053572
v -0.243687 2.992793 -0.053572
v -0.243687 3.052252 -0.053572
v 0.377459 3.052252 -0.053572
v -0.243687 2.992793 0.053571
v 0.377459 2.992793 0.053571
v 0.377459 3.052252 0.053571
v -0.243687 2.992793 0.053571
v 0.377459 3.052252 0.053571
v -0.243687 3.052252 0.053571
v -0.266693 2.992793 -0.032143
v -0.243687 2.972973 -0.032143
v -0.243687 2.972973 0.032143
v -0.266693 2.992793 -0.032143
v -0.243687 2.972973 0.032143
v -0.266693 2.992793 0.032143
v -0.266693 3.052252 -0.032143
v -0.243687 3.072072 0.032143
v -0.243687 3.072072 -0.032143
v -0.266693 3.052252 -0.032143
v -0.266693 3.052252 0.032143
v -0.243687 3.072072 0.032143
v 0.400465 2.992793 -0.032143
v 0.377459 2.972973 0.032143
v 0.377459 2.972973 -0.032143
v 0.400465 2.992793 -0.032143
v 0.400465 2.992793 0.032143
v 0.377459 2.972973 0.032143
v 0.400465 3.052252 -0.032143
v 0.377459 3.072072 -0.032143
v 0.377459 3.072072 0.032143
v 0.400465 3.052252 -0.032143
v 0.377459 3.072072 0.032143
v 0.400465 3.052252 0.032143
v -0.266693 2.992793 -0.032143
v -0.243687 3.052252 -0.053572
v -0.243687 2.992793 -0.053572
v -0.266693 2.992793 -0.032143
v -0.266693 3.052252 -0.032143
v -0.243687 3.052252 -0.053572
v -0.266693 2.992793 0.032143
v -0.243687 2.992793 0.053571
v -0.243687 3.052252 0.053571
v -0.266693 2.992793 0.032143
v -0.243687 3.052252 0.053571
v -0.266693 3.052252 0.032143
v 0.400465 2.992793 -0.032143
v 0.377459 2.992793 -0.053572
v 0.377459 3.052252 -0.053572
v 0.400465 2.992793 -0.032143
v 0.377459 3.052252 -0.053572
v 0.400465 3.052252 -0.032143
v 0.400465 2.992793 0.032143
v 0.377459 3.052252 0.053571
v 0.377459 2.992793 0.053571
v 0.400465 2.992793 0.032143
v 0.400465 3.052252 0.032143
v 0.377459 3.052252 0.053571
v -0.243687 2.972973 -0.032143
v -0.243687 2.992793 -0.053572
v 0.377459 2.992793 -0.053572
v -0.243687 2.972973 -0.032143
v 0.377459 2.992793 -0.053572
v 0.377459 2.972973 -0.032143
v -0.243687 2.972973 0.032143
v 0.377459 2.992793 0.053571
v -0.243687 2.992793 0.053571
v -0.243687 2.972973 0.032143
v 0.377459 2.972973 0.032143
v 0.377459 2.992793 0.053571
v -0.243687 3.072072 -0.032143
v 0.377459 3.052252 -0.053572
v -0.243687 3.052252 -0.053572
v -0.243687 3.072072 -0.032143
v 0.377459 3.072072 -0.032143
v 0.377459 3.052252 -0.053572
v -0.243687 3.072072 0.032143
v -0.243687 3.052252 0.053571
v 0.377459 3.052252 0.053571
v -0.243687 3.072072 0.032143
v 0.377459 3.052252 0.053571
v 0.377459 3.072072 0.032143
v -0.266693 2.992793 -0.032143
v -0.243687 2.992793 -0.053572
v -0.243687 2.972973 -0.032143
v -0.266693 2.992793 0.032143
v -0.243687 2.972973 0.032143
v -0.243687 2.992793 0.053571
v -0.266693 3.052252 -0.032143
v -0.243687 3.072072 -0.032143
v -0.243687 3.052252 -0.053572
v -0.266693 3.052252 0.032143
v -0.243687 3.052252 0.053571
v -0.243687 3.072072 0.032143
v 0.400465 2.992793 -0.032143
v 0.377459 2.972973 -0.032143
v 0.377459 2.992793 -0.053572
v 0.400465 2.992793 0.032143
v 0.377459 2.992793 0.053571
v 0.377459 2.972973 0.032143
v 0.400465 3.052252 -0.032143
v 0.377459 3.052252 -0.053572
v 0.377459 3.072072 -0.032143
v 0.400465 3.052252 0.032143
v 0.377459 3.072072 0.032143
v 0.377459 3.052252 0.053571
vn -1.0000 -0.0000 -0.0000
vn 1.0000 -0.0000 -0.0000
vn -0.0000 -1.0000 -0.0000
vn -0.0000 1.0000 -0.0000
vn -0.0000 -0.0000 -1.0000
vn -0.0000 -0.0000 1.0000
vn -0.6527 -0.7576 -0.0000
vn -0.6527 0.7576 -0.0000
vn 0.6527 -0.7576 -0.0000
vn 0.6527 0.7576 -0.0000
vn -0.6816 -0.0000 -0.7317
vn -0.6816 -0.0000 0.7317
vn 0.6816 -0.0000 -0.7317
vn 0.6816 -0.0000 0.7317
vn -0.0000 -0.7341 -0.6790
vn -0.0000 -0.7341 0.6790
vn -0.0000 0.7341 -0.6790
vn -0.0000 0.7341 0.6790
vn -0.5345 -0.6204 -0.5739
vn -0.5345 -0.6204 0.5739
vn -0.5345 0.6204 -0.5739
vn -0.5345 0.6204 0.5739
vn 0.5345 -0.6204 -0.5739
vn 0.5345 -0.6204 0.5739
vn 0.5345 0.6204 -0.5739
vn 0.5345 0.6204 0.5739
vt 0.936848 0.720735
vt 0.936848 0.704747
vt 0.944818 0.713363
vt 0.948718 0.478523
vt 0.940749 0.469907
vt 0.948718 0.462535
vt 0.778355 0.484613
vt 0.778355 0.473758
vt 0.786354 0.473758
vt 0.786354 0.617390
vt 0.778355 0.628246
vt 0.778355 0.617390
vt 0.520335 0.484613
vt 0.508661 0.371809
vt 0.520335 0.370600
vt 0.513561 0.257624
vt 0.513561 0.143611
vt 0.525236 0.256416
vt 0.551021 0.484613
vt 0.551021 0.370600
vt 0.562696 0.371809
vt 0.567597 0.257624
vt 0.555922 0.256416
vt 0.567597 0.143611
vt 0.675272 0.098328
vt 0.664416 0.015343
vt 0.675272 0.015343
vt 0.633730 0.099035
vt 0.622966 0.097627
vt 0.633730 0.015343
vt 0.588630 0.604416
vt 0.588630 0.687401
vt 0.577774 0.687401
vt 0.716814 0.015343
vt 0.705958 0.098328
vt 0.705958 0.015343
vt 0.821241 0.484613
vt 0.817040 0.484613
vt 0.817040 0.472876
vt 0.836681 0.949233
vt 0.832481 0.937496
vt 0.836681 0.937496
vt 0.738732 0.949564
vt 0.742932 0.937827
vt 0.742932 0.949564
vt 0.508661 0.949771
vt 0.508661 0.938034
vt 0.512861 0.938034
vt 0.404920 0.827169
vt 0.404920 0.814703
vt 0.408875 0.825753
vt 0.242348 0.924843
vt 0.238394 0.913793
vt 0.242348 0.912377
vt 0.638788 0.948887
vt 0.634833 0.947472
vt 0.638788 0.936421
vt 0.832727 0.906810
vt 0.832727 0.894344
vt 0.836681 0.895759
vt 0.956648 0.841946
vt 0.956648 0.853486
vt 0.952967 0.843273
vt 0.953565 0.894710
vt 0.957246 0.904923
vt 0.953565 0.906250
vt 0.951099 0.956760
vt 0.947419 0.955434
vt 0.951099 0.945221
vt 0.867368 0.957937
vt 0.867368 0.946398
vt 0.871048 0.947724
vt 0.898257 0.722416
vt 0.892517 0.722416
vt 0.892517 0.711560
vt 0.816691 0.100309
vt 0.822432 0.111165
vt 0.816691 0.111165
vt 0.938602 0.561039
vt 0.932862 0.571895
vt 0.932862 0.561039
vt 0.853339 0.111758
vt 0.853339 0.100902
vt 0.859079 0.100902
vt 0.634833 0.515299
vt 0.638743 0.515434
vt 0.634833 0.628774
vt 0.660379 0.370600
vt 0.660379 0.484075
vt 0.656469 0.483940
vt 0.663533 0.257086
vt 0.663533 0.143611
vt 0.667443 0.256951
vt 0.673339 0.628774
vt 0.669429 0.515434
vt 0.673339 0.515299
vt 0.082016 0.579816
vt 0.082016 0.693290
vt 0.078106 0.579951
vt 0.691065 0.370600
vt 0.694975 0.483940
vt 0.691065 0.484075
vt 0.702039 0.257086
vt 0.698129 0.256951
vt 0.702039 0.143611
vt 0.704026 0.628774
vt 0.704026 0.515299
vt 0.707936 0.515434
vt 0.634833 0.979573
vt 0.638746 0.983774
vt 0.634833 0.983774
vt 0.832481 0.984120
vt 0.832481 0.979919
vt 0.836394 0.979919
vt 0.738732 0.984450
vt 0.738732 0.980250
vt 0.742645 0.980250
vt 0.508661 0.980457
vt 0.512573 0.984657
vt 0.508661 0.984657
vt 0.888942 0.568064
vt 0.892560 0.571137
vt 0.888942 0.573804
vt 0.972572 0.521040
vt 0.972572 0.515299
vt 0.976190 0.517966
vt 0.975130 0.067443
vt 0.978536 0.072064
vt 0.974041 0.072064
vt 0.975130 0.107371
vt 0.974041 0.102750
vt 0.978536 0.102750
s 0
usemtl lamp_post
f 1/1/1 2/2/1 3/3/1
f 4/4/1 5/5/1 6/6/1
f 7/7/2 8/8/2 9/9/2
f 10/10/2 11/11/2 12/12/2
f 13/13/3 14/14/3 15/15/3
f 16/16/3 17/17/3 18/18/3
f 19/19/4 20/20/4 21/21/4
f 22/22/4 23/23/4 24/24/4
f 25/25/5 26/26/5 27/27/5
f 28/28/5 29/29/5 30/30/5
f 31/31/6 32/32/6 33/33/6
f 34/34/6 35/35/6 36/36/6
f 37/37/7 38/38/7 39/39/7
f 40/40/7 41/41/7 42/42/7
f 43/43/8 44/44/8 45/45/8
f 46/46/8 47/47/8 48/48/8
f 49/49/9 50/50/9 51/51/9
f 52/52/9 53/53/9 54/54/9
f 55/55/10 56/56/10 57/57/10
f 58/58/10 59/59/10 60/60/10
f 61/61/11 62/62/11 63/63/11
f 64/64/11 65/65/11 66/66/11
f 67/67/12 68/68/12 69/69/12
f 70/70/12 71/71/12 72/72/12
f 73/73/13 74/74/13 75/75/13
f 76/76/13 77/77/13 78/78/13
f 79/79/14 80/80/14 81/81/14
f 82/82/14 83/83/14 84/84/14
f 85/85/15 86/86/15 87/87/15
f 88/88/15 89/89/15 90/90/15
f 91/91/16 92/92/16 93/93/16
f 94/94/16 95/95/16 96/96/16
f 97/97/17 98/98/17 99/99/17
f 100/100/17 101/101/17 102/102/17
f 103/103/18 104/104/18 105/105/18
f 106/106/18 107/107/18 108/108/18
f 109/109/19 110/110/19 111/111/19
f 112/112/20 113/113/20 114/114/20
f 115/115/21 116/116/21 117/117/21
f 118/118/22 119/119/22 120/120/22
f 121/121/23 122/122/23 123/123/23
f 124/124/24 125/125/24 126/126/24
f 127/127/25 128/128/25 129/129/25
f 130/130/26 131/131/26 132/132/26
o base
v -0.243687 0.198198 0.235714
v -0.094943 0.198198 0.190697
v -0.003013 0.198198 0.072840
v -0.003013 0.198198 -0.072840
v -0.094943 0.198198 -0.190697
v -0.243687 0.198198 -0.235714
v -0.392432 0.198198 -0.190697
v -0.484362 0.198198 -0.072840
v -0.484362 0.198198 0.072840
v -0.392432 0.198198 0.190697
v -0.243687 0.198198 0.235714
v -0.243687 0.000000 0.300000
v -0.054376 0.000000 0.242705
v 0.062625 0.000000 0.092705
v 0.062625 -0.000000 -0.092705
v -0.054376 -0.000000 -0.242705
v -0.243687 -0.000000 -0.300000
v -0.432999 -0.000000 -0.242705
v -0.550000 -0.000000 -0.092705
v -0.550000 0.000000 0.092705
v -0.432999 0.000000 0.242705
v -0.243687 0.000000 0.300000
v -0.243687 0.198198 -0.000000
v -0.243687 0.198198 -0.000000
v -0.243687 0.198198 -0.000000
v -0.243687 0.198198 -0.000000
v -0.243687 0.198198 -0.000000
v -0.243687 0.198198 -0.000000
v -0.243687 0.198198 -0.000000
v -0.243687 0.198198 -0.000000
v -0.243687 0.198198 -0.000000
v -0.243687 0.198198 -0.000000
v -0.243687 0.198198 0.235714
v -0.094943 0.198198 0.190697
v -0.003013 0.198198 0.072840
v -0.003013 0.198198 -0.072840
v -0.094943 0.198198 -0.190697
v -0.243687 0.198198 -0.235714
v -0.392432 0.198198 -0.190697
v -0.484362 0.198198 -0.072840
v -0.484362 0.198198 0.072840
v -0.392432 0.198198 0.190697
v -0.243687 0.198198 0.235714
v -0.243687 0.000000 0.000000
v -0.243687 0.000000 0.000000
v -0.243687 0.000000 0.000000
v -0.243687 0.000000 0.000000
v -0.243687 0.000000 0.000000
v -0.243687 0.000000 0.000000
v -0.243687 0.000000 0.000000
v -0.243687 0.000000 0.000000
v -0.243687 0.000000 0.000000
v -0.243687 0.000000 0.000000
v -0.243687 0.000000 0.300000
v -0.054376 0.000000 0.242705
v 0.062625 0.000000 0.092705
v 0.062625 -0.000000 -0.092705
v -0.054376 -0.000000 -0.242705
v -0.243687 -0.000000 -0.300000
v -0.432999 -0.000000 -0.242705
v -0.550000 -0.000000 -0.092705
v -0.550000 0.000000 0.092705
v -0.432999 0.000000 0.242705
v -0.243687 0.000000 0.300000
vn 0.0001 0.3085 0.9512
vn 0.5319 0.3151 0.7860
vn 0.5320 0.3151 0.7859
vn 0.8924 0.3267 0.3113
vn 0.5320 0.3151 0.7860
vn 0.8924 0.3268 0.3113
vn 0.8924 0.3268 0.3112
vn 0.8924 0.3267 0.3112
vn 0.8924 0.3267 -0.3112
vn 0.8924 0.3267 -0.3113
vn 0.5320 0.3151 -0.7860
vn 0.5320 0.3151 -0.7859
vn 0.5319 0.3151 -0.7860
vn 0.0001 0.3085 -0.9512
vn -0.0001 0.3085 -0.9512
vn -0.5319 0.3151 -0.7860
vn -0.5320 0.3151 -0.7859
vn -0.8924 0.3267 -0.3113
vn -0.5320 0.3151 -0.7860
vn -0.8924 0.3268 -0.3113
vn -0.8924 0.3268 -0.3112
vn -0.8924 0.3267 -0.3112
vn -0.8924 0.3267 0.3112
vn -0.8924 0.3267 0.3113
vn -0.5320 0.3151 0.7860
vn -0.5320 0.3151 0.7859
vn -0.5319 0.3151 0.7860
vn -0.0001 0.3085 0.9512
vn -0.0000 1.0000 -0.0000
vn -0.0000 -1.0000 -0.0000
vt 0.278020 0.676692
vt 0.274483 0.638814
vt 0.305295 0.676692
vt 0.309197 0.638814
vt 0.353837 0.024839
vt 0.390517 0.015343
vt 0.359114 0.046357
vt 0.397233 0.042730
vt 0.359114 0.072954
vt 0.397233 0.076581
vt 0.353837 0.094472
vt 0.390517 0.103968
vt 0.274483 0.457290
vt 0.311833 0.449883
vt 0.277018 0.484447
vt 0.315061 0.484447
vt 0.274483 0.511604
vt 0.311833 0.519011
vt 0.415075 0.222740
vt 0.378395 0.232236
vt 0.409798 0.201222
vt 0.371679 0.204849
vt 0.409798 0.174625
vt 0.371679 0.170998
vt 0.415075 0.153107
vt 0.378395 0.143611
vt 0.372708 0.686820
vt 0.368806 0.648943
vt 0.399984 0.686820
vt 0.403520 0.648943
vt 0.719676 0.287772
vt 0.748050 0.287772
vt 0.732143 0.328963
vt 0.015343 0.672500
vt 0.042633 0.672500
vt 0.026093 0.715328
vt 0.222521 0.716431
vt 0.195923 0.716431
vt 0.209222 0.672490
vt 0.719278 0.702288
vt 0.691988 0.702288
vt 0.702739 0.659460
vt 0.467329 0.701533
vt 0.440861 0.691311
vt 0.467329 0.657377
vt 0.537035 0.718712
vt 0.508661 0.718712
vt 0.524568 0.677521
vt 0.661302 0.703616
vt 0.634833 0.696972
vt 0.661302 0.659460
vt 0.663533 0.295477
vt 0.688990 0.287772
vt 0.688990 0.333682
vt 0.130673 0.671923
vt 0.157142 0.665279
vt 0.157142 0.709435
vt 0.274483 0.707378
vt 0.302857 0.707378
vt 0.290390 0.748569
vt 0.440861 0.582379
vt 0.475425 0.571918
vt 0.475425 0.626691
vt 0.274483 0.549697
vt 0.306883 0.562210
vt 0.274483 0.608128
vt 0.368806 0.569632
vt 0.401206 0.559826
vt 0.401206 0.618257
vt 0.625783 0.416519
vt 0.593382 0.429031
vt 0.593382 0.370600
vt 0.632847 0.198384
vt 0.598283 0.187923
vt 0.632847 0.143611
vt 0.165237 0.624132
vt 0.130673 0.634593
vt 0.130673 0.579820
vt 0.541061 0.573730
vt 0.508661 0.561218
vt 0.541061 0.515299
vt 0.592280 0.063968
vt 0.559880 0.073774
vt 0.559880 0.015343
vt 0.571747 0.527812
vt 0.604147 0.515300
vt 0.604147 0.573730
vt 0.598283 0.229070
vt 0.632847 0.239531
vt 0.598283 0.283843
s 0
usemtl lamp_post
f 133/133/27 144/134/27 134/135/28
f 144/134/27 145/136/28 134/135/28
f 134/137/29 145/138/29 135/139/30
f 145/138/31 146/140/32 135/139/30
f 135/139/33 146/140/34 136/141/35
f 146/140/34 147/142/35 136/141/35
f 136/141/36 147/142/36 137/143/37
f 147/142/36 148/144/38 137/143/37
f 137/145/39 148/146/39 138/147/40
f 148/146/39 149/148/40 138/147/40
f 138/147/41 149/148/41 139/149/42
f 149/148/41 150/150/42 139/149/42
f 139/151/43 150/152/43 140/153/44
f 150/152/45 151/154/46 140/153/44
f 140/153/47 151/154/48 141/155/49
f 151/154/48 152/156/49 141/155/49
f 141/155/50 152/156/50 142/157/51
f 152/156/50 153/158/52 142/157/51
f 142/159/53 153/160/53 143/161/54
f 153/160/53 154/162/54 143/161/54
f 165/163/55 166/164/55 155/165/55
f 166/166/55 167/167/55 156/168/55
f 167/169/55 168/170/55 157/171/55
f 168/172/55 169/173/55 158/174/55
f 169/175/55 170/176/55 159/177/55
f 170/178/55 171/179/55 160/180/55
f 171/181/55 172/182/55 161/183/55
f 172/184/55 173/185/55 162/186/55
f 173/187/55 174/188/55 163/189/55
f 174/190/55 175/191/55 164/192/55
f 187/193/56 186/194/56 176/195/56
f 188/196/56 187/197/56 177/198/56
f 189/199/56 188/200/56 178/201/56
f 190/202/56 189/203/56 179/204/56
f 191/205/56 190/206/56 180/207/56
f 192/208/56 191/209/56 181/210/56
f 193/211/56 192/212/56 182/213/56
f 194/214/56 193/215/56 183/216/56
f 195/217/56 194/218/56 184/219/56
f 196/220/56 195/221/56 185/222/56
o finial
v -0.243687 3.300000 0.042857
v -0.211153 3.300000 0.030304
v -0.197677 3.300000 -0.000000
v -0.211153 3.300000 -0.030305
v -0.243687 3.300000 -0.042857
v -0.276222 3.300000 -0.030305
v -0.289698 3.300000 -0.000000
v -0.276222 3.300000 0.030304
v -0.243687 3.300000 0.042857
v -0.243687 3.081982 0.107143
v -0.162351 3.081982 0.075761
v -0.128660 3.081982 -0.000000
v -0.162351 3.081982 -0.075762
v -0.243687 3.081982 -0.107143
v -0.325024 3.081982 -0.075762
v -0.358715 3.081982 -0.000000
v -0.325024 3.081982 0.075761
v -0.243687 3.081982 0.107143
v -0.243687 3.300000 -0.000000
v -0.243687 3.300000 -0.000000
v -0.243687 3.300000 -0.000000
v -0.243687 3.300000 -0.000000
v -0.243687 3.300000 -0.000000
v -0.243687 3.300000 -0.000000
v -0.243687 3.300000 -0.000000
v -0.243687 3.300000 -0.000000
v -0.243687 3.300000 0.042857
v -0.211153 3.300000 0.030304
v -0.197677 3.300000 -0.000000
v -0.211153 3.300000 -0.030305
v -0.243687 3.300000 -0.042857
v -0.276222 3.300000 -0.030305
v -0.289698 3.300000 -0.000000
v -0.276222 3.300000 0.030304
v -0.243687 3.300000 0.042857
v -0.243687 3.081982 -0.000000
v -0.243687 3.081982 -0.000000
v -0.243687 3.081982 -0.000000
v -0.243687 3.081982 -0.000000
v -0.243687 3.081982 -0.000000
v -0.243687 3.081982 -0.000000
v -0.243687 3.081982 -0.000000
v -0.243687 3.081982 -0.000000
v -0.243687 3.081982 0.107143
v -0.162351 3.081982 0.075761
v -0.128660 3.081982 -0.000000
v -0.162351 3.081982 -0.075762
v -0.243687 3.081982 -0.107143
v -0.325024 3.081982 -0.075762
v -0.358715 3.081982 -0.000000
v -0.325024 3.081982 0.075761
v -0.243687 3.081982 0.107143
vn -0.0000 0.2828 0.9592
vn 0.6519 0.2918 0.6999
vn 0.6519 0.2919 0.6999
vn 0.9534 0.3018 -0.0000
vn 0.6519 0.2919 -0.6999
vn 0.6519 0.2918 -0.6999
vn -0.0000 0.2828 -0.9592
vn -0.6519 0.2918 -0.6999
vn -0.6519 0.2919 -0.6999
vn -0.9534 0.3018 -0.0000
vn -0.6519 0.2919 0.6999
vn -0.6519 0.2918 0.6999
vn -0.0000 1.0000 -0.0000
vn -0.0000 -1.0000 -0.0000
vt 0.136218 0.864961
vt 0.130673 0.823834
vt 0.141069 0.864961
vt 0.142802 0.823834
vt 0.742695 0.803095
vt 0.738732 0.761658
vt 0.748751 0.803095
vt 0.753871 0.761658
vt 0.535332 0.604416
vt 0.547088 0.643999
vt 0.531045 0.605551
vt 0.536370 0.646835
vt 0.524678 0.605551
vt 0.520453 0.646835
vt 0.519961 0.604416
vt 0.508661 0.643999
vt 0.795732 0.756657
vt 0.799695 0.798093
vt 0.789677 0.756657
vt 0.784557 0.798093
vt 0.737417 0.413019
vt 0.725661 0.373436
vt 0.741704 0.411884
vt 0.736379 0.370600
vt 0.748071 0.411884
vt 0.752296 0.370600
vt 0.784557 0.956519
vt 0.790282 0.953735
vt 0.790282 0.961852
vt 0.374339 0.954869
vt 0.368806 0.957330
vt 0.368806 0.948929
vt 0.583307 0.957910
vt 0.577774 0.955450
vt 0.583307 0.949510
vt 0.446586 0.962488
vt 0.440861 0.959704
vt 0.446586 0.954370
vt 0.021283 0.968368
vt 0.015343 0.966076
vt 0.021283 0.960543
vt 0.963659 0.612834
vt 0.957933 0.610863
vt 0.963659 0.604716
vt 0.078106 0.958944
vt 0.083832 0.956973
vt 0.083832 0.965091
vt 0.691988 0.963278
vt 0.697928 0.960987
vt 0.697928 0.968811
vt 0.368806 0.899992
vt 0.384723 0.899992
vt 0.377682 0.918243
vt 0.867368 0.894710
vt 0.881200 0.900861
vt 0.867368 0.915712
vt 0.337455 0.909877
vt 0.323623 0.916028
vt 0.323623 0.895027
vt 0.593691 0.918824
vt 0.577774 0.918824
vt 0.586650 0.900573
vt 0.800474 0.923049
vt 0.784557 0.923049
vt 0.791598 0.904798
vt 0.130673 0.895647
vt 0.144506 0.901799
vt 0.130673 0.916649
vt 0.917314 0.771507
vt 0.903482 0.777658
vt 0.903482 0.756657
vt 0.440861 0.905434
vt 0.456778 0.905434
vt 0.447902 0.923684
s 0
usemtl lamp_post
f 197/223/57 206/224/57 198/225/58
f 206/224/57 207/226/58 198/225/59
f 198/227/59 207/228/59 199/229/60
f 207/228/59 208/230/60 199/229/60
f 199/231/60 208/232/60 200/233/61
f 208/232/60 209/234/62 200/233/61
f 200/233/61 209/234/61 201/235/63
f 209/234/62 210/236/63 201/235/63
f 201/235/63 210/236/63 202/237/64
f 210/236/63 211/238/64 202/237/65
f 202/239/65 211/240/65 203/241/66
f 211/240/65 212/242/66 203/241/66
f 203/243/66 212/244/66 204/245/67
f 212/244/66 213/246/68 204/245/67
f 204/245/67 213/246/67 205/247/57
f 213/246/68 214/248/57 205/247/57
f 223/249/69 224/250/69 215/251/69
f 224/252/69 225/253/69 216/254/69
f 225/255/69 226/256/69 217/257/69
f 226/258/69 227/259/69 218/260/69
f 227/261/69 228/262/69 219/263/69
f 228/264/69 229/265/69 220/266/69
f 229/267/69 230/268/69 221/269/69
f 230/270/69 231/271/69 222/272/69
f 241/273/70 240/274/70 232/275/70
f 242/276/70 241/277/70 233/278/70
f 243/279/70 242/280/70 234/281/70
f 244/282/70 243/283/70 235/284/70
f 245/285/70 244/286/70 236/287/70
f 246/288/70 245/289/70 237/290/70
f 247/291/70 246/292/70 238/293/70
f 248/294/70 247/295/70 239/296/70
o head
v 0.147405 2.665766 -0.139286
v 0.147405 2.963063 0.139285
v 0.147405 2.963063 -0.139286
v 0.147405 2.665766 -0.139286
v 0.147405 2.665766 0.139286
v 0.147405 2.963063 0.139285
v 0.515492 2.665766 -0.139286
v 0.515492 2.963063 -0.139286
v 0.515492 2.963063 0.139285
v 0.515492 2.665766 -0.139286
v 0.515492 2.963063 0.139285
v 0.515492 2.665766 0.139286
v 0.181913 2.636036 -0.139286
v 0.480984 2.636036 -0.139286
v 0.480984 2.636036 0.139286
v 0.181913 2.636036 -0.139286
v 0.480984 2.636036 0.139286
v 0.181913 2.636036 0.139286
v 0.181913 2.992793 -0.139286
v 0.480984 2.992793 0.139285
v 0.480984 2.992793 -0.139286
v 0.181913 2.992793 -0.139286
v 0.181913 2.992793 0.139285
v 0.480984 2.992793 0.139285
v 0.181913 2.665766 -0.171429
v 0.480984 2.963063 -0.171429
v 0.480984 2.665766 -0.171429
v 0.181913 2.665766 -0.171429
v 0.181913 2.963063 -0.171429
v 0.480984 2.963063 -0.171429
v 0.181913 2.665766 0.171428
v 0.480984 2.665766 0.171428
v 0.480984 2.963063 0.171428
v 0.181913 2.665766 0.171428
v 0.480984 2.963063 0.171428
v 0.181913 2.963063 0.171428
v 0.147405 2.665766 -0.139286
v 0.181913 2.636036 -0.139286
v 0.181913 2.636036 0.139286
v 0.147405 2.665766 -0.139286
v 0.181913 2.636036 0.139286
v 0.147405 2.665766 0.139286
v 0.147405 2.963063 -0.139286
v 0.181913 2.992793 0.139285
v 0.181913 2.992793 -0.139286
v 0.147405 2.963063 -0.139286
v 0.147405 2.963063 0.139285
v 0.181913 2.992793 0.139285
v 0.515492 2.665766 -0.139286
v 0.480984 2.636036 0.139286
v 0.480984 2.636036 -0.139286
v 0.515492 2.665766 -0.139286
v 0.515492 2.665766 0.139286
v 0.480984 2.636036 0.139286
v 0.515492 2.963063 -0.139286
v 0.480984 2.992793 -0.139286
v 0.480984 2.992793 0.139285
v 0.515492 2.963063 -0.139286
v 0.480984 2.992793 0.139285
v 0.515492 2.963063 0.139285
v 0.147405 2.665766 -0.139286
v 0.181913 2.963063 -0.171429
v 0.181913 2.665766 -0.171429
v 0.147405 2.665766 -0.139286
v 0.147405 2.963063 -0.139286
v 0.181913 2.963063 -0.171429
v 0.147405 2.665766 0.139286
v 0.181913 2.665766 0.171428
v 0.181913 2.963063 0.171428
v 0.147405 2.665766 0.139286
v 0.181913 2.963063 0.171428
v 0.147405 2.963063 0.139285
v 0.515492 2.665766 -0.139286
v 0.480984 2.665766 -0.171429
v 0.480984 2.963063 -0.171429
v 0.515492 2.665766 -0.139286
v 0.480984 2.963063 -0.171429
v 0.515492 2.963063 -0.139286
v 0.515492 2.665766 0.139286
v 0.480984 2.963063 0.171428
v 0.480984 2.665766 0.171428
v 0.515492 2.665766 0.139286
v 0.515492 2.963063 0.139285
v 0.480984 2.963063 0.171428
v 0.181913 2.636036 -0.139286
v 0.181913 2.665766 -0.171429
v 0.480984 2.665766 -0.171429
v 0.181913 2.636036 -0.139286
v 0.480984 2.665766 -0.171429
v 0.480984 2.636036 -0.139286
v 0.181913 2.636036 0.139286
v 0.480984 2.665766 0.171428
v 0.181913 2.665766 0.171428
v 0.181913 2.636036 0.139286
v 0.480984 2.636036 0.139286
v 0.480984 2.665766 0.171428
v 0.181913 2.992793 -0.139286
v 0.480984 2.963063 -0.171429
v 0.181913 2.963063 -0.171429
v 0.181913 2.992793 -0.139286
v 0.480984 2.992793 -0.139286
v 0.480984 2.963063 -0.171429
v 0.181913 2.992793 0.139285
v 0.181913 2.963063 0.171428
v 0.480984 2.963063 0.171428
v 0.181913 2.992793 0.139285
v 0.480984 2.963063 0.171428
v 0.480984 2.992793 0.139285
v 0.147405 2.665766 -0.139286
v 0.181913 2.665766 -0.171429
v 0.181913 2.636036 -0.139286
v 0.147405 2.665766 0.139286
v 0.181913 2.636036 0.139286
v 0.181913 2.665766 0.171428
v 0.147405 2.963063 -0.139286
v 0.181913 2.992793 -0.139286
v 0.181913 2.963063 -0.171429
v 0.147405 2.963063 0.139285
v 0.181913 2.963063 0.171428
v 0.181913 2.992793 0.139285
v 0.515492 2.665766 -0.139286
v 0.480984 2.636036 -0.139286
v 0.480984 2.665766 -0.171429
v 0.515492 2.665766 0.139286
v 0.480984 2.665766 0.171428
v 0.480984 2.636036 0.139286
v 0.515492 2.963063 -0.139286
v 0.480984 2.963063 -0.171429
v 0.480984 2.992793 -0.139286
v 0.515492 2.963063 0.139285
v 0.480984 2.992793 0.139285
v 0.480984 2.963063 0.171428
vn -1.0000 -0.0000 -0.0000
vn 1.0000 -0.0000 -0.0000
vn -0.0000 -1.0000 -0.0000
vn -0.0000 1.0000 -0.0000
vn -0.0000 -0.0000 -1.0000
vn -0.0000 -0.0000 1.0000
vn -0.6527 -0.7576 -0.0000
vn -0.6527 0.7576 -0.0000
vn 0.6527 -0.7576 -0.0000
vn 0.6527 0.7576 -0.0000
vn -0.6816 -0.0000 -0.7317
vn -0.6816 -0.0000 0.7317
vn 0.6816 -0.0000 -0.7317
vn 0.6816 -0.0000 0.7317
vn -0.0000 -0.7341 -0.6790
vn -0.0000 -0.7341 0.6790
vn -0.0000 0.7341 -0.6790
vn -0.0000 0.7341 0.6790
vn -0.5345 -0.6204 -0.5739
vn -0.5345 -0.6204 0.5739
vn -0.5345 0.6204 -0.5739
vn -0.5345 0.6204 0.5739
vn 0.5345 -0.6204 -0.5739
vn 0.5345 -0.6204 0.5739
vn 0.5345 0.6204 -0.5739
vn 0.5345 0.6204 0.5739
vt 0.440861 0.444985
vt 0.440861 0.370600
vt 0.477975 0.405377
vt 0.482875 0.217996
vt 0.445761 0.183220
vt 0.482875 0.143611
vt 0.224994 0.641804
vt 0.195924 0.621553
vt 0.224994 0.579820
vt 0.015343 0.641814
vt 0.015343 0.579830
vt 0.044414 0.600081
vt 0.472953 0.541232
vt 0.440861 0.515128
vt 0.472954 0.475671
vt 0.497101 0.080903
vt 0.497101 0.015343
vt 0.529194 0.041446
vt 0.368806 0.529140
vt 0.410174 0.478279
vt 0.410174 0.529140
vt 0.510042 0.339914
vt 0.510042 0.289054
vt 0.551411 0.289054
vt 0.410174 0.262922
vt 0.410174 0.339914
vt 0.371679 0.301647
vt 0.427919 0.015343
vt 0.466415 0.053610
vt 0.427919 0.092335
vt 0.440861 0.262922
vt 0.479356 0.301647
vt 0.440861 0.339914
vt 0.410174 0.370600
vt 0.410174 0.447593
vt 0.371679 0.408868
vt 0.240952 0.880201
vt 0.235524 0.880201
vt 0.235524 0.829340
vt 0.020771 0.880587
vt 0.015343 0.829727
vt 0.020771 0.829727
vt 0.691988 0.881031
vt 0.697416 0.830170
vt 0.697416 0.881031
vt 0.195923 0.881691
vt 0.195923 0.830830
vt 0.201351 0.830830
vt 0.812953 0.566160
vt 0.821269 0.515299
vt 0.821269 0.566160
vt 0.813335 0.308419
vt 0.813335 0.257558
vt 0.821651 0.257558
vt 0.243731 0.798654
vt 0.235524 0.797312
vt 0.243731 0.747117
vt 0.807056 0.195147
vt 0.807056 0.143611
vt 0.815263 0.144953
vt 0.852250 0.143611
vt 0.845949 0.197891
vt 0.845949 0.143611
vt 0.858256 0.515300
vt 0.858256 0.569579
vt 0.851955 0.569579
vt 0.852337 0.257558
vt 0.858637 0.257558
vt 0.858637 0.311838
vt 0.830381 0.756657
vt 0.836682 0.810936
vt 0.830381 0.810936
vt 0.817581 0.370600
vt 0.823881 0.370600
vt 0.823881 0.424880
vt 0.816691 0.015343
vt 0.822992 0.069623
vt 0.816691 0.069623
vt 0.825743 0.659460
vt 0.819443 0.713740
vt 0.819443 0.659460
vt 0.280783 0.779255
vt 0.280783 0.833534
vt 0.274483 0.833534
vt 0.853678 0.015343
vt 0.859079 0.015880
vt 0.853678 0.070216
vt 0.859968 0.370600
vt 0.859968 0.425473
vt 0.854567 0.424936
vt 0.861831 0.659460
vt 0.861831 0.714333
vt 0.856429 0.659997
vt 0.332054 0.809468
vt 0.337455 0.863804
vt 0.332054 0.864341
vt 0.374234 0.814703
vt 0.368806 0.869306
vt 0.368806 0.814703
vt 0.577774 0.869887
vt 0.577774 0.815283
vt 0.583202 0.815283
vt 0.872795 0.811260
vt 0.867368 0.811260
vt 0.867368 0.756657
vt 0.078106 0.821173
vt 0.083534 0.875776
vt 0.078106 0.875776
vt 0.274483 0.972465
vt 0.274483 0.966164
vt 0.279911 0.966164
vt 0.969795 0.143611
vt 0.975223 0.149911
vt 0.969795 0.149911
vt 0.969795 0.180598
vt 0.975223 0.186898
vt 0.969795 0.186898
vt 0.969795 0.223884
vt 0.969795 0.217584
vt 0.975223 0.217584
vt 0.323623 0.946715
vt 0.330074 0.951962
vt 0.323623 0.954279
vt 0.130673 0.954900
vt 0.130673 0.947335
vt 0.137125 0.949652
vt 0.559880 0.104460
vt 0.565748 0.109233
vt 0.559880 0.112776
vt 0.890654 0.431016
vt 0.890654 0.422700
vt 0.896523 0.426243
s 0
usemtl lamp_post
f 249/297/71 250/298/71 251/299/71
f 252/300/71 253/301/71 254/302/71
f 255/303/72 256/304/72 257/305/72
f 258/306/72 259/307/72 260/308/72
f 261/309/73 262/310/73 263/311/73
f 264/312/73 265/313/73 266/314/73
f 267/315/74 268/316/74 269/317/74
f 270/318/74 271/319/74 272/320/74
f 273/321/75 274/322/75 275/323/75
f 276/324/75 277/325/75 278/326/75
f 279/327/76 280/328/76 281/329/76
f 282/330/76 283/331/76 284/332/76
f 285/333/77 286/334/77 287/335/77
f 288/336/77 289/337/77 290/338/77
f 291/339/78 292/340/78 293/341/78
f 294/342/78 295/343/78 296/344/78
f 297/345/79 298/346/79 299/347/79
f 300/348/79 301/349/79 302/350/79
f 303/351/80 304/352/80 305/353/80
f 306/354/80 307/355/80 308/356/80
f 309/357/81 310/358/81 311/359/81
f 312/360/81 313/361/81 314/362/81
f 315/363/82 316/364/82 317/365/82
f 318/366/82 319/367/82 320/368/82
f 321/369/83 322/370/83 323/371/83
f 324/372/83 325/373/83 326/374/83
f 327/375/84 328/376/84 329/377/84
f 330/378/84 331/379/84 332/380/84
f 333/381/85 334/382/85 335/383/85
f 336/384/85 337/385/85 338/386/85
f 339/387/86 340/388/86 341/389/86
f 342/390/86 343/391/86 344/392/86
f 345/393/87 346/394/87 347/395/87
f 348/396/87 349/397/87 350/398/87
f 351/399/88 352/400/88 353/401/88
f 354/402/88 355/403/88 356/404/88
f 357/405/89 358/406/89 359/407/89
f 360/408/90 361/409/90 362/410/90
f 363/411/91 364/412/91 365/413/91
f 366/414/92 367/415/92 368/416/92
f 369/417/93 370/418/93 371/419/93
f 372/420/94 373/421/94 374/422/94
f 375/423/95 376/424/95 377/425/95
f 378/426/96 379/427/96 380/428/96
o head_cap
v 0.112897 3.007658 -0.182143
v 0.112897 3.057207 0.182143
v 0.112897 3.057207 -0.182143
v 0.112897 3.007658 -0.182143
v 0.112897 3.007658 0.182143
v 0.112897 3.057207 0.182143
v 0.550000 3.007658 -0.182143
v 0.550000 3.057207 -0.182143
v 0.550000 3.057207 0.182143
v 0.550000 3.007658 -0.182143
v 0.550000 3.057207 0.182143
v 0.550000 3.007658 0.182143
v 0.135902 2.987838 -0.182143
v 0.526995 2.987838 -0.182143
v 0.526995 2.987838 0.182143
v 0.135902 2.987838 -0.182143
v 0.526995 2.987838 0.182143
v 0.135902 2.987838 0.182143
v 0.135902 3.077027 -0.182143
v 0.526995 3.077027 0.182143
v 0.526995 3.077027 -0.182143
v 0.135902 3.077027 -0.182143
v 0.135902 3.077027 0.182143
v 0.526995 3.077027 0.182143
v 0.135902 3.007658 -0.203572
v 0.526995 3.057207 -0.203572
v 0.526995 3.007658 -0.203572
v 0.135902 3.007658 -0.203572
v 0.135902 3.057207 -0.203572
v 0.526995 3.057207 -0.203572
v 0.135902 3.007658 0.203571
v 0.526995 3.007658 0.203571
v 0.526995 3.057207 0.203571
v 0.135902 3.007658 0.203571
v 0.526995 3.057207 0.203571
v 0.135902 3.057207 0.203571
v 0.112897 3.007658 -0.182143
v 0.135902 2.987838 -0.182143
v 0.135902 2.987838 0.182143
v 0.112897 3.007658 -0.182143
v 0.135902 2.987838 0.182143
v 0.112897 3.007658 0.182143
v 0.112897 3.057207 -0.182143
v 0.135902 3.077027 0.182143
v 0.135902 3.077027 -0.182143
v 0.112897 3.057207 -0.182143
v 0.112897 3.057207 0.182143
v 0.135902 3.077027 0.182143
v 0.550000 3.007658 -0.182143
v 0.526995 2.987838 0.182143
v 0.526995 2.987838 -0.182143
v 0.550000 3.007658 -0.182143
v 0.550000 3.007658 0.182143
v 0.526995 2.987838 0.182143
v 0.550000 3.057207 -0.182143
v 0.526995 3.077027 -0.182143
v 0.526995 3.077027 0.182143
v 0.550000 3.057207 -0.182143
v 0.526995 3.077027 0.182143
v 0.550000 3.057207 0.182143
v 0.112897 3.007658 -0.182143
v 0.135902 3.057207 -0.203572
v 0.135902 3.007658 -0.203572
v 0.112897 3.007658 -0.182143
v 0.112897 3.057207 -0.182143
v 0.135902 3.057207 -0.203572
v 0.112897 3.007658 0.182143
v 0.135902 3.007658 0.203571
v 0.135902 3.057207 0.203571
v 0.112897 3.007658 0.182143
v 0.135902 3.057207 0.203571
v 0.112897 3.057207 0.182143
v 0.550000 3.007658 -0.182143
v 0.526995 3.007658 -0.203572
v 0.526995 3.057207 -0.203572
v 0.550000 3.007658 -0.182143
v 0.526995 3.057207 -0.203572
v 0.550000 3.057207 -0.182143
v 0.550000 3.007658 0.182143
v 0.526995 3.057207 0.203571
v 0.526995 3.007658 0.203571
v 0.550000 3.007658 0.182143
v 0.550000 3.057207 0.182143
v 0.526995 3.057207 0.203571
v 0.135902 2.987838 -0.182143
v 0.135902 3.007658 -0.203572
v 0.526995 3.007658 -0.203572
v 0.135902 2.987838 -0.182143
v 0.526995 3.007658 -0.203572
v 0.526995 2.987838 -0.182143
v 0.135902 2.987838 0.182143
v 0.526995 3.007658 0.203571
v 0.135902 3.007658 0.203571
v 0.135902 2.987838 0.182143
v 0.526995 2.987838 0.182143
v 0.526995 3.007658 0.203571
v 0.135902 3.077027 -0.182143
v 0.526995 3.057207 -0.203572
v 0.135902 3.057207 -0.203572
v 0.135902 3.077027 -0.182143
v 0.526995 3.077027 -0.182143
v 0.526995 3.057207 -0.203572
v 0.135902 3.077027 0.182143
v 0.135902 3.057207 0.203571
v 0.526995 3.057207 0.203571
v 0.135902 3.077027 0.182143
v 0.526995 3.057207 0.203571
v 0.526995 3.077027 0.182143
v 0.112897 3.007658 -0.182143
v 0.135902 3.007658 -0.203572
v 0.135902 2.987838 -0.182143
v 0.112897 3.007658 0.182143
v 0.135902 2.987838 0.182143
v 0.135902 3.007658 0.203571
v 0.112897 3.057207 -0.182143
v 0.135902 3.077027 -0.182143
v 0.135902 3.057207 -0.203572
v 0.112897 3.057207 0.182143
v 0.135902 3.057207 0.203571
v 0.135902 3.077027 0.182143
v 0.550000 3.007658 -0.182143
v 0.526995 2.987838 -0.182143
v 0.526995 3.007658 -0.203572
v 0.550000 3.007658 0.182143
v 0.526995 3.007658 0.203571
v 0.526995 2.987838 0.182143
v 0.550000 3.057207 -0.182143
v 0.526995 3.057207 -0.203572
v 0.526995 3.077027 -0.182143
v 0.550000 3.057207 0.182143
v 0.526995 3.077027 0.182143
v 0.526995 3.057207 0.203571
vn -1.0000 -0.0000 -0.0000
vn 1.0000 -0.0000 -0.0000
vn -0.0000 -1.0000 -0.0000
vn -0.0000 1.0000 -0.0000
vn -0.0000 -0.0000 -1.0000
vn -0.0000 -0.0000 1.0000
vn -0.6527 -0.7576 -0.0000
vn -0.6527 0.7576 -0.0000
vn 0.6527 -0.7576 -0.0000
vn 0.6527 0.7576 -0.0000
vn -0.6816 -0.0000 -0.7317
vn -0.6816 -0.0000 0.7317
vn 0.6816 -0.0000 -0.7317
vn 0.6816 -0.0000 0.7317
vn -0.0000 -0.7341 -0.6790
vn -0.0000 -0.7341 0.6790
vn -0.0000 0.7341 -0.6790
vn -0.0000 0.7341 0.6790
vn -0.5345 -0.6204 -0.5739
vn -0.5345 -0.6204 0.5739
vn -0.5345 0.6204 -0.5739
vn -0.5345 0.6204 0.5739
vn 0.5345 -0.6204 -0.5739
vn 0.5345 -0.6204 0.5739
vn 0.5345 0.6204 -0.5739
vn 0.5345 0.6204 0.5739
vt 0.732725 0.210121
vt 0.741772 0.143611
vt 0.741772 0.210121
vt 0.738622 0.581810
vt 0.738622 0.515299
vt 0.747668 0.515299
vt 0.449907 0.874748
vt 0.440861 0.874748
vt 0.440861 0.829415
vt 0.793603 0.874112
vt 0.784557 0.828780
vt 0.793603 0.828780
vt 0.323151 0.112925
vt 0.274483 0.060675
vt 0.323151 0.015343
vt 0.340993 0.143611
vt 0.274483 0.215016
vt 0.274483 0.143611
vt 0.274483 0.347792
vt 0.340993 0.419197
vt 0.274483 0.419197
vt 0.340993 0.317106
vt 0.274483 0.317106
vt 0.274483 0.245702
vt 0.130673 0.793148
vt 0.130673 0.740121
vt 0.139587 0.741664
vt 0.024257 0.799041
vt 0.015343 0.797497
vt 0.024257 0.746014
vt 0.195923 0.747117
vt 0.204837 0.798601
vt 0.195923 0.800144
vt 0.517575 0.749398
vt 0.517575 0.802425
vt 0.508661 0.750941
vt 0.373006 0.784017
vt 0.368806 0.784017
vt 0.368806 0.717506
vt 0.407893 0.784017
vt 0.403692 0.717506
vt 0.407893 0.717506
vt 0.577774 0.784597
vt 0.581974 0.718087
vt 0.581974 0.784597
vt 0.784557 0.725971
vt 0.784557 0.659460
vt 0.788757 0.659460
vt 0.078106 0.790487
vt 0.082307 0.723977
vt 0.082307 0.790487
vt 0.440861 0.798729
vt 0.440861 0.732219
vt 0.445061 0.732219
vt 0.696188 0.799484
vt 0.691988 0.799484
vt 0.691988 0.732974
vt 0.639034 0.800812
vt 0.634833 0.734302
vt 0.639034 0.734302
vt 0.408616 0.948929
vt 0.408616 0.958785
vt 0.405025 0.950482
vt 0.238394 0.955529
vt 0.241985 0.963833
vt 0.238394 0.965386
vt 0.199514 0.971414
vt 0.195923 0.969861
vt 0.199514 0.961557
vt 0.969288 0.570895
vt 0.969288 0.561039
vt 0.972879 0.562592
vt 0.404920 0.857855
vt 0.409767 0.860930
vt 0.404920 0.868569
vt 0.952847 0.756657
vt 0.952847 0.767371
vt 0.948000 0.764295
vt 0.948000 0.808771
vt 0.948000 0.798057
vt 0.952847 0.805695
vt 0.916733 0.955935
vt 0.911886 0.948296
vt 0.916733 0.945221
vt 0.776370 0.215016
vt 0.772458 0.215016
vt 0.772458 0.143611
vt 0.782093 0.015343
vt 0.786005 0.086748
vt 0.782093 0.086748
vt 0.337455 0.707378
vt 0.333543 0.778782
vt 0.333543 0.707378
vt 0.751407 0.086855
vt 0.747500 0.015557
vt 0.751407 0.015343
vt 0.753870 0.659460
vt 0.753870 0.730972
vt 0.749964 0.659674
vt 0.778355 0.586704
vt 0.778355 0.515299
vt 0.782267 0.515299
vt 0.786894 0.442005
vt 0.782982 0.442005
vt 0.782982 0.370600
vt 0.778736 0.257558
vt 0.782649 0.328963
vt 0.778736 0.328963
vt 0.974975 0.415958
vt 0.978887 0.420158
vt 0.974975 0.420158
vt 0.975504 0.708947
vt 0.975504 0.704747
vt 0.979416 0.704747
vt 0.976837 0.663661
vt 0.976837 0.659460
vt 0.980750 0.659460
vt 0.979404 0.462535
vt 0.983317 0.466736
vt 0.979404 0.466736
vt 0.976467 0.310215
vt 0.977557 0.314836
vt 0.973062 0.314836
vt 0.978335 0.375221
vt 0.974930 0.370600
vt 0.979425 0.370600
vt 0.974108 0.257558
vt 0.977513 0.262179
vt 0.973018 0.262179
vt 0.974940 0.019964
vt 0.973850 0.015343
vt 0.978345 0.015343
s 0
usemtl lamp_post
f 381/429/97 382/430/97 383/431/97
f 384/432/97 385/433/97 386/434/97
f 387/435/98 388/436/98 389/437/98
f 390/438/98 391/439/98 392/440/98
f 393/441/99 394/442/99 395/443/99
f 396/444/99 397/445/99 398/446/99
f 399/447/100 400/448/100 401/449/100
f 402/450/100 403/451/100 404/452/100
f 405/453/101 406/454/101 407/455/101
f 408/456/101 409/457/101 410/458/101
f 411/459/102 412/460/102 413/461/102
f 414/462/102 415/463/102 416/464/102
f 417/465/103 418/466/103 419/467/103
f 420/468/103 421/469/103 422/470/103
f 423/471/104 424/472/104 425/473/104
f 426/474/104 427/475/104 428/476/104
f 429/477/105 430/478/105 431/479/105
f 432/480/105 433/481/105 434/482/105
f 435/483/106 436/484/106 437/485/106
f 438/486/106 439/487/106 440/488/106
f 441/489/107 442/490/107 443/491/107
f 444/492/107 445/493/107 446/494/107
f 447/495/108 448/496/108 449/497/108
f 450/498/108 451/499/108 452/500/108
f 453/501/109 454/502/109 455/503/109
f 456/504/109 457/505/109 458/506/109
f 459/507/110 460/508/110 461/509/110
f 462/510/110 463/511/110 464/512/110
f 465/513/111 466/514/111 467/515/111
f 468/516/111 469/517/111 470/518/111
f 471/519/112 472/520/112 473/521/112
f 474/522/112 475/523/112 476/524/112
f 477/525/113 478/526/113 479/527/113
f 480/528/113 481/529/113 482/530/113
f 483/531/114 484/532/114 485/533/114
f 486/534/114 487/535/114 488/536/114
f 489/537/115 490/538/115 491/539/115
f 492/540/116 493/541/116 494/542/116
f 495/543/117 496/544/117 497/545/117
f 498/546/118 499/547/118 500/548/118
f 501/549/119 502/550/119 503/551/119
f 504/552/120 505/553/120 506/554/120
f 507/555/121 508/556/121 509/557/121
f 510/558/122 511/559/122 512/560/122
o pole
v -0.243687 3.116667 0.080357
v -0.192979 3.116667 0.065010
v -0.161639 3.116667 0.024831
v -0.161639 3.116667 -0.024832
v -0.192979 3.116667 -0.065011
v -0.243687 3.116667 -0.080357
v -0.294396 3.116667 -0.065011
v -0.325735 3.116667 -0.024832
v -0.325735 3.116667 0.024831
v -0.294396 3.116667 0.065010
v -0.243687 3.116667 0.080357
v -0.243687 0.193243 0.101786
v -0.179457 0.193243 0.082346
v -0.139760 0.193243 0.031454
v -0.139760 0.193243 -0.031454
v -0.179457 0.193243 -0.082346
v -0.243687 0.193243 -0.101786
v -0.307918 0.193243 -0.082346
v -0.347615 0.193243 -0.031454
v -0.347615 0.193243 0.031454
v -0.307918 0.193243 0.082346
v -0.243687 0.193243 0.101786
v -0.243687 3.116667 -0.000000
v -0.243687 3.116667 -0.000000
v -0.243687 3.116667 -0.000000
v -0.243687 3.116667 -0.000000
v -0.243687 3.116667 -0.000000
v -0.243687 3.116667 -0.000000
v -0.243687 3.116667 -0.000000
v -0.243687 3.116667 -0.000000
v -0.243687 3.116667 -0.000000
v -0.243687 3.116667 -0.000000
v -0.243687 3.116667 0.080357
v -0.192979 3.116667 0.065010
v -0.161639 3.116667 0.024831
v -0.161639 3.116667 -0.024832
v -0.192979 3.116667 -0.065011
v -0.243687 3.116667 -0.080357
v -0.294396 3.116667 -0.065011
v -0.325735 3.116667 -0.024832
v -0.325735 3.116667 0.024831
v -0.294396 3.116667 0.065010
v -0.243687 3.116667 0.080357
v -0.243687 0.193243 -0.000000
v -0.243687 0.193243 -0.000000
v -0.243687 0.193243 -0.000000
v -0.243687 0.193243 -0.000000
v -0.243687 0.193243 -0.000000
v -0.243687 0.193243 -0.000000
v -0.243687 0.193243 -0.000000
v -0.243687 0.193243 -0.000000
v -0.243687 0.193243 -0.000000
v -0.243687 0.193243 -0.000000
v -0.243687 0.193243 0.101786
v -0.179457 0.193243 0.082346
v -0.139760 0.193243 0.031454
v -0.139760 0.193243 -0.031454
v -0.179457 0.193243 -0.082346
v -0.243687 0.193243 -0.101786
v -0.307918 0.193243 -0.082346
v -0.347615 0.193243 -0.031454
v -0.347615 0.193243 0.031454
v -0.307918 0.193243 0.082346
v -0.243687 0.193243 0.101786
vn 0.0001 0.0073 1.0000
vn 0.0001 0.0074 1.0000
vn 0.5604 0.0075 0.8282
vn 0.5605 0.0075 0.8281
vn 0.9442 0.0078 0.3294
vn 0.9442 0.0078 0.3293
vn 0.9442 0.0078 -0.3293
vn 0.9442 0.0078 -0.3294
vn 0.5605 0.0075 -0.8281
vn 0.5604 0.0075 -0.8282
vn 0.0001 0.0073 -1.0000
vn -0.0001 0.0073 -1.0000
vn -0.0001 0.0074 -1.0000
vn -0.5604 0.0075 -0.8282
vn -0.5605 0.0075 -0.8281
vn -0.9442 0.0078 -0.3294
vn -0.9442 0.0078 -0.3293
vn -0.9442 0.0078 0.3293
vn -0.9442 0.0078 0.3294
vn -0.5605 0.0075 0.8281
vn -0.5604 0.0075 0.8282
vn -0.0001 0.0073 1.0000
vn -0.0000 1.0000 -0.0000
vn -0.0000 -1.0000 -0.0000
vt 0.080403 0.549130
vt 0.078106 0.015370
vt 0.090076 0.549109
vt 0.090359 0.015343
vt 0.097677 0.549130
vt 0.099987 0.015370
vt 0.148848 0.015343
vt 0.151451 0.549104
vt 0.139781 0.015367
vt 0.139965 0.549134
vt 0.132445 0.015343
vt 0.130673 0.549104
vt 0.044140 0.015343
vt 0.047420 0.549097
vt 0.036091 0.015381
vt 0.037224 0.549144
vt 0.026418 0.015381
vt 0.024972 0.549144
vt 0.018816 0.015343
vt 0.015343 0.549097
vt 0.184740 0.549134
vt 0.182137 0.015373
vt 0.193807 0.549110
vt 0.193622 0.015343
vt 0.201143 0.549134
vt 0.202914 0.015373
vt 0.234385 0.549106
vt 0.233600 0.015343
vt 0.242435 0.549106
vt 0.243797 0.015343
vt 0.934096 0.067443
vt 0.943354 0.070245
vt 0.934096 0.082114
vt 0.934985 0.415958
vt 0.944289 0.415958
vt 0.938650 0.430558
vt 0.942376 0.325195
vt 0.933308 0.325195
vt 0.937842 0.310215
vt 0.946151 0.674061
vt 0.936848 0.674061
vt 0.940513 0.659460
vt 0.944244 0.382470
vt 0.934985 0.385272
vt 0.934985 0.370600
vt 0.741748 0.252376
vt 0.732725 0.255861
vt 0.732725 0.240807
vt 0.941886 0.530353
vt 0.932862 0.528088
vt 0.941886 0.515300
vt 0.943164 0.030323
vt 0.934096 0.030323
vt 0.938630 0.015343
vt 0.933308 0.259823
vt 0.942332 0.257558
vt 0.942332 0.272611
vt 0.738622 0.612496
vt 0.747645 0.615981
vt 0.738622 0.627549
vt 0.015343 0.914823
vt 0.027070 0.911274
vt 0.027070 0.929857
vt 0.195923 0.912377
vt 0.207708 0.912377
vt 0.203065 0.930871
vt 0.927247 0.623691
vt 0.915761 0.623691
vt 0.921504 0.604716
vt 0.286267 0.935478
vt 0.274483 0.935478
vt 0.281625 0.916984
vt 0.703715 0.930301
vt 0.691988 0.926751
vt 0.703715 0.911717
vt 0.939109 0.214162
vt 0.926856 0.214162
vt 0.932240 0.196375
vt 0.922281 0.861771
vt 0.911288 0.857526
vt 0.922281 0.841946
vt 0.922879 0.911208
vt 0.911886 0.914535
vt 0.911886 0.894710
vt 0.078106 0.910708
vt 0.089099 0.906462
vt 0.089099 0.926287
vt 0.926856 0.143611
vt 0.939109 0.143611
vt 0.932240 0.161398
s 0
usemtl lamp_post
f 513/561/123 524/562/124 514/563/125
f 524/562/123 525/564/125 514/563/125
f 514/563/126 525/564/126 515/565/127
f 525/564/126 526/566/127 515/565/127
f 515/567/128 526/568/128 516/569/129
f 526/568/128 527/570/129 516/569/129
f 516/569/130 527/570/130 517/571/131
f 527/570/130 528/572/131 517/571/131
f 517/573/132 528/574/132 518/575/133
f 528/574/132 529/576/133 518/575/133
f 518/575/134 529/576/135 519/577/136
f 529/576/134 530/578/136 519/577/136
f 519/577/137 530/578/137 520/579/138
f 530/578/137 531/580/138 520/579/138
f 520/581/139 531/582/139 521/583/140
f 531/582/139 532/584/140 521/583/140
f 521/583/141 532/584/141 522/585/142
f 532/584/141 533/586/142 522/585/142
f 522/587/143 533/588/143 523/589/144
f 533/588/143 534/590/144 523/589/144
f 545/591/145 546/592/145 535/593/145
f 546/594/145 547/595/145 536/596/145
f 547/597/145 548/598/145 537/599/145
f 548/600/145 549/601/145 538/602/145
f 549/603/145 550/604/145 539/605/145
f 550/606/145 551/607/145 540/608/145
f 551/609/145 552/610/145 541/611/145
f 552/612/145 553/613/145 542/614/145
f 553/615/145 554/616/145 543/617/145
f 554/618/145 555/619/145 544/620/145
f 567/621/146 566/622/146 556/623/146
f 568/624/146 567/625/146 557/626/146
f 569/627/146 568/628/146 558/629/146
f 570/630/146 569/631/146 559/632/146
f 571/633/146 570/634/146 560/635/146
f 572/636/146 571/637/146 561/638/146
f 573/639/146 572/640/146 562/641/146
f 574/642/146 573/643/146 563/644/146
f 575/645/146 574/646/146 564/647/146
f 576/648/146 575/649/146 565/650/146
o pole_ring
v -0.243687 0.673874 0.117857
v -0.169315 0.673874 0.095348
v -0.123350 0.673874 0.036420
v -0.123350 0.673874 -0.036420
v -0.169315 0.673874 -0.095348
v -0.243687 0.673874 -0.117857
v -0.318060 0.673874 -0.095348
v -0.364025 0.673874 -0.036420
v -0.364025 0.673874 0.036420
v -0.318060 0.673874 0.095348
v -0.243687 0.673874 0.117857
v -0.243687 0.554955 0.117857
v -0.169315 0.554955 0.095348
v -0.123350 0.554955 0.036420
v -0.123350 0.554955 -0.036420
v -0.169315 0.554955 -0.095348
v -0.243687 0.554955 -0.117857
v -0.318060 0.554955 -0.095348
v -0.364025 0.554955 -0.036420
v -0.364025 0.554955 0.036420
v -0.318060 0.554955 0.095348
v -0.243687 0.554955 0.117857
v -0.243687 0.673874 -0.000000
v -0.243687 0.673874 -0.000000
v -0.243687 0.673874 -0.000000
v -0.243687 0.673874 -0.000000
v -0.243687 0.673874 -0.000000
v -0.243687 0.673874 -0.000000
v -0.243687 0.673874 -0.000000
v -0.243687 0.673874 -0.000000
v -0.243687 0.673874 -0.000000
v -0.243687 0.673874 -0.000000
v -0.243687 0.673874 0.117857
v -0.169315 0.673874 0.095348
v -0.123350 0.673874 0.036420
v -0.123350 0.673874 -0.036420
v -0.169315 0.673874 -0.095348
v -0.243687 0.673874 -0.117857
v -0.318060 0.673874 -0.095348
v -0.364025 0.673874 -0.036420
v -0.364025 0.673874 0.036420
v -0.318060 0.673874 0.095348
v -0.243687 0.673874 0.117857
v -0.243687 0.554955 -0.000000
v -0.243687 0.554955 -0.000000
v -0.243687 0.554955 -0.000000
v -0.243687 0.554955 -0.000000
v -0.243687 0.554955 -0.000000
v -0.243687 0.554955 -0.000000
v -0.243687 0.554955 -0.000000
v -0.243687 0.554955 -0.000000
v -0.243687 0.554955 -0.000000
v -0.243687 0.554955 -0.000000
v -0.243687 0.554955 0.117857
v -0.169315 0.554955 0.095348
v -0.123350 0.554955 0.036420
v -0.123350 0.554955 -0.036420
v -0.169315 0.554955 -0.095348
v -0.243687 0.554955 -0.117857
v -0.318060 0.554955 -0.095348
v -0.364025 0.554955 -0.036420
v -0.364025 0.554955 0.036420
v -0.318060 0.554955 0.095348
v -0.243687 0.554955 0.117857
vn -0.0000 -0.0000 1.0000
vn 0.5604 -0.0000 0.8282
vn 0.5605 -0.0000 0.8282
vn 0.9442 -0.0000 0.3294
vn 0.9442 -0.0000 0.3293
vn 0.9442 -0.0000 -0.3293
vn 0.9442 -0.0000 -0.3294
vn 0.5605 -0.0000 -0.8282
vn 0.5604 -0.0000 -0.8282
vn -0.0000 -0.0000 -1.0000
vn -0.5604 -0.0000 -0.8282
vn -0.5605 -0.0000 -0.8282
vn -0.9442 -0.0000 -0.3294
vn -0.9442 -0.0000 -0.3293
vn -0.9442 -0.0000 0.3293
vn -0.9442 -0.0000 0.3294
vn -0.5605 -0.0001 0.8282
vn -0.5605 -0.0000 0.8282
vn -0.5604 -0.0000 0.8282
vn -0.0000 1.0000 -0.0000
vn -0.0000 -1.0000 -0.0000
vt 0.582097 0.314578
vt 0.603809 0.314578
vt 0.582097 0.328765
vt 0.603809 0.328765
vt 0.582097 0.339914
vt 0.603809 0.339914
vt 0.593382 0.459717
vt 0.615094 0.459717
vt 0.593382 0.473016
vt 0.615094 0.473016
vt 0.593382 0.483775
vt 0.615094 0.483775
vt 0.747373 0.480847
vt 0.725661 0.480847
vt 0.747373 0.469041
vt 0.725661 0.469041
vt 0.747373 0.454854
vt 0.725661 0.454854
vt 0.747373 0.443705
vt 0.725661 0.443705
vt 0.841155 0.628774
vt 0.819443 0.628774
vt 0.841155 0.615475
vt 0.819443 0.615475
vt 0.841155 0.604716
vt 0.819443 0.604716
vt 0.824875 0.863658
vt 0.824875 0.841946
vt 0.836681 0.863658
vt 0.836681 0.841946
vt 0.867368 0.847057
vt 0.880602 0.841946
vt 0.880602 0.864024
vt 0.889765 0.015343
vt 0.903410 0.015343
vt 0.895140 0.036757
vt 0.902622 0.279529
vt 0.889323 0.279529
vt 0.895973 0.257558
vt 0.904299 0.392014
vt 0.890654 0.392014
vt 0.896030 0.370600
vt 0.885075 0.626794
vt 0.871841 0.621683
vt 0.885075 0.604716
vt 0.649020 0.905735
vt 0.634833 0.905735
vt 0.642787 0.885140
vt 0.287717 0.886298
vt 0.274483 0.882976
vt 0.287717 0.864220
vt 0.634833 0.835351
vt 0.647562 0.831499
vt 0.647562 0.854454
vt 0.882936 0.146933
vt 0.896170 0.143611
vt 0.896170 0.165689
vt 0.738732 0.886545
vt 0.752919 0.886545
vt 0.746686 0.907141
vt 0.738732 0.833781
vt 0.751967 0.838892
vt 0.738732 0.855859
vt 0.889765 0.067443
vt 0.903410 0.067443
vt 0.898035 0.088856
vt 0.508661 0.836963
vt 0.521389 0.833111
vt 0.521389 0.856066
vt 0.906162 0.680874
vt 0.892517 0.680874
vt 0.900787 0.659460
vt 0.865189 0.479502
vt 0.851955 0.484613
vt 0.851955 0.462535
vt 0.522848 0.907347
vt 0.508661 0.907347
vt 0.514894 0.886752
vt 0.896170 0.215131
vt 0.882936 0.218453
vt 0.882936 0.196375
vt 0.902622 0.332186
vt 0.889323 0.332186
vt 0.895973 0.310215
vt 0.888942 0.515300
vt 0.902176 0.518622
vt 0.888942 0.537377
vt 0.895876 0.462535
vt 0.910063 0.462535
vt 0.902109 0.483131
s 0
usemtl lamp_post
f 577/651/147 588/652/147 578/653/148
f 588/652/147 589/654/148 578/653/148
f 578/653/149 589/654/149 579/655/150
f 589/654/149 590/656/150 579/655/150
f 579/657/151 590/658/151 580/659/152
f 590/658/151 591/660/152 580/659/152
f 580/659/153 591/660/153 581/661/154
f 591/660/153 592/662/154 581/661/154
f 581/663/155 592/664/155 582/665/156
f 592/664/155 593/666/156 582/665/156
f 582/665/156 593/666/156 583/667/157
f 593/666/156 594/668/157 583/667/157
f 583/667/158 594/668/158 584/669/159
f 594/668/158 595/670/159 584/669/159
f 584/671/160 595/672/160 585/673/161
f 595/672/160 596/674/161 585/673/161
f 585/673/162 596/674/162 586/675/163
f 596/674/162 597/676/164 586/675/164
f 586/677/165 597/678/165 587/679/147
f 597/678/165 598/680/147 587/679/147
f 609/681/166 610/682/166 599/683/166
f 610/684/166 611/685/166 600/686/166
f 611/687/166 612/688/166 601/689/166
f 612/690/166 613/691/166 602/692/166
f 613/693/166 614/694/166 603/695/166
f 614/696/166 615/697/166 604/698/166
f 615/699/166 616/700/166 605/701/166
f 616/702/166 617/703/166 606/704/166
f 617/705/166 618/706/166 607/707/166
f 618/708/166 619/709/166 608/710/166
f 631/711/167 630/712/167 620/713/167
f 632/714/167 631/715/167 621/716/167
f 633/717/167 632/718/167 622/719/167
f 634/720/167 633/721/167 623/722/167
f 635/723/167 634/724/167 624/725/167
f 636/726/167 635/727/167 625/728/167
f 637/729/167 636/730/167 626/731/167
f 638/732/167 637/733/167 627/734/167
f 639/735/167 638/736/167 628/737/167
f 640/738/167 639/739/167 629/740/167
