# Blender 4.2.23 LTS
# www.blender.org
mtllib locker.mtl
o cabinet
v -0.750000 0.190000 -0.410440
v -0.750000 2.570000 0.360989
v -0.750000 2.570000 -0.410440
v -0.750000 0.190000 -0.410440
v -0.750000 0.190000 0.360989
v -0.750000 2.570000 0.360989
v 0.750000 0.190000 -0.410440
v 0.750000 2.570000 -0.410440
v 0.750000 2.570000 0.360989
v 0.750000 0.190000 -0.410440
v 0.750000 2.570000 0.360989
v 0.750000 0.190000 0.360989
v -0.720000 0.160000 -0.410440
v 0.720000 0.160000 -0.410440
v 0.720000 0.160000 0.360989
v -0.720000 0.160000 -0.410440
v 0.720000 0.160000 0.360989
v -0.720000 0.160000 0.360989
v -0.720000 2.600000 -0.410440
v 0.720000 2.600000 0.360989
v 0.720000 2.600000 -0.410440
v -0.720000 2.600000 -0.410440
v -0.720000 2.600000 0.360989
v 0.720000 2.600000 0.360989
v -0.720000 0.190000 -0.440110
v 0.720000 2.570000 -0.440110
v 0.720000 0.190000 -0.440110
v -0.720000 0.190000 -0.440110
v -0.720000 2.570000 -0.440110
v 0.720000 2.570000 -0.440110
v -0.720000 0.190000 0.390659
v 0.720000 0.190000 0.390659
v 0.720000 2.570000 0.390659
v -0.720000 0.190000 0.390659
v 0.720000 2.570000 0.390659
v -0.720000 2.570000 0.390659
v -0.750000 0.190000 -0.410440
v -0.720000 0.160000 -0.410440
v -0.720000 0.160000 0.360989
v -0.750000 0.190000 -0.410440
v -0.720000 0.160000 0.360989
v -0.750000 0.190000 0.360989
v -0.750000 2.570000 -0.410440
v -0.720000 2.600000 0.360989
v -0.720000 2.600000 -0.410440
v -0.750000 2.570000 -0.410440
v -0.750000 2.570000 0.360989
v -0.720000 2.600000 0.360989
v 0.750000 0.190000 -0.410440
v 0.720000 0.160000 0.360989
v 0.720000 0.160000 -0.410440
v 0.750000 0.190000 -0.410440
v 0.750000 0.190000 0.360989
v 0.720000 0.160000 0.360989
v 0.750000 2.570000 -0.410440
v 0.720000 2.600000 -0.410440
v 0.720000 2.600000 0.360989
v 0.750000 2.570000 -0.410440
v 0.720000 2.600000 0.360989
v 0.750000 2.570000 0.360989
v -0.750000 0.190000 -0.410440
v -0.720000 2.570000 -0.440110
v -0.720000 0.190000 -0.440110
v -0.750000 0.190000 -0.410440
v -0.750000 2.570000 -0.410440
v -0.720000 2.570000 -0.440110
v -0.750000 0.190000 0.360989
v -0.720000 0.190000 0.390659
v -0.720000 2.570000 0.390659
v -0.750000 0.190000 0.360989
v -0.720000 2.570000 0.390659
v -0.750000 2.570000 0.360989
v 0.750000 0.190000 -0.410440
v 0.720000 0.190000 -0.440110
v 0.720000 2.570000 -0.440110
v 0.750000 0.190000 -0.410440
v 0.720000 2.570000 -0.440110
v 0.750000 2.570000 -0.410440
v 0.750000 0.190000 0.360989
v 0.720000 2.570000 0.390659
v 0.720000 0.190000 0.390659
v 0.750000 0.190000 0.360989
v 0.750000 2.570000 0.360989
v 0.720000 2.570000 0.390659
v -0.720000 0.160000 -0.410440
v -0.720000 0.190000 -0.440110
v 0.720000 0.190000 -0.440110
v -0.720000 0.160000 -0.410440
v 0.720000 0.190000 -0.440110
v 0.720000 0.160000 -0.410440
v -0.720000 0.160000 0.360989
v 0.720000 0.190000 0.390659
v -0.720000 0.190000 0.390659
v -0.720000 0.160000 0.360989
v 0.720000 0.160000 0.360989
v 0.720000 0.190000 0.390659
v -0.720000 2.600000 -0.410440
v 0.720000 2.570000 -0.440110
v -0.720000 2.570000 -0.440110
v -0.720000 2.600000 -0.410440
v 0.720000 2.600000 -0.410440
v 0.720000 2.570000 -0.440110
v -0.720000 2.600000 0.360989
v -0.720000 2.570000 0.390659
v 0.720000 2.570000 0.390659
v -0.720000 2.600000 0.360989
v 0.720000 2.570000 0.390659
v 0.720000 2.600000 0.360989
v -0.750000 0.190000 -0.410440
v -0.720000 0.190000 -0.440110
v -0.720000 0.160000 -0.410440
v -0.750000 0.190000 0.360989
v -0.720000 0.160000 0.360989
v -0.720000 0.190000 0.390659
v -0.750000 2.570000 -0.410440
v -0.720000 2.600000 -0.410440
v -0.720000 2.570000 -0.440110
v -0.750000 2.570000 0.360989
v -0.720000 2.570000 0.390659
v -0.720000 2.600000 0.360989
v 0.750000 0.190000 -0.410440
v 0.720000 0.160000 -0.410440
v 0.720000 0.190000 -0.440110
v 0.750000 0.190000 0.360989
v 0.720000 0.190000 0.390659
v 0.720000 0.160000 0.360989
v 0.750000 2.570000 -0.410440
v 0.720000 2.570000 -0.440110
v 0.720000 2.600000 -0.410440
v 0.750000 2.570000 0.360989
v 0.720000 2.600000 0.360989
v 0.720000 2.570000 0.390659
vn -1.0000 -0.0000 -0.0000
vn 1.0000 -0.0000 -0.0000
vn -0.0000 -1.0000 -0.0000
vn -0.0000 1.0000 -0.0000
vn -0.0000 -0.0000 -1.0000
vn -0.0000 -0.0000 1.0000
vn -0.7071 -0.7071 -0.0000
vn -0.7071 0.7071 -0.0000
vn 0.7071 -0.7071 -0.0000
vn 0.7071 0.7071 -0.0000
vn -0.7032 -0.0000 -0.7110
vn -0.7032 -0.0000 0.7110
vn 0.7032 -0.0000 -0.7110
vn 0.7032 -0.0000 0.7110
vn -0.0000 -0.7032 -0.7110
vn -0.0000 -0.7032 0.7110
vn -0.0000 0.7032 -0.7110
vn -0.0000 0.7032 0.7110
vn -0.5752 -0.5752 -0.5816
vn -0.5752 -0.5752 0.5816
vn -0.5752 0.5752 -0.5816
vn -0.5752 0.5752 0.5816
vn 0.5752 -0.5752 -0.5816
vn 0.5752 -0.5752 0.5816
vn 0.5752 0.5752 -0.5816
vn 0.5752 0.5752 0.5816
vt 0.315161 0.128940
vt 0.315161 0.012976
vt 0.359088 0.033112
vt 0.289209 0.128940
vt 0.245282 0.108805
vt 0.289209 0.012976
vt 0.359088 0.270856
vt 0.315161 0.175028
vt 0.359088 0.154893
vt 0.245282 0.270856
vt 0.245282 0.154893
vt 0.289209 0.250721
vt 0.509084 0.076758
vt 0.509084 0.012976
vt 0.557405 0.012976
vt 0.557405 0.102710
vt 0.509084 0.166491
vt 0.509084 0.102710
vt 0.509084 0.192444
vt 0.557405 0.256225
vt 0.509084 0.256225
vt 0.557405 0.345959
vt 0.509084 0.345959
vt 0.509084 0.282178
vt 0.219330 0.012976
vt 0.129129 0.162058
vt 0.129129 0.012976
vt 0.103177 0.188010
vt 0.103177 0.337091
vt 0.012976 0.337091
vt 0.129129 0.188010
vt 0.219330 0.188010
vt 0.219330 0.337091
vt 0.012976 0.012976
vt 0.103177 0.162058
vt 0.012976 0.162058
vt 0.290548 0.858987
vt 0.287890 0.858987
vt 0.287890 0.810665
vt 0.319158 0.858987
vt 0.316501 0.810665
vt 0.319158 0.810665
vt 0.345111 0.858987
vt 0.347768 0.810665
vt 0.347768 0.858987
vt 0.373721 0.858987
vt 0.373721 0.810665
vt 0.376378 0.810665
vt 0.402331 0.858987
vt 0.404988 0.810665
vt 0.404988 0.858987
vt 0.430941 0.858987
vt 0.430941 0.810665
vt 0.433598 0.810665
vt 0.462208 0.858987
vt 0.459551 0.858987
vt 0.459551 0.810665
vt 0.490818 0.858987
vt 0.488161 0.810665
vt 0.490818 0.810665
vt 0.585237 0.188010
vt 0.583358 0.337091
vt 0.583358 0.188010
vt 0.585237 0.363044
vt 0.585237 0.512125
vt 0.583358 0.512125
vt 0.611190 0.012976
vt 0.613069 0.012976
vt 0.613069 0.162058
vt 0.509084 0.371912
vt 0.510963 0.520993
vt 0.509084 0.520993
vt 0.611190 0.188010
vt 0.613069 0.188010
vt 0.613069 0.337091
vt 0.583358 0.012976
vt 0.585237 0.162058
vt 0.583358 0.162058
vt 0.613069 0.363044
vt 0.611190 0.512125
vt 0.611190 0.363044
vt 0.640900 0.012976
vt 0.640900 0.162058
vt 0.639021 0.162058
vt 0.668732 0.103177
vt 0.666853 0.103177
vt 0.666853 0.012976
vt 0.666853 0.245282
vt 0.668732 0.335483
vt 0.666853 0.335483
vt 0.668732 0.361435
vt 0.666853 0.451636
vt 0.666853 0.361435
vt 0.666853 0.219330
vt 0.666853 0.129129
vt 0.668732 0.129129
vt 0.668732 0.477588
vt 0.666853 0.567789
vt 0.666853 0.477588
vt 0.666853 0.683942
vt 0.666853 0.593741
vt 0.668732 0.593741
vt 0.696564 0.103177
vt 0.694685 0.103177
vt 0.694685 0.012976
vt 0.694685 0.129129
vt 0.696564 0.219330
vt 0.694685 0.219330
vt 0.957962 0.653109
vt 0.959820 0.654437
vt 0.957962 0.655766
vt 0.015138 0.983754
vt 0.012976 0.982209
vt 0.015138 0.981470
vt 0.069205 0.983015
vt 0.071367 0.981470
vt 0.071367 0.983754
vt 0.957962 0.882129
vt 0.957962 0.879844
vt 0.960124 0.880583
vt 0.957962 0.684376
vt 0.957962 0.681719
vt 0.959820 0.683047
vt 0.957962 0.938603
vt 0.957962 0.936319
vt 0.960124 0.937058
vt 0.043252 0.983015
vt 0.041091 0.983754
vt 0.041091 0.981470
vt 0.960124 0.910366
vt 0.957962 0.908820
vt 0.960124 0.908081
s 0
usemtl locker
f 1/1/1 2/2/1 3/3/1
f 4/4/1 5/5/1 6/6/1
f 7/7/2 8/8/2 9/9/2
f 10/10/2 11/11/2 12/12/2
f 13/13/3 14/14/3 15/15/3
f 16/16/3 17/17/3 18/18/3
f 19/19/4 20/20/4 21/21/4
f 22/22/4 23/23/4 24/24/4
f 25/25/5 26/26/5 27/27/5
f 28/28/5 29/29/5 30/30/5
f 31/31/6 32/32/6 33/33/6
f 34/34/6 35/35/6 36/36/6
f 37/37/7 38/38/7 39/39/7
f 40/40/7 41/41/7 42/42/7
f 43/43/8 44/44/8 45/45/8
f 46/46/8 47/47/8 48/48/8
f 49/49/9 50/50/9 51/51/9
f 52/52/9 53/53/9 54/54/9
f 55/55/10 56/56/10 57/57/10
f 58/58/10 59/59/10 60/60/10
f 61/61/11 62/62/11 63/63/11
f 64/64/11 65/65/11 66/66/11
f 67/67/12 68/68/12 69/69/12
f 70/70/12 71/71/12 72/72/12
f 73/73/13 74/74/13 75/75/13
f 76/76/13 77/77/13 78/78/13
f 79/79/14 80/80/14 81/81/14
f 82/82/14 83/83/14 84/84/14
f 85/85/15 86/86/15 87/87/15
f 88/88/15 89/89/15 90/90/15
f 91/91/16 92/92/16 93/93/16
f 94/94/16 95/95/16 96/96/16
f 97/97/17 98/98/17 99/99/17
f 100/100/17 101/101/17 102/102/17
f 103/103/18 104/104/18 105/105/18
f 106/106/18 107/107/18 108/108/18
f 109/109/19 110/110/19 111/111/19
f 112/112/20 113/113/20 114/114/20
f 115/115/21 116/116/21 117/117/21
f 118/118/22 119/119/22 120/120/22
f 121/121/23 122/122/23 123/123/23
f 124/124/24 125/125/24 126/126/24
f 127/127/25 128/128/25 129/129/25
f 130/130/26 131/131/26 132/132/26
o door_0
v -0.695000 0.315000 0.395604
v -0.695000 2.445000 0.405494
v -0.695000 2.445000 0.395604
v -0.695000 0.315000 0.395604
v -0.695000 0.315000 0.405494
v -0.695000 2.445000 0.405494
v -0.265000 0.315000 0.395604
v -0.265000 2.445000 0.395604
v -0.265000 2.445000 0.405494
v -0.265000 0.315000 0.395604
v -0.265000 2.445000 0.405494
v -0.265000 0.315000 0.405494
v -0.680000 0.300000 0.395604
v -0.280000 0.300000 0.395604
v -0.280000 0.300000 0.405494
v -0.680000 0.300000 0.395604
v -0.280000 0.300000 0.405494
v -0.680000 0.300000 0.405494
v -0.680000 2.460000 0.395604
v -0.280000 2.460000 0.405494
v -0.280000 2.460000 0.395604
v -0.680000 2.460000 0.395604
v -0.680000 2.460000 0.405494
v -0.280000 2.460000 0.405494
v -0.680000 0.315000 0.380769
v -0.280000 2.445000 0.380769
v -0.280000 0.315000 0.380769
v -0.680000 0.315000 0.380769
v -0.680000 2.445000 0.380769
v -0.280000 2.445000 0.380769
v -0.680000 0.315000 0.420330
v -0.280000 0.315000 0.420330
v -0.280000 2.445000 0.420330
v -0.680000 0.315000 0.420330
v -0.280000 2.445000 0.420330
v -0.680000 2.445000 0.420330
v -0.695000 0.315000 0.395604
v -0.680000 0.300000 0.395604
v -0.680000 0.300000 0.405494
v -0.695000 0.315000 0.395604
v -0.680000 0.300000 0.405494
v -0.695000 0.315000 0.405494
v -0.695000 2.445000 0.395604
v -0.680000 2.460000 0.405494
v -0.680000 2.460000 0.395604
v -0.695000 2.445000 0.395604
v -0.695000 2.445000 0.405494
v -0.680000 2.460000 0.405494
v -0.265000 0.315000 0.395604
v -0.280000 0.300000 0.405494
v -0.280000 0.300000 0.395604
v -0.265000 0.315000 0.395604
v -0.265000 0.315000 0.405494
v -0.280000 0.300000 0.405494
v -0.265000 2.445000 0.395604
v -0.280000 2.460000 0.395604
v -0.280000 2.460000 0.405494
v -0.265000 2.445000 0.395604
v -0.280000 2.460000 0.405494
v -0.265000 2.445000 0.405494
v -0.695000 0.315000 0.395604
v -0.680000 2.445000 0.380769
v -0.680000 0.315000 0.380769
v -0.695000 0.315000 0.395604
v -0.695000 2.445000 0.395604
v -0.680000 2.445000 0.380769
v -0.695000 0.315000 0.405494
v -0.680000 0.315000 0.420330
v -0.680000 2.445000 0.420330
v -0.695000 0.315000 0.405494
v -0.680000 2.445000 0.420330
v -0.695000 2.445000 0.405494
v -0.265000 0.315000 0.395604
v -0.280000 0.315000 0.380769
v -0.280000 2.445000 0.380769
v -0.265000 0.315000 0.395604
v -0.280000 2.445000 0.380769
v -0.265000 2.445000 0.395604
v -0.265000 0.315000 0.405494
v -0.280000 2.445000 0.420330
v -0.280000 0.315000 0.420330
v -0.265000 0.315000 0.405494
v -0.265000 2.445000 0.405494
v -0.280000 2.445000 0.420330
v -0.680000 0.300000 0.395604
v -0.680000 0.315000 0.380769
v -0.280000 0.315000 0.380769
v -0.680000 0.300000 0.395604
v -0.280000 0.315000 0.380769
v -0.280000 0.300000 0.395604
v -0.680000 0.300000 0.405494
v -0.280000 0.315000 0.420330
v -0.680000 0.315000 0.420330
v -0.680000 0.300000 0.405494
v -0.280000 0.300000 0.405494
v -0.280000 0.315000 0.420330
v -0.680000 2.460000 0.395604
v -0.280000 2.445000 0.380769
v -0.680000 2.445000 0.380769
v -0.680000 2.460000 0.395604
v -0.280000 2.460000 0.395604
v -0.280000 2.445000 0.380769
v -0.680000 2.460000 0.405494
v -0.680000 2.445000 0.420330
v -0.280000 2.445000 0.420330
v -0.680000 2.460000 0.405494
v -0.280000 2.445000 0.420330
v -0.280000 2.460000 0.405494
v -0.695000 0.315000 0.395604
v -0.680000 0.315000 0.380769
v -0.680000 0.300000 0.395604
v -0.695000 0.315000 0.405494
v -0.680000 0.300000 0.405494
v -0.680000 0.315000 0.420330
v -0.695000 2.445000 0.395604
v -0.680000 2.460000 0.395604
v -0.680000 2.445000 0.380769
v -0.695000 2.445000 0.405494
v -0.680000 2.445000 0.420330
v -0.680000 2.460000 0.405494
v -0.265000 0.315000 0.395604
v -0.280000 0.300000 0.395604
v -0.280000 0.315000 0.380769
v -0.265000 0.315000 0.405494
v -0.280000 0.315000 0.420330
v -0.280000 0.300000 0.405494
v -0.265000 2.445000 0.395604
v -0.280000 2.445000 0.380769
v -0.280000 2.460000 0.395604
v -0.265000 2.445000 0.405494
v -0.280000 2.460000 0.405494
v -0.280000 2.445000 0.420330
vn -1.0000 -0.0000 -0.0000
vn 1.0000 -0.0000 -0.0000
vn -0.0000 -1.0000 -0.0000
vn -0.0000 1.0000 -0.0000
vn -0.0000 -0.0000 -1.0000
vn -0.0000 -0.0000 1.0000
vn -0.7071 -0.7071 -0.0000
vn -0.7071 0.7071 -0.0000
vn 0.7071 -0.7071 -0.0000
vn 0.7071 0.7071 -0.0000
vn -0.7032 -0.0000 -0.7110
vn -0.7032 -0.0000 0.7110
vn 0.7032 -0.0000 -0.7110
vn 0.7032 -0.0000 0.7110
vn -0.0000 -0.7032 -0.7110
vn -0.0000 -0.7032 0.7110
vn -0.0000 0.7032 -0.7110
vn -0.0000 0.7032 0.7110
vn -0.5752 -0.5752 -0.5816
vn -0.5752 -0.5752 0.5816
vn -0.5752 0.5752 -0.5816
vn -0.5752 0.5752 0.5816
vn 0.5752 -0.5752 -0.5816
vn 0.5752 -0.5752 0.5816
vn 0.5752 0.5752 -0.5816
vn 0.5752 0.5752 0.5816
vt 0.722516 0.477588
vt 0.723136 0.571931
vt 0.722516 0.571931
vt 0.750947 0.107320
vt 0.750327 0.107320
vt 0.750327 0.012976
vt 0.776899 0.107319
vt 0.776899 0.012976
vt 0.777519 0.012976
vt 0.750947 0.494159
vt 0.750327 0.588503
vt 0.750327 0.494159
vt 0.925745 0.516432
vt 0.925745 0.498715
vt 0.926365 0.498715
vt 0.926365 0.542385
vt 0.925746 0.560102
vt 0.925746 0.542385
vt 0.925746 0.236697
vt 0.926365 0.254415
vt 0.925746 0.254415
vt 0.926365 0.298084
vt 0.925746 0.298084
vt 0.925746 0.280367
vt 0.038032 0.491916
vt 0.012976 0.625337
vt 0.012976 0.491916
vt 0.089040 0.491916
vt 0.089040 0.625337
vt 0.063984 0.625337
vt 0.114993 0.491916
vt 0.140048 0.491916
vt 0.140048 0.625337
vt 0.458076 0.012976
vt 0.483131 0.146398
vt 0.458076 0.146398
vt 0.986646 0.041861
vt 0.986084 0.040657
vt 0.986646 0.040395
vt 0.986704 0.395738
vt 0.986084 0.397066
vt 0.986084 0.395738
vt 0.986084 0.232050
vt 0.986704 0.233379
vt 0.986084 0.233379
vt 0.986704 0.260660
vt 0.986084 0.260660
vt 0.986084 0.259331
vt 0.857733 0.982936
vt 0.857733 0.981470
vt 0.858294 0.981731
vt 0.884808 0.982936
vt 0.884247 0.982674
vt 0.884808 0.981470
vt 0.986646 0.069279
vt 0.986084 0.068075
vt 0.986646 0.067813
vt 0.986084 0.096698
vt 0.986084 0.095232
vt 0.986646 0.096436
vt 0.121484 0.651290
vt 0.120545 0.784712
vt 0.120545 0.651290
vt 0.148376 0.651290
vt 0.148376 0.784712
vt 0.147437 0.784712
vt 0.174329 0.651290
vt 0.175268 0.651290
vt 0.175268 0.784712
vt 0.012976 0.651290
vt 0.013916 0.784712
vt 0.012976 0.784712
vt 0.201221 0.651290
vt 0.202160 0.651290
vt 0.202160 0.784712
vt 0.039868 0.651290
vt 0.040808 0.784712
vt 0.039868 0.784712
vt 0.229052 0.651290
vt 0.228113 0.784712
vt 0.228113 0.651290
vt 0.255944 0.651290
vt 0.255944 0.784712
vt 0.255005 0.784712
vt 0.869143 0.523315
vt 0.870082 0.523350
vt 0.869143 0.548389
vt 0.870082 0.574341
vt 0.870082 0.599414
vt 0.869143 0.599379
vt 0.870082 0.625367
vt 0.870082 0.650440
vt 0.869143 0.625402
vt 0.869143 0.676393
vt 0.870082 0.701431
vt 0.869143 0.701466
vt 0.899793 0.268105
vt 0.898853 0.293161
vt 0.898853 0.268105
vt 0.898853 0.344169
vt 0.898853 0.319113
vt 0.899793 0.319113
vt 0.899793 0.395177
vt 0.898853 0.395177
vt 0.898853 0.370122
vt 0.898853 0.421130
vt 0.899793 0.446185
vt 0.898853 0.446185
vt 0.399378 0.981470
vt 0.400307 0.982134
vt 0.399378 0.982798
vt 0.426260 0.982799
vt 0.426260 0.981470
vt 0.427189 0.982134
vt 0.641465 0.982243
vt 0.642546 0.981470
vt 0.642546 0.982612
vt 0.318733 0.981470
vt 0.319662 0.982134
vt 0.318733 0.982798
vt 0.668499 0.981470
vt 0.669580 0.982242
vt 0.668499 0.982612
vt 0.776632 0.981839
vt 0.777713 0.981470
vt 0.777713 0.982612
vt 0.804747 0.981470
vt 0.804747 0.982612
vt 0.803666 0.982243
vt 0.506905 0.982798
vt 0.506905 0.981470
vt 0.507834 0.982134
s 0
usemtl locker
f 133/133/27 134/134/27 135/135/27
f 136/136/27 137/137/27 138/138/27
f 139/139/28 140/140/28 141/141/28
f 142/142/28 143/143/28 144/144/28
f 145/145/29 146/146/29 147/147/29
f 148/148/29 149/149/29 150/150/29
f 151/151/30 152/152/30 153/153/30
f 154/154/30 155/155/30 156/156/30
f 157/157/31 158/158/31 159/159/31
f 160/160/31 161/161/31 162/162/31
f 163/163/32 164/164/32 165/165/32
f 166/166/32 167/167/32 168/168/32
f 169/169/33 170/170/33 171/171/33
f 172/172/33 173/173/33 174/174/33
f 175/175/34 176/176/34 177/177/34
f 178/178/34 179/179/34 180/180/34
f 181/181/35 182/182/35 183/183/35
f 184/184/35 185/185/35 186/186/35
f 187/187/36 188/188/36 189/189/36
f 190/190/36 191/191/36 192/192/36
f 193/193/37 194/194/37 195/195/37
f 196/196/37 197/197/37 198/198/37
f 199/199/38 200/200/38 201/201/38
f 202/202/38 203/203/38 204/204/38
f 205/205/39 206/206/39 207/207/39
f 208/208/39 209/209/39 210/210/39
f 211/211/40 212/212/40 213/213/40
f 214/214/40 215/215/40 216/216/40
f 217/217/41 218/218/41 219/219/41
f 220/220/41 221/221/41 222/222/41
f 223/223/42 224/224/42 225/225/42
f 226/226/42 227/227/42 228/228/42
f 229/229/43 230/230/43 231/231/43
f 232/232/43 233/233/43 234/234/43
f 235/235/44 236/236/44 237/237/44
f 238/238/44 239/239/44 240/240/44
f 241/241/45 242/242/45 243/243/45
f 244/244/46 245/245/46 246/246/46
f 247/247/47 248/248/47 249/249/47
f 250/250/48 251/251/48 252/252/48
f 253/253/49 254/254/49 255/255/49
f 256/256/50 257/257/50 258/258/50
f 259/259/51 260/260/51 261/261/51
f 262/262/52 263/263/52 264/264/52
o door_1
v -0.215000 0.315000 0.395604
v -0.215000 2.445000 0.405494
v -0.215000 2.445000 0.395604
v -0.215000 0.315000 0.395604
v -0.215000 0.315000 0.405494
v -0.215000 2.445000 0.405494
v 0.215000 0.315000 0.395604
v 0.215000 2.445000 0.395604
v 0.215000 2.445000 0.405494
v 0.215000 0.315000 0.395604
v 0.215000 2.445000 0.405494
v 0.215000 0.315000 0.405494
v -0.200000 0.300000 0.395604
v 0.200000 0.300000 0.395604
v 0.200000 0.300000 0.405494
v -0.200000 0.300000 0.395604
v 0.200000 0.300000 0.405494
v -0.200000 0.300000 0.405494
v -0.200000 2.460000 0.395604
v 0.200000 2.460000 0.405494
v 0.200000 2.460000 0.395604
v -0.200000 2.460000 0.395604
v -0.200000 2.460000 0.405494
v 0.200000 2.460000 0.405494
v -0.200000 0.315000 0.380769
v 0.200000 2.445000 0.380769
v 0.200000 0.315000 0.380769
v -0.200000 0.315000 0.380769
v -0.200000 2.445000 0.380769
v 0.200000 2.445000 0.380769
v -0.200000 0.315000 0.420330
v 0.200000 0.315000 0.420330
v 0.200000 2.445000 0.420330
v -0.200000 0.315000 0.420330
v 0.200000 2.445000 0.420330
v -0.200000 2.445000 0.420330
v -0.215000 0.315000 0.395604
v -0.200000 0.300000 0.395604
v -0.200000 0.300000 0.405494
v -0.215000 0.315000 0.395604
v -0.200000 0.300000 0.405494
v -0.215000 0.315000 0.405494
v -0.215000 2.445000 0.395604
v -0.200000 2.460000 0.405494
v -0.200000 2.460000 0.395604
v -0.215000 2.445000 0.395604
v -0.215000 2.445000 0.405494
v -0.200000 2.460000 0.405494
v 0.215000 0.315000 0.395604
v 0.200000 0.300000 0.405494
v 0.200000 0.300000 0.395604
v 0.215000 0.315000 0.395604
v 0.215000 0.315000 0.405494
v 0.200000 0.300000 0.405494
v 0.215000 2.445000 0.395604
v 0.200000 2.460000 0.395604
v 0.200000 2.460000 0.405494
v 0.215000 2.445000 0.395604
v 0.200000 2.460000 0.405494
v 0.215000 2.445000 0.405494
v -0.215000 0.315000 0.395604
v -0.200000 2.445000 0.380769
v -0.200000 0.315000 0.380769
v -0.215000 0.315000 0.395604
v -0.215000 2.445000 0.395604
v -0.200000 2.445000 0.380769
v -0.215000 0.315000 0.405494
v -0.200000 0.315000 0.420330
v -0.200000 2.445000 0.420330
v -0.215000 0.315000 0.405494
v -0.200000 2.445000 0.420330
v -0.215000 2.445000 0.405494
v 0.215000 0.315000 0.395604
v 0.200000 0.315000 0.380769
v 0.200000 2.445000 0.380769
v 0.215000 0.315000 0.395604
v 0.200000 2.445000 0.380769
v 0.215000 2.445000 0.395604
v 0.215000 0.315000 0.405494
v 0.200000 2.445000 0.420330
v 0.200000 0.315000 0.420330
v 0.215000 0.315000 0.405494
v 0.215000 2.445000 0.405494
v 0.200000 2.445000 0.420330
v -0.200000 0.300000 0.395604
v -0.200000 0.315000 0.380769
v 0.200000 0.315000 0.380769
v -0.200000 0.300000 0.395604
v 0.200000 0.315000 0.380769
v 0.200000 0.300000 0.395604
v -0.200000 0.300000 0.405494
v 0.200000 0.315000 0.420330
v -0.200000 0.315000 0.420330
v -0.200000 0.300000 0.405494
v 0.200000 0.300000 0.405494
v 0.200000 0.315000 0.420330
v -0.200000 2.460000 0.395604
v 0.200000 2.445000 0.380769
v -0.200000 2.445000 0.380769
v -0.200000 2.460000 0.395604
v 0.200000 2.460000 0.395604
v 0.200000 2.445000 0.380769
v -0.200000 2.460000 0.405494
v -0.200000 2.445000 0.420330
v 0.200000 2.445000 0.420330
v -0.200000 2.460000 0.405494
v 0.200000 2.445000 0.420330
v 0.200000 2.460000 0.405494
v -0.215000 0.315000 0.395604
v -0.200000 0.315000 0.380769
v -0.200000 0.300000 0.395604
v -0.215000 0.315000 0.405494
v -0.200000 0.300000 0.405494
v -0.200000 0.315000 0.420330
v -0.215000 2.445000 0.395604
v -0.200000 2.460000 0.395604
v -0.200000 2.445000 0.380769
v -0.215000 2.445000 0.405494
v -0.200000 2.445000 0.420330
v -0.200000 2.460000 0.405494
v 0.215000 0.315000 0.395604
v 0.200000 0.300000 0.395604
v 0.200000 0.315000 0.380769
v 0.215000 0.315000 0.405494
v 0.200000 0.315000 0.420330
v 0.200000 0.300000 0.405494
v 0.215000 2.445000 0.395604
v 0.200000 2.445000 0.380769
v 0.200000 2.460000 0.395604
v 0.215000 2.445000 0.405494
v 0.200000 2.460000 0.405494
v 0.200000 2.445000 0.420330
vn -1.0000 -0.0000 -0.0000
vn 1.0000 -0.0000 -0.0000
vn -0.0000 -1.0000 -0.0000
vn -0.0000 1.0000 -0.0000
vn -0.0000 -0.0000 -1.0000
vn -0.0000 -0.0000 1.0000
vn -0.7071 -0.7071 -0.0000
vn -0.7071 0.7071 -0.0000
vn 0.7071 -0.7071 -0.0000
vn 0.7071 0.7071 -0.0000
vn -0.7032 -0.0000 -0.7110
vn -0.7032 -0.0000 0.7110
vn 0.7032 -0.0000 -0.7110
vn 0.7032 -0.0000 0.7110
vn -0.0000 -0.7032 -0.7110
vn -0.0000 -0.7032 0.7110
vn -0.0000 0.7032 -0.7110
vn -0.0000 0.7032 0.7110
vn -0.5752 -0.5752 -0.5816
vn -0.5752 -0.5752 0.5816
vn -0.5752 0.5752 -0.5816
vn -0.5752 0.5752 0.5816
vn 0.5752 -0.5752 -0.5816
vn 0.5752 -0.5752 0.5816
vn 0.5752 0.5752 -0.5816
vn 0.5752 0.5752 0.5816
vt 0.604602 0.784713
vt 0.604602 0.651290
vt 0.605221 0.651293
vt 0.631793 0.784713
vt 0.631173 0.784710
vt 0.631793 0.651290
vt 0.750327 0.468207
vt 0.750327 0.373864
vt 0.750947 0.373864
vt 0.750947 0.253568
vt 0.750327 0.347911
vt 0.750327 0.253568
vt 0.925745 0.734780
vt 0.925745 0.717063
vt 0.926365 0.717063
vt 0.926365 0.673393
vt 0.925746 0.691110
vt 0.925746 0.673393
vt 0.925746 0.411376
vt 0.926365 0.429093
vt 0.925746 0.429093
vt 0.926365 0.472763
vt 0.925745 0.472763
vt 0.925745 0.455046
vt 0.191056 0.491916
vt 0.166001 0.625337
vt 0.166001 0.491916
vt 0.242065 0.491916
vt 0.242065 0.625337
vt 0.217009 0.625337
vt 0.268017 0.491916
vt 0.293073 0.491916
vt 0.293073 0.625337
vt 0.458076 0.172350
vt 0.483131 0.305772
vt 0.458076 0.305772
vt 0.986601 0.559772
vt 0.986084 0.558988
vt 0.986601 0.558647
vt 0.986084 0.586850
vt 0.986084 0.585725
vt 0.986601 0.586509
vt 0.986084 0.641006
vt 0.986084 0.639880
vt 0.986601 0.640221
vt 0.986602 0.613928
vt 0.986084 0.613587
vt 0.986601 0.612803
vt 0.986084 0.341175
vt 0.986704 0.342504
vt 0.986084 0.342504
vt 0.986704 0.369785
vt 0.986084 0.369785
vt 0.986084 0.368456
vt 0.986084 0.451629
vt 0.986084 0.450300
vt 0.986704 0.450300
vt 0.986704 0.477581
vt 0.986084 0.478910
vt 0.986084 0.477581
vt 0.282836 0.651290
vt 0.281897 0.784712
vt 0.281897 0.651290
vt 0.309729 0.651290
vt 0.309729 0.784712
vt 0.308789 0.784712
vt 0.335681 0.651290
vt 0.336621 0.651290
vt 0.336621 0.784712
vt 0.639961 0.188010
vt 0.639961 0.321435
vt 0.639021 0.321428
vt 0.362573 0.651290
vt 0.363513 0.651290
vt 0.363513 0.784712
vt 0.639961 0.347388
vt 0.639961 0.480812
vt 0.639021 0.480806
vt 0.390405 0.651290
vt 0.389465 0.784712
vt 0.389465 0.651290
vt 0.417297 0.651290
vt 0.417297 0.784712
vt 0.416357 0.784712
vt 0.869143 0.727418
vt 0.870082 0.727454
vt 0.869143 0.752492
vt 0.870082 0.778444
vt 0.870082 0.803518
vt 0.869143 0.803482
vt 0.870082 0.829470
vt 0.870082 0.854543
vt 0.869143 0.829505
vt 0.898853 0.012976
vt 0.899792 0.038014
vt 0.898853 0.038050
vt 0.899793 0.472138
vt 0.898853 0.497194
vt 0.898853 0.472138
vt 0.898853 0.548202
vt 0.898853 0.523146
vt 0.899793 0.523146
vt 0.899793 0.599210
vt 0.898853 0.599210
vt 0.898853 0.574154
vt 0.898853 0.625162
vt 0.899793 0.650218
vt 0.898853 0.650218
vt 0.986084 0.505802
vt 0.986084 0.504863
vt 0.987024 0.504863
vt 0.986084 0.531755
vt 0.987024 0.532694
vt 0.986084 0.532694
vt 0.986749 0.177488
vt 0.986749 0.178816
vt 0.986084 0.178152
vt 0.986084 0.204769
vt 0.986749 0.205433
vt 0.986084 0.206098
vt 0.372496 0.982798
vt 0.372496 0.981470
vt 0.373426 0.982134
vt 0.695532 0.981839
vt 0.696613 0.981470
vt 0.696613 0.982612
vt 0.533787 0.981470
vt 0.534716 0.982134
vt 0.533787 0.982798
vt 0.560668 0.982798
vt 0.560668 0.981470
vt 0.561598 0.982134
s 0
usemtl locker
f 265/265/53 266/266/53 267/267/53
f 268/268/53 269/269/53 270/270/53
f 271/271/54 272/272/54 273/273/54
f 274/274/54 275/275/54 276/276/54
f 277/277/55 278/278/55 279/279/55
f 280/280/55 281/281/55 282/282/55
f 283/283/56 284/284/56 285/285/56
f 286/286/56 287/287/56 288/288/56
f 289/289/57 290/290/57 291/291/57
f 292/292/57 293/293/57 294/294/57
f 295/295/58 296/296/58 297/297/58
f 298/298/58 299/299/58 300/300/58
f 301/301/59 302/302/59 303/303/59
f 304/304/59 305/305/59 306/306/59
f 307/307/60 308/308/60 309/309/60
f 310/310/60 311/311/60 312/312/60
f 313/313/61 314/314/61 315/315/61
f 316/316/61 317/317/61 318/318/61
f 319/319/62 320/320/62 321/321/62
f 322/322/62 323/323/62 324/324/62
f 325/325/63 326/326/63 327/327/63
f 328/328/63 329/329/63 330/330/63
f 331/331/64 332/332/64 333/333/64
f 334/334/64 335/335/64 336/336/64
f 337/337/65 338/338/65 339/339/65
f 340/340/65 341/341/65 342/342/65
f 343/343/66 344/344/66 345/345/66
f 346/346/66 347/347/66 348/348/66
f 349/349/67 350/350/67 351/351/67
f 352/352/67 353/353/67 354/354/67
f 355/355/68 356/356/68 357/357/68
f 358/358/68 359/359/68 360/360/68
f 361/361/69 362/362/69 363/363/69
f 364/364/69 365/365/69 366/366/69
f 367/367/70 368/368/70 369/369/70
f 370/370/70 371/371/70 372/372/70
f 373/373/71 374/374/71 375/375/71
f 376/376/72 377/377/72 378/378/72
f 379/379/73 380/380/73 381/381/73
f 382/382/74 383/383/74 384/384/74
f 385/385/75 386/386/75 387/387/75
f 388/388/76 389/389/76 390/390/76
f 391/391/77 392/392/77 393/393/77
f 394/394/78 395/395/78 396/396/78
o door_2
v 0.265000 0.315000 0.395604
v 0.265000 2.445000 0.405494
v 0.265000 2.445000 0.395604
v 0.265000 0.315000 0.395604
v 0.265000 0.315000 0.405494
v 0.265000 2.445000 0.405494
v 0.695000 0.315000 0.395604
v 0.695000 2.445000 0.395604
v 0.695000 2.445000 0.405494
v 0.695000 0.315000 0.395604
v 0.695000 2.445000 0.405494
v 0.695000 0.315000 0.405494
v 0.280000 0.300000 0.395604
v 0.680000 0.300000 0.395604
v 0.680000 0.300000 0.405494
v 0.280000 0.300000 0.395604
v 0.680000 0.300000 0.405494
v 0.280000 0.300000 0.405494
v 0.280000 2.460000 0.395604
v 0.680000 2.460000 0.405494
v 0.680000 2.460000 0.395604
v 0.280000 2.460000 0.395604
v 0.280000 2.460000 0.405494
v 0.680000 2.460000 0.405494
v 0.280000 0.315000 0.380769
v 0.680000 2.445000 0.380769
v 0.680000 0.315000 0.380769
v 0.280000 0.315000 0.380769
v 0.280000 2.445000 0.380769
v 0.680000 2.445000 0.380769
v 0.280000 0.315000 0.420330
v 0.680000 0.315000 0.420330
v 0.680000 2.445000 0.420330
v 0.280000 0.315000 0.420330
v 0.680000 2.445000 0.420330
v 0.280000 2.445000 0.420330
v 0.265000 0.315000 0.395604
v 0.280000 0.300000 0.395604
v 0.280000 0.300000 0.405494
v 0.265000 0.315000 0.395604
v 0.280000 0.300000 0.405494
v 0.265000 0.315000 0.405494
v 0.265000 2.445000 0.395604
v 0.280000 2.460000 0.405494
v 0.280000 2.460000 0.395604
v 0.265000 2.445000 0.395604
v 0.265000 2.445000 0.405494
v 0.280000 2.460000 0.405494
v 0.695000 0.315000 0.395604
v 0.680000 0.300000 0.405494
v 0.680000 0.300000 0.395604
v 0.695000 0.315000 0.395604
v 0.695000 0.315000 0.405494
v 0.680000 0.300000 0.405494
v 0.695000 2.445000 0.395604
v 0.680000 2.460000 0.395604
v 0.680000 2.460000 0.405494
v 0.695000 2.445000 0.395604
v 0.680000 2.460000 0.405494
v 0.695000 2.445000 0.405494
v 0.265000 0.315000 0.395604
v 0.280000 2.445000 0.380769
v 0.280000 0.315000 0.380769
v 0.265000 0.315000 0.395604
v 0.265000 2.445000 0.395604
v 0.280000 2.445000 0.380769
v 0.265000 0.315000 0.405494
v 0.280000 0.315000 0.420330
v 0.280000 2.445000 0.420330
v 0.265000 0.315000 0.405494
v 0.280000 2.445000 0.420330
v 0.265000 2.445000 0.405494
v 0.695000 0.315000 0.395604
v 0.680000 0.315000 0.380769
v 0.680000 2.445000 0.380769
v 0.695000 0.315000 0.395604
v 0.680000 2.445000 0.380769
v 0.695000 2.445000 0.395604
v 0.695000 0.315000 0.405494
v 0.680000 2.445000 0.420330
v 0.680000 0.315000 0.420330
v 0.695000 0.315000 0.405494
v 0.695000 2.445000 0.405494
v 0.680000 2.445000 0.420330
v 0.280000 0.300000 0.395604
v 0.280000 0.315000 0.380769
v 0.680000 0.315000 0.380769
v 0.280000 0.300000 0.395604
v 0.680000 0.315000 0.380769
v 0.680000 0.300000 0.395604
v 0.280000 0.300000 0.405494
v 0.680000 0.315000 0.420330
v 0.280000 0.315000 0.420330
v 0.280000 0.300000 0.405494
v 0.680000 0.300000 0.405494
v 0.680000 0.315000 0.420330
v 0.280000 2.460000 0.395604
v 0.680000 2.445000 0.380769
v 0.280000 2.445000 0.380769
v 0.280000 2.460000 0.395604
v 0.680000 2.460000 0.395604
v 0.680000 2.445000 0.380769
v 0.280000 2.460000 0.405494
v 0.280000 2.445000 0.420330
v 0.680000 2.445000 0.420330
v 0.280000 2.460000 0.405494
v 0.680000 2.445000 0.420330
v 0.680000 2.460000 0.405494
v 0.265000 0.315000 0.395604
v 0.280000 0.315000 0.380769
v 0.280000 0.300000 0.395604
v 0.265000 0.315000 0.405494
v 0.280000 0.300000 0.405494
v 0.280000 0.315000 0.420330
v 0.265000 2.445000 0.395604
v 0.280000 2.460000 0.395604
v 0.280000 2.445000 0.380769
v 0.265000 2.445000 0.405494
v 0.280000 2.445000 0.420330
v 0.280000 2.460000 0.405494
v 0.695000 0.315000 0.395604
v 0.680000 0.300000 0.395604
v 0.680000 0.315000 0.380769
v 0.695000 0.315000 0.405494
v 0.680000 0.315000 0.420330
v 0.680000 0.300000 0.405494
v 0.695000 2.445000 0.395604
v 0.680000 2.445000 0.380769
v 0.680000 2.460000 0.395604
v 0.695000 2.445000 0.405494
v 0.680000 2.460000 0.405494
v 0.680000 2.445000 0.420330
vn -1.0000 -0.0000 -0.0000
vn 1.0000 -0.0000 -0.0000
vn -0.0000 -1.0000 -0.0000
vn -0.0000 1.0000 -0.0000
vn -0.0000 -0.0000 -1.0000
vn -0.0000 -0.0000 1.0000
vn -0.7071 -0.7071 -0.0000
vn -0.7071 0.7071 -0.0000
vn 0.7071 -0.7071 -0.0000
vn 0.7071 0.7071 -0.0000
vn -0.7032 -0.0000 -0.7110
vn -0.7032 -0.0000 0.7110
vn 0.7032 -0.0000 -0.7110
vn 0.7032 -0.0000 0.7110
vn -0.0000 -0.7032 -0.7110
vn -0.0000 -0.7032 0.7110
vn -0.0000 0.7032 -0.7110
vn -0.0000 0.7032 0.7110
vn -0.5752 -0.5752 -0.5816
vn -0.5752 -0.5752 0.5816
vn -0.5752 0.5752 -0.5816
vn -0.5752 0.5752 0.5816
vn 0.5752 -0.5752 -0.5816
vn 0.5752 -0.5752 0.5816
vn 0.5752 0.5752 -0.5816
vn 0.5752 0.5752 0.5816
vt 0.750327 0.614455
vt 0.750947 0.708798
vt 0.750327 0.708798
vt 0.777519 0.227615
vt 0.776899 0.227615
vt 0.776899 0.133272
vt 0.750327 0.227615
vt 0.750327 0.133272
vt 0.750947 0.133272
vt 0.723136 0.597884
vt 0.722516 0.692227
vt 0.722516 0.597884
vt 0.925745 0.603771
vt 0.925745 0.586054
vt 0.926365 0.586054
vt 0.926365 0.629724
vt 0.925746 0.647441
vt 0.925746 0.629724
vt 0.925746 0.324037
vt 0.926365 0.341754
vt 0.925746 0.341754
vt 0.926365 0.385423
vt 0.925745 0.385423
vt 0.925745 0.367706
vt 0.344081 0.491916
vt 0.319025 0.625337
vt 0.319025 0.491916
vt 0.395089 0.491916
vt 0.395089 0.625337
vt 0.370033 0.625337
vt 0.421042 0.491916
vt 0.446097 0.491916
vt 0.446097 0.625337
vt 0.458076 0.331724
vt 0.483131 0.465146
vt 0.458076 0.465146
vt 0.911322 0.982936
vt 0.910760 0.981731
vt 0.911322 0.981470
vt 0.937274 0.982936
vt 0.937274 0.981470
vt 0.937836 0.982674
vt 0.986084 0.124117
vt 0.986084 0.122650
vt 0.986646 0.122912
vt 0.986646 0.151535
vt 0.986084 0.151273
vt 0.986646 0.150069
vt 0.986084 0.014442
vt 0.986084 0.012976
vt 0.986646 0.013238
vt 0.986704 0.424348
vt 0.986084 0.424348
vt 0.986084 0.423019
vt 0.986084 0.287941
vt 0.986084 0.286613
vt 0.986704 0.286613
vt 0.986704 0.313894
vt 0.986084 0.315223
vt 0.986084 0.313894
vt 0.444189 0.651290
vt 0.443249 0.784712
vt 0.443249 0.651290
vt 0.471081 0.651290
vt 0.471081 0.784712
vt 0.470141 0.784712
vt 0.497033 0.651290
vt 0.497973 0.651290
vt 0.497973 0.784712
vt 0.066760 0.651290
vt 0.067700 0.784712
vt 0.066760 0.784712
vt 0.523925 0.651290
vt 0.524865 0.651290
vt 0.524865 0.784712
vt 0.093652 0.651290
vt 0.094592 0.784712
vt 0.093652 0.784712
vt 0.551757 0.651290
vt 0.550817 0.784712
vt 0.550817 0.651290
vt 0.578649 0.651290
vt 0.578649 0.784712
vt 0.577710 0.784712
vt 0.898854 0.064002
vt 0.899792 0.064037
vt 0.898854 0.089075
vt 0.899792 0.115028
vt 0.899792 0.140101
vt 0.898853 0.140066
vt 0.899792 0.166054
vt 0.899792 0.191127
vt 0.898853 0.166089
vt 0.898853 0.217079
vt 0.899792 0.242117
vt 0.898853 0.242153
vt 0.899793 0.676171
vt 0.898853 0.701226
vt 0.898853 0.676171
vt 0.898853 0.752234
vt 0.898853 0.727179
vt 0.899793 0.727179
vt 0.899793 0.803243
vt 0.898853 0.803243
vt 0.898853 0.778187
vt 0.898853 0.829195
vt 0.899793 0.854251
vt 0.898853 0.854251
vt 0.723646 0.981470
vt 0.723646 0.982612
vt 0.722565 0.982242
vt 0.750680 0.981839
vt 0.749599 0.982612
vt 0.749599 0.981470
vt 0.830699 0.981470
vt 0.831780 0.982242
vt 0.830699 0.982612
vt 0.587550 0.981470
vt 0.588479 0.982134
vt 0.587550 0.982798
vt 0.453142 0.982798
vt 0.453142 0.981470
vt 0.454071 0.982134
vt 0.480023 0.981470
vt 0.480953 0.982134
vt 0.480023 0.982798
vt 0.615513 0.982243
vt 0.614432 0.982612
vt 0.614432 0.981470
vt 0.345615 0.982798
vt 0.345615 0.981470
vt 0.346544 0.982134
s 0
usemtl locker
f 397/397/79 398/398/79 399/399/79
f 400/400/79 401/401/79 402/402/79
f 403/403/80 404/404/80 405/405/80
f 406/406/80 407/407/80 408/408/80
f 409/409/81 410/410/81 411/411/81
f 412/412/81 413/413/81 414/414/81
f 415/415/82 416/416/82 417/417/82
f 418/418/82 419/419/82 420/420/82
f 421/421/83 422/422/83 423/423/83
f 424/424/83 425/425/83 426/426/83
f 427/427/84 428/428/84 429/429/84
f 430/430/84 431/431/84 432/432/84
f 433/433/85 434/434/85 435/435/85
f 436/436/85 437/437/85 438/438/85
f 439/439/86 440/440/86 441/441/86
f 442/442/86 443/443/86 444/444/86
f 445/445/87 446/446/87 447/447/87
f 448/448/87 449/449/87 450/450/87
f 451/451/88 452/452/88 453/453/88
f 454/454/88 455/455/88 456/456/88
f 457/457/89 458/458/89 459/459/89
f 460/460/89 461/461/89 462/462/89
f 463/463/90 464/464/90 465/465/90
f 466/466/90 467/467/90 468/468/90
f 469/469/91 470/470/91 471/471/91
f 472/472/91 473/473/91 474/474/91
f 475/475/92 476/476/92 477/477/92
f 478/478/92 479/479/92 480/480/92
f 481/481/93 482/482/93 483/483/93
f 484/484/93 485/485/93 486/486/93
f 487/487/94 488/488/94 489/489/94
f 490/490/94 491/491/94 492/492/94
f 493/493/95 494/494/95 495/495/95
f 496/496/95 497/497/95 498/498/95
f 499/499/96 500/500/96 501/501/96
f 502/502/96 503/503/96 504/504/96
f 505/505/97 506/506/97 507/507/97
f 508/508/98 509/509/98 510/510/98
f 511/511/99 512/512/99 513/513/99
f 514/514/100 515/515/100 516/516/100
f 517/517/101 518/518/101 519/519/101
f 520/520/102 521/521/102 522/522/102
f 523/523/103 524/524/103 525/525/103
f 526/526/104 527/527/104 528/528/104
o handle_0
v -0.305000 1.710000 0.450000
v -0.305000 1.710000 0.400549
v -0.305000 1.090000 0.450000
v -0.305000 1.090000 0.400549
v -0.355000 1.710000 0.400549
v -0.355000 1.710000 0.450000
v -0.355000 1.090000 0.400549
v -0.355000 1.090000 0.450000
v -0.355000 1.710000 0.400549
v -0.305000 1.710000 0.400549
v -0.355000 1.710000 0.450000
v -0.305000 1.710000 0.450000
v -0.355000 1.090000 0.450000
v -0.305000 1.090000 0.450000
v -0.355000 1.090000 0.400549
v -0.305000 1.090000 0.400549
v -0.355000 1.710000 0.450000
v -0.305000 1.710000 0.450000
v -0.355000 1.090000 0.450000
v -0.305000 1.090000 0.450000
v -0.305000 1.710000 0.400549
v -0.355000 1.710000 0.400549
v -0.305000 1.090000 0.400549
v -0.355000 1.090000 0.400549
vn 1.0000 -0.0000 -0.0000
vn -1.0000 -0.0000 -0.0000
vn -0.0000 1.0000 -0.0000
vn -0.0000 -1.0000 -0.0000
vn -0.0000 -0.0000 1.0000
vn -0.0000 -0.0000 -1.0000
vt 0.869143 0.051813
vt 0.869143 0.012976
vt 0.872240 0.051813
vt 0.872240 0.012976
vt 0.872240 0.077765
vt 0.872240 0.116601
vt 0.869143 0.077765
vt 0.869143 0.116601
vt 0.742268 0.948627
vt 0.739171 0.948627
vt 0.742268 0.945495
vt 0.739171 0.945495
vt 0.768221 0.945495
vt 0.771318 0.945495
vt 0.768221 0.948627
vt 0.771318 0.948627
vt 0.836926 0.535697
vt 0.836926 0.496860
vt 0.840058 0.535697
vt 0.840058 0.496860
vt 0.836926 0.600486
vt 0.836926 0.561649
vt 0.840058 0.600486
vt 0.840058 0.561649
s 0
usemtl locker
f 529/529/105 531/530/105 530/531/105
f 531/530/105 532/532/105 530/531/105
f 533/533/106 535/534/106 534/535/106
f 535/534/106 536/536/106 534/535/106
f 537/537/107 539/538/107 538/539/107
f 539/538/107 540/540/107 538/539/107
f 541/541/108 543/542/108 542/543/108
f 543/542/108 544/544/108 542/543/108
f 545/545/109 547/546/109 546/547/109
f 547/546/109 548/548/109 546/547/109
f 549/549/110 551/550/110 550/551/110
f 551/550/110 552/552/110 550/551/110
o handle_1
v 0.175000 1.710000 0.450000
v 0.175000 1.710000 0.400549
v 0.175000 1.090000 0.450000
v 0.175000 1.090000 0.400549
v 0.125000 1.710000 0.400549
v 0.125000 1.710000 0.450000
v 0.125000 1.090000 0.400549
v 0.125000 1.090000 0.450000
v 0.125000 1.710000 0.400549
v 0.175000 1.710000 0.400549
v 0.125000 1.710000 0.450000
v 0.175000 1.710000 0.450000
v 0.125000 1.090000 0.450000
v 0.175000 1.090000 0.450000
v 0.125000 1.090000 0.400549
v 0.175000 1.090000 0.400549
v 0.125000 1.710000 0.450000
v 0.175000 1.710000 0.450000
v 0.125000 1.090000 0.450000
v 0.175000 1.090000 0.450000
v 0.175000 1.710000 0.400549
v 0.125000 1.710000 0.400549
v 0.175000 1.090000 0.400549
v 0.125000 1.090000 0.400549
vn 1.0000 -0.0000 -0.0000
vn -1.0000 -0.0000 -0.0000
vn -0.0000 1.0000 -0.0000
vn -0.0000 -1.0000 -0.0000
vn -0.0000 -0.0000 1.0000
vn -0.0000 -0.0000 -1.0000
vt 0.869143 0.181390
vt 0.869143 0.142554
vt 0.872240 0.181390
vt 0.872240 0.142554
vt 0.872240 0.207343
vt 0.872240 0.246179
vt 0.869143 0.207343
vt 0.869143 0.246179
vt 0.800368 0.948627
vt 0.797271 0.948627
vt 0.800368 0.945495
vt 0.797271 0.945495
vt 0.710121 0.945495
vt 0.713218 0.945495
vt 0.710121 0.948627
vt 0.713218 0.948627
vt 0.836926 0.665274
vt 0.836926 0.626438
vt 0.840058 0.665274
vt 0.840058 0.626438
vt 0.836926 0.730063
vt 0.836926 0.691227
vt 0.840058 0.730063
vt 0.840058 0.691227
s 0
usemtl locker
f 553/553/111 555/554/111 554/555/111
f 555/554/111 556/556/111 554/555/111
f 557/557/112 559/558/112 558/559/112
f 559/558/112 560/560/112 558/559/112
f 561/561/113 563/562/113 562/563/113
f 563/562/113 564/564/113 562/563/113
f 565/565/114 567/566/114 566/567/114
f 567/566/114 568/568/114 566/567/114
f 569/569/115 571/570/115 570/571/115
f 571/570/115 572/572/115 570/571/115
f 573/573/116 575/574/116 574/575/116
f 575/574/116 576/576/116 574/575/116
o handle_2
v 0.655000 1.710000 0.450000
v 0.655000 1.710000 0.400549
v 0.655000 1.090000 0.450000
v 0.655000 1.090000 0.400549
v 0.605000 1.710000 0.400549
v 0.605000 1.710000 0.450000
v 0.605000 1.090000 0.400549
v 0.605000 1.090000 0.450000
v 0.605000 1.710000 0.400549
v 0.655000 1.710000 0.400549
v 0.605000 1.710000 0.450000
v 0.655000 1.710000 0.450000
v 0.605000 1.090000 0.450000
v 0.655000 1.090000 0.450000
v 0.605000 1.090000 0.400549
v 0.655000 1.090000 0.400549
v 0.605000 1.710000 0.450000
v 0.655000 1.710000 0.450000
v 0.605000 1.090000 0.450000
v 0.655000 1.090000 0.450000
v 0.655000 1.710000 0.400549
v 0.605000 1.710000 0.400549
v 0.655000 1.090000 0.400549
v 0.605000 1.090000 0.400549
vn 1.0000 -0.0000 -0.0000
vn -1.0000 -0.0000 -0.0000
vn -0.0000 1.0000 -0.0000
vn -0.0000 -1.0000 -0.0000
vn -0.0000 -0.0000 1.0000
vn -0.0000 -0.0000 -1.0000
vt 0.869143 0.310968
vt 0.869143 0.272131
vt 0.872240 0.310968
vt 0.872240 0.272131
vt 0.872240 0.336920
vt 0.872240 0.375757
vt 0.869143 0.336920
vt 0.869143 0.375757
vt 0.829418 0.948627
vt 0.826321 0.948627
vt 0.829418 0.945495
vt 0.826321 0.945495
vt 0.855371 0.945495
vt 0.858468 0.945495
vt 0.855371 0.948627
vt 0.858468 0.948627
vt 0.836926 0.794852
vt 0.836926 0.756016
vt 0.840058 0.794852
vt 0.840058 0.756016
vt 0.836926 0.859641
vt 0.836926 0.820804
vt 0.840058 0.859641
vt 0.840058 0.820804
s 0
usemtl locker
f 577/577/117 579/578/117 578/579/117
f 579/578/117 580/580/117 578/579/117
f 581/581/118 583/582/118 582/583/118
f 583/582/118 584/584/118 582/583/118
f 585/585/119 587/586/119 586/587/119
f 587/586/119 588/588/119 586/587/119
f 589/589/120 591/590/120 590/591/120
f 591/590/120 592/592/120 590/591/120
f 593/593/121 595/594/121 594/595/121
f 595/594/121 596/596/121 594/595/121
f 597/597/122 599/598/122 598/599/122
f 599/598/122 600/600/122 598/599/122
o plate_0
v -0.400000 1.910000 0.435165
v -0.400000 1.910000 0.415384
v -0.400000 1.810000 0.435165
v -0.400000 1.810000 0.415384
v -0.560000 1.910000 0.415384
v -0.560000 1.910000 0.435165
v -0.560000 1.810000 0.415384
v -0.560000 1.810000 0.435165
v -0.560000 1.910000 0.415384
v -0.400000 1.910000 0.415384
v -0.560000 1.910000 0.435165
v -0.400000 1.910000 0.435165
v -0.560000 1.810000 0.435165
v -0.400000 1.810000 0.435165
v -0.560000 1.810000 0.415384
v -0.400000 1.810000 0.415384
v -0.560000 1.910000 0.435165
v -0.400000 1.910000 0.435165
v -0.560000 1.810000 0.435165
v -0.400000 1.810000 0.435165
v -0.400000 1.910000 0.415384
v -0.560000 1.910000 0.415384
v -0.400000 1.810000 0.415384
v -0.560000 1.810000 0.415384
vn 1.0000 -0.0000 -0.0000
vn -1.0000 -0.0000 -0.0000
vn -0.0000 1.0000 -0.0000
vn -0.0000 -1.0000 -0.0000
vn -0.0000 -0.0000 1.0000
vn -0.0000 -0.0000 -1.0000
vt 0.433552 0.951759
vt 0.433552 0.945495
vt 0.434791 0.951759
vt 0.434791 0.945495
vt 0.461982 0.945495
vt 0.461982 0.951759
vt 0.460743 0.945495
vt 0.460743 0.951759
vt 0.155198 0.955517
vt 0.153959 0.955517
vt 0.155198 0.945495
vt 0.153959 0.945495
vt 0.045193 0.945495
vt 0.046432 0.945495
vt 0.045193 0.955517
vt 0.046432 0.955517
vt 0.932009 0.914654
vt 0.925746 0.914654
vt 0.932009 0.904632
vt 0.925746 0.904632
vt 0.932010 0.770755
vt 0.925746 0.770755
vt 0.932010 0.760732
vt 0.925746 0.760732
s 0
usemtl locker
f 601/601/123 603/602/123 602/603/123
f 603/602/123 604/604/123 602/603/123
f 605/605/124 607/606/124 606/607/124
f 607/606/124 608/608/124 606/607/124
f 609/609/125 611/610/125 610/611/125
f 611/610/125 612/612/125 610/611/125
f 613/613/126 615/614/126 614/615/126
f 615/614/126 616/616/126 614/615/126
f 617/617/127 619/618/127 618/619/127
f 619/618/127 620/620/127 618/619/127
f 621/621/128 623/622/128 622/623/128
f 623/622/128 624/624/128 622/623/128
o plate_1
v 0.080000 1.910000 0.435165
v 0.080000 1.910000 0.415384
v 0.080000 1.810000 0.435165
v 0.080000 1.810000 0.415384
v -0.080000 1.910000 0.415384
v -0.080000 1.910000 0.435165
v -0.080000 1.810000 0.415384
v -0.080000 1.810000 0.435165
v -0.080000 1.910000 0.415384
v 0.080000 1.910000 0.415384
v -0.080000 1.910000 0.435165
v 0.080000 1.910000 0.435165
v -0.080000 1.810000 0.435165
v 0.080000 1.810000 0.435165
v -0.080000 1.810000 0.415384
v 0.080000 1.810000 0.415384
v -0.080000 1.910000 0.435165
v 0.080000 1.910000 0.435165
v -0.080000 1.810000 0.435165
v 0.080000 1.810000 0.435165
v 0.080000 1.910000 0.415384
v -0.080000 1.910000 0.415384
v 0.080000 1.810000 0.415384
v -0.080000 1.810000 0.415384
vn 1.0000 -0.0000 -0.0000
vn -1.0000 -0.0000 -0.0000
vn -0.0000 1.0000 -0.0000
vn -0.0000 -1.0000 -0.0000
vn -0.0000 -0.0000 1.0000
vn -0.0000 -0.0000 -1.0000
vt 0.487935 0.951759
vt 0.487935 0.945495
vt 0.489174 0.951759
vt 0.489174 0.945495
vt 0.516365 0.945495
vt 0.516365 0.951759
vt 0.515126 0.945495
vt 0.515126 0.951759
vt 0.100815 0.955517
vt 0.099576 0.955517
vt 0.100815 0.945495
vt 0.099576 0.945495
vt 0.126767 0.945495
vt 0.128006 0.945495
vt 0.126767 0.955517
vt 0.128006 0.955517
vt 0.932009 0.842704
vt 0.925746 0.842704
vt 0.932009 0.832682
vt 0.925746 0.832682
vt 0.932009 0.878679
vt 0.925746 0.878679
vt 0.932009 0.868657
vt 0.925746 0.868657
s 0
usemtl locker
f 625/625/129 627/626/129 626/627/129
f 627/626/129 628/628/129 626/627/129
f 629/629/130 631/630/130 630/631/130
f 631/630/130 632/632/130 630/631/130
f 633/633/131 635/634/131 634/635/131
f 635/634/131 636/636/131 634/635/131
f 637/637/132 639/638/132 638/639/132
f 639/638/132 640/640/132 638/639/132
f 641/641/133 643/642/133 642/643/133
f 643/642/133 644/644/133 642/643/133
f 645/645/134 647/646/134 646/647/134
f 647/646/134 648/648/134 646/647/134
o plate_2
v 0.560000 1.910000 0.435165
v 0.560000 1.910000 0.415384
v 0.560000 1.810000 0.435165
v 0.560000 1.810000 0.415384
v 0.400000 1.910000 0.415384
v 0.400000 1.910000 0.435165
v 0.400000 1.810000 0.415384
v 0.400000 1.810000 0.435165
v 0.400000 1.910000 0.415384
v 0.560000 1.910000 0.415384
v 0.400000 1.910000 0.435165
v 0.560000 1.910000 0.435165
v 0.400000 1.810000 0.435165
v 0.560000 1.810000 0.435165
v 0.400000 1.810000 0.415384
v 0.560000 1.810000 0.415384
v 0.400000 1.910000 0.435165
v 0.560000 1.910000 0.435165
v 0.400000 1.810000 0.435165
v 0.560000 1.810000 0.435165
v 0.560000 1.910000 0.415384
v 0.400000 1.910000 0.415384
v 0.560000 1.810000 0.415384
v 0.400000 1.810000 0.415384
vn 1.0000 -0.0000 -0.0000
vn -1.0000 -0.0000 -0.0000
vn -0.0000 1.0000 -0.0000
vn -0.0000 -1.0000 -0.0000
vn -0.0000 -0.0000 1.0000
vn -0.0000 -0.0000 -1.0000
vt 0.542318 0.951759
vt 0.542318 0.945495
vt 0.543557 0.951759
vt 0.543557 0.945495
vt 0.570748 0.945495
vt 0.570748 0.951759
vt 0.569509 0.945495
vt 0.569509 0.951759
vt 0.073623 0.955517
vt 0.072384 0.955517
vt 0.073623 0.945495
vt 0.072384 0.945495
vt 0.181150 0.945495
vt 0.182389 0.945495
vt 0.181150 0.955517
vt 0.182389 0.955517
vt 0.932009 0.806729
vt 0.925746 0.806729
vt 0.932009 0.796707
vt 0.925746 0.796707
vt 0.019240 0.955517
vt 0.012976 0.955517
vt 0.019240 0.945495
vt 0.012976 0.945495
s 0
usemtl locker
f 649/649/135 651/650/135 650/651/135
f 651/650/135 652/652/135 650/651/135
f 653/653/136 655/654/136 654/655/136
f 655/654/136 656/656/136 654/655/136
f 657/657/137 659/658/137 658/659/137
f 659/658/137 660/660/137 658/659/137
f 661/661/138 663/662/138 662/663/138
f 663/662/138 664/664/138 662/663/138
f 665/665/139 667/666/139 666/667/139
f 667/666/139 668/668/139 666/667/139
f 669/669/140 671/670/140 670/671/140
f 671/670/140 672/672/140 670/671/140
o plinth
v -0.730000 0.030000 -0.400549
v -0.730000 0.130000 0.351099
v -0.730000 0.130000 -0.400549
v -0.730000 0.030000 -0.400549
v -0.730000 0.030000 0.351099
v -0.730000 0.130000 0.351099
v 0.730000 0.030000 -0.400549
v 0.730000 0.130000 -0.400549
v 0.730000 0.130000 0.351099
v 0.730000 0.030000 -0.400549
v 0.730000 0.130000 0.351099
v 0.730000 0.030000 0.351099
v -0.700000 -0.000000 -0.400549
v 0.700000 -0.000000 -0.400549
v 0.700000 0.000000 0.351099
v -0.700000 -0.000000 -0.400549
v 0.700000 0.000000 0.351099
v -0.700000 0.000000 0.351099
v -0.700000 0.160000 -0.400549
v 0.700000 0.160000 0.351099
v 0.700000 0.160000 -0.400549
v -0.700000 0.160000 -0.400549
v -0.700000 0.160000 0.351099
v 0.700000 0.160000 0.351099
v -0.700000 0.030000 -0.430220
v 0.700000 0.130000 -0.430220
v 0.700000 0.030000 -0.430220
v -0.700000 0.030000 -0.430220
v -0.700000 0.130000 -0.430220
v 0.700000 0.130000 -0.430220
v -0.700000 0.030000 0.380769
v 0.700000 0.030000 0.380769
v 0.700000 0.130000 0.380769
v -0.700000 0.030000 0.380769
v 0.700000 0.130000 0.380769
v -0.700000 0.130000 0.380769
v -0.730000 0.030000 -0.400549
v -0.700000 -0.000000 -0.400549
v -0.700000 0.000000 0.351099
v -0.730000 0.030000 -0.400549
v -0.700000 0.000000 0.351099
v -0.730000 0.030000 0.351099
v -0.730000 0.130000 -0.400549
v -0.700000 0.160000 0.351099
v -0.700000 0.160000 -0.400549
v -0.730000 0.130000 -0.400549
v -0.730000 0.130000 0.351099
v -0.700000 0.160000 0.351099
v 0.730000 0.030000 -0.400549
v 0.700000 0.000000 0.351099
v 0.700000 -0.000000 -0.400549
v 0.730000 0.030000 -0.400549
v 0.730000 0.030000 0.351099
v 0.700000 0.000000 0.351099
v 0.730000 0.130000 -0.400549
v 0.700000 0.160000 -0.400549
v 0.700000 0.160000 0.351099
v 0.730000 0.130000 -0.400549
v 0.700000 0.160000 0.351099
v 0.730000 0.130000 0.351099
v -0.730000 0.030000 -0.400549
v -0.700000 0.130000 -0.430220
v -0.700000 0.030000 -0.430220
v -0.730000 0.030000 -0.400549
v -0.730000 0.130000 -0.400549
v -0.700000 0.130000 -0.430220
v -0.730000 0.030000 0.351099
v -0.700000 0.030000 0.380769
v -0.700000 0.130000 0.380769
v -0.730000 0.030000 0.351099
v -0.700000 0.130000 0.380769
v -0.730000 0.130000 0.351099
v 0.730000 0.030000 -0.400549
v 0.700000 0.030000 -0.430220
v 0.700000 0.130000 -0.430220
v 0.730000 0.030000 -0.400549
v 0.700000 0.130000 -0.430220
v 0.730000 0.130000 -0.400549
v 0.730000 0.030000 0.351099
v 0.700000 0.130000 0.380769
v 0.700000 0.030000 0.380769
v 0.730000 0.030000 0.351099
v 0.730000 0.130000 0.351099
v 0.700000 0.130000 0.380769
v -0.700000 -0.000000 -0.400549
v -0.700000 0.030000 -0.430220
v 0.700000 0.030000 -0.430220
v -0.700000 -0.000000 -0.400549
v 0.700000 0.030000 -0.430220
v 0.700000 -0.000000 -0.400549
v -0.700000 0.000000 0.351099
v 0.700000 0.030000 0.380769
v -0.700000 0.030000 0.380769
v -0.700000 0.000000 0.351099
v 0.700000 0.000000 0.351099
v 0.700000 0.030000 0.380769
v -0.700000 0.160000 -0.400549
v 0.700000 0.130000 -0.430220
v -0.700000 0.130000 -0.430220
v -0.700000 0.160000 -0.400549
v 0.700000 0.160000 -0.400549
v 0.700000 0.130000 -0.430220
v -0.700000 0.160000 0.351099
v -0.700000 0.130000 0.380769
v 0.700000 0.130000 0.380769
v -0.700000 0.160000 0.351099
v 0.700000 0.130000 0.380769
v 0.700000 0.160000 0.351099
v -0.730000 0.030000 -0.400549
v -0.700000 0.030000 -0.430220
v -0.700000 -0.000000 -0.400549
v -0.730000 0.030000 0.351099
v -0.700000 0.000000 0.351099
v -0.700000 0.030000 0.380769
v -0.730000 0.130000 -0.400549
v -0.700000 0.160000 -0.400549
v -0.700000 0.130000 -0.430220
v -0.730000 0.130000 0.351099
v -0.700000 0.130000 0.380769
v -0.700000 0.160000 0.351099
v 0.730000 0.030000 -0.400549
v 0.700000 -0.000000 -0.400549
v 0.700000 0.030000 -0.430220
v 0.730000 0.030000 0.351099
v 0.700000 0.030000 0.380769
v 0.700000 0.000000 0.351099
v 0.730000 0.130000 -0.400549
v 0.700000 0.130000 -0.430220
v 0.700000 0.160000 -0.400549
v 0.730000 0.130000 0.351099
v 0.700000 0.160000 0.351099
v 0.700000 0.130000 0.380769
vn -1.0000 -0.0000 -0.0000
vn 1.0000 -0.0000 -0.0000
vn -0.0000 -1.0000 -0.0000
vn -0.0000 1.0000 -0.0000
vn -0.0000 -0.0000 -1.0000
vn -0.0000 -0.0000 1.0000
vn -0.7071 -0.7071 -0.0000
vn -0.7071 0.7071 -0.0000
vn 0.7071 -0.7071 -0.0000
vn 0.7071 0.7071 -0.0000
vn -0.7032 -0.0000 -0.7110
vn -0.7032 -0.0000 0.7110
vn 0.7032 -0.0000 -0.7110
vn 0.7032 -0.0000 0.7110
vn -0.0000 -0.7032 -0.7110
vn -0.0000 -0.7032 0.7110
vn -0.0000 0.7032 -0.7110
vn -0.0000 0.7032 0.7110
vn -0.5752 -0.5752 -0.5816
vn -0.5752 -0.5752 0.5816
vn -0.5752 0.5752 -0.5816
vn -0.5752 0.5752 0.5816
vn 0.5752 -0.5752 -0.5816
vn 0.5752 -0.5752 0.5816
vn 0.5752 0.5752 -0.5816
vn 0.5752 0.5752 0.5816
vt 0.164036 0.857748
vt 0.170300 0.810665
vt 0.170300 0.857748
vt 0.196252 0.857748
vt 0.196252 0.810665
vt 0.202516 0.810665
vt 0.843081 0.411847
vt 0.836926 0.410683
vt 0.843081 0.378152
vt 0.843190 0.470908
vt 0.836926 0.437800
vt 0.843190 0.437800
vt 0.344262 0.462579
vt 0.302780 0.385315
vt 0.344262 0.363044
vt 0.432123 0.012976
vt 0.385040 0.100671
vt 0.385040 0.012976
vt 0.385040 0.126624
vt 0.432123 0.214319
vt 0.385040 0.214319
vt 0.432123 0.327966
vt 0.385040 0.327966
vt 0.385040 0.240271
vt 0.804710 0.530231
vt 0.804710 0.467566
vt 0.810942 0.468192
vt 0.810942 0.618849
vt 0.804710 0.618223
vt 0.810942 0.556184
vt 0.810974 0.644801
vt 0.810974 0.707153
vt 0.804710 0.707153
vt 0.019240 0.810665
vt 0.012976 0.873017
vt 0.012976 0.810665
vt 0.741303 0.857748
vt 0.739424 0.857748
vt 0.739424 0.810665
vt 0.796967 0.857748
vt 0.795087 0.810665
vt 0.796967 0.810665
vt 0.836926 0.060059
vt 0.838805 0.012976
vt 0.838805 0.060059
vt 0.836926 0.133094
vt 0.836926 0.086011
vt 0.838805 0.086011
vt 0.836926 0.206129
vt 0.838805 0.159047
vt 0.838805 0.206129
vt 0.836926 0.279164
vt 0.836926 0.232082
vt 0.838805 0.232082
vt 0.769135 0.857748
vt 0.767256 0.857748
vt 0.767256 0.810665
vt 0.838805 0.352200
vt 0.836926 0.305117
vt 0.838805 0.305117
vt 0.379788 0.945495
vt 0.377930 0.951759
vt 0.377930 0.945495
vt 0.405741 0.951759
vt 0.405741 0.945495
vt 0.407599 0.945495
vt 0.324166 0.951759
vt 0.322308 0.951759
vt 0.322308 0.945495
vt 0.350119 0.945495
vt 0.351977 0.951759
vt 0.350119 0.951759
vt 0.208342 0.945495
vt 0.210777 0.946522
vt 0.208342 0.952294
vt 0.293712 0.945495
vt 0.296355 0.951759
vt 0.293712 0.951759
vt 0.267760 0.945495
vt 0.265117 0.951759
vt 0.265117 0.945495
vt 0.239164 0.952294
vt 0.236729 0.946522
vt 0.239164 0.945495
vt 0.806568 0.100671
vt 0.804710 0.100671
vt 0.804710 0.012976
vt 0.804710 0.240271
vt 0.806568 0.327966
vt 0.804710 0.327966
vt 0.776899 0.341282
vt 0.776899 0.253568
vt 0.778757 0.341243
vt 0.778757 0.454949
vt 0.776899 0.367274
vt 0.778758 0.367235
vt 0.806568 0.353918
vt 0.804710 0.441613
vt 0.804710 0.353918
vt 0.804710 0.214319
vt 0.804710 0.126624
vt 0.806568 0.126624
vt 0.778758 0.568616
vt 0.776899 0.568577
vt 0.778758 0.480902
vt 0.776899 0.682284
vt 0.776899 0.594569
vt 0.778758 0.594608
vt 0.179678 0.981470
vt 0.181536 0.983349
vt 0.179678 0.983349
vt 0.098641 0.984113
vt 0.097319 0.982777
vt 0.098641 0.981470
vt 0.207489 0.983349
vt 0.207489 0.981470
vt 0.209347 0.981470
vt 0.124593 0.984113
vt 0.124593 0.981470
vt 0.125915 0.982777
vt 0.957962 0.595918
vt 0.959841 0.597254
vt 0.957962 0.598561
vt 0.957962 0.824871
vt 0.960132 0.823362
vt 0.960132 0.825651
vt 0.957962 0.710329
vt 0.960116 0.711860
vt 0.957962 0.712635
vt 0.960132 0.853112
vt 0.957962 0.853892
vt 0.957962 0.851603
s 0
usemtl locker
f 673/673/141 674/674/141 675/675/141
f 676/676/141 677/677/141 678/678/141
f 679/679/142 680/680/142 681/681/142
f 682/682/142 683/683/142 684/684/142
f 685/685/143 686/686/143 687/687/143
f 688/688/143 689/689/143 690/690/143
f 691/691/144 692/692/144 693/693/144
f 694/694/144 695/695/144 696/696/144
f 697/697/145 698/698/145 699/699/145
f 700/700/145 701/701/145 702/702/145
f 703/703/146 704/704/146 705/705/146
f 706/706/146 707/707/146 708/708/146
f 709/709/147 710/710/147 711/711/147
f 712/712/147 713/713/147 714/714/147
f 715/715/148 716/716/148 717/717/148
f 718/718/148 719/719/148 720/720/148
f 721/721/149 722/722/149 723/723/149
f 724/724/149 725/725/149 726/726/149
f 727/727/150 728/728/150 729/729/150
f 730/730/150 731/731/150 732/732/150
f 733/733/151 734/734/151 735/735/151
f 736/736/151 737/737/151 738/738/151
f 739/739/152 740/740/152 741/741/152
f 742/742/152 743/743/152 744/744/152
f 745/745/153 746/746/153 747/747/153
f 748/748/153 749/749/153 750/750/153
f 751/751/154 752/752/154 753/753/154
f 754/754/154 755/755/154 756/756/154
f 757/757/155 758/758/155 759/759/155
f 760/760/155 761/761/155 762/762/155
f 763/763/156 764/764/156 765/765/156
f 766/766/156 767/767/156 768/768/156
f 769/769/157 770/770/157 771/771/157
f 772/772/157 773/773/157 774/774/157
f 775/775/158 776/776/158 777/777/158
f 778/778/158 779/779/158 780/780/158
f 781/781/159 782/782/159 783/783/159
f 784/784/160 785/785/160 786/786/160
f 787/787/161 788/788/161 789/789/161
f 790/790/162 791/791/162 792/792/162
f 793/793/163 794/794/163 795/795/163
f 796/796/164 797/797/164 798/798/164
f 799/799/165 800/800/165 801/801/165
f 802/802/166 803/803/166 804/804/166
o top_cap
v -0.750000 2.610000 -0.420330
v -0.750000 2.670000 0.370879
v -0.750000 2.670000 -0.420330
v -0.750000 2.610000 -0.420330
v -0.750000 2.610000 0.370879
v -0.750000 2.670000 0.370879
v 0.750000 2.610000 -0.420330
v 0.750000 2.670000 -0.420330
v 0.750000 2.670000 0.370879
v 0.750000 2.610000 -0.420330
v 0.750000 2.670000 0.370879
v 0.750000 2.610000 0.370879
v -0.720000 2.580000 -0.420330
v 0.720000 2.580000 -0.420330
v 0.720000 2.580000 0.370879
v -0.720000 2.580000 -0.420330
v 0.720000 2.580000 0.370879
v -0.720000 2.580000 0.370879
v -0.720000 2.700000 -0.420330
v 0.720000 2.700000 0.370879
v 0.720000 2.700000 -0.420330
v -0.720000 2.700000 -0.420330
v -0.720000 2.700000 0.370879
v 0.720000 2.700000 0.370879
v -0.720000 2.610000 -0.450000
v 0.720000 2.670000 -0.450000
v 0.720000 2.610000 -0.450000
v -0.720000 2.610000 -0.450000
v -0.720000 2.670000 -0.450000
v 0.720000 2.670000 -0.450000
v -0.720000 2.610000 0.400549
v 0.720000 2.610000 0.400549
v 0.720000 2.670000 0.400549
v -0.720000 2.610000 0.400549
v 0.720000 2.670000 0.400549
v -0.720000 2.670000 0.400549
v -0.750000 2.610000 -0.420330
v -0.720000 2.580000 -0.420330
v -0.720000 2.580000 0.370879
v -0.750000 2.610000 -0.420330
v -0.720000 2.580000 0.370879
v -0.750000 2.610000 0.370879
v -0.750000 2.670000 -0.420330
v -0.720000 2.700000 0.370879
v -0.720000 2.700000 -0.420330
v -0.750000 2.670000 -0.420330
v -0.750000 2.670000 0.370879
v -0.720000 2.700000 0.370879
v 0.750000 2.610000 -0.420330
v 0.720000 2.580000 0.370879
v 0.720000 2.580000 -0.420330
v 0.750000 2.610000 -0.420330
v 0.750000 2.610000 0.370879
v 0.720000 2.580000 0.370879
v 0.750000 2.670000 -0.420330
v 0.720000 2.700000 -0.420330
v 0.720000 2.700000 0.370879
v 0.750000 2.670000 -0.420330
v 0.720000 2.700000 0.370879
v 0.750000 2.670000 0.370879
v -0.750000 2.610000 -0.420330
v -0.720000 2.670000 -0.450000
v -0.720000 2.610000 -0.450000
v -0.750000 2.610000 -0.420330
v -0.750000 2.670000 -0.420330
v -0.720000 2.670000 -0.450000
v -0.750000 2.610000 0.370879
v -0.720000 2.610000 0.400549
v -0.720000 2.670000 0.400549
v -0.750000 2.610000 0.370879
v -0.720000 2.670000 0.400549
v -0.750000 2.670000 0.370879
v 0.750000 2.610000 -0.420330
v 0.720000 2.610000 -0.450000
v 0.720000 2.670000 -0.450000
v 0.750000 2.610000 -0.420330
v 0.720000 2.670000 -0.450000
v 0.750000 2.670000 -0.420330
v 0.750000 2.610000 0.370879
v 0.720000 2.670000 0.400549
v 0.720000 2.610000 0.400549
v 0.750000 2.610000 0.370879
v 0.750000 2.670000 0.370879
v 0.720000 2.670000 0.400549
v -0.720000 2.580000 -0.420330
v -0.720000 2.610000 -0.450000
v 0.720000 2.610000 -0.450000
v -0.720000 2.580000 -0.420330
v 0.720000 2.610000 -0.450000
v 0.720000 2.580000 -0.420330
v -0.720000 2.580000 0.370879
v 0.720000 2.610000 0.400549
v -0.720000 2.610000 0.400549
v -0.720000 2.580000 0.370879
v 0.720000 2.580000 0.370879
v 0.720000 2.610000 0.400549
v -0.720000 2.700000 -0.420330
v 0.720000 2.670000 -0.450000
v -0.720000 2.670000 -0.450000
v -0.720000 2.700000 -0.420330
v 0.720000 2.700000 -0.420330
v 0.720000 2.670000 -0.450000
v -0.720000 2.700000 0.370879
v -0.720000 2.670000 0.400549
v 0.720000 2.670000 0.400549
v -0.720000 2.700000 0.370879
v 0.720000 2.670000 0.400549
v 0.720000 2.700000 0.370879
v -0.750000 2.610000 -0.420330
v -0.720000 2.610000 -0.450000
v -0.720000 2.580000 -0.420330
v -0.750000 2.610000 0.370879
v -0.720000 2.580000 0.370879
v -0.720000 2.610000 0.400549
v -0.750000 2.670000 -0.420330
v -0.720000 2.700000 -0.420330
v -0.720000 2.670000 -0.450000
v -0.750000 2.670000 0.370879
v -0.720000 2.670000 0.400549
v -0.720000 2.700000 0.370879
v 0.750000 2.610000 -0.420330
v 0.720000 2.580000 -0.420330
v 0.720000 2.610000 -0.450000
v 0.750000 2.610000 0.370879
v 0.720000 2.610000 0.400549
v 0.720000 2.580000 0.370879
v 0.750000 2.670000 -0.420330
v 0.720000 2.670000 -0.450000
v 0.720000 2.700000 -0.420330
v 0.750000 2.670000 0.370879
v 0.720000 2.700000 0.370879
v 0.720000 2.670000 0.400549
vn -1.0000 -0.0000 -0.0000
vn 1.0000 -0.0000 -0.0000
vn -0.0000 -1.0000 -0.0000
vn -0.0000 1.0000 -0.0000
vn -0.0000 -0.0000 -1.0000
vn -0.0000 -0.0000 1.0000
vn -0.7071 -0.7071 -0.0000
vn -0.7071 0.7071 -0.0000
vn 0.7071 -0.7071 -0.0000
vn 0.7071 0.7071 -0.0000
vn -0.7032 -0.0000 -0.7110
vn -0.7032 -0.0000 0.7110
vn 0.7032 -0.0000 -0.7110
vn 0.7032 -0.0000 0.7110
vn -0.0000 -0.7032 -0.7110
vn -0.0000 -0.7032 0.7110
vn -0.0000 0.7032 -0.7110
vn -0.0000 0.7032 0.7110
vn -0.5752 -0.5752 -0.5816
vn -0.5752 -0.5752 0.5816
vn -0.5752 0.5752 -0.5816
vn -0.5752 0.5752 0.5816
vn 0.5752 -0.5752 -0.5816
vn 0.5752 -0.5752 0.5816
vn 0.5752 0.5752 -0.5816
vn 0.5752 0.5752 0.5816
vt 0.228469 0.860226
vt 0.232227 0.810665
vt 0.232227 0.860226
vt 0.258180 0.860226
vt 0.258180 0.810665
vt 0.261938 0.810665
vt 0.872901 0.436560
vt 0.869143 0.436560
vt 0.869143 0.401709
vt 0.872901 0.497363
vt 0.869143 0.462512
vt 0.872901 0.462512
vt 0.056412 0.465963
vt 0.012976 0.386910
vt 0.056412 0.363044
vt 0.201314 0.363044
vt 0.151753 0.453245
vt 0.151753 0.363044
vt 0.082365 0.465963
vt 0.082365 0.363044
vt 0.125801 0.386910
vt 0.276827 0.453244
vt 0.227266 0.453244
vt 0.227266 0.363044
vt 0.048951 0.874798
vt 0.045193 0.810665
vt 0.048951 0.810665
vt 0.078662 0.874798
vt 0.074903 0.874798
vt 0.074903 0.810665
vt 0.108373 0.810665
vt 0.108373 0.874798
vt 0.104614 0.874798
vt 0.138084 0.810665
vt 0.134325 0.874798
vt 0.134325 0.810665
vt 0.518650 0.860226
vt 0.516771 0.860226
vt 0.516771 0.810665
vt 0.574313 0.860226
vt 0.572434 0.810665
vt 0.574313 0.810665
vt 0.600266 0.860226
vt 0.602145 0.810665
vt 0.602145 0.860226
vt 0.628097 0.860226
vt 0.628097 0.810665
vt 0.629977 0.810665
vt 0.655929 0.860226
vt 0.657808 0.810665
vt 0.657808 0.860226
vt 0.683761 0.860226
vt 0.683761 0.810665
vt 0.685640 0.810665
vt 0.546482 0.860226
vt 0.544602 0.860226
vt 0.544602 0.810665
vt 0.713472 0.860226
vt 0.711592 0.810665
vt 0.713472 0.810665
vt 0.959820 0.012976
vt 0.957962 0.016735
vt 0.957962 0.012976
vt 0.957962 0.046445
vt 0.957962 0.042687
vt 0.959820 0.042687
vt 0.913705 0.949688
vt 0.912039 0.948864
vt 0.913705 0.945495
vt 0.884421 0.949688
vt 0.884421 0.945495
vt 0.886087 0.946319
vt 0.655573 0.949253
vt 0.652930 0.949253
vt 0.652930 0.945495
vt 0.681525 0.945495
vt 0.684168 0.949253
vt 0.681525 0.949253
vt 0.596701 0.950090
vt 0.596701 0.945495
vt 0.598863 0.948569
vt 0.626977 0.950090
vt 0.624815 0.947015
vt 0.626977 0.945495
vt 0.696543 0.567789
vt 0.694685 0.567789
vt 0.694685 0.477588
vt 0.722516 0.245282
vt 0.724375 0.335483
vt 0.722516 0.335483
vt 0.696543 0.245282
vt 0.694685 0.335483
vt 0.694685 0.245282
vt 0.722516 0.103177
vt 0.722516 0.012976
vt 0.724375 0.012976
vt 0.724375 0.361435
vt 0.722516 0.451636
vt 0.722516 0.361435
vt 0.694685 0.683942
vt 0.694685 0.593741
vt 0.696543 0.593741
vt 0.724375 0.219330
vt 0.722516 0.219330
vt 0.722516 0.129129
vt 0.694685 0.361435
vt 0.696543 0.451636
vt 0.694685 0.451636
vt 0.263111 0.981470
vt 0.264969 0.983349
vt 0.263111 0.983349
vt 0.151867 0.983349
vt 0.151867 0.981470
vt 0.153725 0.981470
vt 0.290922 0.983349
vt 0.290922 0.981470
vt 0.292780 0.981470
vt 0.235300 0.981470
vt 0.237158 0.983349
vt 0.235300 0.983349
vt 0.960116 0.738587
vt 0.960116 0.740893
vt 0.957962 0.740118
vt 0.957962 0.627156
vt 0.957962 0.624513
vt 0.959841 0.625820
vt 0.957962 0.795103
vt 0.960116 0.796635
vt 0.957962 0.797409
vt 0.957962 0.769151
vt 0.957962 0.766845
vt 0.960116 0.767619
s 0
usemtl locker
f 805/805/167 806/806/167 807/807/167
f 808/808/167 809/809/167 810/810/167
f 811/811/168 812/812/168 813/813/168
f 814/814/168 815/815/168 816/816/168
f 817/817/169 818/818/169 819/819/169
f 820/820/169 821/821/169 822/822/169
f 823/823/170 824/824/170 825/825/170
f 826/826/170 827/827/170 828/828/170
f 829/829/171 830/830/171 831/831/171
f 832/832/171 833/833/171 834/834/171
f 835/835/172 836/836/172 837/837/172
f 838/838/172 839/839/172 840/840/172
f 841/841/173 842/842/173 843/843/173
f 844/844/173 845/845/173 846/846/173
f 847/847/174 848/848/174 849/849/174
f 850/850/174 851/851/174 852/852/174
f 853/853/175 854/854/175 855/855/175
f 856/856/175 857/857/175 858/858/175
f 859/859/176 860/860/176 861/861/176
f 862/862/176 863/863/176 864/864/176
f 865/865/177 866/866/177 867/867/177
f 868/868/177 869/869/177 870/870/177
f 871/871/178 872/872/178 873/873/178
f 874/874/178 875/875/178 876/876/178
f 877/877/179 878/878/179 879/879/179
f 880/880/179 881/881/179 882/882/179
f 883/883/180 884/884/180 885/885/180
f 886/886/180 887/887/180 888/888/180
f 889/889/181 890/890/181 891/891/181
f 892/892/181 893/893/181 894/894/181
f 895/895/182 896/896/182 897/897/182
f 898/898/182 899/899/182 900/900/182
f 901/901/183 902/902/183 903/903/183
f 904/904/183 905/905/183 906/906/183
f 907/907/184 908/908/184 909/909/184
f 910/910/184 911/911/184 912/912/184
f 913/913/185 914/914/185 915/915/185
f 916/916/186 917/917/186 918/918/186
f 919/919/187 920/920/187 921/921/187
f 922/922/188 923/923/188 924/924/188
f 925/925/189 926/926/189 927/927/189
f 928/928/190 929/929/190 930/930/190
f 931/931/191 932/932/191 933/933/191
f 934/934/192 935/935/192 936/936/192
o vent_0_0
v -0.330000 2.305000 0.440110
v -0.330000 2.305000 0.410439
v -0.330000 2.255000 0.440110
v -0.330000 2.255000 0.410439
v -0.630000 2.305000 0.410439
v -0.630000 2.305000 0.440110
v -0.630000 2.255000 0.410439
v -0.630000 2.255000 0.440110
v -0.630000 2.305000 0.410439
v -0.330000 2.305000 0.410439
v -0.630000 2.305000 0.440110
v -0.330000 2.305000 0.440110
v -0.630000 2.255000 0.440110
v -0.330000 2.255000 0.440110
v -0.630000 2.255000 0.410439
v -0.330000 2.255000 0.410439
v -0.630000 2.305000 0.440110
v -0.330000 2.305000 0.440110
v -0.630000 2.255000 0.440110
v -0.330000 2.255000 0.440110
v -0.330000 2.305000 0.410439
v -0.630000 2.305000 0.410439
v -0.330000 2.255000 0.410439
v -0.630000 2.255000 0.410439
vn 1.0000 -0.0000 -0.0000
vn -1.0000 -0.0000 -0.0000
vn -0.0000 1.0000 -0.0000
vn -0.0000 -1.0000 -0.0000
vn -0.0000 -0.0000 1.0000
vn -0.0000 -0.0000 -1.0000
vt 0.957962 0.250037
vt 0.957962 0.246905
vt 0.959820 0.250037
vt 0.959820 0.246905
vt 0.959821 0.275989
vt 0.959821 0.279121
vt 0.957962 0.275989
vt 0.957962 0.279121
vt 0.705221 0.919542
vt 0.703362 0.919542
vt 0.705221 0.900751
vt 0.703362 0.900751
vt 0.536496 0.900751
vt 0.538355 0.900751
vt 0.536496 0.919542
vt 0.538355 0.919542
vt 0.190615 0.919542
vt 0.187483 0.919542
vt 0.190615 0.900751
vt 0.187483 0.900751
vt 0.219699 0.919542
vt 0.216567 0.919542
vt 0.219699 0.900751
vt 0.216567 0.900751
s 0
usemtl locker
f 937/937/193 939/938/193 938/939/193
f 939/938/193 940/940/193 938/939/193
f 941/941/194 943/942/194 942/943/194
f 943/942/194 944/944/194 942/943/194
f 945/945/195 947/946/195 946/947/195
f 947/946/195 948/948/195 946/947/195
f 949/949/196 951/950/196 950/951/196
f 951/950/196 952/952/196 950/951/196
f 953/953/197 955/954/197 954/955/197
f 955/954/197 956/956/197 954/955/197
f 957/957/198 959/958/198 958/959/198
f 959/958/198 960/960/198 958/959/198
o vent_0_1
v -0.330000 2.415000 0.440110
v -0.330000 2.415000 0.410439
v -0.330000 2.365000 0.440110
v -0.330000 2.365000 0.410439
v -0.630000 2.415000 0.410439
v -0.630000 2.415000 0.440110
v -0.630000 2.365000 0.410439
v -0.630000 2.365000 0.440110
v -0.630000 2.415000 0.410439
v -0.330000 2.415000 0.410439
v -0.630000 2.415000 0.440110
v -0.330000 2.415000 0.440110
v -0.630000 2.365000 0.440110
v -0.330000 2.365000 0.440110
v -0.630000 2.365000 0.410439
v -0.330000 2.365000 0.410439
v -0.630000 2.415000 0.440110
v -0.330000 2.415000 0.440110
v -0.630000 2.365000 0.440110
v -0.330000 2.365000 0.440110
v -0.330000 2.415000 0.410439
v -0.630000 2.415000 0.410439
v -0.330000 2.365000 0.410439
v -0.630000 2.365000 0.410439
vn 1.0000 -0.0000 -0.0000
vn -1.0000 -0.0000 -0.0000
vn -0.0000 1.0000 -0.0000
vn -0.0000 -1.0000 -0.0000
vn -0.0000 -0.0000 1.0000
vn -0.0000 -0.0000 -1.0000
vt 0.957962 0.308205
vt 0.957962 0.305073
vt 0.959820 0.308205
vt 0.959820 0.305073
vt 0.959821 0.334158
vt 0.959821 0.337290
vt 0.957962 0.334158
vt 0.957962 0.337290
vt 0.733032 0.919542
vt 0.731173 0.919542
vt 0.733032 0.900751
vt 0.731173 0.900751
vt 0.564307 0.900751
vt 0.566166 0.900751
vt 0.564307 0.919542
vt 0.566166 0.919542
vt 0.248784 0.919542
vt 0.245652 0.919542
vt 0.248784 0.900751
vt 0.245652 0.900751
vt 0.277868 0.919542
vt 0.274736 0.919542
vt 0.277868 0.900751
vt 0.274736 0.900751
s 0
usemtl locker
f 961/961/199 963/962/199 962/963/199
f 963/962/199 964/964/199 962/963/199
f 965/965/200 967/966/200 966/967/200
f 967/966/200 968/968/200 966/967/200
f 969/969/201 971/970/201 970/971/201
f 971/970/201 972/972/201 970/971/201
f 973/973/202 975/974/202 974/975/202
f 975/974/202 976/976/202 974/975/202
f 977/977/203 979/978/203 978/979/203
f 979/978/203 980/980/203 978/979/203
f 981/981/204 983/982/204 982/983/204
f 983/982/204 984/984/204 982/983/204
o vent_0_2
v -0.330000 2.525000 0.440110
v -0.330000 2.525000 0.410439
v -0.330000 2.475000 0.440110
v -0.330000 2.475000 0.410439
v -0.630000 2.525000 0.410439
v -0.630000 2.525000 0.440110
v -0.630000 2.475000 0.410439
v -0.630000 2.475000 0.440110
v -0.630000 2.525000 0.410439
v -0.330000 2.525000 0.410439
v -0.630000 2.525000 0.440110
v -0.330000 2.525000 0.440110
v -0.630000 2.475000 0.440110
v -0.330000 2.475000 0.440110
v -0.630000 2.475000 0.410439
v -0.330000 2.475000 0.410439
v -0.630000 2.525000 0.440110
v -0.330000 2.525000 0.440110
v -0.630000 2.475000 0.440110
v -0.330000 2.475000 0.440110
v -0.330000 2.525000 0.410439
v -0.630000 2.525000 0.410439
v -0.330000 2.475000 0.410439
v -0.630000 2.475000 0.410439
vn 1.0000 -0.0000 -0.0000
vn -1.0000 -0.0000 -0.0000
vn -0.0000 1.0000 -0.0000
vn -0.0000 -1.0000 -0.0000
vn -0.0000 -0.0000 1.0000
vn -0.0000 -0.0000 -1.0000
vt 0.957962 0.075530
vt 0.957962 0.072398
vt 0.959820 0.075530
vt 0.959820 0.072398
vt 0.959820 0.101482
vt 0.959820 0.104614
vt 0.957962 0.101482
vt 0.957962 0.104614
vt 0.760843 0.919542
vt 0.758984 0.919542
vt 0.760843 0.900751
vt 0.758984 0.900751
vt 0.592118 0.900751
vt 0.593977 0.900751
vt 0.592118 0.919542
vt 0.593977 0.919542
vt 0.016108 0.919542
vt 0.012976 0.919542
vt 0.016108 0.900751
vt 0.012976 0.900751
vt 0.045193 0.919542
vt 0.042061 0.919542
vt 0.045193 0.900751
vt 0.042061 0.900751
s 0
usemtl locker
f 985/985/205 987/986/205 986/987/205
f 987/986/205 988/988/205 986/987/205
f 989/989/206 991/990/206 990/991/206
f 991/990/206 992/992/206 990/991/206
f 993/993/207 995/994/207 994/995/207
f 995/994/207 996/996/207 994/995/207
f 997/997/208 999/998/208 998/999/208
f 999/998/208 1000/1000/208 998/999/208
f 1001/1001/209 1003/1002/209 1002/1003/209
f 1003/1002/209 1004/1004/209 1002/1003/209
f 1005/1005/210 1007/1006/210 1006/1007/210
f 1007/1006/210 1008/1008/210 1006/1007/210
o vent_1_0
v 0.150000 2.305000 0.440110
v 0.150000 2.305000 0.410439
v 0.150000 2.255000 0.440110
v 0.150000 2.255000 0.410439
v -0.150000 2.305000 0.410439
v -0.150000 2.305000 0.440110
v -0.150000 2.255000 0.410439
v -0.150000 2.255000 0.440110
v -0.150000 2.305000 0.410439
v 0.150000 2.305000 0.410439
v -0.150000 2.305000 0.440110
v 0.150000 2.305000 0.440110
v -0.150000 2.255000 0.440110
v 0.150000 2.255000 0.440110
v -0.150000 2.255000 0.410439
v 0.150000 2.255000 0.410439
v -0.150000 2.305000 0.440110
v 0.150000 2.305000 0.440110
v -0.150000 2.255000 0.440110
v 0.150000 2.255000 0.440110
v 0.150000 2.305000 0.410439
v -0.150000 2.305000 0.410439
v 0.150000 2.255000 0.410439
v -0.150000 2.255000 0.410439
vn 1.0000 -0.0000 -0.0000
vn -1.0000 -0.0000 -0.0000
vn -0.0000 1.0000 -0.0000
vn -0.0000 -1.0000 -0.0000
vn -0.0000 -0.0000 1.0000
vn -0.0000 -0.0000 -1.0000
vt 0.957962 0.366374
vt 0.957962 0.363242
vt 0.959820 0.366374
vt 0.959820 0.363242
vt 0.959821 0.392327
vt 0.959821 0.395459
vt 0.957962 0.392327
vt 0.957962 0.395459
vt 0.788654 0.919542
vt 0.786795 0.919542
vt 0.788654 0.900751
vt 0.786795 0.900751
vt 0.814606 0.900751
vt 0.816465 0.900751
vt 0.814606 0.919542
vt 0.816465 0.919542
vt 0.306953 0.919542
vt 0.303821 0.919542
vt 0.306953 0.900751
vt 0.303821 0.900751
vt 0.336037 0.919542
vt 0.332905 0.919542
vt 0.336037 0.900751
vt 0.332905 0.900751
s 0
usemtl locker
f 1009/1009/211 1011/1010/211 1010/1011/211
f 1011/1010/211 1012/1012/211 1010/1011/211
f 1013/1013/212 1015/1014/212 1014/1015/212
f 1015/1014/212 1016/1016/212 1014/1015/212
f 1017/1017/213 1019/1018/213 1018/1019/213
f 1019/1018/213 1020/1020/213 1018/1019/213
f 1021/1021/214 1023/1022/214 1022/1023/214
f 1023/1022/214 1024/1024/214 1022/1023/214
f 1025/1025/215 1027/1026/215 1026/1027/215
f 1027/1026/215 1028/1028/215 1026/1027/215
f 1029/1029/216 1031/1030/216 1030/1031/216
f 1031/1030/216 1032/1032/216 1030/1031/216
o vent_1_1
v 0.150000 2.415000 0.440110
v 0.150000 2.415000 0.410439
v 0.150000 2.365000 0.440110
v 0.150000 2.365000 0.410439
v -0.150000 2.415000 0.410439
v -0.150000 2.415000 0.440110
v -0.150000 2.365000 0.410439
v -0.150000 2.365000 0.440110
v -0.150000 2.415000 0.410439
v 0.150000 2.415000 0.410439
v -0.150000 2.415000 0.440110
v 0.150000 2.415000 0.440110
v -0.150000 2.365000 0.440110
v 0.150000 2.365000 0.440110
v -0.150000 2.365000 0.410439
v 0.150000 2.365000 0.410439
v -0.150000 2.415000 0.440110
v 0.150000 2.415000 0.440110
v -0.150000 2.365000 0.440110
v 0.150000 2.365000 0.440110
v 0.150000 2.415000 0.410439
v -0.150000 2.415000 0.410439
v 0.150000 2.365000 0.410439
v -0.150000 2.365000 0.410439
vn 1.0000 -0.0000 -0.0000
vn -1.0000 -0.0000 -0.0000
vn -0.0000 1.0000 -0.0000
vn -0.0000 -1.0000 -0.0000
vn -0.0000 -0.0000 1.0000
vn -0.0000 -0.0000 -1.0000
vt 0.957962 0.424543
vt 0.957962 0.421411
vt 0.959820 0.424543
vt 0.959820 0.421411
vt 0.959821 0.450496
vt 0.959821 0.453628
vt 0.957962 0.450496
vt 0.957962 0.453628
vt 0.844276 0.919542
vt 0.842417 0.919542
vt 0.844276 0.900751
vt 0.842417 0.900751
vt 0.870228 0.900751
vt 0.872087 0.900751
vt 0.870228 0.919542
vt 0.872087 0.919542
vt 0.365121 0.919542
vt 0.361989 0.919542
vt 0.365121 0.900751
vt 0.361989 0.900751
vt 0.394206 0.919542
vt 0.391074 0.919542
vt 0.394206 0.900751
vt 0.391074 0.900751
s 0
usemtl locker
f 1033/1033/217 1035/1034/217 1034/1035/217
f 1035/1034/217 1036/1036/217 1034/1035/217
f 1037/1037/218 1039/1038/218 1038/1039/218
f 1039/1038/218 1040/1040/218 1038/1039/218
f 1041/1041/219 1043/1042/219 1042/1043/219
f 1043/1042/219 1044/1044/219 1042/1043/219
f 1045/1045/220 1047/1046/220 1046/1047/220
f 1047/1046/220 1048/1048/220 1046/1047/220
f 1049/1049/221 1051/1050/221 1050/1051/221
f 1051/1050/221 1052/1052/221 1050/1051/221
f 1053/1053/222 1055/1054/222 1054/1055/222
f 1055/1054/222 1056/1056/222 1054/1055/222
o vent_1_2
v 0.150000 2.525000 0.440110
v 0.150000 2.525000 0.410439
v 0.150000 2.475000 0.440110
v 0.150000 2.475000 0.410439
v -0.150000 2.525000 0.410439
v -0.150000 2.525000 0.440110
v -0.150000 2.475000 0.410439
v -0.150000 2.475000 0.440110
v -0.150000 2.525000 0.410439
v 0.150000 2.525000 0.410439
v -0.150000 2.525000 0.440110
v 0.150000 2.525000 0.440110
v -0.150000 2.475000 0.440110
v 0.150000 2.475000 0.440110
v -0.150000 2.475000 0.410439
v 0.150000 2.475000 0.410439
v -0.150000 2.525000 0.440110
v 0.150000 2.525000 0.440110
v -0.150000 2.475000 0.440110
v 0.150000 2.475000 0.440110
v 0.150000 2.525000 0.410439
v -0.150000 2.525000 0.410439
v 0.150000 2.475000 0.410439
v -0.150000 2.475000 0.410439
vn 1.0000 -0.0000 -0.0000
vn -1.0000 -0.0000 -0.0000
vn -0.0000 1.0000 -0.0000
vn -0.0000 -1.0000 -0.0000
vn -0.0000 -0.0000 1.0000
vn -0.0000 -0.0000 -1.0000
vt 0.957962 0.133699
vt 0.957962 0.130567
vt 0.959820 0.133699
vt 0.959820 0.130567
vt 0.959820 0.159651
vt 0.959820 0.162783
vt 0.957962 0.159651
vt 0.957962 0.162783
vt 0.927604 0.031768
vt 0.925746 0.031768
vt 0.927604 0.012976
vt 0.925746 0.012976
vt 0.925746 0.057720
vt 0.927604 0.057720
vt 0.925746 0.076512
vt 0.927604 0.076512
vt 0.074277 0.919542
vt 0.071145 0.919542
vt 0.074277 0.900751
vt 0.071145 0.900751
vt 0.103362 0.919542
vt 0.100230 0.919542
vt 0.103362 0.900751
vt 0.100230 0.900751
s 0
usemtl locker
f 1057/1057/223 1059/1058/223 1058/1059/223
f 1059/1058/223 1060/1060/223 1058/1059/223
f 1061/1061/224 1063/1062/224 1062/1063/224
f 1063/1062/224 1064/1064/224 1062/1063/224
f 1065/1065/225 1067/1066/225 1066/1067/225
f 1067/1066/225 1068/1068/225 1066/1067/225
f 1069/1069/226 1071/1070/226 1070/1071/226
f 1071/1070/226 1072/1072/226 1070/1071/226
f 1073/1073/227 1075/1074/227 1074/1075/227
f 1075/1074/227 1076/1076/227 1074/1075/227
f 1077/1077/228 1079/1078/228 1078/1079/228
f 1079/1078/228 1080/1080/228 1078/1079/228
o vent_2_0
v 0.630000 2.305000 0.440110
v 0.630000 2.305000 0.410439
v 0.630000 2.255000 0.440110
v 0.630000 2.255000 0.410439
v 0.330000 2.305000 0.410439
v 0.330000 2.305000 0.440110
v 0.330000 2.255000 0.410439
v 0.330000 2.255000 0.440110
v 0.330000 2.305000 0.410439
v 0.630000 2.305000 0.410439
v 0.330000 2.305000 0.440110
v 0.630000 2.305000 0.440110
v 0.330000 2.255000 0.440110
v 0.630000 2.255000 0.440110
v 0.330000 2.255000 0.410439
v 0.630000 2.255000 0.410439
v 0.330000 2.305000 0.440110
v 0.630000 2.305000 0.440110
v 0.330000 2.255000 0.440110
v 0.630000 2.255000 0.440110
v 0.630000 2.305000 0.410439
v 0.330000 2.305000 0.410439
v 0.630000 2.255000 0.410439
v 0.330000 2.255000 0.410439
vn 1.0000 -0.0000 -0.0000
vn -1.0000 -0.0000 -0.0000
vn -0.0000 1.0000 -0.0000
vn -0.0000 -1.0000 -0.0000
vn -0.0000 -0.0000 1.0000
vn -0.0000 -0.0000 -1.0000
vt 0.957962 0.482712
vt 0.957962 0.479580
vt 0.959820 0.482712
vt 0.959820 0.479580
vt 0.959821 0.508664
vt 0.959821 0.511796
vt 0.957962 0.508664
vt 0.957962 0.511796
vt 0.621788 0.919542
vt 0.619929 0.919542
vt 0.621788 0.900751
vt 0.619929 0.900751
vt 0.925746 0.102465
vt 0.927604 0.102465
vt 0.925746 0.121257
vt 0.927604 0.121257
vt 0.423290 0.919542
vt 0.420158 0.919542
vt 0.423290 0.900751
vt 0.420158 0.900751
vt 0.452375 0.919542
vt 0.449243 0.919542
vt 0.452375 0.900751
vt 0.449243 0.900751
s 0
usemtl locker
f 1081/1081/229 1083/1082/229 1082/1083/229
f 1083/1082/229 1084/1084/229 1082/1083/229
f 1085/1085/230 1087/1086/230 1086/1087/230
f 1087/1086/230 1088/1088/230 1086/1087/230
f 1089/1089/231 1091/1090/231 1090/1091/231
f 1091/1090/231 1092/1092/231 1090/1091/231
f 1093/1093/232 1095/1094/232 1094/1095/232
f 1095/1094/232 1096/1096/232 1094/1095/232
f 1097/1097/233 1099/1098/233 1098/1099/233
f 1099/1098/233 1100/1100/233 1098/1099/233
f 1101/1101/234 1103/1102/234 1102/1103/234
f 1103/1102/234 1104/1104/234 1102/1103/234
o vent_2_1
v 0.630000 2.415000 0.440110
v 0.630000 2.415000 0.410439
v 0.630000 2.365000 0.440110
v 0.630000 2.365000 0.410439
v 0.330000 2.415000 0.410439
v 0.330000 2.415000 0.440110
v 0.330000 2.365000 0.410439
v 0.330000 2.365000 0.440110
v 0.330000 2.415000 0.410439
v 0.630000 2.415000 0.410439
v 0.330000 2.415000 0.440110
v 0.630000 2.415000 0.440110
v 0.330000 2.365000 0.440110
v 0.630000 2.365000 0.440110
v 0.330000 2.365000 0.410439
v 0.630000 2.365000 0.410439
v 0.330000 2.415000 0.440110
v 0.630000 2.415000 0.440110
v 0.330000 2.365000 0.440110
v 0.630000 2.365000 0.440110
v 0.630000 2.415000 0.410439
v 0.330000 2.415000 0.410439
v 0.630000 2.365000 0.410439
v 0.330000 2.365000 0.410439
vn 1.0000 -0.0000 -0.0000
vn -1.0000 -0.0000 -0.0000
vn -0.0000 1.0000 -0.0000
vn -0.0000 -1.0000 -0.0000
vn -0.0000 -0.0000 1.0000
vn -0.0000 -0.0000 -1.0000
vt 0.957962 0.540881
vt 0.957962 0.537749
vt 0.959820 0.540881
vt 0.959820 0.537749
vt 0.959821 0.566833
vt 0.959821 0.569965
vt 0.957962 0.566833
vt 0.957962 0.569965
vt 0.649599 0.919542
vt 0.647740 0.919542
vt 0.649599 0.900751
vt 0.647740 0.900751
vt 0.925746 0.147209
vt 0.927604 0.147209
vt 0.925746 0.166001
vt 0.927604 0.166001
vt 0.481459 0.919542
vt 0.478327 0.919542
vt 0.481459 0.900751
vt 0.478327 0.900751
vt 0.510544 0.919542
vt 0.507412 0.919542
vt 0.510544 0.900751
vt 0.507412 0.900751
s 0
usemtl locker
f 1105/1105/235 1107/1106/235 1106/1107/235
f 1107/1106/235 1108/1108/235 1106/1107/235
f 1109/1109/236 1111/1110/236 1110/1111/236
f 1111/1110/236 1112/1112/236 1110/1111/236
f 1113/1113/237 1115/1114/237 1114/1115/237
f 1115/1114/237 1116/1116/237 1114/1115/237
f 1117/1117/238 1119/1118/238 1118/1119/238
f 1119/1118/238 1120/1120/238 1118/1119/238
f 1121/1121/239 1123/1122/239 1122/1123/239
f 1123/1122/239 1124/1124/239 1122/1123/239
f 1125/1125/240 1127/1126/240 1126/1127/240
f 1127/1126/240 1128/1128/240 1126/1127/240
o vent_2_2
v 0.630000 2.525000 0.440110
v 0.630000 2.525000 0.410439
v 0.630000 2.475000 0.440110
v 0.630000 2.475000 0.410439
v 0.330000 2.525000 0.410439
v 0.330000 2.525000 0.440110
v 0.330000 2.475000 0.410439
v 0.330000 2.475000 0.440110
v 0.330000 2.525000 0.410439
v 0.630000 2.525000 0.410439
v 0.330000 2.525000 0.440110
v 0.630000 2.525000 0.440110
v 0.330000 2.475000 0.440110
v 0.630000 2.475000 0.440110
v 0.330000 2.475000 0.410439
v 0.630000 2.475000 0.410439
v 0.330000 2.525000 0.440110
v 0.630000 2.525000 0.440110
v 0.330000 2.475000 0.440110
v 0.630000 2.475000 0.440110
v 0.630000 2.525000 0.410439
v 0.330000 2.525000 0.410439
v 0.630000 2.475000 0.410439
v 0.330000 2.475000 0.410439
vn 1.0000 -0.0000 -0.0000
vn -1.0000 -0.0000 -0.0000
vn -0.0000 1.0000 -0.0000
vn -0.0000 -1.0000 -0.0000
vn -0.0000 -0.0000 1.0000
vn -0.0000 -0.0000 -1.0000
vt 0.957962 0.191868
vt 0.957962 0.188736
vt 0.959820 0.191868
vt 0.959820 0.188736
vt 0.959820 0.217820
vt 0.959820 0.220952
vt 0.957962 0.217820
vt 0.957962 0.220952
vt 0.677410 0.919542
vt 0.675551 0.919542
vt 0.677410 0.900751
vt 0.675551 0.900751
vt 0.925746 0.191953
vt 0.927604 0.191953
vt 0.925746 0.210745
vt 0.927604 0.210745
vt 0.132446 0.919542
vt 0.129314 0.919542
vt 0.132446 0.900751
vt 0.129314 0.900751
vt 0.161530 0.919542
vt 0.158398 0.919542
vt 0.161530 0.900751
vt 0.158398 0.900751
s 0
usemtl locker
f 1129/1129/241 1131/1130/241 1130/1131/241
f 1131/1130/241 1132/1132/241 1130/1131/241
f 1133/1133/242 1135/1134/242 1134/1135/242
f 1135/1134/242 1136/1136/242 1134/1135/242
f 1137/1137/243 1139/1138/243 1138/1139/243
f 1139/1138/243 1140/1140/243 1138/1139/243
f 1141/1141/244 1143/1142/244 1142/1143/244
f 1143/1142/244 1144/1144/244 1142/1143/244
f 1145/1145/245 1147/1146/245 1146/1147/245
f 1147/1146/245 1148/1148/245 1146/1147/245
f 1149/1149/246 1151/1150/246 1150/1151/246
f 1151/1150/246 1152/1152/246 1150/1151/246
