# Blender 4.2.23 LTS
# www.blender.org
mtllib ramp_to_train.mtl
o deck_edge
v 0.704348 0.219278 4.923330
v 0.704348 0.219278 4.766412
v 0.704348 0.119606 4.923330
v 0.704348 0.119606 4.766412
v -0.704348 0.219278 4.766412
v -0.704348 0.219278 4.923330
v -0.704348 0.119606 4.766412
v -0.704348 0.119606 4.923330
v -0.704348 0.219278 4.766412
v 0.704348 0.219278 4.766412
v -0.704348 0.219278 4.923330
v 0.704348 0.219278 4.923330
v -0.704348 0.119606 4.923330
v 0.704348 0.119606 4.923330
v -0.704348 0.119606 4.766412
v 0.704348 0.119606 4.766412
v -0.704348 0.219278 4.923330
v 0.704348 0.219278 4.923330
v -0.704348 0.119606 4.923330
v 0.704348 0.119606 4.923330
v 0.704348 0.219278 4.766412
v -0.704348 0.219278 4.766412
v 0.704348 0.119606 4.766412
v -0.704348 0.119606 4.766412
vn 1.0000 -0.0000 -0.0000
vn -1.0000 -0.0000 -0.0000
vn -0.0000 1.0000 -0.0000
vn -0.0000 -1.0000 -0.0000
vn -0.0000 -0.0000 1.0000
vn -0.0000 -0.0000 -1.0000
vt 0.919299 0.961875
vt 0.922710 0.961875
vt 0.919299 0.967246
vt 0.922710 0.967246
vt 0.892443 0.970276
vt 0.889031 0.970276
vt 0.892443 0.964906
vt 0.889031 0.964906
vt 0.401098 0.836119
vt 0.395727 0.836119
vt 0.401098 0.787905
vt 0.395727 0.787905
vt 0.424671 0.787905
vt 0.430042 0.787905
vt 0.424671 0.836119
vt 0.430042 0.836119
vt 0.171871 0.877804
vt 0.168460 0.877804
vt 0.171871 0.829589
vt 0.168460 0.829589
vt 0.234986 0.878312
vt 0.231575 0.878312
vt 0.234986 0.830097
vt 0.231575 0.830097
s 0
usemtl ramp_to_train
f 1/1/1 3/2/1 2/3/1
f 3/2/1 4/4/1 2/3/1
f 5/5/2 7/6/2 6/7/2
f 7/6/2 8/8/2 6/7/2
f 9/9/3 11/10/3 10/11/3
f 11/10/3 12/12/3 10/11/3
f 13/13/4 15/14/4 14/15/4
f 15/14/4 16/16/4 14/15/4
f 17/17/5 19/18/5 18/19/5
f 19/18/5 20/20/5 18/19/5
f 21/21/6 23/22/6 22/23/6
f 23/22/6 24/24/6 22/23/6
o hazard_0
v 0.704348 0.418122 4.486217
v 0.704348 0.547483 4.178015
v 0.704348 0.335210 4.452524
v 0.704348 0.464571 4.144322
v -0.704348 0.547483 4.178015
v -0.704348 0.418122 4.486217
v -0.704348 0.464571 4.144322
v -0.704348 0.335210 4.452524
v -0.704348 0.547483 4.178015
v 0.704348 0.547483 4.178015
v -0.704348 0.418122 4.486217
v 0.704348 0.418122 4.486217
v -0.704348 0.335210 4.452524
v 0.704348 0.335210 4.452524
v -0.704348 0.464571 4.144322
v 0.704348 0.464571 4.144322
v -0.704348 0.418122 4.486217
v 0.704348 0.418122 4.486217
v -0.704348 0.335210 4.452524
v 0.704348 0.335210 4.452524
v 0.704348 0.547483 4.178015
v -0.704348 0.547483 4.178015
v 0.704348 0.464571 4.144322
v -0.704348 0.464571 4.144322
vn 1.0000 -0.0000 -0.0000
vn -1.0000 -0.0000 -0.0000
vn -0.0000 0.9221 0.3870
vn -0.0000 -0.9221 -0.3870
vn -0.0000 -0.3765 0.9264
vn -0.0000 0.3765 -0.9264
vt 0.741465 0.939980
vt 0.744528 0.939945
vt 0.741465 0.951420
vt 0.744528 0.951385
vt 0.045231 0.949908
vt 0.042168 0.949873
vt 0.045231 0.938468
vt 0.042168 0.938433
vt 0.296799 0.805854
vt 0.285359 0.805854
vt 0.296799 0.757640
vt 0.285359 0.757640
vt 0.168460 0.757801
vt 0.179900 0.757801
vt 0.168460 0.806016
vt 0.179900 0.806016
vt 0.889031 0.851418
vt 0.892095 0.851418
vt 0.889031 0.899633
vt 0.892095 0.899633
vt 0.081753 0.852184
vt 0.084816 0.852184
vt 0.081753 0.900399
vt 0.084816 0.900399
s 0
usemtl ramp_to_train
f 25/25/7 27/26/7 26/27/7
f 27/26/7 28/28/7 26/27/7
f 29/29/8 31/30/8 30/31/8
f 31/30/8 32/32/8 30/31/8
f 33/33/9 35/34/9 34/35/9
f 35/34/9 36/36/9 34/35/9
f 37/37/10 39/38/10 38/39/10
f 39/38/10 40/40/10 38/39/10
f 41/41/11 43/42/11 42/43/11
f 43/42/11 44/44/11 42/43/11
f 45/45/12 47/46/12 46/47/12
f 47/46/12 48/48/12 46/47/12
o hazard_1
v 0.704348 0.689807 3.838927
v 0.704348 0.819168 3.530725
v 0.704348 0.606896 3.805233
v 0.704348 0.736256 3.497031
v -0.704348 0.819168 3.530725
v -0.704348 0.689807 3.838927
v -0.704348 0.736256 3.497031
v -0.704348 0.606896 3.805233
v -0.704348 0.819168 3.530725
v 0.704348 0.819168 3.530725
v -0.704348 0.689807 3.838927
v 0.704348 0.689807 3.838927
v -0.704348 0.606896 3.805233
v 0.704348 0.606896 3.805233
v -0.704348 0.736256 3.497031
v 0.704348 0.736256 3.497031
v -0.704348 0.689807 3.838927
v 0.704348 0.689807 3.838927
v -0.704348 0.606896 3.805233
v 0.704348 0.606896 3.805233
v 0.704348 0.819168 3.530725
v -0.704348 0.819168 3.530725
v 0.704348 0.736256 3.497031
v -0.704348 0.736256 3.497031
vn 1.0000 -0.0000 -0.0000
vn -1.0000 -0.0000 -0.0000
vn -0.0000 0.9221 0.3870
vn -0.0000 -0.9221 -0.3870
vn -0.0000 -0.3765 0.9264
vn -0.0000 0.3765 -0.9264
vt 0.949568 0.744819
vt 0.952631 0.744784
vt 0.949568 0.756259
vt 0.952631 0.756224
vt 0.952631 0.791307
vt 0.949568 0.791272
vt 0.952631 0.779867
vt 0.949568 0.779832
vt 0.626858 0.835050
vt 0.615418 0.835050
vt 0.626858 0.786835
vt 0.615418 0.786835
vt 0.741465 0.787892
vt 0.752905 0.787892
vt 0.741465 0.836106
vt 0.752905 0.836106
vt 0.258559 0.830097
vt 0.261623 0.830097
vt 0.258559 0.878312
vt 0.261623 0.878312
vt 0.575144 0.837830
vt 0.578207 0.837830
vt 0.575144 0.886044
vt 0.578207 0.886044
s 0
usemtl ramp_to_train
f 49/49/13 51/50/13 50/51/13
f 51/50/13 52/52/13 50/51/13
f 53/53/14 55/54/14 54/55/14
f 55/54/14 56/56/14 54/55/14
f 57/57/15 59/58/15 58/59/15
f 59/58/15 60/60/15 58/59/15
f 61/61/16 63/62/16 62/63/16
f 63/62/16 64/64/16 62/63/16
f 65/65/17 67/66/17 66/67/17
f 67/66/17 68/68/17 66/67/17
f 69/69/18 71/70/18 70/71/18
f 71/70/18 72/72/18 70/71/18
o hazard_2
v 0.704348 0.961493 3.191637
v 0.704348 1.090853 2.883435
v 0.704348 0.878581 3.157943
v 0.704348 1.007942 2.849741
v -0.704348 1.090853 2.883435
v -0.704348 0.961493 3.191637
v -0.704348 1.007942 2.849741
v -0.704348 0.878581 3.157943
v -0.704348 1.090853 2.883435
v 0.704348 1.090853 2.883435
v -0.704348 0.961493 3.191637
v 0.704348 0.961493 3.191637
v -0.704348 0.878581 3.157943
v 0.704348 0.878581 3.157943
v -0.704348 1.007942 2.849741
v 0.704348 1.007942 2.849741
v -0.704348 0.961493 3.191637
v 0.704348 0.961493 3.191637
v -0.704348 0.878581 3.157943
v 0.704348 0.878581 3.157943
v 0.704348 1.090853 2.883435
v -0.704348 1.090853 2.883435
v 0.704348 1.007942 2.849741
v -0.704348 1.007942 2.849741
vn 1.0000 -0.0000 -0.0000
vn -1.0000 -0.0000 -0.0000
vn -0.0000 0.9221 0.3870
vn -0.0000 -0.9221 -0.3870
vn -0.0000 -0.3765 0.9264
vn -0.0000 0.3765 -0.9264
vt 0.337018 0.938726
vt 0.340081 0.938691
vt 0.337018 0.950166
vt 0.340081 0.950132
vt 0.952631 0.826356
vt 0.949568 0.826321
vt 0.952631 0.814916
vt 0.949568 0.814881
vt 0.787918 0.836106
vt 0.776478 0.836106
vt 0.787918 0.787892
vt 0.776478 0.787892
vt 0.811491 0.787892
vt 0.822931 0.787892
vt 0.811491 0.836106
vt 0.822931 0.836106
vt 0.466697 0.835631
vt 0.469761 0.835631
vt 0.466697 0.883846
vt 0.469761 0.883846
vt 0.493334 0.835631
vt 0.496397 0.835631
vt 0.493334 0.883846
vt 0.496397 0.883846
s 0
usemtl ramp_to_train
f 73/73/19 75/74/19 74/75/19
f 75/74/19 76/76/19 74/75/19
f 77/77/20 79/78/20 78/79/20
f 79/78/20 80/80/20 78/79/20
f 81/81/21 83/82/21 82/83/21
f 83/82/21 84/84/21 82/83/21
f 85/85/22 87/86/22 86/87/22
f 87/86/22 88/88/22 86/87/22
f 89/89/23 91/90/23 90/91/23
f 91/90/23 92/92/23 90/91/23
f 93/93/24 95/94/24 94/95/24
f 95/94/24 96/96/24 94/95/24
o hazard_3
v 0.704348 1.233178 2.544346
v 0.704348 1.362538 2.236144
v 0.704348 1.150266 2.510653
v 0.704348 1.279627 2.202451
v -0.704348 1.362538 2.236144
v -0.704348 1.233178 2.544346
v -0.704348 1.279627 2.202451
v -0.704348 1.150266 2.510653
v -0.704348 1.362538 2.236144
v 0.704348 1.362538 2.236144
v -0.704348 1.233178 2.544346
v 0.704348 1.233178 2.544346
v -0.704348 1.150266 2.510653
v 0.704348 1.150266 2.510653
v -0.704348 1.279627 2.202451
v 0.704348 1.279627 2.202451
v -0.704348 1.233178 2.544346
v 0.704348 1.233178 2.544346
v -0.704348 1.150266 2.510653
v 0.704348 1.150266 2.510653
v 0.704348 1.362538 2.236144
v -0.704348 1.362538 2.236144
v 0.704348 1.279627 2.202451
v -0.704348 1.279627 2.202451
vn 1.0000 -0.0000 -0.0000
vn -1.0000 -0.0000 -0.0000
vn -0.0000 0.9221 0.3870
vn -0.0000 -0.9221 -0.3870
vn -0.0000 -0.3765 0.9264
vn -0.0000 0.3765 -0.9264
vt 0.615418 0.939007
vt 0.618481 0.938972
vt 0.615418 0.950447
vt 0.618481 0.950412
vt 0.771164 0.951420
vt 0.768101 0.951385
vt 0.771164 0.939980
vt 0.768101 0.939945
vt 0.531921 0.814001
vt 0.520481 0.814001
vt 0.531921 0.765786
vt 0.520481 0.765786
vt 0.575144 0.766042
vt 0.586584 0.766042
vt 0.575144 0.814256
vt 0.586584 0.814256
vt 0.520481 0.837574
vt 0.523544 0.837574
vt 0.520481 0.885789
vt 0.523544 0.885789
vt 0.108389 0.852184
vt 0.111452 0.852184
vt 0.108389 0.900399
vt 0.111452 0.900399
s 0
usemtl ramp_to_train
f 97/97/25 99/98/25 98/99/25
f 99/98/25 100/100/25 98/99/25
f 101/101/26 103/102/26 102/103/26
f 103/102/26 104/104/26 102/103/26
f 105/105/27 107/106/27 106/107/27
f 107/106/27 108/108/27 106/107/27
f 109/109/28 111/110/28 110/111/28
f 111/110/28 112/112/28 110/111/28
f 113/113/29 115/114/29 114/115/29
f 115/114/29 116/116/29 114/115/29
f 117/117/30 119/118/30 118/119/30
f 119/118/30 120/120/30 118/119/30
o hazard_4
v 0.704348 1.504863 1.897056
v 0.704348 1.634223 1.588853
v 0.704348 1.421951 1.863362
v 0.704348 1.551312 1.555160
v -0.704348 1.634223 1.588853
v -0.704348 1.504863 1.897056
v -0.704348 1.551312 1.555160
v -0.704348 1.421951 1.863362
v -0.704348 1.634223 1.588853
v 0.704348 1.634223 1.588853
v -0.704348 1.504863 1.897056
v 0.704348 1.504863 1.897056
v -0.704348 1.421951 1.863362
v 0.704348 1.421951 1.863362
v -0.704348 1.551312 1.555160
v 0.704348 1.551312 1.555160
v -0.704348 1.504863 1.897056
v 0.704348 1.504863 1.897056
v -0.704348 1.421951 1.863362
v 0.704348 1.421951 1.863362
v 0.704348 1.634223 1.588853
v -0.704348 1.634223 1.588853
v 0.704348 1.551312 1.555160
v -0.704348 1.551312 1.555160
vn 1.0000 -0.0000 -0.0000
vn -1.0000 -0.0000 -0.0000
vn -0.0000 0.9221 0.3870
vn -0.0000 -0.9221 -0.3870
vn -0.0000 -0.3765 0.9264
vn -0.0000 0.3765 -0.9264
vt 0.794737 0.939980
vt 0.797800 0.939945
vt 0.794737 0.951420
vt 0.797800 0.951385
vt 0.952631 0.721211
vt 0.949568 0.721176
vt 0.952631 0.709771
vt 0.949568 0.709736
vt 0.661871 0.833413
vt 0.650431 0.833413
vt 0.661871 0.785198
vt 0.650431 0.785198
vt 0.685445 0.785198
vt 0.696885 0.785198
vt 0.685445 0.833413
vt 0.696885 0.833413
vt 0.547118 0.837574
vt 0.550181 0.837574
vt 0.547118 0.885789
vt 0.550181 0.885789
vt 0.650431 0.856986
vt 0.653494 0.856986
vt 0.650431 0.905201
vt 0.653494 0.905201
s 0
usemtl ramp_to_train
f 121/121/31 123/122/31 122/123/31
f 123/122/31 124/124/31 122/123/31
f 125/125/32 127/126/32 126/127/32
f 127/126/32 128/128/32 126/127/32
f 129/129/33 131/130/33 130/131/33
f 131/130/33 132/132/33 130/131/33
f 133/133/34 135/134/34 134/135/34
f 135/134/34 136/136/34 134/135/34
f 137/137/35 139/138/35 138/139/35
f 139/138/35 140/140/35 138/139/35
f 141/141/36 143/142/36 142/143/36
f 143/142/36 144/144/36 142/143/36
o kick_l
v -0.900000 0.059803 4.266232
v -0.900000 0.338884 4.795834
v -0.900000 0.338884 4.266232
v -0.900000 0.059803 4.266232
v -0.900000 0.059803 4.795834
v -0.900000 0.338884 4.795834
v -0.606522 0.059803 4.266232
v -0.606522 0.338884 4.266232
v -0.606522 0.338884 4.795834
v -0.606522 0.059803 4.266232
v -0.606522 0.338884 4.795834
v -0.606522 0.059803 4.795834
v -0.870652 0.029902 4.266232
v -0.635870 0.029902 4.266232
v -0.635870 0.029902 4.795834
v -0.870652 0.029902 4.266232
v -0.635870 0.029902 4.795834
v -0.870652 0.029902 4.795834
v -0.870652 0.368786 4.266232
v -0.635870 0.368786 4.795834
v -0.635870 0.368786 4.266232
v -0.870652 0.368786 4.266232
v -0.870652 0.368786 4.795834
v -0.635870 0.368786 4.795834
v -0.870652 0.059803 4.236810
v -0.635870 0.338884 4.236810
v -0.635870 0.059803 4.236810
v -0.870652 0.059803 4.236810
v -0.870652 0.338884 4.236810
v -0.635870 0.338884 4.236810
v -0.870652 0.059803 4.825256
v -0.635870 0.059803 4.825256
v -0.635870 0.338884 4.825256
v -0.870652 0.059803 4.825256
v -0.635870 0.338884 4.825256
v -0.870652 0.338884 4.825256
v -0.900000 0.059803 4.266232
v -0.870652 0.029902 4.266232
v -0.870652 0.029902 4.795834
v -0.900000 0.059803 4.266232
v -0.870652 0.029902 4.795834
v -0.900000 0.059803 4.795834
v -0.900000 0.338884 4.266232
v -0.870652 0.368786 4.795834
v -0.870652 0.368786 4.266232
v -0.900000 0.338884 4.266232
v -0.900000 0.338884 4.795834
v -0.870652 0.368786 4.795834
v -0.606522 0.059803 4.266232
v -0.635870 0.029902 4.795834
v -0.635870 0.029902 4.266232
v -0.606522 0.059803 4.266232
v -0.606522 0.059803 4.795834
v -0.635870 0.029902 4.795834
v -0.606522 0.338884 4.266232
v -0.635870 0.368786 4.266232
v -0.635870 0.368786 4.795834
v -0.606522 0.338884 4.266232
v -0.635870 0.368786 4.795834
v -0.606522 0.338884 4.795834
v -0.900000 0.059803 4.266232
v -0.870652 0.338884 4.236810
v -0.870652 0.059803 4.236810
v -0.900000 0.059803 4.266232
v -0.900000 0.338884 4.266232
v -0.870652 0.338884 4.236810
v -0.900000 0.059803 4.795834
v -0.870652 0.059803 4.825256
v -0.870652 0.338884 4.825256
v -0.900000 0.059803 4.795834
v -0.870652 0.338884 4.825256
v -0.900000 0.338884 4.795834
v -0.606522 0.059803 4.266232
v -0.635870 0.059803 4.236810
v -0.635870 0.338884 4.236810
v -0.606522 0.059803 4.266232
v -0.635870 0.338884 4.236810
v -0.606522 0.338884 4.266232
v -0.606522 0.059803 4.795834
v -0.635870 0.338884 4.825256
v -0.635870 0.059803 4.825256
v -0.606522 0.059803 4.795834
v -0.606522 0.338884 4.795834
v -0.635870 0.338884 4.825256
v -0.870652 0.029902 4.266232
v -0.870652 0.059803 4.236810
v -0.635870 0.059803 4.236810
v -0.870652 0.029902 4.266232
v -0.635870 0.059803 4.236810
v -0.635870 0.029902 4.266232
v -0.870652 0.029902 4.795834
v -0.635870 0.059803 4.825256
v -0.870652 0.059803 4.825256
v -0.870652 0.029902 4.795834
v -0.635870 0.029902 4.795834
v -0.635870 0.059803 4.825256
v -0.870652 0.368786 4.266232
v -0.635870 0.338884 4.236810
v -0.870652 0.338884 4.236810
v -0.870652 0.368786 4.266232
v -0.635870 0.368786 4.266232
v -0.635870 0.338884 4.236810
v -0.870652 0.368786 4.795834
v -0.870652 0.338884 4.825256
v -0.635870 0.338884 4.825256
v -0.870652 0.368786 4.795834
v -0.635870 0.338884 4.825256
v -0.635870 0.368786 4.795834
v -0.900000 0.059803 4.266232
v -0.870652 0.059803 4.236810
v -0.870652 0.029902 4.266232
v -0.900000 0.059803 4.795834
v -0.870652 0.029902 4.795834
v -0.870652 0.059803 4.825256
v -0.900000 0.338884 4.266232
v -0.870652 0.368786 4.266232
v -0.870652 0.338884 4.236810
v -0.900000 0.338884 4.795834
v -0.870652 0.338884 4.825256
v -0.870652 0.368786 4.795834
v -0.606522 0.059803 4.266232
v -0.635870 0.029902 4.266232
v -0.635870 0.059803 4.236810
v -0.606522 0.059803 4.795834
v -0.635870 0.059803 4.825256
v -0.635870 0.029902 4.795834
v -0.606522 0.338884 4.266232
v -0.635870 0.338884 4.236810
v -0.635870 0.368786 4.266232
v -0.606522 0.338884 4.795834
v -0.635870 0.368786 4.795834
v -0.635870 0.338884 4.825256
vn -1.0000 -0.0000 -0.0000
vn 1.0000 -0.0000 -0.0000
vn -0.0000 -1.0000 -0.0000
vn -0.0000 1.0000 -0.0000
vn -0.0000 -0.0000 -1.0000
vn -0.0000 -0.0000 1.0000
vn -0.7137 -0.7005 -0.0000
vn -0.7137 0.7005 -0.0000
vn 0.7137 -0.7005 -0.0000
vn 0.7137 0.7005 -0.0000
vn -0.7080 -0.0000 -0.7062
vn -0.7080 -0.0000 0.7062
vn 0.7080 -0.0000 -0.7062
vn 0.7080 -0.0000 0.7062
vn -0.0000 -0.7014 -0.7128
vn -0.0000 -0.7014 0.7128
vn -0.0000 0.7014 -0.7128
vn -0.0000 0.7014 0.7128
vn -0.5814 -0.5706 -0.5799
vn -0.5814 -0.5706 0.5799
vn -0.5814 0.5706 -0.5799
vn -0.5814 0.5706 0.5799
vn 0.5814 -0.5706 -0.5799
vn 0.5814 -0.5706 0.5799
vn 0.5814 0.5706 -0.5799
vn 0.5814 0.5706 0.5799
vt 0.615418 0.879112
vt 0.615418 0.858623
vt 0.623868 0.874659
vt 0.404178 0.880182
vt 0.395727 0.864146
vt 0.404178 0.859693
vt 0.749915 0.880169
vt 0.741465 0.875715
vt 0.749915 0.859679
vt 0.427751 0.880182
vt 0.427751 0.859693
vt 0.436201 0.864146
vt 0.853851 0.880177
vt 0.846505 0.876920
vt 0.853851 0.860349
vt 0.176496 0.919503
vt 0.168460 0.901377
vt 0.176496 0.901377
vt 0.263184 0.914598
vt 0.271219 0.901885
vt 0.271219 0.914598
vt 0.294793 0.914598
vt 0.294793 0.901885
vt 0.302828 0.901885
vt 0.106350 0.923972
vt 0.113158 0.932008
vt 0.106350 0.932008
vt 0.208002 0.935260
vt 0.201193 0.935260
vt 0.201193 0.927225
vt 0.846505 0.946068
vt 0.846505 0.938032
vt 0.853313 0.938032
vt 0.269992 0.938171
vt 0.263184 0.946207
vt 0.263184 0.938171
vt 0.914632 0.351948
vt 0.913609 0.351948
vt 0.913609 0.333822
vt 0.702688 0.928896
vt 0.701664 0.910770
vt 0.702688 0.910770
vt 0.371130 0.920217
vt 0.372154 0.902091
vt 0.372154 0.920217
vt 0.466697 0.925545
vt 0.466697 0.907419
vt 0.467721 0.907419
vt 0.142288 0.931486
vt 0.143311 0.913360
vt 0.143311 0.931486
vt 0.938204 0.310220
vt 0.938204 0.292093
vt 0.939227 0.292093
vt 0.372154 0.878517
vt 0.371132 0.878460
vt 0.372154 0.860362
vt 0.492317 0.925545
vt 0.491294 0.907419
vt 0.492317 0.907419
vt 0.492301 0.949118
vt 0.491294 0.958670
vt 0.491294 0.949118
vt 0.949568 0.958856
vt 0.949568 0.949304
vt 0.950575 0.949304
vt 0.822380 0.949497
vt 0.821373 0.949497
vt 0.821373 0.939945
vt 0.949568 0.849929
vt 0.950575 0.859481
vt 0.949568 0.859481
vt 0.521488 0.960613
vt 0.520481 0.960613
vt 0.520481 0.951061
vt 0.545078 0.951061
vt 0.546085 0.960613
vt 0.545078 0.960613
vt 0.950576 0.883054
vt 0.949568 0.892606
vt 0.949568 0.883054
vt 0.949568 0.925731
vt 0.949568 0.916179
vt 0.950575 0.916179
vt 0.968458 0.233301
vt 0.969458 0.233426
vt 0.968458 0.241399
vt 0.082752 0.965672
vt 0.082752 0.973770
vt 0.081753 0.973645
vt 0.968458 0.114712
vt 0.968458 0.106613
vt 0.969457 0.114587
vt 0.969457 0.146384
vt 0.968458 0.138410
vt 0.969457 0.138285
vt 0.202629 0.958833
vt 0.201193 0.966869
vt 0.201193 0.958833
vt 0.968458 0.019822
vt 0.968458 0.011787
vt 0.969894 0.011787
vt 0.143724 0.963095
vt 0.142288 0.963095
vt 0.142288 0.955059
vt 0.106350 0.955581
vt 0.107785 0.963617
vt 0.106350 0.963617
vt 0.677067 0.985594
vt 0.678074 0.985594
vt 0.677067 0.986618
vt 0.949568 0.983453
vt 0.949568 0.982429
vt 0.950575 0.983453
vt 0.976204 0.810217
vt 0.976204 0.808976
vt 0.977366 0.809820
vt 0.864419 0.763228
vt 0.865423 0.762522
vt 0.865423 0.763958
vt 0.701664 0.986618
vt 0.701664 0.985594
vt 0.702671 0.986618
vt 0.520481 0.984187
vt 0.521488 0.984187
vt 0.520481 0.985210
vt 0.977366 0.760588
vt 0.976205 0.760190
vt 0.977366 0.759347
vt 0.938961 0.376527
vt 0.937957 0.377257
vt 0.937957 0.375821
s 0
usemtl ramp_to_train
f 145/145/37 146/146/37 147/147/37
f 148/148/37 149/149/37 150/150/37
f 151/151/38 152/152/38 153/153/38
f 154/154/38 155/155/38 156/156/38
f 157/157/39 158/158/39 159/159/39
f 160/160/39 161/161/39 162/162/39
f 163/163/40 164/164/40 165/165/40
f 166/166/40 167/167/40 168/168/40
f 169/169/41 170/170/41 171/171/41
f 172/172/41 173/173/41 174/174/41
f 175/175/42 176/176/42 177/177/42
f 178/178/42 179/179/42 180/180/42
f 181/181/43 182/182/43 183/183/43
f 184/184/43 185/185/43 186/186/43
f 187/187/44 188/188/44 189/189/44
f 190/190/44 191/191/44 192/192/44
f 193/193/45 194/194/45 195/195/45
f 196/196/45 197/197/45 198/198/45
f 199/199/46 200/200/46 201/201/46
f 202/202/46 203/203/46 204/204/46
f 205/205/47 206/206/47 207/207/47
f 208/208/47 209/209/47 210/210/47
f 211/211/48 212/212/48 213/213/48
f 214/214/48 215/215/48 216/216/48
f 217/217/49 218/218/49 219/219/49
f 220/220/49 221/221/49 222/222/49
f 223/223/50 224/224/50 225/225/50
f 226/226/50 227/227/50 228/228/50
f 229/229/51 230/230/51 231/231/51
f 232/232/51 233/233/51 234/234/51
f 235/235/52 236/236/52 237/237/52
f 238/238/52 239/239/52 240/240/52
f 241/241/53 242/242/53 243/243/53
f 244/244/53 245/245/53 246/246/53
f 247/247/54 248/248/54 249/249/54
f 250/250/54 251/251/54 252/252/54
f 253/253/55 254/254/55 255/255/55
f 256/256/56 257/257/56 258/258/56
f 259/259/57 260/260/57 261/261/57
f 262/262/58 263/263/58 264/264/58
f 265/265/59 266/266/59 267/267/59
f 268/268/60 269/269/60 270/270/60
f 271/271/61 272/272/61 273/273/61
f 274/274/62 275/275/62 276/276/62
o kick_r
v 0.606522 0.059803 4.266232
v 0.606522 0.338884 4.795834
v 0.606522 0.338884 4.266232
v 0.606522 0.059803 4.266232
v 0.606522 0.059803 4.795834
v 0.606522 0.338884 4.795834
v 0.900000 0.059803 4.266232
v 0.900000 0.338884 4.266232
v 0.900000 0.338884 4.795834
v 0.900000 0.059803 4.266232
v 0.900000 0.338884 4.795834
v 0.900000 0.059803 4.795834
v 0.635870 0.029902 4.266232
v 0.870652 0.029902 4.266232
v 0.870652 0.029902 4.795834
v 0.635870 0.029902 4.266232
v 0.870652 0.029902 4.795834
v 0.635870 0.029902 4.795834
v 0.635870 0.368786 4.266232
v 0.870652 0.368786 4.795834
v 0.870652 0.368786 4.266232
v 0.635870 0.368786 4.266232
v 0.635870 0.368786 4.795834
v 0.870652 0.368786 4.795834
v 0.635870 0.059803 4.236810
v 0.870652 0.338884 4.236810
v 0.870652 0.059803 4.236810
v 0.635870 0.059803 4.236810
v 0.635870 0.338884 4.236810
v 0.870652 0.338884 4.236810
v 0.635870 0.059803 4.825256
v 0.870652 0.059803 4.825256
v 0.870652 0.338884 4.825256
v 0.635870 0.059803 4.825256
v 0.870652 0.338884 4.825256
v 0.635870 0.338884 4.825256
v 0.606522 0.059803 4.266232
v 0.635870 0.029902 4.266232
v 0.635870 0.029902 4.795834
v 0.606522 0.059803 4.266232
v 0.635870 0.029902 4.795834
v 0.606522 0.059803 4.795834
v 0.606522 0.338884 4.266232
v 0.635870 0.368786 4.795834
v 0.635870 0.368786 4.266232
v 0.606522 0.338884 4.266232
v 0.606522 0.338884 4.795834
v 0.635870 0.368786 4.795834
v 0.900000 0.059803 4.266232
v 0.870652 0.029902 4.795834
v 0.870652 0.029902 4.266232
v 0.900000 0.059803 4.266232
v 0.900000 0.059803 4.795834
v 0.870652 0.029902 4.795834
v 0.900000 0.338884 4.266232
v 0.870652 0.368786 4.266232
v 0.870652 0.368786 4.795834
v 0.900000 0.338884 4.266232
v 0.870652 0.368786 4.795834
v 0.900000 0.338884 4.795834
v 0.606522 0.059803 4.266232
v 0.635870 0.338884 4.236810
v 0.635870 0.059803 4.236810
v 0.606522 0.059803 4.266232
v 0.606522 0.338884 4.266232
v 0.635870 0.338884 4.236810
v 0.606522 0.059803 4.795834
v 0.635870 0.059803 4.825256
v 0.635870 0.338884 4.825256
v 0.606522 0.059803 4.795834
v 0.635870 0.338884 4.825256
v 0.606522 0.338884 4.795834
v 0.900000 0.059803 4.266232
v 0.870652 0.059803 4.236810
v 0.870652 0.338884 4.236810
v 0.900000 0.059803 4.266232
v 0.870652 0.338884 4.236810
v 0.900000 0.338884 4.266232
v 0.900000 0.059803 4.795834
v 0.870652 0.338884 4.825256
v 0.870652 0.059803 4.825256
v 0.900000 0.059803 4.795834
v 0.900000 0.338884 4.795834
v 0.870652 0.338884 4.825256
v 0.635870 0.029902 4.266232
v 0.635870 0.059803 4.236810
v 0.870652 0.059803 4.236810
v 0.635870 0.029902 4.266232
v 0.870652 0.059803 4.236810
v 0.870652 0.029902 4.266232
v 0.635870 0.029902 4.795834
v 0.870652 0.059803 4.825256
v 0.635870 0.059803 4.825256
v 0.635870 0.029902 4.795834
v 0.870652 0.029902 4.795834
v 0.870652 0.059803 4.825256
v 0.635870 0.368786 4.266232
v 0.870652 0.338884 4.236810
v 0.635870 0.338884 4.236810
v 0.635870 0.368786 4.266232
v 0.870652 0.368786 4.266232
v 0.870652 0.338884 4.236810
v 0.635870 0.368786 4.795834
v 0.635870 0.338884 4.825256
v 0.870652 0.338884 4.825256
v 0.635870 0.368786 4.795834
v 0.870652 0.338884 4.825256
v 0.870652 0.368786 4.795834
v 0.606522 0.059803 4.266232
v 0.635870 0.059803 4.236810
v 0.635870 0.029902 4.266232
v 0.606522 0.059803 4.795834
v 0.635870 0.029902 4.795834
v 0.635870 0.059803 4.825256
v 0.606522 0.338884 4.266232
v 0.635870 0.368786 4.266232
v 0.635870 0.338884 4.236810
v 0.606522 0.338884 4.795834
v 0.635870 0.338884 4.825256
v 0.635870 0.368786 4.795834
v 0.900000 0.059803 4.266232
v 0.870652 0.029902 4.266232
v 0.870652 0.059803 4.236810
v 0.900000 0.059803 4.795834
v 0.870652 0.059803 4.825256
v 0.870652 0.029902 4.795834
v 0.900000 0.338884 4.266232
v 0.870652 0.338884 4.236810
v 0.870652 0.368786 4.266232
v 0.900000 0.338884 4.795834
v 0.870652 0.368786 4.795834
v 0.870652 0.338884 4.825256
vn -1.0000 -0.0000 -0.0000
vn 1.0000 -0.0000 -0.0000
vn -0.0000 -1.0000 -0.0000
vn -0.0000 1.0000 -0.0000
vn -0.0000 -0.0000 -1.0000
vn -0.0000 -0.0000 1.0000
vn -0.7137 -0.7005 -0.0000
vn -0.7137 0.7005 -0.0000
vn 0.7137 -0.7005 -0.0000
vn 0.7137 0.7005 -0.0000
vn -0.7080 -0.0000 -0.7062
vn -0.7080 -0.0000 0.7062
vn 0.7080 -0.0000 -0.7062
vn 0.7080 -0.0000 0.7062
vn -0.0000 -0.7014 -0.7128
vn -0.0000 -0.7014 0.7128
vn -0.0000 0.7014 -0.7128
vn -0.0000 0.7014 0.7128
vn -0.5814 -0.5706 -0.5799
vn -0.5814 -0.5706 0.5799
vn -0.5814 0.5706 -0.5799
vn -0.5814 0.5706 0.5799
vn 0.5814 -0.5706 -0.5799
vn 0.5814 -0.5706 0.5799
vn 0.5814 0.5706 -0.5799
vn 0.5814 0.5706 0.5799
vt 0.773488 0.880169
vt 0.773488 0.859679
vt 0.781939 0.875715
vt 0.020237 0.880578
vt 0.011787 0.864542
vt 0.020237 0.860089
vt 0.813962 0.880169
vt 0.805512 0.875716
vt 0.813962 0.859679
vt 0.043810 0.880578
vt 0.043810 0.860088
vt 0.052261 0.864542
vt 0.345054 0.878832
vt 0.337018 0.878832
vt 0.337018 0.860705
vt 0.239611 0.920011
vt 0.231575 0.901885
vt 0.239611 0.901885
vt 0.337018 0.915118
vt 0.345054 0.902405
vt 0.345054 0.915118
vt 0.615418 0.915399
vt 0.615418 0.902685
vt 0.623454 0.902685
vt 0.395727 0.938037
vt 0.402536 0.946072
vt 0.395727 0.946072
vt 0.432917 0.946072
vt 0.426109 0.946072
vt 0.426109 0.938037
vt 0.294793 0.946207
vt 0.294793 0.938171
vt 0.301601 0.938171
vt 0.018595 0.938433
vt 0.011787 0.946468
vt 0.011787 0.938433
vt 0.521505 0.927488
vt 0.520481 0.927488
vt 0.520481 0.909362
vt 0.939229 0.351948
vt 0.938206 0.333822
vt 0.939229 0.333822
vt 0.545078 0.927488
vt 0.546101 0.909362
vt 0.546101 0.927488
vt 0.575144 0.927744
vt 0.575144 0.909617
vt 0.576167 0.909617
vt 0.889031 0.941332
vt 0.890055 0.923206
vt 0.890055 0.941332
vt 0.081753 0.942098
vt 0.081753 0.923972
vt 0.082776 0.923972
vt 0.914631 0.310248
vt 0.913609 0.310191
vt 0.914631 0.292093
vt 0.678091 0.928896
vt 0.677068 0.910770
vt 0.678091 0.910770
vt 0.576151 0.951317
vt 0.575144 0.960869
vt 0.575144 0.951317
vt 0.677067 0.962021
vt 0.677067 0.952469
vt 0.678074 0.952469
vt 0.169467 0.952628
vt 0.168460 0.952628
vt 0.168460 0.943076
vt 0.231575 0.943584
vt 0.232582 0.953136
vt 0.231575 0.953136
vt 0.702671 0.962021
vt 0.701664 0.962021
vt 0.701664 0.952469
vt 0.962801 0.292093
vt 0.963808 0.301645
vt 0.962801 0.301645
vt 0.372138 0.943790
vt 0.371130 0.953342
vt 0.371130 0.943790
vt 0.466697 0.958670
vt 0.466697 0.949118
vt 0.467704 0.949118
vt 0.974150 0.401262
vt 0.975149 0.401387
vt 0.974150 0.409360
vt 0.975149 0.432933
vt 0.975149 0.441032
vt 0.974150 0.440907
vt 0.968458 0.178056
vt 0.968458 0.169957
vt 0.969457 0.177930
vt 0.969457 0.209727
vt 0.968458 0.201754
vt 0.969457 0.201629
vt 0.969894 0.043396
vt 0.968458 0.051431
vt 0.968458 0.043396
vt 0.968458 0.083040
vt 0.968458 0.075004
vt 0.969894 0.075004
vt 0.964238 0.341857
vt 0.962802 0.341857
vt 0.962802 0.333822
vt 0.962802 0.365431
vt 0.964238 0.373466
vt 0.962802 0.373466
vt 0.142288 0.986668
vt 0.143295 0.986668
vt 0.142288 0.987692
vt 0.545078 0.985210
vt 0.545078 0.984187
vt 0.546085 0.985210
vt 0.168460 0.977443
vt 0.168460 0.976202
vt 0.169622 0.977045
vt 0.968458 0.265679
vt 0.969463 0.264972
vt 0.969463 0.266408
vt 0.106350 0.988213
vt 0.106350 0.987190
vt 0.107357 0.988213
vt 0.575144 0.984442
vt 0.576151 0.984442
vt 0.575144 0.985465
vt 0.977366 0.785403
vt 0.976205 0.785005
vt 0.977366 0.784161
vt 0.914384 0.376527
vt 0.913379 0.377257
vt 0.913379 0.375821
s 0
usemtl ramp_to_train
f 277/277/63 278/278/63 279/279/63
f 280/280/63 281/281/63 282/282/63
f 283/283/64 284/284/64 285/285/64
f 286/286/64 287/287/64 288/288/64
f 289/289/65 290/290/65 291/291/65
f 292/292/65 293/293/65 294/294/65
f 295/295/66 296/296/66 297/297/66
f 298/298/66 299/299/66 300/300/66
f 301/301/67 302/302/67 303/303/67
f 304/304/67 305/305/67 306/306/67
f 307/307/68 308/308/68 309/309/68
f 310/310/68 311/311/68 312/312/68
f 313/313/69 314/314/69 315/315/69
f 316/316/69 317/317/69 318/318/69
f 319/319/70 320/320/70 321/321/70
f 322/322/70 323/323/70 324/324/70
f 325/325/71 326/326/71 327/327/71
f 328/328/71 329/329/71 330/330/71
f 331/331/72 332/332/72 333/333/72
f 334/334/72 335/335/72 336/336/72
f 337/337/73 338/338/73 339/339/73
f 340/340/73 341/341/73 342/342/73
f 343/343/74 344/344/74 345/345/74
f 346/346/74 347/347/74 348/348/74
f 349/349/75 350/350/75 351/351/75
f 352/352/75 353/353/75 354/354/75
f 355/355/76 356/356/76 357/357/76
f 358/358/76 359/359/76 360/360/76
f 361/361/77 362/362/77 363/363/77
f 364/364/77 365/365/77 366/366/77
f 367/367/78 368/368/78 369/369/78
f 370/370/78 371/371/78 372/372/78
f 373/373/79 374/374/79 375/375/79
f 376/376/79 377/377/79 378/378/79
f 379/379/80 380/380/80 381/381/80
f 382/382/80 383/383/80 384/384/80
f 385/385/81 386/386/81 387/387/81
f 388/388/82 389/389/82 390/390/82
f 391/391/83 392/392/83 393/393/83
f 394/394/84 395/395/84 396/396/84
f 397/397/85 398/398/85 399/399/85
f 400/400/86 401/401/86 402/402/86
f 403/403/87 404/404/87 405/405/87
f 406/406/88 407/407/88 408/408/88
o rail_l
v -0.880435 4.267016 -4.972806
v -0.880435 0.567062 4.972806
v -0.880435 4.672362 -4.808081
v -0.880435 4.267016 -4.972806
v -0.880435 0.161716 4.808081
v -0.880435 0.567062 4.972806
v -0.626087 4.267016 -4.972806
v -0.626087 4.672362 -4.808081
v -0.626087 0.567062 4.972806
v -0.626087 4.267016 -4.972806
v -0.626087 0.567062 4.972806
v -0.626087 0.161716 4.808081
v -0.851087 4.239379 -4.984037
v -0.655435 4.239379 -4.984037
v -0.655435 0.134079 4.796849
v -0.851087 4.239379 -4.984037
v -0.655435 0.134079 4.796849
v -0.851087 0.134079 4.796849
v -0.851087 4.699999 -4.796850
v -0.655435 0.594700 4.984036
v -0.655435 4.699999 -4.796850
v -0.851087 4.699999 -4.796850
v -0.851087 0.594700 4.984036
v -0.655435 0.594700 4.984036
v -0.851087 4.278430 -5.000000
v -0.655435 4.683776 -4.835276
v -0.655435 4.278430 -5.000000
v -0.851087 4.278430 -5.000000
v -0.851087 4.683776 -4.835276
v -0.655435 4.683776 -4.835276
v -0.851087 0.150302 4.835275
v -0.655435 0.150302 4.835275
v -0.655435 0.555648 5.000000
v -0.851087 0.150302 4.835275
v -0.655435 0.555648 5.000000
v -0.851087 0.555648 5.000000
v -0.880435 4.267016 -4.972806
v -0.851087 4.239379 -4.984037
v -0.851087 0.134079 4.796849
v -0.880435 4.267016 -4.972806
v -0.851087 0.134079 4.796849
v -0.880435 0.161716 4.808081
v -0.880435 4.672362 -4.808081
v -0.851087 0.594700 4.984036
v -0.851087 4.699999 -4.796850
v -0.880435 4.672362 -4.808081
v -0.880435 0.567062 4.972806
v -0.851087 0.594700 4.984036
v -0.626087 4.267016 -4.972806
v -0.655435 0.134079 4.796849
v -0.655435 4.239379 -4.984037
v -0.626087 4.267016 -4.972806
v -0.626087 0.161716 4.808081
v -0.655435 0.134079 4.796849
v -0.626087 4.672362 -4.808081
v -0.655435 4.699999 -4.796850
v -0.655435 0.594700 4.984036
v -0.626087 4.672362 -4.808081
v -0.655435 0.594700 4.984036
v -0.626087 0.567062 4.972806
v -0.880435 4.267016 -4.972806
v -0.851087 4.683776 -4.835276
v -0.851087 4.278430 -5.000000
v -0.880435 4.267016 -4.972806
v -0.880435 4.672362 -4.808081
v -0.851087 4.683776 -4.835276
v -0.880435 0.161716 4.808081
v -0.851087 0.150302 4.835275
v -0.851087 0.555648 5.000000
v -0.880435 0.161716 4.808081
v -0.851087 0.555648 5.000000
v -0.880435 0.567062 4.972806
v -0.626087 4.267016 -4.972806
v -0.655435 4.278430 -5.000000
v -0.655435 4.683776 -4.835276
v -0.626087 4.267016 -4.972806
v -0.655435 4.683776 -4.835276
v -0.626087 4.672362 -4.808081
v -0.626087 0.161716 4.808081
v -0.655435 0.555648 5.000000
v -0.655435 0.150302 4.835275
v -0.626087 0.161716 4.808081
v -0.626087 0.567062 4.972806
v -0.655435 0.555648 5.000000
v -0.851087 4.239379 -4.984037
v -0.851087 4.278430 -5.000000
v -0.655435 4.278430 -5.000000
v -0.851087 4.239379 -4.984037
v -0.655435 4.278430 -5.000000
v -0.655435 4.239379 -4.984037
v -0.851087 0.134079 4.796849
v -0.655435 0.150302 4.835275
v -0.851087 0.150302 4.835275
v -0.851087 0.134079 4.796849
v -0.655435 0.134079 4.796849
v -0.655435 0.150302 4.835275
v -0.851087 4.699999 -4.796850
v -0.655435 4.683776 -4.835276
v -0.851087 4.683776 -4.835276
v -0.851087 4.699999 -4.796850
v -0.655435 4.699999 -4.796850
v -0.655435 4.683776 -4.835276
v -0.851087 0.594700 4.984036
v -0.851087 0.555648 5.000000
v -0.655435 0.555648 5.000000
v -0.851087 0.594700 4.984036
v -0.655435 0.555648 5.000000
v -0.655435 0.594700 4.984036
v -0.880435 4.267016 -4.972806
v -0.851087 4.278430 -5.000000
v -0.851087 4.239379 -4.984037
v -0.880435 0.161716 4.808081
v -0.851087 0.134079 4.796849
v -0.851087 0.150302 4.835275
v -0.880435 4.672362 -4.808081
v -0.851087 4.699999 -4.796850
v -0.851087 4.683776 -4.835276
v -0.880435 0.567062 4.972806
v -0.851087 0.555648 5.000000
v -0.851087 0.594700 4.984036
v -0.626087 4.267016 -4.972806
v -0.655435 4.239379 -4.984037
v -0.655435 4.278430 -5.000000
v -0.626087 0.161716 4.808081
v -0.655435 0.150302 4.835275
v -0.655435 0.134079 4.796849
v -0.626087 4.672362 -4.808081
v -0.655435 4.683776 -4.835276
v -0.655435 4.699999 -4.796850
v -0.626087 0.567062 4.972806
v -0.655435 0.594700 4.984036
v -0.655435 0.555648 5.000000
vn -1.0000 -0.0000 -0.0000
vn 1.0000 -0.0000 -0.0000
vn -0.0000 -0.9221 -0.3870
vn -0.0000 0.9221 0.3870
vn -0.0000 0.3765 -0.9264
vn -0.0000 -0.3765 0.9264
vn -0.7128 -0.6467 -0.2714
vn -0.7128 0.6467 0.2714
vn 0.7128 -0.6467 -0.2714
vn 0.7128 0.6467 0.2714
vn -0.7088 0.2656 -0.6535
vn -0.7088 -0.2656 0.6535
vn 0.7088 0.2656 -0.6535
vn 0.7088 -0.2656 0.6535
vn -0.0000 -0.3784 -0.9256
vn -0.0000 -0.9213 0.3889
vn -0.0000 0.9213 -0.3889
vn -0.0000 0.3784 0.9256
vn -0.5792 -0.3084 -0.7546
vn -0.5836 -0.7481 0.3158
vn -0.5836 0.7481 -0.3158
vn -0.5792 0.3084 0.7546
vn 0.5792 -0.3085 -0.7546
vn 0.5836 -0.7481 0.3158
vn 0.5836 0.7481 -0.3158
vn 0.5792 0.3085 0.7546
vt 0.625839 0.374982
vt 0.625839 0.011787
vt 0.640808 0.374535
vt 0.211141 0.734066
vt 0.207002 0.371033
vt 0.221977 0.371033
vt 0.717891 0.374982
vt 0.702923 0.374535
vt 0.717891 0.011787
vt 0.294935 0.734067
vt 0.284099 0.371033
vt 0.299074 0.371033
vt 0.018481 0.836515
vt 0.011787 0.836341
vt 0.018481 0.579695
vt 0.112020 0.828611
vt 0.112020 0.571790
vt 0.118715 0.571965
vt 0.913609 0.268520
vt 0.920306 0.011787
vt 0.920306 0.268520
vt 0.919299 0.657995
vt 0.919299 0.401262
vt 0.925995 0.401262
vt 0.853201 0.903750
vt 0.846505 0.914459
vt 0.846505 0.903750
vt 0.018483 0.904151
vt 0.018483 0.914859
vt 0.011787 0.914859
vt 0.741465 0.903742
vt 0.747142 0.907292
vt 0.741465 0.916372
vt 0.776393 0.903742
vt 0.776393 0.916372
vt 0.770716 0.912821
vt 0.411821 0.764332
vt 0.410800 0.764317
vt 0.411821 0.401261
vt 0.650431 0.761625
vt 0.650431 0.398555
vt 0.651452 0.398569
vt 0.741465 0.764307
vt 0.742486 0.401262
vt 0.742486 0.764319
vt 0.815247 0.764319
vt 0.815247 0.401261
vt 0.816268 0.401273
vt 0.361612 0.764332
vt 0.361612 0.401262
vt 0.362633 0.764317
vt 0.717891 0.761625
vt 0.716871 0.398569
vt 0.717891 0.398555
vt 0.767063 0.374832
vt 0.766042 0.374844
vt 0.766042 0.011787
vt 0.791674 0.764319
vt 0.790653 0.401273
vt 0.791674 0.401261
vt 0.650431 0.943794
vt 0.650431 0.928774
vt 0.651438 0.943715
vt 0.944885 0.026807
vt 0.943879 0.011866
vt 0.944885 0.011787
vt 0.950576 0.416259
vt 0.949568 0.416203
vt 0.950576 0.401262
vt 0.950407 0.570520
vt 0.949568 0.555546
vt 0.950578 0.555546
vt 0.944885 0.065401
vt 0.943879 0.065322
vt 0.944885 0.050381
vt 0.943879 0.103995
vt 0.943879 0.088975
vt 0.944885 0.089054
vt 0.949568 0.454830
vt 0.949568 0.439833
vt 0.950576 0.454774
vt 0.949739 0.647615
vt 0.949568 0.632641
vt 0.950578 0.632641
vt 0.650431 0.967368
vt 0.651843 0.967672
vt 0.650431 0.974218
vt 0.975561 0.464605
vt 0.975561 0.471455
vt 0.974149 0.471151
vt 0.975576 0.849929
vt 0.974149 0.856625
vt 0.974149 0.849929
vt 0.974149 0.886895
vt 0.974149 0.880199
vt 0.975576 0.880199
vt 0.397155 0.969646
vt 0.395727 0.976342
vt 0.395727 0.969646
vt 0.420728 0.976342
vt 0.420728 0.969646
vt 0.422155 0.969646
vt 0.975595 0.683629
vt 0.974151 0.683629
vt 0.974151 0.676932
vt 0.974151 0.616393
vt 0.975595 0.623089
vt 0.974151 0.623089
vt 0.767383 0.974993
vt 0.767383 0.976225
vt 0.766206 0.975389
vt 0.232734 0.976709
vt 0.232734 0.977947
vt 0.231575 0.977113
vt 0.337018 0.974462
vt 0.338022 0.973740
vt 0.338022 0.975167
vt 0.839841 0.763236
vt 0.840846 0.762522
vt 0.840846 0.763966
vt 0.615418 0.975262
vt 0.615418 0.974020
vt 0.616586 0.974869
vt 0.466697 0.983471
vt 0.466697 0.982243
vt 0.467866 0.983064
vt 0.822377 0.973792
vt 0.821373 0.974498
vt 0.821373 0.973070
vt 0.977382 0.735774
vt 0.976205 0.735378
vt 0.977382 0.734541
s 0
usemtl ramp_to_train
f 409/409/89 410/410/89 411/411/89
f 412/412/89 413/413/89 414/414/89
f 415/415/90 416/416/90 417/417/90
f 418/418/90 419/419/90 420/420/90
f 421/421/91 422/422/91 423/423/91
f 424/424/91 425/425/91 426/426/91
f 427/427/92 428/428/92 429/429/92
f 430/430/92 431/431/92 432/432/92
f 433/433/93 434/434/93 435/435/93
f 436/436/93 437/437/93 438/438/93
f 439/439/94 440/440/94 441/441/94
f 442/442/94 443/443/94 444/444/94
f 445/445/95 446/446/95 447/447/95
f 448/448/95 449/449/95 450/450/95
f 451/451/96 452/452/96 453/453/96
f 454/454/96 455/455/96 456/456/96
f 457/457/97 458/458/97 459/459/97
f 460/460/97 461/461/97 462/462/97
f 463/463/98 464/464/98 465/465/98
f 466/466/98 467/467/98 468/468/98
f 469/469/99 470/470/99 471/471/99
f 472/472/99 473/473/99 474/474/99
f 475/475/100 476/476/100 477/477/100
f 478/478/100 479/479/100 480/480/100
f 481/481/101 482/482/101 483/483/101
f 484/484/101 485/485/101 486/486/101
f 487/487/102 488/488/102 489/489/102
f 490/490/102 491/491/102 492/492/102
f 493/493/103 494/494/103 495/495/103
f 496/496/103 497/497/103 498/498/103
f 499/499/104 500/500/104 501/501/104
f 502/502/104 503/503/104 504/504/104
f 505/505/105 506/506/105 507/507/105
f 508/508/105 509/509/105 510/510/105
f 511/511/106 512/512/106 513/513/106
f 514/514/106 515/515/106 516/516/106
f 517/517/107 518/518/107 519/519/107
f 520/520/108 521/521/108 522/522/108
f 523/523/109 524/524/109 525/525/109
f 526/526/110 527/527/110 528/528/110
f 529/529/111 530/530/111 531/531/111
f 532/532/112 533/533/112 534/534/112
f 535/535/113 536/536/113 537/537/113
f 538/538/114 539/539/114 540/540/114
o rail_r
v 0.626087 4.267016 -4.972806
v 0.626087 0.567062 4.972806
v 0.626087 4.672362 -4.808081
v 0.626087 4.267016 -4.972806
v 0.626087 0.161716 4.808081
v 0.626087 0.567062 4.972806
v 0.880435 4.267016 -4.972806
v 0.880435 4.672362 -4.808081
v 0.880435 0.567062 4.972806
v 0.880435 4.267016 -4.972806
v 0.880435 0.567062 4.972806
v 0.880435 0.161716 4.808081
v 0.655435 4.239379 -4.984037
v 0.851087 4.239379 -4.984037
v 0.851087 0.134079 4.796849
v 0.655435 4.239379 -4.984037
v 0.851087 0.134079 4.796849
v 0.655435 0.134079 4.796849
v 0.655435 4.699999 -4.796850
v 0.851087 0.594700 4.984036
v 0.851087 4.699999 -4.796850
v 0.655435 4.699999 -4.796850
v 0.655435 0.594700 4.984036
v 0.851087 0.594700 4.984036
v 0.655435 4.278430 -5.000000
v 0.851087 4.683776 -4.835276
v 0.851087 4.278430 -5.000000
v 0.655435 4.278430 -5.000000
v 0.655435 4.683776 -4.835276
v 0.851087 4.683776 -4.835276
v 0.655435 0.150302 4.835275
v 0.851087 0.150302 4.835275
v 0.851087 0.555648 5.000000
v 0.655435 0.150302 4.835275
v 0.851087 0.555648 5.000000
v 0.655435 0.555648 5.000000
v 0.626087 4.267016 -4.972806
v 0.655435 4.239379 -4.984037
v 0.655435 0.134079 4.796849
v 0.626087 4.267016 -4.972806
v 0.655435 0.134079 4.796849
v 0.626087 0.161716 4.808081
v 0.626087 4.672362 -4.808081
v 0.655435 0.594700 4.984036
v 0.655435 4.699999 -4.796850
v 0.626087 4.672362 -4.808081
v 0.626087 0.567062 4.972806
v 0.655435 0.594700 4.984036
v 0.880435 4.267016 -4.972806
v 0.851087 0.134079 4.796849
v 0.851087 4.239379 -4.984037
v 0.880435 4.267016 -4.972806
v 0.880435 0.161716 4.808081
v 0.851087 0.134079 4.796849
v 0.880435 4.672362 -4.808081
v 0.851087 4.699999 -4.796850
v 0.851087 0.594700 4.984036
v 0.880435 4.672362 -4.808081
v 0.851087 0.594700 4.984036
v 0.880435 0.567062 4.972806
v 0.626087 4.267016 -4.972806
v 0.655435 4.683776 -4.835276
v 0.655435 4.278430 -5.000000
v 0.626087 4.267016 -4.972806
v 0.626087 4.672362 -4.808081
v 0.655435 4.683776 -4.835276
v 0.626087 0.161716 4.808081
v 0.655435 0.150302 4.835275
v 0.655435 0.555648 5.000000
v 0.626087 0.161716 4.808081
v 0.655435 0.555648 5.000000
v 0.626087 0.567062 4.972806
v 0.880435 4.267016 -4.972806
v 0.851087 4.278430 -5.000000
v 0.851087 4.683776 -4.835276
v 0.880435 4.267016 -4.972806
v 0.851087 4.683776 -4.835276
v 0.880435 4.672362 -4.808081
v 0.880435 0.161716 4.808081
v 0.851087 0.555648 5.000000
v 0.851087 0.150302 4.835275
v 0.880435 0.161716 4.808081
v 0.880435 0.567062 4.972806
v 0.851087 0.555648 5.000000
v 0.655435 4.239379 -4.984037
v 0.655435 4.278430 -5.000000
v 0.851087 4.278430 -5.000000
v 0.655435 4.239379 -4.984037
v 0.851087 4.278430 -5.000000
v 0.851087 4.239379 -4.984037
v 0.655435 0.134079 4.796849
v 0.851087 0.150302 4.835275
v 0.655435 0.150302 4.835275
v 0.655435 0.134079 4.796849
v 0.851087 0.134079 4.796849
v 0.851087 0.150302 4.835275
v 0.655435 4.699999 -4.796850
v 0.851087 4.683776 -4.835276
v 0.655435 4.683776 -4.835276
v 0.655435 4.699999 -4.796850
v 0.851087 4.699999 -4.796850
v 0.851087 4.683776 -4.835276
v 0.655435 0.594700 4.984036
v 0.655435 0.555648 5.000000
v 0.851087 0.555648 5.000000
v 0.655435 0.594700 4.984036
v 0.851087 0.555648 5.000000
v 0.851087 0.594700 4.984036
v 0.626087 4.267016 -4.972806
v 0.655435 4.278430 -5.000000
v 0.655435 4.239379 -4.984037
v 0.626087 0.161716 4.808081
v 0.655435 0.134079 4.796849
v 0.655435 0.150302 4.835275
v 0.626087 4.672362 -4.808081
v 0.655435 4.699999 -4.796850
v 0.655435 4.683776 -4.835276
v 0.626087 0.567062 4.972806
v 0.655435 0.555648 5.000000
v 0.655435 0.594700 4.984036
v 0.880435 4.267016 -4.972806
v 0.851087 4.239379 -4.984037
v 0.851087 4.278430 -5.000000
v 0.880435 0.161716 4.808081
v 0.851087 0.150302 4.835275
v 0.851087 0.134079 4.796849
v 0.880435 4.672362 -4.808081
v 0.851087 4.683776 -4.835276
v 0.851087 4.699999 -4.796850
v 0.880435 0.567062 4.972806
v 0.851087 0.594700 4.984036
v 0.851087 0.555648 5.000000
vn -1.0000 -0.0000 -0.0000
vn 1.0000 -0.0000 -0.0000
vn -0.0000 -0.9221 -0.3870
vn -0.0000 0.9221 0.3870
vn -0.0000 0.3765 -0.9264
vn -0.0000 -0.3765 0.9264
vn -0.7128 -0.6467 -0.2714
vn -0.7128 0.6467 0.2714
vn 0.7128 -0.6467 -0.2714
vn 0.7128 0.6467 0.2714
vn -0.7088 0.2656 -0.6535
vn -0.7088 -0.2656 0.6535
vn 0.7088 0.2656 -0.6535
vn 0.7088 -0.2656 0.6535
vn -0.0000 -0.3784 -0.9256
vn -0.0000 -0.9213 0.3889
vn -0.0000 0.9213 -0.3889
vn -0.0000 0.3784 0.9256
vn -0.5792 -0.3085 -0.7546
vn -0.5836 -0.7481 0.3158
vn -0.5836 0.7481 -0.3158
vn -0.5792 0.3085 0.7546
vn 0.5792 -0.3084 -0.7546
vn 0.5836 -0.7481 0.3158
vn 0.5836 0.7481 -0.3158
vn 0.5792 0.3084 0.7546
vt 0.664381 0.374982
vt 0.664381 0.011787
vt 0.679350 0.374535
vt 0.249689 0.734066
vt 0.245550 0.371033
vt 0.260526 0.371033
vt 0.183428 0.734228
vt 0.168460 0.733781
vt 0.183428 0.371033
vt 0.492769 0.739600
vt 0.481933 0.376567
vt 0.496908 0.376567
vt 0.895726 0.658082
vt 0.889031 0.657908
vt 0.895726 0.401261
vt 0.042054 0.836515
vt 0.042054 0.579695
vt 0.048748 0.579869
vt 0.081753 0.828611
vt 0.081753 0.571791
vt 0.088447 0.828437
vt 0.919299 0.938302
vt 0.919299 0.681568
vt 0.925995 0.681568
vt 0.805644 0.903742
vt 0.805644 0.916372
vt 0.799966 0.907292
vt 0.048753 0.904151
vt 0.048753 0.914859
vt 0.042056 0.914859
vt 0.395727 0.903755
vt 0.402424 0.903755
vt 0.402424 0.914464
vt 0.425997 0.903755
vt 0.432693 0.914464
vt 0.425997 0.914464
vt 0.436415 0.764332
vt 0.435394 0.764317
vt 0.436415 0.401261
vt 0.675025 0.761625
vt 0.675025 0.398555
vt 0.676046 0.398569
vt 0.766059 0.764307
vt 0.767080 0.401262
vt 0.767080 0.764319
vt 0.839825 0.374844
vt 0.839825 0.011787
vt 0.840846 0.011798
vt 0.386206 0.764332
vt 0.386206 0.401261
vt 0.387227 0.764317
vt 0.338039 0.764332
vt 0.337018 0.401276
vt 0.338039 0.401262
vt 0.791657 0.374832
vt 0.790636 0.374844
vt 0.790636 0.011787
vt 0.816252 0.374844
vt 0.815231 0.011798
vt 0.816252 0.011787
vt 0.943879 0.142589
vt 0.943879 0.127569
vt 0.944885 0.142510
vt 0.944885 0.181183
vt 0.943879 0.166242
vt 0.944885 0.166163
vt 0.950576 0.493401
vt 0.949568 0.493345
vt 0.950576 0.478404
vt 0.950407 0.609068
vt 0.949568 0.594093
vt 0.950578 0.594093
vt 0.944885 0.219777
vt 0.943879 0.219698
vt 0.944885 0.204757
vt 0.943879 0.258371
vt 0.943879 0.243351
vt 0.944885 0.243430
vt 0.949568 0.531973
vt 0.949568 0.516975
vt 0.950576 0.531916
vt 0.949739 0.686163
vt 0.949568 0.671188
vt 0.950578 0.671188
vt 0.974149 0.495029
vt 0.975561 0.495333
vt 0.974149 0.501879
vt 0.975563 0.555546
vt 0.975563 0.562396
vt 0.974151 0.562092
vt 0.975576 0.910468
vt 0.974149 0.917165
vt 0.974149 0.910468
vt 0.974149 0.947434
vt 0.974149 0.940738
vt 0.975576 0.940738
vt 0.847932 0.969641
vt 0.846505 0.976337
vt 0.846505 0.969641
vt 0.263184 0.976477
vt 0.263184 0.969780
vt 0.264611 0.969780
vt 0.975563 0.592820
vt 0.974151 0.592515
vt 0.975563 0.585969
vt 0.974151 0.646662
vt 0.975595 0.653359
vt 0.974151 0.653359
vt 0.742633 0.976235
vt 0.741465 0.975842
vt 0.742633 0.974993
vt 0.492607 0.983471
vt 0.491439 0.983064
vt 0.492607 0.982243
vt 0.042168 0.974203
vt 0.043173 0.973481
vt 0.043173 0.974909
vt 0.976205 0.710968
vt 0.976205 0.709736
vt 0.977382 0.710572
vt 0.790956 0.974993
vt 0.792133 0.975389
vt 0.790956 0.976225
vt 0.370978 0.976915
vt 0.372138 0.977319
vt 0.370978 0.978152
vt 0.975153 0.971730
vt 0.974149 0.972435
vt 0.974149 0.971007
vt 0.865423 0.373761
vt 0.864419 0.374491
vt 0.864419 0.373047
s 0
usemtl ramp_to_train
f 541/541/115 542/542/115 543/543/115
f 544/544/115 545/545/115 546/546/115
f 547/547/116 548/548/116 549/549/116
f 550/550/116 551/551/116 552/552/116
f 553/553/117 554/554/117 555/555/117
f 556/556/117 557/557/117 558/558/117
f 559/559/118 560/560/118 561/561/118
f 562/562/118 563/563/118 564/564/118
f 565/565/119 566/566/119 567/567/119
f 568/568/119 569/569/119 570/570/119
f 571/571/120 572/572/120 573/573/120
f 574/574/120 575/575/120 576/576/120
f 577/577/121 578/578/121 579/579/121
f 580/580/121 581/581/121 582/582/121
f 583/583/122 584/584/122 585/585/122
f 586/586/122 587/587/122 588/588/122
f 589/589/123 590/590/123 591/591/123
f 592/592/123 593/593/123 594/594/123
f 595/595/124 596/596/124 597/597/124
f 598/598/124 599/599/124 600/600/124
f 601/601/125 602/602/125 603/603/125
f 604/604/125 605/605/125 606/606/125
f 607/607/126 608/608/126 609/609/126
f 610/610/126 611/611/126 612/612/126
f 613/613/127 614/614/127 615/615/127
f 616/616/127 617/617/127 618/618/127
f 619/619/128 620/620/128 621/621/128
f 622/622/128 623/623/128 624/624/128
f 625/625/129 626/626/129 627/627/129
f 628/628/129 629/629/129 630/630/129
f 631/631/130 632/632/130 633/633/130
f 634/634/130 635/635/130 636/636/130
f 637/637/131 638/638/131 639/639/131
f 640/640/131 641/641/131 642/642/131
f 643/643/132 644/644/132 645/645/132
f 646/646/132 647/647/132 648/648/132
f 649/649/133 650/650/133 651/651/133
f 652/652/134 653/653/134 654/654/134
f 655/655/135 656/656/135 657/657/135
f 658/658/136 659/659/136 660/660/136
f 661/661/137 662/662/137 663/663/137
f 664/664/138 665/665/138 666/666/138
f 667/667/139 668/668/139 669/669/139
f 670/670/140 671/671/140 672/672/140
o ramp_body
v 0.743478 0.029902 4.903716
v 0.743478 0.029901 -4.903716
v 0.743478 4.265949 -4.903716
v 0.743478 4.265949 -4.903716
v 0.743478 0.149508 4.903716
v 0.743478 0.029902 4.903716
v -0.743478 4.265949 -4.903716
v -0.743478 0.029901 -4.903716
v -0.743478 0.029902 4.903716
v -0.743478 0.029902 4.903716
v -0.743478 0.149508 4.903716
v -0.743478 4.265949 -4.903716
v 0.743478 0.029902 4.903716
v 0.743478 0.149508 4.903716
v 0.714130 0.000000 4.933138
v 0.743478 0.149508 4.903716
v 0.714130 0.169510 4.933138
v 0.714130 0.000000 4.933138
v 0.714130 0.000000 4.933138
v 0.714130 0.169510 4.933138
v -0.714130 0.000000 4.933138
v 0.714130 0.169510 4.933138
v -0.714130 0.169510 4.933138
v -0.714130 0.000000 4.933138
v -0.714130 0.000000 4.933138
v -0.714130 0.169510 4.933138
v -0.743478 0.029902 4.903716
v -0.714130 0.169510 4.933138
v -0.743478 0.149508 4.903716
v -0.743478 0.029902 4.903716
v 0.743478 0.149508 4.903716
v 0.743478 4.265949 -4.903716
v 0.714130 0.169510 4.933138
v 0.743478 4.265949 -4.903716
v 0.714130 4.301098 -4.926851
v 0.714130 0.169510 4.933138
v 0.714130 0.169510 4.933138
v 0.714130 4.301098 -4.926851
v -0.714130 0.169510 4.933138
v 0.714130 4.301098 -4.926851
v -0.714130 4.301098 -4.926851
v -0.714130 0.169510 4.933138
v -0.714130 0.169510 4.933138
v -0.714130 4.301098 -4.926851
v -0.743478 0.149508 4.903716
v -0.714130 4.301098 -4.926851
v -0.743478 4.265949 -4.903716
v -0.743478 0.149508 4.903716
v 0.743478 4.265949 -4.903716
v 0.743478 0.029901 -4.903716
v 0.714130 4.301098 -4.926851
v 0.743478 0.029901 -4.903716
v 0.714130 -0.000000 -4.933138
v 0.714130 4.301098 -4.926851
v 0.714130 4.301098 -4.926851
v 0.714130 -0.000000 -4.933138
v -0.714130 4.301098 -4.926851
v 0.714130 -0.000000 -4.933138
v -0.714130 -0.000000 -4.933138
v -0.714130 4.301098 -4.926851
v -0.714130 4.301098 -4.926851
v -0.714130 -0.000000 -4.933138
v -0.743478 4.265949 -4.903716
v -0.714130 -0.000000 -4.933138
v -0.743478 0.029901 -4.903716
v -0.743478 4.265949 -4.903716
v 0.743478 0.029901 -4.903716
v 0.743478 0.029902 4.903716
v 0.714130 -0.000000 -4.933138
v 0.743478 0.029902 4.903716
v 0.714130 0.000000 4.933138
v 0.714130 -0.000000 -4.933138
v 0.714130 -0.000000 -4.933138
v 0.714130 0.000000 4.933138
v -0.714130 -0.000000 -4.933138
v 0.714130 0.000000 4.933138
v -0.714130 0.000000 4.933138
v -0.714130 -0.000000 -4.933138
v -0.714130 -0.000000 -4.933138
v -0.714130 0.000000 4.933138
v -0.743478 0.029901 -4.903716
v -0.714130 0.000000 4.933138
v -0.743478 0.029902 4.903716
v -0.743478 0.029901 -4.903716
vn 1.0000 -0.0000 -0.0000
vn -1.0000 -0.0000 -0.0000
vn 0.7080 -0.0000 0.7062
vn -0.0000 -0.0000 1.0000
vn -0.7080 -0.0000 0.7062
vn 0.7128 0.6467 0.2714
vn 0.6247 0.7202 0.3018
vn -0.0000 0.9223 0.3865
vn -0.7127 0.6470 0.2711
vn -0.6243 0.7203 0.3023
vn 0.6191 -0.0000 -0.7853
vn 0.7075 0.0010 -0.7067
vn -0.0000 0.0015 -1.0000
vn -0.6199 0.0011 -0.7847
vn -0.7080 -0.0000 -0.7062
vn 0.7137 -0.7005 -0.0000
vn -0.0000 -1.0000 -0.0000
vn -0.7137 -0.7005 -0.0000
vt 0.313445 0.011787
vt 0.313445 0.347460
vt 0.168460 0.347460
vt 0.551571 0.742213
vt 0.547813 0.378190
vt 0.551571 0.376567
vt 0.144887 0.377433
vt 0.011787 0.319944
vt 0.144887 0.011787
vt 0.520481 0.376567
vt 0.524239 0.378190
vt 0.520481 0.742213
vt 0.889806 0.373240
vt 0.889015 0.377257
vt 0.889015 0.372042
vt 0.975156 0.530569
vt 0.974149 0.531254
vt 0.974149 0.525452
vt 0.366352 0.787905
vt 0.372154 0.787905
vt 0.366352 0.836789
vt 0.342779 0.837132
vt 0.337018 0.788588
vt 0.342779 0.787905
vt 0.288184 0.975582
vt 0.288184 0.969780
vt 0.289192 0.974559
vt 0.011787 0.970042
vt 0.012631 0.970919
vt 0.011787 0.974925
vt 0.626858 0.399221
vt 0.625839 0.763262
vt 0.625839 0.398555
vt 0.742469 0.376493
vt 0.741465 0.377688
vt 0.741465 0.011787
vt 0.458359 0.011787
vt 0.458359 0.377688
vt 0.409475 0.011787
vt 0.385902 0.377688
vt 0.337018 0.377688
vt 0.337018 0.011787
vt 0.576164 0.376567
vt 0.576164 0.742469
vt 0.575144 0.377231
vt 0.600739 0.741806
vt 0.599738 0.740608
vt 0.600739 0.376567
vt 0.890028 0.682864
vt 0.889031 0.827845
vt 0.889031 0.681655
vt 0.143293 0.717977
vt 0.142288 0.719002
vt 0.142288 0.571790
vt 0.130637 0.401006
vt 0.130637 0.548217
vt 0.081753 0.401006
vt 0.058180 0.556122
vt 0.011787 0.540716
vt 0.058180 0.401006
vt 0.143292 0.742575
vt 0.143292 0.889786
vt 0.142288 0.743777
vt 0.208002 0.903651
vt 0.207002 0.902621
vt 0.208002 0.757640
vt 0.889016 0.347458
vt 0.890036 0.011787
vt 0.890036 0.348468
vt 0.839841 0.402268
vt 0.840865 0.401261
vt 0.840865 0.738949
vt 0.481933 0.345990
vt 0.530313 0.011787
vt 0.530313 0.352994
vt 0.553886 0.011787
vt 0.602266 0.018790
vt 0.553886 0.352994
vt 0.864419 0.349474
vt 0.864419 0.011787
vt 0.865442 0.348467
vt 0.864438 0.401262
vt 0.865458 0.402272
vt 0.864438 0.737943
s 0
usemtl ramp_to_train
f 673/673/141 674/674/141 675/675/141
f 676/676/141 677/677/141 678/678/141
f 679/679/142 680/680/142 681/681/142
f 682/682/142 683/683/142 684/684/142
f 685/685/143 686/686/143 687/687/143
f 688/688/143 689/689/143 690/690/143
f 691/691/144 692/692/144 693/693/144
f 694/694/144 695/695/144 696/696/144
f 697/697/145 698/698/145 699/699/145
f 700/700/145 701/701/145 702/702/145
f 703/703/146 704/704/146 705/705/146
f 706/706/147 707/707/147 708/708/147
f 709/709/148 710/710/148 711/711/148
f 712/712/148 713/713/148 714/714/148
f 715/715/149 716/716/149 717/717/149
f 718/718/150 719/719/150 720/720/150
f 721/721/151 722/722/151 723/723/151
f 724/724/152 725/725/152 726/726/152
f 727/727/153 728/728/153 729/729/153
f 730/730/153 731/731/153 732/732/153
f 733/733/154 734/734/154 735/735/154
f 736/736/155 737/737/155 738/738/155
f 739/739/156 740/740/156 741/741/156
f 742/742/156 743/743/156 744/744/156
f 745/745/157 746/746/157 747/747/157
f 748/748/157 749/749/157 750/750/157
f 751/751/158 752/752/158 753/753/158
f 754/754/158 755/755/158 756/756/158
o top_plate
v 0.714130 4.315785 -3.972010
v 0.714130 4.315785 -4.854679
v 0.714130 4.196179 -3.972010
v 0.714130 4.196179 -4.854679
v -0.714130 4.315785 -4.854679
v -0.714130 4.315785 -3.972010
v -0.714130 4.196179 -4.854679
v -0.714130 4.196179 -3.972010
v -0.714130 4.315785 -4.854679
v 0.714130 4.315785 -4.854679
v -0.714130 4.315785 -3.972010
v 0.714130 4.315785 -3.972010
v -0.714130 4.196179 -3.972010
v 0.714130 4.196179 -3.972010
v -0.714130 4.196179 -4.854679
v 0.714130 4.196179 -4.854679
v -0.714130 4.315785 -3.972010
v 0.714130 4.315785 -3.972010
v -0.714130 4.196179 -3.972010
v 0.714130 4.196179 -3.972010
v 0.714130 4.315785 -4.854679
v -0.714130 4.315785 -4.854679
v 0.714130 4.196179 -4.854679
v -0.714130 4.196179 -4.854679
vn 1.0000 -0.0000 -0.0000
vn -1.0000 -0.0000 -0.0000
vn -0.0000 1.0000 -0.0000
vn -0.0000 -1.0000 -0.0000
vn -0.0000 -0.0000 1.0000
vn -0.0000 -0.0000 -1.0000
vt 0.677068 0.856986
vt 0.681161 0.856986
vt 0.677068 0.887197
vt 0.681161 0.887197
vt 0.708828 0.887197
vt 0.704734 0.887197
vt 0.708828 0.856986
vt 0.704734 0.856986
vt 0.261785 0.806524
vt 0.231575 0.806524
vt 0.261785 0.757640
vt 0.231575 0.757640
vt 0.466697 0.763174
vt 0.496908 0.763174
vt 0.466697 0.812058
vt 0.496908 0.812058
vt 0.850598 0.836776
vt 0.846505 0.836776
vt 0.850598 0.787892
vt 0.846505 0.787892
vt 0.289452 0.878312
vt 0.285359 0.878312
vt 0.289452 0.829427
vt 0.285359 0.829427
s 0
usemtl ramp_to_train
f 757/757/159 759/758/159 758/759/159
f 759/758/159 760/760/159 758/759/159
f 761/761/160 763/762/160 762/763/160
f 763/762/160 764/764/160 762/763/160
f 765/765/161 767/766/161 766/767/161
f 767/766/161 768/768/161 766/767/161
f 769/769/162 771/770/162 770/771/162
f 771/770/162 772/772/162 770/771/162
f 773/773/163 775/774/163 774/775/163
f 775/774/163 776/776/163 774/775/163
f 777/777/164 779/778/164 778/779/164
f 779/778/164 780/780/164 778/779/164
