# Blender 4.2.23 LTS
# www.blender.org
mtllib slide_gate.mtl
o base_l
v -1.050000 0.030000 -0.218750
v -1.050000 0.110000 0.218750
v -1.050000 0.110000 -0.218750
v -1.050000 0.030000 -0.218750
v -1.050000 0.030000 0.218750
v -1.050000 0.110000 0.218750
v -0.693750 0.030000 -0.218750
v -0.693750 0.110000 -0.218750
v -0.693750 0.110000 0.218750
v -0.693750 0.030000 -0.218750
v -0.693750 0.110000 0.218750
v -0.693750 0.030000 0.218750
v -1.021875 -0.000000 -0.218750
v -0.721875 -0.000000 -0.218750
v -0.721875 0.000000 0.218750
v -1.021875 -0.000000 -0.218750
v -0.721875 0.000000 0.218750
v -1.021875 0.000000 0.218750
v -1.021875 0.140000 -0.218750
v -0.721875 0.140000 0.218750
v -0.721875 0.140000 -0.218750
v -1.021875 0.140000 -0.218750
v -1.021875 0.140000 0.218750
v -0.721875 0.140000 0.218750
v -1.021875 0.030000 -0.250000
v -0.721875 0.110000 -0.250000
v -0.721875 0.030000 -0.250000
v -1.021875 0.030000 -0.250000
v -1.021875 0.110000 -0.250000
v -0.721875 0.110000 -0.250000
v -1.021875 0.030000 0.250000
v -0.721875 0.030000 0.250000
v -0.721875 0.110000 0.250000
v -1.021875 0.030000 0.250000
v -0.721875 0.110000 0.250000
v -1.021875 0.110000 0.250000
v -1.050000 0.030000 -0.218750
v -1.021875 -0.000000 -0.218750
v -1.021875 0.000000 0.218750
v -1.050000 0.030000 -0.218750
v -1.021875 0.000000 0.218750
v -1.050000 0.030000 0.218750
v -1.050000 0.110000 -0.218750
v -1.021875 0.140000 0.218750
v -1.021875 0.140000 -0.218750
v -1.050000 0.110000 -0.218750
v -1.050000 0.110000 0.218750
v -1.021875 0.140000 0.218750
v -0.693750 0.030000 -0.218750
v -0.721875 0.000000 0.218750
v -0.721875 -0.000000 -0.218750
v -0.693750 0.030000 -0.218750
v -0.693750 0.030000 0.218750
v -0.721875 0.000000 0.218750
v -0.693750 0.110000 -0.218750
v -0.721875 0.140000 -0.218750
v -0.721875 0.140000 0.218750
v -0.693750 0.110000 -0.218750
v -0.721875 0.140000 0.218750
v -0.693750 0.110000 0.218750
v -1.050000 0.030000 -0.218750
v -1.021875 0.110000 -0.250000
v -1.021875 0.030000 -0.250000
v -1.050000 0.030000 -0.218750
v -1.050000 0.110000 -0.218750
v -1.021875 0.110000 -0.250000
v -1.050000 0.030000 0.218750
v -1.021875 0.030000 0.250000
v -1.021875 0.110000 0.250000
v -1.050000 0.030000 0.218750
v -1.021875 0.110000 0.250000
v -1.050000 0.110000 0.218750
v -0.693750 0.030000 -0.218750
v -0.721875 0.030000 -0.250000
v -0.721875 0.110000 -0.250000
v -0.693750 0.030000 -0.218750
v -0.721875 0.110000 -0.250000
v -0.693750 0.110000 -0.218750
v -0.693750 0.030000 0.218750
v -0.721875 0.110000 0.250000
v -0.721875 0.030000 0.250000
v -0.693750 0.030000 0.218750
v -0.693750 0.110000 0.218750
v -0.721875 0.110000 0.250000
v -1.021875 -0.000000 -0.218750
v -1.021875 0.030000 -0.250000
v -0.721875 0.030000 -0.250000
v -1.021875 -0.000000 -0.218750
v -0.721875 0.030000 -0.250000
v -0.721875 -0.000000 -0.218750
v -1.021875 0.000000 0.218750
v -0.721875 0.030000 0.250000
v -1.021875 0.030000 0.250000
v -1.021875 0.000000 0.218750
v -0.721875 0.000000 0.218750
v -0.721875 0.030000 0.250000
v -1.021875 0.140000 -0.218750
v -0.721875 0.110000 -0.250000
v -1.021875 0.110000 -0.250000
v -1.021875 0.140000 -0.218750
v -0.721875 0.140000 -0.218750
v -0.721875 0.110000 -0.250000
v -1.021875 0.140000 0.218750
v -1.021875 0.110000 0.250000
v -0.721875 0.110000 0.250000
v -1.021875 0.140000 0.218750
v -0.721875 0.110000 0.250000
v -0.721875 0.140000 0.218750
v -1.050000 0.030000 -0.218750
v -1.021875 0.030000 -0.250000
v -1.021875 -0.000000 -0.218750
v -1.050000 0.030000 0.218750
v -1.021875 0.000000 0.218750
v -1.021875 0.030000 0.250000
v -1.050000 0.110000 -0.218750
v -1.021875 0.140000 -0.218750
v -1.021875 0.110000 -0.250000
v -1.050000 0.110000 0.218750
v -1.021875 0.110000 0.250000
v -1.021875 0.140000 0.218750
v -0.693750 0.030000 -0.218750
v -0.721875 -0.000000 -0.218750
v -0.721875 0.030000 -0.250000
v -0.693750 0.030000 0.218750
v -0.721875 0.030000 0.250000
v -0.721875 0.000000 0.218750
v -0.693750 0.110000 -0.218750
v -0.721875 0.110000 -0.250000
v -0.721875 0.140000 -0.218750
v -0.693750 0.110000 0.218750
v -0.721875 0.140000 0.218750
v -0.721875 0.110000 0.250000
vn -1.0000 -0.0000 -0.0000
vn 1.0000 -0.0000 -0.0000
vn -0.0000 -1.0000 -0.0000
vn -0.0000 1.0000 -0.0000
vn -0.0000 -0.0000 -1.0000
vn -0.0000 -0.0000 1.0000
vn -0.7295 -0.6839 -0.0000
vn -0.7295 0.6839 -0.0000
vn 0.7295 -0.6839 -0.0000
vn 0.7295 0.6839 -0.0000
vn -0.7433 -0.0000 -0.6690
vn -0.7433 -0.0000 0.6690
vn 0.7433 -0.0000 -0.6690
vn 0.7433 -0.0000 0.6690
vn -0.0000 -0.7214 -0.6925
vn -0.0000 -0.7214 0.6925
vn -0.0000 0.7214 -0.6925
vn -0.0000 0.7214 0.6925
vn -0.6098 -0.5717 -0.5488
vn -0.6098 -0.5717 0.5489
vn -0.6098 0.5717 -0.5489
vn -0.6098 0.5717 0.5488
vn 0.6098 -0.5717 -0.5489
vn 0.6098 -0.5717 0.5489
vn 0.6098 0.5717 -0.5489
vn 0.6098 0.5717 0.5489
vt 0.014189 0.819736
vt 0.020709 0.793233
vt 0.020709 0.819736
vt 0.795445 0.824035
vt 0.795445 0.797532
vt 0.801964 0.797532
vt 0.794934 0.347092
vt 0.788414 0.347092
vt 0.788414 0.320590
vt 0.710877 0.812829
vt 0.704358 0.786326
vt 0.710877 0.786326
vt 0.434753 0.679763
vt 0.410303 0.679763
vt 0.410303 0.644108
vt 0.106962 0.606913
vt 0.106962 0.563680
vt 0.127126 0.577507
vt 0.463130 0.679763
vt 0.487580 0.644108
vt 0.487580 0.679763
vt 0.127126 0.678524
vt 0.106962 0.649118
vt 0.127126 0.635291
vt 0.829761 0.014189
vt 0.829761 0.039493
vt 0.823461 0.037813
vt 0.823461 0.067871
vt 0.829761 0.069551
vt 0.823461 0.093175
vt 0.585392 0.146416
vt 0.585392 0.162772
vt 0.578872 0.162772
vt 0.550494 0.146416
vt 0.550494 0.164024
vt 0.544438 0.148831
vt 0.206334 0.599409
vt 0.204046 0.599262
vt 0.206334 0.563680
vt 0.790707 0.228179
vt 0.788414 0.192523
vt 0.790707 0.192523
vt 0.786581 0.627898
vt 0.786581 0.592169
vt 0.788869 0.627750
vt 0.788414 0.292212
vt 0.788414 0.256557
vt 0.790706 0.256557
vt 0.795445 0.769154
vt 0.797737 0.733499
vt 0.797737 0.769154
vt 0.209561 0.806664
vt 0.209561 0.771009
vt 0.211853 0.771009
vt 0.211848 0.742631
vt 0.209561 0.742484
vt 0.211848 0.706902
vt 0.819539 0.563717
vt 0.817247 0.528062
vt 0.819539 0.528062
vt 0.952950 0.049478
vt 0.950658 0.055998
vt 0.950658 0.049478
vt 0.949449 0.733499
vt 0.951612 0.739650
vt 0.949449 0.740410
vt 0.738708 0.700271
vt 0.735282 0.700271
vt 0.735282 0.693751
vt 0.859535 0.489671
vt 0.862961 0.496190
vt 0.859535 0.496190
vt 0.950658 0.084376
vt 0.952950 0.084376
vt 0.952950 0.090896
vt 0.950658 0.119844
vt 0.952950 0.126364
vt 0.950658 0.126364
vt 0.894766 0.489670
vt 0.891339 0.496190
vt 0.891339 0.489670
vt 0.923144 0.496190
vt 0.923144 0.489671
vt 0.926570 0.489671
vt 0.878740 0.528062
vt 0.881273 0.528325
vt 0.878740 0.552643
vt 0.758190 0.854111
vt 0.758190 0.878692
vt 0.755657 0.878428
vt 0.359106 0.882505
vt 0.359106 0.857924
vt 0.361639 0.882242
vt 0.832787 0.881054
vt 0.830254 0.856736
vt 0.832787 0.856472
vt 0.882958 0.192523
vt 0.882958 0.217105
vt 0.880425 0.192787
vt 0.878587 0.587001
vt 0.881120 0.611319
vt 0.878587 0.611583
vt 0.882958 0.274347
vt 0.880425 0.274083
vt 0.882958 0.249765
vt 0.878587 0.664543
vt 0.878587 0.639961
vt 0.881120 0.640225
vt 0.983491 0.014189
vt 0.981199 0.016736
vt 0.981199 0.014189
vt 0.063942 0.955027
vt 0.061497 0.953493
vt 0.063942 0.951600
vt 0.981328 0.049478
vt 0.983620 0.049478
vt 0.983620 0.052025
vt 0.241226 0.956687
vt 0.243935 0.954589
vt 0.243935 0.957681
vt 0.981328 0.080403
vt 0.983620 0.080403
vt 0.983620 0.082950
vt 0.014189 0.955799
vt 0.014189 0.952373
vt 0.016634 0.954266
vt 0.983620 0.111328
vt 0.981328 0.113874
vt 0.981328 0.111328
vt 0.956105 0.906104
vt 0.953660 0.904571
vt 0.956105 0.902678
s 0
usemtl slide_gate
f 1/1/1 2/2/1 3/3/1
f 4/4/1 5/5/1 6/6/1
f 7/7/2 8/8/2 9/9/2
f 10/10/2 11/11/2 12/12/2
f 13/13/3 14/14/3 15/15/3
f 16/16/3 17/17/3 18/18/3
f 19/19/4 20/20/4 21/21/4
f 22/22/4 23/23/4 24/24/4
f 25/25/5 26/26/5 27/27/5
f 28/28/5 29/29/5 30/30/5
f 31/31/6 32/32/6 33/33/6
f 34/34/6 35/35/6 36/36/6
f 37/37/7 38/38/7 39/39/7
f 40/40/7 41/41/7 42/42/7
f 43/43/8 44/44/8 45/45/8
f 46/46/8 47/47/8 48/48/8
f 49/49/9 50/50/9 51/51/9
f 52/52/9 53/53/9 54/54/9
f 55/55/10 56/56/10 57/57/10
f 58/58/10 59/59/10 60/60/10
f 61/61/11 62/62/11 63/63/11
f 64/64/11 65/65/11 66/66/11
f 67/67/12 68/68/12 69/69/12
f 70/70/12 71/71/12 72/72/12
f 73/73/13 74/74/13 75/75/13
f 76/76/13 77/77/13 78/78/13
f 79/79/14 80/80/14 81/81/14
f 82/82/14 83/83/14 84/84/14
f 85/85/15 86/86/15 87/87/15
f 88/88/15 89/89/15 90/90/15
f 91/91/16 92/92/16 93/93/16
f 94/94/16 95/95/16 96/96/16
f 97/97/17 98/98/17 99/99/17
f 100/100/17 101/101/17 102/102/17
f 103/103/18 104/104/18 105/105/18
f 106/106/18 107/107/18 108/108/18
f 109/109/19 110/110/19 111/111/19
f 112/112/20 113/113/20 114/114/20
f 115/115/21 116/116/21 117/117/21
f 118/118/22 119/119/22 120/120/22
f 121/121/23 122/122/23 123/123/23
f 124/124/24 125/125/24 126/126/24
f 127/127/25 128/128/25 129/129/25
f 130/130/26 131/131/26 132/132/26
o base_r
v 0.693750 0.030000 -0.218750
v 0.693750 0.110000 0.218750
v 0.693750 0.110000 -0.218750
v 0.693750 0.030000 -0.218750
v 0.693750 0.030000 0.218750
v 0.693750 0.110000 0.218750
v 1.050000 0.030000 -0.218750
v 1.050000 0.110000 -0.218750
v 1.050000 0.110000 0.218750
v 1.050000 0.030000 -0.218750
v 1.050000 0.110000 0.218750
v 1.050000 0.030000 0.218750
v 0.721875 -0.000000 -0.218750
v 1.021875 -0.000000 -0.218750
v 1.021875 0.000000 0.218750
v 0.721875 -0.000000 -0.218750
v 1.021875 0.000000 0.218750
v 0.721875 0.000000 0.218750
v 0.721875 0.140000 -0.218750
v 1.021875 0.140000 0.218750
v 1.021875 0.140000 -0.218750
v 0.721875 0.140000 -0.218750
v 0.721875 0.140000 0.218750
v 1.021875 0.140000 0.218750
v 0.721875 0.030000 -0.250000
v 1.021875 0.110000 -0.250000
v 1.021875 0.030000 -0.250000
v 0.721875 0.030000 -0.250000
v 0.721875 0.110000 -0.250000
v 1.021875 0.110000 -0.250000
v 0.721875 0.030000 0.250000
v 1.021875 0.030000 0.250000
v 1.021875 0.110000 0.250000
v 0.721875 0.030000 0.250000
v 1.021875 0.110000 0.250000
v 0.721875 0.110000 0.250000
v 0.693750 0.030000 -0.218750
v 0.721875 -0.000000 -0.218750
v 0.721875 0.000000 0.218750
v 0.693750 0.030000 -0.218750
v 0.721875 0.000000 0.218750
v 0.693750 0.030000 0.218750
v 0.693750 0.110000 -0.218750
v 0.721875 0.140000 0.218750
v 0.721875 0.140000 -0.218750
v 0.693750 0.110000 -0.218750
v 0.693750 0.110000 0.218750
v 0.721875 0.140000 0.218750
v 1.050000 0.030000 -0.218750
v 1.021875 0.000000 0.218750
v 1.021875 -0.000000 -0.218750
v 1.050000 0.030000 -0.218750
v 1.050000 0.030000 0.218750
v 1.021875 0.000000 0.218750
v 1.050000 0.110000 -0.218750
v 1.021875 0.140000 -0.218750
v 1.021875 0.140000 0.218750
v 1.050000 0.110000 -0.218750
v 1.021875 0.140000 0.218750
v 1.050000 0.110000 0.218750
v 0.693750 0.030000 -0.218750
v 0.721875 0.110000 -0.250000
v 0.721875 0.030000 -0.250000
v 0.693750 0.030000 -0.218750
v 0.693750 0.110000 -0.218750
v 0.721875 0.110000 -0.250000
v 0.693750 0.030000 0.218750
v 0.721875 0.030000 0.250000
v 0.721875 0.110000 0.250000
v 0.693750 0.030000 0.218750
v 0.721875 0.110000 0.250000
v 0.693750 0.110000 0.218750
v 1.050000 0.030000 -0.218750
v 1.021875 0.030000 -0.250000
v 1.021875 0.110000 -0.250000
v 1.050000 0.030000 -0.218750
v 1.021875 0.110000 -0.250000
v 1.050000 0.110000 -0.218750
v 1.050000 0.030000 0.218750
v 1.021875 0.110000 0.250000
v 1.021875 0.030000 0.250000
v 1.050000 0.030000 0.218750
v 1.050000 0.110000 0.218750
v 1.021875 0.110000 0.250000
v 0.721875 -0.000000 -0.218750
v 0.721875 0.030000 -0.250000
v 1.021875 0.030000 -0.250000
v 0.721875 -0.000000 -0.218750
v 1.021875 0.030000 -0.250000
v 1.021875 -0.000000 -0.218750
v 0.721875 0.000000 0.218750
v 1.021875 0.030000 0.250000
v 0.721875 0.030000 0.250000
v 0.721875 0.000000 0.218750
v 1.021875 0.000000 0.218750
v 1.021875 0.030000 0.250000
v 0.721875 0.140000 -0.218750
v 1.021875 0.110000 -0.250000
v 0.721875 0.110000 -0.250000
v 0.721875 0.140000 -0.218750
v 1.021875 0.140000 -0.218750
v 1.021875 0.110000 -0.250000
v 0.721875 0.140000 0.218750
v 0.721875 0.110000 0.250000
v 1.021875 0.110000 0.250000
v 0.721875 0.140000 0.218750
v 1.021875 0.110000 0.250000
v 1.021875 0.140000 0.218750
v 0.693750 0.030000 -0.218750
v 0.721875 0.030000 -0.250000
v 0.721875 -0.000000 -0.218750
v 0.693750 0.030000 0.218750
v 0.721875 0.000000 0.218750
v 0.721875 0.030000 0.250000
v 0.693750 0.110000 -0.218750
v 0.721875 0.140000 -0.218750
v 0.721875 0.110000 -0.250000
v 0.693750 0.110000 0.218750
v 0.721875 0.110000 0.250000
v 0.721875 0.140000 0.218750
v 1.050000 0.030000 -0.218750
v 1.021875 -0.000000 -0.218750
v 1.021875 0.030000 -0.250000
v 1.050000 0.030000 0.218750
v 1.021875 0.030000 0.250000
v 1.021875 0.000000 0.218750
v 1.050000 0.110000 -0.218750
v 1.021875 0.110000 -0.250000
v 1.021875 0.140000 -0.218750
v 1.050000 0.110000 0.218750
v 1.021875 0.140000 0.218750
v 1.021875 0.110000 0.250000
vn -1.0000 -0.0000 -0.0000
vn 1.0000 -0.0000 -0.0000
vn -0.0000 -1.0000 -0.0000
vn -0.0000 1.0000 -0.0000
vn -0.0000 -0.0000 -1.0000
vn -0.0000 -0.0000 1.0000
vn -0.7295 -0.6839 -0.0000
vn -0.7295 0.6839 -0.0000
vn 0.7295 -0.6839 -0.0000
vn 0.7295 0.6839 -0.0000
vn -0.7433 -0.0000 -0.6690
vn -0.7433 -0.0000 0.6690
vn 0.7433 -0.0000 -0.6690
vn 0.7433 -0.0000 0.6690
vn -0.0000 -0.7214 -0.6925
vn -0.0000 -0.7214 0.6925
vn -0.0000 0.7214 -0.6925
vn -0.0000 0.7214 0.6925
vn -0.6098 -0.5717 -0.5489
vn -0.6098 -0.5717 0.5489
vn -0.6098 0.5717 -0.5489
vn -0.6098 0.5717 0.5489
vn 0.6098 -0.5717 -0.5488
vn 0.6098 -0.5717 0.5489
vn 0.6098 0.5717 -0.5489
vn 0.6098 0.5717 0.5488
vt 0.295072 0.814448
vt 0.301592 0.787945
vt 0.301592 0.814448
vt 0.061497 0.818963
vt 0.061497 0.792461
vt 0.068017 0.792461
vt 0.762177 0.825733
vt 0.755657 0.825733
vt 0.755657 0.799230
vt 0.829832 0.347092
vt 0.823312 0.320590
vt 0.829832 0.320590
vt 0.175669 0.678524
vt 0.155504 0.664697
vt 0.175669 0.635291
vt 0.713164 0.049844
vt 0.688715 0.014189
vt 0.713164 0.014189
vt 0.155504 0.606913
vt 0.155504 0.563680
vt 0.175669 0.593086
vt 0.688715 0.113878
vt 0.688715 0.078222
vt 0.713164 0.078222
vt 0.829761 0.121553
vt 0.829761 0.146856
vt 0.823461 0.145176
vt 0.365626 0.829546
vt 0.359106 0.829546
vt 0.359106 0.805096
vt 0.635219 0.146835
vt 0.635219 0.163191
vt 0.628699 0.163191
vt 0.670117 0.146835
vt 0.663597 0.163191
vt 0.663597 0.146835
vt 0.788869 0.563791
vt 0.786581 0.563643
vt 0.788869 0.528062
vt 0.819539 0.627824
vt 0.817247 0.592169
vt 0.819539 0.592169
vt 0.817247 0.691931
vt 0.819539 0.656275
vt 0.819539 0.691931
vt 0.819084 0.228179
vt 0.819084 0.192523
vt 0.821377 0.192523
vt 0.786581 0.692004
vt 0.786581 0.656275
vt 0.788869 0.691857
vt 0.819084 0.292212
vt 0.819084 0.256557
vt 0.821377 0.256557
vt 0.206334 0.663516
vt 0.204046 0.663369
vt 0.206334 0.627787
vt 0.243518 0.821939
vt 0.241226 0.786284
vt 0.243518 0.786284
vt 0.952950 0.154742
vt 0.950658 0.161261
vt 0.950658 0.154742
vt 0.953022 0.320590
vt 0.953022 0.327110
vt 0.950730 0.327110
vt 0.945687 0.283305
vt 0.942261 0.283305
vt 0.942261 0.276785
vt 0.208427 0.940085
vt 0.211853 0.946605
vt 0.208427 0.946605
vt 0.952047 0.376787
vt 0.954339 0.376787
vt 0.954339 0.383307
vt 0.952821 0.014189
vt 0.952821 0.021100
vt 0.950658 0.020340
vt 0.790707 0.945160
vt 0.787281 0.951680
vt 0.787281 0.945160
vt 0.704358 0.952872
vt 0.704358 0.946352
vt 0.707784 0.946352
vt 0.554957 0.888527
vt 0.552410 0.888527
vt 0.552410 0.864078
vt 0.064030 0.847341
vt 0.064030 0.871923
vt 0.061497 0.871659
vt 0.585882 0.864078
vt 0.583335 0.888527
vt 0.583335 0.864078
vt 0.016722 0.872695
vt 0.014189 0.848378
vt 0.016722 0.848114
vt 0.243759 0.850317
vt 0.243759 0.874899
vt 0.241226 0.850581
vt 0.861165 0.851378
vt 0.863698 0.875696
vt 0.861165 0.875960
vt 0.890147 0.757948
vt 0.887600 0.757948
vt 0.887600 0.733499
vt 0.795445 0.876994
vt 0.795445 0.852413
vt 0.797978 0.852677
vt 0.983620 0.142252
vt 0.981328 0.144799
vt 0.981328 0.142252
vt 0.956105 0.937908
vt 0.953660 0.936375
vt 0.956105 0.934482
vt 0.981400 0.320590
vt 0.983692 0.320590
vt 0.983692 0.323137
vt 0.953685 0.800959
vt 0.953685 0.797532
vt 0.956130 0.799425
vt 0.704358 0.981250
vt 0.706650 0.981250
vt 0.706650 0.983797
vt 0.953926 0.854805
vt 0.953926 0.851378
vt 0.956371 0.853271
vt 0.985009 0.376787
vt 0.982717 0.379334
vt 0.982717 0.376787
vt 0.863874 0.957633
vt 0.861165 0.958628
vt 0.861165 0.955536
s 0
usemtl slide_gate
f 133/133/27 134/134/27 135/135/27
f 136/136/27 137/137/27 138/138/27
f 139/139/28 140/140/28 141/141/28
f 142/142/28 143/143/28 144/144/28
f 145/145/29 146/146/29 147/147/29
f 148/148/29 149/149/29 150/150/29
f 151/151/30 152/152/30 153/153/30
f 154/154/30 155/155/30 156/156/30
f 157/157/31 158/158/31 159/159/31
f 160/160/31 161/161/31 162/162/31
f 163/163/32 164/164/32 165/165/32
f 166/166/32 167/167/32 168/168/32
f 169/169/33 170/170/33 171/171/33
f 172/172/33 173/173/33 174/174/33
f 175/175/34 176/176/34 177/177/34
f 178/178/34 179/179/34 180/180/34
f 181/181/35 182/182/35 183/183/35
f 184/184/35 185/185/35 186/186/35
f 187/187/36 188/188/36 189/189/36
f 190/190/36 191/191/36 192/192/36
f 193/193/37 194/194/37 195/195/37
f 196/196/37 197/197/37 198/198/37
f 199/199/38 200/200/38 201/201/38
f 202/202/38 203/203/38 204/204/38
f 205/205/39 206/206/39 207/207/39
f 208/208/39 209/209/39 210/210/39
f 211/211/40 212/212/40 213/213/40
f 214/214/40 215/215/40 216/216/40
f 217/217/41 218/218/41 219/219/41
f 220/220/41 221/221/41 222/222/41
f 223/223/42 224/224/42 225/225/42
f 226/226/42 227/227/42 228/228/42
f 229/229/43 230/230/43 231/231/43
f 232/232/43 233/233/43 234/234/43
f 235/235/44 236/236/44 237/237/44
f 238/238/44 239/239/44 240/240/44
f 241/241/45 242/242/45 243/243/45
f 244/244/46 245/245/46 246/246/46
f 247/247/47 248/248/47 249/249/47
f 250/250/48 251/251/48 252/252/48
f 253/253/49 254/254/49 255/255/49
f 256/256/50 257/257/50 258/258/50
f 259/259/51 260/260/51 261/261/51
f 262/262/52 263/263/52 264/264/52
o chevron_0_b
v -0.478125 1.870000 -0.182292
v -0.478125 1.870000 -0.213542
v -0.478125 1.570000 -0.182292
v -0.478125 1.570000 -0.213542
v -0.759375 1.870000 -0.213542
v -0.759375 1.870000 -0.182292
v -0.759375 1.570000 -0.213542
v -0.759375 1.570000 -0.182292
v -0.759375 1.870000 -0.213542
v -0.478125 1.870000 -0.213542
v -0.759375 1.870000 -0.182292
v -0.478125 1.870000 -0.182292
v -0.759375 1.570000 -0.182292
v -0.478125 1.570000 -0.182292
v -0.759375 1.570000 -0.213542
v -0.478125 1.570000 -0.213542
v -0.759375 1.870000 -0.182292
v -0.478125 1.870000 -0.182292
v -0.759375 1.570000 -0.182292
v -0.478125 1.570000 -0.182292
v -0.478125 1.870000 -0.213542
v -0.759375 1.870000 -0.213542
v -0.478125 1.570000 -0.213542
v -0.759375 1.570000 -0.213542
vn 1.0000 -0.0000 -0.0000
vn -1.0000 -0.0000 -0.0000
vn -0.0000 1.0000 -0.0000
vn -0.0000 -1.0000 -0.0000
vn -0.0000 -0.0000 1.0000
vn -0.0000 -0.0000 -1.0000
vt 0.888808 0.038638
vt 0.888809 0.014189
vt 0.891355 0.038638
vt 0.891355 0.014189
vt 0.891355 0.067016
vt 0.891355 0.091466
vt 0.888808 0.067016
vt 0.888808 0.091466
vt 0.923677 0.458746
vt 0.921130 0.458746
vt 0.923677 0.435824
vt 0.921130 0.435824
vt 0.911336 0.192523
vt 0.913882 0.192523
vt 0.911336 0.215445
vt 0.913882 0.215445
vt 0.735282 0.506891
vt 0.735282 0.482442
vt 0.758203 0.506891
vt 0.758203 0.482442
vt 0.735282 0.559718
vt 0.735282 0.535269
vt 0.758203 0.559718
vt 0.758203 0.535269
s 0
usemtl slide_gate
f 265/265/53 267/266/53 266/267/53
f 267/266/53 268/268/53 266/267/53
f 269/269/54 271/270/54 270/271/54
f 271/270/54 272/272/54 270/271/54
f 273/273/55 275/274/55 274/275/55
f 275/274/55 276/276/55 274/275/55
f 277/277/56 279/278/56 278/279/56
f 279/278/56 280/280/56 278/279/56
f 281/281/57 283/282/57 282/283/57
f 283/282/57 284/284/57 282/283/57
f 285/285/58 287/286/58 286/287/58
f 287/286/58 288/288/58 286/287/58
o chevron_0_f
v -0.478125 1.870000 0.213542
v -0.478125 1.870000 0.182292
v -0.478125 1.570000 0.213542
v -0.478125 1.570000 0.182292
v -0.759375 1.870000 0.182292
v -0.759375 1.870000 0.213542
v -0.759375 1.570000 0.182292
v -0.759375 1.570000 0.213542
v -0.759375 1.870000 0.182292
v -0.478125 1.870000 0.182292
v -0.759375 1.870000 0.213542
v -0.478125 1.870000 0.213542
v -0.759375 1.570000 0.213542
v -0.478125 1.570000 0.213542
v -0.759375 1.570000 0.182292
v -0.478125 1.570000 0.182292
v -0.759375 1.870000 0.213542
v -0.478125 1.870000 0.213542
v -0.759375 1.570000 0.213542
v -0.478125 1.570000 0.213542
v -0.478125 1.870000 0.182292
v -0.759375 1.870000 0.182292
v -0.478125 1.570000 0.182292
v -0.759375 1.570000 0.182292
vn 1.0000 -0.0000 -0.0000
vn -1.0000 -0.0000 -0.0000
vn -0.0000 1.0000 -0.0000
vn -0.0000 -1.0000 -0.0000
vn -0.0000 -0.0000 1.0000
vn -0.0000 -0.0000 -1.0000
vt 0.888809 0.144293
vt 0.888809 0.119844
vt 0.891355 0.144293
vt 0.891355 0.119844
vt 0.891427 0.320590
vt 0.891427 0.345039
vt 0.888880 0.320590
vt 0.888880 0.345039
vt 0.913882 0.272686
vt 0.911336 0.272686
vt 0.913882 0.249765
vt 0.911336 0.249765
vt 0.014189 0.901073
vt 0.016736 0.901073
vt 0.014189 0.923995
vt 0.016736 0.923995
vt 0.735282 0.612546
vt 0.735282 0.588096
vt 0.758203 0.612546
vt 0.758203 0.588096
vt 0.735282 0.665373
vt 0.735282 0.640924
vt 0.758203 0.665373
vt 0.758203 0.640924
s 0
usemtl slide_gate
f 289/289/59 291/290/59 290/291/59
f 291/290/59 292/292/59 290/291/59
f 293/293/60 295/294/60 294/295/60
f 295/294/60 296/296/60 294/295/60
f 297/297/61 299/298/61 298/299/61
f 299/298/61 300/300/61 298/299/61
f 301/301/62 303/302/62 302/303/62
f 303/302/62 304/304/62 302/303/62
f 305/305/63 307/306/63 306/307/63
f 307/306/63 308/308/63 306/307/63
f 309/309/64 311/310/64 310/311/64
f 311/310/64 312/312/64 310/311/64
o chevron_1_b
v -0.065625 1.870000 -0.182292
v -0.065625 1.870000 -0.213542
v -0.065625 1.570000 -0.182292
v -0.065625 1.570000 -0.213542
v -0.346875 1.870000 -0.213542
v -0.346875 1.870000 -0.182292
v -0.346875 1.570000 -0.213542
v -0.346875 1.570000 -0.182292
v -0.346875 1.870000 -0.213542
v -0.065625 1.870000 -0.213542
v -0.346875 1.870000 -0.182292
v -0.065625 1.870000 -0.182292
v -0.346875 1.570000 -0.182292
v -0.065625 1.570000 -0.182292
v -0.346875 1.570000 -0.213542
v -0.065625 1.570000 -0.213542
v -0.346875 1.870000 -0.182292
v -0.065625 1.870000 -0.182292
v -0.346875 1.570000 -0.182292
v -0.065625 1.570000 -0.182292
v -0.065625 1.870000 -0.213542
v -0.346875 1.870000 -0.213542
v -0.065625 1.570000 -0.213542
v -0.346875 1.570000 -0.213542
vn 1.0000 -0.0000 -0.0000
vn -1.0000 -0.0000 -0.0000
vn -0.0000 1.0000 -0.0000
vn -0.0000 -1.0000 -0.0000
vn -0.0000 -0.0000 1.0000
vn -0.0000 -0.0000 -1.0000
vt 0.890197 0.401236
vt 0.890197 0.376787
vt 0.892744 0.401236
vt 0.892744 0.376787
vt 0.892752 0.435824
vt 0.892752 0.460274
vt 0.890205 0.435824
vt 0.890205 0.460274
vt 0.706904 0.917974
vt 0.704358 0.917974
vt 0.706904 0.895053
vt 0.704358 0.895053
vt 0.295072 0.896672
vt 0.297619 0.896672
vt 0.295072 0.919593
vt 0.297619 0.919593
vt 0.106962 0.731351
vt 0.106962 0.706902
vt 0.129884 0.731351
vt 0.129884 0.706902
vt 0.158262 0.731351
vt 0.158262 0.706902
vt 0.181183 0.731351
vt 0.181183 0.706902
s 0
usemtl slide_gate
f 313/313/65 315/314/65 314/315/65
f 315/314/65 316/316/65 314/315/65
f 317/317/66 319/318/66 318/319/66
f 319/318/66 320/320/66 318/319/66
f 321/321/67 323/322/67 322/323/67
f 323/322/67 324/324/67 322/323/67
f 325/325/68 327/326/68 326/327/68
f 327/326/68 328/328/68 326/327/68
f 329/329/69 331/330/69 330/331/69
f 331/330/69 332/332/69 330/331/69
f 333/333/70 335/334/70 334/335/70
f 335/334/70 336/336/70 334/335/70
o chevron_1_f
v -0.065625 1.870000 0.213542
v -0.065625 1.870000 0.182292
v -0.065625 1.570000 0.213542
v -0.065625 1.570000 0.182292
v -0.346875 1.870000 0.182292
v -0.346875 1.870000 0.213542
v -0.346875 1.570000 0.182292
v -0.346875 1.570000 0.213542
v -0.346875 1.870000 0.182292
v -0.065625 1.870000 0.182292
v -0.346875 1.870000 0.213542
v -0.065625 1.870000 0.213542
v -0.346875 1.570000 0.213542
v -0.065625 1.570000 0.213542
v -0.346875 1.570000 0.182292
v -0.065625 1.570000 0.182292
v -0.346875 1.870000 0.213542
v -0.065625 1.870000 0.213542
v -0.346875 1.570000 0.213542
v -0.065625 1.570000 0.213542
v -0.065625 1.870000 0.182292
v -0.346875 1.870000 0.182292
v -0.065625 1.570000 0.182292
v -0.346875 1.570000 0.182292
vn 1.0000 -0.0000 -0.0000
vn -1.0000 -0.0000 -0.0000
vn -0.0000 1.0000 -0.0000
vn -0.0000 -1.0000 -0.0000
vn -0.0000 -0.0000 1.0000
vn -0.0000 -0.0000 -1.0000
vt 0.106962 0.894316
vt 0.106962 0.869866
vt 0.109509 0.894316
vt 0.109509 0.869866
vt 0.140434 0.869866
vt 0.140434 0.894316
vt 0.137887 0.869866
vt 0.137887 0.894316
vt 0.328544 0.919593
vt 0.325997 0.919593
vt 0.328544 0.896672
vt 0.325997 0.896672
vt 0.918525 0.733499
vt 0.921072 0.733499
vt 0.918525 0.756420
vt 0.921072 0.756420
vt 0.410303 0.732590
vt 0.410303 0.708141
vt 0.433224 0.732590
vt 0.433224 0.708141
vt 0.463130 0.732590
vt 0.463130 0.708141
vt 0.486052 0.732590
vt 0.486052 0.708141
s 0
usemtl slide_gate
f 337/337/71 339/338/71 338/339/71
f 339/338/71 340/340/71 338/339/71
f 341/341/72 343/342/72 342/343/72
f 343/342/72 344/344/72 342/343/72
f 345/345/73 347/346/73 346/347/73
f 347/346/73 348/348/73 346/347/73
f 349/349/74 351/350/74 350/351/74
f 351/350/74 352/352/74 350/351/74
f 353/353/75 355/354/75 354/355/75
f 355/354/75 356/356/75 354/355/75
f 357/357/76 359/358/76 358/359/76
f 359/358/76 360/360/76 358/359/76
o chevron_2_b
v 0.346875 1.870000 -0.182292
v 0.346875 1.870000 -0.213542
v 0.346875 1.570000 -0.182292
v 0.346875 1.570000 -0.213542
v 0.065625 1.870000 -0.213542
v 0.065625 1.870000 -0.182292
v 0.065625 1.570000 -0.213542
v 0.065625 1.570000 -0.182292
v 0.065625 1.870000 -0.213542
v 0.346875 1.870000 -0.213542
v 0.065625 1.870000 -0.182292
v 0.346875 1.870000 -0.182292
v 0.065625 1.570000 -0.182292
v 0.346875 1.570000 -0.182292
v 0.065625 1.570000 -0.213542
v 0.346875 1.570000 -0.213542
v 0.065625 1.870000 -0.182292
v 0.346875 1.870000 -0.182292
v 0.065625 1.570000 -0.182292
v 0.346875 1.570000 -0.182292
v 0.346875 1.870000 -0.213542
v 0.065625 1.870000 -0.213542
v 0.346875 1.570000 -0.213542
v 0.065625 1.570000 -0.213542
vn 1.0000 -0.0000 -0.0000
vn -1.0000 -0.0000 -0.0000
vn -0.0000 1.0000 -0.0000
vn -0.0000 -1.0000 -0.0000
vn -0.0000 -0.0000 1.0000
vn -0.0000 -0.0000 -1.0000
vt 0.168812 0.894316
vt 0.168812 0.869866
vt 0.171359 0.894316
vt 0.171359 0.869866
vt 0.894382 0.797532
vt 0.894382 0.821982
vt 0.891835 0.797532
vt 0.891835 0.821982
vt 0.922280 0.037110
vt 0.919733 0.037110
vt 0.922280 0.014189
vt 0.919733 0.014189
vt 0.919733 0.065488
vt 0.922280 0.065488
vt 0.919733 0.088410
vt 0.922280 0.088410
vt 0.241226 0.757906
vt 0.241226 0.733456
vt 0.264148 0.757906
vt 0.264148 0.733456
vt 0.704358 0.757948
vt 0.704358 0.733499
vt 0.727279 0.757948
vt 0.727279 0.733499
s 0
usemtl slide_gate
f 361/361/77 363/362/77 362/363/77
f 363/362/77 364/364/77 362/363/77
f 365/365/78 367/366/78 366/367/78
f 367/366/78 368/368/78 366/367/78
f 369/369/79 371/370/79 370/371/79
f 371/370/79 372/372/79 370/371/79
f 373/373/80 375/374/80 374/375/80
f 375/374/80 376/376/80 374/375/80
f 377/377/81 379/378/81 378/379/81
f 379/378/81 380/380/81 378/379/81
f 381/381/82 383/382/82 382/383/82
f 383/382/82 384/384/82 382/383/82
o chevron_2_f
v 0.346875 1.870000 0.213542
v 0.346875 1.870000 0.182292
v 0.346875 1.570000 0.213542
v 0.346875 1.570000 0.182292
v 0.065625 1.870000 0.182292
v 0.065625 1.870000 0.213542
v 0.065625 1.570000 0.182292
v 0.065625 1.570000 0.213542
v 0.065625 1.870000 0.182292
v 0.346875 1.870000 0.182292
v 0.065625 1.870000 0.213542
v 0.346875 1.870000 0.213542
v 0.065625 1.570000 0.213542
v 0.346875 1.570000 0.213542
v 0.065625 1.570000 0.182292
v 0.346875 1.570000 0.182292
v 0.065625 1.870000 0.213542
v 0.346875 1.870000 0.213542
v 0.065625 1.570000 0.213542
v 0.346875 1.570000 0.213542
v 0.346875 1.870000 0.182292
v 0.065625 1.870000 0.182292
v 0.346875 1.570000 0.182292
v 0.065625 1.570000 0.182292
vn 1.0000 -0.0000 -0.0000
vn -1.0000 -0.0000 -0.0000
vn -0.0000 1.0000 -0.0000
vn -0.0000 -1.0000 -0.0000
vn -0.0000 -0.0000 1.0000
vn -0.0000 -0.0000 -1.0000
vt 0.892076 0.875828
vt 0.892076 0.851378
vt 0.894623 0.875828
vt 0.894623 0.851378
vt 0.460158 0.870333
vt 0.460158 0.894782
vt 0.457611 0.870333
vt 0.457611 0.894782
vt 0.922280 0.142765
vt 0.919733 0.142765
vt 0.922280 0.119844
vt 0.919733 0.119844
vt 0.919805 0.320590
vt 0.922352 0.320590
vt 0.919805 0.343511
vt 0.922352 0.343511
vt 0.735282 0.401236
vt 0.735282 0.376787
vt 0.758203 0.401236
vt 0.758203 0.376787
vt 0.735282 0.454064
vt 0.735282 0.429614
vt 0.758203 0.454064
vt 0.758203 0.429614
s 0
usemtl slide_gate
f 385/385/83 387/386/83 386/387/83
f 387/386/83 388/388/83 386/387/83
f 389/389/84 391/390/84 390/391/84
f 391/390/84 392/392/84 390/391/84
f 393/393/85 395/394/85 394/395/85
f 395/394/85 396/396/85 394/395/85
f 397/397/86 399/398/86 398/399/86
f 399/398/86 400/400/86 398/399/86
f 401/401/87 403/402/87 402/403/87
f 403/402/87 404/404/87 402/403/87
f 405/405/88 407/406/88 406/407/88
f 407/406/88 408/408/88 406/407/88
o chevron_3_b
v 0.759375 1.870000 -0.182292
v 0.759375 1.870000 -0.213542
v 0.759375 1.570000 -0.182292
v 0.759375 1.570000 -0.213542
v 0.478125 1.870000 -0.213542
v 0.478125 1.870000 -0.182292
v 0.478125 1.570000 -0.213542
v 0.478125 1.570000 -0.182292
v 0.478125 1.870000 -0.213542
v 0.759375 1.870000 -0.213542
v 0.478125 1.870000 -0.182292
v 0.759375 1.870000 -0.182292
v 0.478125 1.570000 -0.182292
v 0.759375 1.570000 -0.182292
v 0.478125 1.570000 -0.213542
v 0.759375 1.570000 -0.213542
v 0.478125 1.870000 -0.182292
v 0.759375 1.870000 -0.182292
v 0.478125 1.570000 -0.182292
v 0.759375 1.570000 -0.182292
v 0.759375 1.870000 -0.213542
v 0.478125 1.870000 -0.213542
v 0.759375 1.570000 -0.213542
v 0.478125 1.570000 -0.213542
vn 1.0000 -0.0000 -0.0000
vn -1.0000 -0.0000 -0.0000
vn -0.0000 1.0000 -0.0000
vn -0.0000 -1.0000 -0.0000
vn -0.0000 -0.0000 1.0000
vn -0.0000 -0.0000 -1.0000
vt 0.488536 0.894782
vt 0.488536 0.870333
vt 0.491083 0.894782
vt 0.491083 0.870333
vt 0.412850 0.871106
vt 0.412850 0.895555
vt 0.410303 0.871106
vt 0.410303 0.895555
vt 0.064044 0.923222
vt 0.061497 0.923222
vt 0.064044 0.900301
vt 0.061497 0.900301
vt 0.922760 0.797532
vt 0.925307 0.797532
vt 0.922760 0.820454
vt 0.925307 0.820454
vt 0.295072 0.759567
vt 0.295072 0.735118
vt 0.317994 0.759567
vt 0.317994 0.735118
vt 0.737115 0.216973
vt 0.737115 0.192523
vt 0.760036 0.216973
vt 0.760036 0.192523
s 0
usemtl slide_gate
f 409/409/89 411/410/89 410/411/89
f 411/410/89 412/412/89 410/411/89
f 413/413/90 415/414/90 414/415/90
f 415/414/90 416/416/90 414/415/90
f 417/417/91 419/418/91 418/419/91
f 419/418/91 420/420/91 418/419/91
f 421/421/92 423/422/92 422/423/92
f 423/422/92 424/424/92 422/423/92
f 425/425/93 427/426/93 426/427/93
f 427/426/93 428/428/93 426/427/93
f 429/429/94 431/430/94 430/431/94
f 431/430/94 432/432/94 430/431/94
o chevron_3_f
v 0.759375 1.870000 0.213542
v 0.759375 1.870000 0.182292
v 0.759375 1.570000 0.213542
v 0.759375 1.570000 0.182292
v 0.478125 1.870000 0.182292
v 0.478125 1.870000 0.213542
v 0.478125 1.570000 0.182292
v 0.478125 1.570000 0.213542
v 0.478125 1.870000 0.182292
v 0.759375 1.870000 0.182292
v 0.478125 1.870000 0.213542
v 0.759375 1.870000 0.213542
v 0.478125 1.570000 0.213542
v 0.759375 1.570000 0.213542
v 0.478125 1.570000 0.182292
v 0.759375 1.570000 0.182292
v 0.478125 1.870000 0.213542
v 0.759375 1.870000 0.213542
v 0.478125 1.570000 0.213542
v 0.759375 1.570000 0.213542
v 0.759375 1.870000 0.182292
v 0.478125 1.870000 0.182292
v 0.759375 1.570000 0.182292
v 0.478125 1.570000 0.182292
vn 1.0000 -0.0000 -0.0000
vn -1.0000 -0.0000 -0.0000
vn -0.0000 1.0000 -0.0000
vn -0.0000 -1.0000 -0.0000
vn -0.0000 -0.0000 1.0000
vn -0.0000 -0.0000 -1.0000
vt 0.909498 0.611451
vt 0.909498 0.587001
vt 0.912045 0.611451
vt 0.912045 0.587001
vt 0.912045 0.639961
vt 0.912045 0.664410
vt 0.909498 0.639961
vt 0.909498 0.664410
vt 0.925548 0.874300
vt 0.923001 0.874300
vt 0.925548 0.851378
vt 0.923001 0.851378
vt 0.921122 0.376787
vt 0.923669 0.376787
vt 0.921122 0.399708
vt 0.923669 0.399708
vt 0.737115 0.269800
vt 0.737115 0.245351
vt 0.760036 0.269800
vt 0.760036 0.245351
vt 0.737115 0.322627
vt 0.737115 0.298178
vt 0.760036 0.322627
vt 0.760036 0.298178
s 0
usemtl slide_gate
f 433/433/95 435/434/95 434/435/95
f 435/434/95 436/436/95 434/435/95
f 437/437/96 439/438/96 438/439/96
f 439/438/96 440/440/96 438/439/96
f 441/441/97 443/442/97 442/443/97
f 443/442/97 444/444/97 442/443/97
f 445/445/98 447/446/98 446/447/98
f 447/446/98 448/448/98 446/447/98
f 449/449/99 451/450/99 450/451/99
f 451/450/99 452/452/99 450/451/99
f 453/453/100 455/454/100 454/455/100
f 455/454/100 456/456/100 454/455/100
o crossbar
v -0.984375 1.580000 -0.156250
v -0.984375 1.860000 0.156250
v -0.984375 1.860000 -0.156250
v -0.984375 1.580000 -0.156250
v -0.984375 1.580000 0.156250
v -0.984375 1.860000 0.156250
v 0.984375 1.580000 -0.156250
v 0.984375 1.860000 -0.156250
v 0.984375 1.860000 0.156250
v 0.984375 1.580000 -0.156250
v 0.984375 1.860000 0.156250
v 0.984375 1.580000 0.156250
v -0.956250 1.550000 -0.156250
v 0.956250 1.550000 -0.156250
v 0.956250 1.550000 0.156250
v -0.956250 1.550000 -0.156250
v 0.956250 1.550000 0.156250
v -0.956250 1.550000 0.156250
v -0.956250 1.890000 -0.156250
v 0.956250 1.890000 0.156250
v 0.956250 1.890000 -0.156250
v -0.956250 1.890000 -0.156250
v -0.956250 1.890000 0.156250
v 0.956250 1.890000 0.156250
v -0.956250 1.580000 -0.187500
v 0.956250 1.860000 -0.187500
v 0.956250 1.580000 -0.187500
v -0.956250 1.580000 -0.187500
v -0.956250 1.860000 -0.187500
v 0.956250 1.860000 -0.187500
v -0.956250 1.580000 0.187500
v 0.956250 1.580000 0.187500
v 0.956250 1.860000 0.187500
v -0.956250 1.580000 0.187500
v 0.956250 1.860000 0.187500
v -0.956250 1.860000 0.187500
v -0.984375 1.580000 -0.156250
v -0.956250 1.550000 -0.156250
v -0.956250 1.550000 0.156250
v -0.984375 1.580000 -0.156250
v -0.956250 1.550000 0.156250
v -0.984375 1.580000 0.156250
v -0.984375 1.860000 -0.156250
v -0.956250 1.890000 0.156250
v -0.956250 1.890000 -0.156250
v -0.984375 1.860000 -0.156250
v -0.984375 1.860000 0.156250
v -0.956250 1.890000 0.156250
v 0.984375 1.580000 -0.156250
v 0.956250 1.550000 0.156250
v 0.956250 1.550000 -0.156250
v 0.984375 1.580000 -0.156250
v 0.984375 1.580000 0.156250
v 0.956250 1.550000 0.156250
v 0.984375 1.860000 -0.156250
v 0.956250 1.890000 -0.156250
v 0.956250 1.890000 0.156250
v 0.984375 1.860000 -0.156250
v 0.956250 1.890000 0.156250
v 0.984375 1.860000 0.156250
v -0.984375 1.580000 -0.156250
v -0.956250 1.860000 -0.187500
v -0.956250 1.580000 -0.187500
v -0.984375 1.580000 -0.156250
v -0.984375 1.860000 -0.156250
v -0.956250 1.860000 -0.187500
v -0.984375 1.580000 0.156250
v -0.956250 1.580000 0.187500
v -0.956250 1.860000 0.187500
v -0.984375 1.580000 0.156250
v -0.956250 1.860000 0.187500
v -0.984375 1.860000 0.156250
v 0.984375 1.580000 -0.156250
v 0.956250 1.580000 -0.187500
v 0.956250 1.860000 -0.187500
v 0.984375 1.580000 -0.156250
v 0.956250 1.860000 -0.187500
v 0.984375 1.860000 -0.156250
v 0.984375 1.580000 0.156250
v 0.956250 1.860000 0.187500
v 0.956250 1.580000 0.187500
v 0.984375 1.580000 0.156250
v 0.984375 1.860000 0.156250
v 0.956250 1.860000 0.187500
v -0.956250 1.550000 -0.156250
v -0.956250 1.580000 -0.187500
v 0.956250 1.580000 -0.187500
v -0.956250 1.550000 -0.156250
v 0.956250 1.580000 -0.187500
v 0.956250 1.550000 -0.156250
v -0.956250 1.550000 0.156250
v 0.956250 1.580000 0.187500
v -0.956250 1.580000 0.187500
v -0.956250 1.550000 0.156250
v 0.956250 1.550000 0.156250
v 0.956250 1.580000 0.187500
v -0.956250 1.890000 -0.156250
v 0.956250 1.860000 -0.187500
v -0.956250 1.860000 -0.187500
v -0.956250 1.890000 -0.156250
v 0.956250 1.890000 -0.156250
v 0.956250 1.860000 -0.187500
v -0.956250 1.890000 0.156250
v -0.956250 1.860000 0.187500
v 0.956250 1.860000 0.187500
v -0.956250 1.890000 0.156250
v 0.956250 1.860000 0.187500
v 0.956250 1.890000 0.156250
v -0.984375 1.580000 -0.156250
v -0.956250 1.580000 -0.187500
v -0.956250 1.550000 -0.156250
v -0.984375 1.580000 0.156250
v -0.956250 1.550000 0.156250
v -0.956250 1.580000 0.187500
v -0.984375 1.860000 -0.156250
v -0.956250 1.890000 -0.156250
v -0.956250 1.860000 -0.187500
v -0.984375 1.860000 0.156250
v -0.956250 1.860000 0.187500
v -0.956250 1.890000 0.156250
v 0.984375 1.580000 -0.156250
v 0.956250 1.550000 -0.156250
v 0.956250 1.580000 -0.187500
v 0.984375 1.580000 0.156250
v 0.956250 1.580000 0.187500
v 0.956250 1.550000 0.156250
v 0.984375 1.860000 -0.156250
v 0.956250 1.860000 -0.187500
v 0.956250 1.890000 -0.156250
v 0.984375 1.860000 0.156250
v 0.956250 1.890000 0.156250
v 0.956250 1.860000 0.187500
vn -1.0000 -0.0000 -0.0000
vn 1.0000 -0.0000 -0.0000
vn -0.0000 -1.0000 -0.0000
vn -0.0000 1.0000 -0.0000
vn -0.0000 -0.0000 -1.0000
vn -0.0000 -0.0000 1.0000
vn -0.7295 -0.6839 -0.0000
vn -0.7295 0.6839 -0.0000
vn 0.7295 -0.6839 -0.0000
vn 0.7295 0.6839 -0.0000
vn -0.7433 -0.0000 -0.6690
vn -0.7433 -0.0000 0.6690
vn 0.7433 -0.0000 -0.6690
vn 0.7433 -0.0000 0.6690
vn -0.0000 -0.7214 -0.6925
vn -0.0000 -0.7214 0.6925
vn -0.0000 0.7214 -0.6925
vn -0.0000 0.7214 0.6925
vn -0.6098 -0.5717 -0.5488
vn -0.6098 -0.5717 0.5488
vn -0.6098 0.5717 -0.5489
vn -0.6098 0.5717 0.5489
vn 0.6098 -0.5717 -0.5488
vn 0.6098 -0.5717 0.5488
vn 0.6098 0.5717 -0.5489
vn 0.6098 0.5717 0.5489
vt 0.014189 0.742036
vt 0.033119 0.764855
vt 0.014189 0.764855
vt 0.125893 0.782548
vt 0.106962 0.782548
vt 0.106962 0.759729
vt 0.154271 0.782548
vt 0.154271 0.759729
vt 0.173201 0.759729
vt 0.429233 0.760968
vt 0.410303 0.783788
vt 0.410303 0.760968
vt 0.466798 0.348388
vt 0.466798 0.192523
vt 0.492266 0.192523
vt 0.384574 0.192523
vt 0.359106 0.348388
vt 0.359106 0.192523
vt 0.412952 0.192523
vt 0.438420 0.348388
vt 0.412952 0.348388
vt 0.266694 0.526723
vt 0.241226 0.526723
vt 0.241226 0.370858
vt 0.317651 0.370858
vt 0.317651 0.528384
vt 0.295072 0.525078
vt 0.381925 0.532631
vt 0.359106 0.532631
vt 0.359106 0.376766
vt 0.410303 0.376766
vt 0.432595 0.478624
vt 0.410303 0.483502
vt 0.483265 0.376766
vt 0.483265 0.483502
vt 0.460973 0.381645
vt 0.860502 0.346058
vt 0.858210 0.346058
vt 0.858210 0.320590
vt 0.211853 0.860510
vt 0.209561 0.835042
vt 0.211853 0.835042
vt 0.859527 0.402255
vt 0.861819 0.376787
vt 0.861819 0.402255
vt 0.859535 0.461293
vt 0.859535 0.435824
vt 0.861827 0.435824
vt 0.861165 0.823000
vt 0.863457 0.797532
vt 0.863457 0.823000
vt 0.704358 0.866675
vt 0.704358 0.841207
vt 0.706650 0.841207
vt 0.297364 0.868294
vt 0.295072 0.868294
vt 0.295072 0.842826
vt 0.328034 0.868294
vt 0.325742 0.842826
vt 0.328034 0.842826
vt 0.894369 0.904206
vt 0.892076 0.927025
vt 0.892076 0.904206
vt 0.241226 0.903277
vt 0.243507 0.925982
vt 0.241226 0.926211
vt 0.211853 0.911708
vt 0.208427 0.911708
vt 0.208427 0.888888
vt 0.644342 0.887132
vt 0.644342 0.864057
vt 0.647730 0.864566
vt 0.861165 0.904338
vt 0.863457 0.904338
vt 0.863457 0.927158
vt 0.925282 0.902678
vt 0.925282 0.925612
vt 0.923001 0.925383
vt 0.913077 0.528062
vt 0.909651 0.550881
vt 0.909651 0.528062
vt 0.524032 0.887153
vt 0.520644 0.864586
vt 0.524032 0.864078
vt 0.520644 0.192523
vt 0.523190 0.192565
vt 0.520644 0.348409
vt 0.523190 0.376787
vt 0.523190 0.532673
vt 0.520644 0.532631
vt 0.014189 0.535302
vt 0.014189 0.379416
vt 0.016735 0.535260
vt 0.047660 0.535302
vt 0.045113 0.379458
vt 0.047660 0.379416
vt 0.078584 0.379416
vt 0.078584 0.535302
vt 0.076038 0.379458
vt 0.106962 0.379416
vt 0.109509 0.535260
vt 0.106962 0.535302
vt 0.140433 0.535302
vt 0.137887 0.535260
vt 0.140433 0.379416
vt 0.168811 0.535302
vt 0.168811 0.379416
vt 0.171358 0.379458
vt 0.972912 0.587001
vt 0.972912 0.590428
vt 0.971208 0.588535
vt 0.831157 0.498191
vt 0.828712 0.496657
vt 0.831157 0.494764
vt 0.410303 0.966279
vt 0.412007 0.967813
vt 0.410303 0.969706
vt 0.755657 0.959000
vt 0.758366 0.956903
vt 0.758366 0.959995
vt 0.953660 0.966287
vt 0.955364 0.967820
vt 0.953660 0.969713
vt 0.295072 0.951398
vt 0.295072 0.947971
vt 0.297517 0.949864
vt 0.972912 0.618806
vt 0.972912 0.622232
vt 0.971208 0.620339
vt 0.957393 0.493097
vt 0.954948 0.491564
vt 0.957393 0.489671
s 0
usemtl slide_gate
f 457/457/101 458/458/101 459/459/101
f 460/460/101 461/461/101 462/462/101
f 463/463/102 464/464/102 465/465/102
f 466/466/102 467/467/102 468/468/102
f 469/469/103 470/470/103 471/471/103
f 472/472/103 473/473/103 474/474/103
f 475/475/104 476/476/104 477/477/104
f 478/478/104 479/479/104 480/480/104
f 481/481/105 482/482/105 483/483/105
f 484/484/105 485/485/105 486/486/105
f 487/487/106 488/488/106 489/489/106
f 490/490/106 491/491/106 492/492/106
f 493/493/107 494/494/107 495/495/107
f 496/496/107 497/497/107 498/498/107
f 499/499/108 500/500/108 501/501/108
f 502/502/108 503/503/108 504/504/108
f 505/505/109 506/506/109 507/507/109
f 508/508/109 509/509/109 510/510/109
f 511/511/110 512/512/110 513/513/110
f 514/514/110 515/515/110 516/516/110
f 517/517/111 518/518/111 519/519/111
f 520/520/111 521/521/111 522/522/111
f 523/523/112 524/524/112 525/525/112
f 526/526/112 527/527/112 528/528/112
f 529/529/113 530/530/113 531/531/113
f 532/532/113 533/533/113 534/534/113
f 535/535/114 536/536/114 537/537/114
f 538/538/114 539/539/114 540/540/114
f 541/541/115 542/542/115 543/543/115
f 544/544/115 545/545/115 546/546/115
f 547/547/116 548/548/116 549/549/116
f 550/550/116 551/551/116 552/552/116
f 553/553/117 554/554/117 555/555/117
f 556/556/117 557/557/117 558/558/117
f 559/559/118 560/560/118 561/561/118
f 562/562/118 563/563/118 564/564/118
f 565/565/119 566/566/119 567/567/119
f 568/568/120 569/569/120 570/570/120
f 571/571/121 572/572/121 573/573/121
f 574/574/122 575/575/122 576/576/122
f 577/577/123 578/578/123 579/579/123
f 580/580/124 581/581/124 582/582/124
f 583/583/125 584/584/125 585/585/125
f 586/586/126 587/587/126 588/588/126
o crossbar_lip
v -0.984375 1.520000 -0.177083
v -0.984375 1.540000 0.177083
v -0.984375 1.540000 -0.177083
v -0.984375 1.520000 -0.177083
v -0.984375 1.520000 0.177083
v -0.984375 1.540000 0.177083
v 0.984375 1.520000 -0.177083
v 0.984375 1.540000 -0.177083
v 0.984375 1.540000 0.177083
v 0.984375 1.520000 -0.177083
v 0.984375 1.540000 0.177083
v 0.984375 1.520000 0.177083
v -0.956250 1.490000 -0.177083
v 0.956250 1.490000 -0.177083
v 0.956250 1.490000 0.177083
v -0.956250 1.490000 -0.177083
v 0.956250 1.490000 0.177083
v -0.956250 1.490000 0.177083
v -0.956250 1.570000 -0.177083
v 0.956250 1.570000 0.177083
v 0.956250 1.570000 -0.177083
v -0.956250 1.570000 -0.177083
v -0.956250 1.570000 0.177083
v 0.956250 1.570000 0.177083
v -0.956250 1.520000 -0.208333
v 0.956250 1.540000 -0.208333
v 0.956250 1.520000 -0.208333
v -0.956250 1.520000 -0.208333
v -0.956250 1.540000 -0.208333
v 0.956250 1.540000 -0.208333
v -0.956250 1.520000 0.208333
v 0.956250 1.520000 0.208333
v 0.956250 1.540000 0.208333
v -0.956250 1.520000 0.208333
v 0.956250 1.540000 0.208333
v -0.956250 1.540000 0.208333
v -0.984375 1.520000 -0.177083
v -0.956250 1.490000 -0.177083
v -0.956250 1.490000 0.177083
v -0.984375 1.520000 -0.177083
v -0.956250 1.490000 0.177083
v -0.984375 1.520000 0.177083
v -0.984375 1.540000 -0.177083
v -0.956250 1.570000 0.177083
v -0.956250 1.570000 -0.177083
v -0.984375 1.540000 -0.177083
v -0.984375 1.540000 0.177083
v -0.956250 1.570000 0.177083
v 0.984375 1.520000 -0.177083
v 0.956250 1.490000 0.177083
v 0.956250 1.490000 -0.177083
v 0.984375 1.520000 -0.177083
v 0.984375 1.520000 0.177083
v 0.956250 1.490000 0.177083
v 0.984375 1.540000 -0.177083
v 0.956250 1.570000 -0.177083
v 0.956250 1.570000 0.177083
v 0.984375 1.540000 -0.177083
v 0.956250 1.570000 0.177083
v 0.984375 1.540000 0.177083
v -0.984375 1.520000 -0.177083
v -0.956250 1.540000 -0.208333
v -0.956250 1.520000 -0.208333
v -0.984375 1.520000 -0.177083
v -0.984375 1.540000 -0.177083
v -0.956250 1.540000 -0.208333
v -0.984375 1.520000 0.177083
v -0.956250 1.520000 0.208333
v -0.956250 1.540000 0.208333
v -0.984375 1.520000 0.177083
v -0.956250 1.540000 0.208333
v -0.984375 1.540000 0.177083
v 0.984375 1.520000 -0.177083
v 0.956250 1.520000 -0.208333
v 0.956250 1.540000 -0.208333
v 0.984375 1.520000 -0.177083
v 0.956250 1.540000 -0.208333
v 0.984375 1.540000 -0.177083
v 0.984375 1.520000 0.177083
v 0.956250 1.540000 0.208333
v 0.956250 1.520000 0.208333
v 0.984375 1.520000 0.177083
v 0.984375 1.540000 0.177083
v 0.956250 1.540000 0.208333
v -0.956250 1.490000 -0.177083
v -0.956250 1.520000 -0.208333
v 0.956250 1.520000 -0.208333
v -0.956250 1.490000 -0.177083
v 0.956250 1.520000 -0.208333
v 0.956250 1.490000 -0.177083
v -0.956250 1.490000 0.177083
v 0.956250 1.520000 0.208333
v -0.956250 1.520000 0.208333
v -0.956250 1.490000 0.177083
v 0.956250 1.490000 0.177083
v 0.956250 1.520000 0.208333
v -0.956250 1.570000 -0.177083
v 0.956250 1.540000 -0.208333
v -0.956250 1.540000 -0.208333
v -0.956250 1.570000 -0.177083
v 0.956250 1.570000 -0.177083
v 0.956250 1.540000 -0.208333
v -0.956250 1.570000 0.177083
v -0.956250 1.540000 0.208333
v 0.956250 1.540000 0.208333
v -0.956250 1.570000 0.177083
v 0.956250 1.540000 0.208333
v 0.956250 1.570000 0.177083
v -0.984375 1.520000 -0.177083
v -0.956250 1.520000 -0.208333
v -0.956250 1.490000 -0.177083
v -0.984375 1.520000 0.177083
v -0.956250 1.490000 0.177083
v -0.956250 1.520000 0.208333
v -0.984375 1.540000 -0.177083
v -0.956250 1.570000 -0.177083
v -0.956250 1.540000 -0.208333
v -0.984375 1.540000 0.177083
v -0.956250 1.540000 0.208333
v -0.956250 1.570000 0.177083
v 0.984375 1.520000 -0.177083
v 0.956250 1.490000 -0.177083
v 0.956250 1.520000 -0.208333
v 0.984375 1.520000 0.177083
v 0.956250 1.520000 0.208333
v 0.956250 1.490000 0.177083
v 0.984375 1.540000 -0.177083
v 0.956250 1.540000 -0.208333
v 0.956250 1.570000 -0.177083
v 0.984375 1.540000 0.177083
v 0.956250 1.570000 0.177083
v 0.956250 1.540000 0.208333
vn -1.0000 -0.0000 -0.0000
vn 1.0000 -0.0000 -0.0000
vn -0.0000 -1.0000 -0.0000
vn -0.0000 1.0000 -0.0000
vn -0.0000 -0.0000 -1.0000
vn -0.0000 -0.0000 1.0000
vn -0.7295 -0.6839 -0.0000
vn -0.7295 0.6839 -0.0000
vn 0.7295 -0.6839 -0.0000
vn 0.7295 0.6839 -0.0000
vn -0.7433 -0.0000 -0.6690
vn -0.7433 -0.0000 0.6690
vn 0.7433 -0.0000 -0.6690
vn 0.7433 -0.0000 0.6690
vn -0.0000 -0.7214 -0.6925
vn -0.0000 -0.7214 0.6925
vn -0.0000 0.7214 -0.6925
vn -0.0000 0.7214 0.6925
vn -0.6098 -0.5717 -0.5489
vn -0.6098 -0.5717 0.5489
vn -0.6098 0.5717 -0.5489
vn -0.6098 0.5717 0.5489
vn 0.6098 -0.5717 -0.5489
vn 0.6098 -0.5717 0.5489
vn 0.6098 0.5717 -0.5489
vn 0.6098 0.5717 0.5489
vt 0.755657 0.928525
vt 0.757287 0.907070
vt 0.757287 0.928525
vt 0.830254 0.930886
vt 0.830254 0.909432
vt 0.831884 0.909432
vt 0.615890 0.885532
vt 0.614260 0.885532
vt 0.614260 0.864078
vt 0.360736 0.932338
vt 0.359106 0.910883
vt 0.360736 0.910883
vt 0.042570 0.172704
vt 0.014189 0.019445
vt 0.042570 0.014189
vt 0.070948 0.172704
vt 0.070948 0.014189
vt 0.099330 0.167448
vt 0.127708 0.172704
vt 0.127708 0.014189
vt 0.156089 0.019445
vt 0.212848 0.172704
vt 0.184467 0.167448
vt 0.212848 0.014189
vt 0.674350 0.376787
vt 0.675980 0.532652
vt 0.674350 0.532652
vt 0.645972 0.532652
vt 0.644342 0.532652
vt 0.644342 0.376787
vt 0.630329 0.014189
vt 0.630329 0.118457
vt 0.628699 0.118457
vt 0.660337 0.014189
vt 0.658707 0.118457
vt 0.658707 0.014189
vt 0.850209 0.615865
vt 0.847917 0.615865
vt 0.847917 0.587001
vt 0.850209 0.673107
vt 0.847917 0.644243
vt 0.850209 0.644243
vt 0.849755 0.221387
vt 0.852047 0.192523
vt 0.852047 0.221387
vt 0.849755 0.278629
vt 0.849755 0.249765
vt 0.852047 0.249765
vt 0.856930 0.762363
vt 0.859222 0.733499
vt 0.859222 0.762363
vt 0.858138 0.043053
vt 0.858138 0.014189
vt 0.860431 0.014189
vt 0.860431 0.100295
vt 0.858139 0.100295
vt 0.858139 0.071431
vt 0.860431 0.157537
vt 0.858139 0.128673
vt 0.860431 0.128673
vt 0.984206 0.435824
vt 0.984206 0.438637
vt 0.982878 0.437692
vt 0.983741 0.966286
vt 0.985070 0.967231
vt 0.983741 0.969099
vt 0.973083 0.227754
vt 0.973083 0.224328
vt 0.974713 0.224328
vt 0.974065 0.280211
vt 0.975695 0.276785
vt 0.975695 0.280211
vt 0.984483 0.902678
vt 0.985811 0.904546
vt 0.984483 0.905490
vt 0.985811 0.934482
vt 0.985811 0.937295
vt 0.984483 0.935427
vt 0.210057 0.978410
vt 0.208427 0.974983
vt 0.210057 0.974983
vt 0.981620 0.736925
vt 0.979990 0.736925
vt 0.979990 0.733499
vt 0.199736 0.379416
vt 0.202282 0.379458
vt 0.199736 0.535302
vt 0.554115 0.192523
vt 0.554115 0.348409
vt 0.551568 0.348367
vt 0.551568 0.532673
vt 0.551568 0.376787
vt 0.554115 0.532631
vt 0.585039 0.348409
vt 0.582493 0.192565
vt 0.585039 0.192523
vt 0.585039 0.376787
vt 0.585039 0.532673
vt 0.582493 0.376829
vt 0.613417 0.192523
vt 0.615964 0.348367
vt 0.613417 0.348409
vt 0.615964 0.532673
vt 0.613417 0.532631
vt 0.615964 0.376787
vt 0.644342 0.348409
vt 0.644342 0.192523
vt 0.646888 0.192565
vt 0.972912 0.650610
vt 0.972912 0.654036
vt 0.971208 0.652143
vt 0.647228 0.960544
vt 0.644342 0.960544
vt 0.645407 0.957641
vt 0.971208 0.682414
vt 0.972912 0.683948
vt 0.971208 0.685841
vt 0.952055 0.439251
vt 0.952055 0.435824
vt 0.954500 0.437717
vt 0.972278 0.528062
vt 0.973982 0.529595
vt 0.972278 0.531488
vt 0.520502 0.960564
vt 0.522322 0.957662
vt 0.523388 0.960564
vt 0.974787 0.192523
vt 0.974787 0.195950
vt 0.973083 0.194057
vt 0.328340 0.951398
vt 0.325895 0.949864
vt 0.328340 0.947971
s 0
usemtl slide_gate
f 589/589/127 590/590/127 591/591/127
f 592/592/127 593/593/127 594/594/127
f 595/595/128 596/596/128 597/597/128
f 598/598/128 599/599/128 600/600/128
f 601/601/129 602/602/129 603/603/129
f 604/604/129 605/605/129 606/606/129
f 607/607/130 608/608/130 609/609/130
f 610/610/130 611/611/130 612/612/130
f 613/613/131 614/614/131 615/615/131
f 616/616/131 617/617/131 618/618/131
f 619/619/132 620/620/132 621/621/132
f 622/622/132 623/623/132 624/624/132
f 625/625/133 626/626/133 627/627/133
f 628/628/133 629/629/133 630/630/133
f 631/631/134 632/632/134 633/633/134
f 634/634/134 635/635/134 636/636/134
f 637/637/135 638/638/135 639/639/135
f 640/640/135 641/641/135 642/642/135
f 643/643/136 644/644/136 645/645/136
f 646/646/136 647/647/136 648/648/136
f 649/649/137 650/650/137 651/651/137
f 652/652/137 653/653/137 654/654/137
f 655/655/138 656/656/138 657/657/138
f 658/658/138 659/659/138 660/660/138
f 661/661/139 662/662/139 663/663/139
f 664/664/139 665/665/139 666/666/139
f 667/667/140 668/668/140 669/669/140
f 670/670/140 671/671/140 672/672/140
f 673/673/141 674/674/141 675/675/141
f 676/676/141 677/677/141 678/678/141
f 679/679/142 680/680/142 681/681/142
f 682/682/142 683/683/142 684/684/142
f 685/685/143 686/686/143 687/687/143
f 688/688/143 689/689/143 690/690/143
f 691/691/144 692/692/144 693/693/144
f 694/694/144 695/695/144 696/696/144
f 697/697/145 698/698/145 699/699/145
f 700/700/146 701/701/146 702/702/146
f 703/703/147 704/704/147 705/705/147
f 706/706/148 707/707/148 708/708/148
f 709/709/149 710/710/149 711/711/149
f 712/712/150 713/713/150 714/714/150
f 715/715/151 716/716/151 717/717/151
f 718/718/152 719/719/152 720/720/152
o post_l
v -0.984375 0.030000 -0.187500
v -0.984375 1.870000 0.187500
v -0.984375 1.870000 -0.187500
v -0.984375 0.030000 -0.187500
v -0.984375 0.030000 0.187500
v -0.984375 1.870000 0.187500
v -0.759375 0.030000 -0.187500
v -0.759375 1.870000 -0.187500
v -0.759375 1.870000 0.187500
v -0.759375 0.030000 -0.187500
v -0.759375 1.870000 0.187500
v -0.759375 0.030000 0.187500
v -0.956250 -0.000000 -0.187500
v -0.787500 -0.000000 -0.187500
v -0.787500 0.000000 0.187500
v -0.956250 -0.000000 -0.187500
v -0.787500 0.000000 0.187500
v -0.956250 0.000000 0.187500
v -0.956250 1.900000 -0.187500
v -0.787500 1.900000 0.187500
v -0.787500 1.900000 -0.187500
v -0.956250 1.900000 -0.187500
v -0.956250 1.900000 0.187500
v -0.787500 1.900000 0.187500
v -0.956250 0.030000 -0.218750
v -0.787500 1.870000 -0.218750
v -0.787500 0.030000 -0.218750
v -0.956250 0.030000 -0.218750
v -0.956250 1.870000 -0.218750
v -0.787500 1.870000 -0.218750
v -0.956250 0.030000 0.218750
v -0.787500 0.030000 0.218750
v -0.787500 1.870000 0.218750
v -0.956250 0.030000 0.218750
v -0.787500 1.870000 0.218750
v -0.956250 1.870000 0.218750
v -0.984375 0.030000 -0.187500
v -0.956250 -0.000000 -0.187500
v -0.956250 0.000000 0.187500
v -0.984375 0.030000 -0.187500
v -0.956250 0.000000 0.187500
v -0.984375 0.030000 0.187500
v -0.984375 1.870000 -0.187500
v -0.956250 1.900000 0.187500
v -0.956250 1.900000 -0.187500
v -0.984375 1.870000 -0.187500
v -0.984375 1.870000 0.187500
v -0.956250 1.900000 0.187500
v -0.759375 0.030000 -0.187500
v -0.787500 0.000000 0.187500
v -0.787500 -0.000000 -0.187500
v -0.759375 0.030000 -0.187500
v -0.759375 0.030000 0.187500
v -0.787500 0.000000 0.187500
v -0.759375 1.870000 -0.187500
v -0.787500 1.900000 -0.187500
v -0.787500 1.900000 0.187500
v -0.759375 1.870000 -0.187500
v -0.787500 1.900000 0.187500
v -0.759375 1.870000 0.187500
v -0.984375 0.030000 -0.187500
v -0.956250 1.870000 -0.218750
v -0.956250 0.030000 -0.218750
v -0.984375 0.030000 -0.187500
v -0.984375 1.870000 -0.187500
v -0.956250 1.870000 -0.218750
v -0.984375 0.030000 0.187500
v -0.956250 0.030000 0.218750
v -0.956250 1.870000 0.218750
v -0.984375 0.030000 0.187500
v -0.956250 1.870000 0.218750
v -0.984375 1.870000 0.187500
v -0.759375 0.030000 -0.187500
v -0.787500 0.030000 -0.218750
v -0.787500 1.870000 -0.218750
v -0.759375 0.030000 -0.187500
v -0.787500 1.870000 -0.218750
v -0.759375 1.870000 -0.187500
v -0.759375 0.030000 0.187500
v -0.787500 1.870000 0.218750
v -0.787500 0.030000 0.218750
v -0.759375 0.030000 0.187500
v -0.759375 1.870000 0.187500
v -0.787500 1.870000 0.218750
v -0.956250 -0.000000 -0.187500
v -0.956250 0.030000 -0.218750
v -0.787500 0.030000 -0.218750
v -0.956250 -0.000000 -0.187500
v -0.787500 0.030000 -0.218750
v -0.787500 -0.000000 -0.187500
v -0.956250 0.000000 0.187500
v -0.787500 0.030000 0.218750
v -0.956250 0.030000 0.218750
v -0.956250 0.000000 0.187500
v -0.787500 0.000000 0.187500
v -0.787500 0.030000 0.218750
v -0.956250 1.900000 -0.187500
v -0.787500 1.870000 -0.218750
v -0.956250 1.870000 -0.218750
v -0.956250 1.900000 -0.187500
v -0.787500 1.900000 -0.187500
v -0.787500 1.870000 -0.218750
v -0.956250 1.900000 0.187500
v -0.956250 1.870000 0.218750
v -0.787500 1.870000 0.218750
v -0.956250 1.900000 0.187500
v -0.787500 1.870000 0.218750
v -0.787500 1.900000 0.187500
v -0.984375 0.030000 -0.187500
v -0.956250 0.030000 -0.218750
v -0.956250 -0.000000 -0.187500
v -0.984375 0.030000 0.187500
v -0.956250 0.000000 0.187500
v -0.956250 0.030000 0.218750
v -0.984375 1.870000 -0.187500
v -0.956250 1.900000 -0.187500
v -0.956250 1.870000 -0.218750
v -0.984375 1.870000 0.187500
v -0.956250 1.870000 0.218750
v -0.956250 1.900000 0.187500
v -0.759375 0.030000 -0.187500
v -0.787500 -0.000000 -0.187500
v -0.787500 0.030000 -0.218750
v -0.759375 0.030000 0.187500
v -0.787500 0.030000 0.218750
v -0.787500 0.000000 0.187500
v -0.759375 1.870000 -0.187500
v -0.787500 1.870000 -0.218750
v -0.787500 1.900000 -0.187500
v -0.759375 1.870000 0.187500
v -0.787500 1.900000 0.187500
v -0.787500 1.870000 0.218750
vn -1.0000 -0.0000 -0.0000
vn 1.0000 -0.0000 -0.0000
vn -0.0000 -1.0000 -0.0000
vn -0.0000 1.0000 -0.0000
vn -0.0000 -0.0000 -1.0000
vn -0.0000 -0.0000 1.0000
vn -0.7295 -0.6839 -0.0000
vn -0.7295 0.6839 -0.0000
vn 0.7295 -0.6839 -0.0000
vn 0.7295 0.6839 -0.0000
vn -0.7433 -0.0000 -0.6690
vn -0.7433 -0.0000 0.6690
vn 0.7433 -0.0000 -0.6690
vn 0.7433 -0.0000 0.6690
vn -0.0000 -0.7214 -0.6925
vn -0.0000 -0.7214 0.6925
vn -0.0000 0.7214 -0.6925
vn -0.0000 0.7214 0.6925
vn -0.6098 -0.5717 -0.5489
vn -0.6098 -0.5717 0.5489
vn -0.6098 0.5717 -0.5489
vn -0.6098 0.5717 0.5489
vn 0.6098 -0.5717 -0.5489
vn 0.6098 -0.5717 0.5489
vn 0.6098 0.5717 -0.5489
vn 0.6098 0.5717 0.5489
vt 0.241226 0.014189
vt 0.271788 0.164145
vt 0.241226 0.164145
vt 0.044751 0.351038
vt 0.014189 0.351038
vt 0.014189 0.201082
vt 0.073129 0.351038
vt 0.073129 0.201082
vt 0.103690 0.201082
vt 0.330728 0.014189
vt 0.300166 0.164145
vt 0.300166 0.014189
vt 0.075250 0.764083
vt 0.061497 0.764083
vt 0.061497 0.742036
vt 0.471364 0.783015
vt 0.457611 0.760968
vt 0.471364 0.760968
vt 0.781330 0.137086
vt 0.795083 0.115039
vt 0.795083 0.137086
vt 0.786581 0.398834
vt 0.786581 0.376787
vt 0.800334 0.376787
vt 0.204761 0.201082
vt 0.191008 0.351038
vt 0.191008 0.201082
vt 0.431798 0.014189
vt 0.431798 0.164145
vt 0.418045 0.164145
vt 0.410303 0.511880
vt 0.424056 0.511880
vt 0.424056 0.615730
vt 0.544438 0.014189
vt 0.558190 0.118038
vt 0.544438 0.118038
vt 0.828552 0.764158
vt 0.826115 0.763963
vt 0.828552 0.733499
vt 0.831157 0.466386
vt 0.828712 0.435824
vt 0.831157 0.435824
vt 0.830342 0.828094
vt 0.832787 0.797532
vt 0.832787 0.828094
vt 0.644342 0.835679
vt 0.644342 0.805117
vt 0.646787 0.805117
vt 0.520644 0.835700
vt 0.523089 0.805138
vt 0.523089 0.835700
vt 0.551467 0.835700
vt 0.551467 0.805138
vt 0.553912 0.805138
vt 0.584735 0.835700
vt 0.582290 0.835700
vt 0.582290 0.805138
vt 0.615558 0.835700
vt 0.613113 0.805138
vt 0.615558 0.805138
vt 0.677813 0.192523
vt 0.677813 0.342501
vt 0.675266 0.192567
vt 0.241226 0.555101
vt 0.243773 0.705035
vt 0.241226 0.705079
vt 0.297619 0.706740
vt 0.295072 0.706697
vt 0.297619 0.556762
vt 0.325997 0.706740
vt 0.325997 0.556762
vt 0.328543 0.556805
vt 0.704358 0.376787
vt 0.706904 0.376830
vt 0.704358 0.526765
vt 0.706904 0.555143
vt 0.706904 0.705121
vt 0.704358 0.705078
vt 0.706191 0.342501
vt 0.706191 0.192523
vt 0.708737 0.342458
vt 0.361652 0.710987
vt 0.359106 0.561052
vt 0.361652 0.561009
vt 0.489520 0.923160
vt 0.491927 0.923588
vt 0.489520 0.937129
vt 0.412710 0.923933
vt 0.412710 0.937901
vt 0.410303 0.937473
vt 0.110493 0.922693
vt 0.106962 0.936446
vt 0.106962 0.922693
vt 0.170779 0.936446
vt 0.170779 0.922693
vt 0.174310 0.922693
vt 0.943900 0.528062
vt 0.941455 0.541814
vt 0.941455 0.528062
vt 0.942261 0.248407
vt 0.942261 0.234654
vt 0.944705 0.234654
vt 0.555941 0.930658
vt 0.552410 0.930658
vt 0.552410 0.916905
vt 0.644342 0.915510
vt 0.647872 0.929263
vt 0.644342 0.929263
vt 0.297517 0.979776
vt 0.297517 0.982322
vt 0.295072 0.979776
vt 0.361860 0.963653
vt 0.359106 0.962924
vt 0.361860 0.960716
vt 0.457611 0.966984
vt 0.459375 0.965291
vt 0.459375 0.968821
vt 0.552410 0.961973
vt 0.552410 0.959036
vt 0.555165 0.961244
vt 0.325895 0.979776
vt 0.328340 0.979776
vt 0.325895 0.982322
vt 0.584319 0.961973
vt 0.584319 0.959036
vt 0.587074 0.961244
vt 0.894368 0.957096
vt 0.892605 0.958934
vt 0.892605 0.955403
vt 0.850209 0.703322
vt 0.847917 0.705015
vt 0.847917 0.701485
s 0
usemtl slide_gate
f 721/721/153 722/722/153 723/723/153
f 724/724/153 725/725/153 726/726/153
f 727/727/154 728/728/154 729/729/154
f 730/730/154 731/731/154 732/732/154
f 733/733/155 734/734/155 735/735/155
f 736/736/155 737/737/155 738/738/155
f 739/739/156 740/740/156 741/741/156
f 742/742/156 743/743/156 744/744/156
f 745/745/157 746/746/157 747/747/157
f 748/748/157 749/749/157 750/750/157
f 751/751/158 752/752/158 753/753/158
f 754/754/158 755/755/158 756/756/158
f 757/757/159 758/758/159 759/759/159
f 760/760/159 761/761/159 762/762/159
f 763/763/160 764/764/160 765/765/160
f 766/766/160 767/767/160 768/768/160
f 769/769/161 770/770/161 771/771/161
f 772/772/161 773/773/161 774/774/161
f 775/775/162 776/776/162 777/777/162
f 778/778/162 779/779/162 780/780/162
f 781/781/163 782/782/163 783/783/163
f 784/784/163 785/785/163 786/786/163
f 787/787/164 788/788/164 789/789/164
f 790/790/164 791/791/164 792/792/164
f 793/793/165 794/794/165 795/795/165
f 796/796/165 797/797/165 798/798/165
f 799/799/166 800/800/166 801/801/166
f 802/802/166 803/803/166 804/804/166
f 805/805/167 806/806/167 807/807/167
f 808/808/167 809/809/167 810/810/167
f 811/811/168 812/812/168 813/813/168
f 814/814/168 815/815/168 816/816/168
f 817/817/169 818/818/169 819/819/169
f 820/820/169 821/821/169 822/822/169
f 823/823/170 824/824/170 825/825/170
f 826/826/170 827/827/170 828/828/170
f 829/829/171 830/830/171 831/831/171
f 832/832/172 833/833/172 834/834/172
f 835/835/173 836/836/173 837/837/173
f 838/838/174 839/839/174 840/840/174
f 841/841/175 842/842/175 843/843/175
f 844/844/176 845/845/176 846/846/176
f 847/847/177 848/848/177 849/849/177
f 850/850/178 851/851/178 852/852/178
o post_light_l
v -0.806250 1.370000 0.229167
v -0.806250 1.370000 -0.229167
v -0.806250 1.230000 0.229167
v -0.806250 1.230000 -0.229167
v -0.937500 1.370000 -0.229167
v -0.937500 1.370000 0.229167
v -0.937500 1.230000 -0.229167
v -0.937500 1.230000 0.229167
v -0.937500 1.370000 -0.229167
v -0.806250 1.370000 -0.229167
v -0.937500 1.370000 0.229167
v -0.806250 1.370000 0.229167
v -0.937500 1.230000 0.229167
v -0.806250 1.230000 0.229167
v -0.937500 1.230000 -0.229167
v -0.806250 1.230000 -0.229167
v -0.937500 1.370000 0.229167
v -0.806250 1.370000 0.229167
v -0.937500 1.230000 0.229167
v -0.806250 1.230000 0.229167
v -0.806250 1.370000 -0.229167
v -0.937500 1.370000 -0.229167
v -0.806250 1.230000 -0.229167
v -0.937500 1.230000 -0.229167
vn 1.0000 -0.0000 -0.0000
vn -1.0000 -0.0000 -0.0000
vn -0.0000 1.0000 -0.0000
vn -0.0000 -1.0000 -0.0000
vn -0.0000 -0.0000 1.0000
vn -0.0000 -0.0000 -1.0000
vt 0.741542 0.014189
vt 0.752952 0.014189
vt 0.741542 0.051542
vt 0.752952 0.051542
vt 0.752952 0.117273
vt 0.741542 0.117273
vt 0.752952 0.079920
vt 0.741542 0.079920
vt 0.644342 0.776739
vt 0.644342 0.739386
vt 0.655038 0.776739
vt 0.655038 0.739386
vt 0.531341 0.739407
vt 0.531341 0.776760
vt 0.520644 0.739407
vt 0.520644 0.776760
vt 0.698495 0.158245
vt 0.698495 0.146835
vt 0.709191 0.158245
vt 0.709191 0.146835
vt 0.737569 0.158245
vt 0.737569 0.146835
vt 0.748266 0.158245
vt 0.748266 0.146835
s 0
usemtl slide_gate
f 853/853/179 855/854/179 854/855/179
f 855/854/179 856/856/179 854/855/179
f 857/857/180 859/858/180 858/859/180
f 859/858/180 860/860/180 858/859/180
f 861/861/181 863/862/181 862/863/181
f 863/862/181 864/864/181 862/863/181
f 865/865/182 867/866/182 866/867/182
f 867/866/182 868/868/182 866/867/182
f 869/869/183 871/870/183 870/871/183
f 871/870/183 872/872/183 870/871/183
f 873/873/184 875/874/184 874/875/184
f 875/874/184 876/876/184 874/875/184
o post_light_r
v 0.937500 1.370000 0.229167
v 0.937500 1.370000 -0.229167
v 0.937500 1.230000 0.229167
v 0.937500 1.230000 -0.229167
v 0.806250 1.370000 -0.229167
v 0.806250 1.370000 0.229167
v 0.806250 1.230000 -0.229167
v 0.806250 1.230000 0.229167
v 0.806250 1.370000 -0.229167
v 0.937500 1.370000 -0.229167
v 0.806250 1.370000 0.229167
v 0.937500 1.370000 0.229167
v 0.806250 1.230000 0.229167
v 0.937500 1.230000 0.229167
v 0.806250 1.230000 -0.229167
v 0.937500 1.230000 -0.229167
v 0.806250 1.370000 0.229167
v 0.937500 1.370000 0.229167
v 0.806250 1.230000 0.229167
v 0.937500 1.230000 0.229167
v 0.937500 1.370000 -0.229167
v 0.806250 1.370000 -0.229167
v 0.937500 1.230000 -0.229167
v 0.806250 1.230000 -0.229167
vn 1.0000 -0.0000 -0.0000
vn -1.0000 -0.0000 -0.0000
vn -0.0000 1.0000 -0.0000
vn -0.0000 -1.0000 -0.0000
vn -0.0000 -0.0000 1.0000
vn -0.0000 -0.0000 -1.0000
vt 0.755657 0.733499
vt 0.767067 0.733499
vt 0.755657 0.770852
vt 0.767067 0.770852
vt 0.370515 0.776718
vt 0.359106 0.776718
vt 0.370515 0.739365
vt 0.359106 0.739365
vt 0.559719 0.776760
vt 0.559719 0.739407
vt 0.570415 0.776760
vt 0.570415 0.739407
vt 0.609490 0.739407
vt 0.609490 0.776760
vt 0.598793 0.739407
vt 0.598793 0.776760
vt 0.878587 0.704330
vt 0.878587 0.692921
vt 0.889284 0.704330
vt 0.889284 0.692921
vt 0.787281 0.916782
vt 0.787281 0.905372
vt 0.797978 0.916782
vt 0.797978 0.905372
s 0
usemtl slide_gate
f 877/877/185 879/878/185 878/879/185
f 879/878/185 880/880/185 878/879/185
f 881/881/186 883/882/186 882/883/186
f 883/882/186 884/884/186 882/883/186
f 885/885/187 887/886/187 886/887/187
f 887/886/187 888/888/187 886/887/187
f 889/889/188 891/890/188 890/891/188
f 891/890/188 892/892/188 890/891/188
f 893/893/189 895/894/189 894/895/189
f 895/894/189 896/896/189 894/895/189
f 897/897/190 899/898/190 898/899/190
f 899/898/190 900/900/190 898/899/190
o post_r
v 0.759375 0.030000 -0.187500
v 0.759375 1.870000 0.187500
v 0.759375 1.870000 -0.187500
v 0.759375 0.030000 -0.187500
v 0.759375 0.030000 0.187500
v 0.759375 1.870000 0.187500
v 0.984375 0.030000 -0.187500
v 0.984375 1.870000 -0.187500
v 0.984375 1.870000 0.187500
v 0.984375 0.030000 -0.187500
v 0.984375 1.870000 0.187500
v 0.984375 0.030000 0.187500
v 0.787500 -0.000000 -0.187500
v 0.956250 -0.000000 -0.187500
v 0.956250 0.000000 0.187500
v 0.787500 -0.000000 -0.187500
v 0.956250 0.000000 0.187500
v 0.787500 0.000000 0.187500
v 0.787500 1.900000 -0.187500
v 0.956250 1.900000 0.187500
v 0.956250 1.900000 -0.187500
v 0.787500 1.900000 -0.187500
v 0.787500 1.900000 0.187500
v 0.956250 1.900000 0.187500
v 0.787500 0.030000 -0.218750
v 0.956250 1.870000 -0.218750
v 0.956250 0.030000 -0.218750
v 0.787500 0.030000 -0.218750
v 0.787500 1.870000 -0.218750
v 0.956250 1.870000 -0.218750
v 0.787500 0.030000 0.218750
v 0.956250 0.030000 0.218750
v 0.956250 1.870000 0.218750
v 0.787500 0.030000 0.218750
v 0.956250 1.870000 0.218750
v 0.787500 1.870000 0.218750
v 0.759375 0.030000 -0.187500
v 0.787500 -0.000000 -0.187500
v 0.787500 0.000000 0.187500
v 0.759375 0.030000 -0.187500
v 0.787500 0.000000 0.187500
v 0.759375 0.030000 0.187500
v 0.759375 1.870000 -0.187500
v 0.787500 1.900000 0.187500
v 0.787500 1.900000 -0.187500
v 0.759375 1.870000 -0.187500
v 0.759375 1.870000 0.187500
v 0.787500 1.900000 0.187500
v 0.984375 0.030000 -0.187500
v 0.956250 0.000000 0.187500
v 0.956250 -0.000000 -0.187500
v 0.984375 0.030000 -0.187500
v 0.984375 0.030000 0.187500
v 0.956250 0.000000 0.187500
v 0.984375 1.870000 -0.187500
v 0.956250 1.900000 -0.187500
v 0.956250 1.900000 0.187500
v 0.984375 1.870000 -0.187500
v 0.956250 1.900000 0.187500
v 0.984375 1.870000 0.187500
v 0.759375 0.030000 -0.187500
v 0.787500 1.870000 -0.218750
v 0.787500 0.030000 -0.218750
v 0.759375 0.030000 -0.187500
v 0.759375 1.870000 -0.187500
v 0.787500 1.870000 -0.218750
v 0.759375 0.030000 0.187500
v 0.787500 0.030000 0.218750
v 0.787500 1.870000 0.218750
v 0.759375 0.030000 0.187500
v 0.787500 1.870000 0.218750
v 0.759375 1.870000 0.187500
v 0.984375 0.030000 -0.187500
v 0.956250 0.030000 -0.218750
v 0.956250 1.870000 -0.218750
v 0.984375 0.030000 -0.187500
v 0.956250 1.870000 -0.218750
v 0.984375 1.870000 -0.187500
v 0.984375 0.030000 0.187500
v 0.956250 1.870000 0.218750
v 0.956250 0.030000 0.218750
v 0.984375 0.030000 0.187500
v 0.984375 1.870000 0.187500
v 0.956250 1.870000 0.218750
v 0.787500 -0.000000 -0.187500
v 0.787500 0.030000 -0.218750
v 0.956250 0.030000 -0.218750
v 0.787500 -0.000000 -0.187500
v 0.956250 0.030000 -0.218750
v 0.956250 -0.000000 -0.187500
v 0.787500 0.000000 0.187500
v 0.956250 0.030000 0.218750
v 0.787500 0.030000 0.218750
v 0.787500 0.000000 0.187500
v 0.956250 0.000000 0.187500
v 0.956250 0.030000 0.218750
v 0.787500 1.900000 -0.187500
v 0.956250 1.870000 -0.218750
v 0.787500 1.870000 -0.218750
v 0.787500 1.900000 -0.187500
v 0.956250 1.900000 -0.187500
v 0.956250 1.870000 -0.218750
v 0.787500 1.900000 0.187500
v 0.787500 1.870000 0.218750
v 0.956250 1.870000 0.218750
v 0.787500 1.900000 0.187500
v 0.956250 1.870000 0.218750
v 0.956250 1.900000 0.187500
v 0.759375 0.030000 -0.187500
v 0.787500 0.030000 -0.218750
v 0.787500 -0.000000 -0.187500
v 0.759375 0.030000 0.187500
v 0.787500 0.000000 0.187500
v 0.787500 0.030000 0.218750
v 0.759375 1.870000 -0.187500
v 0.787500 1.900000 -0.187500
v 0.787500 1.870000 -0.218750
v 0.759375 1.870000 0.187500
v 0.787500 1.870000 0.218750
v 0.787500 1.900000 0.187500
v 0.984375 0.030000 -0.187500
v 0.956250 -0.000000 -0.187500
v 0.956250 0.030000 -0.218750
v 0.984375 0.030000 0.187500
v 0.956250 0.030000 0.218750
v 0.956250 0.000000 0.187500
v 0.984375 1.870000 -0.187500
v 0.956250 1.870000 -0.218750
v 0.956250 1.900000 -0.187500
v 0.984375 1.870000 0.187500
v 0.956250 1.900000 0.187500
v 0.956250 1.870000 0.218750
vn -1.0000 -0.0000 -0.0000
vn 1.0000 -0.0000 -0.0000
vn -0.0000 -1.0000 -0.0000
vn -0.0000 1.0000 -0.0000
vn -0.0000 -0.0000 -1.0000
vn -0.0000 -0.0000 1.0000
vn -0.7295 -0.6839 -0.0000
vn -0.7295 0.6839 -0.0000
vn 0.7295 -0.6839 -0.0000
vn 0.7295 0.6839 -0.0000
vn -0.7433 -0.0000 -0.6690
vn -0.7433 -0.0000 0.6690
vn 0.7433 -0.0000 -0.6690
vn 0.7433 -0.0000 0.6690
vn -0.0000 -0.7214 -0.6925
vn -0.0000 -0.7214 0.6925
vn -0.0000 0.7214 -0.6925
vn -0.0000 0.7214 0.6925
vn -0.6098 -0.5717 -0.5489
vn -0.6098 -0.5717 0.5489
vn -0.6098 0.5717 -0.5489
vn -0.6098 0.5717 0.5489
vn 0.6098 -0.5717 -0.5489
vn 0.6098 -0.5717 0.5489
vn 0.6098 0.5717 -0.5489
vn 0.6098 0.5717 0.5489
vt 0.241226 0.192523
vt 0.271788 0.342480
vt 0.241226 0.342480
vt 0.162630 0.351038
vt 0.132068 0.351038
vt 0.132068 0.201082
vt 0.359106 0.164145
vt 0.359106 0.014189
vt 0.389667 0.014189
vt 0.330728 0.192523
vt 0.300166 0.342480
vt 0.300166 0.192523
vt 0.795083 0.036236
vt 0.781330 0.036236
vt 0.781330 0.014189
vt 0.795083 0.086661
vt 0.781330 0.064614
vt 0.795083 0.064614
vt 0.786581 0.449259
vt 0.800334 0.427212
vt 0.800334 0.449259
vt 0.786581 0.499684
vt 0.786581 0.477637
vt 0.800334 0.477637
vt 0.473929 0.014189
vt 0.460176 0.164145
vt 0.460176 0.014189
vt 0.516060 0.014189
vt 0.516060 0.164145
vt 0.502307 0.164145
vt 0.452434 0.511880
vt 0.466187 0.511880
vt 0.466187 0.615730
vt 0.586568 0.014189
vt 0.600321 0.118038
vt 0.586568 0.118038
vt 0.831149 0.407446
vt 0.828712 0.407251
vt 0.831149 0.376787
vt 0.109407 0.841488
vt 0.106962 0.810926
vt 0.109407 0.810926
vt 0.137785 0.841488
vt 0.140230 0.810926
vt 0.140230 0.841488
vt 0.168608 0.841488
vt 0.168608 0.810926
vt 0.171053 0.810926
vt 0.457611 0.841955
vt 0.460056 0.811393
vt 0.460056 0.841955
vt 0.488434 0.841955
vt 0.488434 0.811393
vt 0.490879 0.811393
vt 0.412748 0.842727
vt 0.410303 0.842727
vt 0.410303 0.812166
vt 0.850362 0.558623
vt 0.847917 0.528062
vt 0.850362 0.528062
vt 0.646888 0.561030
vt 0.646888 0.711008
vt 0.644342 0.561073
vt 0.520644 0.561051
vt 0.523190 0.710985
vt 0.520644 0.711029
vt 0.554115 0.711029
vt 0.551568 0.710985
vt 0.554115 0.561051
vt 0.582493 0.711029
vt 0.582493 0.561051
vt 0.585039 0.561094
vt 0.613417 0.561051
vt 0.615964 0.561094
vt 0.613417 0.711029
vt 0.016735 0.563680
vt 0.016735 0.713658
vt 0.014189 0.713615
vt 0.045113 0.713658
vt 0.045113 0.563680
vt 0.047660 0.713615
vt 0.078584 0.713658
vt 0.076038 0.563723
vt 0.078584 0.563680
vt 0.940423 0.587001
vt 0.942830 0.587429
vt 0.940423 0.600970
vt 0.942830 0.629348
vt 0.942830 0.643316
vt 0.940423 0.642888
vt 0.142401 0.922693
vt 0.138871 0.936446
vt 0.138871 0.922693
vt 0.457611 0.936913
vt 0.457611 0.923160
vt 0.461142 0.923160
vt 0.944705 0.192523
vt 0.942260 0.206276
vt 0.942260 0.192523
vt 0.942830 0.685663
vt 0.940423 0.672122
vt 0.942830 0.671694
vt 0.587849 0.930658
vt 0.584319 0.930658
vt 0.584319 0.916905
vt 0.520502 0.915531
vt 0.524032 0.929284
vt 0.520502 0.929284
vt 0.982435 0.765303
vt 0.982435 0.767850
vt 0.979990 0.765303
vt 0.831884 0.962202
vt 0.829129 0.961472
vt 0.831884 0.959264
vt 0.489520 0.967200
vt 0.491284 0.965507
vt 0.491284 0.969037
vt 0.922990 0.955827
vt 0.925282 0.953990
vt 0.925282 0.957520
vt 0.787281 0.980058
vt 0.789726 0.980058
vt 0.787281 0.982605
vt 0.106962 0.967762
vt 0.106962 0.964824
vt 0.109717 0.967032
vt 0.171767 0.966517
vt 0.170003 0.968355
vt 0.170003 0.964824
vt 0.141625 0.967762
vt 0.138871 0.967032
vt 0.141625 0.964824
s 0
usemtl slide_gate
f 901/901/191 902/902/191 903/903/191
f 904/904/191 905/905/191 906/906/191
f 907/907/192 908/908/192 909/909/192
f 910/910/192 911/911/192 912/912/192
f 913/913/193 914/914/193 915/915/193
f 916/916/193 917/917/193 918/918/193
f 919/919/194 920/920/194 921/921/194
f 922/922/194 923/923/194 924/924/194
f 925/925/195 926/926/195 927/927/195
f 928/928/195 929/929/195 930/930/195
f 931/931/196 932/932/196 933/933/196
f 934/934/196 935/935/196 936/936/196
f 937/937/197 938/938/197 939/939/197
f 940/940/197 941/941/197 942/942/197
f 943/943/198 944/944/198 945/945/198
f 946/946/198 947/947/198 948/948/198
f 949/949/199 950/950/199 951/951/199
f 952/952/199 953/953/199 954/954/199
f 955/955/200 956/956/200 957/957/200
f 958/958/200 959/959/200 960/960/200
f 961/961/201 962/962/201 963/963/201
f 964/964/201 965/965/201 966/966/201
f 967/967/202 968/968/202 969/969/202
f 970/970/202 971/971/202 972/972/202
f 973/973/203 974/974/203 975/975/203
f 976/976/203 977/977/203 978/978/203
f 979/979/204 980/980/204 981/981/204
f 982/982/204 983/983/204 984/984/204
f 985/985/205 986/986/205 987/987/205
f 988/988/205 989/989/205 990/990/205
f 991/991/206 992/992/206 993/993/206
f 994/994/206 995/995/206 996/996/206
f 997/997/207 998/998/207 999/999/207
f 1000/1000/207 1001/1001/207 1002/1002/207
f 1003/1003/208 1004/1004/208 1005/1005/208
f 1006/1006/208 1007/1007/208 1008/1008/208
f 1009/1009/209 1010/1010/209 1011/1011/209
f 1012/1012/210 1013/1013/210 1014/1014/210
f 1015/1015/211 1016/1016/211 1017/1017/211
f 1018/1018/212 1019/1019/212 1020/1020/212
f 1021/1021/213 1022/1022/213 1023/1023/213
f 1024/1024/214 1025/1025/214 1026/1026/214
f 1027/1027/215 1028/1028/215 1029/1029/215
f 1030/1030/216 1031/1031/216 1032/1032/216
