# Blender 4.2.23 LTS
# www.blender.org
mtllib tree.mtl
o crown_main
v -0.675732 3.019998 0.448074
v -0.032916 3.344877 0.725000
v -0.311530 3.388647 -0.000000
v -0.675732 3.019998 0.448074
v -0.278450 2.819211 1.173074
v -0.032916 3.344877 0.725000
v -0.729258 2.494333 0.762310
v -0.278450 2.819211 1.173074
v -0.675732 3.019998 0.448074
v -0.278450 2.819211 1.173074
v 0.364367 3.047050 1.233443
v -0.032916 3.344877 0.725000
v -0.032916 3.344877 0.725000
v 0.364367 3.545663 -0.000000
v -0.311530 3.388647 -0.000000
v -0.032916 3.344877 0.725000
v 0.761649 3.344877 0.725000
v 0.364367 3.545663 -0.000000
v 0.364367 3.047050 1.233443
v 0.761649 3.344877 0.725000
v -0.032916 3.344877 0.725000
v 0.761649 3.344877 0.725000
v 1.040264 3.388647 -0.000000
v 0.364367 3.545663 -0.000000
v 0.364367 3.545663 -0.000000
v -0.032916 3.344877 -0.725000
v -0.311530 3.388647 -0.000000
v 0.364367 3.545663 -0.000000
v 0.761649 3.344877 -0.725000
v -0.032916 3.344877 -0.725000
v 1.040264 3.388647 -0.000000
v 0.761649 3.344877 -0.725000
v 0.364367 3.545663 -0.000000
v 0.761649 3.344877 -0.725000
v 0.364367 3.047050 -1.233444
v -0.032916 3.344877 -0.725000
v -0.032916 3.344877 -0.725000
v -0.675732 3.019998 -0.448075
v -0.311530 3.388647 -0.000000
v -0.032916 3.344877 -0.725000
v -0.278450 2.819211 -1.173075
v -0.675732 3.019998 -0.448075
v 0.364367 3.047050 -1.233444
v -0.278450 2.819211 -1.173075
v -0.032916 3.344877 -0.725000
v -0.278450 2.819211 -1.173075
v -0.729258 2.494333 -0.762310
v -0.675732 3.019998 -0.448075
v -0.675732 3.019998 -0.448075
v -0.675732 3.019998 0.448074
v -0.311530 3.388647 -0.000000
v -0.675732 3.019998 -0.448075
v -0.921266 2.494333 -0.000000
v -0.675732 3.019998 0.448074
v -0.729258 2.494333 -0.762310
v -0.921266 2.494333 -0.000000
v -0.675732 3.019998 -0.448075
v -0.921266 2.494333 -0.000000
v -0.729258 2.494333 0.762310
v -0.675732 3.019998 0.448074
v 0.761649 3.344877 0.725000
v 1.404466 3.019998 0.448074
v 1.040264 3.388647 -0.000000
v 0.761649 3.344877 0.725000
v 1.007183 2.819211 1.173074
v 1.404466 3.019998 0.448074
v 0.364367 3.047050 1.233443
v 1.007183 2.819211 1.173074
v 0.761649 3.344877 0.725000
v 1.007183 2.819211 1.173074
v 1.457992 2.494333 0.762310
v 1.404466 3.019998 0.448074
v -0.278450 2.819211 1.173074
v 0.364367 2.494333 1.450000
v 0.364367 3.047050 1.233443
v -0.278450 2.819211 1.173074
v -0.278450 2.169454 1.173074
v 0.364367 2.494333 1.450000
v -0.729258 2.494333 0.762310
v -0.278450 2.169454 1.173074
v -0.278450 2.819211 1.173074
v -0.278450 2.169454 1.173074
v 0.364367 1.941616 1.233444
v 0.364367 2.494333 1.450000
v -0.921266 2.494333 -0.000000
v -0.675732 1.968667 0.448075
v -0.729258 2.494333 0.762310
v -0.921266 2.494333 -0.000000
v -0.675732 1.968667 -0.448075
v -0.675732 1.968667 0.448075
v -0.729258 2.494333 -0.762310
v -0.675732 1.968667 -0.448075
v -0.921266 2.494333 -0.000000
v -0.675732 1.968667 -0.448075
v -0.311530 1.600018 -0.000000
v -0.675732 1.968667 0.448075
v -0.278450 2.819211 -1.173075
v -0.278450 2.169454 -1.173075
v -0.729258 2.494333 -0.762310
v -0.278450 2.819211 -1.173075
v 0.364367 2.494333 -1.450000
v -0.278450 2.169454 -1.173075
v 0.364367 3.047050 -1.233444
v 0.364367 2.494333 -1.450000
v -0.278450 2.819211 -1.173075
v 0.364367 2.494333 -1.450000
v 0.364367 1.941615 -1.233444
v -0.278450 2.169454 -1.173075
v 0.761649 3.344877 -0.725000
v 1.007183 2.819211 -1.173075
v 0.364367 3.047050 -1.233444
v 0.761649 3.344877 -0.725000
v 1.404466 3.019998 -0.448075
v 1.007183 2.819211 -1.173075
v 1.040264 3.388647 -0.000000
v 1.404466 3.019998 -0.448075
v 0.761649 3.344877 -0.725000
v 1.404466 3.019998 -0.448075
v 1.457992 2.494333 -0.762310
v 1.007183 2.819211 -1.173075
v 1.404466 1.968667 0.448075
v 0.761649 1.643788 0.725000
v 1.040264 1.600018 -0.000000
v 1.404466 1.968667 0.448075
v 1.007183 2.169454 1.173074
v 0.761649 1.643788 0.725000
v 1.457992 2.494333 0.762310
v 1.007183 2.169454 1.173074
v 1.404466 1.968667 0.448075
v 1.007183 2.169454 1.173074
v 0.364367 1.941616 1.233444
v 0.761649 1.643788 0.725000
v 0.761649 1.643788 0.725000
v 0.364367 1.443002 -0.000000
v 1.040264 1.600018 -0.000000
v 0.761649 1.643788 0.725000
v -0.032916 1.643788 0.725000
v 0.364367 1.443002 -0.000000
v 0.364367 1.941616 1.233444
v -0.032916 1.643788 0.725000
v 0.761649 1.643788 0.725000
v -0.032916 1.643788 0.725000
v -0.311530 1.600018 -0.000000
v 0.364367 1.443002 -0.000000
v 0.364367 1.443002 -0.000000
v 0.761649 1.643788 -0.725000
v 1.040264 1.600018 -0.000000
v 0.364367 1.443002 -0.000000
v -0.032916 1.643788 -0.725000
v 0.761649 1.643788 -0.725000
v -0.311530 1.600018 -0.000000
v -0.032916 1.643788 -0.725000
v 0.364367 1.443002 -0.000000
v -0.032916 1.643788 -0.725000
v 0.364367 1.941615 -1.233444
v 0.761649 1.643788 -0.725000
v 0.761649 1.643788 -0.725000
v 1.404466 1.968667 -0.448075
v 1.040264 1.600018 -0.000000
v 0.761649 1.643788 -0.725000
v 1.007183 2.169454 -1.173075
v 1.404466 1.968667 -0.448075
v 0.364367 1.941615 -1.233444
v 1.007183 2.169454 -1.173075
v 0.761649 1.643788 -0.725000
v 1.007183 2.169454 -1.173075
v 1.457992 2.494333 -0.762310
v 1.404466 1.968667 -0.448075
v 1.404466 1.968667 -0.448075
v 1.404466 1.968667 0.448075
v 1.040264 1.600018 -0.000000
v 1.404466 1.968667 -0.448075
v 1.650000 2.494333 -0.000000
v 1.404466 1.968667 0.448075
v 1.457992 2.494333 -0.762310
v 1.650000 2.494333 -0.000000
v 1.404466 1.968667 -0.448075
v 1.650000 2.494333 -0.000000
v 1.457992 2.494333 0.762310
v 1.404466 1.968667 0.448075
v 1.007183 2.169454 1.173074
v 0.364367 2.494333 1.450000
v 0.364367 1.941616 1.233444
v 1.007183 2.169454 1.173074
v 1.007183 2.819211 1.173074
v 0.364367 2.494333 1.450000
v 1.457992 2.494333 0.762310
v 1.007183 2.819211 1.173074
v 1.007183 2.169454 1.173074
v 1.007183 2.819211 1.173074
v 0.364367 3.047050 1.233443
v 0.364367 2.494333 1.450000
v -0.032916 1.643788 0.725000
v -0.675732 1.968667 0.448075
v -0.311530 1.600018 -0.000000
v -0.032916 1.643788 0.725000
v -0.278450 2.169454 1.173074
v -0.675732 1.968667 0.448075
v 0.364367 1.941616 1.233444
v -0.278450 2.169454 1.173074
v -0.032916 1.643788 0.725000
v -0.278450 2.169454 1.173074
v -0.729258 2.494333 0.762310
v -0.675732 1.968667 0.448075
v -0.032916 1.643788 -0.725000
v -0.278450 2.169454 -1.173075
v 0.364367 1.941615 -1.233444
v -0.032916 1.643788 -0.725000
v -0.675732 1.968667 -0.448075
v -0.278450 2.169454 -1.173075
v -0.311530 1.600018 -0.000000
v -0.675732 1.968667 -0.448075
v -0.032916 1.643788 -0.725000
v -0.675732 1.968667 -0.448075
v -0.729258 2.494333 -0.762310
v -0.278450 2.169454 -1.173075
v 1.007183 2.169454 -1.173075
v 1.007183 2.819211 -1.173075
v 1.457992 2.494333 -0.762310
v 1.007183 2.169454 -1.173075
v 0.364367 2.494333 -1.450000
v 1.007183 2.819211 -1.173075
v 0.364367 1.941615 -1.233444
v 0.364367 2.494333 -1.450000
v 1.007183 2.169454 -1.173075
v 0.364367 2.494333 -1.450000
v 0.364367 3.047050 -1.233444
v 1.007183 2.819211 -1.173075
v 1.650000 2.494333 -0.000000
v 1.404466 3.019998 0.448074
v 1.457992 2.494333 0.762310
v 1.650000 2.494333 -0.000000
v 1.404466 3.019998 -0.448075
v 1.404466 3.019998 0.448074
v 1.457992 2.494333 -0.762310
v 1.404466 3.019998 -0.448075
v 1.650000 2.494333 -0.000000
v 1.404466 3.019998 -0.448075
v 1.040264 3.388647 -0.000000
v 1.404466 3.019998 0.448074
vn -0.7702 0.5821 0.2608
vn -0.2742 0.8776 0.3932
vn -0.4511 0.8925 -0.0000
vn -0.7702 0.5821 0.2609
vn -0.5249 0.3967 0.7530
vn -0.2742 0.8776 0.3933
vn -0.8769 -0.0000 0.4806
vn -0.5249 0.3967 0.7531
vn -0.0000 0.6487 0.7610
vn -0.2741 0.8776 0.3933
vn -0.2741 0.8776 0.3932
vn -0.0000 1.0000 -0.0000
vn -0.4510 0.8925 -0.0000
vn 0.2741 0.8776 0.3933
vn 0.2741 0.8776 0.3932
vn 0.4510 0.8925 -0.0000
vn 0.0001 1.0000 -0.0000
vn -0.0001 1.0000 -0.0000
vn -0.2741 0.8776 -0.3932
vn 0.2741 0.8776 -0.3933
vn -0.2741 0.8776 -0.3933
vn 0.2741 0.8776 -0.3932
vn -0.0000 0.6487 -0.7610
vn -0.2742 0.8776 -0.3932
vn -0.7702 0.5821 -0.2608
vn -0.2742 0.8776 -0.3933
vn -0.5249 0.3967 -0.7530
vn -0.7702 0.5821 -0.2609
vn -0.5250 0.3967 -0.7530
vn -0.8770 -0.0000 -0.4805
vn -0.7702 0.5820 -0.2609
vn -1.0000 -0.0000 -0.0000
vn -1.0000 -0.0000 -0.0001
vn -0.7702 0.5820 -0.2608
vn -1.0000 -0.0000 0.0001
vn -0.8770 -0.0000 0.4805
vn 0.2742 0.8776 0.3932
vn 0.7702 0.5821 0.2608
vn 0.4511 0.8925 -0.0000
vn 0.2742 0.8776 0.3933
vn 0.5249 0.3967 0.7530
vn 0.7702 0.5821 0.2609
vn 0.5250 0.3967 0.7530
vn 0.8770 -0.0000 0.4805
vn 0.7702 0.5820 0.2609
vn -0.5249 0.3968 0.7531
vn -0.0000 -0.0000 1.0000
vn -0.5249 -0.3967 0.7531
vn -0.8770 -0.0000 0.4806
vn -0.5249 -0.3967 0.7530
vn -0.0000 -0.6487 0.7611
vn -0.7702 -0.5820 0.2608
vn -0.7702 -0.5821 -0.2608
vn -0.7702 -0.5821 0.2608
vn -0.4511 -0.8925 -0.0000
vn -0.5249 -0.3967 -0.7530
vn -0.8770 -0.0000 -0.4806
vn -0.5249 0.3967 -0.7531
vn -0.0000 -0.0000 -1.0000
vn -0.5249 -0.3967 -0.7531
vn -0.0000 0.6487 -0.7611
vn -0.0000 -0.6487 -0.7610
vn -0.5249 -0.3968 -0.7531
vn 0.5249 0.3967 -0.7531
vn 0.2742 0.8776 -0.3933
vn 0.7702 0.5821 -0.2609
vn 0.5249 0.3967 -0.7530
vn 0.7702 0.5821 -0.2608
vn 0.2742 0.8776 -0.3932
vn 0.8769 -0.0000 -0.4806
vn 0.7702 -0.5821 0.2608
vn 0.2742 -0.8776 0.3932
vn 0.4511 -0.8925 -0.0000
vn 0.7702 -0.5821 0.2609
vn 0.5249 -0.3967 0.7530
vn 0.2742 -0.8776 0.3933
vn 0.8769 -0.0000 0.4806
vn 0.5249 -0.3967 0.7531
vn -0.0000 -0.6487 0.7610
vn 0.2741 -0.8776 0.3933
vn 0.2741 -0.8776 0.3932
vn -0.0000 -1.0000 -0.0000
vn 0.4510 -0.8925 -0.0000
vn -0.2741 -0.8776 0.3933
vn -0.2741 -0.8776 0.3932
vn -0.4510 -0.8925 -0.0000
vn -0.0001 -1.0000 -0.0000
vn 0.0001 -1.0000 -0.0000
vn 0.2741 -0.8776 -0.3932
vn -0.2741 -0.8776 -0.3933
vn 0.2741 -0.8776 -0.3933
vn -0.2741 -0.8776 -0.3932
vn 0.2742 -0.8776 -0.3932
vn 0.7702 -0.5821 -0.2608
vn 0.2742 -0.8776 -0.3933
vn 0.5249 -0.3967 -0.7530
vn 0.7702 -0.5821 -0.2609
vn 0.5250 -0.3967 -0.7530
vn 0.8770 -0.0000 -0.4805
vn 0.7702 -0.5820 -0.2609
vn 1.0000 -0.0000 -0.0000
vn 1.0000 -0.0000 -0.0001
vn 0.7702 -0.5820 -0.2608
vn 1.0000 -0.0000 0.0001
vn 0.5249 -0.3968 0.7531
vn 0.5249 0.3967 0.7531
vn 0.8770 -0.0000 0.4806
vn -0.0000 0.6487 0.7611
vn -0.2742 -0.8776 0.3932
vn -0.2742 -0.8776 0.3933
vn -0.7702 -0.5821 0.2609
vn -0.5250 -0.3967 0.7530
vn -0.7702 -0.5820 0.2609
vn -0.2742 -0.8776 -0.3933
vn -0.7702 -0.5821 -0.2609
vn -0.2742 -0.8776 -0.3932
vn -0.8769 -0.0000 -0.4806
vn 0.8770 -0.0000 -0.4806
vn 0.5249 -0.3967 -0.7531
vn -0.0000 -0.6487 -0.7611
vn 0.5249 0.3968 -0.7531
vn 0.7702 0.5820 0.2608
vt 0.342873 0.725762
vt 0.357847 0.680032
vt 0.388436 0.725762
vt 0.662503 0.078776
vt 0.662503 0.017846
vt 0.696725 0.044949
vt 0.902074 0.149533
vt 0.928607 0.122022
vt 0.928607 0.180938
vt 0.673489 0.830128
vt 0.673489 0.784064
vt 0.713604 0.812908
vt 0.270495 0.505739
vt 0.301813 0.558003
vt 0.253311 0.558003
vt 0.159128 0.378707
vt 0.159128 0.321772
vt 0.212999 0.350240
vt 0.640226 0.514951
vt 0.640226 0.564359
vt 0.593691 0.531554
vt 0.550736 0.017846
vt 0.550736 0.072863
vt 0.504660 0.057714
vt 0.634106 0.222749
vt 0.608214 0.271421
vt 0.585604 0.222749
vt 0.478319 0.424234
vt 0.478319 0.479364
vt 0.429562 0.449964
vt 0.557999 0.514951
vt 0.557999 0.568617
vt 0.514011 0.535385
vt 0.374550 0.761453
vt 0.383770 0.807532
vt 0.342873 0.807532
vt 0.827166 0.746392
vt 0.827166 0.694129
vt 0.861638 0.705261
vt 0.911731 0.323508
vt 0.941750 0.365027
vt 0.902971 0.365027
vt 0.470459 0.870184
vt 0.456978 0.913467
vt 0.429562 0.870184
vt 0.975960 0.651584
vt 0.952746 0.636514
vt 0.975960 0.600051
vt 0.096280 0.796301
vt 0.096280 0.733829
vt 0.122378 0.771177
vt 0.462228 0.667774
vt 0.429562 0.640279
vt 0.462228 0.604415
vt 0.554694 0.896635
vt 0.513617 0.865058
vt 0.554694 0.853409
vt 0.780659 0.746392
vt 0.750360 0.699102
vt 0.791474 0.699102
vt 0.719219 0.514951
vt 0.719219 0.563069
vt 0.675918 0.548890
vt 0.673578 0.122022
vt 0.717233 0.122022
vt 0.679405 0.169787
vt 0.469676 0.788428
vt 0.469676 0.834492
vt 0.429562 0.817272
vt 0.952239 0.017846
vt 0.975453 0.032916
vt 0.952239 0.069379
vt 0.373614 0.931239
vt 0.373614 0.973672
vt 0.342873 0.968928
vt 0.714554 0.865820
vt 0.714554 0.908937
vt 0.673489 0.876513
vt 0.159128 0.964012
vt 0.177615 0.923162
vt 0.197350 0.964012
vt 0.047134 0.821364
vt 0.060374 0.864721
vt 0.017846 0.864721
vt 0.360289 0.644340
vt 0.342873 0.594886
vt 0.386910 0.594886
vt 0.475380 0.155093
vt 0.434694 0.185381
vt 0.434694 0.122022
vt 0.771195 0.069657
vt 0.732417 0.050542
vt 0.771195 0.017846
vt 0.705158 0.663410
vt 0.673489 0.628575
vt 0.705158 0.600051
vt 0.123204 0.930156
vt 0.110064 0.971223
vt 0.096280 0.930156
vt 0.376713 0.843224
vt 0.376713 0.895547
vt 0.342873 0.869944
vt 0.824259 0.222749
vt 0.866788 0.222749
vt 0.837499 0.266106
vt 0.513617 0.932327
vt 0.544358 0.937071
vt 0.513617 0.974760
vt 0.470741 0.703466
vt 0.470741 0.752737
vt 0.429562 0.726105
vt 0.513617 0.631877
vt 0.557999 0.604309
vt 0.557999 0.653274
vt 0.831909 0.133154
vt 0.866382 0.122022
vt 0.866382 0.174285
vt 0.897330 0.694129
vt 0.930964 0.721721
vt 0.897330 0.743094
vt 0.816153 0.640106
vt 0.849723 0.600051
vt 0.849723 0.653718
vt 0.593691 0.621316
vt 0.637797 0.600051
vt 0.637797 0.649321
vt 0.897757 0.782084
vt 0.935613 0.794532
vt 0.897757 0.825588
vt 0.673489 0.699102
vt 0.714668 0.725733
vt 0.673489 0.748372
vt 0.040456 0.557609
vt 0.066348 0.606281
vt 0.017846 0.606281
vt 0.342873 0.473539
vt 0.342873 0.416603
vt 0.390085 0.445071
vt 0.754911 0.530321
vt 0.788612 0.507152
vt 0.788612 0.563069
vt 0.473549 0.515056
vt 0.473549 0.568723
vt 0.429562 0.548289
vt 0.553424 0.338657
vt 0.507349 0.378524
vt 0.507349 0.323508
vt 0.307181 0.351975
vt 0.253311 0.380443
vt 0.253311 0.323508
vt 0.207631 0.506263
vt 0.190447 0.558528
vt 0.159128 0.506263
vt 0.586428 0.017846
vt 0.626811 0.046314
vt 0.586428 0.074782
vt 0.253311 0.727899
vt 0.253311 0.679780
vt 0.296612 0.693959
vt 0.717757 0.471999
vt 0.674102 0.471999
vt 0.711930 0.424234
vt 0.849216 0.043330
vt 0.806887 0.061501
vt 0.806887 0.017846
vt 0.752925 0.166860
vt 0.752925 0.122022
vt 0.796217 0.130087
vt 0.017846 0.785672
vt 0.060249 0.738594
vt 0.060467 0.785672
vt 0.030734 0.521917
vt 0.017846 0.471095
vt 0.068568 0.471095
vt 0.159128 0.632023
vt 0.200665 0.594220
vt 0.200665 0.646650
vt 0.780461 0.650773
vt 0.740850 0.617376
vt 0.780461 0.600051
vt 0.776536 0.370625
vt 0.747605 0.323508
vt 0.790133 0.323508
vt 0.710347 0.260337
vt 0.669798 0.274995
vt 0.669798 0.222749
vt 0.900089 0.555236
vt 0.900089 0.507152
vt 0.933817 0.534013
vt 0.281340 0.979965
vt 0.253311 0.941206
vt 0.281340 0.927719
vt 0.862065 0.782084
vt 0.862065 0.834346
vt 0.827593 0.823215
vt 0.593691 0.735736
vt 0.593691 0.685013
vt 0.634362 0.724667
vt 0.827593 0.913321
vt 0.841074 0.870039
vt 0.868490 0.913321
vt 0.796741 0.424234
vt 0.796741 0.469072
vt 0.753449 0.461008
vt 0.253311 0.763591
vt 0.290710 0.786107
vt 0.253311 0.812999
vt 0.017846 0.675799
vt 0.052068 0.641973
vt 0.052068 0.702902
vt 0.159128 0.682342
vt 0.204691 0.682342
vt 0.189717 0.728072
vt 0.927800 0.870039
vt 0.943119 0.910467
vt 0.904182 0.910467
vt 0.936208 0.270833
vt 0.902480 0.243972
vt 0.936208 0.222749
vt 0.711913 0.323508
vt 0.711913 0.375754
vt 0.671364 0.338166
vt 0.624307 0.976976
vt 0.593691 0.971480
vt 0.624307 0.929144
vt 0.788567 0.269867
vt 0.746039 0.269867
vt 0.759636 0.222749
vt 0.750315 0.905058
vt 0.750315 0.862361
vt 0.791901 0.874154
vt 0.556314 0.688966
vt 0.554417 0.737440
vt 0.513617 0.688966
vt 0.122378 0.698137
vt 0.087760 0.675957
vt 0.122378 0.641973
vt 0.122378 0.894464
vt 0.096280 0.869341
vt 0.122378 0.831993
s 0
usemtl tree
f 1/1/1 2/2/2 3/3/3
f 4/4/4 5/5/5 6/6/6
f 7/7/7 8/8/5 9/9/4
f 10/10/8 11/11/9 12/12/10
f 13/13/11 14/14/12 15/15/13
f 16/16/10 17/17/14 18/18/12
f 19/19/9 20/20/14 21/21/10
f 22/22/15 23/23/16 24/24/17
f 25/25/18 26/26/19 27/27/13
f 28/28/12 29/29/20 30/30/21
f 31/31/16 32/32/22 33/33/12
f 34/34/20 35/35/23 36/36/21
f 37/37/24 38/38/25 39/39/3
f 40/40/26 41/41/27 42/42/28
f 43/43/23 44/44/27 45/45/21
f 46/46/29 47/47/30 48/48/31
f 49/49/25 50/50/1 51/51/3
f 52/52/25 53/53/32 54/54/1
f 55/55/30 56/56/33 57/57/34
f 58/58/35 59/59/36 60/60/1
f 61/61/37 62/62/38 63/63/39
f 64/64/40 65/65/41 66/66/42
f 67/67/9 68/68/41 69/69/14
f 70/70/43 71/71/44 72/72/45
f 73/73/46 74/74/47 75/75/9
f 76/76/8 77/77/48 78/78/47
f 79/79/49 80/80/50 81/81/5
f 82/82/48 83/83/51 84/84/47
f 85/85/35 86/86/52 87/87/36
f 88/88/32 89/89/53 90/90/54
f 91/91/30 92/92/53 93/93/33
f 94/94/53 95/95/55 96/96/54
f 97/97/27 98/98/56 99/99/57
f 100/100/58 101/101/59 102/102/60
f 103/103/61 104/104/59 105/105/58
f 106/106/59 107/107/62 108/108/63
f 109/109/20 110/110/64 111/111/23
f 112/112/65 113/113/66 114/114/67
f 115/115/39 116/116/68 117/117/69
f 118/118/66 119/119/70 120/120/67
f 121/121/71 122/122/72 123/123/73
f 124/124/74 125/125/75 126/126/76
f 127/127/77 128/128/75 129/129/74
f 130/130/78 131/131/79 132/132/80
f 133/133/81 134/134/82 135/135/83
f 136/136/80 137/137/84 138/138/82
f 139/139/79 140/140/84 141/141/80
f 142/142/85 143/143/86 144/144/87
f 145/145/88 146/146/89 147/147/83
f 148/148/82 149/149/90 150/150/91
f 151/151/86 152/152/92 153/153/82
f 154/154/90 155/155/62 156/156/91
f 157/157/93 158/158/94 159/159/73
f 160/160/95 161/161/96 162/162/97
f 163/163/62 164/164/96 165/165/91
f 166/166/98 167/167/99 168/168/100
f 169/169/94 170/170/71 171/171/73
f 172/172/94 173/173/101 174/174/71
f 175/175/99 176/176/102 177/177/103
f 178/178/104 179/179/44 180/180/71
f 181/181/105 182/182/47 183/183/79
f 184/184/78 185/185/106 186/186/47
f 187/187/107 188/188/41 189/189/75
f 190/190/106 191/191/108 192/192/47
f 193/193/109 194/194/54 195/195/55
f 196/196/110 197/197/50 198/198/111
f 199/199/79 200/200/50 201/201/84
f 202/202/112 203/203/36 204/204/113
f 205/205/90 206/206/60 207/207/62
f 208/208/114 209/209/115 210/210/56
f 211/211/55 212/212/53 213/213/116
f 214/214/115 215/215/117 216/216/56
f 217/217/96 218/218/67 219/219/118
f 220/220/119 221/221/59 222/222/64
f 223/223/120 224/224/59 225/225/119
f 226/226/59 227/227/23 228/228/121
f 229/229/104 230/230/122 231/231/44
f 232/232/101 233/233/68 234/234/38
f 235/235/99 236/236/68 237/237/102
f 238/238/68 239/239/39 240/240/38
o crown_side
v -1.028774 1.468179 1.220642
v -0.418353 2.098517 1.214358
v -1.253634 2.323274 1.141697
v -0.418353 2.098517 1.214358
v -0.662317 2.729197 0.593352
v -1.253634 2.323274 1.141697
v -0.662317 2.729197 0.593352
v -1.423517 2.488640 0.215834
v -1.253634 2.323274 1.141697
v -1.423517 2.488640 0.215834
v -1.650000 1.709287 0.603521
v -1.253634 2.323274 1.141697
v -1.650000 1.709287 0.603521
v -1.028774 1.468179 1.220642
v -1.253634 2.323274 1.141697
v -0.418353 2.098517 1.214358
v -0.072004 2.124976 0.333402
v -0.662317 2.729197 0.593352
v -1.028774 1.468179 1.220642
v -0.298487 1.345624 0.721089
v -0.418353 2.098517 1.214358
v -1.650000 1.709287 0.603521
v -1.059687 1.105066 0.343571
v -1.028774 1.468179 1.220642
v -1.423517 2.488640 0.215834
v -1.303651 1.735746 -0.277435
v -1.650000 1.709287 0.603521
v -0.662317 2.729197 0.593352
v -0.693230 2.366085 -0.283720
v -1.423517 2.488640 0.215834
v -0.072004 2.124976 0.333402
v -0.298487 1.345624 0.721089
v -0.468370 1.510989 -0.204774
v -0.298487 1.345624 0.721089
v -1.059687 1.105066 0.343571
v -0.468370 1.510989 -0.204774
v -1.059687 1.105066 0.343571
v -1.303651 1.735746 -0.277435
v -0.468370 1.510989 -0.204774
v -1.303651 1.735746 -0.277435
v -0.693230 2.366085 -0.283720
v -0.468370 1.510989 -0.204774
v -0.693230 2.366085 -0.283720
v -0.072004 2.124976 0.333402
v -0.468370 1.510989 -0.204774
v -0.072004 2.124976 0.333402
v -0.418353 2.098517 1.214358
v -0.298487 1.345624 0.721089
v -0.298487 1.345624 0.721089
v -1.028774 1.468179 1.220642
v -1.059687 1.105066 0.343571
v -1.059687 1.105066 0.343571
v -1.650000 1.709287 0.603521
v -1.303651 1.735746 -0.277435
v -1.303651 1.735746 -0.277435
v -1.423517 2.488640 0.215834
v -0.693230 2.366085 -0.283720
v -0.693230 2.366085 -0.283720
v -0.662317 2.729197 0.593352
v -0.072004 2.124976 0.333402
vn -0.0665 0.0744 0.9950
vn 0.1350 0.7212 0.6794
vn -0.3956 0.8888 0.2313
vn -0.8972 0.3760 0.2318
vn -0.7235 -0.1276 0.6784
vn 0.7433 0.5928 0.3100
vn 0.4574 -0.4352 0.7755
vn -0.6037 -0.7288 0.3230
vn -0.9278 0.0895 -0.3621
vn -0.1037 0.9203 -0.3773
vn 0.8972 -0.3760 -0.2318
vn 0.3956 -0.8888 -0.2313
vn -0.1350 -0.7212 -0.6794
vn 0.0665 -0.0744 -0.9950
vn 0.7235 0.1276 -0.6784
vn 0.9278 -0.0895 0.3621
vn 0.1037 -0.9203 0.3773
vn -0.7433 -0.5928 -0.3100
vn -0.4574 0.4352 -0.7755
vn 0.6037 0.7288 -0.3230
vt 0.392276 0.509231
vt 0.392276 0.559195
vt 0.342873 0.521403
vt 0.303979 0.017846
vt 0.303979 0.083634
vt 0.249764 0.048335
vt 0.468968 0.082540
vt 0.426360 0.055495
vt 0.468968 0.017846
vt 0.214072 0.086330
vt 0.159128 0.052641
vt 0.214072 0.017846
vt 0.474536 0.287784
vt 0.432441 0.253809
vt 0.474536 0.222749
vt 0.345713 0.122022
vt 0.399002 0.142364
vt 0.345713 0.176585
vt 0.017846 0.272140
vt 0.074199 0.302491
vt 0.017846 0.335017
vt 0.217619 0.222749
vt 0.217619 0.286080
vt 0.159128 0.251286
vt 0.393870 0.362918
vt 0.342873 0.380911
vt 0.342873 0.323508
vt 0.303586 0.416135
vt 0.287813 0.470047
vt 0.253311 0.416135
vt 0.159128 0.122022
vt 0.216987 0.150417
vt 0.159128 0.187057
vt 0.017846 0.397754
vt 0.060454 0.370709
vt 0.060454 0.435403
vt 0.310021 0.151975
vt 0.252679 0.184223
vt 0.252679 0.122022
vt 0.549912 0.284949
vt 0.510228 0.254592
vt 0.549912 0.222749
vt 0.429562 0.357482
vt 0.471657 0.323508
vt 0.471657 0.388542
vt 0.339672 0.075249
vt 0.339672 0.017846
vt 0.390668 0.035839
vt 0.159128 0.456454
vt 0.207381 0.414399
vt 0.207381 0.470571
vt 0.343460 0.222749
vt 0.396749 0.256971
vt 0.343460 0.277312
vt 0.253311 0.287816
vt 0.253311 0.222749
vt 0.307768 0.256384
vt 0.017846 0.236448
vt 0.017846 0.168391
vt 0.072275 0.200768
s 0
usemtl tree
f 241/241/123 242/242/123 243/243/123
f 244/244/124 245/245/124 246/246/124
f 247/247/125 248/248/125 249/249/125
f 250/250/126 251/251/126 252/252/126
f 253/253/127 254/254/127 255/255/127
f 256/256/128 257/257/128 258/258/128
f 259/259/129 260/260/129 261/261/129
f 262/262/130 263/263/130 264/264/130
f 265/265/131 266/266/131 267/267/131
f 268/268/132 269/269/132 270/270/132
f 271/271/133 272/272/133 273/273/133
f 274/274/134 275/275/134 276/276/134
f 277/277/135 278/278/135 279/279/135
f 280/280/136 281/281/136 282/282/136
f 283/283/137 284/284/137 285/285/137
f 286/286/138 287/287/138 288/288/138
f 289/289/139 290/290/139 291/291/139
f 292/292/140 293/293/140 294/294/140
f 295/295/141 296/296/141 297/297/141
f 298/298/142 299/299/142 300/300/142
o crown_top
v 0.516881 2.707468 -0.366407
v 0.893677 3.087716 0.138301
v 0.336196 3.381150 -0.200877
v 0.893677 3.087716 0.138301
v 0.920568 3.762938 -0.115347
v 0.336196 3.381150 -0.200877
v 0.920568 3.762938 -0.115347
v 0.560390 3.800000 -0.776819
v 0.336196 3.381150 -0.200877
v 0.560390 3.800000 -0.776819
v 0.310897 3.147683 -0.931983
v 0.336196 3.381150 -0.200877
v 0.310897 3.147683 -0.931983
v 0.516881 2.707468 -0.366407
v 0.336196 3.381150 -0.200877
v 0.893677 3.087716 0.138301
v 1.462413 3.325212 -0.228018
v 0.920568 3.762938 -0.115347
v 0.516881 2.707468 -0.366407
v 1.212921 2.672896 -0.383181
v 0.893677 3.087716 0.138301
v 0.310897 3.147683 -0.931983
v 0.852743 2.709958 -1.044653
v 0.516881 2.707468 -0.366407
v 0.560390 3.800000 -0.776819
v 0.879633 3.385180 -1.298302
v 0.310897 3.147683 -0.931983
v 0.920568 3.762938 -0.115347
v 1.256430 3.765428 -0.793593
v 0.560390 3.800000 -0.776819
v 1.462413 3.325212 -0.228018
v 1.212921 2.672896 -0.383181
v 1.437114 3.091746 -0.959124
v 1.212921 2.672896 -0.383181
v 0.852743 2.709958 -1.044653
v 1.437114 3.091746 -0.959124
v 0.852743 2.709958 -1.044653
v 0.879633 3.385180 -1.298302
v 1.437114 3.091746 -0.959124
v 0.879633 3.385180 -1.298302
v 1.256430 3.765428 -0.793593
v 1.437114 3.091746 -0.959124
v 1.256430 3.765428 -0.793593
v 1.462413 3.325212 -0.228018
v 1.437114 3.091746 -0.959124
v 1.462413 3.325212 -0.228018
v 0.893677 3.087716 0.138301
v 1.212921 2.672896 -0.383181
v 1.212921 2.672896 -0.383181
v 0.516881 2.707468 -0.366407
v 0.852743 2.709958 -1.044653
v 0.852743 2.709958 -1.044653
v 0.310897 3.147683 -0.931983
v 0.879633 3.385180 -1.298302
v 0.879633 3.385180 -1.298302
v 0.560390 3.800000 -0.776819
v 1.256430 3.765428 -0.793593
v 1.256430 3.765428 -0.793593
v 0.920568 3.762938 -0.115347
v 1.462413 3.325212 -0.228018
vn -0.6129 -0.3397 0.7135
vn -0.3508 0.3415 0.8720
vn -0.5486 0.7632 0.3415
vn -0.9233 0.3739 -0.0875
vn -0.9504 -0.2854 0.1240
vn 0.4230 0.3038 0.8537
vn -0.0244 -0.7896 0.6131
vn -0.6350 -0.7045 -0.3170
vn -0.6084 0.3963 -0.6876
vn 0.0503 0.9983 0.0286
vn 0.9233 -0.3739 0.0875
vn 0.5486 -0.7632 -0.3415
vn 0.3508 -0.3415 -0.8720
vn 0.6129 0.3397 -0.7135
vn 0.9504 0.2854 -0.1240
vn 0.6084 -0.3963 0.6876
vn -0.0503 -0.9983 -0.0286
vn -0.4230 -0.3038 -0.8537
vn 0.0244 0.7896 -0.6131
vn 0.6350 0.7045 0.3170
vt 0.593691 0.864054
vt 0.635815 0.851138
vt 0.635815 0.893452
vt 0.594270 0.424234
vt 0.638410 0.451192
vt 0.594270 0.475504
vt 0.199973 0.843474
vt 0.199973 0.887470
vt 0.159128 0.872990
vt 0.201437 0.807782
vt 0.159128 0.807782
vt 0.192145 0.763764
vt 0.555639 0.177047
vt 0.511072 0.147566
vt 0.555639 0.122022
vt 0.050530 0.900413
vt 0.057499 0.940498
vt 0.017846 0.940498
vt 0.635672 0.323508
vt 0.635672 0.373459
vt 0.589116 0.348245
vt 0.864397 0.542478
vt 0.824304 0.553012
vt 0.824304 0.507152
vt 0.916547 0.017846
vt 0.916547 0.070791
vt 0.884908 0.044211
vt 0.750360 0.782084
vt 0.791901 0.798928
vt 0.750360 0.826669
vt 0.593691 0.771428
vt 0.635999 0.771428
vt 0.626707 0.815446
vt 0.253311 0.848691
vt 0.294778 0.863393
vt 0.253311 0.892027
vt 0.298219 0.644088
vt 0.253311 0.618431
vt 0.298219 0.593696
vt 0.832433 0.444855
vt 0.867133 0.417704
vt 0.867133 0.469072
vt 0.514011 0.453715
vt 0.558578 0.424234
vt 0.558578 0.479259
vt 0.885415 0.626631
vt 0.917054 0.600051
vt 0.917054 0.652996
vt 0.513617 0.773132
vt 0.555157 0.800873
vt 0.513617 0.817717
vt 0.902825 0.417704
vt 0.933557 0.442762
vt 0.902825 0.469425
vt 0.591331 0.147237
vt 0.637886 0.122022
vt 0.637886 0.171974
vt 0.837479 0.367862
vt 0.825825 0.323508
vt 0.867279 0.323508
s 0
usemtl tree
f 301/301/143 302/302/143 303/303/143
f 304/304/144 305/305/144 306/306/144
f 307/307/145 308/308/145 309/309/145
f 310/310/146 311/311/146 312/312/146
f 313/313/147 314/314/147 315/315/147
f 316/316/148 317/317/148 318/318/148
f 319/319/149 320/320/149 321/321/149
f 322/322/150 323/323/150 324/324/150
f 325/325/151 326/326/151 327/327/151
f 328/328/152 329/329/152 330/330/152
f 331/331/153 332/332/153 333/333/153
f 334/334/154 335/335/154 336/336/154
f 337/337/155 338/338/155 339/339/155
f 340/340/156 341/341/156 342/342/156
f 343/343/157 344/344/157 345/345/157
f 346/346/158 347/347/158 348/348/158
f 349/349/159 350/350/159 351/351/159
f 352/352/160 353/353/160 354/354/160
f 355/355/161 356/356/161 357/357/161
f 358/358/162 359/359/162 360/360/162
o trunk
v 0.304103 1.597610 0.189615
v 0.424840 1.597610 0.134078
v 0.474851 1.597610 -0.000000
v 0.424840 1.597610 -0.134078
v 0.304103 1.597610 -0.189616
v 0.183366 1.597610 -0.134078
v 0.133355 1.597610 -0.000000
v 0.183366 1.597610 0.134078
v 0.304103 1.597610 0.189615
v 0.304103 0.000000 0.267692
v 0.474555 0.000000 0.189287
v 0.545159 0.000000 0.000000
v 0.474555 -0.000000 -0.189287
v 0.304103 -0.000000 -0.267692
v 0.133650 -0.000000 -0.189287
v 0.063047 -0.000000 -0.000000
v 0.133650 0.000000 0.189287
v 0.304103 0.000000 0.267692
v 0.304103 1.597610 -0.000000
v 0.304103 1.597610 -0.000000
v 0.304103 1.597610 -0.000000
v 0.304103 1.597610 -0.000000
v 0.304103 1.597610 -0.000000
v 0.304103 1.597610 -0.000000
v 0.304103 1.597610 -0.000000
v 0.304103 1.597610 -0.000000
v 0.304103 1.597610 0.189615
v 0.424840 1.597610 0.134078
v 0.474851 1.597610 -0.000000
v 0.424840 1.597610 -0.134078
v 0.304103 1.597610 -0.189616
v 0.183366 1.597610 -0.134078
v 0.133355 1.597610 -0.000000
v 0.183366 1.597610 0.134078
v 0.304103 1.597610 0.189615
v 0.304103 0.000000 0.000000
v 0.304103 0.000000 0.000000
v 0.304103 0.000000 0.000000
v 0.304103 0.000000 0.000000
v 0.304103 0.000000 0.000000
v 0.304103 0.000000 0.000000
v 0.304103 0.000000 0.000000
v 0.304103 0.000000 0.000000
v 0.304103 0.000000 0.267692
v 0.474555 0.000000 0.189287
v 0.545159 0.000000 0.000000
v 0.474555 -0.000000 -0.189287
v 0.304103 -0.000000 -0.267692
v 0.133650 -0.000000 -0.189287
v 0.063047 -0.000000 -0.000000
v 0.133650 0.000000 0.189287
v 0.304103 0.000000 0.267692
vn -0.0000 0.0488 0.9988
vn 0.7423 0.0462 0.6685
vn 0.7424 0.0462 0.6684
vn 0.9990 0.0440 -0.0000
vn 0.9990 0.0439 -0.0000
vn 0.7424 0.0462 -0.6684
vn 0.7423 0.0462 -0.6685
vn -0.0000 0.0488 -0.9988
vn -0.7423 0.0462 -0.6685
vn -0.7424 0.0462 -0.6684
vn -0.9990 0.0440 -0.0000
vn -0.9990 0.0439 -0.0000
vn -0.7424 0.0462 0.6684
vn -0.7423 0.0462 0.6685
vn -0.0000 1.0000 -0.0000
vn -0.0000 -1.0000 -0.0000
vt 0.093729 0.132699
vt 0.088487 0.018237
vt 0.100481 0.132422
vt 0.098020 0.017846
vt 0.110735 0.132422
vt 0.112496 0.017846
vt 0.118485 0.132699
vt 0.123436 0.018237
vt 0.121853 0.168391
vt 0.123436 0.282982
vt 0.112330 0.168391
vt 0.109992 0.282982
vt 0.047553 0.017846
vt 0.052795 0.132308
vt 0.040801 0.018123
vt 0.043263 0.132699
vt 0.030547 0.018123
vt 0.028786 0.132699
vt 0.022798 0.017846
vt 0.017846 0.132308
vt 0.111575 0.433266
vt 0.109992 0.318674
vt 0.121098 0.433266
vt 0.123436 0.318674
vt 0.964299 0.170643
vt 0.973822 0.170643
vt 0.969977 0.182987
vt 0.978856 0.426355
vt 0.969249 0.429939
vt 0.969249 0.417704
vt 0.979117 0.519388
vt 0.969509 0.515804
vt 0.979117 0.507152
vt 0.976179 0.706473
vt 0.966656 0.706473
vt 0.972334 0.694129
vt 0.962529 0.956256
vt 0.953437 0.959088
vt 0.953437 0.946159
vt 0.981559 0.793548
vt 0.971305 0.793548
vt 0.975581 0.782084
vt 0.971900 0.222749
vt 0.982154 0.222749
vt 0.976176 0.234213
vt 0.964299 0.122022
vt 0.973391 0.124855
vt 0.964299 0.134951
vt 0.109992 0.474576
vt 0.122206 0.468958
vt 0.122206 0.488140
vt 0.109992 0.585400
vt 0.122828 0.578706
vt 0.122828 0.596958
vt 0.917745 0.958373
vt 0.904182 0.963432
vt 0.904182 0.946159
vt 0.122206 0.543014
vt 0.109992 0.537396
vt 0.122206 0.523832
vt 0.763151 0.959002
vt 0.750315 0.955004
vt 0.763151 0.940750
vt 0.827593 0.949013
vt 0.841156 0.954072
vt 0.827593 0.966286
vt 0.429562 0.949159
vt 0.444038 0.949159
vt 0.438001 0.965343
vt 0.673489 0.944629
vt 0.686933 0.944629
vt 0.681505 0.962056
s 0
usemtl tree
f 361/361/163 370/362/163 362/363/164
f 370/362/163 371/364/164 362/363/164
f 362/363/165 371/364/165 363/365/166
f 371/364/165 372/366/166 363/365/167
f 363/365/166 372/366/166 364/367/168
f 372/366/166 373/368/168 364/367/168
f 364/369/169 373/370/169 365/371/170
f 373/370/169 374/372/170 365/371/170
f 365/373/170 374/374/170 366/375/171
f 374/374/170 375/376/171 366/375/171
f 366/375/172 375/376/172 367/377/173
f 375/376/172 376/378/173 367/377/174
f 367/377/173 376/378/173 368/379/175
f 376/378/173 377/380/175 368/379/175
f 368/381/176 377/382/176 369/383/163
f 377/382/176 378/384/163 369/383/163
f 387/385/177 388/386/177 379/387/177
f 388/388/177 389/389/177 380/390/177
f 389/391/177 390/392/177 381/393/177
f 390/394/177 391/395/177 382/396/177
f 391/397/177 392/398/177 383/399/177
f 392/400/177 393/401/177 384/402/177
f 393/403/177 394/404/177 385/405/177
f 394/406/177 395/407/177 386/408/177
f 405/409/178 404/410/178 396/411/178
f 406/412/178 405/413/178 397/414/178
f 407/415/178 406/416/178 398/417/178
f 408/418/178 407/419/178 399/420/178
f 409/421/178 408/422/178 400/423/178
f 410/424/178 409/425/178 401/426/178
f 411/427/178 410/428/178 402/429/178
f 412/430/178 411/431/178 403/432/178
