mtllib coin.mtl
o coin_body
usemtl gold
v 0 0 0.07804878056049347
v 0.19134171307086945 0.03806024789810181 0.07804878056049347
v 0.3535533845424652 0.1464466154575348 0.07804878056049347
v 0.4619397521018982 0.30865830183029175 0.07804878056049347
v 0.5 0.5 0.07804878056049347
v 0.4619397521018982 0.6913416981697083 0.07804878056049347
v 0.3535533845424652 0.8535534143447876 0.07804878056049347
v 0.19134171307086945 0.9619397521018982 0.07804878056049347
v 6.123234262925839e-17 1 0.07804878056049347
v -0.19134171307086945 0.9619397521018982 0.07804878056049347
v -0.3535533845424652 0.8535534143447876 0.07804878056049347
v -0.4619397521018982 0.6913416981697083 0.07804878056049347
v -0.5 0.5 0.07804878056049347
v -0.4619397521018982 0.30865830183029175 0.07804878056049347
v -0.3535533845424652 0.1464466154575348 0.07804878056049347
v -0.19134171307086945 0.03806024789810181 0.07804878056049347
v -1.2246468525851679e-16 0 0.07804878056049347
v 0 0 -0.07804878056049347
v 0.19134171307086945 0.03806024789810181 -0.07804878056049347
v 0.3535533845424652 0.1464466154575348 -0.07804878056049347
v 0.4619397521018982 0.30865830183029175 -0.07804878056049347
v 0.5 0.5 -0.07804878056049347
v 0.4619397521018982 0.6913416981697083 -0.07804878056049347
v 0.3535533845424652 0.8535534143447876 -0.07804878056049347
v 0.19134171307086945 0.9619397521018982 -0.07804878056049347
v 6.123234262925839e-17 1 -0.07804878056049347
v -0.19134171307086945 0.9619397521018982 -0.07804878056049347
v -0.3535533845424652 0.8535534143447876 -0.07804878056049347
v -0.4619397521018982 0.6913416981697083 -0.07804878056049347
v -0.5 0.5 -0.07804878056049347
v -0.4619397521018982 0.30865830183029175 -0.07804878056049347
v -0.3535533845424652 0.1464466154575348 -0.07804878056049347
v -0.19134171307086945 0.03806024789810181 -0.07804878056049347
v -1.2246468525851679e-16 0 -0.07804878056049347
v 0 0.5 0.07804878056049347
v 0 0.5 0.07804878056049347
v 0 0.5 0.07804878056049347
v 0 0.5 0.07804878056049347
v 0 0.5 0.07804878056049347
v 0 0.5 0.07804878056049347
v 0 0.5 0.07804878056049347
v 0 0.5 0.07804878056049347
v 0 0.5 0.07804878056049347
v 0 0.5 0.07804878056049347
v 0 0.5 0.07804878056049347
v 0 0.5 0.07804878056049347
v 0 0.5 0.07804878056049347
v 0 0.5 0.07804878056049347
v 0 0.5 0.07804878056049347
v 0 0.5 0.07804878056049347
v 0 0 0.07804878056049347
v 0.19134171307086945 0.03806024789810181 0.07804878056049347
v 0.3535533845424652 0.1464466154575348 0.07804878056049347
v 0.4619397521018982 0.30865830183029175 0.07804878056049347
v 0.5 0.5 0.07804878056049347
v 0.4619397521018982 0.6913416981697083 0.07804878056049347
v 0.3535533845424652 0.8535534143447876 0.07804878056049347
v 0.19134171307086945 0.9619397521018982 0.07804878056049347
v 6.123234262925839e-17 1 0.07804878056049347
v -0.19134171307086945 0.9619397521018982 0.07804878056049347
v -0.3535533845424652 0.8535534143447876 0.07804878056049347
v -0.4619397521018982 0.6913416981697083 0.07804878056049347
v -0.5 0.5 0.07804878056049347
v -0.4619397521018982 0.30865830183029175 0.07804878056049347
v -0.3535533845424652 0.1464466154575348 0.07804878056049347
v -0.19134171307086945 0.03806024789810181 0.07804878056049347
v -1.2246468525851679e-16 0 0.07804878056049347
v 0 0.5 -0.07804878056049347
v 0 0.5 -0.07804878056049347
v 0 0.5 -0.07804878056049347
v 0 0.5 -0.07804878056049347
v 0 0.5 -0.07804878056049347
v 0 0.5 -0.07804878056049347
v 0 0.5 -0.07804878056049347
v 0 0.5 -0.07804878056049347
v 0 0.5 -0.07804878056049347
v 0 0.5 -0.07804878056049347
v 0 0.5 -0.07804878056049347
v 0 0.5 -0.07804878056049347
v 0 0.5 -0.07804878056049347
v 0 0.5 -0.07804878056049347
v 0 0.5 -0.07804878056049347
v 0 0.5 -0.07804878056049347
v 0 0 -0.07804878056049347
v 0.19134171307086945 0.03806024789810181 -0.07804878056049347
v 0.3535533845424652 0.1464466154575348 -0.07804878056049347
v 0.4619397521018982 0.30865830183029175 -0.07804878056049347
v 0.5 0.5 -0.07804878056049347
v 0.4619397521018982 0.6913416981697083 -0.07804878056049347
v 0.3535533845424652 0.8535534143447876 -0.07804878056049347
v 0.19134171307086945 0.9619397521018982 -0.07804878056049347
v 6.123234262925839e-17 1 -0.07804878056049347
v -0.19134171307086945 0.9619397521018982 -0.07804878056049347
v -0.3535533845424652 0.8535534143447876 -0.07804878056049347
v -0.4619397521018982 0.6913416981697083 -0.07804878056049347
v -0.5 0.5 -0.07804878056049347
v -0.4619397521018982 0.30865830183029175 -0.07804878056049347
v -0.3535533845424652 0.1464466154575348 -0.07804878056049347
v -0.19134171307086945 0.03806024789810181 -0.07804878056049347
v -1.2246468525851679e-16 0 -0.07804878056049347
vt 0 1
vt 0.0625 1
vt 0.125 1
vt 0.1875 1
vt 0.25 1
vt 0.3125 1
vt 0.375 1
vt 0.4375 1
vt 0.5 1
vt 0.5625 1
vt 0.625 1
vt 0.6875 1
vt 0.75 1
vt 0.8125 1
vt 0.875 1
vt 0.9375 1
vt 1 1
vt 0 0
vt 0.0625 0
vt 0.125 0
vt 0.1875 0
vt 0.25 0
vt 0.3125 0
vt 0.375 0
vt 0.4375 0
vt 0.5 0
vt 0.5625 0
vt 0.625 0
vt 0.6875 0
vt 0.75 0
vt 0.8125 0
vt 0.875 0
vt 0.9375 0
vt 1 0
vt 0.5 0.5
vt 0.5 0.5
vt 0.5 0.5
vt 0.5 0.5
vt 0.5 0.5
vt 0.5 0.5
vt 0.5 0.5
vt 0.5 0.5
vt 0.5 0.5
vt 0.5 0.5
vt 0.5 0.5
vt 0.5 0.5
vt 0.5 0.5
vt 0.5 0.5
vt 0.5 0.5
vt 0.5 0.5
vt 1 0.5
vt 0.9619397521018982 0.6913416981697083
vt 0.8535534143447876 0.8535534143447876
vt 0.6913416981697083 0.9619397521018982
vt 0.5 1
vt 0.30865827202796936 0.9619397521018982
vt 0.1464466154575348 0.8535534143447876
vt 0.03806023299694061 0.6913416981697083
vt 0 0.5
vt 0.03806023299694061 0.30865827202796936
vt 0.1464466154575348 0.1464466154575348
vt 0.30865827202796936 0.03806023299694061
vt 0.5 0
vt 0.6913416981697083 0.03806023299694061
vt 0.8535534143447876 0.1464466154575348
vt 0.9619397521018982 0.30865827202796936
vt 1 0.5
vt 0.5 0.5
vt 0.5 0.5
vt 0.5 0.5
vt 0.5 0.5
vt 0.5 0.5
vt 0.5 0.5
vt 0.5 0.5
vt 0.5 0.5
vt 0.5 0.5
vt 0.5 0.5
vt 0.5 0.5
vt 0.5 0.5
vt 0.5 0.5
vt 0.5 0.5
vt 0.5 0.5
vt 0.5 0.5
vt 1 0.5
vt 0.9619397521018982 0.30865827202796936
vt 0.8535534143447876 0.1464466154575348
vt 0.6913416981697083 0.03806023299694061
vt 0.5 0
vt 0.30865827202796936 0.03806023299694061
vt 0.1464466154575348 0.1464466154575348
vt 0.03806023299694061 0.30865827202796936
vt 0 0.5
vt 0.03806023299694061 0.6913416981697083
vt 0.1464466154575348 0.8535534143447876
vt 0.30865827202796936 0.9619397521018982
vt 0.5 1
vt 0.6913416981697083 0.9619397521018982
vt 0.8535534143447876 0.8535534143447876
vt 0.9619397521018982 0.6913416981697083
vt 1 0.5
vn 0 -1 2.2759571475420117e-16
vn 0.3826834370613369 -0.9238795305660377 2.1027102501169716e-16
vn 0.7071067811865476 -0.7071067811865476 1.609344760224702e-16
vn 0.9238795305660377 -0.3826834370613369 8.709711158129794e-17
vn 1 -6.123234262925839e-17 1.3936218743599544e-32
vn 0.9238795305660377 0.3826834370613369 -8.709711158129794e-17
vn 0.7071067811865476 0.7071067811865476 -1.609344760224702e-16
vn 0.3826834370613369 0.9238795305660377 -2.1027102501169716e-16
vn 1.2246468525851679e-16 1 -2.2759571475420117e-16
vn -0.3826834370613369 0.9238795305660377 -2.1027102501169716e-16
vn -0.7071067811865476 0.7071067811865476 -1.609344760224702e-16
vn -0.9238795305660377 0.3826834370613369 -8.709711158129794e-17
vn -1 1.8369701465288538e-16 -4.1808654761430693e-32
vn -0.9238795305660377 -0.3826834370613369 8.709711158129794e-17
vn -0.7071067811865476 -0.7071067811865476 1.609344760224702e-16
vn -0.3826834370613369 -0.9238795305660377 2.1027102501169716e-16
vn -2.4492937051703357e-16 -1 2.2759571475420117e-16
vn 0 -1 2.2759571475420117e-16
vn 0.3826834370613369 -0.9238795305660377 2.1027102501169716e-16
vn 0.7071067811865476 -0.7071067811865476 1.609344760224702e-16
vn 0.9238795305660377 -0.3826834370613369 8.709711158129794e-17
vn 1 -6.123234262925839e-17 1.3936218743599544e-32
vn 0.9238795305660377 0.3826834370613369 -8.709711158129794e-17
vn 0.7071067811865476 0.7071067811865476 -1.609344760224702e-16
vn 0.3826834370613369 0.9238795305660377 -2.1027102501169716e-16
vn 1.2246468525851679e-16 1 -2.2759571475420117e-16
vn -0.3826834370613369 0.9238795305660377 -2.1027102501169716e-16
vn -0.7071067811865476 0.7071067811865476 -1.609344760224702e-16
vn -0.9238795305660377 0.3826834370613369 -8.709711158129794e-17
vn -1 1.8369701465288538e-16 -4.1808654761430693e-32
vn -0.9238795305660377 -0.3826834370613369 8.709711158129794e-17
vn -0.7071067811865476 -0.7071067811865476 1.609344760224702e-16
vn -0.3826834370613369 -0.9238795305660377 2.1027102501169716e-16
vn -2.4492937051703357e-16 -1 2.2759571475420117e-16
vn 0 2.1662888801852413e-16 1
vn 0 2.1662888801852413e-16 1
vn 0 2.1662888801852413e-16 1
vn 0 2.1662888801852413e-16 1
vn 0 2.1662888801852413e-16 1
vn 0 2.1662888801852413e-16 1
vn 0 2.1662888801852413e-16 1
vn 0 2.1662888801852413e-16 1
vn 0 2.1662888801852413e-16 1
vn 0 2.1662888801852413e-16 1
vn 0 2.1662888801852413e-16 1
vn 0 2.1662888801852413e-16 1
vn 0 2.1662888801852413e-16 1
vn 0 2.1662888801852413e-16 1
vn 0 2.1662888801852413e-16 1
vn 0 2.1662888801852413e-16 1
vn 0 2.1662888801852413e-16 1
vn 0 2.1662888801852413e-16 1
vn 0 2.1662888801852413e-16 1
vn 0 2.1662888801852413e-16 1
vn 0 2.1662888801852413e-16 1
vn 0 2.1662888801852413e-16 1
vn 0 2.1662888801852413e-16 1
vn 0 2.1662888801852413e-16 1
vn 0 2.1662888801852413e-16 1
vn 0 2.1662888801852413e-16 1
vn 0 2.1662888801852413e-16 1
vn 0 2.1662888801852413e-16 1
vn 0 2.1662888801852413e-16 1
vn 0 2.1662888801852413e-16 1
vn 0 2.1662888801852413e-16 1
vn 0 2.1662888801852413e-16 1
vn 0 2.1662888801852413e-16 1
vn 0 -2.1662888801852413e-16 -1
vn 0 -2.1662888801852413e-16 -1
vn 0 -2.1662888801852413e-16 -1
vn 0 -2.1662888801852413e-16 -1
vn 0 -2.1662888801852413e-16 -1
vn 0 -2.1662888801852413e-16 -1
vn 0 -2.1662888801852413e-16 -1
vn 0 -2.1662888801852413e-16 -1
vn 0 -2.1662888801852413e-16 -1
vn 0 -2.1662888801852413e-16 -1
vn 0 -2.1662888801852413e-16 -1
vn 0 -2.1662888801852413e-16 -1
vn 0 -2.1662888801852413e-16 -1
vn 0 -2.1662888801852413e-16 -1
vn 0 -2.1662888801852413e-16 -1
vn 0 -2.1662888801852413e-16 -1
vn 0 -2.1662888801852413e-16 -1
vn 0 -2.1662888801852413e-16 -1
vn 0 -2.1662888801852413e-16 -1
vn 0 -2.1662888801852413e-16 -1
vn 0 -2.1662888801852413e-16 -1
vn 0 -2.1662888801852413e-16 -1
vn 0 -2.1662888801852413e-16 -1
vn 0 -2.1662888801852413e-16 -1
vn 0 -2.1662888801852413e-16 -1
vn 0 -2.1662888801852413e-16 -1
vn 0 -2.1662888801852413e-16 -1
vn 0 -2.1662888801852413e-16 -1
vn 0 -2.1662888801852413e-16 -1
vn 0 -2.1662888801852413e-16 -1
vn 0 -2.1662888801852413e-16 -1
vn 0 -2.1662888801852413e-16 -1
vn 0 -2.1662888801852413e-16 -1
f 1/1/1 18/18/18 2/2/2
f 18/18/18 19/19/19 2/2/2
f 2/2/2 19/19/19 3/3/3
f 19/19/19 20/20/20 3/3/3
f 3/3/3 20/20/20 4/4/4
f 20/20/20 21/21/21 4/4/4
f 4/4/4 21/21/21 5/5/5
f 21/21/21 22/22/22 5/5/5
f 5/5/5 22/22/22 6/6/6
f 22/22/22 23/23/23 6/6/6
f 6/6/6 23/23/23 7/7/7
f 23/23/23 24/24/24 7/7/7
f 7/7/7 24/24/24 8/8/8
f 24/24/24 25/25/25 8/8/8
f 8/8/8 25/25/25 9/9/9
f 25/25/25 26/26/26 9/9/9
f 9/9/9 26/26/26 10/10/10
f 26/26/26 27/27/27 10/10/10
f 10/10/10 27/27/27 11/11/11
f 27/27/27 28/28/28 11/11/11
f 11/11/11 28/28/28 12/12/12
f 28/28/28 29/29/29 12/12/12
f 12/12/12 29/29/29 13/13/13
f 29/29/29 30/30/30 13/13/13
f 13/13/13 30/30/30 14/14/14
f 30/30/30 31/31/31 14/14/14
f 14/14/14 31/31/31 15/15/15
f 31/31/31 32/32/32 15/15/15
f 15/15/15 32/32/32 16/16/16
f 32/32/32 33/33/33 16/16/16
f 16/16/16 33/33/33 17/17/17
f 33/33/33 34/34/34 17/17/17
f 51/51/51 52/52/52 35/35/35
f 52/52/52 53/53/53 36/36/36
f 53/53/53 54/54/54 37/37/37
f 54/54/54 55/55/55 38/38/38
f 55/55/55 56/56/56 39/39/39
f 56/56/56 57/57/57 40/40/40
f 57/57/57 58/58/58 41/41/41
f 58/58/58 59/59/59 42/42/42
f 59/59/59 60/60/60 43/43/43
f 60/60/60 61/61/61 44/44/44
f 61/61/61 62/62/62 45/45/45
f 62/62/62 63/63/63 46/46/46
f 63/63/63 64/64/64 47/47/47
f 64/64/64 65/65/65 48/48/48
f 65/65/65 66/66/66 49/49/49
f 66/66/66 67/67/67 50/50/50
f 85/85/85 84/84/84 68/68/68
f 86/86/86 85/85/85 69/69/69
f 87/87/87 86/86/86 70/70/70
f 88/88/88 87/87/87 71/71/71
f 89/89/89 88/88/88 72/72/72
f 90/90/90 89/89/89 73/73/73
f 91/91/91 90/90/90 74/74/74
f 92/92/92 91/91/91 75/75/75
f 93/93/93 92/92/92 76/76/76
f 94/94/94 93/93/93 77/77/77
f 95/95/95 94/94/94 78/78/78
f 96/96/96 95/95/95 79/79/79
f 97/97/97 96/96/96 80/80/80
f 98/98/98 97/97/97 81/81/81
f 99/99/99 98/98/98 82/82/82
f 100/100/100 99/99/99 83/83/83
o coin_face
usemtl gold
v 0 0.09999999403953552 0.07951219379901886
v 0.1735534965991974 0.13961246609687805 0.07951219379901886
v 0.31273260712623596 0.2506040930747986 0.07951219379901886
v 0.38997116684913635 0.4109916090965271 0.07951219379901886
v 0.38997116684913635 0.5890083909034729 0.07951219379901886
v 0.31273260712623596 0.7493959069252014 0.07951219379901886
v 0.1735534965991974 0.8603875637054443 0.07951219379901886
v 4.8985870794684264e-17 0.8999999761581421 0.07951219379901886
v -0.1735534965991974 0.8603875637054443 0.07951219379901886
v -0.31273260712623596 0.7493959069252014 0.07951219379901886
v -0.38997116684913635 0.5890083909034729 0.07951219379901886
v -0.38997116684913635 0.4109916090965271 0.07951219379901886
v -0.31273260712623596 0.2506040930747986 0.07951219379901886
v -0.1735534965991974 0.13961246609687805 0.07951219379901886
v -9.797174158936853e-17 0.09999999403953552 0.07951219379901886
v 0 0.09999999403953552 -0.07951219379901886
v 0.1735534965991974 0.13961246609687805 -0.07951219379901886
v 0.31273260712623596 0.2506040930747986 -0.07951219379901886
v 0.38997116684913635 0.4109916090965271 -0.07951219379901886
v 0.38997116684913635 0.5890083909034729 -0.07951219379901886
v 0.31273260712623596 0.7493959069252014 -0.07951219379901886
v 0.1735534965991974 0.8603875637054443 -0.07951219379901886
v 4.8985870794684264e-17 0.8999999761581421 -0.07951219379901886
v -0.1735534965991974 0.8603875637054443 -0.07951219379901886
v -0.31273260712623596 0.7493959069252014 -0.07951219379901886
v -0.38997116684913635 0.5890083909034729 -0.07951219379901886
v -0.38997116684913635 0.4109916090965271 -0.07951219379901886
v -0.31273260712623596 0.2506040930747986 -0.07951219379901886
v -0.1735534965991974 0.13961246609687805 -0.07951219379901886
v -9.797174158936853e-17 0.09999999403953552 -0.07951219379901886
v 0 0.5 0.07951219379901886
v 0 0.5 0.07951219379901886
v 0 0.5 0.07951219379901886
v 0 0.5 0.07951219379901886
v 0 0.5 0.07951219379901886
v 0 0.5 0.07951219379901886
v 0 0.5 0.07951219379901886
v 0 0.5 0.07951219379901886
v 0 0.5 0.07951219379901886
v 0 0.5 0.07951219379901886
v 0 0.5 0.07951219379901886
v 0 0.5 0.07951219379901886
v 0 0.5 0.07951219379901886
v 0 0.5 0.07951219379901886
v 0 0.09999999403953552 0.07951219379901886
v 0.1735534965991974 0.13961246609687805 0.07951219379901886
v 0.31273260712623596 0.2506040930747986 0.07951219379901886
v 0.38997116684913635 0.4109916090965271 0.07951219379901886
v 0.38997116684913635 0.5890083909034729 0.07951219379901886
v 0.31273260712623596 0.7493959069252014 0.07951219379901886
v 0.1735534965991974 0.8603875637054443 0.07951219379901886
v 4.8985870794684264e-17 0.8999999761581421 0.07951219379901886
v -0.1735534965991974 0.8603875637054443 0.07951219379901886
v -0.31273260712623596 0.7493959069252014 0.07951219379901886
v -0.38997116684913635 0.5890083909034729 0.07951219379901886
v -0.38997116684913635 0.4109916090965271 0.07951219379901886
v -0.31273260712623596 0.2506040930747986 0.07951219379901886
v -0.1735534965991974 0.13961246609687805 0.07951219379901886
v -9.797174158936853e-17 0.09999999403953552 0.07951219379901886
v 0 0.5 -0.07951219379901886
v 0 0.5 -0.07951219379901886
v 0 0.5 -0.07951219379901886
v 0 0.5 -0.07951219379901886
v 0 0.5 -0.07951219379901886
v 0 0.5 -0.07951219379901886
v 0 0.5 -0.07951219379901886
v 0 0.5 -0.07951219379901886
v 0 0.5 -0.07951219379901886
v 0 0.5 -0.07951219379901886
v 0 0.5 -0.07951219379901886
v 0 0.5 -0.07951219379901886
v 0 0.5 -0.07951219379901886
v 0 0.5 -0.07951219379901886
v 0 0.09999999403953552 -0.07951219379901886
v 0.1735534965991974 0.13961246609687805 -0.07951219379901886
v 0.31273260712623596 0.2506040930747986 -0.07951219379901886
v 0.38997116684913635 0.4109916090965271 -0.07951219379901886
v 0.38997116684913635 0.5890083909034729 -0.07951219379901886
v 0.31273260712623596 0.7493959069252014 -0.07951219379901886
v 0.1735534965991974 0.8603875637054443 -0.07951219379901886
v 4.8985870794684264e-17 0.8999999761581421 -0.07951219379901886
v -0.1735534965991974 0.8603875637054443 -0.07951219379901886
v -0.31273260712623596 0.7493959069252014 -0.07951219379901886
v -0.38997116684913635 0.5890083909034729 -0.07951219379901886
v -0.38997116684913635 0.4109916090965271 -0.07951219379901886
v -0.31273260712623596 0.2506040930747986 -0.07951219379901886
v -0.1735534965991974 0.13961246609687805 -0.07951219379901886
v -9.797174158936853e-17 0.09999999403953552 -0.07951219379901886
vt 0 1
vt 0.0714285746216774 1
vt 0.1428571492433548 1
vt 0.2142857164144516 1
vt 0.2857142984867096 1
vt 0.3571428656578064 1
vt 0.4285714328289032 1
vt 0.5 1
vt 0.5714285969734192 1
vt 0.6428571343421936 1
vt 0.7142857313156128 1
vt 0.7857142686843872 1
vt 0.8571428656578064 1
vt 0.9285714030265808 1
vt 1 1
vt 0 0
vt 0.0714285746216774 0
vt 0.1428571492433548 0
vt 0.2142857164144516 0
vt 0.2857142984867096 0
vt 0.3571428656578064 0
vt 0.4285714328289032 0
vt 0.5 0
vt 0.5714285969734192 0
vt 0.6428571343421936 0
vt 0.7142857313156128 0
vt 0.7857142686843872 0
vt 0.8571428656578064 0
vt 0.9285714030265808 0
vt 1 0
vt 0.5 0.5
vt 0.5 0.5
vt 0.5 0.5
vt 0.5 0.5
vt 0.5 0.5
vt 0.5 0.5
vt 0.5 0.5
vt 0.5 0.5
vt 0.5 0.5
vt 0.5 0.5
vt 0.5 0.5
vt 0.5 0.5
vt 0.5 0.5
vt 0.5 0.5
vt 1 0.5
vt 0.9504844546318054 0.7169418931007385
vt 0.8117449283599854 0.8909157514572144
vt 0.6112604737281799 0.9874639511108398
vt 0.38873952627182007 0.9874639511108398
vt 0.18825510144233704 0.8909157514572144
vt 0.04951556771993637 0.7169418931007385
vt 0 0.5
vt 0.04951556771993637 0.28305813670158386
vt 0.18825510144233704 0.10908425599336624
vt 0.38873952627182007 0.012536044232547283
vt 0.6112604737281799 0.012536044232547283
vt 0.8117449283599854 0.10908425599336624
vt 0.9504844546318054 0.28305813670158386
vt 1 0.5
vt 0.5 0.5
vt 0.5 0.5
vt 0.5 0.5
vt 0.5 0.5
vt 0.5 0.5
vt 0.5 0.5
vt 0.5 0.5
vt 0.5 0.5
vt 0.5 0.5
vt 0.5 0.5
vt 0.5 0.5
vt 0.5 0.5
vt 0.5 0.5
vt 0.5 0.5
vt 1 0.5
vt 0.9504844546318054 0.28305813670158386
vt 0.8117449283599854 0.10908425599336624
vt 0.6112604737281799 0.012536044232547283
vt 0.38873952627182007 0.012536044232547283
vt 0.18825510144233704 0.10908425599336624
vt 0.04951556771993637 0.28305813670158386
vt 0 0.5
vt 0.04951556771993637 0.7169418931007385
vt 0.18825510144233704 0.8909157514572144
vt 0.38873952627182007 0.9874639511108398
vt 0.6112604737281799 0.9874639511108398
vt 0.8117449283599854 0.8909157514572144
vt 0.9504844546318054 0.7169418931007385
vt 1 0.5
vn 0 -1 2.2759571475420117e-16
vn 0.4338837360855756 -0.9009688693625448 2.0505666220313715e-16
vn 0.7818314927285933 -0.6234897889923936 1.419035998583358e-16
vn 0.9749279119926021 -0.22252093478534796 5.064481179923384e-17
vn 0.9749279119926021 0.22252093478534796 -5.064481179923384e-17
vn 0.7818314927285933 0.6234897889923936 -1.419035998583358e-16
vn 0.4338837360855756 0.9009688693625448 -2.0505666220313715e-16
vn 1.2246468525851679e-16 1 -2.2759571475420117e-16
vn -0.4338837360855756 0.9009688693625448 -2.0505666220313715e-16
vn -0.7818314927285933 0.6234897889923936 -1.419035998583358e-16
vn -0.9749279119926021 0.22252093478534796 -5.064481179923384e-17
vn -0.9749279119926021 -0.22252093478534796 5.064481179923384e-17
vn -0.7818314927285933 -0.6234897889923936 1.419035998583358e-16
vn -0.4338837360855756 -0.9009688693625448 2.0505666220313715e-16
vn -2.4492937051703357e-16 -1 2.2759571475420117e-16
vn 0 -1 2.2759571475420117e-16
vn 0.4338837360855756 -0.9009688693625448 2.0505666220313715e-16
vn 0.7818314927285933 -0.6234897889923936 1.419035998583358e-16
vn 0.9749279119926021 -0.22252093478534796 5.064481179923384e-17
vn 0.9749279119926021 0.22252093478534796 -5.064481179923384e-17
vn 0.7818314927285933 0.6234897889923936 -1.419035998583358e-16
vn 0.4338837360855756 0.9009688693625448 -2.0505666220313715e-16
vn 1.2246468525851679e-16 1 -2.2759571475420117e-16
vn -0.4338837360855756 0.9009688693625448 -2.0505666220313715e-16
vn -0.7818314927285933 0.6234897889923936 -1.419035998583358e-16
vn -0.9749279119926021 0.22252093478534796 -5.064481179923384e-17
vn -0.9749279119926021 -0.22252093478534796 5.064481179923384e-17
vn -0.7818314927285933 -0.6234897889923936 1.419035998583358e-16
vn -0.4338837360855756 -0.9009688693625448 2.0505666220313715e-16
vn -2.4492937051703357e-16 -1 2.2759571475420117e-16
vn 0 2.1662888801852413e-16 1
vn 0 2.1662888801852413e-16 1
vn 0 2.1662888801852413e-16 1
vn 0 2.1662888801852413e-16 1
vn 0 2.1662888801852413e-16 1
vn 0 2.1662888801852413e-16 1
vn 0 2.1662888801852413e-16 1
vn 0 2.1662888801852413e-16 1
vn 0 2.1662888801852413e-16 1
vn 0 2.1662888801852413e-16 1
vn 0 2.1662888801852413e-16 1
vn 0 2.1662888801852413e-16 1
vn 0 2.1662888801852413e-16 1
vn 0 2.1662888801852413e-16 1
vn 0 2.1662888801852413e-16 1
vn 0 2.1662888801852413e-16 1
vn 0 2.1662888801852413e-16 1
vn 0 2.1662888801852413e-16 1
vn 0 2.1662888801852413e-16 1
vn 0 2.1662888801852413e-16 1
vn 0 2.1662888801852413e-16 1
vn 0 2.1662888801852413e-16 1
vn 0 2.1662888801852413e-16 1
vn 0 2.1662888801852413e-16 1
vn 0 2.1662888801852413e-16 1
vn 0 2.1662888801852413e-16 1
vn 0 2.1662888801852413e-16 1
vn 0 2.1662888801852413e-16 1
vn 0 2.1662888801852413e-16 1
vn 0 -2.1662888801852413e-16 -1
vn 0 -2.1662888801852413e-16 -1
vn 0 -2.1662888801852413e-16 -1
vn 0 -2.1662888801852413e-16 -1
vn 0 -2.1662888801852413e-16 -1
vn 0 -2.1662888801852413e-16 -1
vn 0 -2.1662888801852413e-16 -1
vn 0 -2.1662888801852413e-16 -1
vn 0 -2.1662888801852413e-16 -1
vn 0 -2.1662888801852413e-16 -1
vn 0 -2.1662888801852413e-16 -1
vn 0 -2.1662888801852413e-16 -1
vn 0 -2.1662888801852413e-16 -1
vn 0 -2.1662888801852413e-16 -1
vn 0 -2.1662888801852413e-16 -1
vn 0 -2.1662888801852413e-16 -1
vn 0 -2.1662888801852413e-16 -1
vn 0 -2.1662888801852413e-16 -1
vn 0 -2.1662888801852413e-16 -1
vn 0 -2.1662888801852413e-16 -1
vn 0 -2.1662888801852413e-16 -1
vn 0 -2.1662888801852413e-16 -1
vn 0 -2.1662888801852413e-16 -1
vn 0 -2.1662888801852413e-16 -1
vn 0 -2.1662888801852413e-16 -1
vn 0 -2.1662888801852413e-16 -1
vn 0 -2.1662888801852413e-16 -1
vn 0 -2.1662888801852413e-16 -1
vn 0 -2.1662888801852413e-16 -1
f 101/101/101 116/116/116 102/102/102
f 116/116/116 117/117/117 102/102/102
f 102/102/102 117/117/117 103/103/103
f 117/117/117 118/118/118 103/103/103
f 103/103/103 118/118/118 104/104/104
f 118/118/118 119/119/119 104/104/104
f 104/104/104 119/119/119 105/105/105
f 119/119/119 120/120/120 105/105/105
f 105/105/105 120/120/120 106/106/106
f 120/120/120 121/121/121 106/106/106
f 106/106/106 121/121/121 107/107/107
f 121/121/121 122/122/122 107/107/107
f 107/107/107 122/122/122 108/108/108
f 122/122/122 123/123/123 108/108/108
f 108/108/108 123/123/123 109/109/109
f 123/123/123 124/124/124 109/109/109
f 109/109/109 124/124/124 110/110/110
f 124/124/124 125/125/125 110/110/110
f 110/110/110 125/125/125 111/111/111
f 125/125/125 126/126/126 111/111/111
f 111/111/111 126/126/126 112/112/112
f 126/126/126 127/127/127 112/112/112
f 112/112/112 127/127/127 113/113/113
f 127/127/127 128/128/128 113/113/113
f 113/113/113 128/128/128 114/114/114
f 128/128/128 129/129/129 114/114/114
f 114/114/114 129/129/129 115/115/115
f 129/129/129 130/130/130 115/115/115
f 145/145/145 146/146/146 131/131/131
f 146/146/146 147/147/147 132/132/132
f 147/147/147 148/148/148 133/133/133
f 148/148/148 149/149/149 134/134/134
f 149/149/149 150/150/150 135/135/135
f 150/150/150 151/151/151 136/136/136
f 151/151/151 152/152/152 137/137/137
f 152/152/152 153/153/153 138/138/138
f 153/153/153 154/154/154 139/139/139
f 154/154/154 155/155/155 140/140/140
f 155/155/155 156/156/156 141/141/141
f 156/156/156 157/157/157 142/142/142
f 157/157/157 158/158/158 143/143/143
f 158/158/158 159/159/159 144/144/144
f 175/175/175 174/174/174 160/160/160
f 176/176/176 175/175/175 161/161/161
f 177/177/177 176/176/176 162/162/162
f 178/178/178 177/177/177 163/163/163
f 179/179/179 178/178/178 164/164/164
f 180/180/180 179/179/179 165/165/165
f 181/181/181 180/180/180 166/166/166
f 182/182/182 181/181/181 167/167/167
f 183/183/183 182/182/182 168/168/168
f 184/184/184 183/183/183 169/169/169
f 185/185/185 184/184/184 170/170/170
f 186/186/186 185/185/185 171/171/171
f 187/187/187 186/186/186 172/172/172
f 188/188/188 187/187/187 173/173/173
o star_front
usemtl hazard
v -0.07935100793838501 0.6092172861099243 0.07951219379901886
v 1.8369702788777518e-17 0.800000011920929 0.07951219379901886
v 0.07935100793838501 0.6092172861099243 0.07951219379901886
v -0.12839263677597046 0.4582827091217041 0.07951219379901886
v -0.28531694412231445 0.5927051305770874 0.07951219379901886
v -0.07935100793838501 0.6092172861099243 0.07951219379901886
v -2.479909810310516e-17 0.36500000953674316 0.07951219379901886
v -0.17633557319641113 0.2572948932647705 0.07951219379901886
v -0.12839263677597046 0.4582827091217041 0.07951219379901886
v 0.12839263677597046 0.4582827091217041 0.07951219379901886
v 0.17633557319641113 0.2572948932647705 0.07951219379901886
v -2.479909810310516e-17 0.36500000953674316 0.07951219379901886
v 0.07935100793838501 0.6092172861099243 0.07951219379901886
v 0.28531694412231445 0.5927051305770874 0.07951219379901886
v 0.12839263677597046 0.4582827091217041 0.07951219379901886
v -0.12839263677597046 0.4582827091217041 0.07951219379901886
v -0.07935100793838501 0.6092172861099243 0.07951219379901886
v 0.07935100793838501 0.6092172861099243 0.07951219379901886
v 0.12839263677597046 0.4582827091217041 0.07951219379901886
v -2.479909810310516e-17 0.36500000953674316 0.07951219379901886
v -0.12839263677597046 0.4582827091217041 0.07951219379901886
v -0.12839263677597046 0.4582827091217041 0.07951219379901886
v 0.07935100793838501 0.6092172861099243 0.07951219379901886
v 0.12839263677597046 0.4582827091217041 0.07951219379901886
v 0.07935100793838501 0.6092172861099243 0.10000000149011612
v 1.8369702788777518e-17 0.800000011920929 0.10000000149011612
v -0.07935100793838501 0.6092172861099243 0.10000000149011612
v -0.07935100793838501 0.6092172861099243 0.10000000149011612
v -0.28531694412231445 0.5927051305770874 0.10000000149011612
v -0.12839263677597046 0.4582827091217041 0.10000000149011612
v -0.12839263677597046 0.4582827091217041 0.10000000149011612
v -0.17633557319641113 0.2572948932647705 0.10000000149011612
v -2.479909810310516e-17 0.36500000953674316 0.10000000149011612
v -2.479909810310516e-17 0.36500000953674316 0.10000000149011612
v 0.17633557319641113 0.2572948932647705 0.10000000149011612
v 0.12839263677597046 0.4582827091217041 0.10000000149011612
v 0.12839263677597046 0.4582827091217041 0.10000000149011612
v 0.28531694412231445 0.5927051305770874 0.10000000149011612
v 0.07935100793838501 0.6092172861099243 0.10000000149011612
v 0.07935100793838501 0.6092172861099243 0.10000000149011612
v -0.07935100793838501 0.6092172861099243 0.10000000149011612
v -0.12839263677597046 0.4582827091217041 0.10000000149011612
v -0.12839263677597046 0.4582827091217041 0.10000000149011612
v -2.479909810310516e-17 0.36500000953674316 0.10000000149011612
v 0.12839263677597046 0.4582827091217041 0.10000000149011612
v 0.12839263677597046 0.4582827091217041 0.10000000149011612
v 0.07935100793838501 0.6092172861099243 0.10000000149011612
v -0.12839263677597046 0.4582827091217041 0.10000000149011612
v 1.8369702788777518e-17 0.800000011920929 0.07951219379901886
v -0.07935100793838501 0.6092172861099243 0.07951219379901886
v 1.8369702788777518e-17 0.800000011920929 0.10000000149011612
v -0.07935100793838501 0.6092172861099243 0.07951219379901886
v -0.07935100793838501 0.6092172861099243 0.10000000149011612
v 1.8369702788777518e-17 0.800000011920929 0.10000000149011612
v -0.07935100793838501 0.6092172861099243 0.07951219379901886
v -0.28531694412231445 0.5927051305770874 0.07951219379901886
v -0.07935100793838501 0.6092172861099243 0.10000000149011612
v -0.28531694412231445 0.5927051305770874 0.07951219379901886
v -0.28531694412231445 0.5927051305770874 0.10000000149011612
v -0.07935100793838501 0.6092172861099243 0.10000000149011612
v -0.28531694412231445 0.5927051305770874 0.07951219379901886
v -0.12839263677597046 0.4582827091217041 0.07951219379901886
v -0.28531694412231445 0.5927051305770874 0.10000000149011612
v -0.12839263677597046 0.4582827091217041 0.07951219379901886
v -0.12839263677597046 0.4582827091217041 0.10000000149011612
v -0.28531694412231445 0.5927051305770874 0.10000000149011612
v -0.12839263677597046 0.4582827091217041 0.07951219379901886
v -0.17633557319641113 0.2572948932647705 0.07951219379901886
v -0.12839263677597046 0.4582827091217041 0.10000000149011612
v -0.17633557319641113 0.2572948932647705 0.07951219379901886
v -0.17633557319641113 0.2572948932647705 0.10000000149011612
v -0.12839263677597046 0.4582827091217041 0.10000000149011612
v -0.17633557319641113 0.2572948932647705 0.07951219379901886
v -2.479909810310516e-17 0.36500000953674316 0.07951219379901886
v -0.17633557319641113 0.2572948932647705 0.10000000149011612
v -2.479909810310516e-17 0.36500000953674316 0.07951219379901886
v -2.479909810310516e-17 0.36500000953674316 0.10000000149011612
v -0.17633557319641113 0.2572948932647705 0.10000000149011612
v -2.479909810310516e-17 0.36500000953674316 0.07951219379901886
v 0.17633557319641113 0.2572948932647705 0.07951219379901886
v -2.479909810310516e-17 0.36500000953674316 0.10000000149011612
v 0.17633557319641113 0.2572948932647705 0.07951219379901886
v 0.17633557319641113 0.2572948932647705 0.10000000149011612
v -2.479909810310516e-17 0.36500000953674316 0.10000000149011612
v 0.17633557319641113 0.2572948932647705 0.07951219379901886
v 0.12839263677597046 0.4582827091217041 0.07951219379901886
v 0.17633557319641113 0.2572948932647705 0.10000000149011612
v 0.12839263677597046 0.4582827091217041 0.07951219379901886
v 0.12839263677597046 0.4582827091217041 0.10000000149011612
v 0.17633557319641113 0.2572948932647705 0.10000000149011612
v 0.12839263677597046 0.4582827091217041 0.07951219379901886
v 0.28531694412231445 0.5927051305770874 0.07951219379901886
v 0.12839263677597046 0.4582827091217041 0.10000000149011612
v 0.28531694412231445 0.5927051305770874 0.07951219379901886
v 0.28531694412231445 0.5927051305770874 0.10000000149011612
v 0.12839263677597046 0.4582827091217041 0.10000000149011612
v 0.28531694412231445 0.5927051305770874 0.07951219379901886
v 0.07935100793838501 0.6092172861099243 0.07951219379901886
v 0.28531694412231445 0.5927051305770874 0.10000000149011612
v 0.07935100793838501 0.6092172861099243 0.07951219379901886
v 0.07935100793838501 0.6092172861099243 0.10000000149011612
v 0.28531694412231445 0.5927051305770874 0.10000000149011612
v 0.07935100793838501 0.6092172861099243 0.07951219379901886
v 1.8369702788777518e-17 0.800000011920929 0.07951219379901886
v 0.07935100793838501 0.6092172861099243 0.10000000149011612
v 1.8369702788777518e-17 0.800000011920929 0.07951219379901886
v 1.8369702788777518e-17 0.800000011920929 0.10000000149011612
v 0.07935100793838501 0.6092172861099243 0.10000000149011612
vt -0.07935100793838501 0.10921729356050491
vt 1.8369702788777518e-17 0.30000001192092896
vt 0.07935100793838501 0.10921729356050491
vt -0.12839263677597046 -0.0417172946035862
vt -0.28531694412231445 0.09270510077476501
vt -0.07935100793838501 0.10921729356050491
vt -2.479909810310516e-17 -0.13500000536441803
vt -0.17633557319641113 -0.2427050918340683
vt -0.12839263677597046 -0.0417172946035862
vt 0.12839263677597046 -0.0417172946035862
vt 0.17633557319641113 -0.2427050918340683
vt -2.479909810310516e-17 -0.13500000536441803
vt 0.07935100793838501 0.10921729356050491
vt 0.28531694412231445 0.09270510077476501
vt 0.12839263677597046 -0.0417172946035862
vt -0.12839263677597046 -0.0417172946035862
vt -0.07935100793838501 0.10921729356050491
vt 0.07935100793838501 0.10921729356050491
vt 0.12839263677597046 -0.0417172946035862
vt -2.479909810310516e-17 -0.13500000536441803
vt -0.12839263677597046 -0.0417172946035862
vt -0.12839263677597046 -0.0417172946035862
vt 0.07935100793838501 0.10921729356050491
vt 0.12839263677597046 -0.0417172946035862
vt 0.07935100793838501 0.10921729356050491
vt 1.8369702788777518e-17 0.30000001192092896
vt -0.07935100793838501 0.10921729356050491
vt -0.07935100793838501 0.10921729356050491
vt -0.28531694412231445 0.09270510077476501
vt -0.12839263677597046 -0.0417172946035862
vt -0.12839263677597046 -0.0417172946035862
vt -0.17633557319641113 -0.2427050918340683
vt -2.479909810310516e-17 -0.13500000536441803
vt -2.479909810310516e-17 -0.13500000536441803
vt 0.17633557319641113 -0.2427050918340683
vt 0.12839263677597046 -0.0417172946035862
vt 0.12839263677597046 -0.0417172946035862
vt 0.28531694412231445 0.09270510077476501
vt 0.07935100793838501 0.10921729356050491
vt 0.07935100793838501 0.10921729356050491
vt -0.07935100793838501 0.10921729356050491
vt -0.12839263677597046 -0.0417172946035862
vt -0.12839263677597046 -0.0417172946035862
vt -2.479909810310516e-17 -0.13500000536441803
vt 0.12839263677597046 -0.0417172946035862
vt 0.12839263677597046 -0.0417172946035862
vt 0.07935100793838501 0.10921729356050491
vt -0.12839263677597046 -0.0417172946035862
vt 0.30000001192092896 1
vt 0.10921729356050491 1
vt 0.30000001192092896 0.9789999723434448
vt 0.10921729356050491 1
vt 0.10921729356050491 0.9789999723434448
vt 0.30000001192092896 0.9789999723434448
vt -0.07935100793838501 1
vt -0.28531694412231445 1
vt -0.07935100793838501 0.9789999723434448
vt -0.28531694412231445 1
vt -0.28531694412231445 0.9789999723434448
vt -0.07935100793838501 0.9789999723434448
vt -0.28531694412231445 1
vt -0.12839263677597046 1
vt -0.28531694412231445 0.9789999723434448
vt -0.12839263677597046 1
vt -0.12839263677597046 0.9789999723434448
vt -0.28531694412231445 0.9789999723434448
vt -0.0417172946035862 1
vt -0.2427050918340683 1
vt -0.0417172946035862 0.9789999723434448
vt -0.2427050918340683 1
vt -0.2427050918340683 0.9789999723434448
vt -0.0417172946035862 0.9789999723434448
vt -0.17633557319641113 1
vt -2.479909810310516e-17 1
vt -0.17633557319641113 0.9789999723434448
vt -2.479909810310516e-17 1
vt -2.479909810310516e-17 0.9789999723434448
vt -0.17633557319641113 0.9789999723434448
vt -2.479909810310516e-17 1
vt 0.17633557319641113 1
vt -2.479909810310516e-17 0.9789999723434448
vt 0.17633557319641113 1
vt 0.17633557319641113 0.9789999723434448
vt -2.479909810310516e-17 0.9789999723434448
vt -0.2427050918340683 1
vt -0.0417172946035862 1
vt -0.2427050918340683 0.9789999723434448
vt -0.0417172946035862 1
vt -0.0417172946035862 0.9789999723434448
vt -0.2427050918340683 0.9789999723434448
vt 0.12839263677597046 1
vt 0.28531694412231445 1
vt 0.12839263677597046 0.9789999723434448
vt 0.28531694412231445 1
vt 0.28531694412231445 0.9789999723434448
vt 0.12839263677597046 0.9789999723434448
vt 0.28531694412231445 1
vt 0.07935100793838501 1
vt 0.28531694412231445 0.9789999723434448
vt 0.07935100793838501 1
vt 0.07935100793838501 0.9789999723434448
vt 0.28531694412231445 0.9789999723434448
vt 0.10921729356050491 1
vt 0.30000001192092896 1
vt 0.10921729356050491 0.9789999723434448
vt 0.30000001192092896 1
vt 0.30000001192092896 0.9789999723434448
vt 0.10921729356050491 0.9789999723434448
vn 0 0 -1
vn 0 0 -1
vn 0 0 -1
vn 0 0 -1
vn 0 0 -1
vn 0 0 -1
vn 0 0 -1
vn 0 0 -1
vn 0 0 -1
vn 0 0 -1
vn 0 0 -1
vn 0 0 -1
vn 0 0 -1
vn 0 0 -1
vn 0 0 -1
vn 0 0 -1
vn 0 0 -1
vn 0 0 -1
vn 0 0 -1
vn 0 0 -1
vn 0 0 -1
vn 0 0 -1
vn 0 0 -1
vn 0 0 -1
vn 0 0 1
vn 0 0 1
vn 0 0 1
vn 0 0 1
vn 0 0 1
vn 0 0 1
vn 0 0 1
vn 0 0 1
vn 0 0 1
vn 0 0 1
vn 0 0 1
vn 0 0 1
vn 0 0 1
vn 0 0 1
vn 0 0 1
vn 0 0 1
vn 0 0 1
vn 0 0 1
vn 0 0 1
vn 0 0 1
vn 0 0 1
vn 0 0 1
vn 0 0 1
vn 0 0 1
vn -0.9233203604239064 0.3840306133977697 0
vn -0.9233203604239064 0.3840306133977697 0
vn -0.9233203604239064 0.3840306133977697 0
vn -0.9233203604239064 0.3840306133977697 0
vn -0.9233203604239064 0.3840306133977697 0
vn -0.9233203604239064 0.3840306133977697 0
vn -0.07991313757148193 0.9968018310795187 0
vn -0.07991313757148193 0.9968018310795187 0
vn -0.07991313757148193 0.9968018310795187 0
vn -0.07991313757148193 0.9968018310795187 0
vn -0.07991313757148193 0.9968018310795187 0
vn -0.07991313757148193 0.9968018310795187 0
vn -0.6505565533366285 -0.759457813779519 0
vn -0.6505565533366285 -0.759457813779519 0
vn -0.6505565533366285 -0.759457813779519 0
vn -0.6505565533366285 -0.759457813779519 0
vn -0.6505565533366285 -0.759457813779519 0
vn -0.6505565533366285 -0.759457813779519 0
vn -0.9727094080612025 0.23202673869454157 0
vn -0.9727094080612025 0.23202673869454157 0
vn -0.9727094080612025 0.23202673869454157 0
vn -0.9727094080612025 0.23202673869454157 0
vn -0.9727094080612025 0.23202673869454157 0
vn -0.9727094080612025 0.23202673869454157 0
vn 0.521254248719018 -0.8534014343744519 0
vn 0.521254248719018 -0.8534014343744519 0
vn 0.521254248719018 -0.8534014343744519 0
vn 0.521254248719018 -0.8534014343744519 0
vn 0.521254248719018 -0.8534014343744519 0
vn 0.521254248719018 -0.8534014343744519 0
vn -0.521254248719018 -0.8534014343744519 0
vn -0.521254248719018 -0.8534014343744519 0
vn -0.521254248719018 -0.8534014343744519 0
vn -0.521254248719018 -0.8534014343744519 0
vn -0.521254248719018 -0.8534014343744519 0
vn -0.521254248719018 -0.8534014343744519 0
vn 0.9727094080612025 0.23202673869454157 0
vn 0.9727094080612025 0.23202673869454157 0
vn 0.9727094080612025 0.23202673869454157 0
vn 0.9727094080612025 0.23202673869454157 0
vn 0.9727094080612025 0.23202673869454157 0
vn 0.9727094080612025 0.23202673869454157 0
vn 0.6505565533366285 -0.759457813779519 0
vn 0.6505565533366285 -0.759457813779519 0
vn 0.6505565533366285 -0.759457813779519 0
vn 0.6505565533366285 -0.759457813779519 0
vn 0.6505565533366285 -0.759457813779519 0
vn 0.6505565533366285 -0.759457813779519 0
vn 0.07991313757148193 0.9968018310795187 0
vn 0.07991313757148193 0.9968018310795187 0
vn 0.07991313757148193 0.9968018310795187 0
vn 0.07991313757148193 0.9968018310795187 0
vn 0.07991313757148193 0.9968018310795187 0
vn 0.07991313757148193 0.9968018310795187 0
vn 0.9233203604239064 0.3840306133977697 0
vn 0.9233203604239064 0.3840306133977697 0
vn 0.9233203604239064 0.3840306133977697 0
vn 0.9233203604239064 0.3840306133977697 0
vn 0.9233203604239064 0.3840306133977697 0
vn 0.9233203604239064 0.3840306133977697 0
f 189/189/189 190/190/190 191/191/191
f 192/192/192 193/193/193 194/194/194
f 195/195/195 196/196/196 197/197/197
f 198/198/198 199/199/199 200/200/200
f 201/201/201 202/202/202 203/203/203
f 204/204/204 205/205/205 206/206/206
f 207/207/207 208/208/208 209/209/209
f 210/210/210 211/211/211 212/212/212
f 213/213/213 214/214/214 215/215/215
f 216/216/216 217/217/217 218/218/218
f 219/219/219 220/220/220 221/221/221
f 222/222/222 223/223/223 224/224/224
f 225/225/225 226/226/226 227/227/227
f 228/228/228 229/229/229 230/230/230
f 231/231/231 232/232/232 233/233/233
f 234/234/234 235/235/235 236/236/236
f 237/237/237 238/238/238 239/239/239
f 240/240/240 241/241/241 242/242/242
f 243/243/243 244/244/244 245/245/245
f 246/246/246 247/247/247 248/248/248
f 249/249/249 250/250/250 251/251/251
f 252/252/252 253/253/253 254/254/254
f 255/255/255 256/256/256 257/257/257
f 258/258/258 259/259/259 260/260/260
f 261/261/261 262/262/262 263/263/263
f 264/264/264 265/265/265 266/266/266
f 267/267/267 268/268/268 269/269/269
f 270/270/270 271/271/271 272/272/272
f 273/273/273 274/274/274 275/275/275
f 276/276/276 277/277/277 278/278/278
f 279/279/279 280/280/280 281/281/281
f 282/282/282 283/283/283 284/284/284
f 285/285/285 286/286/286 287/287/287
f 288/288/288 289/289/289 290/290/290
f 291/291/291 292/292/292 293/293/293
f 294/294/294 295/295/295 296/296/296
o star_back
usemtl hazard
v -0.07935100793838501 0.6092172861099243 -0.10000000149011612
v 1.8369702788777518e-17 0.800000011920929 -0.10000000149011612
v 0.07935100793838501 0.6092172861099243 -0.10000000149011612
v -0.12839263677597046 0.4582827091217041 -0.10000000149011612
v -0.28531694412231445 0.5927051305770874 -0.10000000149011612
v -0.07935100793838501 0.6092172861099243 -0.10000000149011612
v -2.479909810310516e-17 0.36500000953674316 -0.10000000149011612
v -0.17633557319641113 0.2572948932647705 -0.10000000149011612
v -0.12839263677597046 0.4582827091217041 -0.10000000149011612
v 0.12839263677597046 0.4582827091217041 -0.10000000149011612
v 0.17633557319641113 0.2572948932647705 -0.10000000149011612
v -2.479909810310516e-17 0.36500000953674316 -0.10000000149011612
v 0.07935100793838501 0.6092172861099243 -0.10000000149011612
v 0.28531694412231445 0.5927051305770874 -0.10000000149011612
v 0.12839263677597046 0.4582827091217041 -0.10000000149011612
v -0.12839263677597046 0.4582827091217041 -0.10000000149011612
v -0.07935100793838501 0.6092172861099243 -0.10000000149011612
v 0.07935100793838501 0.6092172861099243 -0.10000000149011612
v 0.12839263677597046 0.4582827091217041 -0.10000000149011612
v -2.479909810310516e-17 0.36500000953674316 -0.10000000149011612
v -0.12839263677597046 0.4582827091217041 -0.10000000149011612
v -0.12839263677597046 0.4582827091217041 -0.10000000149011612
v 0.07935100793838501 0.6092172861099243 -0.10000000149011612
v 0.12839263677597046 0.4582827091217041 -0.10000000149011612
v 0.07935100793838501 0.6092172861099243 -0.07951219379901886
v 1.8369702788777518e-17 0.800000011920929 -0.07951219379901886
v -0.07935100793838501 0.6092172861099243 -0.07951219379901886
v -0.07935100793838501 0.6092172861099243 -0.07951219379901886
v -0.28531694412231445 0.5927051305770874 -0.07951219379901886
v -0.12839263677597046 0.4582827091217041 -0.07951219379901886
v -0.12839263677597046 0.4582827091217041 -0.07951219379901886
v -0.17633557319641113 0.2572948932647705 -0.07951219379901886
v -2.479909810310516e-17 0.36500000953674316 -0.07951219379901886
v -2.479909810310516e-17 0.36500000953674316 -0.07951219379901886
v 0.17633557319641113 0.2572948932647705 -0.07951219379901886
v 0.12839263677597046 0.4582827091217041 -0.07951219379901886
v 0.12839263677597046 0.4582827091217041 -0.07951219379901886
v 0.28531694412231445 0.5927051305770874 -0.07951219379901886
v 0.07935100793838501 0.6092172861099243 -0.07951219379901886
v 0.07935100793838501 0.6092172861099243 -0.07951219379901886
v -0.07935100793838501 0.6092172861099243 -0.07951219379901886
v -0.12839263677597046 0.4582827091217041 -0.07951219379901886
v -0.12839263677597046 0.4582827091217041 -0.07951219379901886
v -2.479909810310516e-17 0.36500000953674316 -0.07951219379901886
v 0.12839263677597046 0.4582827091217041 -0.07951219379901886
v 0.12839263677597046 0.4582827091217041 -0.07951219379901886
v 0.07935100793838501 0.6092172861099243 -0.07951219379901886
v -0.12839263677597046 0.4582827091217041 -0.07951219379901886
v 1.8369702788777518e-17 0.800000011920929 -0.10000000149011612
v -0.07935100793838501 0.6092172861099243 -0.10000000149011612
v 1.8369702788777518e-17 0.800000011920929 -0.07951219379901886
v -0.07935100793838501 0.6092172861099243 -0.10000000149011612
v -0.07935100793838501 0.6092172861099243 -0.07951219379901886
v 1.8369702788777518e-17 0.800000011920929 -0.07951219379901886
v -0.07935100793838501 0.6092172861099243 -0.10000000149011612
v -0.28531694412231445 0.5927051305770874 -0.10000000149011612
v -0.07935100793838501 0.6092172861099243 -0.07951219379901886
v -0.28531694412231445 0.5927051305770874 -0.10000000149011612
v -0.28531694412231445 0.5927051305770874 -0.07951219379901886
v -0.07935100793838501 0.6092172861099243 -0.07951219379901886
v -0.28531694412231445 0.5927051305770874 -0.10000000149011612
v -0.12839263677597046 0.4582827091217041 -0.10000000149011612
v -0.28531694412231445 0.5927051305770874 -0.07951219379901886
v -0.12839263677597046 0.4582827091217041 -0.10000000149011612
v -0.12839263677597046 0.4582827091217041 -0.07951219379901886
v -0.28531694412231445 0.5927051305770874 -0.07951219379901886
v -0.12839263677597046 0.4582827091217041 -0.10000000149011612
v -0.17633557319641113 0.2572948932647705 -0.10000000149011612
v -0.12839263677597046 0.4582827091217041 -0.07951219379901886
v -0.17633557319641113 0.2572948932647705 -0.10000000149011612
v -0.17633557319641113 0.2572948932647705 -0.07951219379901886
v -0.12839263677597046 0.4582827091217041 -0.07951219379901886
v -0.17633557319641113 0.2572948932647705 -0.10000000149011612
v -2.479909810310516e-17 0.36500000953674316 -0.10000000149011612
v -0.17633557319641113 0.2572948932647705 -0.07951219379901886
v -2.479909810310516e-17 0.36500000953674316 -0.10000000149011612
v -2.479909810310516e-17 0.36500000953674316 -0.07951219379901886
v -0.17633557319641113 0.2572948932647705 -0.07951219379901886
v -2.479909810310516e-17 0.36500000953674316 -0.10000000149011612
v 0.17633557319641113 0.2572948932647705 -0.10000000149011612
v -2.479909810310516e-17 0.36500000953674316 -0.07951219379901886
v 0.17633557319641113 0.2572948932647705 -0.10000000149011612
v 0.17633557319641113 0.2572948932647705 -0.07951219379901886
v -2.479909810310516e-17 0.36500000953674316 -0.07951219379901886
v 0.17633557319641113 0.2572948932647705 -0.10000000149011612
v 0.12839263677597046 0.4582827091217041 -0.10000000149011612
v 0.17633557319641113 0.2572948932647705 -0.07951219379901886
v 0.12839263677597046 0.4582827091217041 -0.10000000149011612
v 0.12839263677597046 0.4582827091217041 -0.07951219379901886
v 0.17633557319641113 0.2572948932647705 -0.07951219379901886
v 0.12839263677597046 0.4582827091217041 -0.10000000149011612
v 0.28531694412231445 0.5927051305770874 -0.10000000149011612
v 0.12839263677597046 0.4582827091217041 -0.07951219379901886
v 0.28531694412231445 0.5927051305770874 -0.10000000149011612
v 0.28531694412231445 0.5927051305770874 -0.07951219379901886
v 0.12839263677597046 0.4582827091217041 -0.07951219379901886
v 0.28531694412231445 0.5927051305770874 -0.10000000149011612
v 0.07935100793838501 0.6092172861099243 -0.10000000149011612
v 0.28531694412231445 0.5927051305770874 -0.07951219379901886
v 0.07935100793838501 0.6092172861099243 -0.10000000149011612
v 0.07935100793838501 0.6092172861099243 -0.07951219379901886
v 0.28531694412231445 0.5927051305770874 -0.07951219379901886
v 0.07935100793838501 0.6092172861099243 -0.10000000149011612
v 1.8369702788777518e-17 0.800000011920929 -0.10000000149011612
v 0.07935100793838501 0.6092172861099243 -0.07951219379901886
v 1.8369702788777518e-17 0.800000011920929 -0.10000000149011612
v 1.8369702788777518e-17 0.800000011920929 -0.07951219379901886
v 0.07935100793838501 0.6092172861099243 -0.07951219379901886
vt -0.07935100793838501 0.10921729356050491
vt 1.8369702788777518e-17 0.30000001192092896
vt 0.07935100793838501 0.10921729356050491
vt -0.12839263677597046 -0.0417172946035862
vt -0.28531694412231445 0.09270510077476501
vt -0.07935100793838501 0.10921729356050491
vt -2.479909810310516e-17 -0.13500000536441803
vt -0.17633557319641113 -0.2427050918340683
vt -0.12839263677597046 -0.0417172946035862
vt 0.12839263677597046 -0.0417172946035862
vt 0.17633557319641113 -0.2427050918340683
vt -2.479909810310516e-17 -0.13500000536441803
vt 0.07935100793838501 0.10921729356050491
vt 0.28531694412231445 0.09270510077476501
vt 0.12839263677597046 -0.0417172946035862
vt -0.12839263677597046 -0.0417172946035862
vt -0.07935100793838501 0.10921729356050491
vt 0.07935100793838501 0.10921729356050491
vt 0.12839263677597046 -0.0417172946035862
vt -2.479909810310516e-17 -0.13500000536441803
vt -0.12839263677597046 -0.0417172946035862
vt -0.12839263677597046 -0.0417172946035862
vt 0.07935100793838501 0.10921729356050491
vt 0.12839263677597046 -0.0417172946035862
vt 0.07935100793838501 0.10921729356050491
vt 1.8369702788777518e-17 0.30000001192092896
vt -0.07935100793838501 0.10921729356050491
vt -0.07935100793838501 0.10921729356050491
vt -0.28531694412231445 0.09270510077476501
vt -0.12839263677597046 -0.0417172946035862
vt -0.12839263677597046 -0.0417172946035862
vt -0.17633557319641113 -0.2427050918340683
vt -2.479909810310516e-17 -0.13500000536441803
vt -2.479909810310516e-17 -0.13500000536441803
vt 0.17633557319641113 -0.2427050918340683
vt 0.12839263677597046 -0.0417172946035862
vt 0.12839263677597046 -0.0417172946035862
vt 0.28531694412231445 0.09270510077476501
vt 0.07935100793838501 0.10921729356050491
vt 0.07935100793838501 0.10921729356050491
vt -0.07935100793838501 0.10921729356050491
vt -0.12839263677597046 -0.0417172946035862
vt -0.12839263677597046 -0.0417172946035862
vt -2.479909810310516e-17 -0.13500000536441803
vt 0.12839263677597046 -0.0417172946035862
vt 0.12839263677597046 -0.0417172946035862
vt 0.07935100793838501 0.10921729356050491
vt -0.12839263677597046 -0.0417172946035862
vt 0.30000001192092896 1
vt 0.10921729356050491 1
vt 0.30000001192092896 0.9789999723434448
vt 0.10921729356050491 1
vt 0.10921729356050491 0.9789999723434448
vt 0.30000001192092896 0.9789999723434448
vt -0.07935100793838501 1
vt -0.28531694412231445 1
vt -0.07935100793838501 0.9789999723434448
vt -0.28531694412231445 1
vt -0.28531694412231445 0.9789999723434448
vt -0.07935100793838501 0.9789999723434448
vt -0.28531694412231445 1
vt -0.12839263677597046 1
vt -0.28531694412231445 0.9789999723434448
vt -0.12839263677597046 1
vt -0.12839263677597046 0.9789999723434448
vt -0.28531694412231445 0.9789999723434448
vt -0.0417172946035862 1
vt -0.2427050918340683 1
vt -0.0417172946035862 0.9789999723434448
vt -0.2427050918340683 1
vt -0.2427050918340683 0.9789999723434448
vt -0.0417172946035862 0.9789999723434448
vt -0.17633557319641113 1
vt -2.479909810310516e-17 1
vt -0.17633557319641113 0.9789999723434448
vt -2.479909810310516e-17 1
vt -2.479909810310516e-17 0.9789999723434448
vt -0.17633557319641113 0.9789999723434448
vt -2.479909810310516e-17 1
vt 0.17633557319641113 1
vt -2.479909810310516e-17 0.9789999723434448
vt 0.17633557319641113 1
vt 0.17633557319641113 0.9789999723434448
vt -2.479909810310516e-17 0.9789999723434448
vt -0.2427050918340683 1
vt -0.0417172946035862 1
vt -0.2427050918340683 0.9789999723434448
vt -0.0417172946035862 1
vt -0.0417172946035862 0.9789999723434448
vt -0.2427050918340683 0.9789999723434448
vt 0.12839263677597046 1
vt 0.28531694412231445 1
vt 0.12839263677597046 0.9789999723434448
vt 0.28531694412231445 1
vt 0.28531694412231445 0.9789999723434448
vt 0.12839263677597046 0.9789999723434448
vt 0.28531694412231445 1
vt 0.07935100793838501 1
vt 0.28531694412231445 0.9789999723434448
vt 0.07935100793838501 1
vt 0.07935100793838501 0.9789999723434448
vt 0.28531694412231445 0.9789999723434448
vt 0.10921729356050491 1
vt 0.30000001192092896 1
vt 0.10921729356050491 0.9789999723434448
vt 0.30000001192092896 1
vt 0.30000001192092896 0.9789999723434448
vt 0.10921729356050491 0.9789999723434448
vn 0 0 -1
vn 0 0 -1
vn 0 0 -1
vn 0 0 -1
vn 0 0 -1
vn 0 0 -1
vn 0 0 -1
vn 0 0 -1
vn 0 0 -1
vn 0 0 -1
vn 0 0 -1
vn 0 0 -1
vn 0 0 -1
vn 0 0 -1
vn 0 0 -1
vn 0 0 -1
vn 0 0 -1
vn 0 0 -1
vn 0 0 -1
vn 0 0 -1
vn 0 0 -1
vn 0 0 -1
vn 0 0 -1
vn 0 0 -1
vn 0 0 1
vn 0 0 1
vn 0 0 1
vn 0 0 1
vn 0 0 1
vn 0 0 1
vn 0 0 1
vn 0 0 1
vn 0 0 1
vn 0 0 1
vn 0 0 1
vn 0 0 1
vn 0 0 1
vn 0 0 1
vn 0 0 1
vn 0 0 1
vn 0 0 1
vn 0 0 1
vn 0 0 1
vn 0 0 1
vn 0 0 1
vn 0 0 1
vn 0 0 1
vn 0 0 1
vn -0.9233203604239064 0.3840306133977697 0
vn -0.9233203604239064 0.3840306133977697 0
vn -0.9233203604239064 0.3840306133977697 0
vn -0.9233203604239064 0.3840306133977697 0
vn -0.9233203604239064 0.3840306133977697 0
vn -0.9233203604239064 0.3840306133977697 0
vn -0.07991313757148193 0.9968018310795187 0
vn -0.07991313757148193 0.9968018310795187 0
vn -0.07991313757148193 0.9968018310795187 0
vn -0.07991313757148193 0.9968018310795187 0
vn -0.07991313757148193 0.9968018310795187 0
vn -0.07991313757148193 0.9968018310795187 0
vn -0.6505565533366285 -0.759457813779519 0
vn -0.6505565533366285 -0.759457813779519 0
vn -0.6505565533366285 -0.759457813779519 0
vn -0.6505565533366285 -0.759457813779519 0
vn -0.6505565533366285 -0.759457813779519 0
vn -0.6505565533366285 -0.759457813779519 0
vn -0.9727094080612025 0.23202673869454157 0
vn -0.9727094080612025 0.23202673869454157 0
vn -0.9727094080612025 0.23202673869454157 0
vn -0.9727094080612025 0.23202673869454157 0
vn -0.9727094080612025 0.23202673869454157 0
vn -0.9727094080612025 0.23202673869454157 0
vn 0.521254248719018 -0.8534014343744519 0
vn 0.521254248719018 -0.8534014343744519 0
vn 0.521254248719018 -0.8534014343744519 0
vn 0.521254248719018 -0.8534014343744519 0
vn 0.521254248719018 -0.8534014343744519 0
vn 0.521254248719018 -0.8534014343744519 0
vn -0.521254248719018 -0.8534014343744519 0
vn -0.521254248719018 -0.8534014343744519 0
vn -0.521254248719018 -0.8534014343744519 0
vn -0.521254248719018 -0.8534014343744519 0
vn -0.521254248719018 -0.8534014343744519 0
vn -0.521254248719018 -0.8534014343744519 0
vn 0.9727094080612025 0.23202673869454157 0
vn 0.9727094080612025 0.23202673869454157 0
vn 0.9727094080612025 0.23202673869454157 0
vn 0.9727094080612025 0.23202673869454157 0
vn 0.9727094080612025 0.23202673869454157 0
vn 0.9727094080612025 0.23202673869454157 0
vn 0.6505565533366285 -0.759457813779519 0
vn 0.6505565533366285 -0.759457813779519 0
vn 0.6505565533366285 -0.759457813779519 0
vn 0.6505565533366285 -0.759457813779519 0
vn 0.6505565533366285 -0.759457813779519 0
vn 0.6505565533366285 -0.759457813779519 0
vn 0.07991313757148193 0.9968018310795187 0
vn 0.07991313757148193 0.9968018310795187 0
vn 0.07991313757148193 0.9968018310795187 0
vn 0.07991313757148193 0.9968018310795187 0
vn 0.07991313757148193 0.9968018310795187 0
vn 0.07991313757148193 0.9968018310795187 0
vn 0.9233203604239064 0.3840306133977697 0
vn 0.9233203604239064 0.3840306133977697 0
vn 0.9233203604239064 0.3840306133977697 0
vn 0.9233203604239064 0.3840306133977697 0
vn 0.9233203604239064 0.3840306133977697 0
vn 0.9233203604239064 0.3840306133977697 0
f 297/297/297 298/298/298 299/299/299
f 300/300/300 301/301/301 302/302/302
f 303/303/303 304/304/304 305/305/305
f 306/306/306 307/307/307 308/308/308
f 309/309/309 310/310/310 311/311/311
f 312/312/312 313/313/313 314/314/314
f 315/315/315 316/316/316 317/317/317
f 318/318/318 319/319/319 320/320/320
f 321/321/321 322/322/322 323/323/323
f 324/324/324 325/325/325 326/326/326
f 327/327/327 328/328/328 329/329/329
f 330/330/330 331/331/331 332/332/332
f 333/333/333 334/334/334 335/335/335
f 336/336/336 337/337/337 338/338/338
f 339/339/339 340/340/340 341/341/341
f 342/342/342 343/343/343 344/344/344
f 345/345/345 346/346/346 347/347/347
f 348/348/348 349/349/349 350/350/350
f 351/351/351 352/352/352 353/353/353
f 354/354/354 355/355/355 356/356/356
f 357/357/357 358/358/358 359/359/359
f 360/360/360 361/361/361 362/362/362
f 363/363/363 364/364/364 365/365/365
f 366/366/366 367/367/367 368/368/368
f 369/369/369 370/370/370 371/371/371
f 372/372/372 373/373/373 374/374/374
f 375/375/375 376/376/376 377/377/377
f 378/378/378 379/379/379 380/380/380
f 381/381/381 382/382/382 383/383/383
f 384/384/384 385/385/385 386/386/386
f 387/387/387 388/388/388 389/389/389
f 390/390/390 391/391/391 392/392/392
f 393/393/393 394/394/394 395/395/395
f 396/396/396 397/397/397 398/398/398
f 399/399/399 400/400/400 401/401/401
f 402/402/402 403/403/403 404/404/404
