mtllib lamp_post.mtl
o base
usemtl metal
v -0.2436874657869339 0.19819819927215576 0.23571428656578064
v -0.09494267404079437 0.19819819927215576 0.1906968653202057
v -0.003013327717781067 0.19819819927215576 0.07283972203731537
v -0.003013327717781067 0.19819819927215576 -0.07283972203731537
v -0.09494267404079437 0.19819819927215576 -0.1906968653202057
v -0.2436874657869339 0.19819819927215576 -0.23571428656578064
v -0.3924322724342346 0.19819819927215576 -0.1906968653202057
v -0.48436158895492554 0.19819819927215576 -0.07283972203731537
v -0.48436158895492554 0.19819819927215576 0.07283972203731537
v -0.3924322724342346 0.19819819927215576 0.1906968653202057
v -0.2436874657869339 0.19819819927215576 0.23571428656578064
v -0.2436874657869339 0 0.30000001192092896
v -0.05437590181827545 0 0.2427050918340683
v 0.06262506544589996 0 0.09270509332418442
v 0.06262506544589996 0 -0.09270509332418442
v -0.05437590181827545 0 -0.2427050918340683
v -0.2436874657869339 0 -0.30000001192092896
v -0.43299901485443115 0 -0.2427050918340683
v -0.550000011920929 0 -0.09270509332418442
v -0.550000011920929 0 0.09270509332418442
v -0.43299901485443115 0 0.2427050918340683
v -0.2436874657869339 0 0.30000001192092896
v -0.2436874657869339 0.19819819927215576 0
v -0.2436874657869339 0.19819819927215576 0
v -0.2436874657869339 0.19819819927215576 0
v -0.2436874657869339 0.19819819927215576 0
v -0.2436874657869339 0.19819819927215576 0
v -0.2436874657869339 0.19819819927215576 0
v -0.2436874657869339 0.19819819927215576 0
v -0.2436874657869339 0.19819819927215576 0
v -0.2436874657869339 0.19819819927215576 0
v -0.2436874657869339 0.19819819927215576 0
v -0.2436874657869339 0.19819819927215576 0.23571428656578064
v -0.09494267404079437 0.19819819927215576 0.1906968653202057
v -0.003013327717781067 0.19819819927215576 0.07283972203731537
v -0.003013327717781067 0.19819819927215576 -0.07283972203731537
v -0.09494267404079437 0.19819819927215576 -0.1906968653202057
v -0.2436874657869339 0.19819819927215576 -0.23571428656578064
v -0.3924322724342346 0.19819819927215576 -0.1906968653202057
v -0.48436158895492554 0.19819819927215576 -0.07283972203731537
v -0.48436158895492554 0.19819819927215576 0.07283972203731537
v -0.3924322724342346 0.19819819927215576 0.1906968653202057
v -0.2436874657869339 0.19819819927215576 0.23571428656578064
v -0.2436874657869339 0 0
v -0.2436874657869339 0 0
v -0.2436874657869339 0 0
v -0.2436874657869339 0 0
v -0.2436874657869339 0 0
v -0.2436874657869339 0 0
v -0.2436874657869339 0 0
v -0.2436874657869339 0 0
v -0.2436874657869339 0 0
v -0.2436874657869339 0 0
v -0.2436874657869339 0 0.30000001192092896
v -0.05437590181827545 0 0.2427050918340683
v 0.06262506544589996 0 0.09270509332418442
v 0.06262506544589996 0 -0.09270509332418442
v -0.05437590181827545 0 -0.2427050918340683
v -0.2436874657869339 0 -0.30000001192092896
v -0.43299901485443115 0 -0.2427050918340683
v -0.550000011920929 0 -0.09270509332418442
v -0.550000011920929 0 0.09270509332418442
v -0.43299901485443115 0 0.2427050918340683
v -0.2436874657869339 0 0.30000001192092896
vt 0 1
vt 0.10000000149011612 1
vt 0.20000000298023224 1
vt 0.30000001192092896 1
vt 0.4000000059604645 1
vt 0.5 1
vt 0.6000000238418579 1
vt 0.699999988079071 1
vt 0.800000011920929 1
vt 0.8999999761581421 1
vt 1 1
vt 0 0
vt 0.10000000149011612 0
vt 0.20000000298023224 0
vt 0.30000001192092896 0
vt 0.4000000059604645 0
vt 0.5 0
vt 0.6000000238418579 0
vt 0.699999988079071 0
vt 0.800000011920929 0
vt 0.8999999761581421 0
vt 1 0
vt 0.5 0.5
vt 0.5 0.5
vt 0.5 0.5
vt 0.5 0.5
vt 0.5 0.5
vt 0.5 0.5
vt 0.5 0.5
vt 0.5 0.5
vt 0.5 0.5
vt 0.5 0.5
vt 1 0.5
vt 0.9045084714889526 0.7938926219940186
vt 0.6545084714889526 0.9755282402038574
vt 0.345491498708725 0.9755282402038574
vt 0.09549150615930557 0.7938926219940186
vt 0 0.5
vt 0.09549150615930557 0.20610737800598145
vt 0.345491498708725 0.024471741169691086
vt 0.6545084714889526 0.024471741169691086
vt 0.9045084714889526 0.20610737800598145
vt 1 0.5
vt 0.5 0.5
vt 0.5 0.5
vt 0.5 0.5
vt 0.5 0.5
vt 0.5 0.5
vt 0.5 0.5
vt 0.5 0.5
vt 0.5 0.5
vt 0.5 0.5
vt 0.5 0.5
vt 1 0.5
vt 0.9045084714889526 0.20610737800598145
vt 0.6545084714889526 0.024471741169691086
vt 0.345491498708725 0.024471741169691086
vt 0.09549150615930557 0.20610737800598145
vt 0 0.5
vt 0.09549150615930557 0.7938926219940186
vt 0.345491498708725 0.9755282402038574
vt 0.6545084714889526 0.9755282402038574
vt 0.9045084714889526 0.7938926219940186
vt 1 0.5
vn 0 0.30852735803696507 0.9512154694614309
vn 0.5319101369084642 0.315116802080629 0.7859853734647335
vn 0.8923807750666015 0.3267351392759082 0.3112887743782041
vn 0.8923807750666015 0.3267351392759082 -0.3112887743782041
vn 0.5319101369084642 0.315116802080629 -0.7859853734647335
vn 1.0850570407856586e-16 0.30852735803696507 -0.9512154694614309
vn -0.5319101369084642 0.315116802080629 -0.7859853734647335
vn -0.8923807750666015 0.3267351392759082 -0.3112887743782041
vn -0.8923807750666015 0.3267351392759082 0.3112887743782041
vn -0.5319101369084642 0.315116802080629 0.7859853734647335
vn -2.1701140815713173e-16 0.30852735803696507 0.9512154694614309
vn 0 0.30852735803696507 0.9512154694614309
vn 0.5319101369084642 0.315116802080629 0.7859853734647335
vn 0.8923807750666015 0.3267351392759082 0.3112887743782041
vn 0.8923807750666015 0.3267351392759082 -0.3112887743782041
vn 0.5319101369084642 0.315116802080629 -0.7859853734647335
vn 1.0850570407856586e-16 0.30852735803696507 -0.9512154694614309
vn -0.5319101369084642 0.315116802080629 -0.7859853734647335
vn -0.8923807750666015 0.3267351392759082 -0.3112887743782041
vn -0.8923807750666015 0.3267351392759082 0.3112887743782041
vn -0.5319101369084642 0.315116802080629 0.7859853734647335
vn -2.1701140815713173e-16 0.30852735803696507 0.9512154694614309
vn 0 1 0
vn 0 1 0
vn 0 1 0
vn 0 1 0
vn 0 1 0
vn 0 1 0
vn 0 1 0
vn 0 1 0
vn 0 1 0
vn 0 1 0
vn 0 1 0
vn 0 1 0
vn 0 1 0
vn 0 1 0
vn 0 1 0
vn 0 1 0
vn 0 1 0
vn 0 1 0
vn 0 1 0
vn 0 1 0
vn 0 1 0
vn 0 -1 0
vn 0 -1 0
vn 0 -1 0
vn 0 -1 0
vn 0 -1 0
vn 0 -1 0
vn 0 -1 0
vn 0 -1 0
vn 0 -1 0
vn 0 -1 0
vn 0 -1 0
vn 0 -1 0
vn 0 -1 0
vn 0 -1 0
vn 0 -1 0
vn 0 -1 0
vn 0 -1 0
vn 0 -1 0
vn 0 -1 0
vn 0 -1 0
vn 0 -1 0
f 1/1/1 12/12/12 2/2/2
f 12/12/12 13/13/13 2/2/2
f 2/2/2 13/13/13 3/3/3
f 13/13/13 14/14/14 3/3/3
f 3/3/3 14/14/14 4/4/4
f 14/14/14 15/15/15 4/4/4
f 4/4/4 15/15/15 5/5/5
f 15/15/15 16/16/16 5/5/5
f 5/5/5 16/16/16 6/6/6
f 16/16/16 17/17/17 6/6/6
f 6/6/6 17/17/17 7/7/7
f 17/17/17 18/18/18 7/7/7
f 7/7/7 18/18/18 8/8/8
f 18/18/18 19/19/19 8/8/8
f 8/8/8 19/19/19 9/9/9
f 19/19/19 20/20/20 9/9/9
f 9/9/9 20/20/20 10/10/10
f 20/20/20 21/21/21 10/10/10
f 10/10/10 21/21/21 11/11/11
f 21/21/21 22/22/22 11/11/11
f 33/33/33 34/34/34 23/23/23
f 34/34/34 35/35/35 24/24/24
f 35/35/35 36/36/36 25/25/25
f 36/36/36 37/37/37 26/26/26
f 37/37/37 38/38/38 27/27/27
f 38/38/38 39/39/39 28/28/28
f 39/39/39 40/40/40 29/29/29
f 40/40/40 41/41/41 30/30/30
f 41/41/41 42/42/42 31/31/31
f 42/42/42 43/43/43 32/32/32
f 55/55/55 54/54/54 44/44/44
f 56/56/56 55/55/55 45/45/45
f 57/57/57 56/56/56 46/46/46
f 58/58/58 57/57/57 47/47/47
f 59/59/59 58/58/58 48/48/48
f 60/60/60 59/59/59 49/49/49
f 61/61/61 60/60/60 50/50/50
f 62/62/62 61/61/61 51/51/51
f 63/63/63 62/62/62 52/52/52
f 64/64/64 63/63/63 53/53/53
o pole
usemtl metal
v -0.2436874657869339 3.116666793823242 0.0803571492433548
v -0.19297900795936584 3.116666793823242 0.06501029431819916
v -0.16163946688175201 3.116666793823242 0.024831723421812057
v -0.16163946688175201 3.116666793823242 -0.024831723421812057
v -0.19297900795936584 3.116666793823242 -0.06501029431819916
v -0.2436874657869339 3.116666793823242 -0.0803571492433548
v -0.29439592361450195 3.116666793823242 -0.06501029431819916
v -0.3257354497909546 3.116666793823242 -0.024831723421812057
v -0.3257354497909546 3.116666793823242 0.024831723421812057
v -0.29439592361450195 3.116666793823242 0.06501029431819916
v -0.2436874657869339 3.116666793823242 0.0803571492433548
v -0.2436874657869339 0.19324322044849396 0.10178571194410324
v -0.17945675551891327 0.19324322044849396 0.0823463723063469
v -0.13975998759269714 0.19324322044849396 0.03145351633429527
v -0.13975998759269714 0.19324322044849396 -0.03145351633429527
v -0.17945675551891327 0.19324322044849396 -0.0823463723063469
v -0.2436874657869339 0.19324322044849396 -0.10178571194410324
v -0.3079181909561157 0.19324322044849396 -0.0823463723063469
v -0.34761494398117065 0.19324322044849396 -0.03145351633429527
v -0.34761494398117065 0.19324322044849396 0.03145351633429527
v -0.3079181909561157 0.19324322044849396 0.0823463723063469
v -0.2436874657869339 0.19324322044849396 0.10178571194410324
v -0.2436874657869339 3.116666793823242 0
v -0.2436874657869339 3.116666793823242 0
v -0.2436874657869339 3.116666793823242 0
v -0.2436874657869339 3.116666793823242 0
v -0.2436874657869339 3.116666793823242 0
v -0.2436874657869339 3.116666793823242 0
v -0.2436874657869339 3.116666793823242 0
v -0.2436874657869339 3.116666793823242 0
v -0.2436874657869339 3.116666793823242 0
v -0.2436874657869339 3.116666793823242 0
v -0.2436874657869339 3.116666793823242 0.0803571492433548
v -0.19297900795936584 3.116666793823242 0.06501029431819916
v -0.16163946688175201 3.116666793823242 0.024831723421812057
v -0.16163946688175201 3.116666793823242 -0.024831723421812057
v -0.19297900795936584 3.116666793823242 -0.06501029431819916
v -0.2436874657869339 3.116666793823242 -0.0803571492433548
v -0.29439592361450195 3.116666793823242 -0.06501029431819916
v -0.3257354497909546 3.116666793823242 -0.024831723421812057
v -0.3257354497909546 3.116666793823242 0.024831723421812057
v -0.29439592361450195 3.116666793823242 0.06501029431819916
v -0.2436874657869339 3.116666793823242 0.0803571492433548
v -0.2436874657869339 0.19324322044849396 0
v -0.2436874657869339 0.19324322044849396 0
v -0.2436874657869339 0.19324322044849396 0
v -0.2436874657869339 0.19324322044849396 0
v -0.2436874657869339 0.19324322044849396 0
v -0.2436874657869339 0.19324322044849396 0
v -0.2436874657869339 0.19324322044849396 0
v -0.2436874657869339 0.19324322044849396 0
v -0.2436874657869339 0.19324322044849396 0
v -0.2436874657869339 0.19324322044849396 0
v -0.2436874657869339 0.19324322044849396 0.10178571194410324
v -0.17945675551891327 0.19324322044849396 0.0823463723063469
v -0.13975998759269714 0.19324322044849396 0.03145351633429527
v -0.13975998759269714 0.19324322044849396 -0.03145351633429527
v -0.17945675551891327 0.19324322044849396 -0.0823463723063469
v -0.2436874657869339 0.19324322044849396 -0.10178571194410324
v -0.3079181909561157 0.19324322044849396 -0.0823463723063469
v -0.34761494398117065 0.19324322044849396 -0.03145351633429527
v -0.34761494398117065 0.19324322044849396 0.03145351633429527
v -0.3079181909561157 0.19324322044849396 0.0823463723063469
v -0.2436874657869339 0.19324322044849396 0.10178571194410324
vt 0 1
vt 0.10000000149011612 1
vt 0.20000000298023224 1
vt 0.30000001192092896 1
vt 0.4000000059604645 1
vt 0.5 1
vt 0.6000000238418579 1
vt 0.699999988079071 1
vt 0.800000011920929 1
vt 0.8999999761581421 1
vt 1 1
vt 0 0
vt 0.10000000149011612 0
vt 0.20000000298023224 0
vt 0.30000001192092896 0
vt 0.4000000059604645 0
vt 0.5 0
vt 0.6000000238418579 0
vt 0.699999988079071 0
vt 0.800000011920929 0
vt 0.8999999761581421 0
vt 1 0
vt 0.5 0.5
vt 0.5 0.5
vt 0.5 0.5
vt 0.5 0.5
vt 0.5 0.5
vt 0.5 0.5
vt 0.5 0.5
vt 0.5 0.5
vt 0.5 0.5
vt 0.5 0.5
vt 1 0.5
vt 0.9045084714889526 0.7938926219940186
vt 0.6545084714889526 0.9755282402038574
vt 0.345491498708725 0.9755282402038574
vt 0.09549150615930557 0.7938926219940186
vt 0 0.5
vt 0.09549150615930557 0.20610737800598145
vt 0.345491498708725 0.024471741169691086
vt 0.6545084714889526 0.024471741169691086
vt 0.9045084714889526 0.20610737800598145
vt 1 0.5
vt 0.5 0.5
vt 0.5 0.5
vt 0.5 0.5
vt 0.5 0.5
vt 0.5 0.5
vt 0.5 0.5
vt 0.5 0.5
vt 0.5 0.5
vt 0.5 0.5
vt 0.5 0.5
vt 1 0.5
vt 0.9045084714889526 0.20610737800598145
vt 0.6545084714889526 0.024471741169691086
vt 0.345491498708725 0.024471741169691086
vt 0.09549150615930557 0.20610737800598145
vt 0 0.5
vt 0.09549150615930557 0.7938926219940186
vt 0.345491498708725 0.9755282402038574
vt 0.6545084714889526 0.9755282402038574
vt 0.9045084714889526 0.7938926219940186
vt 1 0.5
vn 0 0.007329761652867558 0.999973136936244
vn 0.5604484127021796 0.007503357777160087 0.8281553455250259
vn 0.9441736274435231 0.007812395637188696 0.32935562499302684
vn 0.9441736274435231 0.007812395637188696 -0.32935562499302684
vn 0.5604484127021796 0.007503357777160087 -0.8281553455250259
vn 1.1406752038204622e-16 0.007329761652867558 -0.999973136936244
vn -0.5604484127021796 0.007503357777160087 -0.8281553455250259
vn -0.9441736274435231 0.007812395637188696 -0.32935562499302684
vn -0.9441736274435231 0.007812395637188696 0.32935562499302684
vn -0.5604484127021796 0.007503357777160087 0.8281553455250259
vn -2.2813504076409245e-16 0.007329761652867558 0.999973136936244
vn 0 0.007329761652867558 0.999973136936244
vn 0.5604484127021796 0.007503357777160087 0.8281553455250259
vn 0.9441736274435231 0.007812395637188696 0.32935562499302684
vn 0.9441736274435231 0.007812395637188696 -0.32935562499302684
vn 0.5604484127021796 0.007503357777160087 -0.8281553455250259
vn 1.1406752038204622e-16 0.007329761652867558 -0.999973136936244
vn -0.5604484127021796 0.007503357777160087 -0.8281553455250259
vn -0.9441736274435231 0.007812395637188696 -0.32935562499302684
vn -0.9441736274435231 0.007812395637188696 0.32935562499302684
vn -0.5604484127021796 0.007503357777160087 0.8281553455250259
vn -2.2813504076409245e-16 0.007329761652867558 0.999973136936244
vn 0 1 0
vn 0 1 0
vn 0 1 0
vn 0 1 0
vn 0 1 0
vn 0 1 0
vn 0 1 0
vn 0 1 0
vn 0 1 0
vn 0 1 0
vn 0 1 0
vn 0 1 0
vn 0 1 0
vn 0 1 0
vn 0 1 0
vn 0 1 0
vn 0 1 0
vn 0 1 0
vn 0 1 0
vn 0 1 0
vn 0 1 0
vn 0 -1 0
vn 0 -1 0
vn 0 -1 0
vn 0 -1 0
vn 0 -1 0
vn 0 -1 0
vn 0 -1 0
vn 0 -1 0
vn 0 -1 0
vn 0 -1 0
vn 0 -1 0
vn 0 -1 0
vn 0 -1 0
vn 0 -1 0
vn 0 -1 0
vn 0 -1 0
vn 0 -1 0
vn 0 -1 0
vn 0 -1 0
vn 0 -1 0
vn 0 -1 0
f 65/65/65 76/76/76 66/66/66
f 76/76/76 77/77/77 66/66/66
f 66/66/66 77/77/77 67/67/67
f 77/77/77 78/78/78 67/67/67
f 67/67/67 78/78/78 68/68/68
f 78/78/78 79/79/79 68/68/68
f 68/68/68 79/79/79 69/69/69
f 79/79/79 80/80/80 69/69/69
f 69/69/69 80/80/80 70/70/70
f 80/80/80 81/81/81 70/70/70
f 70/70/70 81/81/81 71/71/71
f 81/81/81 82/82/82 71/71/71
f 71/71/71 82/82/82 72/72/72
f 82/82/82 83/83/83 72/72/72
f 72/72/72 83/83/83 73/73/73
f 83/83/83 84/84/84 73/73/73
f 73/73/73 84/84/84 74/74/74
f 84/84/84 85/85/85 74/74/74
f 74/74/74 85/85/85 75/75/75
f 85/85/85 86/86/86 75/75/75
f 97/97/97 98/98/98 87/87/87
f 98/98/98 99/99/99 88/88/88
f 99/99/99 100/100/100 89/89/89
f 100/100/100 101/101/101 90/90/90
f 101/101/101 102/102/102 91/91/91
f 102/102/102 103/103/103 92/92/92
f 103/103/103 104/104/104 93/93/93
f 104/104/104 105/105/105 94/94/94
f 105/105/105 106/106/106 95/95/95
f 106/106/106 107/107/107 96/96/96
f 119/119/119 118/118/118 108/108/108
f 120/120/120 119/119/119 109/109/109
f 121/121/121 120/120/120 110/110/110
f 122/122/122 121/121/121 111/111/111
f 123/123/123 122/122/122 112/112/112
f 124/124/124 123/123/123 113/113/113
f 125/125/125 124/124/124 114/114/114
f 126/126/126 125/125/125 115/115/115
f 127/127/127 126/126/126 116/116/116
f 128/128/128 127/127/127 117/117/117
o pole_ring
usemtl gold
v -0.2436874657869339 0.6738739013671875 0.11785714328289032
v -0.16931506991386414 0.6738739013671875 0.09534843266010284
v -0.12335039675235748 0.6738739013671875 0.036419861018657684
v -0.12335039675235748 0.6738739013671875 -0.036419861018657684
v -0.16931506991386414 0.6738739013671875 -0.09534843266010284
v -0.2436874657869339 0.6738739013671875 -0.11785714328289032
v -0.31805986166000366 0.6738739013671875 -0.09534843266010284
v -0.3640245199203491 0.6738739013671875 -0.036419861018657684
v -0.3640245199203491 0.6738739013671875 0.036419861018657684
v -0.31805986166000366 0.6738739013671875 0.09534843266010284
v -0.2436874657869339 0.6738739013671875 0.11785714328289032
v -0.2436874657869339 0.5549549460411072 0.11785714328289032
v -0.16931506991386414 0.5549549460411072 0.09534843266010284
v -0.12335039675235748 0.5549549460411072 0.036419861018657684
v -0.12335039675235748 0.5549549460411072 -0.036419861018657684
v -0.16931506991386414 0.5549549460411072 -0.09534843266010284
v -0.2436874657869339 0.5549549460411072 -0.11785714328289032
v -0.31805986166000366 0.5549549460411072 -0.09534843266010284
v -0.3640245199203491 0.5549549460411072 -0.036419861018657684
v -0.3640245199203491 0.5549549460411072 0.036419861018657684
v -0.31805986166000366 0.5549549460411072 0.09534843266010284
v -0.2436874657869339 0.5549549460411072 0.11785714328289032
v -0.2436874657869339 0.6738739013671875 0
v -0.2436874657869339 0.6738739013671875 0
v -0.2436874657869339 0.6738739013671875 0
v -0.2436874657869339 0.6738739013671875 0
v -0.2436874657869339 0.6738739013671875 0
v -0.2436874657869339 0.6738739013671875 0
v -0.2436874657869339 0.6738739013671875 0
v -0.2436874657869339 0.6738739013671875 0
v -0.2436874657869339 0.6738739013671875 0
v -0.2436874657869339 0.6738739013671875 0
v -0.2436874657869339 0.6738739013671875 0.11785714328289032
v -0.16931506991386414 0.6738739013671875 0.09534843266010284
v -0.12335039675235748 0.6738739013671875 0.036419861018657684
v -0.12335039675235748 0.6738739013671875 -0.036419861018657684
v -0.16931506991386414 0.6738739013671875 -0.09534843266010284
v -0.2436874657869339 0.6738739013671875 -0.11785714328289032
v -0.31805986166000366 0.6738739013671875 -0.09534843266010284
v -0.3640245199203491 0.6738739013671875 -0.036419861018657684
v -0.3640245199203491 0.6738739013671875 0.036419861018657684
v -0.31805986166000366 0.6738739013671875 0.09534843266010284
v -0.2436874657869339 0.6738739013671875 0.11785714328289032
v -0.2436874657869339 0.5549549460411072 0
v -0.2436874657869339 0.5549549460411072 0
v -0.2436874657869339 0.5549549460411072 0
v -0.2436874657869339 0.5549549460411072 0
v -0.2436874657869339 0.5549549460411072 0
v -0.2436874657869339 0.5549549460411072 0
v -0.2436874657869339 0.5549549460411072 0
v -0.2436874657869339 0.5549549460411072 0
v -0.2436874657869339 0.5549549460411072 0
v -0.2436874657869339 0.5549549460411072 0
v -0.2436874657869339 0.5549549460411072 0.11785714328289032
v -0.16931506991386414 0.5549549460411072 0.09534843266010284
v -0.12335039675235748 0.5549549460411072 0.036419861018657684
v -0.12335039675235748 0.5549549460411072 -0.036419861018657684
v -0.16931506991386414 0.5549549460411072 -0.09534843266010284
v -0.2436874657869339 0.5549549460411072 -0.11785714328289032
v -0.31805986166000366 0.5549549460411072 -0.09534843266010284
v -0.3640245199203491 0.5549549460411072 -0.036419861018657684
v -0.3640245199203491 0.5549549460411072 0.036419861018657684
v -0.31805986166000366 0.5549549460411072 0.09534843266010284
v -0.2436874657869339 0.5549549460411072 0.11785714328289032
vt 0 1
vt 0.10000000149011612 1
vt 0.20000000298023224 1
vt 0.30000001192092896 1
vt 0.4000000059604645 1
vt 0.5 1
vt 0.6000000238418579 1
vt 0.699999988079071 1
vt 0.800000011920929 1
vt 0.8999999761581421 1
vt 1 1
vt 0 0
vt 0.10000000149011612 0
vt 0.20000000298023224 0
vt 0.30000001192092896 0
vt 0.4000000059604645 0
vt 0.5 0
vt 0.6000000238418579 0
vt 0.699999988079071 0
vt 0.800000011920929 0
vt 0.8999999761581421 0
vt 1 0
vt 0.5 0.5
vt 0.5 0.5
vt 0.5 0.5
vt 0.5 0.5
vt 0.5 0.5
vt 0.5 0.5
vt 0.5 0.5
vt 0.5 0.5
vt 0.5 0.5
vt 0.5 0.5
vt 1 0.5
vt 0.9045084714889526 0.7938926219940186
vt 0.6545084714889526 0.9755282402038574
vt 0.345491498708725 0.9755282402038574
vt 0.09549150615930557 0.7938926219940186
vt 0 0.5
vt 0.09549150615930557 0.20610737800598145
vt 0.345491498708725 0.024471741169691086
vt 0.6545084714889526 0.024471741169691086
vt 0.9045084714889526 0.20610737800598145
vt 1 0.5
vt 0.5 0.5
vt 0.5 0.5
vt 0.5 0.5
vt 0.5 0.5
vt 0.5 0.5
vt 0.5 0.5
vt 0.5 0.5
vt 0.5 0.5
vt 0.5 0.5
vt 0.5 0.5
vt 1 0.5
vt 0.9045084714889526 0.20610737800598145
vt 0.6545084714889526 0.024471741169691086
vt 0.345491498708725 0.024471741169691086
vt 0.09549150615930557 0.20610737800598145
vt 0 0.5
vt 0.09549150615930557 0.7938926219940186
vt 0.345491498708725 0.9755282402038574
vt 0.6545084714889526 0.9755282402038574
vt 0.9045084714889526 0.7938926219940186
vt 1 0.5
vn 0 0 1
vn 0.5604642061819615 0 0.8281786483536169
vn 0.9442024323325207 0 0.32936570370539703
vn 0.9442024323325207 0 -0.32936570370539703
vn 0.5604642061819615 0 -0.8281786483536169
vn 1.1407058875122667e-16 0 -1
vn -0.5604642061819615 0 -0.8281786483536169
vn -0.9442024323325207 0 -0.32936570370539703
vn -0.9442024323325207 0 0.32936570370539703
vn -0.5604642061819615 0 0.8281786483536169
vn -2.2814117750245334e-16 0 1
vn 0 0 1
vn 0.5604642061819615 0 0.8281786483536169
vn 0.9442024323325207 0 0.32936570370539703
vn 0.9442024323325207 0 -0.32936570370539703
vn 0.5604642061819615 0 -0.8281786483536169
vn 1.1407058875122667e-16 0 -1
vn -0.5604642061819615 0 -0.8281786483536169
vn -0.9442024323325207 0 -0.32936570370539703
vn -0.9442024323325207 0 0.32936570370539703
vn -0.5604642061819615 0 0.8281786483536169
vn -2.2814117750245334e-16 0 1
vn 0 1 0
vn 0 1 0
vn 0 1 0
vn 0 1 0
vn 0 1 0
vn 0 1 0
vn 0 1 0
vn 0 1 0
vn 0 1 0
vn 0 1 0
vn 0 1 0
vn 0 1 0
vn 0 1 0
vn 0 1 0
vn 0 1 0
vn 0 1 0
vn 0 1 0
vn 0 1 0
vn 0 1 0
vn 0 1 0
vn 0 1 0
vn 0 -1 0
vn 0 -1 0
vn 0 -1 0
vn 0 -1 0
vn 0 -1 0
vn 0 -1 0
vn 0 -1 0
vn 0 -1 0
vn 0 -1 0
vn 0 -1 0
vn 0 -1 0
vn 0 -1 0
vn 0 -1 0
vn 0 -1 0
vn 0 -1 0
vn 0 -1 0
vn 0 -1 0
vn 0 -1 0
vn 0 -1 0
vn 0 -1 0
vn 0 -1 0
f 129/129/129 140/140/140 130/130/130
f 140/140/140 141/141/141 130/130/130
f 130/130/130 141/141/141 131/131/131
f 141/141/141 142/142/142 131/131/131
f 131/131/131 142/142/142 132/132/132
f 142/142/142 143/143/143 132/132/132
f 132/132/132 143/143/143 133/133/133
f 143/143/143 144/144/144 133/133/133
f 133/133/133 144/144/144 134/134/134
f 144/144/144 145/145/145 134/134/134
f 134/134/134 145/145/145 135/135/135
f 145/145/145 146/146/146 135/135/135
f 135/135/135 146/146/146 136/136/136
f 146/146/146 147/147/147 136/136/136
f 136/136/136 147/147/147 137/137/137
f 147/147/147 148/148/148 137/137/137
f 137/137/137 148/148/148 138/138/138
f 148/148/148 149/149/149 138/138/138
f 138/138/138 149/149/149 139/139/139
f 149/149/149 150/150/150 139/139/139
f 161/161/161 162/162/162 151/151/151
f 162/162/162 163/163/163 152/152/152
f 163/163/163 164/164/164 153/153/153
f 164/164/164 165/165/165 154/154/154
f 165/165/165 166/166/166 155/155/155
f 166/166/166 167/167/167 156/156/156
f 167/167/167 168/168/168 157/157/157
f 168/168/168 169/169/169 158/158/158
f 169/169/169 170/170/170 159/159/159
f 170/170/170 171/171/171 160/160/160
f 183/183/183 182/182/182 172/172/172
f 184/184/184 183/183/183 173/173/173
f 185/185/185 184/184/184 174/174/174
f 186/186/186 185/185/185 175/175/175
f 187/187/187 186/186/186 176/176/176
f 188/188/188 187/187/187 177/177/177
f 189/189/189 188/188/188 178/178/178
f 190/190/190 189/189/189 179/179/179
f 191/191/191 190/190/190 180/180/180
f 192/192/192 191/191/191 181/181/181
o arm
usemtl metal
v -0.2666928768157959 2.992792844772339 -0.03214285522699356
v -0.2666928768157959 3.0522522926330566 0.03214285522699356
v -0.2666928768157959 3.0522522926330566 -0.03214285522699356
v -0.2666928768157959 2.992792844772339 -0.03214285522699356
v -0.2666928768157959 2.992792844772339 0.03214285522699356
v -0.2666928768157959 3.0522522926330566 0.03214285522699356
v 0.4004647135734558 2.992792844772339 -0.03214285522699356
v 0.4004647135734558 3.0522522926330566 -0.03214285522699356
v 0.4004647135734558 3.0522522926330566 0.03214285522699356
v 0.4004647135734558 2.992792844772339 -0.03214285522699356
v 0.4004647135734558 3.0522522926330566 0.03214285522699356
v 0.4004647135734558 2.992792844772339 0.03214285522699356
v -0.2436874806880951 2.972973108291626 -0.03214285522699356
v 0.3774592876434326 2.972973108291626 -0.03214285522699356
v 0.3774592876434326 2.972973108291626 0.03214285522699356
v -0.2436874806880951 2.972973108291626 -0.03214285522699356
v 0.3774592876434326 2.972973108291626 0.03214285522699356
v -0.2436874806880951 2.972973108291626 0.03214285522699356
v -0.2436874806880951 3.0720720291137695 -0.03214285522699356
v 0.3774592876434326 3.0720720291137695 0.03214285522699356
v 0.3774592876434326 3.0720720291137695 -0.03214285522699356
v -0.2436874806880951 3.0720720291137695 -0.03214285522699356
v -0.2436874806880951 3.0720720291137695 0.03214285522699356
v 0.3774592876434326 3.0720720291137695 0.03214285522699356
v -0.2436874806880951 2.992792844772339 -0.0535714291036129
v 0.3774592876434326 3.0522522926330566 -0.0535714291036129
v 0.3774592876434326 2.992792844772339 -0.0535714291036129
v -0.2436874806880951 2.992792844772339 -0.0535714291036129
v -0.2436874806880951 3.0522522926330566 -0.0535714291036129
v 0.3774592876434326 3.0522522926330566 -0.0535714291036129
v -0.2436874806880951 2.992792844772339 0.0535714291036129
v 0.3774592876434326 2.992792844772339 0.0535714291036129
v 0.3774592876434326 3.0522522926330566 0.0535714291036129
v -0.2436874806880951 2.992792844772339 0.0535714291036129
v 0.3774592876434326 3.0522522926330566 0.0535714291036129
v -0.2436874806880951 3.0522522926330566 0.0535714291036129
v -0.2666928768157959 2.992792844772339 -0.03214285522699356
v -0.2436874806880951 2.972973108291626 -0.03214285522699356
v -0.2436874806880951 2.972973108291626 0.03214285522699356
v -0.2666928768157959 2.992792844772339 -0.03214285522699356
v -0.2436874806880951 2.972973108291626 0.03214285522699356
v -0.2666928768157959 2.992792844772339 0.03214285522699356
v -0.2666928768157959 3.0522522926330566 -0.03214285522699356
v -0.2436874806880951 3.0720720291137695 0.03214285522699356
v -0.2436874806880951 3.0720720291137695 -0.03214285522699356
v -0.2666928768157959 3.0522522926330566 -0.03214285522699356
v -0.2666928768157959 3.0522522926330566 0.03214285522699356
v -0.2436874806880951 3.0720720291137695 0.03214285522699356
v 0.4004647135734558 2.992792844772339 -0.03214285522699356
v 0.3774592876434326 2.972973108291626 0.03214285522699356
v 0.3774592876434326 2.972973108291626 -0.03214285522699356
v 0.4004647135734558 2.992792844772339 -0.03214285522699356
v 0.4004647135734558 2.992792844772339 0.03214285522699356
v 0.3774592876434326 2.972973108291626 0.03214285522699356
v 0.4004647135734558 3.0522522926330566 -0.03214285522699356
v 0.3774592876434326 3.0720720291137695 -0.03214285522699356
v 0.3774592876434326 3.0720720291137695 0.03214285522699356
v 0.4004647135734558 3.0522522926330566 -0.03214285522699356
v 0.3774592876434326 3.0720720291137695 0.03214285522699356
v 0.4004647135734558 3.0522522926330566 0.03214285522699356
v -0.2666928768157959 2.992792844772339 -0.03214285522699356
v -0.2436874806880951 3.0522522926330566 -0.0535714291036129
v -0.2436874806880951 2.992792844772339 -0.0535714291036129
v -0.2666928768157959 2.992792844772339 -0.03214285522699356
v -0.2666928768157959 3.0522522926330566 -0.03214285522699356
v -0.2436874806880951 3.0522522926330566 -0.0535714291036129
v -0.2666928768157959 2.992792844772339 0.03214285522699356
v -0.2436874806880951 2.992792844772339 0.0535714291036129
v -0.2436874806880951 3.0522522926330566 0.0535714291036129
v -0.2666928768157959 2.992792844772339 0.03214285522699356
v -0.2436874806880951 3.0522522926330566 0.0535714291036129
v -0.2666928768157959 3.0522522926330566 0.03214285522699356
v 0.4004647135734558 2.992792844772339 -0.03214285522699356
v 0.3774592876434326 2.992792844772339 -0.0535714291036129
v 0.3774592876434326 3.0522522926330566 -0.0535714291036129
v 0.4004647135734558 2.992792844772339 -0.03214285522699356
v 0.3774592876434326 3.0522522926330566 -0.0535714291036129
v 0.4004647135734558 3.0522522926330566 -0.03214285522699356
v 0.4004647135734558 2.992792844772339 0.03214285522699356
v 0.3774592876434326 3.0522522926330566 0.0535714291036129
v 0.3774592876434326 2.992792844772339 0.0535714291036129
v 0.4004647135734558 2.992792844772339 0.03214285522699356
v 0.4004647135734558 3.0522522926330566 0.03214285522699356
v 0.3774592876434326 3.0522522926330566 0.0535714291036129
v -0.2436874806880951 2.972973108291626 -0.03214285522699356
v -0.2436874806880951 2.992792844772339 -0.0535714291036129
v 0.3774592876434326 2.992792844772339 -0.0535714291036129
v -0.2436874806880951 2.972973108291626 -0.03214285522699356
v 0.3774592876434326 2.992792844772339 -0.0535714291036129
v 0.3774592876434326 2.972973108291626 -0.03214285522699356
v -0.2436874806880951 2.972973108291626 0.03214285522699356
v 0.3774592876434326 2.992792844772339 0.0535714291036129
v -0.2436874806880951 2.992792844772339 0.0535714291036129
v -0.2436874806880951 2.972973108291626 0.03214285522699356
v 0.3774592876434326 2.972973108291626 0.03214285522699356
v 0.3774592876434326 2.992792844772339 0.0535714291036129
v -0.2436874806880951 3.0720720291137695 -0.03214285522699356
v 0.3774592876434326 3.0522522926330566 -0.0535714291036129
v -0.2436874806880951 3.0522522926330566 -0.0535714291036129
v -0.2436874806880951 3.0720720291137695 -0.03214285522699356
v 0.3774592876434326 3.0720720291137695 -0.03214285522699356
v 0.3774592876434326 3.0522522926330566 -0.0535714291036129
v -0.2436874806880951 3.0720720291137695 0.03214285522699356
v -0.2436874806880951 3.0522522926330566 0.0535714291036129
v 0.3774592876434326 3.0522522926330566 0.0535714291036129
v -0.2436874806880951 3.0720720291137695 0.03214285522699356
v 0.3774592876434326 3.0522522926330566 0.0535714291036129
v 0.3774592876434326 3.0720720291137695 0.03214285522699356
v -0.2666928768157959 2.992792844772339 -0.03214285522699356
v -0.2436874806880951 2.992792844772339 -0.0535714291036129
v -0.2436874806880951 2.972973108291626 -0.03214285522699356
v -0.2666928768157959 2.992792844772339 0.03214285522699356
v -0.2436874806880951 2.972973108291626 0.03214285522699356
v -0.2436874806880951 2.992792844772339 0.0535714291036129
v -0.2666928768157959 3.0522522926330566 -0.03214285522699356
v -0.2436874806880951 3.0720720291137695 -0.03214285522699356
v -0.2436874806880951 3.0522522926330566 -0.0535714291036129
v -0.2666928768157959 3.0522522926330566 0.03214285522699356
v -0.2436874806880951 3.0522522926330566 0.0535714291036129
v -0.2436874806880951 3.0720720291137695 0.03214285522699356
v 0.4004647135734558 2.992792844772339 -0.03214285522699356
v 0.3774592876434326 2.972973108291626 -0.03214285522699356
v 0.3774592876434326 2.992792844772339 -0.0535714291036129
v 0.4004647135734558 2.992792844772339 0.03214285522699356
v 0.3774592876434326 2.992792844772339 0.0535714291036129
v 0.3774592876434326 2.972973108291626 0.03214285522699356
v 0.4004647135734558 3.0522522926330566 -0.03214285522699356
v 0.3774592876434326 3.0522522926330566 -0.0535714291036129
v 0.3774592876434326 3.0720720291137695 -0.03214285522699356
v 0.4004647135734558 3.0522522926330566 0.03214285522699356
v 0.3774592876434326 3.0720720291137695 0.03214285522699356
v 0.3774592876434326 3.0522522926330566 0.0535714291036129
vn -1 0 0
vn -1 0 0
vn -1 0 0
vn -1 0 0
vn -1 0 0
vn -1 0 0
vn 1 0 0
vn 1 0 0
vn 1 0 0
vn 1 0 0
vn 1 0 0
vn 1 0 0
vn 0 -1 0
vn 0 -1 0
vn 0 -1 0
vn 0 -1 0
vn 0 -1 0
vn 0 -1 0
vn 0 1 0
vn 0 1 0
vn 0 1 0
vn 0 1 0
vn 0 1 0
vn 0 1 0
vn 0 0 -1
vn 0 0 -1
vn 0 0 -1
vn 0 0 -1
vn 0 0 -1
vn 0 0 -1
vn 0 0 1
vn 0 0 1
vn 0 0 1
vn 0 0 1
vn 0 0 1
vn 0 0 1
vn -0.6527047776233138 -0.7576123502608048 0
vn -0.6527047776233138 -0.7576123502608048 0
vn -0.6527047776233138 -0.7576123502608048 0
vn -0.6527047776233138 -0.7576123502608048 0
vn -0.6527047776233138 -0.7576123502608048 0
vn -0.6527047776233138 -0.7576123502608048 0
vn -0.6527047776233138 0.7576123502608048 0
vn -0.6527047776233138 0.7576123502608048 0
vn -0.6527047776233138 0.7576123502608048 0
vn -0.6527047776233138 0.7576123502608048 0
vn -0.6527047776233138 0.7576123502608048 0
vn -0.6527047776233138 0.7576123502608048 0
vn 0.6527047776233138 -0.7576123502608048 0
vn 0.6527047776233138 -0.7576123502608048 0
vn 0.6527047776233138 -0.7576123502608048 0
vn 0.6527047776233138 -0.7576123502608048 0
vn 0.6527047776233138 -0.7576123502608048 0
vn 0.6527047776233138 -0.7576123502608048 0
vn 0.6527047776233138 0.7576123502608048 0
vn 0.6527047776233138 0.7576123502608048 0
vn 0.6527047776233138 0.7576123502608048 0
vn 0.6527047776233138 0.7576123502608048 0
vn 0.6527047776233138 0.7576123502608048 0
vn 0.6527047776233138 0.7576123502608048 0
vn -0.6815845256845063 0 -0.7317393896377498
vn -0.6815845256845063 0 -0.7317393896377498
vn -0.6815845256845063 0 -0.7317393896377498
vn -0.6815845256845063 0 -0.7317393896377498
vn -0.6815845256845063 0 -0.7317393896377498
vn -0.6815845256845063 0 -0.7317393896377498
vn -0.6815845256845063 0 0.7317393896377498
vn -0.6815845256845063 0 0.7317393896377498
vn -0.6815845256845063 0 0.7317393896377498
vn -0.6815845256845063 0 0.7317393896377498
vn -0.6815845256845063 0 0.7317393896377498
vn -0.6815845256845063 0 0.7317393896377498
vn 0.6815845256845063 0 -0.7317393896377498
vn 0.6815845256845063 0 -0.7317393896377498
vn 0.6815845256845063 0 -0.7317393896377498
vn 0.6815845256845063 0 -0.7317393896377498
vn 0.6815845256845063 0 -0.7317393896377498
vn 0.6815845256845063 0 -0.7317393896377498
vn 0.6815845256845063 0 0.7317393896377498
vn 0.6815845256845063 0 0.7317393896377498
vn 0.6815845256845063 0 0.7317393896377498
vn 0.6815845256845063 0 0.7317393896377498
vn 0.6815845256845063 0 0.7317393896377498
vn 0.6815845256845063 0 0.7317393896377498
vn 0 -0.7341269091979692 -0.6790122835350157
vn 0 -0.7341269091979692 -0.6790122835350157
vn 0 -0.7341269091979692 -0.6790122835350157
vn 0 -0.7341269091979692 -0.6790122835350157
vn 0 -0.7341269091979692 -0.6790122835350157
vn 0 -0.7341269091979692 -0.6790122835350157
vn 0 -0.7341269091979692 0.6790122835350157
vn 0 -0.7341269091979692 0.6790122835350157
vn 0 -0.7341269091979692 0.6790122835350157
vn 0 -0.7341269091979692 0.6790122835350157
vn 0 -0.7341269091979692 0.6790122835350157
vn 0 -0.7341269091979692 0.6790122835350157
vn 0 0.7341269091979692 -0.6790122835350157
vn 0 0.7341269091979692 -0.6790122835350157
vn 0 0.7341269091979692 -0.6790122835350157
vn 0 0.7341269091979692 -0.6790122835350157
vn 0 0.7341269091979692 -0.6790122835350157
vn 0 0.7341269091979692 -0.6790122835350157
vn 0 0.7341269091979692 0.6790122835350157
vn 0 0.7341269091979692 0.6790122835350157
vn 0 0.7341269091979692 0.6790122835350157
vn 0 0.7341269091979692 0.6790122835350157
vn 0 0.7341269091979692 0.6790122835350157
vn 0 0.7341269091979692 0.6790122835350157
vn -0.5345320694342236 -0.6204460254828993 -0.5738660089331304
vn -0.5345320694342236 -0.6204460254828993 -0.5738660089331304
vn -0.5345320694342236 -0.6204460254828993 -0.5738660089331304
vn -0.5345320694342236 -0.6204460254828993 0.5738660089331304
vn -0.5345320694342236 -0.6204460254828993 0.5738660089331304
vn -0.5345320694342236 -0.6204460254828993 0.5738660089331304
vn -0.5345320694342236 0.6204460254828993 -0.5738660089331304
vn -0.5345320694342236 0.6204460254828993 -0.5738660089331304
vn -0.5345320694342236 0.6204460254828993 -0.5738660089331304
vn -0.5345320694342236 0.6204460254828993 0.5738660089331304
vn -0.5345320694342236 0.6204460254828993 0.5738660089331304
vn -0.5345320694342236 0.6204460254828993 0.5738660089331304
vn 0.5345320694342236 -0.6204460254828993 -0.5738660089331304
vn 0.5345320694342236 -0.6204460254828993 -0.5738660089331304
vn 0.5345320694342236 -0.6204460254828993 -0.5738660089331304
vn 0.5345320694342236 -0.6204460254828993 0.5738660089331304
vn 0.5345320694342236 -0.6204460254828993 0.5738660089331304
vn 0.5345320694342236 -0.6204460254828993 0.5738660089331304
vn 0.5345320694342236 0.6204460254828993 -0.5738660089331304
vn 0.5345320694342236 0.6204460254828993 -0.5738660089331304
vn 0.5345320694342236 0.6204460254828993 -0.5738660089331304
vn 0.5345320694342236 0.6204460254828993 0.5738660089331304
vn 0.5345320694342236 0.6204460254828993 0.5738660089331304
vn 0.5345320694342236 0.6204460254828993 0.5738660089331304
f 193//193 194//194 195//195
f 196//196 197//197 198//198
f 199//199 200//200 201//201
f 202//202 203//203 204//204
f 205//205 206//206 207//207
f 208//208 209//209 210//210
f 211//211 212//212 213//213
f 214//214 215//215 216//216
f 217//217 218//218 219//219
f 220//220 221//221 222//222
f 223//223 224//224 225//225
f 226//226 227//227 228//228
f 229//229 230//230 231//231
f 232//232 233//233 234//234
f 235//235 236//236 237//237
f 238//238 239//239 240//240
f 241//241 242//242 243//243
f 244//244 245//245 246//246
f 247//247 248//248 249//249
f 250//250 251//251 252//252
f 253//253 254//254 255//255
f 256//256 257//257 258//258
f 259//259 260//260 261//261
f 262//262 263//263 264//264
f 265//265 266//266 267//267
f 268//268 269//269 270//270
f 271//271 272//272 273//273
f 274//274 275//275 276//276
f 277//277 278//278 279//279
f 280//280 281//281 282//282
f 283//283 284//284 285//285
f 286//286 287//287 288//288
f 289//289 290//290 291//291
f 292//292 293//293 294//294
f 295//295 296//296 297//297
f 298//298 299//299 300//300
f 301//301 302//302 303//303
f 304//304 305//305 306//306
f 307//307 308//308 309//309
f 310//310 311//311 312//312
f 313//313 314//314 315//315
f 316//316 317//317 318//318
f 319//319 320//320 321//321
f 322//322 323//323 324//324
o head
usemtl gold
v 0.14740492403507233 2.6657660007476807 -0.13928571343421936
v 0.14740492403507233 2.9630632400512695 0.13928571343421936
v 0.14740492403507233 2.9630632400512695 -0.13928571343421936
v 0.14740492403507233 2.6657660007476807 -0.13928571343421936
v 0.14740492403507233 2.6657660007476807 0.13928571343421936
v 0.14740492403507233 2.9630632400512695 0.13928571343421936
v 0.5154918432235718 2.6657660007476807 -0.13928571343421936
v 0.5154918432235718 2.9630632400512695 -0.13928571343421936
v 0.5154918432235718 2.9630632400512695 0.13928571343421936
v 0.5154918432235718 2.6657660007476807 -0.13928571343421936
v 0.5154918432235718 2.9630632400512695 0.13928571343421936
v 0.5154918432235718 2.6657660007476807 0.13928571343421936
v 0.18191306293010712 2.6360361576080322 -0.13928571343421936
v 0.4809836745262146 2.6360361576080322 -0.13928571343421936
v 0.4809836745262146 2.6360361576080322 0.13928571343421936
v 0.18191306293010712 2.6360361576080322 -0.13928571343421936
v 0.4809836745262146 2.6360361576080322 0.13928571343421936
v 0.18191306293010712 2.6360361576080322 0.13928571343421936
v 0.18191306293010712 2.992792844772339 -0.13928571343421936
v 0.4809836745262146 2.992792844772339 0.13928571343421936
v 0.4809836745262146 2.992792844772339 -0.13928571343421936
v 0.18191306293010712 2.992792844772339 -0.13928571343421936
v 0.18191306293010712 2.992792844772339 0.13928571343421936
v 0.4809836745262146 2.992792844772339 0.13928571343421936
v 0.18191306293010712 2.6657660007476807 -0.17142856121063232
v 0.4809836745262146 2.9630632400512695 -0.17142856121063232
v 0.4809836745262146 2.6657660007476807 -0.17142856121063232
v 0.18191306293010712 2.6657660007476807 -0.17142856121063232
v 0.18191306293010712 2.9630632400512695 -0.17142856121063232
v 0.4809836745262146 2.9630632400512695 -0.17142856121063232
v 0.18191306293010712 2.6657660007476807 0.17142856121063232
v 0.4809836745262146 2.6657660007476807 0.17142856121063232
v 0.4809836745262146 2.9630632400512695 0.17142856121063232
v 0.18191306293010712 2.6657660007476807 0.17142856121063232
v 0.4809836745262146 2.9630632400512695 0.17142856121063232
v 0.18191306293010712 2.9630632400512695 0.17142856121063232
v 0.14740492403507233 2.6657660007476807 -0.13928571343421936
v 0.18191306293010712 2.6360361576080322 -0.13928571343421936
v 0.18191306293010712 2.6360361576080322 0.13928571343421936
v 0.14740492403507233 2.6657660007476807 -0.13928571343421936
v 0.18191306293010712 2.6360361576080322 0.13928571343421936
v 0.14740492403507233 2.6657660007476807 0.13928571343421936
v 0.14740492403507233 2.9630632400512695 -0.13928571343421936
v 0.18191306293010712 2.992792844772339 0.13928571343421936
v 0.18191306293010712 2.992792844772339 -0.13928571343421936
v 0.14740492403507233 2.9630632400512695 -0.13928571343421936
v 0.14740492403507233 2.9630632400512695 0.13928571343421936
v 0.18191306293010712 2.992792844772339 0.13928571343421936
v 0.5154918432235718 2.6657660007476807 -0.13928571343421936
v 0.4809836745262146 2.6360361576080322 0.13928571343421936
v 0.4809836745262146 2.6360361576080322 -0.13928571343421936
v 0.5154918432235718 2.6657660007476807 -0.13928571343421936
v 0.5154918432235718 2.6657660007476807 0.13928571343421936
v 0.4809836745262146 2.6360361576080322 0.13928571343421936
v 0.5154918432235718 2.9630632400512695 -0.13928571343421936
v 0.4809836745262146 2.992792844772339 -0.13928571343421936
v 0.4809836745262146 2.992792844772339 0.13928571343421936
v 0.5154918432235718 2.9630632400512695 -0.13928571343421936
v 0.4809836745262146 2.992792844772339 0.13928571343421936
v 0.5154918432235718 2.9630632400512695 0.13928571343421936
v 0.14740492403507233 2.6657660007476807 -0.13928571343421936
v 0.18191306293010712 2.9630632400512695 -0.17142856121063232
v 0.18191306293010712 2.6657660007476807 -0.17142856121063232
v 0.14740492403507233 2.6657660007476807 -0.13928571343421936
v 0.14740492403507233 2.9630632400512695 -0.13928571343421936
v 0.18191306293010712 2.9630632400512695 -0.17142856121063232
v 0.14740492403507233 2.6657660007476807 0.13928571343421936
v 0.18191306293010712 2.6657660007476807 0.17142856121063232
v 0.18191306293010712 2.9630632400512695 0.17142856121063232
v 0.14740492403507233 2.6657660007476807 0.13928571343421936
v 0.18191306293010712 2.9630632400512695 0.17142856121063232
v 0.14740492403507233 2.9630632400512695 0.13928571343421936
v 0.5154918432235718 2.6657660007476807 -0.13928571343421936
v 0.4809836745262146 2.6657660007476807 -0.17142856121063232
v 0.4809836745262146 2.9630632400512695 -0.17142856121063232
v 0.5154918432235718 2.6657660007476807 -0.13928571343421936
v 0.4809836745262146 2.9630632400512695 -0.17142856121063232
v 0.5154918432235718 2.9630632400512695 -0.13928571343421936
v 0.5154918432235718 2.6657660007476807 0.13928571343421936
v 0.4809836745262146 2.9630632400512695 0.17142856121063232
v 0.4809836745262146 2.6657660007476807 0.17142856121063232
v 0.5154918432235718 2.6657660007476807 0.13928571343421936
v 0.5154918432235718 2.9630632400512695 0.13928571343421936
v 0.4809836745262146 2.9630632400512695 0.17142856121063232
v 0.18191306293010712 2.6360361576080322 -0.13928571343421936
v 0.18191306293010712 2.6657660007476807 -0.17142856121063232
v 0.4809836745262146 2.6657660007476807 -0.17142856121063232
v 0.18191306293010712 2.6360361576080322 -0.13928571343421936
v 0.4809836745262146 2.6657660007476807 -0.17142856121063232
v 0.4809836745262146 2.6360361576080322 -0.13928571343421936
v 0.18191306293010712 2.6360361576080322 0.13928571343421936
v 0.4809836745262146 2.6657660007476807 0.17142856121063232
v 0.18191306293010712 2.6657660007476807 0.17142856121063232
v 0.18191306293010712 2.6360361576080322 0.13928571343421936
v 0.4809836745262146 2.6360361576080322 0.13928571343421936
v 0.4809836745262146 2.6657660007476807 0.17142856121063232
v 0.18191306293010712 2.992792844772339 -0.13928571343421936
v 0.4809836745262146 2.9630632400512695 -0.17142856121063232
v 0.18191306293010712 2.9630632400512695 -0.17142856121063232
v 0.18191306293010712 2.992792844772339 -0.13928571343421936
v 0.4809836745262146 2.992792844772339 -0.13928571343421936
v 0.4809836745262146 2.9630632400512695 -0.17142856121063232
v 0.18191306293010712 2.992792844772339 0.13928571343421936
v 0.18191306293010712 2.9630632400512695 0.17142856121063232
v 0.4809836745262146 2.9630632400512695 0.17142856121063232
v 0.18191306293010712 2.992792844772339 0.13928571343421936
v 0.4809836745262146 2.9630632400512695 0.17142856121063232
v 0.4809836745262146 2.992792844772339 0.13928571343421936
v 0.14740492403507233 2.6657660007476807 -0.13928571343421936
v 0.18191306293010712 2.6657660007476807 -0.17142856121063232
v 0.18191306293010712 2.6360361576080322 -0.13928571343421936
v 0.14740492403507233 2.6657660007476807 0.13928571343421936
v 0.18191306293010712 2.6360361576080322 0.13928571343421936
v 0.18191306293010712 2.6657660007476807 0.17142856121063232
v 0.14740492403507233 2.9630632400512695 -0.13928571343421936
v 0.18191306293010712 2.992792844772339 -0.13928571343421936
v 0.18191306293010712 2.9630632400512695 -0.17142856121063232
v 0.14740492403507233 2.9630632400512695 0.13928571343421936
v 0.18191306293010712 2.9630632400512695 0.17142856121063232
v 0.18191306293010712 2.992792844772339 0.13928571343421936
v 0.5154918432235718 2.6657660007476807 -0.13928571343421936
v 0.4809836745262146 2.6360361576080322 -0.13928571343421936
v 0.4809836745262146 2.6657660007476807 -0.17142856121063232
v 0.5154918432235718 2.6657660007476807 0.13928571343421936
v 0.4809836745262146 2.6657660007476807 0.17142856121063232
v 0.4809836745262146 2.6360361576080322 0.13928571343421936
v 0.5154918432235718 2.9630632400512695 -0.13928571343421936
v 0.4809836745262146 2.9630632400512695 -0.17142856121063232
v 0.4809836745262146 2.992792844772339 -0.13928571343421936
v 0.5154918432235718 2.9630632400512695 0.13928571343421936
v 0.4809836745262146 2.992792844772339 0.13928571343421936
v 0.4809836745262146 2.9630632400512695 0.17142856121063232
vn -1 0 0
vn -1 0 0
vn -1 0 0
vn -1 0 0
vn -1 0 0
vn -1 0 0
vn 1 0 0
vn 1 0 0
vn 1 0 0
vn 1 0 0
vn 1 0 0
vn 1 0 0
vn 0 -1 0
vn 0 -1 0
vn 0 -1 0
vn 0 -1 0
vn 0 -1 0
vn 0 -1 0
vn 0 1 0
vn 0 1 0
vn 0 1 0
vn 0 1 0
vn 0 1 0
vn 0 1 0
vn 0 0 -1
vn 0 0 -1
vn 0 0 -1
vn 0 0 -1
vn 0 0 -1
vn 0 0 -1
vn 0 0 1
vn 0 0 1
vn 0 0 1
vn 0 0 1
vn 0 0 1
vn 0 0 1
vn -0.6527043612955867 -0.7576127089388879 0
vn -0.6527043612955867 -0.7576127089388879 0
vn -0.6527043612955867 -0.7576127089388879 0
vn -0.6527043612955867 -0.7576127089388879 0
vn -0.6527043612955867 -0.7576127089388879 0
vn -0.6527043612955867 -0.7576127089388879 0
vn -0.6527043612955867 0.7576127089388879 0
vn -0.6527043612955867 0.7576127089388879 0
vn -0.6527043612955867 0.7576127089388879 0
vn -0.6527043612955867 0.7576127089388879 0
vn -0.6527043612955867 0.7576127089388879 0
vn -0.6527043612955867 0.7576127089388879 0
vn 0.6527043612955867 -0.7576127089388879 0
vn 0.6527043612955867 -0.7576127089388879 0
vn 0.6527043612955867 -0.7576127089388879 0
vn 0.6527043612955867 -0.7576127089388879 0
vn 0.6527043612955867 -0.7576127089388879 0
vn 0.6527043612955867 -0.7576127089388879 0
vn 0.6527043612955867 0.7576127089388879 0
vn 0.6527043612955867 0.7576127089388879 0
vn 0.6527043612955867 0.7576127089388879 0
vn 0.6527043612955867 0.7576127089388879 0
vn 0.6527043612955867 0.7576127089388879 0
vn 0.6527043612955867 0.7576127089388879 0
vn -0.6815841239162407 0 -0.7317397638678184
vn -0.6815841239162407 0 -0.7317397638678184
vn -0.6815841239162407 0 -0.7317397638678184
vn -0.6815841239162407 0 -0.7317397638678184
vn -0.6815841239162407 0 -0.7317397638678184
vn -0.6815841239162407 0 -0.7317397638678184
vn -0.6815841239162407 0 0.7317397638678184
vn -0.6815841239162407 0 0.7317397638678184
vn -0.6815841239162407 0 0.7317397638678184
vn -0.6815841239162407 0 0.7317397638678184
vn -0.6815841239162407 0 0.7317397638678184
vn -0.6815841239162407 0 0.7317397638678184
vn 0.6815841239162407 0 -0.7317397638678184
vn 0.6815841239162407 0 -0.7317397638678184
vn 0.6815841239162407 0 -0.7317397638678184
vn 0.6815841239162407 0 -0.7317397638678184
vn 0.6815841239162407 0 -0.7317397638678184
vn 0.6815841239162407 0 -0.7317397638678184
vn 0.6815841239162407 0 0.7317397638678184
vn 0.6815841239162407 0 0.7317397638678184
vn 0.6815841239162407 0 0.7317397638678184
vn 0.6815841239162407 0 0.7317397638678184
vn 0.6815841239162407 0 0.7317397638678184
vn 0.6815841239162407 0 0.7317397638678184
vn 0 -0.7341269091979692 -0.6790122835350157
vn 0 -0.7341269091979692 -0.6790122835350157
vn 0 -0.7341269091979692 -0.6790122835350157
vn 0 -0.7341269091979692 -0.6790122835350157
vn 0 -0.7341269091979692 -0.6790122835350157
vn 0 -0.7341269091979692 -0.6790122835350157
vn 0 -0.7341269091979692 0.6790122835350157
vn 0 -0.7341269091979692 0.6790122835350157
vn 0 -0.7341269091979692 0.6790122835350157
vn 0 -0.7341269091979692 0.6790122835350157
vn 0 -0.7341269091979692 0.6790122835350157
vn 0 -0.7341269091979692 0.6790122835350157
vn 0 0.7341269091979692 -0.6790122835350157
vn 0 0.7341269091979692 -0.6790122835350157
vn 0 0.7341269091979692 -0.6790122835350157
vn 0 0.7341269091979692 -0.6790122835350157
vn 0 0.7341269091979692 -0.6790122835350157
vn 0 0.7341269091979692 -0.6790122835350157
vn 0 0.7341269091979692 0.6790122835350157
vn 0 0.7341269091979692 0.6790122835350157
vn 0 0.7341269091979692 0.6790122835350157
vn 0 0.7341269091979692 0.6790122835350157
vn 0 0.7341269091979692 0.6790122835350157
vn 0 0.7341269091979692 0.6790122835350157
vn -0.5345316572607355 -0.6204462101689883 -0.5738661931783672
vn -0.5345316572607355 -0.6204462101689883 -0.5738661931783672
vn -0.5345316572607355 -0.6204462101689883 -0.5738661931783672
vn -0.5345316572607355 -0.6204462101689883 0.5738661931783672
vn -0.5345316572607355 -0.6204462101689883 0.5738661931783672
vn -0.5345316572607355 -0.6204462101689883 0.5738661931783672
vn -0.5345316572607355 0.6204462101689883 -0.5738661931783672
vn -0.5345316572607355 0.6204462101689883 -0.5738661931783672
vn -0.5345316572607355 0.6204462101689883 -0.5738661931783672
vn -0.5345316572607355 0.6204462101689883 0.5738661931783672
vn -0.5345316572607355 0.6204462101689883 0.5738661931783672
vn -0.5345316572607355 0.6204462101689883 0.5738661931783672
vn 0.5345316572607355 -0.6204462101689883 -0.5738661931783672
vn 0.5345316572607355 -0.6204462101689883 -0.5738661931783672
vn 0.5345316572607355 -0.6204462101689883 -0.5738661931783672
vn 0.5345316572607355 -0.6204462101689883 0.5738661931783672
vn 0.5345316572607355 -0.6204462101689883 0.5738661931783672
vn 0.5345316572607355 -0.6204462101689883 0.5738661931783672
vn 0.5345316572607355 0.6204462101689883 -0.5738661931783672
vn 0.5345316572607355 0.6204462101689883 -0.5738661931783672
vn 0.5345316572607355 0.6204462101689883 -0.5738661931783672
vn 0.5345316572607355 0.6204462101689883 0.5738661931783672
vn 0.5345316572607355 0.6204462101689883 0.5738661931783672
vn 0.5345316572607355 0.6204462101689883 0.5738661931783672
f 325//325 326//326 327//327
f 328//328 329//329 330//330
f 331//331 332//332 333//333
f 334//334 335//335 336//336
f 337//337 338//338 339//339
f 340//340 341//341 342//342
f 343//343 344//344 345//345
f 346//346 347//347 348//348
f 349//349 350//350 351//351
f 352//352 353//353 354//354
f 355//355 356//356 357//357
f 358//358 359//359 360//360
f 361//361 362//362 363//363
f 364//364 365//365 366//366
f 367//367 368//368 369//369
f 370//370 371//371 372//372
f 373//373 374//374 375//375
f 376//376 377//377 378//378
f 379//379 380//380 381//381
f 382//382 383//383 384//384
f 385//385 386//386 387//387
f 388//388 389//389 390//390
f 391//391 392//392 393//393
f 394//394 395//395 396//396
f 397//397 398//398 399//399
f 400//400 401//401 402//402
f 403//403 404//404 405//405
f 406//406 407//407 408//408
f 409//409 410//410 411//411
f 412//412 413//413 414//414
f 415//415 416//416 417//417
f 418//418 419//419 420//420
f 421//421 422//422 423//423
f 424//424 425//425 426//426
f 427//427 428//428 429//429
f 430//430 431//431 432//432
f 433//433 434//434 435//435
f 436//436 437//437 438//438
f 439//439 440//440 441//441
f 442//442 443//443 444//444
f 445//445 446//446 447//447
f 448//448 449//449 450//450
f 451//451 452//452 453//453
f 454//454 455//455 456//456
o head_cap
usemtl cobalt
v 0.11289675533771515 3.007657766342163 -0.18214285373687744
v 0.11289675533771515 3.0572073459625244 0.18214285373687744
v 0.11289675533771515 3.0572073459625244 -0.18214285373687744
v 0.11289675533771515 3.007657766342163 -0.18214285373687744
v 0.11289675533771515 3.007657766342163 0.18214285373687744
v 0.11289675533771515 3.0572073459625244 0.18214285373687744
v 0.550000011920929 3.007657766342163 -0.18214285373687744
v 0.550000011920929 3.0572073459625244 -0.18214285373687744
v 0.550000011920929 3.0572073459625244 0.18214285373687744
v 0.550000011920929 3.007657766342163 -0.18214285373687744
v 0.550000011920929 3.0572073459625244 0.18214285373687744
v 0.550000011920929 3.007657766342163 0.18214285373687744
v 0.13590218126773834 2.98783802986145 -0.18214285373687744
v 0.5269945859909058 2.98783802986145 -0.18214285373687744
v 0.5269945859909058 2.98783802986145 0.18214285373687744
v 0.13590218126773834 2.98783802986145 -0.18214285373687744
v 0.5269945859909058 2.98783802986145 0.18214285373687744
v 0.13590218126773834 2.98783802986145 0.18214285373687744
v 0.13590218126773834 3.0770270824432373 -0.18214285373687744
v 0.5269945859909058 3.0770270824432373 0.18214285373687744
v 0.5269945859909058 3.0770270824432373 -0.18214285373687744
v 0.13590218126773834 3.0770270824432373 -0.18214285373687744
v 0.13590218126773834 3.0770270824432373 0.18214285373687744
v 0.5269945859909058 3.0770270824432373 0.18214285373687744
v 0.13590218126773834 3.007657766342163 -0.20357142388820648
v 0.5269945859909058 3.0572073459625244 -0.20357142388820648
v 0.5269945859909058 3.007657766342163 -0.20357142388820648
v 0.13590218126773834 3.007657766342163 -0.20357142388820648
v 0.13590218126773834 3.0572073459625244 -0.20357142388820648
v 0.5269945859909058 3.0572073459625244 -0.20357142388820648
v 0.13590218126773834 3.007657766342163 0.20357142388820648
v 0.5269945859909058 3.007657766342163 0.20357142388820648
v 0.5269945859909058 3.0572073459625244 0.20357142388820648
v 0.13590218126773834 3.007657766342163 0.20357142388820648
v 0.5269945859909058 3.0572073459625244 0.20357142388820648
v 0.13590218126773834 3.0572073459625244 0.20357142388820648
v 0.11289675533771515 3.007657766342163 -0.18214285373687744
v 0.13590218126773834 2.98783802986145 -0.18214285373687744
v 0.13590218126773834 2.98783802986145 0.18214285373687744
v 0.11289675533771515 3.007657766342163 -0.18214285373687744
v 0.13590218126773834 2.98783802986145 0.18214285373687744
v 0.11289675533771515 3.007657766342163 0.18214285373687744
v 0.11289675533771515 3.0572073459625244 -0.18214285373687744
v 0.13590218126773834 3.0770270824432373 0.18214285373687744
v 0.13590218126773834 3.0770270824432373 -0.18214285373687744
v 0.11289675533771515 3.0572073459625244 -0.18214285373687744
v 0.11289675533771515 3.0572073459625244 0.18214285373687744
v 0.13590218126773834 3.0770270824432373 0.18214285373687744
v 0.550000011920929 3.007657766342163 -0.18214285373687744
v 0.5269945859909058 2.98783802986145 0.18214285373687744
v 0.5269945859909058 2.98783802986145 -0.18214285373687744
v 0.550000011920929 3.007657766342163 -0.18214285373687744
v 0.550000011920929 3.007657766342163 0.18214285373687744
v 0.5269945859909058 2.98783802986145 0.18214285373687744
v 0.550000011920929 3.0572073459625244 -0.18214285373687744
v 0.5269945859909058 3.0770270824432373 -0.18214285373687744
v 0.5269945859909058 3.0770270824432373 0.18214285373687744
v 0.550000011920929 3.0572073459625244 -0.18214285373687744
v 0.5269945859909058 3.0770270824432373 0.18214285373687744
v 0.550000011920929 3.0572073459625244 0.18214285373687744
v 0.11289675533771515 3.007657766342163 -0.18214285373687744
v 0.13590218126773834 3.0572073459625244 -0.20357142388820648
v 0.13590218126773834 3.007657766342163 -0.20357142388820648
v 0.11289675533771515 3.007657766342163 -0.18214285373687744
v 0.11289675533771515 3.0572073459625244 -0.18214285373687744
v 0.13590218126773834 3.0572073459625244 -0.20357142388820648
v 0.11289675533771515 3.007657766342163 0.18214285373687744
v 0.13590218126773834 3.007657766342163 0.20357142388820648
v 0.13590218126773834 3.0572073459625244 0.20357142388820648
v 0.11289675533771515 3.007657766342163 0.18214285373687744
v 0.13590218126773834 3.0572073459625244 0.20357142388820648
v 0.11289675533771515 3.0572073459625244 0.18214285373687744
v 0.550000011920929 3.007657766342163 -0.18214285373687744
v 0.5269945859909058 3.007657766342163 -0.20357142388820648
v 0.5269945859909058 3.0572073459625244 -0.20357142388820648
v 0.550000011920929 3.007657766342163 -0.18214285373687744
v 0.5269945859909058 3.0572073459625244 -0.20357142388820648
v 0.550000011920929 3.0572073459625244 -0.18214285373687744
v 0.550000011920929 3.007657766342163 0.18214285373687744
v 0.5269945859909058 3.0572073459625244 0.20357142388820648
v 0.5269945859909058 3.007657766342163 0.20357142388820648
v 0.550000011920929 3.007657766342163 0.18214285373687744
v 0.550000011920929 3.0572073459625244 0.18214285373687744
v 0.5269945859909058 3.0572073459625244 0.20357142388820648
v 0.13590218126773834 2.98783802986145 -0.18214285373687744
v 0.13590218126773834 3.007657766342163 -0.20357142388820648
v 0.5269945859909058 3.007657766342163 -0.20357142388820648
v 0.13590218126773834 2.98783802986145 -0.18214285373687744
v 0.5269945859909058 3.007657766342163 -0.20357142388820648
v 0.5269945859909058 2.98783802986145 -0.18214285373687744
v 0.13590218126773834 2.98783802986145 0.18214285373687744
v 0.5269945859909058 3.007657766342163 0.20357142388820648
v 0.13590218126773834 3.007657766342163 0.20357142388820648
v 0.13590218126773834 2.98783802986145 0.18214285373687744
v 0.5269945859909058 2.98783802986145 0.18214285373687744
v 0.5269945859909058 3.007657766342163 0.20357142388820648
v 0.13590218126773834 3.0770270824432373 -0.18214285373687744
v 0.5269945859909058 3.0572073459625244 -0.20357142388820648
v 0.13590218126773834 3.0572073459625244 -0.20357142388820648
v 0.13590218126773834 3.0770270824432373 -0.18214285373687744
v 0.5269945859909058 3.0770270824432373 -0.18214285373687744
v 0.5269945859909058 3.0572073459625244 -0.20357142388820648
v 0.13590218126773834 3.0770270824432373 0.18214285373687744
v 0.13590218126773834 3.0572073459625244 0.20357142388820648
v 0.5269945859909058 3.0572073459625244 0.20357142388820648
v 0.13590218126773834 3.0770270824432373 0.18214285373687744
v 0.5269945859909058 3.0572073459625244 0.20357142388820648
v 0.5269945859909058 3.0770270824432373 0.18214285373687744
v 0.11289675533771515 3.007657766342163 -0.18214285373687744
v 0.13590218126773834 3.007657766342163 -0.20357142388820648
v 0.13590218126773834 2.98783802986145 -0.18214285373687744
v 0.11289675533771515 3.007657766342163 0.18214285373687744
v 0.13590218126773834 2.98783802986145 0.18214285373687744
v 0.13590218126773834 3.007657766342163 0.20357142388820648
v 0.11289675533771515 3.0572073459625244 -0.18214285373687744
v 0.13590218126773834 3.0770270824432373 -0.18214285373687744
v 0.13590218126773834 3.0572073459625244 -0.20357142388820648
v 0.11289675533771515 3.0572073459625244 0.18214285373687744
v 0.13590218126773834 3.0572073459625244 0.20357142388820648
v 0.13590218126773834 3.0770270824432373 0.18214285373687744
v 0.550000011920929 3.007657766342163 -0.18214285373687744
v 0.5269945859909058 2.98783802986145 -0.18214285373687744
v 0.5269945859909058 3.007657766342163 -0.20357142388820648
v 0.550000011920929 3.007657766342163 0.18214285373687744
v 0.5269945859909058 3.007657766342163 0.20357142388820648
v 0.5269945859909058 2.98783802986145 0.18214285373687744
v 0.550000011920929 3.0572073459625244 -0.18214285373687744
v 0.5269945859909058 3.0572073459625244 -0.20357142388820648
v 0.5269945859909058 3.0770270824432373 -0.18214285373687744
v 0.550000011920929 3.0572073459625244 0.18214285373687744
v 0.5269945859909058 3.0770270824432373 0.18214285373687744
v 0.5269945859909058 3.0572073459625244 0.20357142388820648
vn -1 0 0
vn -1 0 0
vn -1 0 0
vn -1 0 0
vn -1 0 0
vn -1 0 0
vn 1 0 0
vn 1 0 0
vn 1 0 0
vn 1 0 0
vn 1 0 0
vn 1 0 0
vn 0 -1 0
vn 0 -1 0
vn 0 -1 0
vn 0 -1 0
vn 0 -1 0
vn 0 -1 0
vn 0 1 0
vn 0 1 0
vn 0 1 0
vn 0 1 0
vn 0 1 0
vn 0 1 0
vn 0 0 -1
vn 0 0 -1
vn 0 0 -1
vn 0 0 -1
vn 0 0 -1
vn 0 0 -1
vn 0 0 1
vn 0 0 1
vn 0 0 1
vn 0 0 1
vn 0 0 1
vn 0 0 1
vn -0.6527044886676224 -0.7576125992043279 0
vn -0.6527044886676224 -0.7576125992043279 0
vn -0.6527044886676224 -0.7576125992043279 0
vn -0.6527044886676224 -0.7576125992043279 0
vn -0.6527044886676224 -0.7576125992043279 0
vn -0.6527044886676224 -0.7576125992043279 0
vn -0.6527044886676224 0.7576125992043279 0
vn -0.6527044886676224 0.7576125992043279 0
vn -0.6527044886676224 0.7576125992043279 0
vn -0.6527044886676224 0.7576125992043279 0
vn -0.6527044886676224 0.7576125992043279 0
vn -0.6527044886676224 0.7576125992043279 0
vn 0.6527044886676224 -0.7576125992043279 0
vn 0.6527044886676224 -0.7576125992043279 0
vn 0.6527044886676224 -0.7576125992043279 0
vn 0.6527044886676224 -0.7576125992043279 0
vn 0.6527044886676224 -0.7576125992043279 0
vn 0.6527044886676224 -0.7576125992043279 0
vn 0.6527044886676224 0.7576125992043279 0
vn 0.6527044886676224 0.7576125992043279 0
vn 0.6527044886676224 0.7576125992043279 0
vn 0.6527044886676224 0.7576125992043279 0
vn 0.6527044886676224 0.7576125992043279 0
vn 0.6527044886676224 0.7576125992043279 0
vn -0.6815841239162407 0 -0.7317397638678184
vn -0.6815841239162407 0 -0.7317397638678184
vn -0.6815841239162407 0 -0.7317397638678184
vn -0.6815841239162407 0 -0.7317397638678184
vn -0.6815841239162407 0 -0.7317397638678184
vn -0.6815841239162407 0 -0.7317397638678184
vn -0.6815841239162407 0 0.7317397638678184
vn -0.6815841239162407 0 0.7317397638678184
vn -0.6815841239162407 0 0.7317397638678184
vn -0.6815841239162407 0 0.7317397638678184
vn -0.6815841239162407 0 0.7317397638678184
vn -0.6815841239162407 0 0.7317397638678184
vn 0.6815841239162407 0 -0.7317397638678184
vn 0.6815841239162407 0 -0.7317397638678184
vn 0.6815841239162407 0 -0.7317397638678184
vn 0.6815841239162407 0 -0.7317397638678184
vn 0.6815841239162407 0 -0.7317397638678184
vn 0.6815841239162407 0 -0.7317397638678184
vn 0.6815841239162407 0 0.7317397638678184
vn 0.6815841239162407 0 0.7317397638678184
vn 0.6815841239162407 0 0.7317397638678184
vn 0.6815841239162407 0 0.7317397638678184
vn 0.6815841239162407 0 0.7317397638678184
vn 0.6815841239162407 0 0.7317397638678184
vn 0 -0.7341268245238085 -0.6790123750820666
vn 0 -0.7341268245238085 -0.6790123750820666
vn 0 -0.7341268245238085 -0.6790123750820666
vn 0 -0.7341268245238085 -0.6790123750820666
vn 0 -0.7341268245238085 -0.6790123750820666
vn 0 -0.7341268245238085 -0.6790123750820666
vn 0 -0.7341268245238085 0.6790123750820666
vn 0 -0.7341268245238085 0.6790123750820666
vn 0 -0.7341268245238085 0.6790123750820666
vn 0 -0.7341268245238085 0.6790123750820666
vn 0 -0.7341268245238085 0.6790123750820666
vn 0 -0.7341268245238085 0.6790123750820666
vn 0 0.7341268245238085 -0.6790123750820666
vn 0 0.7341268245238085 -0.6790123750820666
vn 0 0.7341268245238085 -0.6790123750820666
vn 0 0.7341268245238085 -0.6790123750820666
vn 0 0.7341268245238085 -0.6790123750820666
vn 0 0.7341268245238085 -0.6790123750820666
vn 0 0.7341268245238085 0.6790123750820666
vn 0 0.7341268245238085 0.6790123750820666
vn 0 0.7341268245238085 0.6790123750820666
vn 0 0.7341268245238085 0.6790123750820666
vn 0 0.7341268245238085 0.6790123750820666
vn 0 0.7341268245238085 0.6790123750820666
vn -0.5345317013189596 -0.6204461325191704 -0.5738662360925783
vn -0.5345317013189596 -0.6204461325191704 -0.5738662360925783
vn -0.5345317013189596 -0.6204461325191704 -0.5738662360925783
vn -0.5345317013189596 -0.6204461325191704 0.5738662360925783
vn -0.5345317013189596 -0.6204461325191704 0.5738662360925783
vn -0.5345317013189596 -0.6204461325191704 0.5738662360925783
vn -0.5345317013189596 0.6204461325191704 -0.5738662360925783
vn -0.5345317013189596 0.6204461325191704 -0.5738662360925783
vn -0.5345317013189596 0.6204461325191704 -0.5738662360925783
vn -0.5345317013189596 0.6204461325191704 0.5738662360925783
vn -0.5345317013189596 0.6204461325191704 0.5738662360925783
vn -0.5345317013189596 0.6204461325191704 0.5738662360925783
vn 0.5345317013189596 -0.6204461325191704 -0.5738662360925783
vn 0.5345317013189596 -0.6204461325191704 -0.5738662360925783
vn 0.5345317013189596 -0.6204461325191704 -0.5738662360925783
vn 0.5345317013189596 -0.6204461325191704 0.5738662360925783
vn 0.5345317013189596 -0.6204461325191704 0.5738662360925783
vn 0.5345317013189596 -0.6204461325191704 0.5738662360925783
vn 0.5345317013189596 0.6204461325191704 -0.5738662360925783
vn 0.5345317013189596 0.6204461325191704 -0.5738662360925783
vn 0.5345317013189596 0.6204461325191704 -0.5738662360925783
vn 0.5345317013189596 0.6204461325191704 0.5738662360925783
vn 0.5345317013189596 0.6204461325191704 0.5738662360925783
vn 0.5345317013189596 0.6204461325191704 0.5738662360925783
f 457//457 458//458 459//459
f 460//460 461//461 462//462
f 463//463 464//464 465//465
f 466//466 467//467 468//468
f 469//469 470//470 471//471
f 472//472 473//473 474//474
f 475//475 476//476 477//477
f 478//478 479//479 480//480
f 481//481 482//482 483//483
f 484//484 485//485 486//486
f 487//487 488//488 489//489
f 490//490 491//491 492//492
f 493//493 494//494 495//495
f 496//496 497//497 498//498
f 499//499 500//500 501//501
f 502//502 503//503 504//504
f 505//505 506//506 507//507
f 508//508 509//509 510//510
f 511//511 512//512 513//513
f 514//514 515//515 516//516
f 517//517 518//518 519//519
f 520//520 521//521 522//522
f 523//523 524//524 525//525
f 526//526 527//527 528//528
f 529//529 530//530 531//531
f 532//532 533//533 534//534
f 535//535 536//536 537//537
f 538//538 539//539 540//540
f 541//541 542//542 543//543
f 544//544 545//545 546//546
f 547//547 548//548 549//549
f 550//550 551//551 552//552
f 553//553 554//554 555//555
f 556//556 557//557 558//558
f 559//559 560//560 561//561
f 562//562 563//563 564//564
f 565//565 566//566 567//567
f 568//568 569//569 570//570
f 571//571 572//572 573//573
f 574//574 575//575 576//576
f 577//577 578//578 579//579
f 580//580 581//581 582//582
f 583//583 584//584 585//585
f 586//586 587//587 588//588
o finial
usemtl gold
v -0.2436874657869339 3.299999952316284 0.04285714030265808
v -0.21115286648273468 3.299999952316284 0.030304575338959694
v -0.19767659902572632 3.299999952316284 2.6242431078288217e-18
v -0.21115286648273468 3.299999952316284 -0.030304575338959694
v -0.2436874657869339 3.299999952316284 -0.04285714030265808
v -0.2762220501899719 3.299999952316284 -0.030304575338959694
v -0.2896983325481415 3.299999952316284 -7.872729530281618e-18
v -0.2762220501899719 3.299999952316284 0.030304575338959694
v -0.2436874657869339 3.299999952316284 0.04285714030265808
v -0.2436874657869339 3.081981897354126 0.1071428582072258
v -0.16235098242759705 3.081981897354126 0.07576144486665726
v -0.12866029143333435 3.081981897354126 6.560607666174478e-18
v -0.16235098242759705 3.081981897354126 -0.07576144486665726
v -0.2436874657869339 3.081981897354126 -0.1071428582072258
v -0.32502394914627075 3.081981897354126 -0.07576144486665726
v -0.35871464014053345 3.081981897354126 -1.9681824652884658e-17
v -0.32502394914627075 3.081981897354126 0.07576144486665726
v -0.2436874657869339 3.081981897354126 0.1071428582072258
v -0.2436874657869339 3.299999952316284 0
v -0.2436874657869339 3.299999952316284 0
v -0.2436874657869339 3.299999952316284 0
v -0.2436874657869339 3.299999952316284 0
v -0.2436874657869339 3.299999952316284 0
v -0.2436874657869339 3.299999952316284 0
v -0.2436874657869339 3.299999952316284 0
v -0.2436874657869339 3.299999952316284 0
v -0.2436874657869339 3.299999952316284 0.04285714030265808
v -0.21115286648273468 3.299999952316284 0.030304575338959694
v -0.19767659902572632 3.299999952316284 2.6242431078288217e-18
v -0.21115286648273468 3.299999952316284 -0.030304575338959694
v -0.2436874657869339 3.299999952316284 -0.04285714030265808
v -0.2762220501899719 3.299999952316284 -0.030304575338959694
v -0.2896983325481415 3.299999952316284 -7.872729530281618e-18
v -0.2762220501899719 3.299999952316284 0.030304575338959694
v -0.2436874657869339 3.299999952316284 0.04285714030265808
v -0.2436874657869339 3.081981897354126 0
v -0.2436874657869339 3.081981897354126 0
v -0.2436874657869339 3.081981897354126 0
v -0.2436874657869339 3.081981897354126 0
v -0.2436874657869339 3.081981897354126 0
v -0.2436874657869339 3.081981897354126 0
v -0.2436874657869339 3.081981897354126 0
v -0.2436874657869339 3.081981897354126 0
v -0.2436874657869339 3.081981897354126 0.1071428582072258
v -0.16235098242759705 3.081981897354126 0.07576144486665726
v -0.12866029143333435 3.081981897354126 6.560607666174478e-18
v -0.16235098242759705 3.081981897354126 -0.07576144486665726
v -0.2436874657869339 3.081981897354126 -0.1071428582072258
v -0.32502394914627075 3.081981897354126 -0.07576144486665726
v -0.35871464014053345 3.081981897354126 -1.9681824652884658e-17
v -0.32502394914627075 3.081981897354126 0.07576144486665726
v -0.2436874657869339 3.081981897354126 0.1071428582072258
vt 0 1
vt 0.125 1
vt 0.25 1
vt 0.375 1
vt 0.5 1
vt 0.625 1
vt 0.75 1
vt 0.875 1
vt 1 1
vt 0 0
vt 0.125 0
vt 0.25 0
vt 0.375 0
vt 0.5 0
vt 0.625 0
vt 0.75 0
vt 0.875 0
vt 1 0
vt 0.5 0.5
vt 0.5 0.5
vt 0.5 0.5
vt 0.5 0.5
vt 0.5 0.5
vt 0.5 0.5
vt 0.5 0.5
vt 0.5 0.5
vt 1 0.5
vt 0.8535534143447876 0.8535534143447876
vt 0.5 1
vt 0.1464466154575348 0.8535534143447876
vt 0 0.5
vt 0.1464466154575348 0.1464466154575348
vt 0.5 0
vt 0.8535534143447876 0.1464466154575348
vt 1 0.5
vt 0.5 0.5
vt 0.5 0.5
vt 0.5 0.5
vt 0.5 0.5
vt 0.5 0.5
vt 0.5 0.5
vt 0.5 0.5
vt 0.5 0.5
vt 1 0.5
vt 0.8535534143447876 0.1464466154575348
vt 0.5 0
vt 0.1464466154575348 0.1464466154575348
vt 0 0.5
vt 0.1464466154575348 0.8535534143447876
vt 0.5 1
vt 0.8535534143447876 0.8535534143447876
vt 1 0.5
vn 0 0.28282532600323335 0.9591714314819665
vn 0.651910377289818 0.2918516752185434 0.6998824613133102
vn 0.9533708437692932 0.3018013158530396 6.267291901029084e-17
vn 0.651910377289818 0.2918516752185434 -0.6998824613133102
vn 1.0941323959911974e-16 0.28282532600323335 -0.9591714314819665
vn -0.651910377289818 0.2918516752185434 -0.6998824613133102
vn -0.9533708437692932 0.3018013158530396 -1.8801875703087253e-16
vn -0.651910377289818 0.2918516752185434 0.6998824613133102
vn -2.1882647919823948e-16 0.28282532600323335 0.9591714314819665
vn 0 0.28282532600323335 0.9591714314819665
vn 0.651910377289818 0.2918516752185434 0.6998824613133102
vn 0.9533708437692932 0.3018013158530396 6.267291901029084e-17
vn 0.651910377289818 0.2918516752185434 -0.6998824613133102
vn 1.0941323959911974e-16 0.28282532600323335 -0.9591714314819665
vn -0.651910377289818 0.2918516752185434 -0.6998824613133102
vn -0.9533708437692932 0.3018013158530396 -1.8801875703087253e-16
vn -0.651910377289818 0.2918516752185434 0.6998824613133102
vn -2.1882647919823948e-16 0.28282532600323335 0.9591714314819665
vn 0 1 0
vn 0 1 0
vn 0 1 0
vn 0 1 0
vn 0 1 0
vn 0 1 0
vn 0 1 0
vn 0 1 0
vn 0 1 0
vn 0 1 0
vn 0 1 0
vn 0 1 0
vn 0 1 0
vn 0 1 0
vn 0 1 0
vn 0 1 0
vn 0 1 0
vn 0 -1 0
vn 0 -1 0
vn 0 -1 0
vn 0 -1 0
vn 0 -1 0
vn 0 -1 0
vn 0 -1 0
vn 0 -1 0
vn 0 -1 0
vn 0 -1 0
vn 0 -1 0
vn 0 -1 0
vn 0 -1 0
vn 0 -1 0
vn 0 -1 0
vn 0 -1 0
vn 0 -1 0
f 589/193/589 598/202/598 590/194/590
f 598/202/598 599/203/599 590/194/590
f 590/194/590 599/203/599 591/195/591
f 599/203/599 600/204/600 591/195/591
f 591/195/591 600/204/600 592/196/592
f 600/204/600 601/205/601 592/196/592
f 592/196/592 601/205/601 593/197/593
f 601/205/601 602/206/602 593/197/593
f 593/197/593 602/206/602 594/198/594
f 602/206/602 603/207/603 594/198/594
f 594/198/594 603/207/603 595/199/595
f 603/207/603 604/208/604 595/199/595
f 595/199/595 604/208/604 596/200/596
f 604/208/604 605/209/605 596/200/596
f 596/200/596 605/209/605 597/201/597
f 605/209/605 606/210/606 597/201/597
f 615/219/615 616/220/616 607/211/607
f 616/220/616 617/221/617 608/212/608
f 617/221/617 618/222/618 609/213/609
f 618/222/618 619/223/619 610/214/610
f 619/223/619 620/224/620 611/215/611
f 620/224/620 621/225/621 612/216/612
f 621/225/621 622/226/622 613/217/613
f 622/226/622 623/227/623 614/218/614
f 633/237/633 632/236/632 624/228/624
f 634/238/634 633/237/633 625/229/625
f 635/239/635 634/238/634 626/230/626
f 636/240/636 635/239/635 627/231/627
f 637/241/637 636/240/636 628/232/628
f 638/242/638 637/241/637 629/233/629
f 639/243/639 638/242/638 630/234/630
f 640/244/640 639/243/639 631/235/631
