mtllib ramp_to_train.mtl
o ramp_body
usemtl metal
v 0.7434782385826111 0.029901517555117607 4.90371561050415
v 0.7434782385826111 0.029901517555117607 -4.90371561050415
v 0.7434782385826111 4.265949726104736 -4.90371561050415
v 0.7434782385826111 4.265949726104736 -4.90371561050415
v 0.7434782385826111 0.1495075821876526 4.90371561050415
v 0.7434782385826111 0.029901517555117607 4.90371561050415
v -0.7434782385826111 4.265949726104736 -4.90371561050415
v -0.7434782385826111 0.029901517555117607 -4.90371561050415
v -0.7434782385826111 0.029901517555117607 4.90371561050415
v -0.7434782385826111 0.029901517555117607 4.90371561050415
v -0.7434782385826111 0.1495075821876526 4.90371561050415
v -0.7434782385826111 4.265949726104736 -4.90371561050415
v 0.7434782385826111 0.029901517555117607 4.90371561050415
v 0.7434782385826111 0.1495075821876526 4.90371561050415
v 0.7141304612159729 0 4.933137893676758
v 0.7434782385826111 0.1495075821876526 4.90371561050415
v 0.7141304612159729 0.16950955986976624 4.933137893676758
v 0.7141304612159729 0 4.933137893676758
v 0.7141304612159729 0 4.933137893676758
v 0.7141304612159729 0.16950955986976624 4.933137893676758
v -0.7141304612159729 0 4.933137893676758
v 0.7141304612159729 0.16950955986976624 4.933137893676758
v -0.7141304612159729 0.16950955986976624 4.933137893676758
v -0.7141304612159729 0 4.933137893676758
v -0.7141304612159729 0 4.933137893676758
v -0.7141304612159729 0.16950955986976624 4.933137893676758
v -0.7434782385826111 0.029901517555117607 4.90371561050415
v -0.7141304612159729 0.16950955986976624 4.933137893676758
v -0.7434782385826111 0.1495075821876526 4.90371561050415
v -0.7434782385826111 0.029901517555117607 4.90371561050415
v 0.7434782385826111 0.1495075821876526 4.90371561050415
v 0.7434782385826111 4.265949726104736 -4.90371561050415
v 0.7141304612159729 0.16950955986976624 4.933137893676758
v 0.7434782385826111 4.265949726104736 -4.90371561050415
v 0.7141304612159729 4.301098346710205 -4.926850318908691
v 0.7141304612159729 0.16950955986976624 4.933137893676758
v 0.7141304612159729 0.16950955986976624 4.933137893676758
v 0.7141304612159729 4.301098346710205 -4.926850318908691
v -0.7141304612159729 0.16950955986976624 4.933137893676758
v 0.7141304612159729 4.301098346710205 -4.926850318908691
v -0.7141304612159729 4.301098346710205 -4.926850318908691
v -0.7141304612159729 0.16950955986976624 4.933137893676758
v -0.7141304612159729 0.16950955986976624 4.933137893676758
v -0.7141304612159729 4.301098346710205 -4.926850318908691
v -0.7434782385826111 0.1495075821876526 4.90371561050415
v -0.7141304612159729 4.301098346710205 -4.926850318908691
v -0.7434782385826111 4.265949726104736 -4.90371561050415
v -0.7434782385826111 0.1495075821876526 4.90371561050415
v 0.7434782385826111 4.265949726104736 -4.90371561050415
v 0.7434782385826111 0.029901517555117607 -4.90371561050415
v 0.7141304612159729 4.301098346710205 -4.926850318908691
v 0.7434782385826111 0.029901517555117607 -4.90371561050415
v 0.7141304612159729 0 -4.933137893676758
v 0.7141304612159729 4.301098346710205 -4.926850318908691
v 0.7141304612159729 4.301098346710205 -4.926850318908691
v 0.7141304612159729 0 -4.933137893676758
v -0.7141304612159729 4.301098346710205 -4.926850318908691
v 0.7141304612159729 0 -4.933137893676758
v -0.7141304612159729 0 -4.933137893676758
v -0.7141304612159729 4.301098346710205 -4.926850318908691
v -0.7141304612159729 4.301098346710205 -4.926850318908691
v -0.7141304612159729 0 -4.933137893676758
v -0.7434782385826111 4.265949726104736 -4.90371561050415
v -0.7141304612159729 0 -4.933137893676758
v -0.7434782385826111 0.029901517555117607 -4.90371561050415
v -0.7434782385826111 4.265949726104736 -4.90371561050415
v 0.7434782385826111 0.029901517555117607 -4.90371561050415
v 0.7434782385826111 0.029901517555117607 4.90371561050415
v 0.7141304612159729 0 -4.933137893676758
v 0.7434782385826111 0.029901517555117607 4.90371561050415
v 0.7141304612159729 0 4.933137893676758
v 0.7141304612159729 0 -4.933137893676758
v 0.7141304612159729 0 -4.933137893676758
v 0.7141304612159729 0 4.933137893676758
v -0.7141304612159729 0 -4.933137893676758
v 0.7141304612159729 0 4.933137893676758
v -0.7141304612159729 0 4.933137893676758
v -0.7141304612159729 0 -4.933137893676758
v -0.7141304612159729 0 -4.933137893676758
v -0.7141304612159729 0 4.933137893676758
v -0.7434782385826111 0.029901517555117607 -4.90371561050415
v -0.7141304612159729 0 4.933137893676758
v -0.7434782385826111 0.029901517555117607 4.90371561050415
v -0.7434782385826111 0.029901517555117607 -4.90371561050415
vt 5 0
vt -5 0
vt -5 4.25
vt -5 4.25
vt 5 0.11999999731779099
vt 5 0
vt -5 4.25
vt -5 0
vt 5 0
vt 5 0
vt 5 0.11999999731779099
vt -5 4.25
vt 0 1.0299999713897705
vt 0.11999999731779099 1.0299999713897705
vt -0.029999999329447746 1
vt 0.11999999731779099 1.0299999713897705
vt 0.14006784558296204 1
vt -0.029999999329447746 1
vt -0.029999999329447746 1
vt 0.14006784558296204 1
vt -0.029999999329447746 -0.46000000834465027
vt 0.14006784558296204 1
vt 0.14006784558296204 -0.46000000834465027
vt -0.029999999329447746 -0.46000000834465027
vt -0.029999999329447746 -0.46000000834465027
vt 0.14006784558296204 -0.46000000834465027
vt 0 -0.49000000953674316
vt 0.14006784558296204 -0.46000000834465027
vt 0.11999999731779099 -0.49000000953674316
vt 0 -0.49000000953674316
vt 5 1.0299999713897705
vt -5 1.0299999713897705
vt 5.03000020980835 1
vt -5 1.0299999713897705
vt -5.023589134216309 1
vt 5.03000020980835 1
vt 5.03000020980835 1
vt -5.023589134216309 1
vt 5.03000020980835 -0.46000000834465027
vt -5.023589134216309 1
vt -5.023589134216309 -0.46000000834465027
vt 5.03000020980835 -0.46000000834465027
vt 5.03000020980835 -0.46000000834465027
vt -5.023589134216309 -0.46000000834465027
vt 5 -0.49000000953674316
vt -5.023589134216309 -0.46000000834465027
vt -5 -0.49000000953674316
vt 5 -0.49000000953674316
vt 4.25 1.0299999713897705
vt 0 1.0299999713897705
vt 4.285264015197754 1
vt 0 1.0299999713897705
vt -0.029999999329447746 1
vt 4.285264015197754 1
vt 4.285264015197754 1
vt -0.029999999329447746 1
vt 4.285264015197754 -0.46000000834465027
vt -0.029999999329447746 1
vt -0.029999999329447746 -0.46000000834465027
vt 4.285264015197754 -0.46000000834465027
vt 4.285264015197754 -0.46000000834465027
vt -0.029999999329447746 -0.46000000834465027
vt 4.25 -0.49000000953674316
vt -0.029999999329447746 -0.46000000834465027
vt 0 -0.49000000953674316
vt 4.25 -0.49000000953674316
vt -5 1.0299999713897705
vt 5 1.0299999713897705
vt -5.03000020980835 1
vt 5 1.0299999713897705
vt 5.03000020980835 1
vt -5.03000020980835 1
vt -5.03000020980835 1
vt 5.03000020980835 1
vt -5.03000020980835 -0.46000000834465027
vt 5.03000020980835 1
vt 5.03000020980835 -0.46000000834465027
vt -5.03000020980835 -0.46000000834465027
vt -5.03000020980835 -0.46000000834465027
vt 5.03000020980835 -0.46000000834465027
vt -5 -0.49000000953674316
vt 5.03000020980835 -0.46000000834465027
vt 5 -0.49000000953674316
vt -5 -0.49000000953674316
vn 1 0 0
vn 1 0 0
vn 1 0 0
vn 1 0 0
vn 1 0 0
vn 1 0 0
vn -1 0 0
vn -1 0 0
vn -1 0 0
vn -1 0 0
vn -1 0 0
vn -1 0 0
vn 0.7080049883933657 0 0.7062074315738329
vn 0.7080049883933657 0 0.7062074315738329
vn 0.7080049883933657 0 0.7062074315738329
vn 0.7080049883933657 0 0.7062074315738329
vn 0.7080049883933657 0 0.7062074315738329
vn 0.7080049883933657 0 0.7062074315738329
vn 0 0 1
vn 0 0 1
vn 0 0 1
vn 0 0 1
vn 0 0 1
vn 0 0 1
vn -0.7080049883933657 0 0.7062074315738329
vn -0.7080049883933657 0 0.7062074315738329
vn -0.7080049883933657 0 0.7062074315738329
vn -0.7080049883933657 0 0.7062074315738329
vn -0.7080049883933657 0 0.7062074315738329
vn -0.7080049883933657 0 0.7062074315738329
vn 0.7128484874116068 0.6466657545606921 0.27142298331835296
vn 0.7128484874116068 0.6466657545606921 0.27142298331835296
vn 0.7128484874116068 0.6466657545606921 0.27142298331835296
vn 0.6246656071375912 0.7202190632217143 0.30179029181115336
vn 0.6246656071375912 0.7202190632217143 0.30179029181115336
vn 0.6246656071375912 0.7202190632217143 0.30179029181115336
vn 0 0.9223025957524125 0.3864685263619304
vn 0 0.9223025957524125 0.3864685263619304
vn 0 0.9223025957524125 0.3864685263619304
vn 0 0.9223025957524125 0.3864685263619304
vn 0 0.9223025957524125 0.3864685263619304
vn 0 0.9223025957524125 0.3864685263619304
vn -0.712712479253749 0.6469549650507755 0.2710907506945304
vn -0.712712479253749 0.6469549650507755 0.2710907506945304
vn -0.712712479253749 0.6469549650507755 0.2710907506945304
vn -0.6243274744877093 0.7202882693979336 0.30232435159531634
vn -0.6243274744877093 0.7202882693979336 0.30232435159531634
vn -0.6243274744877093 0.7202882693979336 0.30232435159531634
vn 0.6190764812930563 0 -0.7853307012398076
vn 0.6190764812930563 0 -0.7853307012398076
vn 0.6190764812930563 0 -0.7853307012398076
vn 0.707479460214877 0.0010331473069196326 -0.7067331504752754
vn 0.707479460214877 0.0010331473069196326 -0.7067331504752754
vn 0.707479460214877 0.0010331473069196326 -0.7067331504752754
vn 0 0.0014618620107398153 -0.99999893147916
vn 0 0.0014618620107398153 -0.99999893147916
vn 0 0.0014618620107398153 -0.99999893147916
vn 0 0.0014618620107398153 -0.99999893147916
vn 0 0.0014618620107398153 -0.99999893147916
vn 0 0.0014618620107398153 -0.99999893147916
vn -0.6199229884913241 0.0011470683253756691 -0.7846618205152092
vn -0.6199229884913241 0.0011470683253756691 -0.7846618205152092
vn -0.6199229884913241 0.0011470683253756691 -0.7846618205152092
vn -0.7080049883933657 0 -0.7062074315738329
vn -0.7080049883933657 0 -0.7062074315738329
vn -0.7080049883933657 0 -0.7062074315738329
vn 0.7136839428166927 -0.7004678649057499 0
vn 0.7136839428166927 -0.7004678649057499 0
vn 0.7136839428166927 -0.7004678649057499 0
vn 0.7136839726138093 -0.7004678345464346 0
vn 0.7136839726138093 -0.7004678345464346 0
vn 0.7136839726138093 -0.7004678345464346 0
vn 0 -1 0
vn 0 -1 0
vn 0 -1 0
vn 0 -1 0
vn 0 -1 0
vn 0 -1 0
vn -0.7136839726138093 -0.7004678345464346 0
vn -0.7136839726138093 -0.7004678345464346 0
vn -0.7136839726138093 -0.7004678345464346 0
vn -0.7136839428166927 -0.7004678649057499 0
vn -0.7136839428166927 -0.7004678649057499 0
vn -0.7136839428166927 -0.7004678649057499 0
f 1/1/1 2/2/2 3/3/3
f 4/4/4 5/5/5 6/6/6
f 7/7/7 8/8/8 9/9/9
f 10/10/10 11/11/11 12/12/12
f 13/13/13 14/14/14 15/15/15
f 16/16/16 17/17/17 18/18/18
f 19/19/19 20/20/20 21/21/21
f 22/22/22 23/23/23 24/24/24
f 25/25/25 26/26/26 27/27/27
f 28/28/28 29/29/29 30/30/30
f 31/31/31 32/32/32 33/33/33
f 34/34/34 35/35/35 36/36/36
f 37/37/37 38/38/38 39/39/39
f 40/40/40 41/41/41 42/42/42
f 43/43/43 44/44/44 45/45/45
f 46/46/46 47/47/47 48/48/48
f 49/49/49 50/50/50 51/51/51
f 52/52/52 53/53/53 54/54/54
f 55/55/55 56/56/56 57/57/57
f 58/58/58 59/59/59 60/60/60
f 61/61/61 62/62/62 63/63/63
f 64/64/64 65/65/65 66/66/66
f 67/67/67 68/68/68 69/69/69
f 70/70/70 71/71/71 72/72/72
f 73/73/73 74/74/74 75/75/75
f 76/76/76 77/77/77 78/78/78
f 79/79/79 80/80/80 81/81/81
f 82/82/82 83/83/83 84/84/84
o rail_l
usemtl cobalt
v -0.8804347515106201 4.267016410827637 -4.972805500030518
v -0.8804347515106201 0.5670621395111084 4.972805500030518
v -0.8804347515106201 4.672362804412842 -4.808080673217773
v -0.8804347515106201 4.267016410827637 -4.972805500030518
v -0.8804347515106201 0.16171593964099884 4.808080673217773
v -0.8804347515106201 0.5670621395111084 4.972805500030518
v -0.626086950302124 4.267016410827637 -4.972805500030518
v -0.626086950302124 4.672362804412842 -4.808080673217773
v -0.626086950302124 0.5670621395111084 4.972805500030518
v -0.626086950302124 4.267016410827637 -4.972805500030518
v -0.626086950302124 0.5670621395111084 4.972805500030518
v -0.626086950302124 0.16171593964099884 4.808080673217773
v -0.8510869741439819 4.239379405975342 -4.984036445617676
v -0.655434787273407 4.239379405975342 -4.984036445617676
v -0.655434787273407 0.13407868146896362 4.796849250793457
v -0.8510869741439819 4.239379405975342 -4.984036445617676
v -0.655434787273407 0.13407868146896362 4.796849250793457
v -0.8510869741439819 0.13407868146896362 4.796849250793457
v -0.8510869741439819 4.699999809265137 -4.796849250793457
v -0.655434787273407 0.5946993827819824 4.984036445617676
v -0.655434787273407 4.699999809265137 -4.796849250793457
v -0.8510869741439819 4.699999809265137 -4.796849250793457
v -0.8510869741439819 0.5946993827819824 4.984036445617676
v -0.655434787273407 0.5946993827819824 4.984036445617676
v -0.8510869741439819 4.278430938720703 -5
v -0.655434787273407 4.68377685546875 -4.835275173187256
v -0.655434787273407 4.278430938720703 -5
v -0.8510869741439819 4.278430938720703 -5
v -0.8510869741439819 4.68377685546875 -4.835275173187256
v -0.655434787273407 4.68377685546875 -4.835275173187256
v -0.8510869741439819 0.15030166506767273 4.835275173187256
v -0.655434787273407 0.15030166506767273 4.835275173187256
v -0.655434787273407 0.5556479096412659 5
v -0.8510869741439819 0.15030166506767273 4.835275173187256
v -0.655434787273407 0.5556479096412659 5
v -0.8510869741439819 0.5556479096412659 5
v -0.8804347515106201 4.267016410827637 -4.972805500030518
v -0.8510869741439819 4.239379405975342 -4.984036445617676
v -0.8510869741439819 0.13407868146896362 4.796849250793457
v -0.8804347515106201 4.267016410827637 -4.972805500030518
v -0.8510869741439819 0.13407868146896362 4.796849250793457
v -0.8804347515106201 0.16171593964099884 4.808080673217773
v -0.8804347515106201 4.672362804412842 -4.808080673217773
v -0.8510869741439819 0.5946993827819824 4.984036445617676
v -0.8510869741439819 4.699999809265137 -4.796849250793457
v -0.8804347515106201 4.672362804412842 -4.808080673217773
v -0.8804347515106201 0.5670621395111084 4.972805500030518
v -0.8510869741439819 0.5946993827819824 4.984036445617676
v -0.626086950302124 4.267016410827637 -4.972805500030518
v -0.655434787273407 0.13407868146896362 4.796849250793457
v -0.655434787273407 4.239379405975342 -4.984036445617676
v -0.626086950302124 4.267016410827637 -4.972805500030518
v -0.626086950302124 0.16171593964099884 4.808080673217773
v -0.655434787273407 0.13407868146896362 4.796849250793457
v -0.626086950302124 4.672362804412842 -4.808080673217773
v -0.655434787273407 4.699999809265137 -4.796849250793457
v -0.655434787273407 0.5946993827819824 4.984036445617676
v -0.626086950302124 4.672362804412842 -4.808080673217773
v -0.655434787273407 0.5946993827819824 4.984036445617676
v -0.626086950302124 0.5670621395111084 4.972805500030518
v -0.8804347515106201 4.267016410827637 -4.972805500030518
v -0.8510869741439819 4.68377685546875 -4.835275173187256
v -0.8510869741439819 4.278430938720703 -5
v -0.8804347515106201 4.267016410827637 -4.972805500030518
v -0.8804347515106201 4.672362804412842 -4.808080673217773
v -0.8510869741439819 4.68377685546875 -4.835275173187256
v -0.8804347515106201 0.16171593964099884 4.808080673217773
v -0.8510869741439819 0.15030166506767273 4.835275173187256
v -0.8510869741439819 0.5556479096412659 5
v -0.8804347515106201 0.16171593964099884 4.808080673217773
v -0.8510869741439819 0.5556479096412659 5
v -0.8804347515106201 0.5670621395111084 4.972805500030518
v -0.626086950302124 4.267016410827637 -4.972805500030518
v -0.655434787273407 4.278430938720703 -5
v -0.655434787273407 4.68377685546875 -4.835275173187256
v -0.626086950302124 4.267016410827637 -4.972805500030518
v -0.655434787273407 4.68377685546875 -4.835275173187256
v -0.626086950302124 4.672362804412842 -4.808080673217773
v -0.626086950302124 0.16171593964099884 4.808080673217773
v -0.655434787273407 0.5556479096412659 5
v -0.655434787273407 0.15030166506767273 4.835275173187256
v -0.626086950302124 0.16171593964099884 4.808080673217773
v -0.626086950302124 0.5670621395111084 4.972805500030518
v -0.655434787273407 0.5556479096412659 5
v -0.8510869741439819 4.239379405975342 -4.984036445617676
v -0.8510869741439819 4.278430938720703 -5
v -0.655434787273407 4.278430938720703 -5
v -0.8510869741439819 4.239379405975342 -4.984036445617676
v -0.655434787273407 4.278430938720703 -5
v -0.655434787273407 4.239379405975342 -4.984036445617676
v -0.8510869741439819 0.13407868146896362 4.796849250793457
v -0.655434787273407 0.15030166506767273 4.835275173187256
v -0.8510869741439819 0.15030166506767273 4.835275173187256
v -0.8510869741439819 0.13407868146896362 4.796849250793457
v -0.655434787273407 0.13407868146896362 4.796849250793457
v -0.655434787273407 0.15030166506767273 4.835275173187256
v -0.8510869741439819 4.699999809265137 -4.796849250793457
v -0.655434787273407 4.68377685546875 -4.835275173187256
v -0.8510869741439819 4.68377685546875 -4.835275173187256
v -0.8510869741439819 4.699999809265137 -4.796849250793457
v -0.655434787273407 4.699999809265137 -4.796849250793457
v -0.655434787273407 4.68377685546875 -4.835275173187256
v -0.8510869741439819 0.5946993827819824 4.984036445617676
v -0.8510869741439819 0.5556479096412659 5
v -0.655434787273407 0.5556479096412659 5
v -0.8510869741439819 0.5946993827819824 4.984036445617676
v -0.655434787273407 0.5556479096412659 5
v -0.655434787273407 0.5946993827819824 4.984036445617676
v -0.8804347515106201 4.267016410827637 -4.972805500030518
v -0.8510869741439819 4.278430938720703 -5
v -0.8510869741439819 4.239379405975342 -4.984036445617676
v -0.8804347515106201 0.16171593964099884 4.808080673217773
v -0.8510869741439819 0.13407868146896362 4.796849250793457
v -0.8510869741439819 0.15030166506767273 4.835275173187256
v -0.8804347515106201 4.672362804412842 -4.808080673217773
v -0.8510869741439819 4.699999809265137 -4.796849250793457
v -0.8510869741439819 4.68377685546875 -4.835275173187256
v -0.8804347515106201 0.5670621395111084 4.972805500030518
v -0.8510869741439819 0.5556479096412659 5
v -0.8510869741439819 0.5946993827819824 4.984036445617676
v -0.626086950302124 4.267016410827637 -4.972805500030518
v -0.655434787273407 4.239379405975342 -4.984036445617676
v -0.655434787273407 4.278430938720703 -5
v -0.626086950302124 0.16171593964099884 4.808080673217773
v -0.655434787273407 0.15030166506767273 4.835275173187256
v -0.655434787273407 0.13407868146896362 4.796849250793457
v -0.626086950302124 4.672362804412842 -4.808080673217773
v -0.655434787273407 4.68377685546875 -4.835275173187256
v -0.655434787273407 4.699999809265137 -4.796849250793457
v -0.626086950302124 0.5670621395111084 4.972805500030518
v -0.655434787273407 0.5946993827819824 4.984036445617676
v -0.655434787273407 0.5556479096412659 5
vn -1 0 0
vn -1 0 0
vn -1 0 0
vn -1 0 0
vn -1 0 0
vn -1 0 0
vn 1 0 0
vn 1 0 0
vn 1 0 0
vn 1 0 0
vn 1 0 0
vn 1 0 0
vn 0 -0.9220719876242637 -0.3870184099479503
vn 0 -0.9220719876242637 -0.3870184099479503
vn 0 -0.9220719876242637 -0.3870184099479503
vn 0 -0.9220719876242637 -0.3870184099479503
vn 0 -0.9220719876242637 -0.3870184099479503
vn 0 -0.9220719876242637 -0.3870184099479503
vn 0 0.9220719876242637 0.3870184099479503
vn 0 0.9220719876242637 0.3870184099479503
vn 0 0.9220719876242637 0.3870184099479503
vn 0 0.9220719876242637 0.3870184099479503
vn 0 0.9220719876242637 0.3870184099479503
vn 0 0.9220719876242637 0.3870184099479503
vn 0 0.376481176541258 -0.9264242676604009
vn 0 0.376481176541258 -0.9264242676604009
vn 0 0.376481176541258 -0.9264242676604009
vn 0 0.376481176541258 -0.9264242676604009
vn 0 0.376481176541258 -0.9264242676604009
vn 0 0.376481176541258 -0.9264242676604009
vn 0 -0.376481176541258 0.9264242676604009
vn 0 -0.376481176541258 0.9264242676604009
vn 0 -0.376481176541258 0.9264242676604009
vn 0 -0.376481176541258 0.9264242676604009
vn 0 -0.376481176541258 0.9264242676604009
vn 0 -0.376481176541258 0.9264242676604009
vn -0.7128473435673763 -0.6466668171426125 -0.27142345583161676
vn -0.7128473435673763 -0.6466668171426125 -0.27142345583161676
vn -0.7128473435673763 -0.6466668171426125 -0.27142345583161676
vn -0.7128473435673763 -0.6466668171426125 -0.27142345583161676
vn -0.7128473435673763 -0.6466668171426125 -0.27142345583161676
vn -0.7128473435673763 -0.6466668171426125 -0.27142345583161676
vn -0.7128473435673763 0.6466668171426125 0.27142345583161676
vn -0.7128473435673763 0.6466668171426125 0.27142345583161676
vn -0.7128473435673763 0.6466668171426125 0.27142345583161676
vn -0.7128473435673763 0.6466668171426125 0.27142345583161676
vn -0.7128473435673763 0.6466668171426125 0.27142345583161676
vn -0.7128473435673763 0.6466668171426125 0.27142345583161676
vn 0.7128473435673763 -0.6466668171426125 -0.27142345583161676
vn 0.7128473435673763 -0.6466668171426125 -0.27142345583161676
vn 0.7128473435673763 -0.6466668171426125 -0.27142345583161676
vn 0.7128473435673763 -0.6466668171426125 -0.27142345583161676
vn 0.7128473435673763 -0.6466668171426125 -0.27142345583161676
vn 0.7128473435673763 -0.6466668171426125 -0.27142345583161676
vn 0.7128473435673763 0.6466668171426125 0.27142345583161676
vn 0.7128473435673763 0.6466668171426125 0.27142345583161676
vn 0.7128473435673763 0.6466668171426125 0.27142345583161676
vn 0.7128473435673763 0.6466668171426125 0.27142345583161676
vn 0.7128473435673763 0.6466668171426125 0.27142345583161676
vn 0.7128473435673763 0.6466668171426125 0.27142345583161676
vn -0.708824145665554 0.26556425835265146 -0.653486002303878
vn -0.708824145665554 0.26556425835265146 -0.653486002303878
vn -0.708824145665554 0.26556425835265146 -0.653486002303878
vn -0.708824145665554 0.26556425835265146 -0.653486002303878
vn -0.708824145665554 0.26556425835265146 -0.653486002303878
vn -0.708824145665554 0.26556425835265146 -0.653486002303878
vn -0.708824145665554 -0.26556425835265146 0.653486002303878
vn -0.708824145665554 -0.26556425835265146 0.653486002303878
vn -0.708824145665554 -0.26556425835265146 0.653486002303878
vn -0.708824145665554 -0.26556425835265146 0.653486002303878
vn -0.708824145665554 -0.26556425835265146 0.653486002303878
vn -0.708824145665554 -0.26556425835265146 0.653486002303878
vn 0.708824145665554 0.26556425835265146 -0.653486002303878
vn 0.708824145665554 0.26556425835265146 -0.653486002303878
vn 0.708824145665554 0.26556425835265146 -0.653486002303878
vn 0.708824145665554 0.26556425835265146 -0.653486002303878
vn 0.708824145665554 0.26556425835265146 -0.653486002303878
vn 0.708824145665554 0.26556425835265146 -0.653486002303878
vn 0.708824145665554 -0.26556425835265146 0.653486002303878
vn 0.708824145665554 -0.26556425835265146 0.653486002303878
vn 0.708824145665554 -0.26556425835265146 0.653486002303878
vn 0.708824145665554 -0.26556425835265146 0.653486002303878
vn 0.708824145665554 -0.26556425835265146 0.653486002303878
vn 0.708824145665554 -0.26556425835265146 0.653486002303878
vn 0 -0.3783816582344404 -0.9256496749374221
vn 0 -0.3783816582344404 -0.9256496749374221
vn 0 -0.3783816582344404 -0.9256496749374221
vn 0 -0.3783816582344404 -0.9256496749374221
vn 0 -0.3783816582344404 -0.9256496749374221
vn 0 -0.3783816582344404 -0.9256496749374221
vn 0 -0.9212600427633445 0.38894721185230385
vn 0 -0.9212600427633445 0.38894721185230385
vn 0 -0.9212600427633445 0.38894721185230385
vn 0 -0.9212600427633445 0.38894721185230385
vn 0 -0.9212600427633445 0.38894721185230385
vn 0 -0.9212600427633445 0.38894721185230385
vn 0 0.9212600427633445 -0.38894721185230385
vn 0 0.9212600427633445 -0.38894721185230385
vn 0 0.9212600427633445 -0.38894721185230385
vn 0 0.9212600427633445 -0.38894721185230385
vn 0 0.9212600427633445 -0.38894721185230385
vn 0 0.9212600427633445 -0.38894721185230385
vn 0 0.3783816582344404 0.9256496749374221
vn 0 0.3783816582344404 0.9256496749374221
vn 0 0.3783816582344404 0.9256496749374221
vn 0 0.3783816582344404 0.9256496749374221
vn 0 0.3783816582344404 0.9256496749374221
vn 0 0.3783816582344404 0.9256496749374221
vn -0.5792298759408336 -0.3084432102906689 -0.7545565166660168
vn -0.5792298759408336 -0.3084432102906689 -0.7545565166660168
vn -0.5792298759408336 -0.3084432102906689 -0.7545565166660168
vn -0.5836174580308564 -0.7480896233538858 0.3158363153784614
vn -0.5836174580308564 -0.7480896233538858 0.3158363153784614
vn -0.5836174580308564 -0.7480896233538858 0.3158363153784614
vn -0.5836174580308564 0.7480896233538858 -0.3158363153784614
vn -0.5836174580308564 0.7480896233538858 -0.3158363153784614
vn -0.5836174580308564 0.7480896233538858 -0.3158363153784614
vn -0.5792298759408336 0.3084432102906689 0.7545565166660168
vn -0.5792298759408336 0.3084432102906689 0.7545565166660168
vn -0.5792298759408336 0.3084432102906689 0.7545565166660168
vn 0.5792298759408336 -0.3084432102906689 -0.7545565166660168
vn 0.5792298759408336 -0.3084432102906689 -0.7545565166660168
vn 0.5792298759408336 -0.3084432102906689 -0.7545565166660168
vn 0.5836174580308564 -0.7480896233538858 0.3158363153784614
vn 0.5836174580308564 -0.7480896233538858 0.3158363153784614
vn 0.5836174580308564 -0.7480896233538858 0.3158363153784614
vn 0.5836174580308564 0.7480896233538858 -0.3158363153784614
vn 0.5836174580308564 0.7480896233538858 -0.3158363153784614
vn 0.5836174580308564 0.7480896233538858 -0.3158363153784614
vn 0.5792298759408336 0.3084432102906689 0.7545565166660168
vn 0.5792298759408336 0.3084432102906689 0.7545565166660168
vn 0.5792298759408336 0.3084432102906689 0.7545565166660168
f 85//85 86//86 87//87
f 88//88 89//89 90//90
f 91//91 92//92 93//93
f 94//94 95//95 96//96
f 97//97 98//98 99//99
f 100//100 101//101 102//102
f 103//103 104//104 105//105
f 106//106 107//107 108//108
f 109//109 110//110 111//111
f 112//112 113//113 114//114
f 115//115 116//116 117//117
f 118//118 119//119 120//120
f 121//121 122//122 123//123
f 124//124 125//125 126//126
f 127//127 128//128 129//129
f 130//130 131//131 132//132
f 133//133 134//134 135//135
f 136//136 137//137 138//138
f 139//139 140//140 141//141
f 142//142 143//143 144//144
f 145//145 146//146 147//147
f 148//148 149//149 150//150
f 151//151 152//152 153//153
f 154//154 155//155 156//156
f 157//157 158//158 159//159
f 160//160 161//161 162//162
f 163//163 164//164 165//165
f 166//166 167//167 168//168
f 169//169 170//170 171//171
f 172//172 173//173 174//174
f 175//175 176//176 177//177
f 178//178 179//179 180//180
f 181//181 182//182 183//183
f 184//184 185//185 186//186
f 187//187 188//188 189//189
f 190//190 191//191 192//192
f 193//193 194//194 195//195
f 196//196 197//197 198//198
f 199//199 200//200 201//201
f 202//202 203//203 204//204
f 205//205 206//206 207//207
f 208//208 209//209 210//210
f 211//211 212//212 213//213
f 214//214 215//215 216//216
o kick_l
usemtl cobalt
v -0.8999999761581421 0.059803035110235214 4.266232490539551
v -0.8999999761581421 0.3388838469982147 4.795833587646484
v -0.8999999761581421 0.3388838469982147 4.266232490539551
v -0.8999999761581421 0.059803035110235214 4.266232490539551
v -0.8999999761581421 0.059803035110235214 4.795833587646484
v -0.8999999761581421 0.3388838469982147 4.795833587646484
v -0.606521725654602 0.059803035110235214 4.266232490539551
v -0.606521725654602 0.3388838469982147 4.266232490539551
v -0.606521725654602 0.3388838469982147 4.795833587646484
v -0.606521725654602 0.059803035110235214 4.266232490539551
v -0.606521725654602 0.3388838469982147 4.795833587646484
v -0.606521725654602 0.059803035110235214 4.795833587646484
v -0.8706521391868591 0.029901515692472458 4.266232490539551
v -0.6358695030212402 0.029901515692472458 4.266232490539551
v -0.6358695030212402 0.029901515692472458 4.795833587646484
v -0.8706521391868591 0.029901515692472458 4.266232490539551
v -0.6358695030212402 0.029901515692472458 4.795833587646484
v -0.8706521391868591 0.029901515692472458 4.795833587646484
v -0.8706521391868591 0.36878538131713867 4.266232490539551
v -0.6358695030212402 0.36878538131713867 4.795833587646484
v -0.6358695030212402 0.36878538131713867 4.266232490539551
v -0.8706521391868591 0.36878538131713867 4.266232490539551
v -0.8706521391868591 0.36878538131713867 4.795833587646484
v -0.6358695030212402 0.36878538131713867 4.795833587646484
v -0.8706521391868591 0.059803035110235214 4.236810207366943
v -0.6358695030212402 0.3388838469982147 4.236810207366943
v -0.6358695030212402 0.059803035110235214 4.236810207366943
v -0.8706521391868591 0.059803035110235214 4.236810207366943
v -0.8706521391868591 0.3388838469982147 4.236810207366943
v -0.6358695030212402 0.3388838469982147 4.236810207366943
v -0.8706521391868591 0.059803035110235214 4.82525634765625
v -0.6358695030212402 0.059803035110235214 4.82525634765625
v -0.6358695030212402 0.3388838469982147 4.82525634765625
v -0.8706521391868591 0.059803035110235214 4.82525634765625
v -0.6358695030212402 0.3388838469982147 4.82525634765625
v -0.8706521391868591 0.3388838469982147 4.82525634765625
v -0.8999999761581421 0.059803035110235214 4.266232490539551
v -0.8706521391868591 0.029901515692472458 4.266232490539551
v -0.8706521391868591 0.029901515692472458 4.795833587646484
v -0.8999999761581421 0.059803035110235214 4.266232490539551
v -0.8706521391868591 0.029901515692472458 4.795833587646484
v -0.8999999761581421 0.059803035110235214 4.795833587646484
v -0.8999999761581421 0.3388838469982147 4.266232490539551
v -0.8706521391868591 0.36878538131713867 4.795833587646484
v -0.8706521391868591 0.36878538131713867 4.266232490539551
v -0.8999999761581421 0.3388838469982147 4.266232490539551
v -0.8999999761581421 0.3388838469982147 4.795833587646484
v -0.8706521391868591 0.36878538131713867 4.795833587646484
v -0.606521725654602 0.059803035110235214 4.266232490539551
v -0.6358695030212402 0.029901515692472458 4.795833587646484
v -0.6358695030212402 0.029901515692472458 4.266232490539551
v -0.606521725654602 0.059803035110235214 4.266232490539551
v -0.606521725654602 0.059803035110235214 4.795833587646484
v -0.6358695030212402 0.029901515692472458 4.795833587646484
v -0.606521725654602 0.3388838469982147 4.266232490539551
v -0.6358695030212402 0.36878538131713867 4.266232490539551
v -0.6358695030212402 0.36878538131713867 4.795833587646484
v -0.606521725654602 0.3388838469982147 4.266232490539551
v -0.6358695030212402 0.36878538131713867 4.795833587646484
v -0.606521725654602 0.3388838469982147 4.795833587646484
v -0.8999999761581421 0.059803035110235214 4.266232490539551
v -0.8706521391868591 0.3388838469982147 4.236810207366943
v -0.8706521391868591 0.059803035110235214 4.236810207366943
v -0.8999999761581421 0.059803035110235214 4.266232490539551
v -0.8999999761581421 0.3388838469982147 4.266232490539551
v -0.8706521391868591 0.3388838469982147 4.236810207366943
v -0.8999999761581421 0.059803035110235214 4.795833587646484
v -0.8706521391868591 0.059803035110235214 4.82525634765625
v -0.8706521391868591 0.3388838469982147 4.82525634765625
v -0.8999999761581421 0.059803035110235214 4.795833587646484
v -0.8706521391868591 0.3388838469982147 4.82525634765625
v -0.8999999761581421 0.3388838469982147 4.795833587646484
v -0.606521725654602 0.059803035110235214 4.266232490539551
v -0.6358695030212402 0.059803035110235214 4.236810207366943
v -0.6358695030212402 0.3388838469982147 4.236810207366943
v -0.606521725654602 0.059803035110235214 4.266232490539551
v -0.6358695030212402 0.3388838469982147 4.236810207366943
v -0.606521725654602 0.3388838469982147 4.266232490539551
v -0.606521725654602 0.059803035110235214 4.795833587646484
v -0.6358695030212402 0.3388838469982147 4.82525634765625
v -0.6358695030212402 0.059803035110235214 4.82525634765625
v -0.606521725654602 0.059803035110235214 4.795833587646484
v -0.606521725654602 0.3388838469982147 4.795833587646484
v -0.6358695030212402 0.3388838469982147 4.82525634765625
v -0.8706521391868591 0.029901515692472458 4.266232490539551
v -0.8706521391868591 0.059803035110235214 4.236810207366943
v -0.6358695030212402 0.059803035110235214 4.236810207366943
v -0.8706521391868591 0.029901515692472458 4.266232490539551
v -0.6358695030212402 0.059803035110235214 4.236810207366943
v -0.6358695030212402 0.029901515692472458 4.266232490539551
v -0.8706521391868591 0.029901515692472458 4.795833587646484
v -0.6358695030212402 0.059803035110235214 4.82525634765625
v -0.8706521391868591 0.059803035110235214 4.82525634765625
v -0.8706521391868591 0.029901515692472458 4.795833587646484
v -0.6358695030212402 0.029901515692472458 4.795833587646484
v -0.6358695030212402 0.059803035110235214 4.82525634765625
v -0.8706521391868591 0.36878538131713867 4.266232490539551
v -0.6358695030212402 0.3388838469982147 4.236810207366943
v -0.8706521391868591 0.3388838469982147 4.236810207366943
v -0.8706521391868591 0.36878538131713867 4.266232490539551
v -0.6358695030212402 0.36878538131713867 4.266232490539551
v -0.6358695030212402 0.3388838469982147 4.236810207366943
v -0.8706521391868591 0.36878538131713867 4.795833587646484
v -0.8706521391868591 0.3388838469982147 4.82525634765625
v -0.6358695030212402 0.3388838469982147 4.82525634765625
v -0.8706521391868591 0.36878538131713867 4.795833587646484
v -0.6358695030212402 0.3388838469982147 4.82525634765625
v -0.6358695030212402 0.36878538131713867 4.795833587646484
v -0.8999999761581421 0.059803035110235214 4.266232490539551
v -0.8706521391868591 0.059803035110235214 4.236810207366943
v -0.8706521391868591 0.029901515692472458 4.266232490539551
v -0.8999999761581421 0.059803035110235214 4.795833587646484
v -0.8706521391868591 0.029901515692472458 4.795833587646484
v -0.8706521391868591 0.059803035110235214 4.82525634765625
v -0.8999999761581421 0.3388838469982147 4.266232490539551
v -0.8706521391868591 0.36878538131713867 4.266232490539551
v -0.8706521391868591 0.3388838469982147 4.236810207366943
v -0.8999999761581421 0.3388838469982147 4.795833587646484
v -0.8706521391868591 0.3388838469982147 4.82525634765625
v -0.8706521391868591 0.36878538131713867 4.795833587646484
v -0.606521725654602 0.059803035110235214 4.266232490539551
v -0.6358695030212402 0.029901515692472458 4.266232490539551
v -0.6358695030212402 0.059803035110235214 4.236810207366943
v -0.606521725654602 0.059803035110235214 4.795833587646484
v -0.6358695030212402 0.059803035110235214 4.82525634765625
v -0.6358695030212402 0.029901515692472458 4.795833587646484
v -0.606521725654602 0.3388838469982147 4.266232490539551
v -0.6358695030212402 0.3388838469982147 4.236810207366943
v -0.6358695030212402 0.36878538131713867 4.266232490539551
v -0.606521725654602 0.3388838469982147 4.795833587646484
v -0.6358695030212402 0.36878538131713867 4.795833587646484
v -0.6358695030212402 0.3388838469982147 4.82525634765625
vn -1 0 0
vn -1 0 0
vn -1 0 0
vn -1 0 0
vn -1 0 0
vn -1 0 0
vn 1 0 0
vn 1 0 0
vn 1 0 0
vn 1 0 0
vn 1 0 0
vn 1 0 0
vn 0 -1 0
vn 0 -1 0
vn 0 -1 0
vn 0 -1 0
vn 0 -1 0
vn 0 -1 0
vn 0 1 0
vn 0 1 0
vn 0 1 0
vn 0 1 0
vn 0 1 0
vn 0 1 0
vn 0 0 -1
vn 0 0 -1
vn 0 0 -1
vn 0 0 -1
vn 0 0 -1
vn 0 0 -1
vn 0 0 1
vn 0 0 1
vn 0 0 1
vn 0 0 1
vn 0 0 1
vn 0 0 1
vn -0.7136835002740771 -0.7004683157977536 0
vn -0.7136835002740771 -0.7004683157977536 0
vn -0.7136835002740771 -0.7004683157977536 0
vn -0.7136835002740771 -0.7004683157977536 0
vn -0.7136835002740771 -0.7004683157977536 0
vn -0.7136835002740771 -0.7004683157977536 0
vn -0.7136835002740771 0.7004683157977536 0
vn -0.7136835002740771 0.7004683157977536 0
vn -0.7136835002740771 0.7004683157977536 0
vn -0.7136835002740771 0.7004683157977536 0
vn -0.7136835002740771 0.7004683157977536 0
vn -0.7136835002740771 0.7004683157977536 0
vn 0.7136835002740771 -0.7004683157977536 0
vn 0.7136835002740771 -0.7004683157977536 0
vn 0.7136835002740771 -0.7004683157977536 0
vn 0.7136835002740771 -0.7004683157977536 0
vn 0.7136835002740771 -0.7004683157977536 0
vn 0.7136835002740771 -0.7004683157977536 0
vn 0.7136835002740771 0.7004683157977536 0
vn 0.7136835002740771 0.7004683157977536 0
vn 0.7136835002740771 0.7004683157977536 0
vn 0.7136835002740771 0.7004683157977536 0
vn 0.7136835002740771 0.7004683157977536 0
vn 0.7136835002740771 0.7004683157977536 0
vn -0.7080021012790592 0 -0.706210326025071
vn -0.7080021012790592 0 -0.706210326025071
vn -0.7080021012790592 0 -0.706210326025071
vn -0.7080021012790592 0 -0.706210326025071
vn -0.7080021012790592 0 -0.706210326025071
vn -0.7080021012790592 0 -0.706210326025071
vn -0.7080021012790592 0 0.706210326025071
vn -0.7080021012790592 0 0.706210326025071
vn -0.7080021012790592 0 0.706210326025071
vn -0.7080021012790592 0 0.706210326025071
vn -0.7080021012790592 0 0.706210326025071
vn -0.7080021012790592 0 0.706210326025071
vn 0.7080021012790592 0 -0.706210326025071
vn 0.7080021012790592 0 -0.706210326025071
vn 0.7080021012790592 0 -0.706210326025071
vn 0.7080021012790592 0 -0.706210326025071
vn 0.7080021012790592 0 -0.706210326025071
vn 0.7080021012790592 0 -0.706210326025071
vn 0.7080021012790592 0 0.706210326025071
vn 0.7080021012790592 0 0.706210326025071
vn 0.7080021012790592 0 0.706210326025071
vn 0.7080021012790592 0 0.706210326025071
vn 0.7080021012790592 0 0.706210326025071
vn 0.7080021012790592 0 0.706210326025071
vn 0 -0.7013717975991451 -0.7127956239572069
vn 0 -0.7013717975991451 -0.7127956239572069
vn 0 -0.7013717975991451 -0.7127956239572069
vn 0 -0.7013717975991451 -0.7127956239572069
vn 0 -0.7013717975991451 -0.7127956239572069
vn 0 -0.7013717975991451 -0.7127956239572069
vn 0 -0.7013717975991451 0.7127956239572069
vn 0 -0.7013717975991451 0.7127956239572069
vn 0 -0.7013717975991451 0.7127956239572069
vn 0 -0.7013717975991451 0.7127956239572069
vn 0 -0.7013717975991451 0.7127956239572069
vn 0 -0.7013717975991451 0.7127956239572069
vn 0 0.7013717975991451 -0.7127956239572069
vn 0 0.7013717975991451 -0.7127956239572069
vn 0 0.7013717975991451 -0.7127956239572069
vn 0 0.7013717975991451 -0.7127956239572069
vn 0 0.7013717975991451 -0.7127956239572069
vn 0 0.7013717975991451 -0.7127956239572069
vn 0 0.7013717975991451 0.7127956239572069
vn 0 0.7013717975991451 0.7127956239572069
vn 0 0.7013717975991451 0.7127956239572069
vn 0 0.7013717975991451 0.7127956239572069
vn 0 0.7013717975991451 0.7127956239572069
vn 0 0.7013717975991451 0.7127956239572069
vn -0.5814097378629528 -0.5706437683782947 -0.5799382780340951
vn -0.5814097378629528 -0.5706437683782947 -0.5799382780340951
vn -0.5814097378629528 -0.5706437683782947 -0.5799382780340951
vn -0.5814097378629528 -0.5706437683782947 0.5799382780340951
vn -0.5814097378629528 -0.5706437683782947 0.5799382780340951
vn -0.5814097378629528 -0.5706437683782947 0.5799382780340951
vn -0.5814097378629528 0.5706437683782947 -0.5799382780340951
vn -0.5814097378629528 0.5706437683782947 -0.5799382780340951
vn -0.5814097378629528 0.5706437683782947 -0.5799382780340951
vn -0.5814097378629528 0.5706437683782947 0.5799382780340951
vn -0.5814097378629528 0.5706437683782947 0.5799382780340951
vn -0.5814097378629528 0.5706437683782947 0.5799382780340951
vn 0.5814097378629528 -0.5706437683782947 -0.5799382780340951
vn 0.5814097378629528 -0.5706437683782947 -0.5799382780340951
vn 0.5814097378629528 -0.5706437683782947 -0.5799382780340951
vn 0.5814097378629528 -0.5706437683782947 0.5799382780340951
vn 0.5814097378629528 -0.5706437683782947 0.5799382780340951
vn 0.5814097378629528 -0.5706437683782947 0.5799382780340951
vn 0.5814097378629528 0.5706437683782947 -0.5799382780340951
vn 0.5814097378629528 0.5706437683782947 -0.5799382780340951
vn 0.5814097378629528 0.5706437683782947 -0.5799382780340951
vn 0.5814097378629528 0.5706437683782947 0.5799382780340951
vn 0.5814097378629528 0.5706437683782947 0.5799382780340951
vn 0.5814097378629528 0.5706437683782947 0.5799382780340951
f 217//217 218//218 219//219
f 220//220 221//221 222//222
f 223//223 224//224 225//225
f 226//226 227//227 228//228
f 229//229 230//230 231//231
f 232//232 233//233 234//234
f 235//235 236//236 237//237
f 238//238 239//239 240//240
f 241//241 242//242 243//243
f 244//244 245//245 246//246
f 247//247 248//248 249//249
f 250//250 251//251 252//252
f 253//253 254//254 255//255
f 256//256 257//257 258//258
f 259//259 260//260 261//261
f 262//262 263//263 264//264
f 265//265 266//266 267//267
f 268//268 269//269 270//270
f 271//271 272//272 273//273
f 274//274 275//275 276//276
f 277//277 278//278 279//279
f 280//280 281//281 282//282
f 283//283 284//284 285//285
f 286//286 287//287 288//288
f 289//289 290//290 291//291
f 292//292 293//293 294//294
f 295//295 296//296 297//297
f 298//298 299//299 300//300
f 301//301 302//302 303//303
f 304//304 305//305 306//306
f 307//307 308//308 309//309
f 310//310 311//311 312//312
f 313//313 314//314 315//315
f 316//316 317//317 318//318
f 319//319 320//320 321//321
f 322//322 323//323 324//324
f 325//325 326//326 327//327
f 328//328 329//329 330//330
f 331//331 332//332 333//333
f 334//334 335//335 336//336
f 337//337 338//338 339//339
f 340//340 341//341 342//342
f 343//343 344//344 345//345
f 346//346 347//347 348//348
o rail_r
usemtl cobalt
v 0.626086950302124 4.267016410827637 -4.972805500030518
v 0.626086950302124 0.5670621395111084 4.972805500030518
v 0.626086950302124 4.672362804412842 -4.808080673217773
v 0.626086950302124 4.267016410827637 -4.972805500030518
v 0.626086950302124 0.16171593964099884 4.808080673217773
v 0.626086950302124 0.5670621395111084 4.972805500030518
v 0.8804347515106201 4.267016410827637 -4.972805500030518
v 0.8804347515106201 4.672362804412842 -4.808080673217773
v 0.8804347515106201 0.5670621395111084 4.972805500030518
v 0.8804347515106201 4.267016410827637 -4.972805500030518
v 0.8804347515106201 0.5670621395111084 4.972805500030518
v 0.8804347515106201 0.16171593964099884 4.808080673217773
v 0.655434787273407 4.239379405975342 -4.984036445617676
v 0.8510869741439819 4.239379405975342 -4.984036445617676
v 0.8510869741439819 0.13407868146896362 4.796849250793457
v 0.655434787273407 4.239379405975342 -4.984036445617676
v 0.8510869741439819 0.13407868146896362 4.796849250793457
v 0.655434787273407 0.13407868146896362 4.796849250793457
v 0.655434787273407 4.699999809265137 -4.796849250793457
v 0.8510869741439819 0.5946993827819824 4.984036445617676
v 0.8510869741439819 4.699999809265137 -4.796849250793457
v 0.655434787273407 4.699999809265137 -4.796849250793457
v 0.655434787273407 0.5946993827819824 4.984036445617676
v 0.8510869741439819 0.5946993827819824 4.984036445617676
v 0.655434787273407 4.278430938720703 -5
v 0.8510869741439819 4.68377685546875 -4.835275173187256
v 0.8510869741439819 4.278430938720703 -5
v 0.655434787273407 4.278430938720703 -5
v 0.655434787273407 4.68377685546875 -4.835275173187256
v 0.8510869741439819 4.68377685546875 -4.835275173187256
v 0.655434787273407 0.15030166506767273 4.835275173187256
v 0.8510869741439819 0.15030166506767273 4.835275173187256
v 0.8510869741439819 0.5556479096412659 5
v 0.655434787273407 0.15030166506767273 4.835275173187256
v 0.8510869741439819 0.5556479096412659 5
v 0.655434787273407 0.5556479096412659 5
v 0.626086950302124 4.267016410827637 -4.972805500030518
v 0.655434787273407 4.239379405975342 -4.984036445617676
v 0.655434787273407 0.13407868146896362 4.796849250793457
v 0.626086950302124 4.267016410827637 -4.972805500030518
v 0.655434787273407 0.13407868146896362 4.796849250793457
v 0.626086950302124 0.16171593964099884 4.808080673217773
v 0.626086950302124 4.672362804412842 -4.808080673217773
v 0.655434787273407 0.5946993827819824 4.984036445617676
v 0.655434787273407 4.699999809265137 -4.796849250793457
v 0.626086950302124 4.672362804412842 -4.808080673217773
v 0.626086950302124 0.5670621395111084 4.972805500030518
v 0.655434787273407 0.5946993827819824 4.984036445617676
v 0.8804347515106201 4.267016410827637 -4.972805500030518
v 0.8510869741439819 0.13407868146896362 4.796849250793457
v 0.8510869741439819 4.239379405975342 -4.984036445617676
v 0.8804347515106201 4.267016410827637 -4.972805500030518
v 0.8804347515106201 0.16171593964099884 4.808080673217773
v 0.8510869741439819 0.13407868146896362 4.796849250793457
v 0.8804347515106201 4.672362804412842 -4.808080673217773
v 0.8510869741439819 4.699999809265137 -4.796849250793457
v 0.8510869741439819 0.5946993827819824 4.984036445617676
v 0.8804347515106201 4.672362804412842 -4.808080673217773
v 0.8510869741439819 0.5946993827819824 4.984036445617676
v 0.8804347515106201 0.5670621395111084 4.972805500030518
v 0.626086950302124 4.267016410827637 -4.972805500030518
v 0.655434787273407 4.68377685546875 -4.835275173187256
v 0.655434787273407 4.278430938720703 -5
v 0.626086950302124 4.267016410827637 -4.972805500030518
v 0.626086950302124 4.672362804412842 -4.808080673217773
v 0.655434787273407 4.68377685546875 -4.835275173187256
v 0.626086950302124 0.16171593964099884 4.808080673217773
v 0.655434787273407 0.15030166506767273 4.835275173187256
v 0.655434787273407 0.5556479096412659 5
v 0.626086950302124 0.16171593964099884 4.808080673217773
v 0.655434787273407 0.5556479096412659 5
v 0.626086950302124 0.5670621395111084 4.972805500030518
v 0.8804347515106201 4.267016410827637 -4.972805500030518
v 0.8510869741439819 4.278430938720703 -5
v 0.8510869741439819 4.68377685546875 -4.835275173187256
v 0.8804347515106201 4.267016410827637 -4.972805500030518
v 0.8510869741439819 4.68377685546875 -4.835275173187256
v 0.8804347515106201 4.672362804412842 -4.808080673217773
v 0.8804347515106201 0.16171593964099884 4.808080673217773
v 0.8510869741439819 0.5556479096412659 5
v 0.8510869741439819 0.15030166506767273 4.835275173187256
v 0.8804347515106201 0.16171593964099884 4.808080673217773
v 0.8804347515106201 0.5670621395111084 4.972805500030518
v 0.8510869741439819 0.5556479096412659 5
v 0.655434787273407 4.239379405975342 -4.984036445617676
v 0.655434787273407 4.278430938720703 -5
v 0.8510869741439819 4.278430938720703 -5
v 0.655434787273407 4.239379405975342 -4.984036445617676
v 0.8510869741439819 4.278430938720703 -5
v 0.8510869741439819 4.239379405975342 -4.984036445617676
v 0.655434787273407 0.13407868146896362 4.796849250793457
v 0.8510869741439819 0.15030166506767273 4.835275173187256
v 0.655434787273407 0.15030166506767273 4.835275173187256
v 0.655434787273407 0.13407868146896362 4.796849250793457
v 0.8510869741439819 0.13407868146896362 4.796849250793457
v 0.8510869741439819 0.15030166506767273 4.835275173187256
v 0.655434787273407 4.699999809265137 -4.796849250793457
v 0.8510869741439819 4.68377685546875 -4.835275173187256
v 0.655434787273407 4.68377685546875 -4.835275173187256
v 0.655434787273407 4.699999809265137 -4.796849250793457
v 0.8510869741439819 4.699999809265137 -4.796849250793457
v 0.8510869741439819 4.68377685546875 -4.835275173187256
v 0.655434787273407 0.5946993827819824 4.984036445617676
v 0.655434787273407 0.5556479096412659 5
v 0.8510869741439819 0.5556479096412659 5
v 0.655434787273407 0.5946993827819824 4.984036445617676
v 0.8510869741439819 0.5556479096412659 5
v 0.8510869741439819 0.5946993827819824 4.984036445617676
v 0.626086950302124 4.267016410827637 -4.972805500030518
v 0.655434787273407 4.278430938720703 -5
v 0.655434787273407 4.239379405975342 -4.984036445617676
v 0.626086950302124 0.16171593964099884 4.808080673217773
v 0.655434787273407 0.13407868146896362 4.796849250793457
v 0.655434787273407 0.15030166506767273 4.835275173187256
v 0.626086950302124 4.672362804412842 -4.808080673217773
v 0.655434787273407 4.699999809265137 -4.796849250793457
v 0.655434787273407 4.68377685546875 -4.835275173187256
v 0.626086950302124 0.5670621395111084 4.972805500030518
v 0.655434787273407 0.5556479096412659 5
v 0.655434787273407 0.5946993827819824 4.984036445617676
v 0.8804347515106201 4.267016410827637 -4.972805500030518
v 0.8510869741439819 4.239379405975342 -4.984036445617676
v 0.8510869741439819 4.278430938720703 -5
v 0.8804347515106201 0.16171593964099884 4.808080673217773
v 0.8510869741439819 0.15030166506767273 4.835275173187256
v 0.8510869741439819 0.13407868146896362 4.796849250793457
v 0.8804347515106201 4.672362804412842 -4.808080673217773
v 0.8510869741439819 4.68377685546875 -4.835275173187256
v 0.8510869741439819 4.699999809265137 -4.796849250793457
v 0.8804347515106201 0.5670621395111084 4.972805500030518
v 0.8510869741439819 0.5946993827819824 4.984036445617676
v 0.8510869741439819 0.5556479096412659 5
vn -1 0 0
vn -1 0 0
vn -1 0 0
vn -1 0 0
vn -1 0 0
vn -1 0 0
vn 1 0 0
vn 1 0 0
vn 1 0 0
vn 1 0 0
vn 1 0 0
vn 1 0 0
vn 0 -0.9220719876242637 -0.3870184099479503
vn 0 -0.9220719876242637 -0.3870184099479503
vn 0 -0.9220719876242637 -0.3870184099479503
vn 0 -0.9220719876242637 -0.3870184099479503
vn 0 -0.9220719876242637 -0.3870184099479503
vn 0 -0.9220719876242637 -0.3870184099479503
vn 0 0.9220719876242637 0.3870184099479503
vn 0 0.9220719876242637 0.3870184099479503
vn 0 0.9220719876242637 0.3870184099479503
vn 0 0.9220719876242637 0.3870184099479503
vn 0 0.9220719876242637 0.3870184099479503
vn 0 0.9220719876242637 0.3870184099479503
vn 0 0.376481176541258 -0.9264242676604009
vn 0 0.376481176541258 -0.9264242676604009
vn 0 0.376481176541258 -0.9264242676604009
vn 0 0.376481176541258 -0.9264242676604009
vn 0 0.376481176541258 -0.9264242676604009
vn 0 0.376481176541258 -0.9264242676604009
vn 0 -0.376481176541258 0.9264242676604009
vn 0 -0.376481176541258 0.9264242676604009
vn 0 -0.376481176541258 0.9264242676604009
vn 0 -0.376481176541258 0.9264242676604009
vn 0 -0.376481176541258 0.9264242676604009
vn 0 -0.376481176541258 0.9264242676604009
vn -0.7128473435673763 -0.6466668171426125 -0.27142345583161676
vn -0.7128473435673763 -0.6466668171426125 -0.27142345583161676
vn -0.7128473435673763 -0.6466668171426125 -0.27142345583161676
vn -0.7128473435673763 -0.6466668171426125 -0.27142345583161676
vn -0.7128473435673763 -0.6466668171426125 -0.27142345583161676
vn -0.7128473435673763 -0.6466668171426125 -0.27142345583161676
vn -0.7128473435673763 0.6466668171426125 0.27142345583161676
vn -0.7128473435673763 0.6466668171426125 0.27142345583161676
vn -0.7128473435673763 0.6466668171426125 0.27142345583161676
vn -0.7128473435673763 0.6466668171426125 0.27142345583161676
vn -0.7128473435673763 0.6466668171426125 0.27142345583161676
vn -0.7128473435673763 0.6466668171426125 0.27142345583161676
vn 0.7128473435673763 -0.6466668171426125 -0.27142345583161676
vn 0.7128473435673763 -0.6466668171426125 -0.27142345583161676
vn 0.7128473435673763 -0.6466668171426125 -0.27142345583161676
vn 0.7128473435673763 -0.6466668171426125 -0.27142345583161676
vn 0.7128473435673763 -0.6466668171426125 -0.27142345583161676
vn 0.7128473435673763 -0.6466668171426125 -0.27142345583161676
vn 0.7128473435673763 0.6466668171426125 0.27142345583161676
vn 0.7128473435673763 0.6466668171426125 0.27142345583161676
vn 0.7128473435673763 0.6466668171426125 0.27142345583161676
vn 0.7128473435673763 0.6466668171426125 0.27142345583161676
vn 0.7128473435673763 0.6466668171426125 0.27142345583161676
vn 0.7128473435673763 0.6466668171426125 0.27142345583161676
vn -0.708824145665554 0.26556425835265146 -0.653486002303878
vn -0.708824145665554 0.26556425835265146 -0.653486002303878
vn -0.708824145665554 0.26556425835265146 -0.653486002303878
vn -0.708824145665554 0.26556425835265146 -0.653486002303878
vn -0.708824145665554 0.26556425835265146 -0.653486002303878
vn -0.708824145665554 0.26556425835265146 -0.653486002303878
vn -0.708824145665554 -0.26556425835265146 0.653486002303878
vn -0.708824145665554 -0.26556425835265146 0.653486002303878
vn -0.708824145665554 -0.26556425835265146 0.653486002303878
vn -0.708824145665554 -0.26556425835265146 0.653486002303878
vn -0.708824145665554 -0.26556425835265146 0.653486002303878
vn -0.708824145665554 -0.26556425835265146 0.653486002303878
vn 0.708824145665554 0.26556425835265146 -0.653486002303878
vn 0.708824145665554 0.26556425835265146 -0.653486002303878
vn 0.708824145665554 0.26556425835265146 -0.653486002303878
vn 0.708824145665554 0.26556425835265146 -0.653486002303878
vn 0.708824145665554 0.26556425835265146 -0.653486002303878
vn 0.708824145665554 0.26556425835265146 -0.653486002303878
vn 0.708824145665554 -0.26556425835265146 0.653486002303878
vn 0.708824145665554 -0.26556425835265146 0.653486002303878
vn 0.708824145665554 -0.26556425835265146 0.653486002303878
vn 0.708824145665554 -0.26556425835265146 0.653486002303878
vn 0.708824145665554 -0.26556425835265146 0.653486002303878
vn 0.708824145665554 -0.26556425835265146 0.653486002303878
vn 0 -0.3783816582344404 -0.9256496749374221
vn 0 -0.3783816582344404 -0.9256496749374221
vn 0 -0.3783816582344404 -0.9256496749374221
vn 0 -0.3783816582344404 -0.9256496749374221
vn 0 -0.3783816582344404 -0.9256496749374221
vn 0 -0.3783816582344404 -0.9256496749374221
vn 0 -0.9212600427633445 0.38894721185230385
vn 0 -0.9212600427633445 0.38894721185230385
vn 0 -0.9212600427633445 0.38894721185230385
vn 0 -0.9212600427633445 0.38894721185230385
vn 0 -0.9212600427633445 0.38894721185230385
vn 0 -0.9212600427633445 0.38894721185230385
vn 0 0.9212600427633445 -0.38894721185230385
vn 0 0.9212600427633445 -0.38894721185230385
vn 0 0.9212600427633445 -0.38894721185230385
vn 0 0.9212600427633445 -0.38894721185230385
vn 0 0.9212600427633445 -0.38894721185230385
vn 0 0.9212600427633445 -0.38894721185230385
vn 0 0.3783816582344404 0.9256496749374221
vn 0 0.3783816582344404 0.9256496749374221
vn 0 0.3783816582344404 0.9256496749374221
vn 0 0.3783816582344404 0.9256496749374221
vn 0 0.3783816582344404 0.9256496749374221
vn 0 0.3783816582344404 0.9256496749374221
vn -0.5792298759408336 -0.3084432102906689 -0.7545565166660168
vn -0.5792298759408336 -0.3084432102906689 -0.7545565166660168
vn -0.5792298759408336 -0.3084432102906689 -0.7545565166660168
vn -0.5836174580308564 -0.7480896233538858 0.3158363153784614
vn -0.5836174580308564 -0.7480896233538858 0.3158363153784614
vn -0.5836174580308564 -0.7480896233538858 0.3158363153784614
vn -0.5836174580308564 0.7480896233538858 -0.3158363153784614
vn -0.5836174580308564 0.7480896233538858 -0.3158363153784614
vn -0.5836174580308564 0.7480896233538858 -0.3158363153784614
vn -0.5792298759408336 0.3084432102906689 0.7545565166660168
vn -0.5792298759408336 0.3084432102906689 0.7545565166660168
vn -0.5792298759408336 0.3084432102906689 0.7545565166660168
vn 0.5792298759408336 -0.3084432102906689 -0.7545565166660168
vn 0.5792298759408336 -0.3084432102906689 -0.7545565166660168
vn 0.5792298759408336 -0.3084432102906689 -0.7545565166660168
vn 0.5836174580308564 -0.7480896233538858 0.3158363153784614
vn 0.5836174580308564 -0.7480896233538858 0.3158363153784614
vn 0.5836174580308564 -0.7480896233538858 0.3158363153784614
vn 0.5836174580308564 0.7480896233538858 -0.3158363153784614
vn 0.5836174580308564 0.7480896233538858 -0.3158363153784614
vn 0.5836174580308564 0.7480896233538858 -0.3158363153784614
vn 0.5792298759408336 0.3084432102906689 0.7545565166660168
vn 0.5792298759408336 0.3084432102906689 0.7545565166660168
vn 0.5792298759408336 0.3084432102906689 0.7545565166660168
f 349//349 350//350 351//351
f 352//352 353//353 354//354
f 355//355 356//356 357//357
f 358//358 359//359 360//360
f 361//361 362//362 363//363
f 364//364 365//365 366//366
f 367//367 368//368 369//369
f 370//370 371//371 372//372
f 373//373 374//374 375//375
f 376//376 377//377 378//378
f 379//379 380//380 381//381
f 382//382 383//383 384//384
f 385//385 386//386 387//387
f 388//388 389//389 390//390
f 391//391 392//392 393//393
f 394//394 395//395 396//396
f 397//397 398//398 399//399
f 400//400 401//401 402//402
f 403//403 404//404 405//405
f 406//406 407//407 408//408
f 409//409 410//410 411//411
f 412//412 413//413 414//414
f 415//415 416//416 417//417
f 418//418 419//419 420//420
f 421//421 422//422 423//423
f 424//424 425//425 426//426
f 427//427 428//428 429//429
f 430//430 431//431 432//432
f 433//433 434//434 435//435
f 436//436 437//437 438//438
f 439//439 440//440 441//441
f 442//442 443//443 444//444
f 445//445 446//446 447//447
f 448//448 449//449 450//450
f 451//451 452//452 453//453
f 454//454 455//455 456//456
f 457//457 458//458 459//459
f 460//460 461//461 462//462
f 463//463 464//464 465//465
f 466//466 467//467 468//468
f 469//469 470//470 471//471
f 472//472 473//473 474//474
f 475//475 476//476 477//477
f 478//478 479//479 480//480
o kick_r
usemtl cobalt
v 0.606521725654602 0.059803035110235214 4.266232490539551
v 0.606521725654602 0.3388838469982147 4.795833587646484
v 0.606521725654602 0.3388838469982147 4.266232490539551
v 0.606521725654602 0.059803035110235214 4.266232490539551
v 0.606521725654602 0.059803035110235214 4.795833587646484
v 0.606521725654602 0.3388838469982147 4.795833587646484
v 0.8999999761581421 0.059803035110235214 4.266232490539551
v 0.8999999761581421 0.3388838469982147 4.266232490539551
v 0.8999999761581421 0.3388838469982147 4.795833587646484
v 0.8999999761581421 0.059803035110235214 4.266232490539551
v 0.8999999761581421 0.3388838469982147 4.795833587646484
v 0.8999999761581421 0.059803035110235214 4.795833587646484
v 0.6358695030212402 0.029901515692472458 4.266232490539551
v 0.8706521391868591 0.029901515692472458 4.266232490539551
v 0.8706521391868591 0.029901515692472458 4.795833587646484
v 0.6358695030212402 0.029901515692472458 4.266232490539551
v 0.8706521391868591 0.029901515692472458 4.795833587646484
v 0.6358695030212402 0.029901515692472458 4.795833587646484
v 0.6358695030212402 0.36878538131713867 4.266232490539551
v 0.8706521391868591 0.36878538131713867 4.795833587646484
v 0.8706521391868591 0.36878538131713867 4.266232490539551
v 0.6358695030212402 0.36878538131713867 4.266232490539551
v 0.6358695030212402 0.36878538131713867 4.795833587646484
v 0.8706521391868591 0.36878538131713867 4.795833587646484
v 0.6358695030212402 0.059803035110235214 4.236810207366943
v 0.8706521391868591 0.3388838469982147 4.236810207366943
v 0.8706521391868591 0.059803035110235214 4.236810207366943
v 0.6358695030212402 0.059803035110235214 4.236810207366943
v 0.6358695030212402 0.3388838469982147 4.236810207366943
v 0.8706521391868591 0.3388838469982147 4.236810207366943
v 0.6358695030212402 0.059803035110235214 4.82525634765625
v 0.8706521391868591 0.059803035110235214 4.82525634765625
v 0.8706521391868591 0.3388838469982147 4.82525634765625
v 0.6358695030212402 0.059803035110235214 4.82525634765625
v 0.8706521391868591 0.3388838469982147 4.82525634765625
v 0.6358695030212402 0.3388838469982147 4.82525634765625
v 0.606521725654602 0.059803035110235214 4.266232490539551
v 0.6358695030212402 0.029901515692472458 4.266232490539551
v 0.6358695030212402 0.029901515692472458 4.795833587646484
v 0.606521725654602 0.059803035110235214 4.266232490539551
v 0.6358695030212402 0.029901515692472458 4.795833587646484
v 0.606521725654602 0.059803035110235214 4.795833587646484
v 0.606521725654602 0.3388838469982147 4.266232490539551
v 0.6358695030212402 0.36878538131713867 4.795833587646484
v 0.6358695030212402 0.36878538131713867 4.266232490539551
v 0.606521725654602 0.3388838469982147 4.266232490539551
v 0.606521725654602 0.3388838469982147 4.795833587646484
v 0.6358695030212402 0.36878538131713867 4.795833587646484
v 0.8999999761581421 0.059803035110235214 4.266232490539551
v 0.8706521391868591 0.029901515692472458 4.795833587646484
v 0.8706521391868591 0.029901515692472458 4.266232490539551
v 0.8999999761581421 0.059803035110235214 4.266232490539551
v 0.8999999761581421 0.059803035110235214 4.795833587646484
v 0.8706521391868591 0.029901515692472458 4.795833587646484
v 0.8999999761581421 0.3388838469982147 4.266232490539551
v 0.8706521391868591 0.36878538131713867 4.266232490539551
v 0.8706521391868591 0.36878538131713867 4.795833587646484
v 0.8999999761581421 0.3388838469982147 4.266232490539551
v 0.8706521391868591 0.36878538131713867 4.795833587646484
v 0.8999999761581421 0.3388838469982147 4.795833587646484
v 0.606521725654602 0.059803035110235214 4.266232490539551
v 0.6358695030212402 0.3388838469982147 4.236810207366943
v 0.6358695030212402 0.059803035110235214 4.236810207366943
v 0.606521725654602 0.059803035110235214 4.266232490539551
v 0.606521725654602 0.3388838469982147 4.266232490539551
v 0.6358695030212402 0.3388838469982147 4.236810207366943
v 0.606521725654602 0.059803035110235214 4.795833587646484
v 0.6358695030212402 0.059803035110235214 4.82525634765625
v 0.6358695030212402 0.3388838469982147 4.82525634765625
v 0.606521725654602 0.059803035110235214 4.795833587646484
v 0.6358695030212402 0.3388838469982147 4.82525634765625
v 0.606521725654602 0.3388838469982147 4.795833587646484
v 0.8999999761581421 0.059803035110235214 4.266232490539551
v 0.8706521391868591 0.059803035110235214 4.236810207366943
v 0.8706521391868591 0.3388838469982147 4.236810207366943
v 0.8999999761581421 0.059803035110235214 4.266232490539551
v 0.8706521391868591 0.3388838469982147 4.236810207366943
v 0.8999999761581421 0.3388838469982147 4.266232490539551
v 0.8999999761581421 0.059803035110235214 4.795833587646484
v 0.8706521391868591 0.3388838469982147 4.82525634765625
v 0.8706521391868591 0.059803035110235214 4.82525634765625
v 0.8999999761581421 0.059803035110235214 4.795833587646484
v 0.8999999761581421 0.3388838469982147 4.795833587646484
v 0.8706521391868591 0.3388838469982147 4.82525634765625
v 0.6358695030212402 0.029901515692472458 4.266232490539551
v 0.6358695030212402 0.059803035110235214 4.236810207366943
v 0.8706521391868591 0.059803035110235214 4.236810207366943
v 0.6358695030212402 0.029901515692472458 4.266232490539551
v 0.8706521391868591 0.059803035110235214 4.236810207366943
v 0.8706521391868591 0.029901515692472458 4.266232490539551
v 0.6358695030212402 0.029901515692472458 4.795833587646484
v 0.8706521391868591 0.059803035110235214 4.82525634765625
v 0.6358695030212402 0.059803035110235214 4.82525634765625
v 0.6358695030212402 0.029901515692472458 4.795833587646484
v 0.8706521391868591 0.029901515692472458 4.795833587646484
v 0.8706521391868591 0.059803035110235214 4.82525634765625
v 0.6358695030212402 0.36878538131713867 4.266232490539551
v 0.8706521391868591 0.3388838469982147 4.236810207366943
v 0.6358695030212402 0.3388838469982147 4.236810207366943
v 0.6358695030212402 0.36878538131713867 4.266232490539551
v 0.8706521391868591 0.36878538131713867 4.266232490539551
v 0.8706521391868591 0.3388838469982147 4.236810207366943
v 0.6358695030212402 0.36878538131713867 4.795833587646484
v 0.6358695030212402 0.3388838469982147 4.82525634765625
v 0.8706521391868591 0.3388838469982147 4.82525634765625
v 0.6358695030212402 0.36878538131713867 4.795833587646484
v 0.8706521391868591 0.3388838469982147 4.82525634765625
v 0.8706521391868591 0.36878538131713867 4.795833587646484
v 0.606521725654602 0.059803035110235214 4.266232490539551
v 0.6358695030212402 0.059803035110235214 4.236810207366943
v 0.6358695030212402 0.029901515692472458 4.266232490539551
v 0.606521725654602 0.059803035110235214 4.795833587646484
v 0.6358695030212402 0.029901515692472458 4.795833587646484
v 0.6358695030212402 0.059803035110235214 4.82525634765625
v 0.606521725654602 0.3388838469982147 4.266232490539551
v 0.6358695030212402 0.36878538131713867 4.266232490539551
v 0.6358695030212402 0.3388838469982147 4.236810207366943
v 0.606521725654602 0.3388838469982147 4.795833587646484
v 0.6358695030212402 0.3388838469982147 4.82525634765625
v 0.6358695030212402 0.36878538131713867 4.795833587646484
v 0.8999999761581421 0.059803035110235214 4.266232490539551
v 0.8706521391868591 0.029901515692472458 4.266232490539551
v 0.8706521391868591 0.059803035110235214 4.236810207366943
v 0.8999999761581421 0.059803035110235214 4.795833587646484
v 0.8706521391868591 0.059803035110235214 4.82525634765625
v 0.8706521391868591 0.029901515692472458 4.795833587646484
v 0.8999999761581421 0.3388838469982147 4.266232490539551
v 0.8706521391868591 0.3388838469982147 4.236810207366943
v 0.8706521391868591 0.36878538131713867 4.266232490539551
v 0.8999999761581421 0.3388838469982147 4.795833587646484
v 0.8706521391868591 0.36878538131713867 4.795833587646484
v 0.8706521391868591 0.3388838469982147 4.82525634765625
vn -1 0 0
vn -1 0 0
vn -1 0 0
vn -1 0 0
vn -1 0 0
vn -1 0 0
vn 1 0 0
vn 1 0 0
vn 1 0 0
vn 1 0 0
vn 1 0 0
vn 1 0 0
vn 0 -1 0
vn 0 -1 0
vn 0 -1 0
vn 0 -1 0
vn 0 -1 0
vn 0 -1 0
vn 0 1 0
vn 0 1 0
vn 0 1 0
vn 0 1 0
vn 0 1 0
vn 0 1 0
vn 0 0 -1
vn 0 0 -1
vn 0 0 -1
vn 0 0 -1
vn 0 0 -1
vn 0 0 -1
vn 0 0 1
vn 0 0 1
vn 0 0 1
vn 0 0 1
vn 0 0 1
vn 0 0 1
vn -0.7136835002740771 -0.7004683157977536 0
vn -0.7136835002740771 -0.7004683157977536 0
vn -0.7136835002740771 -0.7004683157977536 0
vn -0.7136835002740771 -0.7004683157977536 0
vn -0.7136835002740771 -0.7004683157977536 0
vn -0.7136835002740771 -0.7004683157977536 0
vn -0.7136835002740771 0.7004683157977536 0
vn -0.7136835002740771 0.7004683157977536 0
vn -0.7136835002740771 0.7004683157977536 0
vn -0.7136835002740771 0.7004683157977536 0
vn -0.7136835002740771 0.7004683157977536 0
vn -0.7136835002740771 0.7004683157977536 0
vn 0.7136835002740771 -0.7004683157977536 0
vn 0.7136835002740771 -0.7004683157977536 0
vn 0.7136835002740771 -0.7004683157977536 0
vn 0.7136835002740771 -0.7004683157977536 0
vn 0.7136835002740771 -0.7004683157977536 0
vn 0.7136835002740771 -0.7004683157977536 0
vn 0.7136835002740771 0.7004683157977536 0
vn 0.7136835002740771 0.7004683157977536 0
vn 0.7136835002740771 0.7004683157977536 0
vn 0.7136835002740771 0.7004683157977536 0
vn 0.7136835002740771 0.7004683157977536 0
vn 0.7136835002740771 0.7004683157977536 0
vn -0.7080021012790592 0 -0.706210326025071
vn -0.7080021012790592 0 -0.706210326025071
vn -0.7080021012790592 0 -0.706210326025071
vn -0.7080021012790592 0 -0.706210326025071
vn -0.7080021012790592 0 -0.706210326025071
vn -0.7080021012790592 0 -0.706210326025071
vn -0.7080021012790592 0 0.706210326025071
vn -0.7080021012790592 0 0.706210326025071
vn -0.7080021012790592 0 0.706210326025071
vn -0.7080021012790592 0 0.706210326025071
vn -0.7080021012790592 0 0.706210326025071
vn -0.7080021012790592 0 0.706210326025071
vn 0.7080021012790592 0 -0.706210326025071
vn 0.7080021012790592 0 -0.706210326025071
vn 0.7080021012790592 0 -0.706210326025071
vn 0.7080021012790592 0 -0.706210326025071
vn 0.7080021012790592 0 -0.706210326025071
vn 0.7080021012790592 0 -0.706210326025071
vn 0.7080021012790592 0 0.706210326025071
vn 0.7080021012790592 0 0.706210326025071
vn 0.7080021012790592 0 0.706210326025071
vn 0.7080021012790592 0 0.706210326025071
vn 0.7080021012790592 0 0.706210326025071
vn 0.7080021012790592 0 0.706210326025071
vn 0 -0.7013717975991451 -0.7127956239572069
vn 0 -0.7013717975991451 -0.7127956239572069
vn 0 -0.7013717975991451 -0.7127956239572069
vn 0 -0.7013717975991451 -0.7127956239572069
vn 0 -0.7013717975991451 -0.7127956239572069
vn 0 -0.7013717975991451 -0.7127956239572069
vn 0 -0.7013717975991451 0.7127956239572069
vn 0 -0.7013717975991451 0.7127956239572069
vn 0 -0.7013717975991451 0.7127956239572069
vn 0 -0.7013717975991451 0.7127956239572069
vn 0 -0.7013717975991451 0.7127956239572069
vn 0 -0.7013717975991451 0.7127956239572069
vn 0 0.7013717975991451 -0.7127956239572069
vn 0 0.7013717975991451 -0.7127956239572069
vn 0 0.7013717975991451 -0.7127956239572069
vn 0 0.7013717975991451 -0.7127956239572069
vn 0 0.7013717975991451 -0.7127956239572069
vn 0 0.7013717975991451 -0.7127956239572069
vn 0 0.7013717975991451 0.7127956239572069
vn 0 0.7013717975991451 0.7127956239572069
vn 0 0.7013717975991451 0.7127956239572069
vn 0 0.7013717975991451 0.7127956239572069
vn 0 0.7013717975991451 0.7127956239572069
vn 0 0.7013717975991451 0.7127956239572069
vn -0.5814097378629528 -0.5706437683782947 -0.5799382780340951
vn -0.5814097378629528 -0.5706437683782947 -0.5799382780340951
vn -0.5814097378629528 -0.5706437683782947 -0.5799382780340951
vn -0.5814097378629528 -0.5706437683782947 0.5799382780340951
vn -0.5814097378629528 -0.5706437683782947 0.5799382780340951
vn -0.5814097378629528 -0.5706437683782947 0.5799382780340951
vn -0.5814097378629528 0.5706437683782947 -0.5799382780340951
vn -0.5814097378629528 0.5706437683782947 -0.5799382780340951
vn -0.5814097378629528 0.5706437683782947 -0.5799382780340951
vn -0.5814097378629528 0.5706437683782947 0.5799382780340951
vn -0.5814097378629528 0.5706437683782947 0.5799382780340951
vn -0.5814097378629528 0.5706437683782947 0.5799382780340951
vn 0.5814097378629528 -0.5706437683782947 -0.5799382780340951
vn 0.5814097378629528 -0.5706437683782947 -0.5799382780340951
vn 0.5814097378629528 -0.5706437683782947 -0.5799382780340951
vn 0.5814097378629528 -0.5706437683782947 0.5799382780340951
vn 0.5814097378629528 -0.5706437683782947 0.5799382780340951
vn 0.5814097378629528 -0.5706437683782947 0.5799382780340951
vn 0.5814097378629528 0.5706437683782947 -0.5799382780340951
vn 0.5814097378629528 0.5706437683782947 -0.5799382780340951
vn 0.5814097378629528 0.5706437683782947 -0.5799382780340951
vn 0.5814097378629528 0.5706437683782947 0.5799382780340951
vn 0.5814097378629528 0.5706437683782947 0.5799382780340951
vn 0.5814097378629528 0.5706437683782947 0.5799382780340951
f 481//481 482//482 483//483
f 484//484 485//485 486//486
f 487//487 488//488 489//489
f 490//490 491//491 492//492
f 493//493 494//494 495//495
f 496//496 497//497 498//498
f 499//499 500//500 501//501
f 502//502 503//503 504//504
f 505//505 506//506 507//507
f 508//508 509//509 510//510
f 511//511 512//512 513//513
f 514//514 515//515 516//516
f 517//517 518//518 519//519
f 520//520 521//521 522//522
f 523//523 524//524 525//525
f 526//526 527//527 528//528
f 529//529 530//530 531//531
f 532//532 533//533 534//534
f 535//535 536//536 537//537
f 538//538 539//539 540//540
f 541//541 542//542 543//543
f 544//544 545//545 546//546
f 547//547 548//548 549//549
f 550//550 551//551 552//552
f 553//553 554//554 555//555
f 556//556 557//557 558//558
f 559//559 560//560 561//561
f 562//562 563//563 564//564
f 565//565 566//566 567//567
f 568//568 569//569 570//570
f 571//571 572//572 573//573
f 574//574 575//575 576//576
f 577//577 578//578 579//579
f 580//580 581//581 582//582
f 583//583 584//584 585//585
f 586//586 587//587 588//588
f 589//589 590//590 591//591
f 592//592 593//593 594//594
f 595//595 596//596 597//597
f 598//598 599//599 600//600
f 601//601 602//602 603//603
f 604//604 605//605 606//606
f 607//607 608//608 609//609
f 610//610 611//611 612//612
o hazard_0
usemtl hazard
v 0.7043478488922119 0.41812190413475037 4.486217498779297
v 0.7043478488922119 0.5474826097488403 4.178015232086182
v 0.7043478488922119 0.3352101445198059 4.452524185180664
v 0.7043478488922119 0.46457087993621826 4.144321918487549
v -0.7043478488922119 0.5474826097488403 4.178015232086182
v -0.7043478488922119 0.41812190413475037 4.486217498779297
v -0.7043478488922119 0.46457087993621826 4.144321918487549
v -0.7043478488922119 0.3352101445198059 4.452524185180664
v -0.7043478488922119 0.5474826097488403 4.178015232086182
v 0.7043478488922119 0.5474826097488403 4.178015232086182
v -0.7043478488922119 0.41812190413475037 4.486217498779297
v 0.7043478488922119 0.41812190413475037 4.486217498779297
v -0.7043478488922119 0.3352101445198059 4.452524185180664
v 0.7043478488922119 0.3352101445198059 4.452524185180664
v -0.7043478488922119 0.46457087993621826 4.144321918487549
v 0.7043478488922119 0.46457087993621826 4.144321918487549
v -0.7043478488922119 0.41812190413475037 4.486217498779297
v 0.7043478488922119 0.41812190413475037 4.486217498779297
v -0.7043478488922119 0.3352101445198059 4.452524185180664
v 0.7043478488922119 0.3352101445198059 4.452524185180664
v 0.7043478488922119 0.5474826097488403 4.178015232086182
v -0.7043478488922119 0.5474826097488403 4.178015232086182
v 0.7043478488922119 0.46457087993621826 4.144321918487549
v -0.7043478488922119 0.46457087993621826 4.144321918487549
vt 0 1
vt 1 1
vt 0 0
vt 1 0
vt 0 1
vt 1 1
vt 0 0
vt 1 0
vt 0 1
vt 1 1
vt 0 0
vt 1 0
vt 0 1
vt 1 1
vt 0 0
vt 1 0
vt 0 1
vt 1 1
vt 0 0
vt 1 0
vt 0 1
vt 1 1
vt 0 0
vt 1 0
vn 1 0 0
vn 1 0 0
vn 1 0 0
vn 1 0 0
vn -1 0 0
vn -1 0 0
vn -1 0 0
vn -1 0 0
vn 0 0.9220719876242637 0.3870184099479503
vn 0 0.9220719876242637 0.3870184099479503
vn 0 0.9220719876242637 0.3870184099479503
vn 0 0.9220719876242637 0.3870184099479503
vn 0 -0.9220719876242637 -0.3870184099479503
vn 0 -0.9220719876242637 -0.3870184099479503
vn 0 -0.9220719876242637 -0.3870184099479503
vn 0 -0.9220719876242637 -0.3870184099479503
vn 0 -0.376481176541258 0.9264242676604009
vn 0 -0.376481176541258 0.9264242676604009
vn 0 -0.376481176541258 0.9264242676604009
vn 0 -0.376481176541258 0.9264242676604009
vn 0 0.376481176541258 -0.9264242676604009
vn 0 0.376481176541258 -0.9264242676604009
vn 0 0.376481176541258 -0.9264242676604009
vn 0 0.376481176541258 -0.9264242676604009
f 613/85/613 615/87/615 614/86/614
f 615/87/615 616/88/616 614/86/614
f 617/89/617 619/91/619 618/90/618
f 619/91/619 620/92/620 618/90/618
f 621/93/621 623/95/623 622/94/622
f 623/95/623 624/96/624 622/94/622
f 625/97/625 627/99/627 626/98/626
f 627/99/627 628/100/628 626/98/626
f 629/101/629 631/103/631 630/102/630
f 631/103/631 632/104/632 630/102/630
f 633/105/633 635/107/635 634/106/634
f 635/107/635 636/108/636 634/106/634
o hazard_1
usemtl hazard
v 0.7043478488922119 0.689807116985321 3.8389270305633545
v 0.7043478488922119 0.8191677927970886 3.5307250022888184
v 0.7043478488922119 0.6068953275680542 3.8052332401275635
v 0.7043478488922119 0.7362560629844666 3.4970312118530273
v -0.7043478488922119 0.8191677927970886 3.5307250022888184
v -0.7043478488922119 0.689807116985321 3.8389270305633545
v -0.7043478488922119 0.7362560629844666 3.4970312118530273
v -0.7043478488922119 0.6068953275680542 3.8052332401275635
v -0.7043478488922119 0.8191677927970886 3.5307250022888184
v 0.7043478488922119 0.8191677927970886 3.5307250022888184
v -0.7043478488922119 0.689807116985321 3.8389270305633545
v 0.7043478488922119 0.689807116985321 3.8389270305633545
v -0.7043478488922119 0.6068953275680542 3.8052332401275635
v 0.7043478488922119 0.6068953275680542 3.8052332401275635
v -0.7043478488922119 0.7362560629844666 3.4970312118530273
v 0.7043478488922119 0.7362560629844666 3.4970312118530273
v -0.7043478488922119 0.689807116985321 3.8389270305633545
v 0.7043478488922119 0.689807116985321 3.8389270305633545
v -0.7043478488922119 0.6068953275680542 3.8052332401275635
v 0.7043478488922119 0.6068953275680542 3.8052332401275635
v 0.7043478488922119 0.8191677927970886 3.5307250022888184
v -0.7043478488922119 0.8191677927970886 3.5307250022888184
v 0.7043478488922119 0.7362560629844666 3.4970312118530273
v -0.7043478488922119 0.7362560629844666 3.4970312118530273
vt 0 1
vt 1 1
vt 0 0
vt 1 0
vt 0 1
vt 1 1
vt 0 0
vt 1 0
vt 0 1
vt 1 1
vt 0 0
vt 1 0
vt 0 1
vt 1 1
vt 0 0
vt 1 0
vt 0 1
vt 1 1
vt 0 0
vt 1 0
vt 0 1
vt 1 1
vt 0 0
vt 1 0
vn 1 0 0
vn 1 0 0
vn 1 0 0
vn 1 0 0
vn -1 0 0
vn -1 0 0
vn -1 0 0
vn -1 0 0
vn 0 0.9220719876242637 0.3870184099479503
vn 0 0.9220719876242637 0.3870184099479503
vn 0 0.9220719876242637 0.3870184099479503
vn 0 0.9220719876242637 0.3870184099479503
vn 0 -0.9220719876242637 -0.3870184099479503
vn 0 -0.9220719876242637 -0.3870184099479503
vn 0 -0.9220719876242637 -0.3870184099479503
vn 0 -0.9220719876242637 -0.3870184099479503
vn 0 -0.376481176541258 0.9264242676604009
vn 0 -0.376481176541258 0.9264242676604009
vn 0 -0.376481176541258 0.9264242676604009
vn 0 -0.376481176541258 0.9264242676604009
vn 0 0.376481176541258 -0.9264242676604009
vn 0 0.376481176541258 -0.9264242676604009
vn 0 0.376481176541258 -0.9264242676604009
vn 0 0.376481176541258 -0.9264242676604009
f 637/109/637 639/111/639 638/110/638
f 639/111/639 640/112/640 638/110/638
f 641/113/641 643/115/643 642/114/642
f 643/115/643 644/116/644 642/114/642
f 645/117/645 647/119/647 646/118/646
f 647/119/647 648/120/648 646/118/646
f 649/121/649 651/123/651 650/122/650
f 651/123/651 652/124/652 650/122/650
f 653/125/653 655/127/655 654/126/654
f 655/127/655 656/128/656 654/126/654
f 657/129/657 659/131/659 658/130/658
f 659/131/659 660/132/660 658/130/658
o hazard_2
usemtl hazard
v 0.7043478488922119 0.9614923000335693 3.191636562347412
v 0.7043478488922119 1.0908530950546265 2.883434534072876
v 0.7043478488922119 0.8785805702209473 3.1579430103302
v 0.7043478488922119 1.0079413652420044 2.849740743637085
v -0.7043478488922119 1.0908530950546265 2.883434534072876
v -0.7043478488922119 0.9614923000335693 3.191636562347412
v -0.7043478488922119 1.0079413652420044 2.849740743637085
v -0.7043478488922119 0.8785805702209473 3.1579430103302
v -0.7043478488922119 1.0908530950546265 2.883434534072876
v 0.7043478488922119 1.0908530950546265 2.883434534072876
v -0.7043478488922119 0.9614923000335693 3.191636562347412
v 0.7043478488922119 0.9614923000335693 3.191636562347412
v -0.7043478488922119 0.8785805702209473 3.1579430103302
v 0.7043478488922119 0.8785805702209473 3.1579430103302
v -0.7043478488922119 1.0079413652420044 2.849740743637085
v 0.7043478488922119 1.0079413652420044 2.849740743637085
v -0.7043478488922119 0.9614923000335693 3.191636562347412
v 0.7043478488922119 0.9614923000335693 3.191636562347412
v -0.7043478488922119 0.8785805702209473 3.1579430103302
v 0.7043478488922119 0.8785805702209473 3.1579430103302
v 0.7043478488922119 1.0908530950546265 2.883434534072876
v -0.7043478488922119 1.0908530950546265 2.883434534072876
v 0.7043478488922119 1.0079413652420044 2.849740743637085
v -0.7043478488922119 1.0079413652420044 2.849740743637085
vt 0 1
vt 1 1
vt 0 0
vt 1 0
vt 0 1
vt 1 1
vt 0 0
vt 1 0
vt 0 1
vt 1 1
vt 0 0
vt 1 0
vt 0 1
vt 1 1
vt 0 0
vt 1 0
vt 0 1
vt 1 1
vt 0 0
vt 1 0
vt 0 1
vt 1 1
vt 0 0
vt 1 0
vn 1 0 0
vn 1 0 0
vn 1 0 0
vn 1 0 0
vn -1 0 0
vn -1 0 0
vn -1 0 0
vn -1 0 0
vn 0 0.9220719876242637 0.3870184099479503
vn 0 0.9220719876242637 0.3870184099479503
vn 0 0.9220719876242637 0.3870184099479503
vn 0 0.9220719876242637 0.3870184099479503
vn 0 -0.9220719876242637 -0.3870184099479503
vn 0 -0.9220719876242637 -0.3870184099479503
vn 0 -0.9220719876242637 -0.3870184099479503
vn 0 -0.9220719876242637 -0.3870184099479503
vn 0 -0.376481176541258 0.9264242676604009
vn 0 -0.376481176541258 0.9264242676604009
vn 0 -0.376481176541258 0.9264242676604009
vn 0 -0.376481176541258 0.9264242676604009
vn 0 0.376481176541258 -0.9264242676604009
vn 0 0.376481176541258 -0.9264242676604009
vn 0 0.376481176541258 -0.9264242676604009
vn 0 0.376481176541258 -0.9264242676604009
f 661/133/661 663/135/663 662/134/662
f 663/135/663 664/136/664 662/134/662
f 665/137/665 667/139/667 666/138/666
f 667/139/667 668/140/668 666/138/666
f 669/141/669 671/143/671 670/142/670
f 671/143/671 672/144/672 670/142/670
f 673/145/673 675/147/675 674/146/674
f 675/147/675 676/148/676 674/146/674
f 677/149/677 679/151/679 678/150/678
f 679/151/679 680/152/680 678/150/678
f 681/153/681 683/155/683 682/154/682
f 683/155/683 684/156/684 682/154/682
o hazard_3
usemtl hazard
v 0.7043478488922119 1.2331775426864624 2.544346332550049
v 0.7043478488922119 1.36253821849823 2.2361440658569336
v 0.7043478488922119 1.1502656936645508 2.510652542114258
v 0.7043478488922119 1.279626488685608 2.2024505138397217
v -0.7043478488922119 1.36253821849823 2.2361440658569336
v -0.7043478488922119 1.2331775426864624 2.544346332550049
v -0.7043478488922119 1.279626488685608 2.2024505138397217
v -0.7043478488922119 1.1502656936645508 2.510652542114258
v -0.7043478488922119 1.36253821849823 2.2361440658569336
v 0.7043478488922119 1.36253821849823 2.2361440658569336
v -0.7043478488922119 1.2331775426864624 2.544346332550049
v 0.7043478488922119 1.2331775426864624 2.544346332550049
v -0.7043478488922119 1.1502656936645508 2.510652542114258
v 0.7043478488922119 1.1502656936645508 2.510652542114258
v -0.7043478488922119 1.279626488685608 2.2024505138397217
v 0.7043478488922119 1.279626488685608 2.2024505138397217
v -0.7043478488922119 1.2331775426864624 2.544346332550049
v 0.7043478488922119 1.2331775426864624 2.544346332550049
v -0.7043478488922119 1.1502656936645508 2.510652542114258
v 0.7043478488922119 1.1502656936645508 2.510652542114258
v 0.7043478488922119 1.36253821849823 2.2361440658569336
v -0.7043478488922119 1.36253821849823 2.2361440658569336
v 0.7043478488922119 1.279626488685608 2.2024505138397217
v -0.7043478488922119 1.279626488685608 2.2024505138397217
vt 0 1
vt 1 1
vt 0 0
vt 1 0
vt 0 1
vt 1 1
vt 0 0
vt 1 0
vt 0 1
vt 1 1
vt 0 0
vt 1 0
vt 0 1
vt 1 1
vt 0 0
vt 1 0
vt 0 1
vt 1 1
vt 0 0
vt 1 0
vt 0 1
vt 1 1
vt 0 0
vt 1 0
vn 1 0 0
vn 1 0 0
vn 1 0 0
vn 1 0 0
vn -1 0 0
vn -1 0 0
vn -1 0 0
vn -1 0 0
vn 0 0.9220719876242637 0.3870184099479503
vn 0 0.9220719876242637 0.3870184099479503
vn 0 0.9220719876242637 0.3870184099479503
vn 0 0.9220719876242637 0.3870184099479503
vn 0 -0.9220719876242637 -0.3870184099479503
vn 0 -0.9220719876242637 -0.3870184099479503
vn 0 -0.9220719876242637 -0.3870184099479503
vn 0 -0.9220719876242637 -0.3870184099479503
vn 0 -0.376481176541258 0.9264242676604009
vn 0 -0.376481176541258 0.9264242676604009
vn 0 -0.376481176541258 0.9264242676604009
vn 0 -0.376481176541258 0.9264242676604009
vn 0 0.376481176541258 -0.9264242676604009
vn 0 0.376481176541258 -0.9264242676604009
vn 0 0.376481176541258 -0.9264242676604009
vn 0 0.376481176541258 -0.9264242676604009
f 685/157/685 687/159/687 686/158/686
f 687/159/687 688/160/688 686/158/686
f 689/161/689 691/163/691 690/162/690
f 691/163/691 692/164/692 690/162/690
f 693/165/693 695/167/695 694/166/694
f 695/167/695 696/168/696 694/166/694
f 697/169/697 699/171/699 698/170/698
f 699/171/699 700/172/700 698/170/698
f 701/173/701 703/175/703 702/174/702
f 703/175/703 704/176/704 702/174/702
f 705/177/705 707/179/707 706/178/706
f 707/179/707 708/180/708 706/178/706
o hazard_4
usemtl hazard
v 0.7043478488922119 1.504862666130066 1.897055745124817
v 0.7043478488922119 1.6342233419418335 1.5888535976409912
v 0.7043478488922119 1.4219509363174438 1.8633620738983154
v 0.7043478488922119 1.5513116121292114 1.5551599264144897
v -0.7043478488922119 1.6342233419418335 1.5888535976409912
v -0.7043478488922119 1.504862666130066 1.897055745124817
v -0.7043478488922119 1.5513116121292114 1.5551599264144897
v -0.7043478488922119 1.4219509363174438 1.8633620738983154
v -0.7043478488922119 1.6342233419418335 1.5888535976409912
v 0.7043478488922119 1.6342233419418335 1.5888535976409912
v -0.7043478488922119 1.504862666130066 1.897055745124817
v 0.7043478488922119 1.504862666130066 1.897055745124817
v -0.7043478488922119 1.4219509363174438 1.8633620738983154
v 0.7043478488922119 1.4219509363174438 1.8633620738983154
v -0.7043478488922119 1.5513116121292114 1.5551599264144897
v 0.7043478488922119 1.5513116121292114 1.5551599264144897
v -0.7043478488922119 1.504862666130066 1.897055745124817
v 0.7043478488922119 1.504862666130066 1.897055745124817
v -0.7043478488922119 1.4219509363174438 1.8633620738983154
v 0.7043478488922119 1.4219509363174438 1.8633620738983154
v 0.7043478488922119 1.6342233419418335 1.5888535976409912
v -0.7043478488922119 1.6342233419418335 1.5888535976409912
v 0.7043478488922119 1.5513116121292114 1.5551599264144897
v -0.7043478488922119 1.5513116121292114 1.5551599264144897
vt 0 1
vt 1 1
vt 0 0
vt 1 0
vt 0 1
vt 1 1
vt 0 0
vt 1 0
vt 0 1
vt 1 1
vt 0 0
vt 1 0
vt 0 1
vt 1 1
vt 0 0
vt 1 0
vt 0 1
vt 1 1
vt 0 0
vt 1 0
vt 0 1
vt 1 1
vt 0 0
vt 1 0
vn 1 0 0
vn 1 0 0
vn 1 0 0
vn 1 0 0
vn -1 0 0
vn -1 0 0
vn -1 0 0
vn -1 0 0
vn 0 0.9220719876242637 0.3870184099479503
vn 0 0.9220719876242637 0.3870184099479503
vn 0 0.9220719876242637 0.3870184099479503
vn 0 0.9220719876242637 0.3870184099479503
vn 0 -0.9220719876242637 -0.3870184099479503
vn 0 -0.9220719876242637 -0.3870184099479503
vn 0 -0.9220719876242637 -0.3870184099479503
vn 0 -0.9220719876242637 -0.3870184099479503
vn 0 -0.376481176541258 0.9264242676604009
vn 0 -0.376481176541258 0.9264242676604009
vn 0 -0.376481176541258 0.9264242676604009
vn 0 -0.376481176541258 0.9264242676604009
vn 0 0.376481176541258 -0.9264242676604009
vn 0 0.376481176541258 -0.9264242676604009
vn 0 0.376481176541258 -0.9264242676604009
vn 0 0.376481176541258 -0.9264242676604009
f 709/181/709 711/183/711 710/182/710
f 711/183/711 712/184/712 710/182/710
f 713/185/713 715/187/715 714/186/714
f 715/187/715 716/188/716 714/186/714
f 717/189/717 719/191/719 718/190/718
f 719/191/719 720/192/720 718/190/718
f 721/193/721 723/195/723 722/194/722
f 723/195/723 724/196/724 722/194/722
f 725/197/725 727/199/727 726/198/726
f 727/199/727 728/200/728 726/198/726
f 729/201/729 731/203/731 730/202/730
f 731/203/731 732/204/732 730/202/730
o deck_edge
usemtl hazard
v 0.7043478488922119 0.21927779912948608 4.923330307006836
v 0.7043478488922119 0.21927779912948608 4.766411781311035
v 0.7043478488922119 0.11960607022047043 4.923330307006836
v 0.7043478488922119 0.11960607022047043 4.766411781311035
v -0.7043478488922119 0.21927779912948608 4.766411781311035
v -0.7043478488922119 0.21927779912948608 4.923330307006836
v -0.7043478488922119 0.11960607022047043 4.766411781311035
v -0.7043478488922119 0.11960607022047043 4.923330307006836
v -0.7043478488922119 0.21927779912948608 4.766411781311035
v 0.7043478488922119 0.21927779912948608 4.766411781311035
v -0.7043478488922119 0.21927779912948608 4.923330307006836
v 0.7043478488922119 0.21927779912948608 4.923330307006836
v -0.7043478488922119 0.11960607022047043 4.923330307006836
v 0.7043478488922119 0.11960607022047043 4.923330307006836
v -0.7043478488922119 0.11960607022047043 4.766411781311035
v 0.7043478488922119 0.11960607022047043 4.766411781311035
v -0.7043478488922119 0.21927779912948608 4.923330307006836
v 0.7043478488922119 0.21927779912948608 4.923330307006836
v -0.7043478488922119 0.11960607022047043 4.923330307006836
v 0.7043478488922119 0.11960607022047043 4.923330307006836
v 0.7043478488922119 0.21927779912948608 4.766411781311035
v -0.7043478488922119 0.21927779912948608 4.766411781311035
v 0.7043478488922119 0.11960607022047043 4.766411781311035
v -0.7043478488922119 0.11960607022047043 4.766411781311035
vt 0 1
vt 1 1
vt 0 0
vt 1 0
vt 0 1
vt 1 1
vt 0 0
vt 1 0
vt 0 1
vt 1 1
vt 0 0
vt 1 0
vt 0 1
vt 1 1
vt 0 0
vt 1 0
vt 0 1
vt 1 1
vt 0 0
vt 1 0
vt 0 1
vt 1 1
vt 0 0
vt 1 0
vn 1 0 0
vn 1 0 0
vn 1 0 0
vn 1 0 0
vn -1 0 0
vn -1 0 0
vn -1 0 0
vn -1 0 0
vn 0 1 0
vn 0 1 0
vn 0 1 0
vn 0 1 0
vn 0 -1 0
vn 0 -1 0
vn 0 -1 0
vn 0 -1 0
vn 0 0 1
vn 0 0 1
vn 0 0 1
vn 0 0 1
vn 0 0 -1
vn 0 0 -1
vn 0 0 -1
vn 0 0 -1
f 733/205/733 735/207/735 734/206/734
f 735/207/735 736/208/736 734/206/734
f 737/209/737 739/211/739 738/210/738
f 739/211/739 740/212/740 738/210/738
f 741/213/741 743/215/743 742/214/742
f 743/215/743 744/216/744 742/214/742
f 745/217/745 747/219/747 746/218/746
f 747/219/747 748/220/748 746/218/746
f 749/221/749 751/223/751 750/222/750
f 751/223/751 752/224/752 750/222/750
f 753/225/753 755/227/755 754/226/754
f 755/227/755 756/228/756 754/226/754
o top_plate
usemtl hazard
v 0.7141304612159729 4.315785884857178 -3.9720096588134766
v 0.7141304612159729 4.315785884857178 -4.854678153991699
v 0.7141304612159729 4.196179389953613 -3.9720096588134766
v 0.7141304612159729 4.196179389953613 -4.854678153991699
v -0.7141304612159729 4.315785884857178 -4.854678153991699
v -0.7141304612159729 4.315785884857178 -3.9720096588134766
v -0.7141304612159729 4.196179389953613 -4.854678153991699
v -0.7141304612159729 4.196179389953613 -3.9720096588134766
v -0.7141304612159729 4.315785884857178 -4.854678153991699
v 0.7141304612159729 4.315785884857178 -4.854678153991699
v -0.7141304612159729 4.315785884857178 -3.9720096588134766
v 0.7141304612159729 4.315785884857178 -3.9720096588134766
v -0.7141304612159729 4.196179389953613 -3.9720096588134766
v 0.7141304612159729 4.196179389953613 -3.9720096588134766
v -0.7141304612159729 4.196179389953613 -4.854678153991699
v 0.7141304612159729 4.196179389953613 -4.854678153991699
v -0.7141304612159729 4.315785884857178 -3.9720096588134766
v 0.7141304612159729 4.315785884857178 -3.9720096588134766
v -0.7141304612159729 4.196179389953613 -3.9720096588134766
v 0.7141304612159729 4.196179389953613 -3.9720096588134766
v 0.7141304612159729 4.315785884857178 -4.854678153991699
v -0.7141304612159729 4.315785884857178 -4.854678153991699
v 0.7141304612159729 4.196179389953613 -4.854678153991699
v -0.7141304612159729 4.196179389953613 -4.854678153991699
vt 0 1
vt 1 1
vt 0 0
vt 1 0
vt 0 1
vt 1 1
vt 0 0
vt 1 0
vt 0 1
vt 1 1
vt 0 0
vt 1 0
vt 0 1
vt 1 1
vt 0 0
vt 1 0
vt 0 1
vt 1 1
vt 0 0
vt 1 0
vt 0 1
vt 1 1
vt 0 0
vt 1 0
vn 1 0 0
vn 1 0 0
vn 1 0 0
vn 1 0 0
vn -1 0 0
vn -1 0 0
vn -1 0 0
vn -1 0 0
vn 0 1 0
vn 0 1 0
vn 0 1 0
vn 0 1 0
vn 0 -1 0
vn 0 -1 0
vn 0 -1 0
vn 0 -1 0
vn 0 0 1
vn 0 0 1
vn 0 0 1
vn 0 0 1
vn 0 0 -1
vn 0 0 -1
vn 0 0 -1
vn 0 0 -1
f 757/229/757 759/231/759 758/230/758
f 759/231/759 760/232/760 758/230/758
f 761/233/761 763/235/763 762/234/762
f 763/235/763 764/236/764 762/234/762
f 765/237/765 767/239/767 766/238/766
f 767/239/767 768/240/768 766/238/766
f 769/241/769 771/243/771 770/242/770
f 771/243/771 772/244/772 770/242/770
f 773/245/773 775/247/775 774/246/774
f 775/247/775 776/248/776 774/246/774
f 777/249/777 779/251/779 778/250/778
f 779/251/779 780/252/780 778/250/778
