mtllib tree.mtl
o trunk
usemtl wood
v 0.30410289764404297 1.5976096391677856 0.189615398645401
v 0.4248400628566742 1.5976096391677856 0.13407832384109497
v 0.47485101222991943 1.5976096391677856 1.1610594109466852e-17
v 0.4248400628566742 1.5976096391677856 -0.13407832384109497
v 0.30410289764404297 1.5976096391677856 -0.189615398645401
v 0.18336573243141174 1.5976096391677856 -0.13407832384109497
v 0.1333547681570053 1.5976096391677856 -3.4831781501219944e-17
v 0.18336573243141174 1.5976096391677856 0.13407832384109497
v 0.30410289764404297 1.5976096391677856 0.189615398645401
v 0.30410289764404297 0 0.26769229769706726
v 0.4745553731918335 0 0.18928705155849457
v 0.545159101486206 0 1.6391427561963047e-17
v 0.4745553731918335 0 -0.18928705155849457
v 0.30410289764404297 0 -0.26769229769706726
v 0.13365043699741364 0 -0.18928705155849457
v 0.06304670870304108 0 -4.917427937716669e-17
v 0.13365043699741364 0 0.18928705155849457
v 0.30410289764404297 0 0.26769229769706726
v 0.30410289764404297 1.5976096391677856 0
v 0.30410289764404297 1.5976096391677856 0
v 0.30410289764404297 1.5976096391677856 0
v 0.30410289764404297 1.5976096391677856 0
v 0.30410289764404297 1.5976096391677856 0
v 0.30410289764404297 1.5976096391677856 0
v 0.30410289764404297 1.5976096391677856 0
v 0.30410289764404297 1.5976096391677856 0
v 0.30410289764404297 1.5976096391677856 0.189615398645401
v 0.4248400628566742 1.5976096391677856 0.13407832384109497
v 0.47485101222991943 1.5976096391677856 1.1610594109466852e-17
v 0.4248400628566742 1.5976096391677856 -0.13407832384109497
v 0.30410289764404297 1.5976096391677856 -0.189615398645401
v 0.18336573243141174 1.5976096391677856 -0.13407832384109497
v 0.1333547681570053 1.5976096391677856 -3.4831781501219944e-17
v 0.18336573243141174 1.5976096391677856 0.13407832384109497
v 0.30410289764404297 1.5976096391677856 0.189615398645401
v 0.30410289764404297 0 0
v 0.30410289764404297 0 0
v 0.30410289764404297 0 0
v 0.30410289764404297 0 0
v 0.30410289764404297 0 0
v 0.30410289764404297 0 0
v 0.30410289764404297 0 0
v 0.30410289764404297 0 0
v 0.30410289764404297 0 0.26769229769706726
v 0.4745553731918335 0 0.18928705155849457
v 0.545159101486206 0 1.6391427561963047e-17
v 0.4745553731918335 0 -0.18928705155849457
v 0.30410289764404297 0 -0.26769229769706726
v 0.13365043699741364 0 -0.18928705155849457
v 0.06304670870304108 0 -4.917427937716669e-17
v 0.13365043699741364 0 0.18928705155849457
v 0.30410289764404297 0 0.26769229769706726
vt 0 1
vt 0.125 1
vt 0.25 1
vt 0.375 1
vt 0.5 1
vt 0.625 1
vt 0.75 1
vt 0.875 1
vt 1 1
vt 0 0
vt 0.125 0
vt 0.25 0
vt 0.375 0
vt 0.5 0
vt 0.625 0
vt 0.75 0
vt 0.875 0
vt 1 0
vt 0.5 0.5
vt 0.5 0.5
vt 0.5 0.5
vt 0.5 0.5
vt 0.5 0.5
vt 0.5 0.5
vt 0.5 0.5
vt 0.5 0.5
vt 1 0.5
vt 0.8535534143447876 0.8535534143447876
vt 0.5 1
vt 0.1464466154575348 0.8535534143447876
vt 0 0.5
vt 0.1464466154575348 0.1464466154575348
vt 0.5 0
vt 0.8535534143447876 0.1464466154575348
vt 1 0.5
vt 0.5 0.5
vt 0.5 0.5
vt 0.5 0.5
vt 0.5 0.5
vt 0.5 0.5
vt 0.5 0.5
vt 0.5 0.5
vt 0.5 0.5
vt 1 0.5
vt 0.8535534143447876 0.1464466154575348
vt 0.5 0
vt 0.1464466154575348 0.1464466154575348
vt 0 0.5
vt 0.1464466154575348 0.8535534143447876
vt 0.5 1
vt 0.8535534143447876 0.8535534143447876
vt 1 0.5
vn 0 0.04881283153631577 0.998807943239043
vn 0.7423168988680906 0.04619965684771097 0.6684543465054399
vn 0.9990330399030565 0.04396572735731662 5.5086235501917883e-17
vn 0.7423168988680906 0.04619965684771097 -0.6684543465054399
vn 1.358346206830369e-16 0.04881283153631577 -0.998807943239043
vn -0.7423168988680906 0.04619965684771097 -0.6684543465054399
vn -0.9990330399030565 0.04396572735731662 -1.6525870981447612e-16
vn -0.7423168988680906 0.04619965684771097 0.6684543465054399
vn -2.716692413660738e-16 0.04881283153631577 0.998807943239043
vn 0 0.04881283153631577 0.998807943239043
vn 0.7423168988680906 0.04619965684771097 0.6684543465054399
vn 0.9990330399030565 0.04396572735731662 5.5086235501917883e-17
vn 0.7423168988680906 0.04619965684771097 -0.6684543465054399
vn 1.358346206830369e-16 0.04881283153631577 -0.998807943239043
vn -0.7423168988680906 0.04619965684771097 -0.6684543465054399
vn -0.9990330399030565 0.04396572735731662 -1.6525870981447612e-16
vn -0.7423168988680906 0.04619965684771097 0.6684543465054399
vn -2.716692413660738e-16 0.04881283153631577 0.998807943239043
vn 0 1 0
vn 0 1 0
vn 0 1 0
vn 0 1 0
vn 0 1 0
vn 0 1 0
vn 0 1 0
vn 0 1 0
vn 0 1 0
vn 0 1 0
vn 0 1 0
vn 0 1 0
vn 0 1 0
vn 0 1 0
vn 0 1 0
vn 0 1 0
vn 0 1 0
vn 0 -1 0
vn 0 -1 0
vn 0 -1 0
vn 0 -1 0
vn 0 -1 0
vn 0 -1 0
vn 0 -1 0
vn 0 -1 0
vn 0 -1 0
vn 0 -1 0
vn 0 -1 0
vn 0 -1 0
vn 0 -1 0
vn 0 -1 0
vn 0 -1 0
vn 0 -1 0
vn 0 -1 0
f 1/1/1 10/10/10 2/2/2
f 10/10/10 11/11/11 2/2/2
f 2/2/2 11/11/11 3/3/3
f 11/11/11 12/12/12 3/3/3
f 3/3/3 12/12/12 4/4/4
f 12/12/12 13/13/13 4/4/4
f 4/4/4 13/13/13 5/5/5
f 13/13/13 14/14/14 5/5/5
f 5/5/5 14/14/14 6/6/6
f 14/14/14 15/15/15 6/6/6
f 6/6/6 15/15/15 7/7/7
f 15/15/15 16/16/16 7/7/7
f 7/7/7 16/16/16 8/8/8
f 16/16/16 17/17/17 8/8/8
f 8/8/8 17/17/17 9/9/9
f 17/17/17 18/18/18 9/9/9
f 27/27/27 28/28/28 19/19/19
f 28/28/28 29/29/29 20/20/20
f 29/29/29 30/30/30 21/21/21
f 30/30/30 31/31/31 22/22/22
f 31/31/31 32/32/32 23/23/23
f 32/32/32 33/33/33 24/24/24
f 33/33/33 34/34/34 25/25/25
f 34/34/34 35/35/35 26/26/26
f 45/45/45 44/44/44 36/36/36
f 46/46/46 45/45/45 37/37/37
f 47/47/47 46/46/46 38/38/38
f 48/48/48 47/47/47 39/39/39
f 49/49/49 48/48/48 40/40/40
f 50/50/50 49/49/49 41/41/41
f 51/51/51 50/50/50 42/42/42
f 52/52/52 51/51/51 43/43/43
o crown_main
usemtl leaf
v -0.6757320165634155 3.0199978351593018 0.44807466864585876
v -0.03291550278663635 3.344876527786255 0.7250000238418579
v -0.31153029203414917 3.3886473178863525 0
v -0.6757320165634155 3.0199978351593018 0.44807466864585876
v -0.27844953536987305 2.819211483001709 1.1730746030807495
v -0.03291550278663635 3.344876527786255 0.7250000238418579
v -0.7292578220367432 2.4943325519561768 0.7623100876808167
v -0.27844953536987305 2.819211483001709 1.1730746030807495
v -0.6757320165634155 3.0199978351593018 0.44807466864585876
v -0.27844953536987305 2.819211483001709 1.1730746030807495
v 0.36436694860458374 3.0470495223999023 1.2334437370300293
v -0.03291550278663635 3.344876527786255 0.7250000238418579
v -0.03291550278663635 3.344876527786255 0.7250000238418579
v 0.36436694860458374 3.5456628799438477 0
v -0.31153029203414917 3.3886473178863525 0
v -0.03291550278663635 3.344876527786255 0.7250000238418579
v 0.7616493701934814 3.344876527786255 0.7250000238418579
v 0.36436694860458374 3.5456628799438477 0
v 0.36436694860458374 3.0470495223999023 1.2334437370300293
v 0.7616493701934814 3.344876527786255 0.7250000238418579
v -0.03291550278663635 3.344876527786255 0.7250000238418579
v 0.7616493701934814 3.344876527786255 0.7250000238418579
v 1.0402641296386719 3.3886473178863525 0
v 0.36436694860458374 3.5456628799438477 0
v 0.36436694860458374 3.5456628799438477 0
v -0.03291550278663635 3.344876527786255 -0.7250000238418579
v -0.31153029203414917 3.3886473178863525 0
v 0.36436694860458374 3.5456628799438477 0
v 0.7616493701934814 3.344876527786255 -0.7250000238418579
v -0.03291550278663635 3.344876527786255 -0.7250000238418579
v 1.0402641296386719 3.3886473178863525 0
v 0.7616493701934814 3.344876527786255 -0.7250000238418579
v 0.36436694860458374 3.5456628799438477 0
v 0.7616493701934814 3.344876527786255 -0.7250000238418579
v 0.36436694860458374 3.0470495223999023 -1.2334437370300293
v -0.03291550278663635 3.344876527786255 -0.7250000238418579
v -0.03291550278663635 3.344876527786255 -0.7250000238418579
v -0.6757320165634155 3.0199978351593018 -0.44807466864585876
v -0.31153029203414917 3.3886473178863525 0
v -0.03291550278663635 3.344876527786255 -0.7250000238418579
v -0.27844953536987305 2.819211483001709 -1.1730746030807495
v -0.6757320165634155 3.0199978351593018 -0.44807466864585876
v 0.36436694860458374 3.0470495223999023 -1.2334437370300293
v -0.27844953536987305 2.819211483001709 -1.1730746030807495
v -0.03291550278663635 3.344876527786255 -0.7250000238418579
v -0.27844953536987305 2.819211483001709 -1.1730746030807495
v -0.7292578220367432 2.4943325519561768 -0.7623100876808167
v -0.6757320165634155 3.0199978351593018 -0.44807466864585876
v -0.6757320165634155 3.0199978351593018 -0.44807466864585876
v -0.6757320165634155 3.0199978351593018 0.44807466864585876
v -0.31153029203414917 3.3886473178863525 0
v -0.6757320165634155 3.0199978351593018 -0.44807466864585876
v -0.9212660789489746 2.4943325519561768 0
v -0.6757320165634155 3.0199978351593018 0.44807466864585876
v -0.7292578220367432 2.4943325519561768 -0.7623100876808167
v -0.9212660789489746 2.4943325519561768 0
v -0.6757320165634155 3.0199978351593018 -0.44807466864585876
v -0.9212660789489746 2.4943325519561768 0
v -0.7292578220367432 2.4943325519561768 0.7623100876808167
v -0.6757320165634155 3.0199978351593018 0.44807466864585876
v 0.7616493701934814 3.344876527786255 0.7250000238418579
v 1.4044657945632935 3.0199978351593018 0.44807466864585876
v 1.0402641296386719 3.3886473178863525 0
v 0.7616493701934814 3.344876527786255 0.7250000238418579
v 1.0071834325790405 2.819211483001709 1.1730746030807495
v 1.4044657945632935 3.0199978351593018 0.44807466864585876
v 0.36436694860458374 3.0470495223999023 1.2334437370300293
v 1.0071834325790405 2.819211483001709 1.1730746030807495
v 0.7616493701934814 3.344876527786255 0.7250000238418579
v 1.0071834325790405 2.819211483001709 1.1730746030807495
v 1.4579917192459106 2.4943325519561768 0.7623100876808167
v 1.4044657945632935 3.0199978351593018 0.44807466864585876
v -0.27844953536987305 2.819211483001709 1.1730746030807495
v 0.36436694860458374 2.4943325519561768 1.4500000476837158
v 0.36436694860458374 3.0470495223999023 1.2334437370300293
v -0.27844953536987305 2.819211483001709 1.1730746030807495
v -0.27844953536987305 2.1694536209106445 1.1730746030807495
v 0.36436694860458374 2.4943325519561768 1.4500000476837158
v -0.7292578220367432 2.4943325519561768 0.7623100876808167
v -0.27844953536987305 2.1694536209106445 1.1730746030807495
v -0.27844953536987305 2.819211483001709 1.1730746030807495
v -0.27844953536987305 2.1694536209106445 1.1730746030807495
v 0.36436694860458374 1.9416155815124512 1.2334437370300293
v 0.36436694860458374 2.4943325519561768 1.4500000476837158
v -0.9212660789489746 2.4943325519561768 0
v -0.6757320165634155 1.9686673879623413 0.44807466864585876
v -0.7292578220367432 2.4943325519561768 0.7623100876808167
v -0.9212660789489746 2.4943325519561768 0
v -0.6757320165634155 1.9686673879623413 -0.44807466864585876
v -0.6757320165634155 1.9686673879623413 0.44807466864585876
v -0.7292578220367432 2.4943325519561768 -0.7623100876808167
v -0.6757320165634155 1.9686673879623413 -0.44807466864585876
v -0.9212660789489746 2.4943325519561768 0
v -0.6757320165634155 1.9686673879623413 -0.44807466864585876
v -0.31153029203414917 1.6000176668167114 0
v -0.6757320165634155 1.9686673879623413 0.44807466864585876
v -0.27844953536987305 2.819211483001709 -1.1730746030807495
v -0.27844953536987305 2.1694536209106445 -1.1730746030807495
v -0.7292578220367432 2.4943325519561768 -0.7623100876808167
v -0.27844953536987305 2.819211483001709 -1.1730746030807495
v 0.36436694860458374 2.4943325519561768 -1.4500000476837158
v -0.27844953536987305 2.1694536209106445 -1.1730746030807495
v 0.36436694860458374 3.0470495223999023 -1.2334437370300293
v 0.36436694860458374 2.4943325519561768 -1.4500000476837158
v -0.27844953536987305 2.819211483001709 -1.1730746030807495
v 0.36436694860458374 2.4943325519561768 -1.4500000476837158
v 0.36436694860458374 1.9416155815124512 -1.2334437370300293
v -0.27844953536987305 2.1694536209106445 -1.1730746030807495
v 0.7616493701934814 3.344876527786255 -0.7250000238418579
v 1.0071834325790405 2.819211483001709 -1.1730746030807495
v 0.36436694860458374 3.0470495223999023 -1.2334437370300293
v 0.7616493701934814 3.344876527786255 -0.7250000238418579
v 1.4044657945632935 3.0199978351593018 -0.44807466864585876
v 1.0071834325790405 2.819211483001709 -1.1730746030807495
v 1.0402641296386719 3.3886473178863525 0
v 1.4044657945632935 3.0199978351593018 -0.44807466864585876
v 0.7616493701934814 3.344876527786255 -0.7250000238418579
v 1.4044657945632935 3.0199978351593018 -0.44807466864585876
v 1.4579917192459106 2.4943325519561768 -0.7623100876808167
v 1.0071834325790405 2.819211483001709 -1.1730746030807495
v 1.4044657945632935 1.9686673879623413 0.44807466864585876
v 0.7616493701934814 1.643788456916809 0.7250000238418579
v 1.0402641296386719 1.6000176668167114 0
v 1.4044657945632935 1.9686673879623413 0.44807466864585876
v 1.0071834325790405 2.1694536209106445 1.1730746030807495
v 0.7616493701934814 1.643788456916809 0.7250000238418579
v 1.4579917192459106 2.4943325519561768 0.7623100876808167
v 1.0071834325790405 2.1694536209106445 1.1730746030807495
v 1.4044657945632935 1.9686673879623413 0.44807466864585876
v 1.0071834325790405 2.1694536209106445 1.1730746030807495
v 0.36436694860458374 1.9416155815124512 1.2334437370300293
v 0.7616493701934814 1.643788456916809 0.7250000238418579
v 0.7616493701934814 1.643788456916809 0.7250000238418579
v 0.36436694860458374 1.4430023431777954 0
v 1.0402641296386719 1.6000176668167114 0
v 0.7616493701934814 1.643788456916809 0.7250000238418579
v -0.03291550278663635 1.643788456916809 0.7250000238418579
v 0.36436694860458374 1.4430023431777954 0
v 0.36436694860458374 1.9416155815124512 1.2334437370300293
v -0.03291550278663635 1.643788456916809 0.7250000238418579
v 0.7616493701934814 1.643788456916809 0.7250000238418579
v -0.03291550278663635 1.643788456916809 0.7250000238418579
v -0.31153029203414917 1.6000176668167114 0
v 0.36436694860458374 1.4430023431777954 0
v 0.36436694860458374 1.4430023431777954 0
v 0.7616493701934814 1.643788456916809 -0.7250000238418579
v 1.0402641296386719 1.6000176668167114 0
v 0.36436694860458374 1.4430023431777954 0
v -0.03291550278663635 1.643788456916809 -0.7250000238418579
v 0.7616493701934814 1.643788456916809 -0.7250000238418579
v -0.31153029203414917 1.6000176668167114 0
v -0.03291550278663635 1.643788456916809 -0.7250000238418579
v 0.36436694860458374 1.4430023431777954 0
v -0.03291550278663635 1.643788456916809 -0.7250000238418579
v 0.36436694860458374 1.9416155815124512 -1.2334437370300293
v 0.7616493701934814 1.643788456916809 -0.7250000238418579
v 0.7616493701934814 1.643788456916809 -0.7250000238418579
v 1.4044657945632935 1.9686673879623413 -0.44807466864585876
v 1.0402641296386719 1.6000176668167114 0
v 0.7616493701934814 1.643788456916809 -0.7250000238418579
v 1.0071834325790405 2.1694536209106445 -1.1730746030807495
v 1.4044657945632935 1.9686673879623413 -0.44807466864585876
v 0.36436694860458374 1.9416155815124512 -1.2334437370300293
v 1.0071834325790405 2.1694536209106445 -1.1730746030807495
v 0.7616493701934814 1.643788456916809 -0.7250000238418579
v 1.0071834325790405 2.1694536209106445 -1.1730746030807495
v 1.4579917192459106 2.4943325519561768 -0.7623100876808167
v 1.4044657945632935 1.9686673879623413 -0.44807466864585876
v 1.4044657945632935 1.9686673879623413 -0.44807466864585876
v 1.4044657945632935 1.9686673879623413 0.44807466864585876
v 1.0402641296386719 1.6000176668167114 0
v 1.4044657945632935 1.9686673879623413 -0.44807466864585876
v 1.649999976158142 2.4943325519561768 0
v 1.4044657945632935 1.9686673879623413 0.44807466864585876
v 1.4579917192459106 2.4943325519561768 -0.7623100876808167
v 1.649999976158142 2.4943325519561768 0
v 1.4044657945632935 1.9686673879623413 -0.44807466864585876
v 1.649999976158142 2.4943325519561768 0
v 1.4579917192459106 2.4943325519561768 0.7623100876808167
v 1.4044657945632935 1.9686673879623413 0.44807466864585876
v 1.0071834325790405 2.1694536209106445 1.1730746030807495
v 0.36436694860458374 2.4943325519561768 1.4500000476837158
v 0.36436694860458374 1.9416155815124512 1.2334437370300293
v 1.0071834325790405 2.1694536209106445 1.1730746030807495
v 1.0071834325790405 2.819211483001709 1.1730746030807495
v 0.36436694860458374 2.4943325519561768 1.4500000476837158
v 1.4579917192459106 2.4943325519561768 0.7623100876808167
v 1.0071834325790405 2.819211483001709 1.1730746030807495
v 1.0071834325790405 2.1694536209106445 1.1730746030807495
v 1.0071834325790405 2.819211483001709 1.1730746030807495
v 0.36436694860458374 3.0470495223999023 1.2334437370300293
v 0.36436694860458374 2.4943325519561768 1.4500000476837158
v -0.03291550278663635 1.643788456916809 0.7250000238418579
v -0.6757320165634155 1.9686673879623413 0.44807466864585876
v -0.31153029203414917 1.6000176668167114 0
v -0.03291550278663635 1.643788456916809 0.7250000238418579
v -0.27844953536987305 2.1694536209106445 1.1730746030807495
v -0.6757320165634155 1.9686673879623413 0.44807466864585876
v 0.36436694860458374 1.9416155815124512 1.2334437370300293
v -0.27844953536987305 2.1694536209106445 1.1730746030807495
v -0.03291550278663635 1.643788456916809 0.7250000238418579
v -0.27844953536987305 2.1694536209106445 1.1730746030807495
v -0.7292578220367432 2.4943325519561768 0.7623100876808167
v -0.6757320165634155 1.9686673879623413 0.44807466864585876
v -0.03291550278663635 1.643788456916809 -0.7250000238418579
v -0.27844953536987305 2.1694536209106445 -1.1730746030807495
v 0.36436694860458374 1.9416155815124512 -1.2334437370300293
v -0.03291550278663635 1.643788456916809 -0.7250000238418579
v -0.6757320165634155 1.9686673879623413 -0.44807466864585876
v -0.27844953536987305 2.1694536209106445 -1.1730746030807495
v -0.31153029203414917 1.6000176668167114 0
v -0.6757320165634155 1.9686673879623413 -0.44807466864585876
v -0.03291550278663635 1.643788456916809 -0.7250000238418579
v -0.6757320165634155 1.9686673879623413 -0.44807466864585876
v -0.7292578220367432 2.4943325519561768 -0.7623100876808167
v -0.27844953536987305 2.1694536209106445 -1.1730746030807495
v 1.0071834325790405 2.1694536209106445 -1.1730746030807495
v 1.0071834325790405 2.819211483001709 -1.1730746030807495
v 1.4579917192459106 2.4943325519561768 -0.7623100876808167
v 1.0071834325790405 2.1694536209106445 -1.1730746030807495
v 0.36436694860458374 2.4943325519561768 -1.4500000476837158
v 1.0071834325790405 2.819211483001709 -1.1730746030807495
v 0.36436694860458374 1.9416155815124512 -1.2334437370300293
v 0.36436694860458374 2.4943325519561768 -1.4500000476837158
v 1.0071834325790405 2.1694536209106445 -1.1730746030807495
v 0.36436694860458374 2.4943325519561768 -1.4500000476837158
v 0.36436694860458374 3.0470495223999023 -1.2334437370300293
v 1.0071834325790405 2.819211483001709 -1.1730746030807495
v 1.649999976158142 2.4943325519561768 0
v 1.4044657945632935 3.0199978351593018 0.44807466864585876
v 1.4579917192459106 2.4943325519561768 0.7623100876808167
v 1.649999976158142 2.4943325519561768 0
v 1.4044657945632935 3.0199978351593018 -0.44807466864585876
v 1.4044657945632935 3.0199978351593018 0.44807466864585876
v 1.4579917192459106 2.4943325519561768 -0.7623100876808167
v 1.4044657945632935 3.0199978351593018 -0.44807466864585876
v 1.649999976158142 2.4943325519561768 0
v 1.4044657945632935 3.0199978351593018 -0.44807466864585876
v 1.0402641296386719 3.3886473178863525 0
v 1.4044657945632935 3.0199978351593018 0.44807466864585876
vt 0.5580698847770691 0.6666666865348816
vt 0.6618959307670593 0.800000011920929
vt 0.5 0.8237918019294739
vt 0.5580698847770691 0.6666666865348816
vt 0.6618959307670593 0.6000000238418579
vt 0.6618959307670593 0.800000011920929
vt 0.5881040692329407 0.5
vt 0.6618959307670593 0.6000000238418579
vt 0.5580698847770691 0.6666666865348816
vt 0.6618959307670593 0.6000000238418579
vt 0.75 0.6762081980705261
vt 0.6618959307670593 0.800000011920929
vt 0.6618959307670593 0.800000011920929
vt 0.5858913660049438 1
vt 0.5 0.8237918019294739
vt 0.6618959307670593 0.800000011920929
vt 0.8381040692329407 0.800000011920929
vt 0.75 1
vt 0.75 0.6762081980705261
vt 0.8381040692329407 0.800000011920929
vt 0.6618959307670593 0.800000011920929
vt 0.8381040692329407 0.800000011920929
vt 1 0.8237918019294739
vt 0.9141086339950562 1
vt 0.41410863399505615 1
vt 0.33810409903526306 0.800000011920929
vt 0.5 0.8237918019294739
vt 0.25 1
vt 0.16189590096473694 0.800000011920929
vt 0.33810409903526306 0.800000011920929
vt 0 0.8237918019294739
vt 0.16189590096473694 0.800000011920929
vt 0.08589137345552444 1
vt 0.16189590096473694 0.800000011920929
vt 0.25 0.6762081980705261
vt 0.33810409903526306 0.800000011920929
vt 0.33810409903526306 0.800000011920929
vt 0.4419301152229309 0.6666666865348816
vt 0.5 0.8237918019294739
vt 0.33810409903526306 0.800000011920929
vt 0.33810409903526306 0.6000000238418579
vt 0.4419301152229309 0.6666666865348816
vt 0.25 0.6762081980705261
vt 0.33810409903526306 0.6000000238418579
vt 0.33810409903526306 0.800000011920929
vt 0.33810409903526306 0.6000000238418579
vt 0.41189590096473694 0.5
vt 0.4419301152229309 0.6666666865348816
vt 0.4419301152229309 0.6666666865348816
vt 0.5580698847770691 0.6666666865348816
vt 0.5 0.8237918019294739
vt 0.4419301152229309 0.6666666865348816
vt 0.5 0.5
vt 0.5580698847770691 0.6666666865348816
vt 0.41189590096473694 0.5
vt 0.5 0.5
vt 0.4419301152229309 0.6666666865348816
vt 0.5 0.5
vt 0.5881040692329407 0.5
vt 0.5580698847770691 0.6666666865348816
vt 0.8381040692329407 0.800000011920929
vt 0.9419301152229309 0.6666666865348816
vt 1 0.8237918019294739
vt 0.8381040692329407 0.800000011920929
vt 0.8381040692329407 0.6000000238418579
vt 0.9419301152229309 0.6666666865348816
vt 0.75 0.6762081980705261
vt 0.8381040692329407 0.6000000238418579
vt 0.8381040692329407 0.800000011920929
vt 0.8381040692329407 0.6000000238418579
vt 0.9118959307670593 0.5
vt 0.9419301152229309 0.6666666865348816
vt 0.6618959307670593 0.6000000238418579
vt 0.75 0.5
vt 0.75 0.6762081980705261
vt 0.6618959307670593 0.6000000238418579
vt 0.6618959307670593 0.4000000059604645
vt 0.75 0.5
vt 0.5881040692329407 0.5
vt 0.6618959307670593 0.4000000059604645
vt 0.6618959307670593 0.6000000238418579
vt 0.6618959307670593 0.4000000059604645
vt 0.75 0.3237918019294739
vt 0.75 0.5
vt 0.5 0.5
vt 0.5580698847770691 0.3333333432674408
vt 0.5881040692329407 0.5
vt 0.5 0.5
vt 0.4419301152229309 0.3333333432674408
vt 0.5580698847770691 0.3333333432674408
vt 0.41189590096473694 0.5
vt 0.4419301152229309 0.3333333432674408
vt 0.5 0.5
vt 0.4419301152229309 0.3333333432674408
vt 0.5 0.17620819807052612
vt 0.5580698847770691 0.3333333432674408
vt 0.33810409903526306 0.6000000238418579
vt 0.33810409903526306 0.4000000059604645
vt 0.41189590096473694 0.5
vt 0.33810409903526306 0.6000000238418579
vt 0.25 0.5
vt 0.33810409903526306 0.4000000059604645
vt 0.25 0.6762081980705261
vt 0.25 0.5
vt 0.33810409903526306 0.6000000238418579
vt 0.25 0.5
vt 0.25 0.3237918019294739
vt 0.33810409903526306 0.4000000059604645
vt 0.16189590096473694 0.800000011920929
vt 0.16189590096473694 0.6000000238418579
vt 0.25 0.6762081980705261
vt 0.16189590096473694 0.800000011920929
vt 0.05806988105177879 0.6666666865348816
vt 0.16189590096473694 0.6000000238418579
vt 0 0.8237918019294739
vt 0.05806988105177879 0.6666666865348816
vt 0.16189590096473694 0.800000011920929
vt 0.05806988105177879 0.6666666865348816
vt 0.08810409903526306 0.5
vt 0.16189590096473694 0.6000000238418579
vt 0.9419301152229309 0.3333333432674408
vt 0.8381040692329407 0.20000000298023224
vt 1 0.17620819807052612
vt 0.9419301152229309 0.3333333432674408
vt 0.8381040692329407 0.4000000059604645
vt 0.8381040692329407 0.20000000298023224
vt 0.9118959307670593 0.5
vt 0.8381040692329407 0.4000000059604645
vt 0.9419301152229309 0.3333333432674408
vt 0.8381040692329407 0.4000000059604645
vt 0.75 0.3237918019294739
vt 0.8381040692329407 0.20000000298023224
vt 0.8381040692329407 0.20000000298023224
vt 0.9141086339950562 0
vt 1 0.17620819807052612
vt 0.8381040692329407 0.20000000298023224
vt 0.6618959307670593 0.20000000298023224
vt 0.75 0
vt 0.75 0.3237918019294739
vt 0.6618959307670593 0.20000000298023224
vt 0.8381040692329407 0.20000000298023224
vt 0.6618959307670593 0.20000000298023224
vt 0.5 0.17620819807052612
vt 0.5858913660049438 0
vt 0.08589137345552444 0
vt 0.16189590096473694 0.20000000298023224
vt 0 0.17620819807052612
vt 0.25 0
vt 0.33810409903526306 0.20000000298023224
vt 0.16189590096473694 0.20000000298023224
vt 0.5 0.17620819807052612
vt 0.33810409903526306 0.20000000298023224
vt 0.41410863399505615 0
vt 0.33810409903526306 0.20000000298023224
vt 0.25 0.3237918019294739
vt 0.16189590096473694 0.20000000298023224
vt 0.16189590096473694 0.20000000298023224
vt 0.05806988105177879 0.3333333432674408
vt 0 0.17620819807052612
vt 0.16189590096473694 0.20000000298023224
vt 0.16189590096473694 0.4000000059604645
vt 0.05806988105177879 0.3333333432674408
vt 0.25 0.3237918019294739
vt 0.16189590096473694 0.4000000059604645
vt 0.16189590096473694 0.20000000298023224
vt 0.16189590096473694 0.4000000059604645
vt 0.08810409903526306 0.5
vt 0.05806988105177879 0.3333333432674408
vt 1.0580698251724243 0.3333333432674408
vt 0.9419301152229309 0.3333333432674408
vt 1 0.17620819807052612
vt 1.0580698251724243 0.3333333432674408
vt 1 0.5
vt 0.9419301152229309 0.3333333432674408
vt 0.08810409903526306 0.5
vt 0 0.5
vt 0.05806988105177879 0.3333333432674408
vt 1 0.5
vt 0.9118959307670593 0.5
vt 0.9419301152229309 0.3333333432674408
vt 0.8381040692329407 0.4000000059604645
vt 0.75 0.5
vt 0.75 0.3237918019294739
vt 0.8381040692329407 0.4000000059604645
vt 0.8381040692329407 0.6000000238418579
vt 0.75 0.5
vt 0.9118959307670593 0.5
vt 0.8381040692329407 0.6000000238418579
vt 0.8381040692329407 0.4000000059604645
vt 0.8381040692329407 0.6000000238418579
vt 0.75 0.6762081980705261
vt 0.75 0.5
vt 0.6618959307670593 0.20000000298023224
vt 0.5580698847770691 0.3333333432674408
vt 0.5 0.17620819807052612
vt 0.6618959307670593 0.20000000298023224
vt 0.6618959307670593 0.4000000059604645
vt 0.5580698847770691 0.3333333432674408
vt 0.75 0.3237918019294739
vt 0.6618959307670593 0.4000000059604645
vt 0.6618959307670593 0.20000000298023224
vt 0.6618959307670593 0.4000000059604645
vt 0.5881040692329407 0.5
vt 0.5580698847770691 0.3333333432674408
vt 0.33810409903526306 0.20000000298023224
vt 0.33810409903526306 0.4000000059604645
vt 0.25 0.3237918019294739
vt 0.33810409903526306 0.20000000298023224
vt 0.4419301152229309 0.3333333432674408
vt 0.33810409903526306 0.4000000059604645
vt 0.5 0.17620819807052612
vt 0.4419301152229309 0.3333333432674408
vt 0.33810409903526306 0.20000000298023224
vt 0.4419301152229309 0.3333333432674408
vt 0.41189590096473694 0.5
vt 0.33810409903526306 0.4000000059604645
vt 0.16189590096473694 0.4000000059604645
vt 0.16189590096473694 0.6000000238418579
vt 0.08810409903526306 0.5
vt 0.16189590096473694 0.4000000059604645
vt 0.25 0.5
vt 0.16189590096473694 0.6000000238418579
vt 0.25 0.3237918019294739
vt 0.25 0.5
vt 0.16189590096473694 0.4000000059604645
vt 0.25 0.5
vt 0.25 0.6762081980705261
vt 0.16189590096473694 0.6000000238418579
vt 1 0.5
vt 0.9419301152229309 0.6666666865348816
vt 0.9118959307670593 0.5
vt 1 0.5
vt 1.0580698251724243 0.6666666865348816
vt 0.9419301152229309 0.6666666865348816
vt 0.08810409903526306 0.5
vt 0.05806988105177879 0.6666666865348816
vt 0 0.5
vt 1.0580698251724243 0.6666666865348816
vt 1 0.8237918019294739
vt 0.9419301152229309 0.6666666865348816
vn -0.7701688872381705 0.582071234701443 0.2608312919560385
vn -0.27412473585858865 0.877609592322879 0.3932645835227589
vn -0.45106440793539365 0.8924914004593505 0
vn -0.7701688872381705 0.582071234701443 0.2608312919560385
vn -0.5249128874229322 0.39671393749081646 0.7530501393784165
vn -0.27412473585858865 0.877609592322879 0.3932645835227589
vn -0.8769644454211993 0 0.48055526369720286
vn -0.5249128874229322 0.39671393749081646 0.7530501393784165
vn -0.7701688872381705 0.582071234701443 0.2608312919560385
vn -0.5249128874229322 0.39671393749081646 0.7530501393784165
vn 0 0.6487062525593036 0.7610388938092881
vn -0.27412473585858865 0.877609592322879 0.3932645835227589
vn -0.27412473585858865 0.877609592322879 0.3932645835227589
vn 0 1 0
vn -0.45106440793539365 0.8924914004593505 0
vn -0.27412473585858865 0.877609592322879 0.3932645835227589
vn 0.27412473585858865 0.877609592322879 0.3932645835227589
vn 0 1 0
vn 0 0.6487062525593036 0.7610388938092881
vn 0.27412473585858865 0.877609592322879 0.3932645835227589
vn -0.27412473585858865 0.877609592322879 0.3932645835227589
vn 0.27412473585858865 0.877609592322879 0.3932645835227589
vn 0.45106440793539365 0.8924914004593505 0
vn 0 1 0
vn 0 1 0
vn -0.27412473585858865 0.877609592322879 -0.3932645835227589
vn -0.45106440793539365 0.8924914004593505 0
vn 0 1 0
vn 0.27412473585858865 0.877609592322879 -0.3932645835227589
vn -0.27412473585858865 0.877609592322879 -0.3932645835227589
vn 0.45106440793539365 0.8924914004593505 0
vn 0.27412473585858865 0.877609592322879 -0.3932645835227589
vn 0 1 0
vn 0.27412473585858865 0.877609592322879 -0.3932645835227589
vn 0 0.6487062525593036 -0.7610388938092881
vn -0.27412473585858865 0.877609592322879 -0.3932645835227589
vn -0.27412473585858865 0.877609592322879 -0.3932645835227589
vn -0.7701688872381705 0.582071234701443 -0.2608312919560385
vn -0.45106440793539365 0.8924914004593505 0
vn -0.27412473585858865 0.877609592322879 -0.3932645835227589
vn -0.5249128874229322 0.39671393749081646 -0.7530501393784165
vn -0.7701688872381705 0.582071234701443 -0.2608312919560385
vn 0 0.6487062525593036 -0.7610388938092881
vn -0.5249128874229322 0.39671393749081646 -0.7530501393784165
vn -0.27412473585858865 0.877609592322879 -0.3932645835227589
vn -0.5249128874229322 0.39671393749081646 -0.7530501393784165
vn -0.8769644454211993 0 -0.48055526369720286
vn -0.7701688872381705 0.582071234701443 -0.2608312919560385
vn -0.7701688872381705 0.582071234701443 -0.2608312919560385
vn -0.7701688872381705 0.582071234701443 0.2608312919560385
vn -0.45106440793539365 0.8924914004593505 0
vn -0.7701688872381705 0.582071234701443 -0.2608312919560385
vn -1 0 0
vn -0.7701688872381705 0.582071234701443 0.2608312919560385
vn -0.8769644454211993 0 -0.48055526369720286
vn -1 0 0
vn -0.7701688872381705 0.582071234701443 -0.2608312919560385
vn -1 0 0
vn -0.8769644454211993 0 0.48055526369720286
vn -0.7701688872381705 0.582071234701443 0.2608312919560385
vn 0.27412473585858865 0.877609592322879 0.3932645835227589
vn 0.7701688872381705 0.582071234701443 0.2608312919560385
vn 0.45106440793539365 0.8924914004593505 0
vn 0.27412473585858865 0.877609592322879 0.3932645835227589
vn 0.5249128874229322 0.39671393749081646 0.7530501393784165
vn 0.7701688872381705 0.582071234701443 0.2608312919560385
vn 0 0.6487062525593036 0.7610388938092881
vn 0.5249128874229322 0.39671393749081646 0.7530501393784165
vn 0.27412473585858865 0.877609592322879 0.3932645835227589
vn 0.5249128874229322 0.39671393749081646 0.7530501393784165
vn 0.8769644454211993 0 0.48055526369720286
vn 0.7701688872381705 0.582071234701443 0.2608312919560385
vn -0.5249128874229322 0.39671393749081646 0.7530501393784165
vn 0 0 1
vn 0 0.6487062525593036 0.7610388938092881
vn -0.5249128874229322 0.39671393749081646 0.7530501393784165
vn -0.5249128874229322 -0.39671393749081646 0.7530501393784165
vn 0 0 1
vn -0.8769644454211993 0 0.48055526369720286
vn -0.5249128874229322 -0.39671393749081646 0.7530501393784165
vn -0.5249128874229322 0.39671393749081646 0.7530501393784165
vn -0.5249128874229322 -0.39671393749081646 0.7530501393784165
vn 0 -0.6487062525593036 0.7610388938092881
vn 0 0 1
vn -1 0 0
vn -0.7701688872381705 -0.582071234701443 0.2608312919560385
vn -0.8769644454211993 0 0.48055526369720286
vn -1 0 0
vn -0.7701688872381705 -0.582071234701443 -0.2608312919560385
vn -0.7701688872381705 -0.582071234701443 0.2608312919560385
vn -0.8769644454211993 0 -0.48055526369720286
vn -0.7701688872381705 -0.582071234701443 -0.2608312919560385
vn -1 0 0
vn -0.7701688872381705 -0.582071234701443 -0.2608312919560385
vn -0.45106440793539365 -0.8924914004593505 0
vn -0.7701688872381705 -0.582071234701443 0.2608312919560385
vn -0.5249128874229322 0.39671393749081646 -0.7530501393784165
vn -0.5249128874229322 -0.39671393749081646 -0.7530501393784165
vn -0.8769644454211993 0 -0.48055526369720286
vn -0.5249128874229322 0.39671393749081646 -0.7530501393784165
vn 0 0 -1
vn -0.5249128874229322 -0.39671393749081646 -0.7530501393784165
vn 0 0.6487062525593036 -0.7610388938092881
vn 0 0 -1
vn -0.5249128874229322 0.39671393749081646 -0.7530501393784165
vn 0 0 -1
vn 0 -0.6487062525593036 -0.7610388938092881
vn -0.5249128874229322 -0.39671393749081646 -0.7530501393784165
vn 0.27412473585858865 0.877609592322879 -0.3932645835227589
vn 0.5249128874229322 0.39671393749081646 -0.7530501393784165
vn 0 0.6487062525593036 -0.7610388938092881
vn 0.27412473585858865 0.877609592322879 -0.3932645835227589
vn 0.7701688872381705 0.582071234701443 -0.2608312919560385
vn 0.5249128874229322 0.39671393749081646 -0.7530501393784165
vn 0.45106440793539365 0.8924914004593505 0
vn 0.7701688872381705 0.582071234701443 -0.2608312919560385
vn 0.27412473585858865 0.877609592322879 -0.3932645835227589
vn 0.7701688872381705 0.582071234701443 -0.2608312919560385
vn 0.8769644454211993 0 -0.48055526369720286
vn 0.5249128874229322 0.39671393749081646 -0.7530501393784165
vn 0.7701688872381705 -0.582071234701443 0.2608312919560385
vn 0.27412473585858865 -0.877609592322879 0.3932645835227589
vn 0.45106440793539365 -0.8924914004593505 0
vn 0.7701688872381705 -0.582071234701443 0.2608312919560385
vn 0.5249128874229322 -0.39671393749081646 0.7530501393784165
vn 0.27412473585858865 -0.877609592322879 0.3932645835227589
vn 0.8769644454211993 0 0.48055526369720286
vn 0.5249128874229322 -0.39671393749081646 0.7530501393784165
vn 0.7701688872381705 -0.582071234701443 0.2608312919560385
vn 0.5249128874229322 -0.39671393749081646 0.7530501393784165
vn 0 -0.6487062525593036 0.7610388938092881
vn 0.27412473585858865 -0.877609592322879 0.3932645835227589
vn 0.27412473585858865 -0.877609592322879 0.3932645835227589
vn 0 -1 0
vn 0.45106440793539365 -0.8924914004593505 0
vn 0.27412473585858865 -0.877609592322879 0.3932645835227589
vn -0.27412473585858865 -0.877609592322879 0.3932645835227589
vn 0 -1 0
vn 0 -0.6487062525593036 0.7610388938092881
vn -0.27412473585858865 -0.877609592322879 0.3932645835227589
vn 0.27412473585858865 -0.877609592322879 0.3932645835227589
vn -0.27412473585858865 -0.877609592322879 0.3932645835227589
vn -0.45106440793539365 -0.8924914004593505 0
vn 0 -1 0
vn 0 -1 0
vn 0.27412473585858865 -0.877609592322879 -0.3932645835227589
vn 0.45106440793539365 -0.8924914004593505 0
vn 0 -1 0
vn -0.27412473585858865 -0.877609592322879 -0.3932645835227589
vn 0.27412473585858865 -0.877609592322879 -0.3932645835227589
vn -0.45106440793539365 -0.8924914004593505 0
vn -0.27412473585858865 -0.877609592322879 -0.3932645835227589
vn 0 -1 0
vn -0.27412473585858865 -0.877609592322879 -0.3932645835227589
vn 0 -0.6487062525593036 -0.7610388938092881
vn 0.27412473585858865 -0.877609592322879 -0.3932645835227589
vn 0.27412473585858865 -0.877609592322879 -0.3932645835227589
vn 0.7701688872381705 -0.582071234701443 -0.2608312919560385
vn 0.45106440793539365 -0.8924914004593505 0
vn 0.27412473585858865 -0.877609592322879 -0.3932645835227589
vn 0.5249128874229322 -0.39671393749081646 -0.7530501393784165
vn 0.7701688872381705 -0.582071234701443 -0.2608312919560385
vn 0 -0.6487062525593036 -0.7610388938092881
vn 0.5249128874229322 -0.39671393749081646 -0.7530501393784165
vn 0.27412473585858865 -0.877609592322879 -0.3932645835227589
vn 0.5249128874229322 -0.39671393749081646 -0.7530501393784165
vn 0.8769644454211993 0 -0.48055526369720286
vn 0.7701688872381705 -0.582071234701443 -0.2608312919560385
vn 0.7701688872381705 -0.582071234701443 -0.2608312919560385
vn 0.7701688872381705 -0.582071234701443 0.2608312919560385
vn 0.45106440793539365 -0.8924914004593505 0
vn 0.7701688872381705 -0.582071234701443 -0.2608312919560385
vn 1 0 0
vn 0.7701688872381705 -0.582071234701443 0.2608312919560385
vn 0.8769644454211993 0 -0.48055526369720286
vn 1 0 0
vn 0.7701688872381705 -0.582071234701443 -0.2608312919560385
vn 1 0 0
vn 0.8769644454211993 0 0.48055526369720286
vn 0.7701688872381705 -0.582071234701443 0.2608312919560385
vn 0.5249128874229322 -0.39671393749081646 0.7530501393784165
vn 0 0 1
vn 0 -0.6487062525593036 0.7610388938092881
vn 0.5249128874229322 -0.39671393749081646 0.7530501393784165
vn 0.5249128874229322 0.39671393749081646 0.7530501393784165
vn 0 0 1
vn 0.8769644454211993 0 0.48055526369720286
vn 0.5249128874229322 0.39671393749081646 0.7530501393784165
vn 0.5249128874229322 -0.39671393749081646 0.7530501393784165
vn 0.5249128874229322 0.39671393749081646 0.7530501393784165
vn 0 0.6487062525593036 0.7610388938092881
vn 0 0 1
vn -0.27412473585858865 -0.877609592322879 0.3932645835227589
vn -0.7701688872381705 -0.582071234701443 0.2608312919560385
vn -0.45106440793539365 -0.8924914004593505 0
vn -0.27412473585858865 -0.877609592322879 0.3932645835227589
vn -0.5249128874229322 -0.39671393749081646 0.7530501393784165
vn -0.7701688872381705 -0.582071234701443 0.2608312919560385
vn 0 -0.6487062525593036 0.7610388938092881
vn -0.5249128874229322 -0.39671393749081646 0.7530501393784165
vn -0.27412473585858865 -0.877609592322879 0.3932645835227589
vn -0.5249128874229322 -0.39671393749081646 0.7530501393784165
vn -0.8769644454211993 0 0.48055526369720286
vn -0.7701688872381705 -0.582071234701443 0.2608312919560385
vn -0.27412473585858865 -0.877609592322879 -0.3932645835227589
vn -0.5249128874229322 -0.39671393749081646 -0.7530501393784165
vn 0 -0.6487062525593036 -0.7610388938092881
vn -0.27412473585858865 -0.877609592322879 -0.3932645835227589
vn -0.7701688872381705 -0.582071234701443 -0.2608312919560385
vn -0.5249128874229322 -0.39671393749081646 -0.7530501393784165
vn -0.45106440793539365 -0.8924914004593505 0
vn -0.7701688872381705 -0.582071234701443 -0.2608312919560385
vn -0.27412473585858865 -0.877609592322879 -0.3932645835227589
vn -0.7701688872381705 -0.582071234701443 -0.2608312919560385
vn -0.8769644454211993 0 -0.48055526369720286
vn -0.5249128874229322 -0.39671393749081646 -0.7530501393784165
vn 0.5249128874229322 -0.39671393749081646 -0.7530501393784165
vn 0.5249128874229322 0.39671393749081646 -0.7530501393784165
vn 0.8769644454211993 0 -0.48055526369720286
vn 0.5249128874229322 -0.39671393749081646 -0.7530501393784165
vn 0 0 -1
vn 0.5249128874229322 0.39671393749081646 -0.7530501393784165
vn 0 -0.6487062525593036 -0.7610388938092881
vn 0 0 -1
vn 0.5249128874229322 -0.39671393749081646 -0.7530501393784165
vn 0 0 -1
vn 0 0.6487062525593036 -0.7610388938092881
vn 0.5249128874229322 0.39671393749081646 -0.7530501393784165
vn 1 0 0
vn 0.7701688872381705 0.582071234701443 0.2608312919560385
vn 0.8769644454211993 0 0.48055526369720286
vn 1 0 0
vn 0.7701688872381705 0.582071234701443 -0.2608312919560385
vn 0.7701688872381705 0.582071234701443 0.2608312919560385
vn 0.8769644454211993 0 -0.48055526369720286
vn 0.7701688872381705 0.582071234701443 -0.2608312919560385
vn 1 0 0
vn 0.7701688872381705 0.582071234701443 -0.2608312919560385
vn 0.45106440793539365 0.8924914004593505 0
vn 0.7701688872381705 0.582071234701443 0.2608312919560385
f 53/53/53 54/54/54 55/55/55
f 56/56/56 57/57/57 58/58/58
f 59/59/59 60/60/60 61/61/61
f 62/62/62 63/63/63 64/64/64
f 65/65/65 66/66/66 67/67/67
f 68/68/68 69/69/69 70/70/70
f 71/71/71 72/72/72 73/73/73
f 74/74/74 75/75/75 76/76/76
f 77/77/77 78/78/78 79/79/79
f 80/80/80 81/81/81 82/82/82
f 83/83/83 84/84/84 85/85/85
f 86/86/86 87/87/87 88/88/88
f 89/89/89 90/90/90 91/91/91
f 92/92/92 93/93/93 94/94/94
f 95/95/95 96/96/96 97/97/97
f 98/98/98 99/99/99 100/100/100
f 101/101/101 102/102/102 103/103/103
f 104/104/104 105/105/105 106/106/106
f 107/107/107 108/108/108 109/109/109
f 110/110/110 111/111/111 112/112/112
f 113/113/113 114/114/114 115/115/115
f 116/116/116 117/117/117 118/118/118
f 119/119/119 120/120/120 121/121/121
f 122/122/122 123/123/123 124/124/124
f 125/125/125 126/126/126 127/127/127
f 128/128/128 129/129/129 130/130/130
f 131/131/131 132/132/132 133/133/133
f 134/134/134 135/135/135 136/136/136
f 137/137/137 138/138/138 139/139/139
f 140/140/140 141/141/141 142/142/142
f 143/143/143 144/144/144 145/145/145
f 146/146/146 147/147/147 148/148/148
f 149/149/149 150/150/150 151/151/151
f 152/152/152 153/153/153 154/154/154
f 155/155/155 156/156/156 157/157/157
f 158/158/158 159/159/159 160/160/160
f 161/161/161 162/162/162 163/163/163
f 164/164/164 165/165/165 166/166/166
f 167/167/167 168/168/168 169/169/169
f 170/170/170 171/171/171 172/172/172
f 173/173/173 174/174/174 175/175/175
f 176/176/176 177/177/177 178/178/178
f 179/179/179 180/180/180 181/181/181
f 182/182/182 183/183/183 184/184/184
f 185/185/185 186/186/186 187/187/187
f 188/188/188 189/189/189 190/190/190
f 191/191/191 192/192/192 193/193/193
f 194/194/194 195/195/195 196/196/196
f 197/197/197 198/198/198 199/199/199
f 200/200/200 201/201/201 202/202/202
f 203/203/203 204/204/204 205/205/205
f 206/206/206 207/207/207 208/208/208
f 209/209/209 210/210/210 211/211/211
f 212/212/212 213/213/213 214/214/214
f 215/215/215 216/216/216 217/217/217
f 218/218/218 219/219/219 220/220/220
f 221/221/221 222/222/222 223/223/223
f 224/224/224 225/225/225 226/226/226
f 227/227/227 228/228/228 229/229/229
f 230/230/230 231/231/231 232/232/232
f 233/233/233 234/234/234 235/235/235
f 236/236/236 237/237/237 238/238/238
f 239/239/239 240/240/240 241/241/241
f 242/242/242 243/243/243 244/244/244
f 245/245/245 246/246/246 247/247/247
f 248/248/248 249/249/249 250/250/250
f 251/251/251 252/252/252 253/253/253
f 254/254/254 255/255/255 256/256/256
f 257/257/257 258/258/258 259/259/259
f 260/260/260 261/261/261 262/262/262
f 263/263/263 264/264/264 265/265/265
f 266/266/266 267/267/267 268/268/268
f 269/269/269 270/270/270 271/271/271
f 272/272/272 273/273/273 274/274/274
f 275/275/275 276/276/276 277/277/277
f 278/278/278 279/279/279 280/280/280
f 281/281/281 282/282/282 283/283/283
f 284/284/284 285/285/285 286/286/286
f 287/287/287 288/288/288 289/289/289
f 290/290/290 291/291/291 292/292/292
o crown_side
usemtl leaf
v -1.028774380683899 1.4681785106658936 1.2206425666809082
v -0.4183528423309326 2.098517417907715 1.2143577337265015
v -1.2536338567733765 2.3232738971710205 1.1416970491409302
v -0.4183528423309326 2.098517417907715 1.2143577337265015
v -0.662317156791687 2.7291972637176514 0.593352198600769
v -1.2536338567733765 2.3232738971710205 1.1416970491409302
v -0.662317156791687 2.7291972637176514 0.593352198600769
v -1.4235169887542725 2.4886395931243896 0.21583442389965057
v -1.2536338567733765 2.3232738971710205 1.1416970491409302
v -1.4235169887542725 2.4886395931243896 0.21583442389965057
v -1.649999976158142 1.7092872858047485 0.6035212278366089
v -1.2536338567733765 2.3232738971710205 1.1416970491409302
v -1.649999976158142 1.7092872858047485 0.6035212278366089
v -1.028774380683899 1.4681785106658936 1.2206425666809082
v -1.2536338567733765 2.3232738971710205 1.1416970491409302
v -0.4183528423309326 2.098517417907715 1.2143577337265015
v -0.07200396060943604 2.12497615814209 0.3334018886089325
v -0.662317156791687 2.7291972637176514 0.593352198600769
v -1.028774380683899 1.4681785106658936 1.2206425666809082
v -0.29848700761795044 1.3456236124038696 0.721088707447052
v -0.4183528423309326 2.098517417907715 1.2143577337265015
v -1.649999976158142 1.7092872858047485 0.6035212278366089
v -1.0596868991851807 1.1050660610198975 0.3435709476470947
v -1.028774380683899 1.4681785106658936 1.2206425666809082
v -1.4235169887542725 2.4886395931243896 0.21583442389965057
v -1.3036510944366455 1.7357457876205444 -0.27743464708328247
v -1.649999976158142 1.7092872858047485 0.6035212278366089
v -0.662317156791687 2.7291972637176514 0.593352198600769
v -0.6932295560836792 2.366084575653076 -0.2837194800376892
v -1.4235169887542725 2.4886395931243896 0.21583442389965057
v -0.07200396060943604 2.12497615814209 0.3334018886089325
v -0.29848700761795044 1.3456236124038696 0.721088707447052
v -0.4683701992034912 1.5109893083572388 -0.20477394759655
v -0.29848700761795044 1.3456236124038696 0.721088707447052
v -1.0596868991851807 1.1050660610198975 0.3435709476470947
v -0.4683701992034912 1.5109893083572388 -0.20477394759655
v -1.0596868991851807 1.1050660610198975 0.3435709476470947
v -1.3036510944366455 1.7357457876205444 -0.27743464708328247
v -0.4683701992034912 1.5109893083572388 -0.20477394759655
v -1.3036510944366455 1.7357457876205444 -0.27743464708328247
v -0.6932295560836792 2.366084575653076 -0.2837194800376892
v -0.4683701992034912 1.5109893083572388 -0.20477394759655
v -0.6932295560836792 2.366084575653076 -0.2837194800376892
v -0.07200396060943604 2.12497615814209 0.3334018886089325
v -0.4683701992034912 1.5109893083572388 -0.20477394759655
v -0.07200396060943604 2.12497615814209 0.3334018886089325
v -0.4183528423309326 2.098517417907715 1.2143577337265015
v -0.29848700761795044 1.3456236124038696 0.721088707447052
v -0.29848700761795044 1.3456236124038696 0.721088707447052
v -1.028774380683899 1.4681785106658936 1.2206425666809082
v -1.0596868991851807 1.1050660610198975 0.3435709476470947
v -1.0596868991851807 1.1050660610198975 0.3435709476470947
v -1.649999976158142 1.7092872858047485 0.6035212278366089
v -1.3036510944366455 1.7357457876205444 -0.27743464708328247
v -1.3036510944366455 1.7357457876205444 -0.27743464708328247
v -1.4235169887542725 2.4886395931243896 0.21583442389965057
v -0.6932295560836792 2.366084575653076 -0.2837194800376892
v -0.6932295560836792 2.366084575653076 -0.2837194800376892
v -0.662317156791687 2.7291972637176514 0.593352198600769
v -0.07200396060943604 2.12497615814209 0.3334018886089325
vt 0.5881040692329407 0.5
vt 0.75 0.6762081980705261
vt 0.5 0.8237918019294739
vt 0.75 0.6762081980705261
vt 1 0.8237918019294739
vt 0.5 0.8237918019294739
vt 0 0.8237918019294739
vt 0.25 0.6762081980705261
vt 0.5 0.8237918019294739
vt 0.25 0.6762081980705261
vt 0.41189590096473694 0.5
vt 0.5 0.8237918019294739
vt 0.41189590096473694 0.5
vt 0.5881040692329407 0.5
vt 0.5 0.8237918019294739
vt 0.75 0.6762081980705261
vt 0.9118959307670593 0.5
vt 1 0.8237918019294739
vt 0.5881040692329407 0.5
vt 0.75 0.3237918019294739
vt 0.75 0.6762081980705261
vt 0.41189590096473694 0.5
vt 0.5 0.17620819807052612
vt 0.5881040692329407 0.5
vt 0.25 0.6762081980705261
vt 0.25 0.3237918019294739
vt 0.41189590096473694 0.5
vt 0 0.8237918019294739
vt 0.08810409903526306 0.5
vt 0.25 0.6762081980705261
vt 0.9118959307670593 0.5
vt 0.75 0.3237918019294739
vt 1 0.17620819807052612
vt 0.75 0.3237918019294739
vt 0.5 0.17620819807052612
vt 1 0.17620819807052612
vt 0.5 0.17620819807052612
vt 0.25 0.3237918019294739
vt 0 0.17620819807052612
vt 0.25 0.3237918019294739
vt 0.08810409903526306 0.5
vt 0 0.17620819807052612
vt 1.0881041288375854 0.5
vt 0.9118959307670593 0.5
vt 1 0.17620819807052612
vt 0.9118959307670593 0.5
vt 0.75 0.6762081980705261
vt 0.75 0.3237918019294739
vt 0.75 0.3237918019294739
vt 0.5881040692329407 0.5
vt 0.5 0.17620819807052612
vt 0.5 0.17620819807052612
vt 0.41189590096473694 0.5
vt 0.25 0.3237918019294739
vt 0.25 0.3237918019294739
vt 0.25 0.6762081980705261
vt 0.08810409903526306 0.5
vt 1.0881041288375854 0.5
vt 1 0.8237918019294739
vt 0.9118959307670593 0.5
vn -0.06654560538104119 0.07436367838261489 0.9950084048599176
vn -0.06654560538104119 0.07436367838261489 0.9950084048599176
vn -0.06654560538104119 0.07436367838261489 0.9950084048599176
vn 0.13496099748382523 0.7212181866878724 0.679433481916242
vn 0.13496099748382523 0.7212181866878724 0.679433481916242
vn 0.13496099748382523 0.7212181866878724 0.679433481916242
vn -0.39561507809566404 0.8888037362847102 0.23133661264421748
vn -0.39561507809566404 0.8888037362847102 0.23133661264421748
vn -0.39561507809566404 0.8888037362847102 0.23133661264421748
vn -0.8971586937869706 0.37601402881419693 0.23177516755979918
vn -0.8971586937869706 0.37601402881419693 0.23177516755979918
vn -0.8971586937869706 0.37601402881419693 0.23177516755979918
vn -0.7234872326605619 -0.12761511952510604 0.6784398318537577
vn -0.7234872326605619 -0.12761511952510604 0.6784398318537577
vn -0.7234872326605619 -0.12761511952510604 0.6784398318537577
vn 0.7432866893338786 0.5927963416977363 0.3100280547448294
vn 0.7432866893338786 0.5927963416977363 0.3100280547448294
vn 0.7432866893338786 0.5927963416977363 0.3100280547448294
vn 0.45741692998286965 -0.43523178277998853 0.7754631180289616
vn 0.45741692998286965 -0.43523178277998853 0.7754631180289616
vn 0.45741692998286965 -0.43523178277998853 0.7754631180289616
vn -0.6037396724407554 -0.7288093489407581 0.32300981535810547
vn -0.6037396724407554 -0.7288093489407581 0.32300981535810547
vn -0.6037396724407554 -0.7288093489407581 0.32300981535810547
vn -0.9278349859412914 0.08951145394146016 -0.362091063790049
vn -0.9278349859412914 0.08951145394146016 -0.362091063790049
vn -0.9278349859412914 0.08951145394146016 -0.362091063790049
vn -0.10368244986263447 0.9202541016375567 -0.37733584246627794
vn -0.10368244986263447 0.9202541016375567 -0.37733584246627794
vn -0.10368244986263447 0.9202541016375567 -0.37733584246627794
vn 0.8971586937869706 -0.37601402881419693 -0.23177516755979918
vn 0.8971586937869706 -0.37601402881419693 -0.23177516755979918
vn 0.8971586937869706 -0.37601402881419693 -0.23177516755979918
vn 0.39561507809566404 -0.8888037362847102 -0.23133661264421748
vn 0.39561507809566404 -0.8888037362847102 -0.23133661264421748
vn 0.39561507809566404 -0.8888037362847102 -0.23133661264421748
vn -0.13496099748382523 -0.7212181866878724 -0.679433481916242
vn -0.13496099748382523 -0.7212181866878724 -0.679433481916242
vn -0.13496099748382523 -0.7212181866878724 -0.679433481916242
vn 0.06654560538104119 -0.07436367838261489 -0.9950084048599176
vn 0.06654560538104119 -0.07436367838261489 -0.9950084048599176
vn 0.06654560538104119 -0.07436367838261489 -0.9950084048599176
vn 0.7234872326605619 0.12761511952510604 -0.6784398318537577
vn 0.7234872326605619 0.12761511952510604 -0.6784398318537577
vn 0.7234872326605619 0.12761511952510604 -0.6784398318537577
vn 0.9278349859412914 -0.08951145394146016 0.362091063790049
vn 0.9278349859412914 -0.08951145394146016 0.362091063790049
vn 0.9278349859412914 -0.08951145394146016 0.362091063790049
vn 0.10368244986263447 -0.9202541016375567 0.37733584246627794
vn 0.10368244986263447 -0.9202541016375567 0.37733584246627794
vn 0.10368244986263447 -0.9202541016375567 0.37733584246627794
vn -0.7432866893338786 -0.5927963416977363 -0.3100280547448294
vn -0.7432866893338786 -0.5927963416977363 -0.3100280547448294
vn -0.7432866893338786 -0.5927963416977363 -0.3100280547448294
vn -0.45741692998286965 0.43523178277998853 -0.7754631180289616
vn -0.45741692998286965 0.43523178277998853 -0.7754631180289616
vn -0.45741692998286965 0.43523178277998853 -0.7754631180289616
vn 0.6037396724407554 0.7288093489407581 -0.32300981535810547
vn 0.6037396724407554 0.7288093489407581 -0.32300981535810547
vn 0.6037396724407554 0.7288093489407581 -0.32300981535810547
f 293/293/293 294/294/294 295/295/295
f 296/296/296 297/297/297 298/298/298
f 299/299/299 300/300/300 301/301/301
f 302/302/302 303/303/303 304/304/304
f 305/305/305 306/306/306 307/307/307
f 308/308/308 309/309/309 310/310/310
f 311/311/311 312/312/312 313/313/313
f 314/314/314 315/315/315 316/316/316
f 317/317/317 318/318/318 319/319/319
f 320/320/320 321/321/321 322/322/322
f 323/323/323 324/324/324 325/325/325
f 326/326/326 327/327/327 328/328/328
f 329/329/329 330/330/330 331/331/331
f 332/332/332 333/333/333 334/334/334
f 335/335/335 336/336/336 337/337/337
f 338/338/338 339/339/339 340/340/340
f 341/341/341 342/342/342 343/343/343
f 344/344/344 345/345/345 346/346/346
f 347/347/347 348/348/348 349/349/349
f 350/350/350 351/351/351 352/352/352
o crown_top
usemtl leaf
v 0.5168805122375488 2.707467794418335 -0.3664070665836334
v 0.8936774730682373 3.0877158641815186 0.13830135762691498
v 0.3361961245536804 3.381150484085083 -0.20087644457817078
v 0.8936774730682373 3.0877158641815186 0.13830135762691498
v 0.9205675721168518 3.7629377841949463 -0.11534705758094788
v 0.3361961245536804 3.381150484085083 -0.20087644457817078
v 0.9205675721168518 3.7629377841949463 -0.11534705758094788
v 0.5603896379470825 3.799999952316284 -0.7768188118934631
v 0.3361961245536804 3.381150484085083 -0.20087644457817078
v 0.5603896379470825 3.799999952316284 -0.7768188118934631
v 0.31089726090431213 3.1476833820343018 -0.9319823980331421
v 0.3361961245536804 3.381150484085083 -0.20087644457817078
v 0.31089726090431213 3.1476833820343018 -0.9319823980331421
v 0.5168805122375488 2.707467794418335 -0.3664070665836334
v 0.3361961245536804 3.381150484085083 -0.20087644457817078
v 0.8936774730682373 3.0877158641815186 0.13830135762691498
v 1.4624134302139282 3.3252124786376953 -0.22801761329174042
v 0.9205675721168518 3.7629377841949463 -0.11534705758094788
v 0.5168805122375488 2.707467794418335 -0.3664070665836334
v 1.212921142578125 2.672896385192871 -0.38318121433258057
v 0.8936774730682373 3.0877158641815186 0.13830135762691498
v 0.31089726090431213 3.1476833820343018 -0.9319823980331421
v 0.8527430891990662 2.70995831489563 -1.0446529388427734
v 0.5168805122375488 2.707467794418335 -0.3664070665836334
v 0.5603896379470825 3.799999952316284 -0.7768188118934631
v 0.8796332478523254 3.3851802349090576 -1.298301339149475
v 0.31089726090431213 3.1476833820343018 -0.9319823980331421
v 0.9205675721168518 3.7629377841949463 -0.11534705758094788
v 1.2564301490783691 3.765428304672241 -0.7935929894447327
v 0.5603896379470825 3.799999952316284 -0.7768188118934631
v 1.4624134302139282 3.3252124786376953 -0.22801761329174042
v 1.212921142578125 2.672896385192871 -0.38318121433258057
v 1.4371144771575928 3.091745615005493 -0.9591236114501953
v 1.212921142578125 2.672896385192871 -0.38318121433258057
v 0.8527430891990662 2.70995831489563 -1.0446529388427734
v 1.4371144771575928 3.091745615005493 -0.9591236114501953
v 0.8527430891990662 2.70995831489563 -1.0446529388427734
v 0.8796332478523254 3.3851802349090576 -1.298301339149475
v 1.4371144771575928 3.091745615005493 -0.9591236114501953
v 0.8796332478523254 3.3851802349090576 -1.298301339149475
v 1.2564301490783691 3.765428304672241 -0.7935929894447327
v 1.4371144771575928 3.091745615005493 -0.9591236114501953
v 1.2564301490783691 3.765428304672241 -0.7935929894447327
v 1.4624134302139282 3.3252124786376953 -0.22801761329174042
v 1.4371144771575928 3.091745615005493 -0.9591236114501953
v 1.4624134302139282 3.3252124786376953 -0.22801761329174042
v 0.8936774730682373 3.0877158641815186 0.13830135762691498
v 1.212921142578125 2.672896385192871 -0.38318121433258057
v 1.212921142578125 2.672896385192871 -0.38318121433258057
v 0.5168805122375488 2.707467794418335 -0.3664070665836334
v 0.8527430891990662 2.70995831489563 -1.0446529388427734
v 0.8527430891990662 2.70995831489563 -1.0446529388427734
v 0.31089726090431213 3.1476833820343018 -0.9319823980331421
v 0.8796332478523254 3.3851802349090576 -1.298301339149475
v 0.8796332478523254 3.3851802349090576 -1.298301339149475
v 0.5603896379470825 3.799999952316284 -0.7768188118934631
v 1.2564301490783691 3.765428304672241 -0.7935929894447327
v 1.2564301490783691 3.765428304672241 -0.7935929894447327
v 0.9205675721168518 3.7629377841949463 -0.11534705758094788
v 1.4624134302139282 3.3252124786376953 -0.22801761329174042
vt 0.5881040692329407 0.5
vt 0.75 0.6762081980705261
vt 0.5 0.8237918019294739
vt 0.75 0.6762081980705261
vt 1 0.8237918019294739
vt 0.5 0.8237918019294739
vt 0 0.8237918019294739
vt 0.25 0.6762081980705261
vt 0.5 0.8237918019294739
vt 0.25 0.6762081980705261
vt 0.41189590096473694 0.5
vt 0.5 0.8237918019294739
vt 0.41189590096473694 0.5
vt 0.5881040692329407 0.5
vt 0.5 0.8237918019294739
vt 0.75 0.6762081980705261
vt 0.9118959307670593 0.5
vt 1 0.8237918019294739
vt 0.5881040692329407 0.5
vt 0.75 0.3237918019294739
vt 0.75 0.6762081980705261
vt 0.41189590096473694 0.5
vt 0.5 0.17620819807052612
vt 0.5881040692329407 0.5
vt 0.25 0.6762081980705261
vt 0.25 0.3237918019294739
vt 0.41189590096473694 0.5
vt 0 0.8237918019294739
vt 0.08810409903526306 0.5
vt 0.25 0.6762081980705261
vt 0.9118959307670593 0.5
vt 0.75 0.3237918019294739
vt 1 0.17620819807052612
vt 0.75 0.3237918019294739
vt 0.5 0.17620819807052612
vt 1 0.17620819807052612
vt 0.5 0.17620819807052612
vt 0.25 0.3237918019294739
vt 0 0.17620819807052612
vt 0.25 0.3237918019294739
vt 0.08810409903526306 0.5
vt 0 0.17620819807052612
vt 1.0881041288375854 0.5
vt 0.9118959307670593 0.5
vt 1 0.17620819807052612
vt 0.9118959307670593 0.5
vt 0.75 0.6762081980705261
vt 0.75 0.3237918019294739
vt 0.75 0.3237918019294739
vt 0.5881040692329407 0.5
vt 0.5 0.17620819807052612
vt 0.5 0.17620819807052612
vt 0.41189590096473694 0.5
vt 0.25 0.3237918019294739
vt 0.25 0.3237918019294739
vt 0.25 0.6762081980705261
vt 0.08810409903526306 0.5
vt 1.0881041288375854 0.5
vt 1 0.8237918019294739
vt 0.9118959307670593 0.5
vn -0.6128646199747747 -0.3396756684720281 0.7134545520432647
vn -0.6128646199747747 -0.3396756684720281 0.7134545520432647
vn -0.6128646199747747 -0.3396756684720281 0.7134545520432647
vn -0.3507517942913521 0.34152585936683905 0.8719709090245725
vn -0.3507517942913521 0.34152585936683905 0.8719709090245725
vn -0.3507517942913521 0.34152585936683905 0.8719709090245725
vn -0.5485881597245592 0.7631824654692554 0.3414726276149968
vn -0.5485881597245592 0.7631824654692554 0.3414726276149968
vn -0.5485881597245592 0.7631824654692554 0.3414726276149968
vn -0.9233167122023391 0.37394693293548853 -0.08746393723131862
vn -0.9233167122023391 0.37394693293548853 -0.08746393723131862
vn -0.9233167122023391 0.37394693293548853 -0.08746393723131862
vn -0.9503629023373844 -0.2853619698994185 0.12401169298089003
vn -0.9503629023373844 -0.2853619698994185 0.12401169298089003
vn -0.9503629023373844 -0.2853619698994185 0.12401169298089003
vn 0.4229705824449135 0.30384331185125607 0.8536832716115919
vn 0.4229705824449135 0.30384331185125607 0.8536832716115919
vn 0.4229705824449135 0.30384331185125607 0.8536832716115919
vn -0.024442525701024953 -0.7896006742303406 0.613134029550103
vn -0.024442525701024953 -0.7896006742303406 0.613134029550103
vn -0.024442525701024953 -0.7896006742303406 0.613134029550103
vn -0.6350085116687375 -0.7044506643987218 -0.3170385647463951
vn -0.6350085116687375 -0.7044506643987218 -0.3170385647463951
vn -0.6350085116687375 -0.7044506643987218 -0.3170385647463951
vn -0.6083790440040189 0.3962548529948957 -0.6876460065286133
vn -0.6083790440040189 0.3962548529948957 -0.6876460065286133
vn -0.6083790440040189 0.3962548529948957 -0.6876460065286133
vn 0.05027416467179646 0.9983269808012654 0.028561298478591526
vn 0.05027416467179646 0.9983269808012654 0.028561298478591526
vn 0.05027416467179646 0.9983269808012654 0.028561298478591526
vn 0.9233167122023391 -0.37394693293548853 0.08746393723131862
vn 0.9233167122023391 -0.37394693293548853 0.08746393723131862
vn 0.9233167122023391 -0.37394693293548853 0.08746393723131862
vn 0.5485881597245592 -0.7631824654692554 -0.3414726276149968
vn 0.5485881597245592 -0.7631824654692554 -0.3414726276149968
vn 0.5485881597245592 -0.7631824654692554 -0.3414726276149968
vn 0.3507517942913521 -0.34152585936683905 -0.8719709090245725
vn 0.3507517942913521 -0.34152585936683905 -0.8719709090245725
vn 0.3507517942913521 -0.34152585936683905 -0.8719709090245725
vn 0.6128646199747747 0.3396756684720281 -0.7134545520432647
vn 0.6128646199747747 0.3396756684720281 -0.7134545520432647
vn 0.6128646199747747 0.3396756684720281 -0.7134545520432647
vn 0.9503629023373844 0.2853619698994185 -0.12401169298089003
vn 0.9503629023373844 0.2853619698994185 -0.12401169298089003
vn 0.9503629023373844 0.2853619698994185 -0.12401169298089003
vn 0.6083790440040189 -0.3962548529948957 0.6876460065286133
vn 0.6083790440040189 -0.3962548529948957 0.6876460065286133
vn 0.6083790440040189 -0.3962548529948957 0.6876460065286133
vn -0.05027416467179646 -0.9983269808012654 -0.028561298478591526
vn -0.05027416467179646 -0.9983269808012654 -0.028561298478591526
vn -0.05027416467179646 -0.9983269808012654 -0.028561298478591526
vn -0.4229705824449135 -0.30384331185125607 -0.8536832716115919
vn -0.4229705824449135 -0.30384331185125607 -0.8536832716115919
vn -0.4229705824449135 -0.30384331185125607 -0.8536832716115919
vn 0.024442525701024953 0.7896006742303406 -0.613134029550103
vn 0.024442525701024953 0.7896006742303406 -0.613134029550103
vn 0.024442525701024953 0.7896006742303406 -0.613134029550103
vn 0.6350085116687375 0.7044506643987218 0.3170385647463951
vn 0.6350085116687375 0.7044506643987218 0.3170385647463951
vn 0.6350085116687375 0.7044506643987218 0.3170385647463951
f 353/353/353 354/354/354 355/355/355
f 356/356/356 357/357/357 358/358/358
f 359/359/359 360/360/360 361/361/361
f 362/362/362 363/363/363 364/364/364
f 365/365/365 366/366/366 367/367/367
f 368/368/368 369/369/369 370/370/370
f 371/371/371 372/372/372 373/373/373
f 374/374/374 375/375/375 376/376/376
f 377/377/377 378/378/378 379/379/379
f 380/380/380 381/381/381 382/382/382
f 383/383/383 384/384/384 385/385/385
f 386/386/386 387/387/387 388/388/388
f 389/389/389 390/390/390 391/391/391
f 392/392/392 393/393/393 394/394/394
f 395/395/395 396/396/396 397/397/397
f 398/398/398 399/399/399 400/400/400
f 401/401/401 402/402/402 403/403/403
f 404/404/404 405/405/405 406/406/406
f 407/407/407 408/408/408 409/409/409
f 410/410/410 411/411/411 412/412/412
