mtllib crate.mtl
o crate_body
usemtl rust
v -0.6000000238418579 1.1920928910669204e-8 -0.699999988079071
v -0.6234375238418579 0.0015624880790710005 -0.699999988079071
v -0.643750011920929 0.0062499761581420454 -0.699999988079071
v 0.6234375238418579 0.0015624880790710005 -0.699999988079071
v 0.6000000238418579 1.1920928910669204e-8 -0.699999988079071
v -0.6000000238418579 1.1920928910669204e-8 -0.699999988079071
v 0.660937488079071 0.014062476158142045 -0.699999988079071
v 0.643750011920929 0.0062499761581420454 -0.699999988079071
v 0.6234375238418579 0.0015624880790710005 -0.699999988079071
v 0.6859375238418579 0.03906251192092891 -0.699999988079071
v 0.675000011920929 0.024999988079071 -0.699999988079071
v 0.660937488079071 0.014062476158142045 -0.699999988079071
v 0.698437511920929 0.07656247615814205 -0.699999988079071
v 0.6937500238418579 0.056249988079071 -0.699999988079071
v 0.6859375238418579 0.03906251192092891 -0.699999988079071
v 0.699999988079071 1.3000000238418579 -0.699999988079071
v 0.699999988079071 0.09999997615814205 -0.699999988079071
v 0.698437511920929 0.07656247615814205 -0.699999988079071
v 0.6937500238418579 1.343750011920929 -0.699999988079071
v 0.698437511920929 1.3234375238418579 -0.699999988079071
v 0.699999988079071 1.3000000238418579 -0.699999988079071
v 0.675000011920929 1.375000011920929 -0.699999988079071
v 0.6859375238418579 1.360937488079071 -0.699999988079071
v 0.6937500238418579 1.343750011920929 -0.699999988079071
v 0.643750011920929 1.3937500238418579 -0.699999988079071
v 0.660937488079071 1.3859375238418579 -0.699999988079071
v 0.675000011920929 1.375000011920929 -0.699999988079071
v 0.6000000238418579 1.399999988079071 -0.699999988079071
v 0.6234375238418579 1.398437511920929 -0.699999988079071
v 0.643750011920929 1.3937500238418579 -0.699999988079071
v -0.6234375238418579 1.398437511920929 -0.699999988079071
v -0.6000000238418579 1.399999988079071 -0.699999988079071
v 0.6000000238418579 1.399999988079071 -0.699999988079071
v -0.660937488079071 1.3859375238418579 -0.699999988079071
v -0.643750011920929 1.3937500238418579 -0.699999988079071
v -0.6234375238418579 1.398437511920929 -0.699999988079071
v -0.6859375238418579 1.360937488079071 -0.699999988079071
v -0.675000011920929 1.375000011920929 -0.699999988079071
v -0.660937488079071 1.3859375238418579 -0.699999988079071
v -0.698437511920929 1.3234375238418579 -0.699999988079071
v -0.6937500238418579 1.343750011920929 -0.699999988079071
v -0.6859375238418579 1.360937488079071 -0.699999988079071
v -0.699999988079071 0.09999997615814205 -0.699999988079071
v -0.699999988079071 1.3000000238418579 -0.699999988079071
v -0.698437511920929 1.3234375238418579 -0.699999988079071
v -0.6937500238418579 0.056249988079071 -0.699999988079071
v -0.698437511920929 0.07656247615814205 -0.699999988079071
v -0.699999988079071 0.09999997615814205 -0.699999988079071
v -0.675000011920929 0.024999988079071 -0.699999988079071
v -0.6859375238418579 0.03906251192092891 -0.699999988079071
v -0.6937500238418579 0.056249988079071 -0.699999988079071
v -0.643750011920929 0.0062499761581420454 -0.699999988079071
v -0.660937488079071 0.014062476158142045 -0.699999988079071
v -0.675000011920929 0.024999988079071 -0.699999988079071
v 0.6234375238418579 0.0015624880790710005 -0.699999988079071
v -0.6000000238418579 1.1920928910669204e-8 -0.699999988079071
v -0.643750011920929 0.0062499761581420454 -0.699999988079071
v 0.6859375238418579 0.03906251192092891 -0.699999988079071
v 0.660937488079071 0.014062476158142045 -0.699999988079071
v 0.6234375238418579 0.0015624880790710005 -0.699999988079071
v 0.699999988079071 1.3000000238418579 -0.699999988079071
v 0.698437511920929 0.07656247615814205 -0.699999988079071
v 0.6859375238418579 0.03906251192092891 -0.699999988079071
v 0.675000011920929 1.375000011920929 -0.699999988079071
v 0.6937500238418579 1.343750011920929 -0.699999988079071
v 0.699999988079071 1.3000000238418579 -0.699999988079071
v 0.6000000238418579 1.399999988079071 -0.699999988079071
v 0.643750011920929 1.3937500238418579 -0.699999988079071
v 0.675000011920929 1.375000011920929 -0.699999988079071
v -0.660937488079071 1.3859375238418579 -0.699999988079071
v -0.6234375238418579 1.398437511920929 -0.699999988079071
v 0.6000000238418579 1.399999988079071 -0.699999988079071
v -0.698437511920929 1.3234375238418579 -0.699999988079071
v -0.6859375238418579 1.360937488079071 -0.699999988079071
v -0.660937488079071 1.3859375238418579 -0.699999988079071
v -0.6937500238418579 0.056249988079071 -0.699999988079071
v -0.699999988079071 0.09999997615814205 -0.699999988079071
v -0.698437511920929 1.3234375238418579 -0.699999988079071
v -0.643750011920929 0.0062499761581420454 -0.699999988079071
v -0.675000011920929 0.024999988079071 -0.699999988079071
v -0.6937500238418579 0.056249988079071 -0.699999988079071
v 0.6859375238418579 0.03906251192092891 -0.699999988079071
v 0.6234375238418579 0.0015624880790710005 -0.699999988079071
v -0.643750011920929 0.0062499761581420454 -0.699999988079071
v 0.675000011920929 1.375000011920929 -0.699999988079071
v 0.699999988079071 1.3000000238418579 -0.699999988079071
v 0.6859375238418579 0.03906251192092891 -0.699999988079071
v -0.660937488079071 1.3859375238418579 -0.699999988079071
v 0.6000000238418579 1.399999988079071 -0.699999988079071
v 0.675000011920929 1.375000011920929 -0.699999988079071
v -0.6937500238418579 0.056249988079071 -0.699999988079071
v -0.698437511920929 1.3234375238418579 -0.699999988079071
v -0.660937488079071 1.3859375238418579 -0.699999988079071
v 0.6859375238418579 0.03906251192092891 -0.699999988079071
v -0.643750011920929 0.0062499761581420454 -0.699999988079071
v -0.6937500238418579 0.056249988079071 -0.699999988079071
v -0.660937488079071 1.3859375238418579 -0.699999988079071
v 0.675000011920929 1.375000011920929 -0.699999988079071
v 0.6859375238418579 0.03906251192092891 -0.699999988079071
v 0.6859375238418579 0.03906251192092891 -0.699999988079071
v -0.6937500238418579 0.056249988079071 -0.699999988079071
v -0.660937488079071 1.3859375238418579 -0.699999988079071
v -0.643750011920929 0.0062499761581420454 0.699999988079071
v -0.6234375238418579 0.0015624880790710005 0.699999988079071
v -0.6000000238418579 1.1920928910669204e-8 0.699999988079071
v -0.6000000238418579 1.1920928910669204e-8 0.699999988079071
v 0.6000000238418579 1.1920928910669204e-8 0.699999988079071
v 0.6234375238418579 0.0015624880790710005 0.699999988079071
v 0.6234375238418579 0.0015624880790710005 0.699999988079071
v 0.643750011920929 0.0062499761581420454 0.699999988079071
v 0.660937488079071 0.014062476158142045 0.699999988079071
v 0.660937488079071 0.014062476158142045 0.699999988079071
v 0.675000011920929 0.024999988079071 0.699999988079071
v 0.6859375238418579 0.03906251192092891 0.699999988079071
v 0.6859375238418579 0.03906251192092891 0.699999988079071
v 0.6937500238418579 0.056249988079071 0.699999988079071
v 0.698437511920929 0.07656247615814205 0.699999988079071
v 0.698437511920929 0.07656247615814205 0.699999988079071
v 0.699999988079071 0.09999997615814205 0.699999988079071
v 0.699999988079071 1.3000000238418579 0.699999988079071
v 0.699999988079071 1.3000000238418579 0.699999988079071
v 0.698437511920929 1.3234375238418579 0.699999988079071
v 0.6937500238418579 1.343750011920929 0.699999988079071
v 0.6937500238418579 1.343750011920929 0.699999988079071
v 0.6859375238418579 1.360937488079071 0.699999988079071
v 0.675000011920929 1.375000011920929 0.699999988079071
v 0.675000011920929 1.375000011920929 0.699999988079071
v 0.660937488079071 1.3859375238418579 0.699999988079071
v 0.643750011920929 1.3937500238418579 0.699999988079071
v 0.643750011920929 1.3937500238418579 0.699999988079071
v 0.6234375238418579 1.398437511920929 0.699999988079071
v 0.6000000238418579 1.399999988079071 0.699999988079071
v 0.6000000238418579 1.399999988079071 0.699999988079071
v -0.6000000238418579 1.399999988079071 0.699999988079071
v -0.6234375238418579 1.398437511920929 0.699999988079071
v -0.6234375238418579 1.398437511920929 0.699999988079071
v -0.643750011920929 1.3937500238418579 0.699999988079071
v -0.660937488079071 1.3859375238418579 0.699999988079071
v -0.660937488079071 1.3859375238418579 0.699999988079071
v -0.675000011920929 1.375000011920929 0.699999988079071
v -0.6859375238418579 1.360937488079071 0.699999988079071
v -0.6859375238418579 1.360937488079071 0.699999988079071
v -0.6937500238418579 1.343750011920929 0.699999988079071
v -0.698437511920929 1.3234375238418579 0.699999988079071
v -0.698437511920929 1.3234375238418579 0.699999988079071
v -0.699999988079071 1.3000000238418579 0.699999988079071
v -0.699999988079071 0.09999997615814205 0.699999988079071
v -0.699999988079071 0.09999997615814205 0.699999988079071
v -0.698437511920929 0.07656247615814205 0.699999988079071
v -0.6937500238418579 0.056249988079071 0.699999988079071
v -0.6937500238418579 0.056249988079071 0.699999988079071
v -0.6859375238418579 0.03906251192092891 0.699999988079071
v -0.675000011920929 0.024999988079071 0.699999988079071
v -0.675000011920929 0.024999988079071 0.699999988079071
v -0.660937488079071 0.014062476158142045 0.699999988079071
v -0.643750011920929 0.0062499761581420454 0.699999988079071
v -0.643750011920929 0.0062499761581420454 0.699999988079071
v -0.6000000238418579 1.1920928910669204e-8 0.699999988079071
v 0.6234375238418579 0.0015624880790710005 0.699999988079071
v 0.6234375238418579 0.0015624880790710005 0.699999988079071
v 0.660937488079071 0.014062476158142045 0.699999988079071
v 0.6859375238418579 0.03906251192092891 0.699999988079071
v 0.6859375238418579 0.03906251192092891 0.699999988079071
v 0.698437511920929 0.07656247615814205 0.699999988079071
v 0.699999988079071 1.3000000238418579 0.699999988079071
v 0.699999988079071 1.3000000238418579 0.699999988079071
v 0.6937500238418579 1.343750011920929 0.699999988079071
v 0.675000011920929 1.375000011920929 0.699999988079071
v 0.675000011920929 1.375000011920929 0.699999988079071
v 0.643750011920929 1.3937500238418579 0.699999988079071
v 0.6000000238418579 1.399999988079071 0.699999988079071
v 0.6000000238418579 1.399999988079071 0.699999988079071
v -0.6234375238418579 1.398437511920929 0.699999988079071
v -0.660937488079071 1.3859375238418579 0.699999988079071
v -0.660937488079071 1.3859375238418579 0.699999988079071
v -0.6859375238418579 1.360937488079071 0.699999988079071
v -0.698437511920929 1.3234375238418579 0.699999988079071
v -0.698437511920929 1.3234375238418579 0.699999988079071
v -0.699999988079071 0.09999997615814205 0.699999988079071
v -0.6937500238418579 0.056249988079071 0.699999988079071
v -0.6937500238418579 0.056249988079071 0.699999988079071
v -0.675000011920929 0.024999988079071 0.699999988079071
v -0.643750011920929 0.0062499761581420454 0.699999988079071
v -0.643750011920929 0.0062499761581420454 0.699999988079071
v 0.6234375238418579 0.0015624880790710005 0.699999988079071
v 0.6859375238418579 0.03906251192092891 0.699999988079071
v 0.6859375238418579 0.03906251192092891 0.699999988079071
v 0.699999988079071 1.3000000238418579 0.699999988079071
v 0.675000011920929 1.375000011920929 0.699999988079071
v 0.675000011920929 1.375000011920929 0.699999988079071
v 0.6000000238418579 1.399999988079071 0.699999988079071
v -0.660937488079071 1.3859375238418579 0.699999988079071
v -0.660937488079071 1.3859375238418579 0.699999988079071
v -0.698437511920929 1.3234375238418579 0.699999988079071
v -0.6937500238418579 0.056249988079071 0.699999988079071
v -0.6937500238418579 0.056249988079071 0.699999988079071
v -0.643750011920929 0.0062499761581420454 0.699999988079071
v 0.6859375238418579 0.03906251192092891 0.699999988079071
v 0.6859375238418579 0.03906251192092891 0.699999988079071
v 0.675000011920929 1.375000011920929 0.699999988079071
v -0.660937488079071 1.3859375238418579 0.699999988079071
v -0.660937488079071 1.3859375238418579 0.699999988079071
v -0.6937500238418579 0.056249988079071 0.699999988079071
v 0.6859375238418579 0.03906251192092891 0.699999988079071
v -0.6000000238418579 1.1920928910669204e-8 -0.699999988079071
v 0.6000000238418579 1.1920928910669204e-8 -0.699999988079071
v -0.6000000238418579 1.1920928910669204e-8 0.699999988079071
v 0.6000000238418579 1.1920928910669204e-8 -0.699999988079071
v 0.6000000238418579 1.1920928910669204e-8 0.699999988079071
v -0.6000000238418579 1.1920928910669204e-8 0.699999988079071
v 0.6000000238418579 1.1920928910669204e-8 -0.699999988079071
v 0.6234375238418579 0.0015624880790710005 -0.699999988079071
v 0.6000000238418579 1.1920928910669204e-8 0.699999988079071
v 0.6234375238418579 0.0015624880790710005 -0.699999988079071
v 0.6234375238418579 0.0015624880790710005 0.699999988079071
v 0.6000000238418579 1.1920928910669204e-8 0.699999988079071
v 0.6234375238418579 0.0015624880790710005 -0.699999988079071
v 0.643750011920929 0.0062499761581420454 -0.699999988079071
v 0.6234375238418579 0.0015624880790710005 0.699999988079071
v 0.643750011920929 0.0062499761581420454 -0.699999988079071
v 0.643750011920929 0.0062499761581420454 0.699999988079071
v 0.6234375238418579 0.0015624880790710005 0.699999988079071
v 0.643750011920929 0.0062499761581420454 -0.699999988079071
v 0.660937488079071 0.014062476158142045 -0.699999988079071
v 0.643750011920929 0.0062499761581420454 0.699999988079071
v 0.660937488079071 0.014062476158142045 -0.699999988079071
v 0.660937488079071 0.014062476158142045 0.699999988079071
v 0.643750011920929 0.0062499761581420454 0.699999988079071
v 0.660937488079071 0.014062476158142045 -0.699999988079071
v 0.675000011920929 0.024999988079071 -0.699999988079071
v 0.660937488079071 0.014062476158142045 0.699999988079071
v 0.675000011920929 0.024999988079071 -0.699999988079071
v 0.675000011920929 0.024999988079071 0.699999988079071
v 0.660937488079071 0.014062476158142045 0.699999988079071
v 0.675000011920929 0.024999988079071 -0.699999988079071
v 0.6859375238418579 0.03906251192092891 -0.699999988079071
v 0.675000011920929 0.024999988079071 0.699999988079071
v 0.6859375238418579 0.03906251192092891 -0.699999988079071
v 0.6859375238418579 0.03906251192092891 0.699999988079071
v 0.675000011920929 0.024999988079071 0.699999988079071
v 0.6859375238418579 0.03906251192092891 -0.699999988079071
v 0.6937500238418579 0.056249988079071 -0.699999988079071
v 0.6859375238418579 0.03906251192092891 0.699999988079071
v 0.6937500238418579 0.056249988079071 -0.699999988079071
v 0.6937500238418579 0.056249988079071 0.699999988079071
v 0.6859375238418579 0.03906251192092891 0.699999988079071
v 0.6937500238418579 0.056249988079071 -0.699999988079071
v 0.698437511920929 0.07656247615814205 -0.699999988079071
v 0.6937500238418579 0.056249988079071 0.699999988079071
v 0.698437511920929 0.07656247615814205 -0.699999988079071
v 0.698437511920929 0.07656247615814205 0.699999988079071
v 0.6937500238418579 0.056249988079071 0.699999988079071
v 0.698437511920929 0.07656247615814205 -0.699999988079071
v 0.699999988079071 0.09999997615814205 -0.699999988079071
v 0.698437511920929 0.07656247615814205 0.699999988079071
v 0.699999988079071 0.09999997615814205 -0.699999988079071
v 0.699999988079071 0.09999997615814205 0.699999988079071
v 0.698437511920929 0.07656247615814205 0.699999988079071
v 0.699999988079071 0.09999997615814205 -0.699999988079071
v 0.699999988079071 1.3000000238418579 -0.699999988079071
v 0.699999988079071 0.09999997615814205 0.699999988079071
v 0.699999988079071 1.3000000238418579 -0.699999988079071
v 0.699999988079071 1.3000000238418579 0.699999988079071
v 0.699999988079071 0.09999997615814205 0.699999988079071
v 0.699999988079071 1.3000000238418579 -0.699999988079071
v 0.698437511920929 1.3234375238418579 -0.699999988079071
v 0.699999988079071 1.3000000238418579 0.699999988079071
v 0.698437511920929 1.3234375238418579 -0.699999988079071
v 0.698437511920929 1.3234375238418579 0.699999988079071
v 0.699999988079071 1.3000000238418579 0.699999988079071
v 0.698437511920929 1.3234375238418579 -0.699999988079071
v 0.6937500238418579 1.343750011920929 -0.699999988079071
v 0.698437511920929 1.3234375238418579 0.699999988079071
v 0.6937500238418579 1.343750011920929 -0.699999988079071
v 0.6937500238418579 1.343750011920929 0.699999988079071
v 0.698437511920929 1.3234375238418579 0.699999988079071
v 0.6937500238418579 1.343750011920929 -0.699999988079071
v 0.6859375238418579 1.360937488079071 -0.699999988079071
v 0.6937500238418579 1.343750011920929 0.699999988079071
v 0.6859375238418579 1.360937488079071 -0.699999988079071
v 0.6859375238418579 1.360937488079071 0.699999988079071
v 0.6937500238418579 1.343750011920929 0.699999988079071
v 0.6859375238418579 1.360937488079071 -0.699999988079071
v 0.675000011920929 1.375000011920929 -0.699999988079071
v 0.6859375238418579 1.360937488079071 0.699999988079071
v 0.675000011920929 1.375000011920929 -0.699999988079071
v 0.675000011920929 1.375000011920929 0.699999988079071
v 0.6859375238418579 1.360937488079071 0.699999988079071
v 0.675000011920929 1.375000011920929 -0.699999988079071
v 0.660937488079071 1.3859375238418579 -0.699999988079071
v 0.675000011920929 1.375000011920929 0.699999988079071
v 0.660937488079071 1.3859375238418579 -0.699999988079071
v 0.660937488079071 1.3859375238418579 0.699999988079071
v 0.675000011920929 1.375000011920929 0.699999988079071
v 0.660937488079071 1.3859375238418579 -0.699999988079071
v 0.643750011920929 1.3937500238418579 -0.699999988079071
v 0.660937488079071 1.3859375238418579 0.699999988079071
v 0.643750011920929 1.3937500238418579 -0.699999988079071
v 0.643750011920929 1.3937500238418579 0.699999988079071
v 0.660937488079071 1.3859375238418579 0.699999988079071
v 0.643750011920929 1.3937500238418579 -0.699999988079071
v 0.6234375238418579 1.398437511920929 -0.699999988079071
v 0.643750011920929 1.3937500238418579 0.699999988079071
v 0.6234375238418579 1.398437511920929 -0.699999988079071
v 0.6234375238418579 1.398437511920929 0.699999988079071
v 0.643750011920929 1.3937500238418579 0.699999988079071
v 0.6234375238418579 1.398437511920929 -0.699999988079071
v 0.6000000238418579 1.399999988079071 -0.699999988079071
v 0.6234375238418579 1.398437511920929 0.699999988079071
v 0.6000000238418579 1.399999988079071 -0.699999988079071
v 0.6000000238418579 1.399999988079071 0.699999988079071
v 0.6234375238418579 1.398437511920929 0.699999988079071
v 0.6000000238418579 1.399999988079071 -0.699999988079071
v -0.6000000238418579 1.399999988079071 -0.699999988079071
v 0.6000000238418579 1.399999988079071 0.699999988079071
v -0.6000000238418579 1.399999988079071 -0.699999988079071
v -0.6000000238418579 1.399999988079071 0.699999988079071
v 0.6000000238418579 1.399999988079071 0.699999988079071
v -0.6000000238418579 1.399999988079071 -0.699999988079071
v -0.6234375238418579 1.398437511920929 -0.699999988079071
v -0.6000000238418579 1.399999988079071 0.699999988079071
v -0.6234375238418579 1.398437511920929 -0.699999988079071
v -0.6234375238418579 1.398437511920929 0.699999988079071
v -0.6000000238418579 1.399999988079071 0.699999988079071
v -0.6234375238418579 1.398437511920929 -0.699999988079071
v -0.643750011920929 1.3937500238418579 -0.699999988079071
v -0.6234375238418579 1.398437511920929 0.699999988079071
v -0.643750011920929 1.3937500238418579 -0.699999988079071
v -0.643750011920929 1.3937500238418579 0.699999988079071
v -0.6234375238418579 1.398437511920929 0.699999988079071
v -0.643750011920929 1.3937500238418579 -0.699999988079071
v -0.660937488079071 1.3859375238418579 -0.699999988079071
v -0.643750011920929 1.3937500238418579 0.699999988079071
v -0.660937488079071 1.3859375238418579 -0.699999988079071
v -0.660937488079071 1.3859375238418579 0.699999988079071
v -0.643750011920929 1.3937500238418579 0.699999988079071
v -0.660937488079071 1.3859375238418579 -0.699999988079071
v -0.675000011920929 1.375000011920929 -0.699999988079071
v -0.660937488079071 1.3859375238418579 0.699999988079071
v -0.675000011920929 1.375000011920929 -0.699999988079071
v -0.675000011920929 1.375000011920929 0.699999988079071
v -0.660937488079071 1.3859375238418579 0.699999988079071
v -0.675000011920929 1.375000011920929 -0.699999988079071
v -0.6859375238418579 1.360937488079071 -0.699999988079071
v -0.675000011920929 1.375000011920929 0.699999988079071
v -0.6859375238418579 1.360937488079071 -0.699999988079071
v -0.6859375238418579 1.360937488079071 0.699999988079071
v -0.675000011920929 1.375000011920929 0.699999988079071
v -0.6859375238418579 1.360937488079071 -0.699999988079071
v -0.6937500238418579 1.343750011920929 -0.699999988079071
v -0.6859375238418579 1.360937488079071 0.699999988079071
v -0.6937500238418579 1.343750011920929 -0.699999988079071
v -0.6937500238418579 1.343750011920929 0.699999988079071
v -0.6859375238418579 1.360937488079071 0.699999988079071
v -0.6937500238418579 1.343750011920929 -0.699999988079071
v -0.698437511920929 1.3234375238418579 -0.699999988079071
v -0.6937500238418579 1.343750011920929 0.699999988079071
v -0.698437511920929 1.3234375238418579 -0.699999988079071
v -0.698437511920929 1.3234375238418579 0.699999988079071
v -0.6937500238418579 1.343750011920929 0.699999988079071
v -0.698437511920929 1.3234375238418579 -0.699999988079071
v -0.699999988079071 1.3000000238418579 -0.699999988079071
v -0.698437511920929 1.3234375238418579 0.699999988079071
v -0.699999988079071 1.3000000238418579 -0.699999988079071
v -0.699999988079071 1.3000000238418579 0.699999988079071
v -0.698437511920929 1.3234375238418579 0.699999988079071
v -0.699999988079071 1.3000000238418579 -0.699999988079071
v -0.699999988079071 0.09999997615814205 -0.699999988079071
v -0.699999988079071 1.3000000238418579 0.699999988079071
v -0.699999988079071 0.09999997615814205 -0.699999988079071
v -0.699999988079071 0.09999997615814205 0.699999988079071
v -0.699999988079071 1.3000000238418579 0.699999988079071
v -0.699999988079071 0.09999997615814205 -0.699999988079071
v -0.698437511920929 0.07656247615814205 -0.699999988079071
v -0.699999988079071 0.09999997615814205 0.699999988079071
v -0.698437511920929 0.07656247615814205 -0.699999988079071
v -0.698437511920929 0.07656247615814205 0.699999988079071
v -0.699999988079071 0.09999997615814205 0.699999988079071
v -0.698437511920929 0.07656247615814205 -0.699999988079071
v -0.6937500238418579 0.056249988079071 -0.699999988079071
v -0.698437511920929 0.07656247615814205 0.699999988079071
v -0.6937500238418579 0.056249988079071 -0.699999988079071
v -0.6937500238418579 0.056249988079071 0.699999988079071
v -0.698437511920929 0.07656247615814205 0.699999988079071
v -0.6937500238418579 0.056249988079071 -0.699999988079071
v -0.6859375238418579 0.03906251192092891 -0.699999988079071
v -0.6937500238418579 0.056249988079071 0.699999988079071
v -0.6859375238418579 0.03906251192092891 -0.699999988079071
v -0.6859375238418579 0.03906251192092891 0.699999988079071
v -0.6937500238418579 0.056249988079071 0.699999988079071
v -0.6859375238418579 0.03906251192092891 -0.699999988079071
v -0.675000011920929 0.024999988079071 -0.699999988079071
v -0.6859375238418579 0.03906251192092891 0.699999988079071
v -0.675000011920929 0.024999988079071 -0.699999988079071
v -0.675000011920929 0.024999988079071 0.699999988079071
v -0.6859375238418579 0.03906251192092891 0.699999988079071
v -0.675000011920929 0.024999988079071 -0.699999988079071
v -0.660937488079071 0.014062476158142045 -0.699999988079071
v -0.675000011920929 0.024999988079071 0.699999988079071
v -0.660937488079071 0.014062476158142045 -0.699999988079071
v -0.660937488079071 0.014062476158142045 0.699999988079071
v -0.675000011920929 0.024999988079071 0.699999988079071
v -0.660937488079071 0.014062476158142045 -0.699999988079071
v -0.643750011920929 0.0062499761581420454 -0.699999988079071
v -0.660937488079071 0.014062476158142045 0.699999988079071
v -0.643750011920929 0.0062499761581420454 -0.699999988079071
v -0.643750011920929 0.0062499761581420454 0.699999988079071
v -0.660937488079071 0.014062476158142045 0.699999988079071
v -0.643750011920929 0.0062499761581420454 -0.699999988079071
v -0.6234375238418579 0.0015624880790710005 -0.699999988079071
v -0.643750011920929 0.0062499761581420454 0.699999988079071
v -0.6234375238418579 0.0015624880790710005 -0.699999988079071
v -0.6234375238418579 0.0015624880790710005 0.699999988079071
v -0.643750011920929 0.0062499761581420454 0.699999988079071
v -0.6234375238418579 0.0015624880790710005 -0.699999988079071
v -0.6000000238418579 1.1920928910669204e-8 -0.699999988079071
v -0.6234375238418579 0.0015624880790710005 0.699999988079071
v -0.6000000238418579 1.1920928910669204e-8 -0.699999988079071
v -0.6000000238418579 1.1920928910669204e-8 0.699999988079071
v -0.6234375238418579 0.0015624880790710005 0.699999988079071
vt -0.6000000238418579 -0.699999988079071
vt -0.6234375238418579 -0.698437511920929
vt -0.643750011920929 -0.6937500238418579
vt 0.6234375238418579 -0.698437511920929
vt 0.6000000238418579 -0.699999988079071
vt -0.6000000238418579 -0.699999988079071
vt 0.660937488079071 -0.6859375238418579
vt 0.643750011920929 -0.6937500238418579
vt 0.6234375238418579 -0.698437511920929
vt 0.6859375238418579 -0.660937488079071
vt 0.675000011920929 -0.675000011920929
vt 0.660937488079071 -0.6859375238418579
vt 0.698437511920929 -0.6234375238418579
vt 0.6937500238418579 -0.643750011920929
vt 0.6859375238418579 -0.660937488079071
vt 0.699999988079071 0.6000000238418579
vt 0.699999988079071 -0.6000000238418579
vt 0.698437511920929 -0.6234375238418579
vt 0.6937500238418579 0.643750011920929
vt 0.698437511920929 0.6234375238418579
vt 0.699999988079071 0.6000000238418579
vt 0.675000011920929 0.675000011920929
vt 0.6859375238418579 0.660937488079071
vt 0.6937500238418579 0.643750011920929
vt 0.643750011920929 0.6937500238418579
vt 0.660937488079071 0.6859375238418579
vt 0.675000011920929 0.675000011920929
vt 0.6000000238418579 0.699999988079071
vt 0.6234375238418579 0.698437511920929
vt 0.643750011920929 0.6937500238418579
vt -0.6234375238418579 0.698437511920929
vt -0.6000000238418579 0.699999988079071
vt 0.6000000238418579 0.699999988079071
vt -0.660937488079071 0.6859375238418579
vt -0.643750011920929 0.6937500238418579
vt -0.6234375238418579 0.698437511920929
vt -0.6859375238418579 0.660937488079071
vt -0.675000011920929 0.675000011920929
vt -0.660937488079071 0.6859375238418579
vt -0.698437511920929 0.6234375238418579
vt -0.6937500238418579 0.643750011920929
vt -0.6859375238418579 0.660937488079071
vt -0.699999988079071 -0.6000000238418579
vt -0.699999988079071 0.6000000238418579
vt -0.698437511920929 0.6234375238418579
vt -0.6937500238418579 -0.643750011920929
vt -0.698437511920929 -0.6234375238418579
vt -0.699999988079071 -0.6000000238418579
vt -0.675000011920929 -0.675000011920929
vt -0.6859375238418579 -0.660937488079071
vt -0.6937500238418579 -0.643750011920929
vt -0.643750011920929 -0.6937500238418579
vt -0.660937488079071 -0.6859375238418579
vt -0.675000011920929 -0.675000011920929
vt 0.6234375238418579 -0.698437511920929
vt -0.6000000238418579 -0.699999988079071
vt -0.643750011920929 -0.6937500238418579
vt 0.6859375238418579 -0.660937488079071
vt 0.660937488079071 -0.6859375238418579
vt 0.6234375238418579 -0.698437511920929
vt 0.699999988079071 0.6000000238418579
vt 0.698437511920929 -0.6234375238418579
vt 0.6859375238418579 -0.660937488079071
vt 0.675000011920929 0.675000011920929
vt 0.6937500238418579 0.643750011920929
vt 0.699999988079071 0.6000000238418579
vt 0.6000000238418579 0.699999988079071
vt 0.643750011920929 0.6937500238418579
vt 0.675000011920929 0.675000011920929
vt -0.660937488079071 0.6859375238418579
vt -0.6234375238418579 0.698437511920929
vt 0.6000000238418579 0.699999988079071
vt -0.698437511920929 0.6234375238418579
vt -0.6859375238418579 0.660937488079071
vt -0.660937488079071 0.6859375238418579
vt -0.6937500238418579 -0.643750011920929
vt -0.699999988079071 -0.6000000238418579
vt -0.698437511920929 0.6234375238418579
vt -0.643750011920929 -0.6937500238418579
vt -0.675000011920929 -0.675000011920929
vt -0.6937500238418579 -0.643750011920929
vt 0.6859375238418579 -0.660937488079071
vt 0.6234375238418579 -0.698437511920929
vt -0.643750011920929 -0.6937500238418579
vt 0.675000011920929 0.675000011920929
vt 0.699999988079071 0.6000000238418579
vt 0.6859375238418579 -0.660937488079071
vt -0.660937488079071 0.6859375238418579
vt 0.6000000238418579 0.699999988079071
vt 0.675000011920929 0.675000011920929
vt -0.6937500238418579 -0.643750011920929
vt -0.698437511920929 0.6234375238418579
vt -0.660937488079071 0.6859375238418579
vt 0.6859375238418579 -0.660937488079071
vt -0.643750011920929 -0.6937500238418579
vt -0.6937500238418579 -0.643750011920929
vt -0.660937488079071 0.6859375238418579
vt 0.675000011920929 0.675000011920929
vt 0.6859375238418579 -0.660937488079071
vt 0.6859375238418579 -0.660937488079071
vt -0.6937500238418579 -0.643750011920929
vt -0.660937488079071 0.6859375238418579
vt -0.643750011920929 -0.6937500238418579
vt -0.6234375238418579 -0.698437511920929
vt -0.6000000238418579 -0.699999988079071
vt -0.6000000238418579 -0.699999988079071
vt 0.6000000238418579 -0.699999988079071
vt 0.6234375238418579 -0.698437511920929
vt 0.6234375238418579 -0.698437511920929
vt 0.643750011920929 -0.6937500238418579
vt 0.660937488079071 -0.6859375238418579
vt 0.660937488079071 -0.6859375238418579
vt 0.675000011920929 -0.675000011920929
vt 0.6859375238418579 -0.660937488079071
vt 0.6859375238418579 -0.660937488079071
vt 0.6937500238418579 -0.643750011920929
vt 0.698437511920929 -0.6234375238418579
vt 0.698437511920929 -0.6234375238418579
vt 0.699999988079071 -0.6000000238418579
vt 0.699999988079071 0.6000000238418579
vt 0.699999988079071 0.6000000238418579
vt 0.698437511920929 0.6234375238418579
vt 0.6937500238418579 0.643750011920929
vt 0.6937500238418579 0.643750011920929
vt 0.6859375238418579 0.660937488079071
vt 0.675000011920929 0.675000011920929
vt 0.675000011920929 0.675000011920929
vt 0.660937488079071 0.6859375238418579
vt 0.643750011920929 0.6937500238418579
vt 0.643750011920929 0.6937500238418579
vt 0.6234375238418579 0.698437511920929
vt 0.6000000238418579 0.699999988079071
vt 0.6000000238418579 0.699999988079071
vt -0.6000000238418579 0.699999988079071
vt -0.6234375238418579 0.698437511920929
vt -0.6234375238418579 0.698437511920929
vt -0.643750011920929 0.6937500238418579
vt -0.660937488079071 0.6859375238418579
vt -0.660937488079071 0.6859375238418579
vt -0.675000011920929 0.675000011920929
vt -0.6859375238418579 0.660937488079071
vt -0.6859375238418579 0.660937488079071
vt -0.6937500238418579 0.643750011920929
vt -0.698437511920929 0.6234375238418579
vt -0.698437511920929 0.6234375238418579
vt -0.699999988079071 0.6000000238418579
vt -0.699999988079071 -0.6000000238418579
vt -0.699999988079071 -0.6000000238418579
vt -0.698437511920929 -0.6234375238418579
vt -0.6937500238418579 -0.643750011920929
vt -0.6937500238418579 -0.643750011920929
vt -0.6859375238418579 -0.660937488079071
vt -0.675000011920929 -0.675000011920929
vt -0.675000011920929 -0.675000011920929
vt -0.660937488079071 -0.6859375238418579
vt -0.643750011920929 -0.6937500238418579
vt -0.643750011920929 -0.6937500238418579
vt -0.6000000238418579 -0.699999988079071
vt 0.6234375238418579 -0.698437511920929
vt 0.6234375238418579 -0.698437511920929
vt 0.660937488079071 -0.6859375238418579
vt 0.6859375238418579 -0.660937488079071
vt 0.6859375238418579 -0.660937488079071
vt 0.698437511920929 -0.6234375238418579
vt 0.699999988079071 0.6000000238418579
vt 0.699999988079071 0.6000000238418579
vt 0.6937500238418579 0.643750011920929
vt 0.675000011920929 0.675000011920929
vt 0.675000011920929 0.675000011920929
vt 0.643750011920929 0.6937500238418579
vt 0.6000000238418579 0.699999988079071
vt 0.6000000238418579 0.699999988079071
vt -0.6234375238418579 0.698437511920929
vt -0.660937488079071 0.6859375238418579
vt -0.660937488079071 0.6859375238418579
vt -0.6859375238418579 0.660937488079071
vt -0.698437511920929 0.6234375238418579
vt -0.698437511920929 0.6234375238418579
vt -0.699999988079071 -0.6000000238418579
vt -0.6937500238418579 -0.643750011920929
vt -0.6937500238418579 -0.643750011920929
vt -0.675000011920929 -0.675000011920929
vt -0.643750011920929 -0.6937500238418579
vt -0.643750011920929 -0.6937500238418579
vt 0.6234375238418579 -0.698437511920929
vt 0.6859375238418579 -0.660937488079071
vt 0.6859375238418579 -0.660937488079071
vt 0.699999988079071 0.6000000238418579
vt 0.675000011920929 0.675000011920929
vt 0.675000011920929 0.675000011920929
vt 0.6000000238418579 0.699999988079071
vt -0.660937488079071 0.6859375238418579
vt -0.660937488079071 0.6859375238418579
vt -0.698437511920929 0.6234375238418579
vt -0.6937500238418579 -0.643750011920929
vt -0.6937500238418579 -0.643750011920929
vt -0.643750011920929 -0.6937500238418579
vt 0.6859375238418579 -0.660937488079071
vt 0.6859375238418579 -0.660937488079071
vt 0.675000011920929 0.675000011920929
vt -0.660937488079071 0.6859375238418579
vt -0.660937488079071 0.6859375238418579
vt -0.6937500238418579 -0.643750011920929
vt 0.6859375238418579 -0.660937488079071
vt -0.6000000238418579 1
vt 0.6000000238418579 1
vt -0.6000000238418579 -0.4000000059604645
vt 0.6000000238418579 1
vt 0.6000000238418579 -0.4000000059604645
vt -0.6000000238418579 -0.4000000059604645
vt 0.6000000238418579 1
vt 0.6234375238418579 1
vt 0.6000000238418579 -0.4000000059604645
vt 0.6234375238418579 1
vt 0.6234375238418579 -0.4000000059604645
vt 0.6000000238418579 -0.4000000059604645
vt 0.6234375238418579 1
vt 0.643750011920929 1
vt 0.6234375238418579 -0.4000000059604645
vt 0.643750011920929 1
vt 0.643750011920929 -0.4000000059604645
vt 0.6234375238418579 -0.4000000059604645
vt 0.643750011920929 1
vt 0.660937488079071 1
vt 0.643750011920929 -0.4000000059604645
vt 0.660937488079071 1
vt 0.660937488079071 -0.4000000059604645
vt 0.643750011920929 -0.4000000059604645
vt 0.660937488079071 1
vt 0.675000011920929 1
vt 0.660937488079071 -0.4000000059604645
vt 0.675000011920929 1
vt 0.675000011920929 -0.4000000059604645
vt 0.660937488079071 -0.4000000059604645
vt -0.675000011920929 1
vt -0.660937488079071 1
vt -0.675000011920929 -0.4000000059604645
vt -0.660937488079071 1
vt -0.660937488079071 -0.4000000059604645
vt -0.675000011920929 -0.4000000059604645
vt -0.660937488079071 1
vt -0.643750011920929 1
vt -0.660937488079071 -0.4000000059604645
vt -0.643750011920929 1
vt -0.643750011920929 -0.4000000059604645
vt -0.660937488079071 -0.4000000059604645
vt -0.643750011920929 1
vt -0.6234375238418579 1
vt -0.643750011920929 -0.4000000059604645
vt -0.6234375238418579 1
vt -0.6234375238418579 -0.4000000059604645
vt -0.643750011920929 -0.4000000059604645
vt -0.6234375238418579 1
vt -0.6000000238418579 1
vt -0.6234375238418579 -0.4000000059604645
vt -0.6000000238418579 1
vt -0.6000000238418579 -0.4000000059604645
vt -0.6234375238418579 -0.4000000059604645
vt -0.6000000238418579 1
vt 0.6000000238418579 1
vt -0.6000000238418579 -0.4000000059604645
vt 0.6000000238418579 1
vt 0.6000000238418579 -0.4000000059604645
vt -0.6000000238418579 -0.4000000059604645
vt 0.6000000238418579 1
vt 0.6234375238418579 1
vt 0.6000000238418579 -0.4000000059604645
vt 0.6234375238418579 1
vt 0.6234375238418579 -0.4000000059604645
vt 0.6000000238418579 -0.4000000059604645
vt 0.6234375238418579 1
vt 0.643750011920929 1
vt 0.6234375238418579 -0.4000000059604645
vt 0.643750011920929 1
vt 0.643750011920929 -0.4000000059604645
vt 0.6234375238418579 -0.4000000059604645
vt 0.643750011920929 1
vt 0.660937488079071 1
vt 0.643750011920929 -0.4000000059604645
vt 0.660937488079071 1
vt 0.660937488079071 -0.4000000059604645
vt 0.643750011920929 -0.4000000059604645
vt 0.660937488079071 1
vt 0.675000011920929 1
vt 0.660937488079071 -0.4000000059604645
vt 0.675000011920929 1
vt 0.675000011920929 -0.4000000059604645
vt 0.660937488079071 -0.4000000059604645
vt 0.675000011920929 1
vt 0.660937488079071 1
vt 0.675000011920929 -0.4000000059604645
vt 0.660937488079071 1
vt 0.660937488079071 -0.4000000059604645
vt 0.675000011920929 -0.4000000059604645
vt 0.660937488079071 1
vt 0.643750011920929 1
vt 0.660937488079071 -0.4000000059604645
vt 0.643750011920929 1
vt 0.643750011920929 -0.4000000059604645
vt 0.660937488079071 -0.4000000059604645
vt 0.643750011920929 1
vt 0.6234375238418579 1
vt 0.643750011920929 -0.4000000059604645
vt 0.6234375238418579 1
vt 0.6234375238418579 -0.4000000059604645
vt 0.643750011920929 -0.4000000059604645
vt 0.6234375238418579 1
vt 0.6000000238418579 1
vt 0.6234375238418579 -0.4000000059604645
vt 0.6000000238418579 1
vt 0.6000000238418579 -0.4000000059604645
vt 0.6234375238418579 -0.4000000059604645
vt 0.6000000238418579 1
vt -0.6000000238418579 1
vt 0.6000000238418579 -0.4000000059604645
vt -0.6000000238418579 1
vt -0.6000000238418579 -0.4000000059604645
vt 0.6000000238418579 -0.4000000059604645
vt -0.6000000238418579 1
vt -0.6234375238418579 1
vt -0.6000000238418579 -0.4000000059604645
vt -0.6234375238418579 1
vt -0.6234375238418579 -0.4000000059604645
vt -0.6000000238418579 -0.4000000059604645
vt -0.6234375238418579 1
vt -0.643750011920929 1
vt -0.6234375238418579 -0.4000000059604645
vt -0.643750011920929 1
vt -0.643750011920929 -0.4000000059604645
vt -0.6234375238418579 -0.4000000059604645
vt -0.643750011920929 1
vt -0.660937488079071 1
vt -0.643750011920929 -0.4000000059604645
vt -0.660937488079071 1
vt -0.660937488079071 -0.4000000059604645
vt -0.643750011920929 -0.4000000059604645
vt -0.660937488079071 1
vt -0.675000011920929 1
vt -0.660937488079071 -0.4000000059604645
vt -0.675000011920929 1
vt -0.675000011920929 -0.4000000059604645
vt -0.660937488079071 -0.4000000059604645
vt 0.675000011920929 1
vt 0.660937488079071 1
vt 0.675000011920929 -0.4000000059604645
vt 0.660937488079071 1
vt 0.660937488079071 -0.4000000059604645
vt 0.675000011920929 -0.4000000059604645
vt 0.660937488079071 1
vt 0.643750011920929 1
vt 0.660937488079071 -0.4000000059604645
vt 0.643750011920929 1
vt 0.643750011920929 -0.4000000059604645
vt 0.660937488079071 -0.4000000059604645
vt 0.643750011920929 1
vt 0.6234375238418579 1
vt 0.643750011920929 -0.4000000059604645
vt 0.6234375238418579 1
vt 0.6234375238418579 -0.4000000059604645
vt 0.643750011920929 -0.4000000059604645
vt 0.6234375238418579 1
vt 0.6000000238418579 1
vt 0.6234375238418579 -0.4000000059604645
vt 0.6000000238418579 1
vt 0.6000000238418579 -0.4000000059604645
vt 0.6234375238418579 -0.4000000059604645
vt 0.6000000238418579 1
vt -0.6000000238418579 1
vt 0.6000000238418579 -0.4000000059604645
vt -0.6000000238418579 1
vt -0.6000000238418579 -0.4000000059604645
vt 0.6000000238418579 -0.4000000059604645
vt -0.6000000238418579 1
vt -0.6234375238418579 1
vt -0.6000000238418579 -0.4000000059604645
vt -0.6234375238418579 1
vt -0.6234375238418579 -0.4000000059604645
vt -0.6000000238418579 -0.4000000059604645
vt -0.6234375238418579 1
vt -0.643750011920929 1
vt -0.6234375238418579 -0.4000000059604645
vt -0.643750011920929 1
vt -0.643750011920929 -0.4000000059604645
vt -0.6234375238418579 -0.4000000059604645
vt -0.643750011920929 1
vt -0.660937488079071 1
vt -0.643750011920929 -0.4000000059604645
vt -0.660937488079071 1
vt -0.660937488079071 -0.4000000059604645
vt -0.643750011920929 -0.4000000059604645
vt -0.660937488079071 1
vt -0.675000011920929 1
vt -0.660937488079071 -0.4000000059604645
vt -0.675000011920929 1
vt -0.675000011920929 -0.4000000059604645
vt -0.660937488079071 -0.4000000059604645
vt -0.675000011920929 1
vt -0.660937488079071 1
vt -0.675000011920929 -0.4000000059604645
vt -0.660937488079071 1
vt -0.660937488079071 -0.4000000059604645
vt -0.675000011920929 -0.4000000059604645
vt -0.660937488079071 1
vt -0.643750011920929 1
vt -0.660937488079071 -0.4000000059604645
vt -0.643750011920929 1
vt -0.643750011920929 -0.4000000059604645
vt -0.660937488079071 -0.4000000059604645
vt -0.643750011920929 1
vt -0.6234375238418579 1
vt -0.643750011920929 -0.4000000059604645
vt -0.6234375238418579 1
vt -0.6234375238418579 -0.4000000059604645
vt -0.643750011920929 -0.4000000059604645
vt -0.6234375238418579 1
vt -0.6000000238418579 1
vt -0.6234375238418579 -0.4000000059604645
vt -0.6000000238418579 1
vt -0.6000000238418579 -0.4000000059604645
vt -0.6234375238418579 -0.4000000059604645
vn 0 0 -1
vn 0 0 -1
vn 0 0 -1
vn 0 0 -1
vn 0 0 -1
vn 0 0 -1
vn 0 0 -1
vn 0 0 -1
vn 0 0 -1
vn 0 0 -1
vn 0 0 -1
vn 0 0 -1
vn 0 0 -1
vn 0 0 -1
vn 0 0 -1
vn 0 0 -1
vn 0 0 -1
vn 0 0 -1
vn 0 0 -1
vn 0 0 -1
vn 0 0 -1
vn 0 0 -1
vn 0 0 -1
vn 0 0 -1
vn 0 0 -1
vn 0 0 -1
vn 0 0 -1
vn 0 0 -1
vn 0 0 -1
vn 0 0 -1
vn 0 0 -1
vn 0 0 -1
vn 0 0 -1
vn 0 0 -1
vn 0 0 -1
vn 0 0 -1
vn 0 0 -1
vn 0 0 -1
vn 0 0 -1
vn 0 0 -1
vn 0 0 -1
vn 0 0 -1
vn 0 0 -1
vn 0 0 -1
vn 0 0 -1
vn 0 0 -1
vn 0 0 -1
vn 0 0 -1
vn 0 0 -1
vn 0 0 -1
vn 0 0 -1
vn 0 0 -1
vn 0 0 -1
vn 0 0 -1
vn 0 0 -1
vn 0 0 -1
vn 0 0 -1
vn 0 0 -1
vn 0 0 -1
vn 0 0 -1
vn 0 0 -1
vn 0 0 -1
vn 0 0 -1
vn 0 0 -1
vn 0 0 -1
vn 0 0 -1
vn 0 0 -1
vn 0 0 -1
vn 0 0 -1
vn 0 0 -1
vn 0 0 -1
vn 0 0 -1
vn 0 0 -1
vn 0 0 -1
vn 0 0 -1
vn 0 0 -1
vn 0 0 -1
vn 0 0 -1
vn 0 0 -1
vn 0 0 -1
vn 0 0 -1
vn 0 0 -1
vn 0 0 -1
vn 0 0 -1
vn 0 0 -1
vn 0 0 -1
vn 0 0 -1
vn 0 0 -1
vn 0 0 -1
vn 0 0 -1
vn 0 0 -1
vn 0 0 -1
vn 0 0 -1
vn 0 0 -1
vn 0 0 -1
vn 0 0 -1
vn 0 0 -1
vn 0 0 -1
vn 0 0 -1
vn 0 0 -1
vn 0 0 -1
vn 0 0 -1
vn 0 0 1
vn 0 0 1
vn 0 0 1
vn 0 0 1
vn 0 0 1
vn 0 0 1
vn 0 0 1
vn 0 0 1
vn 0 0 1
vn 0 0 1
vn 0 0 1
vn 0 0 1
vn 0 0 1
vn 0 0 1
vn 0 0 1
vn 0 0 1
vn 0 0 1
vn 0 0 1
vn 0 0 1
vn 0 0 1
vn 0 0 1
vn 0 0 1
vn 0 0 1
vn 0 0 1
vn 0 0 1
vn 0 0 1
vn 0 0 1
vn 0 0 1
vn 0 0 1
vn 0 0 1
vn 0 0 1
vn 0 0 1
vn 0 0 1
vn 0 0 1
vn 0 0 1
vn 0 0 1
vn 0 0 1
vn 0 0 1
vn 0 0 1
vn 0 0 1
vn 0 0 1
vn 0 0 1
vn 0 0 1
vn 0 0 1
vn 0 0 1
vn 0 0 1
vn 0 0 1
vn 0 0 1
vn 0 0 1
vn 0 0 1
vn 0 0 1
vn 0 0 1
vn 0 0 1
vn 0 0 1
vn 0 0 1
vn 0 0 1
vn 0 0 1
vn 0 0 1
vn 0 0 1
vn 0 0 1
vn 0 0 1
vn 0 0 1
vn 0 0 1
vn 0 0 1
vn 0 0 1
vn 0 0 1
vn 0 0 1
vn 0 0 1
vn 0 0 1
vn 0 0 1
vn 0 0 1
vn 0 0 1
vn 0 0 1
vn 0 0 1
vn 0 0 1
vn 0 0 1
vn 0 0 1
vn 0 0 1
vn 0 0 1
vn 0 0 1
vn 0 0 1
vn 0 0 1
vn 0 0 1
vn 0 0 1
vn 0 0 1
vn 0 0 1
vn 0 0 1
vn 0 0 1
vn 0 0 1
vn 0 0 1
vn 0 0 1
vn 0 0 1
vn 0 0 1
vn 0 0 1
vn 0 0 1
vn 0 0 1
vn 0 0 1
vn 0 0 1
vn 0 0 1
vn 0 0 1
vn 0 0 1
vn 0 0 1
vn 0 -1 0
vn 0 -1 0
vn 0 -1 0
vn 0 -1 0
vn 0 -1 0
vn 0 -1 0
vn 0.06651800222280695 -0.9977852250761616 0
vn 0.06651800222280695 -0.9977852250761616 0
vn 0.06651800222280695 -0.9977852250761616 0
vn 0.06651800222280695 -0.9977852250761616 0
vn 0.06651800222280695 -0.9977852250761616 0
vn 0.06651800222280695 -0.9977852250761616 0
vn 0.2248590909730792 -0.9743912916312215 0
vn 0.2248590909730792 -0.9743912916312215 0
vn 0.2248590909730792 -0.9743912916312215 0
vn 0.2248590909730792 -0.9743912916312215 0
vn 0.2248590909730792 -0.9743912916312215 0
vn 0.2248590909730792 -0.9743912916312215 0
vn 0.41380343603945213 -0.91036625394505 0
vn 0.41380343603945213 -0.91036625394505 0
vn 0.41380343603945213 -0.91036625394505 0
vn 0.41380343603945213 -0.91036625394505 0
vn 0.41380343603945213 -0.91036625394505 0
vn 0.41380343603945213 -0.91036625394505 0
vn 0.6139403576734132 -0.7893524163640988 0
vn 0.6139403576734132 -0.7893524163640988 0
vn 0.6139403576734132 -0.7893524163640988 0
vn 0.6139403576734132 -0.7893524163640988 0
vn 0.6139403576734132 -0.7893524163640988 0
vn 0.6139403576734132 -0.7893524163640988 0
vn 0.7893524163640988 -0.6139403576734132 0
vn 0.7893524163640988 -0.6139403576734132 0
vn 0.7893524163640988 -0.6139403576734132 0
vn 0.7893524163640988 -0.6139403576734132 0
vn 0.7893524163640988 -0.6139403576734132 0
vn 0.7893524163640988 -0.6139403576734132 0
vn 0.91036625394505 -0.41380343603945213 0
vn 0.91036625394505 -0.41380343603945213 0
vn 0.91036625394505 -0.41380343603945213 0
vn 0.91036625394505 -0.41380343603945213 0
vn 0.91036625394505 -0.41380343603945213 0
vn 0.91036625394505 -0.41380343603945213 0
vn 0.9743912916312215 -0.2248590909730792 0
vn 0.9743912916312215 -0.2248590909730792 0
vn 0.9743912916312215 -0.2248590909730792 0
vn 0.9743912916312215 -0.2248590909730792 0
vn 0.9743912916312215 -0.2248590909730792 0
vn 0.9743912916312215 -0.2248590909730792 0
vn 0.9977852250761616 -0.06651800222280695 0
vn 0.9977852250761616 -0.06651800222280695 0
vn 0.9977852250761616 -0.06651800222280695 0
vn 0.9977852250761616 -0.06651800222280695 0
vn 0.9977852250761616 -0.06651800222280695 0
vn 0.9977852250761616 -0.06651800222280695 0
vn 1 0 0
vn 1 0 0
vn 1 0 0
vn 1 0 0
vn 1 0 0
vn 1 0 0
vn 0.9977852250761616 0.06651800222280695 0
vn 0.9977852250761616 0.06651800222280695 0
vn 0.9977852250761616 0.06651800222280695 0
vn 0.9977852250761616 0.06651800222280695 0
vn 0.9977852250761616 0.06651800222280695 0
vn 0.9977852250761616 0.06651800222280695 0
vn 0.9743912916312215 0.2248590909730792 0
vn 0.9743912916312215 0.2248590909730792 0
vn 0.9743912916312215 0.2248590909730792 0
vn 0.9743912916312215 0.2248590909730792 0
vn 0.9743912916312215 0.2248590909730792 0
vn 0.9743912916312215 0.2248590909730792 0
vn 0.91036625394505 0.41380343603945213 0
vn 0.91036625394505 0.41380343603945213 0
vn 0.91036625394505 0.41380343603945213 0
vn 0.91036625394505 0.41380343603945213 0
vn 0.91036625394505 0.41380343603945213 0
vn 0.91036625394505 0.41380343603945213 0
vn 0.7893524163640988 0.6139403576734132 0
vn 0.7893524163640988 0.6139403576734132 0
vn 0.7893524163640988 0.6139403576734132 0
vn 0.7893524163640988 0.6139403576734132 0
vn 0.7893524163640988 0.6139403576734132 0
vn 0.7893524163640988 0.6139403576734132 0
vn 0.6139403576734132 0.7893524163640988 0
vn 0.6139403576734132 0.7893524163640988 0
vn 0.6139403576734132 0.7893524163640988 0
vn 0.6139403576734132 0.7893524163640988 0
vn 0.6139403576734132 0.7893524163640988 0
vn 0.6139403576734132 0.7893524163640988 0
vn 0.41380343603945213 0.91036625394505 0
vn 0.41380343603945213 0.91036625394505 0
vn 0.41380343603945213 0.91036625394505 0
vn 0.41380343603945213 0.91036625394505 0
vn 0.41380343603945213 0.91036625394505 0
vn 0.41380343603945213 0.91036625394505 0
vn 0.2248590909730792 0.9743912916312215 0
vn 0.2248590909730792 0.9743912916312215 0
vn 0.2248590909730792 0.9743912916312215 0
vn 0.2248590909730792 0.9743912916312215 0
vn 0.2248590909730792 0.9743912916312215 0
vn 0.2248590909730792 0.9743912916312215 0
vn 0.06651800222280695 0.9977852250761616 0
vn 0.06651800222280695 0.9977852250761616 0
vn 0.06651800222280695 0.9977852250761616 0
vn 0.06651800222280695 0.9977852250761616 0
vn 0.06651800222280695 0.9977852250761616 0
vn 0.06651800222280695 0.9977852250761616 0
vn 0 1 0
vn 0 1 0
vn 0 1 0
vn 0 1 0
vn 0 1 0
vn 0 1 0
vn -0.06651800222280695 0.9977852250761616 0
vn -0.06651800222280695 0.9977852250761616 0
vn -0.06651800222280695 0.9977852250761616 0
vn -0.06651800222280695 0.9977852250761616 0
vn -0.06651800222280695 0.9977852250761616 0
vn -0.06651800222280695 0.9977852250761616 0
vn -0.2248590909730792 0.9743912916312215 0
vn -0.2248590909730792 0.9743912916312215 0
vn -0.2248590909730792 0.9743912916312215 0
vn -0.2248590909730792 0.9743912916312215 0
vn -0.2248590909730792 0.9743912916312215 0
vn -0.2248590909730792 0.9743912916312215 0
vn -0.41380343603945213 0.91036625394505 0
vn -0.41380343603945213 0.91036625394505 0
vn -0.41380343603945213 0.91036625394505 0
vn -0.41380343603945213 0.91036625394505 0
vn -0.41380343603945213 0.91036625394505 0
vn -0.41380343603945213 0.91036625394505 0
vn -0.6139403576734132 0.7893524163640988 0
vn -0.6139403576734132 0.7893524163640988 0
vn -0.6139403576734132 0.7893524163640988 0
vn -0.6139403576734132 0.7893524163640988 0
vn -0.6139403576734132 0.7893524163640988 0
vn -0.6139403576734132 0.7893524163640988 0
vn -0.7893524163640988 0.6139403576734132 0
vn -0.7893524163640988 0.6139403576734132 0
vn -0.7893524163640988 0.6139403576734132 0
vn -0.7893524163640988 0.6139403576734132 0
vn -0.7893524163640988 0.6139403576734132 0
vn -0.7893524163640988 0.6139403576734132 0
vn -0.91036625394505 0.41380343603945213 0
vn -0.91036625394505 0.41380343603945213 0
vn -0.91036625394505 0.41380343603945213 0
vn -0.91036625394505 0.41380343603945213 0
vn -0.91036625394505 0.41380343603945213 0
vn -0.91036625394505 0.41380343603945213 0
vn -0.9743912916312215 0.2248590909730792 0
vn -0.9743912916312215 0.2248590909730792 0
vn -0.9743912916312215 0.2248590909730792 0
vn -0.9743912916312215 0.2248590909730792 0
vn -0.9743912916312215 0.2248590909730792 0
vn -0.9743912916312215 0.2248590909730792 0
vn -0.9977852250761616 0.06651800222280695 0
vn -0.9977852250761616 0.06651800222280695 0
vn -0.9977852250761616 0.06651800222280695 0
vn -0.9977852250761616 0.06651800222280695 0
vn -0.9977852250761616 0.06651800222280695 0
vn -0.9977852250761616 0.06651800222280695 0
vn -1 0 0
vn -1 0 0
vn -1 0 0
vn -1 0 0
vn -1 0 0
vn -1 0 0
vn -0.9977852250761616 -0.06651800222280695 0
vn -0.9977852250761616 -0.06651800222280695 0
vn -0.9977852250761616 -0.06651800222280695 0
vn -0.9977852250761616 -0.06651800222280695 0
vn -0.9977852250761616 -0.06651800222280695 0
vn -0.9977852250761616 -0.06651800222280695 0
vn -0.9743912916312215 -0.2248590909730792 0
vn -0.9743912916312215 -0.2248590909730792 0
vn -0.9743912916312215 -0.2248590909730792 0
vn -0.9743912916312215 -0.2248590909730792 0
vn -0.9743912916312215 -0.2248590909730792 0
vn -0.9743912916312215 -0.2248590909730792 0
vn -0.91036625394505 -0.41380343603945213 0
vn -0.91036625394505 -0.41380343603945213 0
vn -0.91036625394505 -0.41380343603945213 0
vn -0.91036625394505 -0.41380343603945213 0
vn -0.91036625394505 -0.41380343603945213 0
vn -0.91036625394505 -0.41380343603945213 0
vn -0.7893524163640988 -0.6139403576734132 0
vn -0.7893524163640988 -0.6139403576734132 0
vn -0.7893524163640988 -0.6139403576734132 0
vn -0.7893524163640988 -0.6139403576734132 0
vn -0.7893524163640988 -0.6139403576734132 0
vn -0.7893524163640988 -0.6139403576734132 0
vn -0.6139403576734132 -0.7893524163640988 0
vn -0.6139403576734132 -0.7893524163640988 0
vn -0.6139403576734132 -0.7893524163640988 0
vn -0.6139403576734132 -0.7893524163640988 0
vn -0.6139403576734132 -0.7893524163640988 0
vn -0.6139403576734132 -0.7893524163640988 0
vn -0.41380343603945213 -0.91036625394505 0
vn -0.41380343603945213 -0.91036625394505 0
vn -0.41380343603945213 -0.91036625394505 0
vn -0.41380343603945213 -0.91036625394505 0
vn -0.41380343603945213 -0.91036625394505 0
vn -0.41380343603945213 -0.91036625394505 0
vn -0.2248590909730792 -0.9743912916312215 0
vn -0.2248590909730792 -0.9743912916312215 0
vn -0.2248590909730792 -0.9743912916312215 0
vn -0.2248590909730792 -0.9743912916312215 0
vn -0.2248590909730792 -0.9743912916312215 0
vn -0.2248590909730792 -0.9743912916312215 0
vn -0.06651800222280695 -0.9977852250761616 0
vn -0.06651800222280695 -0.9977852250761616 0
vn -0.06651800222280695 -0.9977852250761616 0
vn -0.06651800222280695 -0.9977852250761616 0
vn -0.06651800222280695 -0.9977852250761616 0
vn -0.06651800222280695 -0.9977852250761616 0
f 1/1/1 2/2/2 3/3/3
f 4/4/4 5/5/5 6/6/6
f 7/7/7 8/8/8 9/9/9
f 10/10/10 11/11/11 12/12/12
f 13/13/13 14/14/14 15/15/15
f 16/16/16 17/17/17 18/18/18
f 19/19/19 20/20/20 21/21/21
f 22/22/22 23/23/23 24/24/24
f 25/25/25 26/26/26 27/27/27
f 28/28/28 29/29/29 30/30/30
f 31/31/31 32/32/32 33/33/33
f 34/34/34 35/35/35 36/36/36
f 37/37/37 38/38/38 39/39/39
f 40/40/40 41/41/41 42/42/42
f 43/43/43 44/44/44 45/45/45
f 46/46/46 47/47/47 48/48/48
f 49/49/49 50/50/50 51/51/51
f 52/52/52 53/53/53 54/54/54
f 55/55/55 56/56/56 57/57/57
f 58/58/58 59/59/59 60/60/60
f 61/61/61 62/62/62 63/63/63
f 64/64/64 65/65/65 66/66/66
f 67/67/67 68/68/68 69/69/69
f 70/70/70 71/71/71 72/72/72
f 73/73/73 74/74/74 75/75/75
f 76/76/76 77/77/77 78/78/78
f 79/79/79 80/80/80 81/81/81
f 82/82/82 83/83/83 84/84/84
f 85/85/85 86/86/86 87/87/87
f 88/88/88 89/89/89 90/90/90
f 91/91/91 92/92/92 93/93/93
f 94/94/94 95/95/95 96/96/96
f 97/97/97 98/98/98 99/99/99
f 100/100/100 101/101/101 102/102/102
f 103/103/103 104/104/104 105/105/105
f 106/106/106 107/107/107 108/108/108
f 109/109/109 110/110/110 111/111/111
f 112/112/112 113/113/113 114/114/114
f 115/115/115 116/116/116 117/117/117
f 118/118/118 119/119/119 120/120/120
f 121/121/121 122/122/122 123/123/123
f 124/124/124 125/125/125 126/126/126
f 127/127/127 128/128/128 129/129/129
f 130/130/130 131/131/131 132/132/132
f 133/133/133 134/134/134 135/135/135
f 136/136/136 137/137/137 138/138/138
f 139/139/139 140/140/140 141/141/141
f 142/142/142 143/143/143 144/144/144
f 145/145/145 146/146/146 147/147/147
f 148/148/148 149/149/149 150/150/150
f 151/151/151 152/152/152 153/153/153
f 154/154/154 155/155/155 156/156/156
f 157/157/157 158/158/158 159/159/159
f 160/160/160 161/161/161 162/162/162
f 163/163/163 164/164/164 165/165/165
f 166/166/166 167/167/167 168/168/168
f 169/169/169 170/170/170 171/171/171
f 172/172/172 173/173/173 174/174/174
f 175/175/175 176/176/176 177/177/177
f 178/178/178 179/179/179 180/180/180
f 181/181/181 182/182/182 183/183/183
f 184/184/184 185/185/185 186/186/186
f 187/187/187 188/188/188 189/189/189
f 190/190/190 191/191/191 192/192/192
f 193/193/193 194/194/194 195/195/195
f 196/196/196 197/197/197 198/198/198
f 199/199/199 200/200/200 201/201/201
f 202/202/202 203/203/203 204/204/204
f 205/205/205 206/206/206 207/207/207
f 208/208/208 209/209/209 210/210/210
f 211/211/211 212/212/212 213/213/213
f 214/214/214 215/215/215 216/216/216
f 217/217/217 218/218/218 219/219/219
f 220/220/220 221/221/221 222/222/222
f 223/223/223 224/224/224 225/225/225
f 226/226/226 227/227/227 228/228/228
f 229/229/229 230/230/230 231/231/231
f 232/232/232 233/233/233 234/234/234
f 235/235/235 236/236/236 237/237/237
f 238/238/238 239/239/239 240/240/240
f 241/241/241 242/242/242 243/243/243
f 244/244/244 245/245/245 246/246/246
f 247/247/247 248/248/248 249/249/249
f 250/250/250 251/251/251 252/252/252
f 253/253/253 254/254/254 255/255/255
f 256/256/256 257/257/257 258/258/258
f 259/259/259 260/260/260 261/261/261
f 262/262/262 263/263/263 264/264/264
f 265/265/265 266/266/266 267/267/267
f 268/268/268 269/269/269 270/270/270
f 271/271/271 272/272/272 273/273/273
f 274/274/274 275/275/275 276/276/276
f 277/277/277 278/278/278 279/279/279
f 280/280/280 281/281/281 282/282/282
f 283/283/283 284/284/284 285/285/285
f 286/286/286 287/287/287 288/288/288
f 289/289/289 290/290/290 291/291/291
f 292/292/292 293/293/293 294/294/294
f 295/295/295 296/296/296 297/297/297
f 298/298/298 299/299/299 300/300/300
f 301/301/301 302/302/302 303/303/303
f 304/304/304 305/305/305 306/306/306
f 307/307/307 308/308/308 309/309/309
f 310/310/310 311/311/311 312/312/312
f 313/313/313 314/314/314 315/315/315
f 316/316/316 317/317/317 318/318/318
f 319/319/319 320/320/320 321/321/321
f 322/322/322 323/323/323 324/324/324
f 325/325/325 326/326/326 327/327/327
f 328/328/328 329/329/329 330/330/330
f 331/331/331 332/332/332 333/333/333
f 334/334/334 335/335/335 336/336/336
f 337/337/337 338/338/338 339/339/339
f 340/340/340 341/341/341 342/342/342
f 343/343/343 344/344/344 345/345/345
f 346/346/346 347/347/347 348/348/348
f 349/349/349 350/350/350 351/351/351
f 352/352/352 353/353/353 354/354/354
f 355/355/355 356/356/356 357/357/357
f 358/358/358 359/359/359 360/360/360
f 361/361/361 362/362/362 363/363/363
f 364/364/364 365/365/365 366/366/366
f 367/367/367 368/368/368 369/369/369
f 370/370/370 371/371/371 372/372/372
f 373/373/373 374/374/374 375/375/375
f 376/376/376 377/377/377 378/378/378
f 379/379/379 380/380/380 381/381/381
f 382/382/382 383/383/383 384/384/384
f 385/385/385 386/386/386 387/387/387
f 388/388/388 389/389/389 390/390/390
f 391/391/391 392/392/392 393/393/393
f 394/394/394 395/395/395 396/396/396
f 397/397/397 398/398/398 399/399/399
f 400/400/400 401/401/401 402/402/402
f 403/403/403 404/404/404 405/405/405
f 406/406/406 407/407/407 408/408/408
f 409/409/409 410/410/410 411/411/411
f 412/412/412 413/413/413 414/414/414
f 415/415/415 416/416/416 417/417/417
f 418/418/418 419/419/419 420/420/420
o crate_band_x-1
usemtl cream
v -0.6750000006705522 0.7799999982118606 0.6019999980926514
v -0.6750000006705522 0.7799999982118606 -0.6019999980926514
v -0.6750000006705522 0.6200000017881393 0.6019999980926514
v -0.6750000006705522 0.6200000017881393 -0.6019999980926514
v -0.7349999993294477 0.7799999982118606 -0.6019999980926514
v -0.7349999993294477 0.7799999982118606 0.6019999980926514
v -0.7349999993294477 0.6200000017881393 -0.6019999980926514
v -0.7349999993294477 0.6200000017881393 0.6019999980926514
v -0.7349999993294477 0.7799999982118606 -0.6019999980926514
v -0.6750000006705522 0.7799999982118606 -0.6019999980926514
v -0.7349999993294477 0.7799999982118606 0.6019999980926514
v -0.6750000006705522 0.7799999982118606 0.6019999980926514
v -0.7349999993294477 0.6200000017881393 0.6019999980926514
v -0.6750000006705522 0.6200000017881393 0.6019999980926514
v -0.7349999993294477 0.6200000017881393 -0.6019999980926514
v -0.6750000006705522 0.6200000017881393 -0.6019999980926514
v -0.7349999993294477 0.7799999982118606 0.6019999980926514
v -0.6750000006705522 0.7799999982118606 0.6019999980926514
v -0.7349999993294477 0.6200000017881393 0.6019999980926514
v -0.6750000006705522 0.6200000017881393 0.6019999980926514
v -0.6750000006705522 0.7799999982118606 -0.6019999980926514
v -0.7349999993294477 0.7799999982118606 -0.6019999980926514
v -0.6750000006705522 0.6200000017881393 -0.6019999980926514
v -0.7349999993294477 0.6200000017881393 -0.6019999980926514
vt 0 1
vt 1 1
vt 0 0
vt 1 0
vt 0 1
vt 1 1
vt 0 0
vt 1 0
vt 0 1
vt 1 1
vt 0 0
vt 1 0
vt 0 1
vt 1 1
vt 0 0
vt 1 0
vt 0 1
vt 1 1
vt 0 0
vt 1 0
vt 0 1
vt 1 1
vt 0 0
vt 1 0
vn 1 0 0
vn 1 0 0
vn 1 0 0
vn 1 0 0
vn -1 0 0
vn -1 0 0
vn -1 0 0
vn -1 0 0
vn 0 1 0
vn 0 1 0
vn 0 1 0
vn 0 1 0
vn 0 -1 0
vn 0 -1 0
vn 0 -1 0
vn 0 -1 0
vn 0 0 1
vn 0 0 1
vn 0 0 1
vn 0 0 1
vn 0 0 -1
vn 0 0 -1
vn 0 0 -1
vn 0 0 -1
f 421/421/421 423/423/423 422/422/422
f 423/423/423 424/424/424 422/422/422
f 425/425/425 427/427/427 426/426/426
f 427/427/427 428/428/428 426/426/426
f 429/429/429 431/431/431 430/430/430
f 431/431/431 432/432/432 430/430/430
f 433/433/433 435/435/435 434/434/434
f 435/435/435 436/436/436 434/434/434
f 437/437/437 439/439/439 438/438/438
f 439/439/439 440/440/440 438/438/438
f 441/441/441 443/443/443 442/442/442
f 443/443/443 444/444/444 442/442/442
o crate_band2_x-1
usemtl cream
v -0.6750000006705522 1.2799999982118606 0.6019999980926514
v -0.6750000006705522 1.2799999982118606 -0.6019999980926514
v -0.6750000006705522 1.1200000017881393 0.6019999980926514
v -0.6750000006705522 1.1200000017881393 -0.6019999980926514
v -0.7349999993294477 1.2799999982118606 -0.6019999980926514
v -0.7349999993294477 1.2799999982118606 0.6019999980926514
v -0.7349999993294477 1.1200000017881393 -0.6019999980926514
v -0.7349999993294477 1.1200000017881393 0.6019999980926514
v -0.7349999993294477 1.2799999982118606 -0.6019999980926514
v -0.6750000006705522 1.2799999982118606 -0.6019999980926514
v -0.7349999993294477 1.2799999982118606 0.6019999980926514
v -0.6750000006705522 1.2799999982118606 0.6019999980926514
v -0.7349999993294477 1.1200000017881393 0.6019999980926514
v -0.6750000006705522 1.1200000017881393 0.6019999980926514
v -0.7349999993294477 1.1200000017881393 -0.6019999980926514
v -0.6750000006705522 1.1200000017881393 -0.6019999980926514
v -0.7349999993294477 1.2799999982118606 0.6019999980926514
v -0.6750000006705522 1.2799999982118606 0.6019999980926514
v -0.7349999993294477 1.1200000017881393 0.6019999980926514
v -0.6750000006705522 1.1200000017881393 0.6019999980926514
v -0.6750000006705522 1.2799999982118606 -0.6019999980926514
v -0.7349999993294477 1.2799999982118606 -0.6019999980926514
v -0.6750000006705522 1.1200000017881393 -0.6019999980926514
v -0.7349999993294477 1.1200000017881393 -0.6019999980926514
vt 0 1
vt 1 1
vt 0 0
vt 1 0
vt 0 1
vt 1 1
vt 0 0
vt 1 0
vt 0 1
vt 1 1
vt 0 0
vt 1 0
vt 0 1
vt 1 1
vt 0 0
vt 1 0
vt 0 1
vt 1 1
vt 0 0
vt 1 0
vt 0 1
vt 1 1
vt 0 0
vt 1 0
vn 1 0 0
vn 1 0 0
vn 1 0 0
vn 1 0 0
vn -1 0 0
vn -1 0 0
vn -1 0 0
vn -1 0 0
vn 0 1 0
vn 0 1 0
vn 0 1 0
vn 0 1 0
vn 0 -1 0
vn 0 -1 0
vn 0 -1 0
vn 0 -1 0
vn 0 0 1
vn 0 0 1
vn 0 0 1
vn 0 0 1
vn 0 0 -1
vn 0 0 -1
vn 0 0 -1
vn 0 0 -1
f 445/445/445 447/447/447 446/446/446
f 447/447/447 448/448/448 446/446/446
f 449/449/449 451/451/451 450/450/450
f 451/451/451 452/452/452 450/450/450
f 453/453/453 455/455/455 454/454/454
f 455/455/455 456/456/456 454/454/454
f 457/457/457 459/459/459 458/458/458
f 459/459/459 460/460/460 458/458/458
f 461/461/461 463/463/463 462/462/462
f 463/463/463 464/464/464 462/462/462
f 465/465/465 467/467/467 466/466/466
f 467/467/467 468/468/468 466/466/466
o crate_band_x1
usemtl cream
v 0.7349999993294477 0.7799999982118606 0.6019999980926514
v 0.7349999993294477 0.7799999982118606 -0.6019999980926514
v 0.7349999993294477 0.6200000017881393 0.6019999980926514
v 0.7349999993294477 0.6200000017881393 -0.6019999980926514
v 0.6750000006705522 0.7799999982118606 -0.6019999980926514
v 0.6750000006705522 0.7799999982118606 0.6019999980926514
v 0.6750000006705522 0.6200000017881393 -0.6019999980926514
v 0.6750000006705522 0.6200000017881393 0.6019999980926514
v 0.6750000006705522 0.7799999982118606 -0.6019999980926514
v 0.7349999993294477 0.7799999982118606 -0.6019999980926514
v 0.6750000006705522 0.7799999982118606 0.6019999980926514
v 0.7349999993294477 0.7799999982118606 0.6019999980926514
v 0.6750000006705522 0.6200000017881393 0.6019999980926514
v 0.7349999993294477 0.6200000017881393 0.6019999980926514
v 0.6750000006705522 0.6200000017881393 -0.6019999980926514
v 0.7349999993294477 0.6200000017881393 -0.6019999980926514
v 0.6750000006705522 0.7799999982118606 0.6019999980926514
v 0.7349999993294477 0.7799999982118606 0.6019999980926514
v 0.6750000006705522 0.6200000017881393 0.6019999980926514
v 0.7349999993294477 0.6200000017881393 0.6019999980926514
v 0.7349999993294477 0.7799999982118606 -0.6019999980926514
v 0.6750000006705522 0.7799999982118606 -0.6019999980926514
v 0.7349999993294477 0.6200000017881393 -0.6019999980926514
v 0.6750000006705522 0.6200000017881393 -0.6019999980926514
vt 0 1
vt 1 1
vt 0 0
vt 1 0
vt 0 1
vt 1 1
vt 0 0
vt 1 0
vt 0 1
vt 1 1
vt 0 0
vt 1 0
vt 0 1
vt 1 1
vt 0 0
vt 1 0
vt 0 1
vt 1 1
vt 0 0
vt 1 0
vt 0 1
vt 1 1
vt 0 0
vt 1 0
vn 1 0 0
vn 1 0 0
vn 1 0 0
vn 1 0 0
vn -1 0 0
vn -1 0 0
vn -1 0 0
vn -1 0 0
vn 0 1 0
vn 0 1 0
vn 0 1 0
vn 0 1 0
vn 0 -1 0
vn 0 -1 0
vn 0 -1 0
vn 0 -1 0
vn 0 0 1
vn 0 0 1
vn 0 0 1
vn 0 0 1
vn 0 0 -1
vn 0 0 -1
vn 0 0 -1
vn 0 0 -1
f 469/469/469 471/471/471 470/470/470
f 471/471/471 472/472/472 470/470/470
f 473/473/473 475/475/475 474/474/474
f 475/475/475 476/476/476 474/474/474
f 477/477/477 479/479/479 478/478/478
f 479/479/479 480/480/480 478/478/478
f 481/481/481 483/483/483 482/482/482
f 483/483/483 484/484/484 482/482/482
f 485/485/485 487/487/487 486/486/486
f 487/487/487 488/488/488 486/486/486
f 489/489/489 491/491/491 490/490/490
f 491/491/491 492/492/492 490/490/490
o crate_band2_x1
usemtl cream
v 0.7349999993294477 1.2799999982118606 0.6019999980926514
v 0.7349999993294477 1.2799999982118606 -0.6019999980926514
v 0.7349999993294477 1.1200000017881393 0.6019999980926514
v 0.7349999993294477 1.1200000017881393 -0.6019999980926514
v 0.6750000006705522 1.2799999982118606 -0.6019999980926514
v 0.6750000006705522 1.2799999982118606 0.6019999980926514
v 0.6750000006705522 1.1200000017881393 -0.6019999980926514
v 0.6750000006705522 1.1200000017881393 0.6019999980926514
v 0.6750000006705522 1.2799999982118606 -0.6019999980926514
v 0.7349999993294477 1.2799999982118606 -0.6019999980926514
v 0.6750000006705522 1.2799999982118606 0.6019999980926514
v 0.7349999993294477 1.2799999982118606 0.6019999980926514
v 0.6750000006705522 1.1200000017881393 0.6019999980926514
v 0.7349999993294477 1.1200000017881393 0.6019999980926514
v 0.6750000006705522 1.1200000017881393 -0.6019999980926514
v 0.7349999993294477 1.1200000017881393 -0.6019999980926514
v 0.6750000006705522 1.2799999982118606 0.6019999980926514
v 0.7349999993294477 1.2799999982118606 0.6019999980926514
v 0.6750000006705522 1.1200000017881393 0.6019999980926514
v 0.7349999993294477 1.1200000017881393 0.6019999980926514
v 0.7349999993294477 1.2799999982118606 -0.6019999980926514
v 0.6750000006705522 1.2799999982118606 -0.6019999980926514
v 0.7349999993294477 1.1200000017881393 -0.6019999980926514
v 0.6750000006705522 1.1200000017881393 -0.6019999980926514
vt 0 1
vt 1 1
vt 0 0
vt 1 0
vt 0 1
vt 1 1
vt 0 0
vt 1 0
vt 0 1
vt 1 1
vt 0 0
vt 1 0
vt 0 1
vt 1 1
vt 0 0
vt 1 0
vt 0 1
vt 1 1
vt 0 0
vt 1 0
vt 0 1
vt 1 1
vt 0 0
vt 1 0
vn 1 0 0
vn 1 0 0
vn 1 0 0
vn 1 0 0
vn -1 0 0
vn -1 0 0
vn -1 0 0
vn -1 0 0
vn 0 1 0
vn 0 1 0
vn 0 1 0
vn 0 1 0
vn 0 -1 0
vn 0 -1 0
vn 0 -1 0
vn 0 -1 0
vn 0 0 1
vn 0 0 1
vn 0 0 1
vn 0 0 1
vn 0 0 -1
vn 0 0 -1
vn 0 0 -1
vn 0 0 -1
f 493/493/493 495/495/495 494/494/494
f 495/495/495 496/496/496 494/494/494
f 497/497/497 499/499/499 498/498/498
f 499/499/499 500/500/500 498/498/498
f 501/501/501 503/503/503 502/502/502
f 503/503/503 504/504/504 502/502/502
f 505/505/505 507/507/507 506/506/506
f 507/507/507 508/508/508 506/506/506
f 509/509/509 511/511/511 510/510/510
f 511/511/511 512/512/512 510/510/510
f 513/513/513 515/515/515 514/514/514
f 515/515/515 516/516/516 514/514/514
o crate_band_z-1
usemtl cream
v 0.6019999980926514 0.7799999982118606 -0.6750000006705522
v 0.6019999980926514 0.7799999982118606 -0.7349999993294477
v 0.6019999980926514 0.6200000017881393 -0.6750000006705522
v 0.6019999980926514 0.6200000017881393 -0.7349999993294477
v -0.6019999980926514 0.7799999982118606 -0.7349999993294477
v -0.6019999980926514 0.7799999982118606 -0.6750000006705522
v -0.6019999980926514 0.6200000017881393 -0.7349999993294477
v -0.6019999980926514 0.6200000017881393 -0.6750000006705522
v -0.6019999980926514 0.7799999982118606 -0.7349999993294477
v 0.6019999980926514 0.7799999982118606 -0.7349999993294477
v -0.6019999980926514 0.7799999982118606 -0.6750000006705522
v 0.6019999980926514 0.7799999982118606 -0.6750000006705522
v -0.6019999980926514 0.6200000017881393 -0.6750000006705522
v 0.6019999980926514 0.6200000017881393 -0.6750000006705522
v -0.6019999980926514 0.6200000017881393 -0.7349999993294477
v 0.6019999980926514 0.6200000017881393 -0.7349999993294477
v -0.6019999980926514 0.7799999982118606 -0.6750000006705522
v 0.6019999980926514 0.7799999982118606 -0.6750000006705522
v -0.6019999980926514 0.6200000017881393 -0.6750000006705522
v 0.6019999980926514 0.6200000017881393 -0.6750000006705522
v 0.6019999980926514 0.7799999982118606 -0.7349999993294477
v -0.6019999980926514 0.7799999982118606 -0.7349999993294477
v 0.6019999980926514 0.6200000017881393 -0.7349999993294477
v -0.6019999980926514 0.6200000017881393 -0.7349999993294477
vt 0 1
vt 1 1
vt 0 0
vt 1 0
vt 0 1
vt 1 1
vt 0 0
vt 1 0
vt 0 1
vt 1 1
vt 0 0
vt 1 0
vt 0 1
vt 1 1
vt 0 0
vt 1 0
vt 0 1
vt 1 1
vt 0 0
vt 1 0
vt 0 1
vt 1 1
vt 0 0
vt 1 0
vn 1 0 0
vn 1 0 0
vn 1 0 0
vn 1 0 0
vn -1 0 0
vn -1 0 0
vn -1 0 0
vn -1 0 0
vn 0 1 0
vn 0 1 0
vn 0 1 0
vn 0 1 0
vn 0 -1 0
vn 0 -1 0
vn 0 -1 0
vn 0 -1 0
vn 0 0 1
vn 0 0 1
vn 0 0 1
vn 0 0 1
vn 0 0 -1
vn 0 0 -1
vn 0 0 -1
vn 0 0 -1
f 517/517/517 519/519/519 518/518/518
f 519/519/519 520/520/520 518/518/518
f 521/521/521 523/523/523 522/522/522
f 523/523/523 524/524/524 522/522/522
f 525/525/525 527/527/527 526/526/526
f 527/527/527 528/528/528 526/526/526
f 529/529/529 531/531/531 530/530/530
f 531/531/531 532/532/532 530/530/530
f 533/533/533 535/535/535 534/534/534
f 535/535/535 536/536/536 534/534/534
f 537/537/537 539/539/539 538/538/538
f 539/539/539 540/540/540 538/538/538
o crate_band2_z-1
usemtl cream
v 0.6019999980926514 1.2799999982118606 -0.6750000006705522
v 0.6019999980926514 1.2799999982118606 -0.7349999993294477
v 0.6019999980926514 1.1200000017881393 -0.6750000006705522
v 0.6019999980926514 1.1200000017881393 -0.7349999993294477
v -0.6019999980926514 1.2799999982118606 -0.7349999993294477
v -0.6019999980926514 1.2799999982118606 -0.6750000006705522
v -0.6019999980926514 1.1200000017881393 -0.7349999993294477
v -0.6019999980926514 1.1200000017881393 -0.6750000006705522
v -0.6019999980926514 1.2799999982118606 -0.7349999993294477
v 0.6019999980926514 1.2799999982118606 -0.7349999993294477
v -0.6019999980926514 1.2799999982118606 -0.6750000006705522
v 0.6019999980926514 1.2799999982118606 -0.6750000006705522
v -0.6019999980926514 1.1200000017881393 -0.6750000006705522
v 0.6019999980926514 1.1200000017881393 -0.6750000006705522
v -0.6019999980926514 1.1200000017881393 -0.7349999993294477
v 0.6019999980926514 1.1200000017881393 -0.7349999993294477
v -0.6019999980926514 1.2799999982118606 -0.6750000006705522
v 0.6019999980926514 1.2799999982118606 -0.6750000006705522
v -0.6019999980926514 1.1200000017881393 -0.6750000006705522
v 0.6019999980926514 1.1200000017881393 -0.6750000006705522
v 0.6019999980926514 1.2799999982118606 -0.7349999993294477
v -0.6019999980926514 1.2799999982118606 -0.7349999993294477
v 0.6019999980926514 1.1200000017881393 -0.7349999993294477
v -0.6019999980926514 1.1200000017881393 -0.7349999993294477
vt 0 1
vt 1 1
vt 0 0
vt 1 0
vt 0 1
vt 1 1
vt 0 0
vt 1 0
vt 0 1
vt 1 1
vt 0 0
vt 1 0
vt 0 1
vt 1 1
vt 0 0
vt 1 0
vt 0 1
vt 1 1
vt 0 0
vt 1 0
vt 0 1
vt 1 1
vt 0 0
vt 1 0
vn 1 0 0
vn 1 0 0
vn 1 0 0
vn 1 0 0
vn -1 0 0
vn -1 0 0
vn -1 0 0
vn -1 0 0
vn 0 1 0
vn 0 1 0
vn 0 1 0
vn 0 1 0
vn 0 -1 0
vn 0 -1 0
vn 0 -1 0
vn 0 -1 0
vn 0 0 1
vn 0 0 1
vn 0 0 1
vn 0 0 1
vn 0 0 -1
vn 0 0 -1
vn 0 0 -1
vn 0 0 -1
f 541/541/541 543/543/543 542/542/542
f 543/543/543 544/544/544 542/542/542
f 545/545/545 547/547/547 546/546/546
f 547/547/547 548/548/548 546/546/546
f 549/549/549 551/551/551 550/550/550
f 551/551/551 552/552/552 550/550/550
f 553/553/553 555/555/555 554/554/554
f 555/555/555 556/556/556 554/554/554
f 557/557/557 559/559/559 558/558/558
f 559/559/559 560/560/560 558/558/558
f 561/561/561 563/563/563 562/562/562
f 563/563/563 564/564/564 562/562/562
o crate_band_z1
usemtl cream
v 0.6019999980926514 0.7799999982118606 0.7349999993294477
v 0.6019999980926514 0.7799999982118606 0.6750000006705522
v 0.6019999980926514 0.6200000017881393 0.7349999993294477
v 0.6019999980926514 0.6200000017881393 0.6750000006705522
v -0.6019999980926514 0.7799999982118606 0.6750000006705522
v -0.6019999980926514 0.7799999982118606 0.7349999993294477
v -0.6019999980926514 0.6200000017881393 0.6750000006705522
v -0.6019999980926514 0.6200000017881393 0.7349999993294477
v -0.6019999980926514 0.7799999982118606 0.6750000006705522
v 0.6019999980926514 0.7799999982118606 0.6750000006705522
v -0.6019999980926514 0.7799999982118606 0.7349999993294477
v 0.6019999980926514 0.7799999982118606 0.7349999993294477
v -0.6019999980926514 0.6200000017881393 0.7349999993294477
v 0.6019999980926514 0.6200000017881393 0.7349999993294477
v -0.6019999980926514 0.6200000017881393 0.6750000006705522
v 0.6019999980926514 0.6200000017881393 0.6750000006705522
v -0.6019999980926514 0.7799999982118606 0.7349999993294477
v 0.6019999980926514 0.7799999982118606 0.7349999993294477
v -0.6019999980926514 0.6200000017881393 0.7349999993294477
v 0.6019999980926514 0.6200000017881393 0.7349999993294477
v 0.6019999980926514 0.7799999982118606 0.6750000006705522
v -0.6019999980926514 0.7799999982118606 0.6750000006705522
v 0.6019999980926514 0.6200000017881393 0.6750000006705522
v -0.6019999980926514 0.6200000017881393 0.6750000006705522
vt 0 1
vt 1 1
vt 0 0
vt 1 0
vt 0 1
vt 1 1
vt 0 0
vt 1 0
vt 0 1
vt 1 1
vt 0 0
vt 1 0
vt 0 1
vt 1 1
vt 0 0
vt 1 0
vt 0 1
vt 1 1
vt 0 0
vt 1 0
vt 0 1
vt 1 1
vt 0 0
vt 1 0
vn 1 0 0
vn 1 0 0
vn 1 0 0
vn 1 0 0
vn -1 0 0
vn -1 0 0
vn -1 0 0
vn -1 0 0
vn 0 1 0
vn 0 1 0
vn 0 1 0
vn 0 1 0
vn 0 -1 0
vn 0 -1 0
vn 0 -1 0
vn 0 -1 0
vn 0 0 1
vn 0 0 1
vn 0 0 1
vn 0 0 1
vn 0 0 -1
vn 0 0 -1
vn 0 0 -1
vn 0 0 -1
f 565/565/565 567/567/567 566/566/566
f 567/567/567 568/568/568 566/566/566
f 569/569/569 571/571/571 570/570/570
f 571/571/571 572/572/572 570/570/570
f 573/573/573 575/575/575 574/574/574
f 575/575/575 576/576/576 574/574/574
f 577/577/577 579/579/579 578/578/578
f 579/579/579 580/580/580 578/578/578
f 581/581/581 583/583/583 582/582/582
f 583/583/583 584/584/584 582/582/582
f 585/585/585 587/587/587 586/586/586
f 587/587/587 588/588/588 586/586/586
o crate_band2_z1
usemtl cream
v 0.6019999980926514 1.2799999982118606 0.7349999993294477
v 0.6019999980926514 1.2799999982118606 0.6750000006705522
v 0.6019999980926514 1.1200000017881393 0.7349999993294477
v 0.6019999980926514 1.1200000017881393 0.6750000006705522
v -0.6019999980926514 1.2799999982118606 0.6750000006705522
v -0.6019999980926514 1.2799999982118606 0.7349999993294477
v -0.6019999980926514 1.1200000017881393 0.6750000006705522
v -0.6019999980926514 1.1200000017881393 0.7349999993294477
v -0.6019999980926514 1.2799999982118606 0.6750000006705522
v 0.6019999980926514 1.2799999982118606 0.6750000006705522
v -0.6019999980926514 1.2799999982118606 0.7349999993294477
v 0.6019999980926514 1.2799999982118606 0.7349999993294477
v -0.6019999980926514 1.1200000017881393 0.7349999993294477
v 0.6019999980926514 1.1200000017881393 0.7349999993294477
v -0.6019999980926514 1.1200000017881393 0.6750000006705522
v 0.6019999980926514 1.1200000017881393 0.6750000006705522
v -0.6019999980926514 1.2799999982118606 0.7349999993294477
v 0.6019999980926514 1.2799999982118606 0.7349999993294477
v -0.6019999980926514 1.1200000017881393 0.7349999993294477
v 0.6019999980926514 1.1200000017881393 0.7349999993294477
v 0.6019999980926514 1.2799999982118606 0.6750000006705522
v -0.6019999980926514 1.2799999982118606 0.6750000006705522
v 0.6019999980926514 1.1200000017881393 0.6750000006705522
v -0.6019999980926514 1.1200000017881393 0.6750000006705522
vt 0 1
vt 1 1
vt 0 0
vt 1 0
vt 0 1
vt 1 1
vt 0 0
vt 1 0
vt 0 1
vt 1 1
vt 0 0
vt 1 0
vt 0 1
vt 1 1
vt 0 0
vt 1 0
vt 0 1
vt 1 1
vt 0 0
vt 1 0
vt 0 1
vt 1 1
vt 0 0
vt 1 0
vn 1 0 0
vn 1 0 0
vn 1 0 0
vn 1 0 0
vn -1 0 0
vn -1 0 0
vn -1 0 0
vn -1 0 0
vn 0 1 0
vn 0 1 0
vn 0 1 0
vn 0 1 0
vn 0 -1 0
vn 0 -1 0
vn 0 -1 0
vn 0 -1 0
vn 0 0 1
vn 0 0 1
vn 0 0 1
vn 0 0 1
vn 0 0 -1
vn 0 0 -1
vn 0 0 -1
vn 0 0 -1
f 589/589/589 591/591/591 590/590/590
f 591/591/591 592/592/592 590/590/590
f 593/593/593 595/595/595 594/594/594
f 595/595/595 596/596/596 594/594/594
f 597/597/597 599/599/599 598/598/598
f 599/599/599 600/600/600 598/598/598
f 601/601/601 603/603/603 602/602/602
f 603/603/603 604/604/604 602/602/602
f 605/605/605 607/607/607 606/606/606
f 607/607/607 608/608/608 606/606/606
f 609/609/609 611/611/611 610/610/610
f 611/611/611 612/612/612 610/610/610
o crate_label
usemtl yellow
v 0.3499999940395355 1.0499999940395355 0.7499999993294477
v 0.3499999940395355 1.0499999940395355 0.6900000006705522
v 0.3499999940395355 0.35000000596046443 0.7499999993294477
v 0.3499999940395355 0.35000000596046443 0.6900000006705522
v -0.3499999940395355 1.0499999940395355 0.6900000006705522
v -0.3499999940395355 1.0499999940395355 0.7499999993294477
v -0.3499999940395355 0.35000000596046443 0.6900000006705522
v -0.3499999940395355 0.35000000596046443 0.7499999993294477
v -0.3499999940395355 1.0499999940395355 0.6900000006705522
v 0.3499999940395355 1.0499999940395355 0.6900000006705522
v -0.3499999940395355 1.0499999940395355 0.7499999993294477
v 0.3499999940395355 1.0499999940395355 0.7499999993294477
v -0.3499999940395355 0.35000000596046443 0.7499999993294477
v 0.3499999940395355 0.35000000596046443 0.7499999993294477
v -0.3499999940395355 0.35000000596046443 0.6900000006705522
v 0.3499999940395355 0.35000000596046443 0.6900000006705522
v -0.3499999940395355 1.0499999940395355 0.7499999993294477
v 0.3499999940395355 1.0499999940395355 0.7499999993294477
v -0.3499999940395355 0.35000000596046443 0.7499999993294477
v 0.3499999940395355 0.35000000596046443 0.7499999993294477
v 0.3499999940395355 1.0499999940395355 0.6900000006705522
v -0.3499999940395355 1.0499999940395355 0.6900000006705522
v 0.3499999940395355 0.35000000596046443 0.6900000006705522
v -0.3499999940395355 0.35000000596046443 0.6900000006705522
vt 0 1
vt 1 1
vt 0 0
vt 1 0
vt 0 1
vt 1 1
vt 0 0
vt 1 0
vt 0 1
vt 1 1
vt 0 0
vt 1 0
vt 0 1
vt 1 1
vt 0 0
vt 1 0
vt 0 1
vt 1 1
vt 0 0
vt 1 0
vt 0 1
vt 1 1
vt 0 0
vt 1 0
vn 1 0 0
vn 1 0 0
vn 1 0 0
vn 1 0 0
vn -1 0 0
vn -1 0 0
vn -1 0 0
vn -1 0 0
vn 0 1 0
vn 0 1 0
vn 0 1 0
vn 0 1 0
vn 0 -1 0
vn 0 -1 0
vn 0 -1 0
vn 0 -1 0
vn 0 0 1
vn 0 0 1
vn 0 0 1
vn 0 0 1
vn 0 0 -1
vn 0 0 -1
vn 0 0 -1
vn 0 0 -1
f 613/613/613 615/615/615 614/614/614
f 615/615/615 616/616/616 614/614/614
f 617/617/617 619/619/619 618/618/618
f 619/619/619 620/620/620 618/618/618
f 621/621/621 623/623/623 622/622/622
f 623/623/623 624/624/624 622/622/622
f 625/625/625 627/627/627 626/626/626
f 627/627/627 628/628/628 626/626/626
f 629/629/629 631/631/631 630/630/630
f 631/631/631 632/632/632 630/630/630
f 633/633/633 635/635/635 634/634/634
f 635/635/635 636/636/636 634/634/634
